<svg xmlns:svg="http://www.w3.org/2000/svg" xmlns="http://www.w3.org/2000/svg" xmlns:xlink="http://www.w3.org/1999/xlink" id="svg1930" version="1.1"
   viewBox="0 0 170.12708 317.5" height="1200" width="643">
   <defs id="defs1896">
      <linearGradient id="a">
         <stop id="stop1834" stop-color="#c4c4c4" offset="0" />
         <stop id="stop1836" stop-color="#595959" offset="1" />
      </linearGradient>
      <linearGradient id="b">
         <stop id="stop1839" stop-color="#7a7a7a" offset="0" />
         <stop id="stop1841" stop-opacity="0" stop-color="#7a7a7a" offset="1" />
      </linearGradient>
      <linearGradient id="c">
         <stop id="stop1844" stop-color="#101010" offset="0" />
         <stop id="stop1846" stop-color="#989898" offset=".5" />
         <stop id="stop1848" stop-color="#221f1f" offset="1" />
      </linearGradient>
      <linearGradient id="d">
         <stop id="stop1851" stop-color="#858585" offset="0" />
         <stop id="stop1853" stop-color="#282828" offset="1" />
      </linearGradient>
      <linearGradient id="e">
         <stop id="stop1856" stop-color="#3e3e3e" offset="0" />
         <stop id="stop1858" offset="1" />
      </linearGradient>
      <linearGradient id="f">
         <stop id="stop1861" stop-color="#dadada" offset="0" />
         <stop id="stop1863" stop-color="#636363" offset="1" />
      </linearGradient>
      <linearGradient id="g">
         <stop id="stop1866" stop-color="#888" offset="0" />
         <stop id="stop1868" stop-opacity="0" stop-color="#888" offset="1" />
      </linearGradient>
      <linearGradient id="h">
         <stop id="stop1871" stop-color="#121212" offset="0" />
         <stop id="stop1873" stop-color="#a9a9a9" offset=".5" />
         <stop id="stop1875" stop-color="#262222" offset="1" />
      </linearGradient>
      <linearGradient id="i">
         <stop id="stop1878" stop-color="#949494" offset="0" />
         <stop id="stop1880" stop-color="#2c2c2c" offset="1" />
      </linearGradient>
      <linearGradient id="j">
         <stop id="stop1883" stop-color="#454545" offset="0" />
         <stop id="stop1885" stop-color="#0a0a0a" offset="1" />
      </linearGradient>
      <linearGradient id="k">
         <stop id="stop1888" stop-color="#4d4d4d" offset="0" />
         <stop id="stop1890" stop-color="#0b0b0b" offset="1" />
      </linearGradient>
      <clipPath clipPathUnits="userSpaceOnUse" id="clipPath3657">
         <circle style="fill:#473e81;stroke:#1a191e;stroke-width:0.86208999;stroke-linecap:round" id="circle3659" r="87.568947" cy="-262.03094"
            cx="-615.61865" />
      </clipPath>
      <clipPath id="clipPath4420" clipPathUnits="userSpaceOnUse">
         <circle id="circle4422" r="87.568947" cy="-262.03094" cx="-615.61865"
            style="fill:#473e81;stroke:#1a191e;stroke-width:0.86208999;stroke-linecap:round" />
      </clipPath>
      <linearGradient xlink:href="#k-4" id="aj" gradientUnits="userSpaceOnUse"
         gradientTransform="matrix(1.1623465,0.08835763,-0.08835763,1.1623465,-1308.5393,-74.958383)" x1="1489.2958" y1="667.79865" x2="1450.7551"
         y2="715.26587" />
      <linearGradient id="k-4">
         <stop id="stop57" stop-color="#f2f2f2" offset="0" />
         <stop id="stop59" stop-color="#6e6e6e" offset="1" />
      </linearGradient>
      <linearGradient xlink:href="#k-4" id="ak" gradientUnits="userSpaceOnUse"
         gradientTransform="matrix(1.16235,0.08836,-0.08836,1.16235,-1311.639,-76.25904)" x1="1458.281" y1="678.05872" x2="1464.223" y2="717.07275" />
      <linearGradient xlink:href="#l" id="al" gradientUnits="userSpaceOnUse" gradientTransform="matrix(1.1657,0,0,1.1657,-1374.2487,36.06295)"
         x1="1455.0509" y1="711.57135" x2="1466.9231" y2="711.57135" />
      <linearGradient id="l">
         <stop id="stop64" stop-color="#979797" offset="0" />
         <stop id="stop66" stop-opacity="0" stop-color="#979797" offset="1" />
      </linearGradient>
      <linearGradient xlink:href="#k-4" id="am" gradientUnits="userSpaceOnUse"
         gradientTransform="matrix(1.16235,0.08836,-0.08836,1.16235,-1311.639,-76.25904)" x1="1487.8141" y1="663.16022" x2="1444.5061"
         y2="682.60339" />
      <linearGradient xlink:href="#m" id="an" gradientUnits="userSpaceOnUse" x1="1378.1128" y1="883.67627" x2="1369.9249" y2="910.1145" />
      <linearGradient id="m">
         <stop id="stop71" stop-color="#141414" offset="0" />
         <stop id="stop73" stop-color="#bcbcbc" offset=".5" />
         <stop id="stop75" stop-color="#2a2626" offset="1" />
      </linearGradient>
      <linearGradient xlink:href="#n" id="ao" gradientUnits="userSpaceOnUse" gradientTransform="matrix(0.90667,5.7e-4,5e-4,0.9188,127.09096,71.58128)"
         x1="1423.3486" y1="908.87756" x2="1351.9747" y2="893.44263" />
      <linearGradient id="n">
         <stop id="stop79" stop-color="#a4a4a4" offset="0" />
         <stop id="stop81" stop-color="#313131" offset="1" />
      </linearGradient>
      <linearGradient xlink:href="#k-4" id="aq" gradientUnits="userSpaceOnUse"
         gradientTransform="matrix(1.1623465,0.08835763,-0.08835763,1.1623465,-1290.0219,-69.268466)" x1="1485.2881" y1="663.48065" x2="1462.1097"
         y2="706.55676" />
      <linearGradient xlink:href="#k-4" id="ar" gradientUnits="userSpaceOnUse"
         gradientTransform="matrix(1.1623465,0.08835763,-0.08835763,1.1623465,-1293.1184,-70.568957)" x1="1457.9685" y1="674.39838" x2="1464.8898"
         y2="724.73755" />
      <linearGradient xlink:href="#k-4" id="aw" gradientUnits="userSpaceOnUse"
         gradientTransform="matrix(1.1623465,0.08835763,-0.08835763,1.1623465,-1293.1184,-70.568963)" x1="1487.8141" y1="663.16022" x2="1444.5061"
         y2="682.60339" />
      <linearGradient xlink:href="#m" id="at" gradientUnits="userSpaceOnUse" gradientTransform="matrix(1,-0.07672,0,1,14.45325,135.07961)"
         x1="1480.3562" y1="713.55145" x2="1480.2505" y2="699.89374" />
      <linearGradient xlink:href="#m" id="au" gradientUnits="userSpaceOnUse" gradientTransform="matrix(1,-0.07672,0,1,14.45325,135.07961)"
         x1="1476.0466" y1="720.76678" x2="1475.4058" y2="691.3255" />
      <linearGradient xlink:href="#k-4" id="av" gradientUnits="userSpaceOnUse" gradientTransform="matrix(1,-0.07672,0,1,61.10047,103.91988)"
         x1="1426.3765" y1="742.80731" x2="1436.7494" y2="727.41016" />
      <filter style="color-interpolation-filters:sRGB" id="az" x="-0.01932" width="1.03863" y="-0.26409" height="1.52817">
         <feGaussianBlur id="feGaussianBlur135" stdDeviation="2.80703" />
      </filter>
      <filter style="color-interpolation-filters:sRGB" id="aA">
         <feGaussianBlur id="feGaussianBlur138" stdDeviation="1.44316" />
      </filter>
      <filter style="color-interpolation-filters:sRGB" id="aB">
         <feGaussianBlur id="feGaussianBlur141" stdDeviation="1.38063" />
      </filter>
      <filter style="color-interpolation-filters:sRGB" id="aC">
         <feGaussianBlur id="feGaussianBlur144" stdDeviation="1.33172" />
      </filter>
      <filter style="color-interpolation-filters:sRGB" id="aD">
         <feGaussianBlur id="feGaussianBlur147" stdDeviation="1.43792" />
      </filter>
      <filter style="color-interpolation-filters:sRGB" id="aE">
         <feGaussianBlur id="feGaussianBlur150" stdDeviation="1.25596" />
      </filter>
      <filter style="color-interpolation-filters:sRGB" id="aF">
         <feGaussianBlur id="feGaussianBlur153" stdDeviation=".70937" />
      </filter>
      <filter style="color-interpolation-filters:sRGB" id="aG">
         <feGaussianBlur id="feGaussianBlur156" stdDeviation=".70937" />
      </filter>
      <filter style="color-interpolation-filters:sRGB" id="aH">
         <feGaussianBlur id="feGaussianBlur159" stdDeviation=".70937" />
      </filter>
      <filter style="color-interpolation-filters:sRGB" id="aI">
         <feGaussianBlur id="feGaussianBlur162" stdDeviation=".70937" />
      </filter>
      <filter style="color-interpolation-filters:sRGB" id="aJ">
         <feGaussianBlur id="feGaussianBlur165" stdDeviation=".70937" />
      </filter>
      <filter style="color-interpolation-filters:sRGB" id="aK">
         <feGaussianBlur id="feGaussianBlur168" stdDeviation=".70937" />
      </filter>
      <filter style="color-interpolation-filters:sRGB" id="aL">
         <feGaussianBlur id="feGaussianBlur171" stdDeviation=".70937" />
      </filter>
      <filter style="color-interpolation-filters:sRGB" id="aM">
         <feGaussianBlur id="feGaussianBlur174" stdDeviation=".70937" />
      </filter>
      <filter style="color-interpolation-filters:sRGB" id="aN">
         <feGaussianBlur id="feGaussianBlur177" stdDeviation=".70937" />
      </filter>
      <filter style="color-interpolation-filters:sRGB" id="aO">
         <feGaussianBlur id="feGaussianBlur180" stdDeviation=".71843" />
      </filter>
      <filter style="color-interpolation-filters:sRGB" id="aP">
         <feGaussianBlur id="feGaussianBlur183" stdDeviation=".71843" />
      </filter>
      <filter style="color-interpolation-filters:sRGB" id="aQ">
         <feGaussianBlur id="feGaussianBlur186" stdDeviation=".71843" />
      </filter>
      <filter style="color-interpolation-filters:sRGB" id="aR">
         <feGaussianBlur id="feGaussianBlur189" stdDeviation=".71843" />
      </filter>
      <filter style="color-interpolation-filters:sRGB" id="aS">
         <feGaussianBlur id="feGaussianBlur192" stdDeviation=".71843" />
      </filter>
      <filter style="color-interpolation-filters:sRGB" id="aT">
         <feGaussianBlur id="feGaussianBlur195" stdDeviation=".71843" />
      </filter>
      <filter style="color-interpolation-filters:sRGB" id="aV">
         <feGaussianBlur id="feGaussianBlur198" stdDeviation=".80552" />
      </filter>
      <filter style="color-interpolation-filters:sRGB" id="D" x="-0.048870001" width="1.0977401" y="-0.13668001" height="1.27337">
         <feGaussianBlur id="feGaussianBlur201" stdDeviation=".62517" />
      </filter>
      <filter style="color-interpolation-filters:sRGB" id="ay">
         <feGaussianBlur id="feGaussianBlur204" stdDeviation="1.98776" />
      </filter>
      <filter style="color-interpolation-filters:sRGB" id="ax">
         <feGaussianBlur id="feGaussianBlur207" stdDeviation="2.05552" />
      </filter>
      <filter style="color-interpolation-filters:sRGB" id="G">
         <feGaussianBlur id="feGaussianBlur210" stdDeviation=".8496" />
      </filter>
      <filter style="color-interpolation-filters:sRGB" id="E">
         <feGaussianBlur id="feGaussianBlur213" stdDeviation=".8496" />
      </filter>
      <filter style="color-interpolation-filters:sRGB" id="F">
         <feGaussianBlur id="feGaussianBlur216" stdDeviation=".8496" />
      </filter>
      <radialGradient xlink:href="#k" id="N" gradientUnits="userSpaceOnUse"
         gradientTransform="matrix(0.36227,-0.00112,-0.00787,0.49499,897.13891,433.95193)" cx="1394.4729" cy="857.33496" fx="1394.4729" fy="857.33496"
         r="23.997231" />
      <radialGradient xlink:href="#k" id="ab" gradientUnits="userSpaceOnUse"
         gradientTransform="matrix(0.36227,-0.00112,-0.00787,0.49499,897.13891,433.95193)" cx="1394.4729" cy="857.33496" fx="1394.4729" fy="857.33496"
         r="23.997231" />
      <radialGradient xlink:href="#k" id="ap" gradientUnits="userSpaceOnUse"
         gradientTransform="matrix(0.36227,-0.00112,-0.00787,0.49499,897.13891,433.95193)" cx="1394.4729" cy="857.33496" fx="1394.4729" fy="857.33496"
         r="23.997231" />
      <radialGradient xlink:href="#k" id="v" gradientUnits="userSpaceOnUse"
         gradientTransform="matrix(0.36227,-0.00112,-0.00787,0.49499,897.13891,433.95193)" cx="1394.4729" cy="857.33496" fx="1394.4729" fy="857.33496"
         r="23.997231" />
      <clipPath id="clipPath1376" clipPathUnits="userSpaceOnUse">
         <circle id="circle1378" r="87.568947" cy="-262.03094" cx="-615.61865"
            style="fill:#473e81;stroke:#1a191e;stroke-width:0.86208999;stroke-linecap:round" />
      </clipPath>
      <linearGradient id="a-0">
         <stop offset="0" stop-color="#a8a8a8" id="stop1053" />
         <stop offset="1" stop-color="#828282" id="stop1055" />
      </linearGradient>
      <radialGradient xlink:href="#a-0" id="m-5" cx="108.35538" cy="65.195236" fx="108.35538" fy="65.195236" r="17.90435"
         gradientTransform="matrix(1,0,0,0.80798,-2e-5,13.41685)" gradientUnits="userSpaceOnUse" />
      <clipPath id="clipPath2827-2" clipPathUnits="userSpaceOnUse">
         <circle cx="-615.61871" cy="-262.03094" r="87.568947" id="circle2829-2"
            style="fill:#473e81;stroke:#1a191e;stroke-width:0.86209005;stroke-linecap:round" />
      </clipPath>
      <linearGradient id="n-8">
         <stop id="stop2" stop-color="#6d62b4" offset="0" />
         <stop id="stop4" stop-color="#473e81" offset="1" />
      </linearGradient>
      <linearGradient id="b-8">
         <stop id="stop7" stop-color="#787e94" offset="0" />
         <stop id="stop9" stop-color="#667097" offset="1" />
      </linearGradient>
      <linearGradient id="a-6">
         <stop id="stop12" stop-color="#5d6495" offset="0" />
         <stop id="stop14" stop-color="#767999" offset=".20911" />
         <stop id="stop16" stop-color="#5d6495" offset="1" />
      </linearGradient>
      <linearGradient gradientUnits="userSpaceOnUse" y2="77.310387" x2="149.28954" y1="65.283257" x1="81.85881" id="p" xlink:href="#a-6" />
      <linearGradient gradientUnits="userSpaceOnUse" y2="88.118423" x2="109.01274" y1="103.62005" x1="68.017563" id="q" xlink:href="#b-8" />
      <linearGradient gradientUnits="userSpaceOnUse" y2="105.15166" x2="108.35014" y1="81.816223" x1="111.99181" id="o" xlink:href="#n-8" />
      <clipPath clipPathUnits="userSpaceOnUse" id="clipPath2662">
         <circle style="fill:#473e81;stroke:#1a191e;stroke-width:0.86209005;stroke-linecap:round" id="circle2664" r="87.568947" cy="-262.03094"
            cx="-615.61865" />
      </clipPath>
      <linearGradient gradientUnits="userSpaceOnUse" y2="77.310387" x2="149.28954" y1="65.283257" x1="81.85881" id="p-8" xlink:href="#a-6" />
      <linearGradient gradientUnits="userSpaceOnUse" y2="88.118423" x2="109.01274" y1="103.62005" x1="68.017563" id="q-2" xlink:href="#b-8" />
      <linearGradient gradientUnits="userSpaceOnUse" y2="105.15166" x2="108.35014" y1="81.816223" x1="111.99181" id="o-9" xlink:href="#n-8" />
      <clipPath clipPathUnits="userSpaceOnUse" id="clipPath2662-5">
         <circle style="fill:#473e81;stroke:#1a191e;stroke-width:0.86209005;stroke-linecap:round" id="circle2664-1" r="87.568947" cy="-262.03094"
            cx="-615.61865" />
      </clipPath>
   </defs>
   <g font-weight="400" transform="matrix(-1,0,0,1,-52.380043,244.46791)" id="g100" style="font-weight:400;stroke:#000000;stroke-width:0.80847001"
      class="chair">
      <path transform="matrix(1.43613,0,0,1.43613,-281.30082,-171.93648)" style="overflow:visible;fill:url(#o-9);stroke:#534998;stroke-opacity:1"
         d="m 117.71484,29.58203 c 1.83257,-0.003 4.20304,0.0019 6.59766,0.01367 4.78924,0.02362 9.69318,0.07297 10.57031,0.11914 1.79028,0.09422 10.59891,0.66343 12.83985,0.99024 2.22535,0.32453 6.47261,2.07625 8.46679,4.62695 2.00473,2.56417 2.9953,6.45161 2.75977,12.29297 -0.23584,5.84858 -1.37009,17.38013 -1.74805,21.20703 -0.37442,3.791 -4.06412,25.08645 -4.91211,29.2793 -0.42517,2.10221 -1.07306,5.27433 -2.01562,8.3789 -0.94257,3.10458 -2.18454,6.14148 -3.76563,7.95508 -2.53526,2.9081 -6.2293,3.92752 -9.48828,4.89453 -3.2e-4,-5.3e-4 -0.0312,-0.0566 -0.0312,-0.0566 l -0.22656,0.13672 v 0.002 c -0.72533,0.21641 -1.55844,0.47244 -2.19922,0.70312 -1.75447,0.63161 -5.74045,1.65001 -9.46484,2.50586 -1.33038,0.30571 -2.48173,0.54272 -3.63477,0.7832 -0.002,-0.005 -0.01,-0.0488 -0.01,-0.0488 l -0.24609,0.0977 0.002,0.006 c -0.37352,0.0772 -0.86301,0.19161 -1.19921,0.25781 -1.42651,0.28088 -2.50057,0.45313 -2.83789,0.45313 -1.51467,0 -2.96654,0.048 -7.64063,-0.37696 -4.66298,-0.4239 -23.14552,-2.88266 -32.08008,-3.82812 -4.45412,-0.47134 -9.58519,-1.56567 -13.89844,-2.60938 -4.31325,-1.0437 -7.79982,-2.03422 -9,-2.30468 -0.10569,-0.0238 -0.4517,-0.18184 -0.58203,-0.21875 l -0.08789,-0.0645 c 0,0 -0.01349,0.0251 -0.01367,0.0254 -1.30853,-0.38045 -3.44091,-1.19236 -5.66797,-2.13085 -1.09867,-0.46299 -1.4203,-0.60862 -2.29882,-0.99024 v -0.0293 l -0.07422,-0.002 c -1.0743,-0.46688 -2.61205,-1.13154 -2.84961,-1.22656 -0.80585,-0.32234 -1.39517,-0.88078 -1.5547,-1.83789 -0.03754,-0.22529 -0.06275,-0.81808 -0.0664,-1.57422 -0.0036,-0.75614 0.01145,-1.6854 0.04687,-2.6211 0.03543,-0.93569 0.0907,-1.87831 0.16601,-2.6621 0.07532,-0.7838 0.17692,-1.41762 0.28125,-1.69336 0.39623,-1.04717 1.38468,-1.93818 1.63086,-2.1543 1.05365,1.15728 2.38851,2.01642 3.77735,2.5332 0.73466,0.27337 2.46783,0.75432 4.77539,1.34766 2.30755,0.59334 5.18467,1.29629 8.17969,1.99805 5.99002,1.40351 12.45249,2.80576 15.80273,3.34179 3.34522,0.53524 11.09538,1.60543 18.58008,2.54102 7.4847,0.93559 14.68536,1.73828 16.98828,1.73828 4.57471,0 12.59225,-1.60517 18.36133,-4.1543 2.92477,-1.29234 5.46017,-4.63107 7.28125,-7.64062 1.55656,-2.57241 2.23167,-4.24564 2.49804,-4.8711 l 0.42188,-0.8551 c 0,0 0.57086,-0.66032 1.49023,-2.5492 0.91937,-1.88888 1.93704,-4.05665 2.34375,-5.20898 0.41023,-1.16232 0.89066,-3.6787 1.3086,-6.14453 0.41793,-2.46585 0.76878,-4.87193 0.90234,-5.77344 1.2285,-8.5 3.76735,-14.97979 3.78906,-15.03516 l 0.0117,0.0039 c 0,0 0.43697,-1.39435 -0.63086,-2.9961 -0.29287,-0.4393 -0.84626,-0.63793 -1.51562,-0.69726 -0.66936,-0.05933 -1.46935,0.01915 -2.30274,0.16797 -1.66678,0.29764 -3.46559,0.87792 -4.55273,1.23242 -2.13784,0.69712 -9.3347,2.0226 -14.83203,1.55274 -5.5262,-0.47233 -17.53668,-1.60866 -22.00391,-2.45508 -2.23843,-0.42412 -5.17323,-1.13609 -7.66797,-1.78125 -2.49473,-0.64516 -4.55865,-1.22587 -5.02343,-1.3789 -0.48836,-0.1608 -0.86724,-0.26309 -1.20118,-0.23829 -0.33393,0.0248 -0.6124,0.1949 -0.83984,0.52344 -0.05934,0.0857 -0.08971,0.19506 -0.14063,0.3711 -0.0509,0.17603 -0.10923,0.40755 -0.17382,0.6875 -0.1292,0.55989 -0.2852,1.31268 -0.45313,2.18163 -0.33587,1.7379 -0.72472,3.94407 -1.0664,6.00391 -0.22429,1.35212 -0.40888,2.66245 -0.56836,3.70703 -0.07974,0.5223 -0.15211,0.97916 -0.2207,1.3379 -0.0686,0.35873 -0.13562,0.62576 -0.1875,0.74609 -0.30998,0.71887 -1.25464,2.67445 -2.19532,4.66992 -0.94068,1.99546 -1.87742,4.02555 -2.1914,4.94336 -0.62145,1.81652 -1.67383,6.38086 -1.67383,6.38086 l 0.03125,0.0078 c -2.06025,-0.11936 -5.10995,-0.3493 -6.41211,-0.39844 -3.47486,-0.13113 -7.29508,-0.2219 -10.9414,-0.06836 0.3358,-0.3532 11.6733,-12.27842 13.55077,-14.4375 1.9101,-2.19661 3.65893,-5.74619 5.01953,-7.81055 1.36333,-2.0685 6.80386,-9.68436 8.16992,-11.52148 0.69398,-0.93328 2.89634,-4.221 5.29883,-7.6211 2.4025,-3.4001 4.37361,-6.9145 5.81139,-8.23632 1.56532,-1.70374 3.09046,-2.16463 5.11242,-2.93477 2.02196,-0.77015 3.33348,-0.99092 5.0163,-1.21777 1.31151,-0.16467 3.08984,-0.40986 4.24757,-0.4228 0.58351,-0.0063 1.34135,0.13345 2.25763,0.13195 z"
         overflow="visible" id="path86" />
      <path transform="matrix(1.43613,0,0,1.43613,-281.30082,-171.93648)" style="overflow:visible;fill:url(#p-8);stroke:#4a5061;stroke-opacity:1"
         d="m 90.2832,52.82227 c 0.26256,-0.0195 0.61745,0.06649 1.09766,0.2246 0.49562,0.1632 2.54325,0.73883 5.04102,1.38477 2.49776,0.64595 5.4355,1.35883 7.68554,1.78516 4.50972,0.85447 16.50164,1.98637 22.03125,2.45898 5.55847,0.47509 12.72665,-0.84416 14.93555,-1.56445 1.08621,-0.3542 2.87707,-0.93166 4.51758,-1.22461 0.82025,-0.14648 1.60248,-0.22185 2.23242,-0.16602 0.62993,0.05584 1.09151,0.24177 1.31836,0.58203 0.97706,1.4656 0.63027,2.63268 0.60547,2.7129 -3e-5,10e-5 3e-5,0.0019 0,0.002 -0.001,0.0027 -2.5782,6.5598 -3.81641,15.12695 -0.13372,0.90256 -0.48311,3.3076 -0.90039,5.76953 -0.41728,2.46194 -0.90725,4.99014 -1.29883,6.0996 -0.3951,1.11946 -1.41392,3.29535 -2.33203,5.18165 -0.66991,1.37635 -0.98314,1.98299 -1.26758,2.54492 l -0.0488,-0.02344 c 0,0 -5.59062,-2.63572 -9.48828,-3.71094 -1.95555,-0.53946 -5.9597,-1.20577 -10.2539,-1.85742 -4.29421,-0.65165 -8.87147,-1.28644 -11.94336,-1.7539 -4.99611,-0.76028 -18.40175,-1.7259 -27.57813,-2.26172 0.01285,-0.05551 1.053,-4.55303 1.65625,-6.31641 0.30023,-0.87758 1.24163,-2.92197 2.18164,-4.91601 1.11865,-2.1886 1.9584,-4.63517 2.31248,-6.96508 0.15987,-1.04713 0.65728,-2.21819 0.88088,-3.56618 0.34137,-2.05793 0.72928,-4.26177 1.06446,-5.99609 0.16758,-0.86716 0.32325,-1.6175 0.45117,-2.17187 0.06396,-0.2772 0.1213,-0.50574 0.16992,-0.67383 0.0486,-0.1681 0.1006,-0.28594 0.10547,-0.29297 0.19778,-0.28568 0.37806,-0.39261 0.64062,-0.41211 z"
         overflow="visible" id="path88" />
      <path style="overflow:visible;fill:url(#q-2);stroke:#4a5061;stroke-opacity:1"
         d="m 63.02734,83.91797 c 3.69728,-0.16673 7.5946,-0.06718 11.13477,0.0664 7.07421,0.26696 28.07199,1.74007 34.19531,2.67188 3.07531,0.46799 7.65153,1.10262 11.94336,1.75391 4.29183,0.65129 8.30476,1.32195 10.22461,1.85156 3.77979,1.0427 9.11403,3.54185 9.32031,3.63868 -0.0434,0.10546 -1.07115,2.61939 -2.84375,5.54882 -1.80935,2.99017 -4.34059,6.28844 -7.16211,7.53516 -5.72352,2.52899 -13.74145,4.13085 -18.2539,4.13085 -2.24067,0 -9.47464,-0.80102 -16.95703,-1.73632 -7.4824,-0.9353 -15.2338,-2.00522 -18.57032,-2.53907 -3.33149,-0.53303 -9.79816,-1.93508 -15.78515,-3.33789 -2.9935,-0.7014 -5.86694,-1.40342 -8.17188,-1.99609 -2.30493,-0.59267 -4.04613,-1.07867 -4.74804,-1.33984 -1.41013,-0.5247 -2.77289,-1.3841 -3.81055,-2.57617 l -0.03906,-0.04492 c -1.02845,-1.19963 -1.72887,-2.73278 -1.81055,-4.61133 -0.0402,-0.92487 0.29544,-1.72612 0.91797,-2.45508 0.62254,-0.72896 1.53327,-1.37845 2.62695,-1.96875 2.18736,-1.1806 5.09814,-2.12535 7.85743,-3.0625 2.73747,-0.92974 6.23436,-1.36257 9.93164,-1.5293 z"
         overflow="visible" transform="matrix(1.43613,0,0,1.43613,-281.30082,-171.93648)" id="path90" />
      <path style="overflow:visible;fill:#905730;stroke:#452a17;stroke-opacity:1"
         d="m 45.89453,111.96484 c 0.86047,0.37342 1.14921,0.50428 2.20508,0.94922 2.20427,0.92889 4.28235,1.72219 5.64062,2.1211 -0.2232,0.32207 -1.60404,2.37775 -2.2871,6.41406 -0.37181,2.19704 -1.02044,9.8991 -1.58008,17.07422 -0.55434,7.10712 -1.00883,13.55376 -1.01758,13.67773 l -4.08594,-0.25195 z m 98.62109,4.47461 c 0.0274,0.2225 0.39177,3.1369 1.35352,5.88477 0.98625,2.81786 8.62035,24.92762 8.69727,25.15039 l -2.70703,0.93164 -2.07813,-0.99414 c -0.0334,-0.0801 -7.5822,-18.18154 -8.95898,-21.125 -1.31846,-2.81875 -3.48282,-6.39402 -3.67383,-6.71094 2.43992,-0.7195 5.02977,-1.52919 7.36718,-3.13672 z"
         overflow="visible" transform="matrix(1.43613,0,0,1.43613,-281.30082,-171.93648)" id="path92" />
      <path style="overflow:visible;fill:#4f281b;stroke:#301d10;stroke-opacity:1"
         d="m 92.44727,122.03125 c 1.67168,0.20768 2.63528,0.3073 4.20703,0.50195 l 0.09766,13.44532 -3.81446,0.21875 z" overflow="visible"
         transform="matrix(1.43613,0,0,1.43613,-281.30082,-171.93648)" id="path94" />
      <path style="overflow:visible;fill:#905730;stroke:#24160c;stroke-opacity:1"
         d="m 121.25391,123.73047 c 10e-4,0.0134 0.003,0.007 0.004,0.0215 0.0109,0.19582 -0.0113,0.48331 -0.14648,0.84375 -0.13517,0.36045 -0.75229,1.7662 -1.39063,3.2793 -0.63834,1.5131 -1.2994,3.13801 -1.54101,4.00781 -0.0346,0.12468 -0.0746,0.36038 -0.12696,0.7168 -0.0524,0.35642 -0.11592,0.82853 -0.1875,1.39844 -0.14314,1.13981 -0.32058,2.67381 -0.52148,4.46679 -0.4018,3.58597 -0.8945,8.20739 -1.37109,12.77539 -0.947,9.07674 -1.8225,17.82674 -1.83399,17.94141 l -0.65234,0.0156 -3.20313,-0.28125 -0.43359,-0.16211 c 0.005,-0.0953 0.36588,-7.21862 0.72266,-14.64453 0.17957,-3.73771 0.35789,-7.5281 0.48632,-10.48829 0.0642,-1.48009 0.11657,-2.75176 0.15039,-3.70703 0.0338,-0.95526 0.0501,-1.58441 0.041,-1.81054 -0.0667,-1.6672 -0.19537,-6.54005 -0.87305,-9.11524 -0.66066,-2.5105 -1.6204,-4.93948 -1.65039,-5.01562 0.12991,0.0127 0.66532,0.0834 0.7793,0.0937 4.68081,0.42552 6.15686,0.3789 7.66602,0.3789 0.41862,0 1.46016,-0.17732 2.89062,-0.45898 0.33441,-0.0658 0.82044,-0.17919 1.19141,-0.25586 z"
         overflow="visible" transform="matrix(1.43613,0,0,1.43613,-281.30082,-171.93648)" id="path96" />
      <path style="overflow:visible;fill:#acacac"
         d="m 95.8086,136.29688 -0.16016,0.5039 -2.01367,0.10742 -0.20704,-0.47461 z m 58.44335,11.5664 0.13867,0.57422 -2.37695,0.6582 -1.40429,-0.49023 0.0234,-0.49219 1.21094,0.58008 z M 45.36914,152.25 l 2.86133,0.17773 0.02539,0.92774 -2.87305,-0.10742 z m 65.01563,16.94141 3.01171,0.26367 -0.0605,0.68359 -2.92578,-0.24805 z"
         overflow="visible" transform="matrix(1.43613,0,0,1.43613,-281.30082,-171.93648)" id="path98" />
   </g>
   <g transform="translate(418.94562,212.09275)" id="g2668">
      <circle cx="-330.00311" cy="-44.92696" r="53.172741" id="circle81"
         style="fill:#ffffff;stroke:#1a191e;stroke-width:1;stroke-linecap:round;stroke-miterlimit:4;stroke-dasharray:none" />
      <image id="image102" y="-351.66159" x="-705.24927" xlink:href="C:\Users\Extreme PC\strongseal.png" preserveAspectRatio="none" height="179.26129"
         width="179.26129" clip-path="url(#clipPath2662-5)" transform="matrix(0.60721,0,0,0.60721,43.806675,114.18085)" />
   </g>
</svg>