<svg viewBox="0 0 333.11 317.5" height="1200" width="1259" version="1.1" id="clawfoot-tub_vue_svg__svg86"
    xmlns:xlink="http://www.w3.org/1999/xlink"
    xmlns="http://www.w3.org/2000/svg">
    <defs id="clawfoot-tub_vue_svg__defs57">
        <linearGradient id="clawfoot-tub_vue_svg__id-22f">
            <stop offset="0" style="stop-color:#d9d9d9;stop-opacity:1" id="clawfoot-tub_vue_svg__stop2"/>
            <stop offset="1" style="stop-color:#c4c4c4;stop-opacity:0" id="clawfoot-tub_vue_svg__stop4"/>
        </linearGradient>
        <linearGradient id="clawfoot-tub_vue_svg__id-21e">
            <stop offset="0" style="stop-color:#a67d30;stop-opacity:1" id="clawfoot-tub_vue_svg__stop7"/>
            <stop style="stop-color:#d6bf97;stop-opacity:1" offset=".517" id="clawfoot-tub_vue_svg__stop9"/>
            <stop style="stop-color:#ece2cf;stop-opacity:1" offset=".615" id="clawfoot-tub_vue_svg__stop11"/>
            <stop offset=".707" style="stop-color:#caad7a;stop-opacity:.89499998" id="clawfoot-tub_vue_svg__stop13"/>
            <stop offset="1" style="stop-color:#a38040;stop-opacity:1" id="clawfoot-tub_vue_svg__stop15"/>
        </linearGradient>
        <linearGradient id="clawfoot-tub_vue_svg__id-18b">
            <stop style="stop-color:#be8d3e;stop-opacity:1" offset="0" id="clawfoot-tub_vue_svg__stop18"/>
            <stop offset=".431" style="stop-color:#d2a246;stop-opacity:1" id="clawfoot-tub_vue_svg__stop20"/>
            <stop style="stop-color:#af802f;stop-opacity:1" offset="1" id="clawfoot-tub_vue_svg__stop22"/>
        </linearGradient>
        <linearGradient id="clawfoot-tub_vue_svg__id-20d">
            <stop offset="0" style="stop-color:#919191;stop-opacity:1" id="clawfoot-tub_vue_svg__stop25"/>
            <stop offset="1" style="stop-color:#919191;stop-opacity:0" id="clawfoot-tub_vue_svg__stop27"/>
        </linearGradient>
        <linearGradient id="clawfoot-tub_vue_svg__id-19c">
            <stop offset="0" style="stop-color:#919191;stop-opacity:.79000002" id="clawfoot-tub_vue_svg__stop30"/>
            <stop style="stop-color:#919191;stop-opacity:.39500001" offset=".19" id="clawfoot-tub_vue_svg__stop32"/>
            <stop offset="1" style="stop-color:#919191;stop-opacity:0" id="clawfoot-tub_vue_svg__stop34"/>
        </linearGradient>
        <linearGradient id="clawfoot-tub_vue_svg__id-17a">
            <stop offset="0" style="stop-color:#be8d3e;stop-opacity:1" id="clawfoot-tub_vue_svg__stop37"/>
            <stop style="stop-color:#d19f40;stop-opacity:1" offset=".431" id="clawfoot-tub_vue_svg__stop39"/>
            <stop offset="1" style="stop-color:#af802f;stop-opacity:1" id="clawfoot-tub_vue_svg__stop41"/>
        </linearGradient>
        <linearGradient gradientUnits="userSpaceOnUse" y2="288.842" x2="-72.846" y1="278.367" x1="-71.083" id="clawfoot-tub_vue_svg__id-25i" xlink:href="#clawfoot-tub_vue_svg__id-17a" gradientTransform="translate(141.419 -84.703) scale(1.3339)"/>
        <linearGradient y2="288.14" x2="-73.529" y1="278.991" x1="-70.401" gradientUnits="userSpaceOnUse" id="clawfoot-tub_vue_svg__id-26j" xlink:href="#clawfoot-tub_vue_svg__id-18b" gradientTransform="matrix(-1.40386 0 0 1.36431 126.042 -91.335)"/>
        <linearGradient gradientUnits="userSpaceOnUse" y2="179.697" x2="127.901" y1="177.053" x1="138.874" id="clawfoot-tub_vue_svg__id-28l" xlink:href="#clawfoot-tub_vue_svg__id-19c" gradientTransform="translate(141.258 -84.01) scale(1.3339)"/>
        <linearGradient gradientUnits="userSpaceOnUse" y2="199.573" x2="-87.899" y1="199.702" x1="-97.035" id="clawfoot-tub_vue_svg__id-27k" xlink:href="#clawfoot-tub_vue_svg__id-20d" gradientTransform="translate(141.258 -84.01) scale(1.3339)"/>
        <linearGradient gradientTransform="translate(4.405)" gradientUnits="userSpaceOnUse" y2="185.74" x2="-39.945" y1="185.74" x1="-44.854" id="clawfoot-tub_vue_svg__id-23g" xlink:href="#clawfoot-tub_vue_svg__id-21e"/>
        <linearGradient gradientTransform="translate(18.634 -.451)" y2="185.74" x2="-39.945" y1="185.74" x1="-44.854" gradientUnits="userSpaceOnUse" id="clawfoot-tub_vue_svg__id-24h" xlink:href="#clawfoot-tub_vue_svg__id-21e"/>
        <linearGradient gradientUnits="userSpaceOnUse" y2="213.11" x2="-31.067" y1="207.778" x1="-31.059" id="clawfoot-tub_vue_svg__id-29m" xlink:href="#clawfoot-tub_vue_svg__id-22f" gradientTransform="translate(141.258 -84.01) scale(1.3339)"/>
        <clipPath clipPathUnits="userSpaceOnUse" id="clawfoot-tub_vue_svg__id-31o">
            <circle style="fill:#473e81;stroke:#1a191e;stroke-width:.86208999;stroke-linecap:round" cx="-615.619" cy="-262.031" r="87.569" id="clawfoot-tub_vue_svg__circle51"/>
        </clipPath>
        <clipPath clipPathUnits="userSpaceOnUse" id="clawfoot-tub_vue_svg__clipPath971">
            <path id="clawfoot-tub_vue_svg__path973" d="M162.19 77.51c18.537.267 72.013-1.068 97.949-4.099 25.936-3.03 58.796-8.057 74.33-10.012l16.125-25.616-5.945-55.413S240.006-29.284 239.055-30.235c-.952-.951-25.21 82.05-25.21 82.05z" style="fill:none;stroke:#898989;stroke-width:1.62346649;stroke-linecap:round;stroke-linejoin:miter;stroke-miterlimit:4;stroke-dasharray:none;stroke-opacity:1"/>
        </clipPath>
    </defs>
    <g transform="translate(131.008 -174.328) scale(1.80267)" id="clawfoot-tub_vue_svg__g101">
        <path d="M-30.879 155.692s-9.176 1.915-10.213 2.952c-1.037 1.038-5.346 6.862-7.021 13.964-1.676 7.1-2.793 22.5-2.793 22.5" style="fill:none;stroke:#caad7a;stroke-width:2.06500006;stroke-linecap:butt;stroke-linejoin:miter;stroke-miterlimit:4;stroke-dasharray:none;stroke-opacity:1" id="clawfoot-tub_vue_svg__path59"/>
        <path d="M-35.587 149.786c-.204.163-7.76 7.673-9.549 12.257-1.79 4.585-2.765 9.93-2.595 13.823.169 3.893 2.2 19.127 2.2 19.127" style="fill:none;stroke:#caad7a;stroke-width:1.86500001;stroke-linecap:butt;stroke-linejoin:miter;stroke-miterlimit:4;stroke-dasharray:none;stroke-opacity:1" id="clawfoot-tub_vue_svg__path61"/>
        <path d="M-98.705 116.476h35.77v3.272h-35.77z" transform="rotate(-26.406)" style="opacity:1;fill:#caad7a;fill-opacity:1;stroke:none;stroke-width:.80000001;stroke-linecap:round;stroke-linejoin:round;" id="clawfoot-tub_vue_svg__path63"/>
        <path d="M-28.657 132.666a3.328 3.328 0 0 0-2.24.947c-.526.532-.795 1.14-.961 1.68-.332 1.08-.273 2.057-.273 2.057v30.56h2.865v-30.648l-.002-.03s-.006-.592.148-1.095c.078-.252.191-.438.262-.51.07-.072.058-.09.27-.096.186-.004.128-.006.193.06.064.067.187.276.27.556.163.558.16 1.226.16 1.226l-.002.026v16.197h2.865v-16.121s.055-1.02-.274-2.137c-.164-.559-.425-1.186-.959-1.738s-1.405-.956-2.322-.934z" style="color:#000;shape-padding:0;clip-rule:nonzero;display:inline;overflow:visible;visibility:visible;opacity:1;isolation:auto;mix-blend-mode:normal;color-interpolation:sRGB;color-interpolation-filters:linearRGB;solid-color:#000;solid-opacity:1;vector-effect:none;fill:#caad7a;fill-opacity:1;fill-rule:nonzero;stroke:#735a2e;stroke-width:.80000001;stroke-linecap:butt;stroke-linejoin:miter;stroke-miterlimit:4;stroke-dasharray:none;stroke-dashoffset:0;stroke-opacity:1;color-rendering:auto;image-rendering:auto;shape-rendering:auto;text-rendering:auto;enable-background:accumulate" id="clawfoot-tub_vue_svg__path65"/>
        <path d="M-40.449 176.148h4.909v19.183h-4.909z" style="opacity:1;fill:url(#clawfoot-tub_vue_svg__id-23g);fill-opacity:1;stroke:none;stroke-width:2.26499987;stroke-linecap:round;stroke-linejoin:round;" id="clawfoot-tub_vue_svg__path67"/>
        <path d="M-26.333 176.261h5.021v18.619h-5.021z" style="opacity:1;fill:url(#clawfoot-tub_vue_svg__id-24h);fill-opacity:1;stroke:none;stroke-width:2.26499987;stroke-linecap:round;stroke-linejoin:round;" id="clawfoot-tub_vue_svg__path69"/>
        <path d="M-25.621 168.359h3.471v7.281h-3.471z" style="opacity:1;fill:#bb9655;fill-opacity:1;stroke:none;stroke-width:2.39665651;stroke-linecap:round;stroke-linejoin:round;" id="clawfoot-tub_vue_svg__path71"/>
        <path style="opacity:1;fill:#caad7a;fill-opacity:1;stroke:none;stroke-width:2.26499987;stroke-linecap:round;stroke-linejoin:round;" d="M-27.262 175.585c.127.003 6.739.03 6.922 0 .183-.031.348.165.353.33.004.166-.074.313-.353.368-.28.055-6.642.05-6.922 0-.111-.02-.259-.205-.253-.333.007-.16.174-.367.253-.365z" id="clawfoot-tub_vue_svg__path73"/>
        <path d="M-39.739 169.137h3.471v6.503h-3.471z" style="opacity:1;fill:#bb9655;fill-opacity:1;stroke:none;stroke-width:2.26499987;stroke-linecap:round;stroke-linejoin:round;" id="clawfoot-tub_vue_svg__path75"/>
        <path d="M-26 172.288h4.129v2.015H-26Z" style="opacity:1;fill:#b38c47;fill-opacity:1;stroke:none;stroke-width:2.26499987;stroke-linecap:round;stroke-linejoin:round;" id="clawfoot-tub_vue_svg__path77"/>
        <path d="M-38.044 166.156h14.654v3.256h-14.654z" style="opacity:1;fill:#caad7a;fill-opacity:1;stroke:#8c6e38;stroke-width:.4752332;stroke-linecap:round;stroke-linejoin:round;" id="clawfoot-tub_vue_svg__path79"/>
        <path d="M-47.768 167.399h7.959v1.416h-7.959z" style="opacity:1;fill:#caad7a;fill-opacity:1;stroke:#8c6e38;stroke-width:.30000001;stroke-linecap:round;stroke-linejoin:round;" id="clawfoot-tub_vue_svg__path81"/>
        <ellipse ry="2.468" rx="2.539" cy="167.756" cx="-37.996" style="opacity:1;fill:#a27f41;fill-opacity:1;stroke:none;stroke-width:2.15415978;stroke-linecap:round;stroke-linejoin:round;" id="clawfoot-tub_vue_svg__ellipse83"/>
        <ellipse ry="1.805" rx="1.721" cy="167.77" cx="-37.996" style="opacity:1;fill:#caad7a;fill-opacity:1;stroke:none;stroke-width:2.26499987;stroke-linecap:round;stroke-linejoin:round;" id="clawfoot-tub_vue_svg__ellipse85"/>
        <ellipse style="opacity:1;fill:#a27f41;fill-opacity:1;stroke:none;stroke-width:2.15415978;stroke-linecap:round;stroke-linejoin:round;" cx="-30.805" cy="168.038" rx="2.539" ry="2.468" id="clawfoot-tub_vue_svg__ellipse87"/>
        <ellipse style="opacity:1;fill:#caad7a;fill-opacity:1;stroke:none;stroke-width:2.26499987;stroke-linecap:round;stroke-linejoin:round;" cx="-30.805" cy="168.052" rx="1.721" ry="1.805" id="clawfoot-tub_vue_svg__ellipse89"/>
        <path d="M-21.445 167.544h7.219v1.127h-7.219z" style="opacity:1;fill:#caad7a;fill-opacity:1;stroke:#8c6e38;stroke-width:.30000001;stroke-linecap:round;stroke-linejoin:round;" id="clawfoot-tub_vue_svg__path91"/>
        <ellipse ry="2.468" rx="2.539" cy="167.841" cx="-23.721" style="opacity:1;fill:#a27f41;fill-opacity:1;stroke:none;stroke-width:2.15415978;stroke-linecap:round;stroke-linejoin:round;" id="clawfoot-tub_vue_svg__ellipse93"/>
        <ellipse ry="1.805" rx="1.721" cy="167.855" cx="-23.721" style="opacity:1;fill:#caad7a;fill-opacity:1;stroke:none;stroke-width:2.26499987;stroke-linecap:round;stroke-linejoin:round;" id="clawfoot-tub_vue_svg__ellipse95"/>
        <path d="M-40.118 172.288h4.129v2.015h-4.129z" style="opacity:1;fill:#b38c47;fill-opacity:1;stroke:none;stroke-width:2.26499987;stroke-linecap:round;stroke-linejoin:round;" id="clawfoot-tub_vue_svg__path97"/>
        <path d="M-41.434 175.5c.126.003 6.739.03 6.922 0 .183-.03.348.166.352.331.004.165-.074.312-.352.367-.28.055-6.643.05-6.922 0-.112-.02-.26-.204-.253-.332.007-.16.174-.368.253-.366z" style="opacity:1;fill:#caad7a;fill-opacity:1;stroke:none;stroke-width:2.26499987;stroke-linecap:round;stroke-linejoin:round;" id="clawfoot-tub_vue_svg__path99"/>
    </g>
    <path style="fill:#f5f5f5;fill-opacity:1;stroke:#898989;stroke-width:1.62346649;stroke-linecap:butt;stroke-linejoin:miter;stroke-miterlimit:4;stroke-dasharray:none;stroke-opacity:1" d="m243.526 277.69-.752 1.658-35.455 4.842-128.745-.934s-8.735 1.47-11.052 1.915c-2.317.446-7.514.818-7.514.818l-.2-.08-29.986-9.74s-.848-.623-1.65-1.649c-.8-1.024-2.227-3.965-2.761-5.882-.536-1.916-1.56-9.359-2.32-12.567-.757-3.21-13.279-64.529-13.279-64.529l75.643-6.473 37.994 1.088 80.522-6.71 116.217-14.464m0 0s-61.46 93.097-63.636 96.437c-9.422 14.463-13.598 16.758-13.598 16.758" id="clawfoot-tub_vue_svg__path103"/>
    <ellipse style="opacity:1;fill:#fff;fill-opacity:.40500004;stroke:none;stroke-width:.35292765;stroke-linecap:round;stroke-linejoin:round;" cx="-31.995" cy="275.852" rx="9.483" ry="2.897" transform="rotate(-15.015)" id="clawfoot-tub_vue_svg__ellipse105"/>
    <path d="M48.993 270.51s5.616 2.095 6.15 2.363c.536.267 9.403 6.105 9.447 7.8.046 1.693-4.322 4.5-5.97 6.148-1.649 1.65-2.028 1.815-3.806 4.589-1.777 2.775-2.902 4.757-3.655 6.996-.75 2.241-1.007 5.661-1.23 7.489-.222 1.827-2.36 4.1-2.76 5.347-.404 1.248-.18 2.719-.18 2.719s-5.392.223-5.973-.179c-.579-.4 0-.847-.533-1.336-.536-.491-3.655-2.63-4.1-3.477-.446-.847-.223-2.183-.223-2.183s-.625-.09-.58-1.382c.045-1.291 1.47-4.545 2.272-5.927.803-1.381 3.388-3.832 3.61-4.455.223-.625.624-2.318.312-3.21-.312-.89-.446-2.851-1.203-3.52-.758-.668-3.655-2.897-5.17-4.456-1.514-1.56-4.01-4.055-4.278-4.725-.267-.666-.667-1.96-.757-4.144-.089-2.184.134-3.876.757-4.946.624-1.07 3.343-1.56 3.921-2.228.58-.67 1.338-3.744 2.273-4.233.937-.491 1.828-.402 2.541.266.713.669 2.762 3.298 3.833 3.966 1.07.67 5.302 2.718 5.302 2.718z" style="fill:url(#clawfoot-tub_vue_svg__id-25i);fill-opacity:1;stroke:#898989;stroke-width:1.62346649;stroke-linecap:butt;stroke-linejoin:miter;stroke-miterlimit:4;stroke-dasharray:none;stroke-opacity:1" id="clawfoot-tub_vue_svg__path107"/>
    <path d="M52.588 284.506c.215.064.019.32-.107.356-.343.096-.6-.27-.605-.572-.008-.542.533-.897 1.036-.854.735.063 1.198.803 1.103 1.5-.127.929-1.072 1.503-1.965 1.352-1.123-.19-1.807-1.342-1.6-2.428.25-1.318 1.611-2.114 2.894-1.85 1.509.31 2.417 1.88 2.097 3.357-.37 1.705-2.15 2.726-3.822 2.348-1.899-.43-3.031-2.42-2.595-4.287.49-2.093 2.689-3.339 4.748-2.844 2.288.548 3.647 2.96 3.095 5.214" style="fill:none;fill-rule:evenodd;stroke:#c99f5a;stroke-width:.70585537;stroke-miterlimit:4;stroke-dasharray:none;stroke-opacity:1" id="clawfoot-tub_vue_svg__path109"/>
    <path d="M43.645 299.79s-1.336 2.004-1.47 3.832c-.133 1.827.892 4.322.892 4.322m-3.431.624s-1.428-2.049-.58-4.678c.846-2.63 3.163-4.1 3.163-4.1m2.145.897 3.875-1.29m-3.781 2.835 3.876-1.291m-3.687 3.118 3.876-1.29m-3.686 2.93 3.876-1.293M38.47 300.09l1.323.661m-1.89.63.977.536m-1.45.694.947.472m-1.734 1.135.976.41m2.045-32.177s-.267 2.184.223 4.68c.49 2.494 1.617 8.04 1.617 8.04m-8.863-12.22s3.252 2.763 4.145 4.813c.89 2.05 2.88 7.551 2.88 7.551m8.378-13.69s-3.7 1.248-4.414 3.475c-.713 2.228-.494 9.611-.494 9.611m-2.488.595s-2.334-8.724-2.56-9.288c-.226-.564-2.146-3.348-2.146-3.348m6.247 12.267s-1.014-7.452-.677-9.408c.338-1.956 1.768-3.386 1.768-3.386" style="fill:none;stroke:#c99f5a;stroke-width:.70585537;stroke-linecap:round;stroke-linejoin:miter;stroke-miterlimit:4;stroke-dasharray:none;stroke-opacity:1" id="clawfoot-tub_vue_svg__path111"/>
    <path d="M42.642 291.033s.64-.414 2.37-.414c1.732 0 3.952 1.054 3.952 1.054m-6.283 3.122s.337.263 1.391.377c1.054.113 3.802-.114 3.802-.114m-4.254-3.48s-.132.547-.187 1.411c-.057.866.131 1.449.131 1.449m3.802-2.484s.13.527.112 1.298c-.019.772-.094 1.091-.094 1.091m-1.787-2.633s-.34.94-.34 1.43c0 .488.076 1.203.076 1.203m-.74-2.74s-.187.851-.2 1.357c-.014.506.093 1.45.093 1.45m2.049-2.608s.013.785-.027 1.29c-.04.507-.093 1.278-.093 1.278" style="fill:none;stroke:#9e7534;stroke-width:.70585537;stroke-linecap:round;stroke-linejoin:miter;stroke-miterlimit:4;stroke-dasharray:none;stroke-opacity:1" id="clawfoot-tub_vue_svg__path113"/>
    <path d="m44.406 285.23 1.917-6.545" style="fill:none;stroke:#c99f5a;stroke-width:.35292765;stroke-linecap:round;stroke-linejoin:miter;stroke-miterlimit:4;stroke-dasharray:none;stroke-opacity:1" id="clawfoot-tub_vue_svg__path115"/>
    <path d="m38.393 285.549-2.767-4.949" style="fill:none;stroke:#c99f5a;stroke-width:.35292765px;stroke-linecap:round;stroke-linejoin:miter;stroke-opacity:1" id="clawfoot-tub_vue_svg__path117"/>
    <path style="fill:url(#clawfoot-tub_vue_svg__id-26j);fill-opacity:1;stroke:#898989;stroke-width:1.62346649;stroke-linecap:butt;stroke-linejoin:miter;stroke-miterlimit:4;stroke-dasharray:none;stroke-opacity:1" d="M223.315 271.976s-5.91 2.143-6.47 2.417c-.565.274-9.898 6.244-9.945 7.977-.048 1.734 4.549 4.603 6.283 6.29 1.736 1.687 2.134 1.855 4.007 4.694 1.869 2.837 3.054 4.864 3.845 7.155.791 2.293 1.06 5.79 1.294 7.659.235 1.87 2.485 4.194 2.908 5.469.423 1.276.188 2.781.188 2.781s5.675.228 6.286-.183c.61-.41 0-.867.561-1.367.564-.502 3.847-2.69 4.315-3.555.47-.867.235-2.233.235-2.233s.658-.092.611-1.414c-.048-1.32-1.549-4.648-2.393-6.061-.844-1.414-3.565-3.92-3.798-4.557-.234-.64-.657-2.371-.33-3.282.33-.913.47-2.918 1.268-3.602.796-.683 3.846-2.962 5.44-4.558 1.594-1.595 4.222-4.147 4.503-4.831.28-.683.702-2.006.796-4.24.094-2.234-.14-3.965-.796-5.059-.656-1.094-3.517-1.595-4.127-2.278-.611-.684-1.409-3.828-2.392-4.33-.987-.503-1.923-.41-2.674.272-.75.685-2.907 3.374-4.034 4.057-1.126.685-5.581 2.78-5.581 2.78z" id="clawfoot-tub_vue_svg__path119"/>
    <path style="fill:none;fill-rule:evenodd;stroke:#c99f5a;stroke-width:.73233837;stroke-miterlimit:4;stroke-dasharray:none;stroke-opacity:1" d="M219.532 286.292c-.227.065-.02.327.112.364.36.097.632-.276.638-.586.008-.553-.56-.916-1.091-.873-.774.065-1.26.821-1.16 1.535.133.95 1.128 1.537 2.067 1.382 1.182-.193 1.902-1.373 1.684-2.482-.262-1.348-1.695-2.163-3.045-1.893-1.589.317-2.545 1.923-2.207 3.435.389 1.743 2.262 2.787 4.021 2.4 2-.44 3.19-2.476 2.732-4.385-.515-2.14-2.83-3.415-4.997-2.908-2.407.56-3.839 3.028-3.257 5.333" id="clawfoot-tub_vue_svg__path121"/>
    <path style="fill:none;stroke:#c99f5a;stroke-width:.73233837;stroke-linecap:round;stroke-linejoin:miter;stroke-miterlimit:4;stroke-dasharray:none;stroke-opacity:1" d="M228.943 301.924s1.407 2.05 1.547 3.92c.141 1.868-.938 4.42-.938 4.42m3.611.64s1.502-2.097.611-4.786c-.89-2.69-3.33-4.194-3.33-4.194m-2.258.918-4.077-1.321m3.98 2.901-4.08-1.32m3.881 3.189-4.081-1.32m3.881 2.997-4.08-1.322m10.78-4.415-1.393.676m1.988.644-1.027.548m1.526.71-.996.483m1.825 1.16-1.028.42m-2.152-32.91s.28 2.234-.235 4.787c-.515 2.55-1.7 8.223-1.7 8.223m9.326-12.498s-3.423 2.826-4.362 4.922c-.938 2.098-3.032 7.723-3.032 7.723m-8.815-14s3.893 1.274 4.644 3.553c.75 2.278.52 9.83.52 9.83m2.618.608s2.456-8.923 2.695-9.5c.237-.577 2.258-3.425 2.258-3.425m-6.576 12.547s1.07-7.62.715-9.623c-.357-2-1.862-3.463-1.862-3.463" id="clawfoot-tub_vue_svg__path123"/>
    <path style="fill:none;stroke:#9e7534;stroke-width:.73233837;stroke-linecap:round;stroke-linejoin:miter;stroke-miterlimit:4;stroke-dasharray:none;stroke-opacity:1" d="M230 292.967s-.674-.423-2.495-.423c-1.822 0-4.158 1.078-4.158 1.078m6.614 3.194s-.358.268-1.468.384c-1.107.117-3.999-.116-3.999-.116m4.477-3.558s.139.56.196 1.443c.06.886-.138 1.48-.138 1.48m-4.001-2.54s-.138.54-.118 1.328c.02.791.1 1.116.1 1.116m1.881-2.693s.356.962.356 1.462-.08 1.231-.08 1.231m.78-2.8s.197.869.21 1.387c.013.516-.097 1.482-.097 1.482m-2.157-2.668s-.013.803.028 1.32c.043.518.099 1.307.099 1.307" id="clawfoot-tub_vue_svg__path125"/>
    <path style="fill:none;stroke:#c99f5a;stroke-width:.36616915;stroke-linecap:round;stroke-linejoin:miter;stroke-miterlimit:4;stroke-dasharray:none;stroke-opacity:1" d="m228.142 287.032-2.016-6.695" id="clawfoot-tub_vue_svg__path127"/>
    <path style="fill:none;stroke:#c99f5a;stroke-width:.36616915px;stroke-linecap:round;stroke-linejoin:miter;stroke-opacity:1" d="m234.472 287.359 2.912-5.062" id="clawfoot-tub_vue_svg__path129"/>
    <path style="fill:url(#clawfoot-tub_vue_svg__id-27k);fill-opacity:1;stroke:none;stroke-width:.35292765px;stroke-linecap:butt;stroke-linejoin:miter;stroke-opacity:1" d="M18.461 180.627c3.553-.041 6.124-.305 6.124-.305l-.523 2.827-4.468-.053-2.876-.147-3.087-.066-1.316-.186-.492-.253c.146-.422.248-.96 1.072-1.227 1.577-.514 4.413-.56 5.566-.59z" id="clawfoot-tub_vue_svg__path131"/>
    <path style="fill:url(#clawfoot-tub_vue_svg__id-28l);fill-opacity:1;stroke:none;stroke-width:.35292765px;stroke-linecap:butt;stroke-linejoin:miter;stroke-opacity:1" d="M326.954 152.391s-1.89-1.637-9.234-.838c-7.343.798-34.017 6.047-34.017 6.047l2.86 6.725 18.341-4.71 13.733-3.772 4.442-1.23 2.836-1.174c.821-.329 1.387-.67 1.04-1.048z" id="clawfoot-tub_vue_svg__path133"/>
    <path style="color:#000;shape-padding:0;clip-rule:nonzero;display:inline;overflow:visible;visibility:visible;opacity:1;isolation:auto;mix-blend-mode:normal;color-interpolation:sRGB;color-interpolation-filters:linearRGB;solid-color:#000;solid-opacity:1;vector-effect:none;fill:#fff;fill-opacity:.21499999;fill-rule:nonzero;stroke:none;stroke-width:5.28891277;stroke-linecap:round;stroke-linejoin:miter;stroke-miterlimit:4;stroke-dasharray:none;stroke-dashoffset:0;stroke-opacity:1;color-rendering:auto;image-rendering:auto;shape-rendering:auto;text-rendering:auto;enable-background:accumulate" d="M40.552 271.826c-1.102-.09-2.23-.067-3.381.204-3.825.899-5.448 4.251-5.448 4.251a2.645 2.645 0 1 0 4.731 2.366s.635-1.166 1.928-1.47c.259-.06 2.633.014 4.498.334a52.489 52.489 0 0 1 3.436.713 2.645 2.645 0 1 0 1.284-5.131s-1.74-.438-3.828-.795c-1.043-.179-2.117-.382-3.22-.472z" id="clawfoot-tub_vue_svg__path135"/>
    <path style="color:#000;shape-padding:0;clip-rule:nonzero;display:inline;overflow:visible;visibility:visible;opacity:1;isolation:auto;mix-blend-mode:normal;color-interpolation:sRGB;color-interpolation-filters:linearRGB;solid-color:#000;solid-opacity:1;vector-effect:none;fill:#fff;fill-opacity:.22000002;fill-rule:nonzero;stroke:none;stroke-width:3.02128339;stroke-linecap:round;stroke-linejoin:miter;stroke-miterlimit:4;stroke-dasharray:none;stroke-dashoffset:0;stroke-opacity:1;color-rendering:auto;image-rendering:auto;shape-rendering:auto;text-rendering:auto;enable-background:accumulate" d="M46.468 302.208a1.511 1.511 0 0 0-.82.23s-2.407 1.26-3.754 1.212c-1.56-.056-3.028-1.011-3.028-1.011a1.511 1.511 0 1 0-1.726 2.48s1.995 1.455 4.647 1.55c2.868.102 5.43-1.647 5.43-1.647a1.511 1.511 0 0 0-.75-2.814z" id="clawfoot-tub_vue_svg__path137"/>
    <path d="M229.21 276.754c1.101-.09 2.23-.068 3.381.203 3.824.9 5.448 4.253 5.448 4.253a2.645 2.645 0 1 1-4.732 2.365s-.635-1.166-1.929-1.47c-.257-.06-2.631.013-4.495.333-1.865.32-3.437.715-3.437.715a2.646 2.646 0 1 1-1.285-5.133s1.741-.437 3.829-.795c1.043-.178 2.116-.381 3.218-.47z" style="color:#000;shape-padding:0;clip-rule:nonzero;display:inline;overflow:visible;visibility:visible;opacity:1;isolation:auto;mix-blend-mode:normal;color-interpolation:sRGB;color-interpolation-filters:linearRGB;solid-color:#000;solid-opacity:1;vector-effect:none;fill:#fff;fill-opacity:.21499999;fill-rule:nonzero;stroke:none;stroke-width:5.28891277;stroke-linecap:round;stroke-linejoin:miter;stroke-miterlimit:4;stroke-dasharray:none;stroke-dashoffset:0;stroke-opacity:1;color-rendering:auto;image-rendering:auto;shape-rendering:auto;text-rendering:auto;enable-background:accumulate" id="clawfoot-tub_vue_svg__path139"/>
    <path d="M225.796 303.838a1.511 1.511 0 0 1 .818.228s2.407 1.26 3.755 1.213c1.56-.056 3.029-1.012 3.029-1.012a1.511 1.511 0 1 1 1.725 2.482s-1.996 1.454-4.648 1.548c-2.867.103-5.427-1.646-5.427-1.646a1.511 1.511 0 0 1 .747-2.814z" style="color:#000;shape-padding:0;clip-rule:nonzero;display:inline;overflow:visible;visibility:visible;opacity:1;isolation:auto;mix-blend-mode:normal;color-interpolation:sRGB;color-interpolation-filters:linearRGB;solid-color:#000;solid-opacity:1;vector-effect:none;fill:#fff;fill-opacity:.22000002;fill-rule:nonzero;stroke:none;stroke-width:3.02128339;stroke-linecap:round;stroke-linejoin:miter;stroke-miterlimit:4;stroke-dasharray:none;stroke-dashoffset:0;stroke-opacity:1;color-rendering:auto;image-rendering:auto;shape-rendering:auto;text-rendering:auto;enable-background:accumulate" id="clawfoot-tub_vue_svg__path141"/>
    <path style="fill:url(#clawfoot-tub_vue_svg__id-29m);fill-opacity:1;stroke:none;stroke-width:.35292765px;stroke-linecap:butt;stroke-linejoin:miter;stroke-opacity:1" d="m319.803 165.256-.128.015c-1.094.387-2.195.771-3.284 1.138-6.366 2.142-43.992 10.271-64.915 13.675-20.923 3.404-30.657 4.182-30.657 4.182s-49.318 5.368-61.797 6.69c-12.478 1.324-43.105 1.788-54.323 1.788-11.218 0-81.413-.404-86.36-.583-2.788-.098-4.898-.065-7.677-.295.792 3.767 1.254 5.806 1.84 8.697 111.323 2.085 223.276-5.308 302.89-29.719 4.145-6.28 4.41-5.587 4.41-5.587z" id="clawfoot-tub_vue_svg__path143"/>
    <path style="fill:#fff;fill-opacity:1;stroke:#898989;stroke-width:1.62346649;stroke-linecap:butt;stroke-linejoin:miter;stroke-miterlimit:4;stroke-dasharray:none;stroke-opacity:1" d="M1.629 189.641c.367.52.544.635 1.747 1.037 1.203.4 10.338 1.203 15.287 1.38 4.946.18 75.138.609 86.356.609 11.219 0 41.973-.567 54.45-1.89 12.48-1.324 61.736-6.785 61.736-6.785s9.733-.779 30.657-4.181c20.923-3.403 58.549-11.533 64.914-13.677 6.364-2.142 13.36-4.853 14.117-5.23.756-.379 1.575-1.323 1.575-1.323s-.063-6.744-1.071-7.626c-1.008-.883-3.592-2.584-7.689-2.9-4.095-.315-10.273.316-16.89 1.072-6.617.757-46.322 8.066-46.322 8.066s-23.192 4.98-30.693 6.114c-7.499 1.134-46.069 7.059-53.19 7.752-7.122.694-32.142 3.276-41.405 3.466 0 0-22.428.759-28.577.759-6.15 0-69.52.177-75.446.223-5.927.044-13.459.177-16.757.89-3.298.713-9.344 2.274-10.383 3.031-1.805 1.314-2.468 3.726-2.762 5.481.051 1.095-.216 2.841.347 3.732z" id="clawfoot-tub_vue_svg__path145"/>
    <path style="fill:none;stroke:#898989;stroke-width:1.62346649;stroke-linecap:round;stroke-linejoin:miter;stroke-miterlimit:4;stroke-dasharray:none;stroke-opacity:1" d="M12.51 182.046s-1.494.444.048.68c1.544.237 4.228.223 11.54.474 7.236.248 41.978.624 60.52.891 18.537.267 72.013-1.068 97.95-4.099 25.935-3.03 58.795-8.057 74.33-10.012 15.534-1.953 35.072-6.963 44.557-9.359 9.484-2.394 22.207-6.19 22.207-6.19s4.57-1.562 3.292-2.059" id="clawfoot-tub_vue_svg__path147"/>
    <g transform="translate(-77.572 106.58)" clip-path="url(#clawfoot-tub_vue_svg__clipPath971)" id="clawfoot-tub_vue_svg__g153">
        <circle style="fill:#fff;stroke:#1a191e;stroke-width:1;stroke-linecap:round;stroke-miterlimit:4" cx="287.148" cy="35.498" r="53.173" id="clawfoot-tub_vue_svg__circle149"/>
        <image transform="translate(660.957 194.605) scale(.60721)" clip-path="url(#clawfoot-tub_vue_svg__id-31o)" width="179.261" height="179.261" preserveAspectRatio="none" xlink:href="placeholder.png" x="-705.249" y="-351.662" id="clawfoot-tub_vue_svg__image151" class="seated-avatar" />
    </g>
    <image class="seated-keyboard" width="209.85" height="46.167" preserveAspectRatio="none" xlink:href="keyboard.png" id="clawfoot-tub_vue_svg__keyboard" x="117.415" y="160.599"/>
</svg>