<svg xmlns:svg="http://www.w3.org/2000/svg" xmlns="http://www.w3.org/2000/svg" xmlns:xlink="http://www.w3.org/1999/xlink"
   viewBox="0 0 333.11008 317.5" height="1200" width="1259">
   <defs id="defs57">
      <linearGradient id="id-22f">
         <stop offset="0" style="stop-color:#d9d9d9;stop-opacity:1" id="stop2" />
         <stop offset="1" style="stop-color:#c4c4c4;stop-opacity:0" id="stop4" />
      </linearGradient>
      <linearGradient id="id-21e">
         <stop offset="0" style="stop-color:#a67d30;stop-opacity:1" id="stop7" />
         <stop style="stop-color:#d6bf97;stop-opacity:1" offset=".517" id="stop9" />
         <stop style="stop-color:#ece2cf;stop-opacity:1" offset=".615" id="stop11" />
         <stop offset=".707" style="stop-color:#caad7a;stop-opacity:.89499998" id="stop13" />
         <stop offset="1" style="stop-color:#a38040;stop-opacity:1" id="stop15" />
      </linearGradient>
      <linearGradient id="id-18b">
         <stop style="stop-color:#be8d3e;stop-opacity:1" offset="0" id="stop18" />
         <stop offset=".431" style="stop-color:#d2a246;stop-opacity:1" id="stop20" />
         <stop style="stop-color:#af802f;stop-opacity:1" offset="1" id="stop22" />
      </linearGradient>
      <linearGradient id="id-20d">
         <stop offset="0" style="stop-color:#919191;stop-opacity:1" id="stop25" />
         <stop offset="1" style="stop-color:#919191;stop-opacity:0" id="stop27" />
      </linearGradient>
      <linearGradient id="id-19c">
         <stop offset="0" style="stop-color:#919191;stop-opacity:.79000002" id="stop30" />
         <stop style="stop-color:#919191;stop-opacity:.39500001" offset=".19" id="stop32" />
         <stop offset="1" style="stop-color:#919191;stop-opacity:0" id="stop34" />
      </linearGradient>
      <linearGradient id="id-17a">
         <stop offset="0" style="stop-color:#be8d3e;stop-opacity:1" id="stop37" />
         <stop style="stop-color:#d19f40;stop-opacity:1" offset=".431" id="stop39" />
         <stop offset="1" style="stop-color:#af802f;stop-opacity:1" id="stop41" />
      </linearGradient>
      <linearGradient gradientUnits="userSpaceOnUse" y2="288.84201" x2="-72.846001" y1="278.367" x1="-71.083" id="id-25i" xlink:href="#id-17a"
         gradientTransform="matrix(1.3338998,0,0,1.3338998,141.41893,-84.70303)" />
      <linearGradient y2="288.14001" x2="-73.528999" y1="278.991" x1="-70.401001" gradientUnits="userSpaceOnUse" id="id-26j" xlink:href="#id-18b"
         gradientTransform="matrix(-1.4038628,0,0,1.3643127,126.04174,-91.335179)" />
      <linearGradient gradientUnits="userSpaceOnUse" y2="179.69701" x2="127.901" y1="177.05299" x1="138.87399" id="id-28l" xlink:href="#id-19c"
         gradientTransform="matrix(1.3338998,0,0,1.3338998,141.25753,-84.009402)" />
      <linearGradient gradientUnits="userSpaceOnUse" y2="199.573" x2="-87.899002" y1="199.702" x1="-97.035004" id="id-27k" xlink:href="#id-20d"
         gradientTransform="matrix(1.3338998,0,0,1.3338998,141.25753,-84.009402)" />
      <linearGradient gradientTransform="translate(4.405)" gradientUnits="userSpaceOnUse" y2="185.74001" x2="-39.945" y1="185.74001" x1="-44.854"
         id="id-23g" xlink:href="#id-21e" />
      <linearGradient gradientTransform="translate(18.634,-0.451)" y2="185.74001" x2="-39.945" y1="185.74001" x1="-44.854"
         gradientUnits="userSpaceOnUse" id="id-24h" xlink:href="#id-21e" />
      <linearGradient gradientUnits="userSpaceOnUse" y2="213.11" x2="-31.066999" y1="207.778" x1="-31.059" id="id-29m" xlink:href="#id-22f"
         gradientTransform="matrix(1.3338998,0,0,1.3338998,141.25753,-84.009402)" />
      <clipPath clipPathUnits="userSpaceOnUse" id="id-31o">
         <circle style="fill:#473e81;stroke:#1a191e;stroke-width:0.86208999;stroke-linecap:round" cx="-615.61902" cy="-262.03101" r="87.569"
            id="circle51" />
      </clipPath>
      <clipPath clipPathUnits="userSpaceOnUse" id="clipPath971">
         <path inkscape:connector-curvature="0" id="path973"
            d="m 162.18939,77.51028 c 18.53721,0.26678 72.01325,-1.068451 97.9496,-4.09907 25.93635,-3.03062 58.79564,-8.056761 74.33024,-10.012249 l 16.12513,-25.616101 -5.94561,-55.413132 c 0,0 -104.64282,-11.653404 -105.59412,-12.604703 -0.9513,-0.951296 -25.2094,82.049485 -25.2094,82.049485 z"
            style="fill:none;stroke:#898989;stroke-width:1.62346649;stroke-linecap:round;stroke-linejoin:miter;stroke-miterlimit:4;stroke-dasharray:none;stroke-opacity:1"
            sodipodi:nodetypes="csc" />
      </clipPath>
   </defs>
   <g transform="matrix(1.8026723,0,0,1.8026723,131.00785,-174.32776)" id="g101">
      <path d="m -30.879,155.692 c 0,0 -9.176,1.915 -10.213,2.952 -1.037,1.038 -5.346,6.862 -7.021,13.964 -1.676,7.1 -2.793,22.5 -2.793,22.5"
         style="fill:none;stroke:#caad7a;stroke-width:2.06500006;stroke-linecap:butt;stroke-linejoin:miter;stroke-miterlimit:4;stroke-dasharray:none;stroke-opacity:1"
         id="path59" inkscape:connector-curvature="0" />
      <path d="m -35.587,149.786 c -0.204,0.163 -7.76,7.673 -9.549,12.257 -1.79,4.585 -2.765,9.93 -2.595,13.823 0.169,3.893 2.2,19.127 2.2,19.127"
         style="fill:none;stroke:#caad7a;stroke-width:1.86500001;stroke-linecap:butt;stroke-linejoin:miter;stroke-miterlimit:4;stroke-dasharray:none;stroke-opacity:1"
         id="path61" inkscape:connector-curvature="0" />
      <path d="m -98.705,116.476 h 35.77 v 3.272 h -35.77 z" transform="rotate(-26.406)"
         style="opacity:1;fill:#caad7a;fill-opacity:1;stroke:none;stroke-width:0.80000001;stroke-linecap:round;stroke-linejoin:round;stroke-miterlimit:4;stroke-dasharray:none;stroke-dashoffset:0;stroke-opacity:1"
         id="path63" inkscape:connector-curvature="0" />
      <path
         d="m -28.657,132.666 a 3.328,3.328 0 0 0 -2.24,0.947 c -0.526,0.532 -0.795,1.14 -0.961,1.68 -0.332,1.08 -0.273,2.057 -0.273,2.057 v 30.56 h 2.865 v -30.648 l -0.002,-0.03 c 0,0 -0.006,-0.592 0.148,-1.095 0.078,-0.252 0.191,-0.438 0.262,-0.51 0.07,-0.072 0.058,-0.09 0.27,-0.096 0.186,-0.004 0.128,-0.006 0.193,0.06 0.064,0.067 0.187,0.276 0.27,0.556 0.163,0.558 0.16,1.226 0.16,1.226 l -0.002,0.026 v 16.197 h 2.865 v -16.121 c 0,0 0.055,-1.02 -0.274,-2.137 -0.164,-0.559 -0.425,-1.186 -0.959,-1.738 -0.534,-0.552 -1.405,-0.956 -2.322,-0.934 z"
         style="color:#000000;font-style:normal;font-variant:normal;font-weight:400;font-stretch:normal;font-size:medium;line-height:normal;font-family:sans-serif;font-variant-ligatures:normal;font-variant-position:normal;font-variant-caps:normal;font-variant-numeric:normal;font-variant-alternates:normal;font-feature-settings:normal;text-indent:0;text-align:start;text-decoration:none;text-decoration-line:none;text-decoration-style:solid;text-decoration-color:#000000;letter-spacing:normal;word-spacing:normal;text-transform:none;writing-mode:lr-tb;direction:ltr;text-orientation:mixed;dominant-baseline:auto;baseline-shift:baseline;text-anchor:start;white-space:normal;shape-padding:0;clip-rule:nonzero;display:inline;overflow:visible;visibility:visible;opacity:1;isolation:auto;mix-blend-mode:normal;color-interpolation:sRGB;color-interpolation-filters:linearRGB;solid-color:#000000;solid-opacity:1;vector-effect:none;fill:#caad7a;fill-opacity:1;fill-rule:nonzero;stroke:#735a2e;stroke-width:0.80000001;stroke-linecap:butt;stroke-linejoin:miter;stroke-miterlimit:4;stroke-dasharray:none;stroke-dashoffset:0;stroke-opacity:1;color-rendering:auto;image-rendering:auto;shape-rendering:auto;text-rendering:auto;enable-background:accumulate"
         id="path65" inkscape:connector-curvature="0" />
      <path d="m -40.449,176.148 h 4.909 v 19.183 h -4.909 z"
         style="opacity:1;fill:url(#id-23g);fill-opacity:1;stroke:none;stroke-width:2.26499987;stroke-linecap:round;stroke-linejoin:round;stroke-miterlimit:4;stroke-dasharray:none;stroke-dashoffset:0;stroke-opacity:1"
         id="path67" inkscape:connector-curvature="0" />
      <path d="m -26.333,176.261 h 5.021 v 18.619 h -5.021 z"
         style="opacity:1;fill:url(#id-24h);fill-opacity:1;stroke:none;stroke-width:2.26499987;stroke-linecap:round;stroke-linejoin:round;stroke-miterlimit:4;stroke-dasharray:none;stroke-dashoffset:0;stroke-opacity:1"
         id="path69" inkscape:connector-curvature="0" />
      <path d="m -25.621,168.359 h 3.471 v 7.281 h -3.471 z"
         style="opacity:1;fill:#bb9655;fill-opacity:1;stroke:none;stroke-width:2.39665651;stroke-linecap:round;stroke-linejoin:round;stroke-miterlimit:4;stroke-dasharray:none;stroke-dashoffset:0;stroke-opacity:1"
         id="path71" inkscape:connector-curvature="0" />
      <path
         style="opacity:1;fill:#caad7a;fill-opacity:1;stroke:none;stroke-width:2.26499987;stroke-linecap:round;stroke-linejoin:round;stroke-miterlimit:4;stroke-dasharray:none;stroke-dashoffset:0;stroke-opacity:1"
         d="m -27.262,175.585 c 0.127,0.003 6.739,0.03 6.922,0 0.183,-0.031 0.348,0.165 0.353,0.33 0.004,0.166 -0.074,0.313 -0.353,0.368 -0.28,0.055 -6.642,0.05 -6.922,0 -0.111,-0.02 -0.259,-0.205 -0.253,-0.333 0.007,-0.16 0.174,-0.367 0.253,-0.365 z"
         id="path73" inkscape:connector-curvature="0" />
      <path d="m -39.739,169.137 h 3.471 v 6.503 h -3.471 z"
         style="opacity:1;fill:#bb9655;fill-opacity:1;stroke:none;stroke-width:2.26499987;stroke-linecap:round;stroke-linejoin:round;stroke-miterlimit:4;stroke-dasharray:none;stroke-dashoffset:0;stroke-opacity:1"
         id="path75" inkscape:connector-curvature="0" />
      <path d="m -26,172.288 h 4.129 v 2.015 H -26 Z"
         style="opacity:1;fill:#b38c47;fill-opacity:1;stroke:none;stroke-width:2.26499987;stroke-linecap:round;stroke-linejoin:round;stroke-miterlimit:4;stroke-dasharray:none;stroke-dashoffset:0;stroke-opacity:1"
         id="path77" inkscape:connector-curvature="0" />
      <path d="m -38.044,166.156 h 14.654 v 3.256 h -14.654 z"
         style="opacity:1;fill:#caad7a;fill-opacity:1;stroke:#8c6e38;stroke-width:0.4752332;stroke-linecap:round;stroke-linejoin:round;stroke-miterlimit:4;stroke-dasharray:none;stroke-dashoffset:0;stroke-opacity:1"
         id="path79" inkscape:connector-curvature="0" />
      <path d="m -47.768,167.399 h 7.959 v 1.416 h -7.959 z"
         style="opacity:1;fill:#caad7a;fill-opacity:1;stroke:#8c6e38;stroke-width:0.30000001;stroke-linecap:round;stroke-linejoin:round;stroke-miterlimit:4;stroke-dasharray:none;stroke-dashoffset:0;stroke-opacity:1"
         id="path81" inkscape:connector-curvature="0" />
      <ellipse ry="2.4679999" rx="2.539" cy="167.756" cx="-37.995998"
         style="opacity:1;fill:#a27f41;fill-opacity:1;stroke:none;stroke-width:2.15415978;stroke-linecap:round;stroke-linejoin:round;stroke-miterlimit:4;stroke-dasharray:none;stroke-dashoffset:0;stroke-opacity:1"
         id="ellipse83" />
      <ellipse ry="1.8049999" rx="1.721" cy="167.77" cx="-37.995998"
         style="opacity:1;fill:#caad7a;fill-opacity:1;stroke:none;stroke-width:2.26499987;stroke-linecap:round;stroke-linejoin:round;stroke-miterlimit:4;stroke-dasharray:none;stroke-dashoffset:0;stroke-opacity:1"
         id="ellipse85" />
      <ellipse
         style="opacity:1;fill:#a27f41;fill-opacity:1;stroke:none;stroke-width:2.15415978;stroke-linecap:round;stroke-linejoin:round;stroke-miterlimit:4;stroke-dasharray:none;stroke-dashoffset:0;stroke-opacity:1"
         cx="-30.805" cy="168.03799" rx="2.539" ry="2.4679999" id="ellipse87" />
      <ellipse
         style="opacity:1;fill:#caad7a;fill-opacity:1;stroke:none;stroke-width:2.26499987;stroke-linecap:round;stroke-linejoin:round;stroke-miterlimit:4;stroke-dasharray:none;stroke-dashoffset:0;stroke-opacity:1"
         cx="-30.805" cy="168.052" rx="1.721" ry="1.8049999" id="ellipse89" />
      <path d="m -21.445,167.544 h 7.219 v 1.127 h -7.219 z"
         style="opacity:1;fill:#caad7a;fill-opacity:1;stroke:#8c6e38;stroke-width:0.30000001;stroke-linecap:round;stroke-linejoin:round;stroke-miterlimit:4;stroke-dasharray:none;stroke-dashoffset:0;stroke-opacity:1"
         id="path91" inkscape:connector-curvature="0" />
      <ellipse ry="2.4679999" rx="2.539" cy="167.841" cx="-23.721001"
         style="opacity:1;fill:#a27f41;fill-opacity:1;stroke:none;stroke-width:2.15415978;stroke-linecap:round;stroke-linejoin:round;stroke-miterlimit:4;stroke-dasharray:none;stroke-dashoffset:0;stroke-opacity:1"
         id="ellipse93" />
      <ellipse ry="1.8049999" rx="1.721" cy="167.855" cx="-23.721001"
         style="opacity:1;fill:#caad7a;fill-opacity:1;stroke:none;stroke-width:2.26499987;stroke-linecap:round;stroke-linejoin:round;stroke-miterlimit:4;stroke-dasharray:none;stroke-dashoffset:0;stroke-opacity:1"
         id="ellipse95" />
      <path d="m -40.118,172.288 h 4.129 v 2.015 h -4.129 z"
         style="opacity:1;fill:#b38c47;fill-opacity:1;stroke:none;stroke-width:2.26499987;stroke-linecap:round;stroke-linejoin:round;stroke-miterlimit:4;stroke-dasharray:none;stroke-dashoffset:0;stroke-opacity:1"
         id="path97" inkscape:connector-curvature="0" />
      <path
         d="m -41.434,175.5 c 0.126,0.003 6.739,0.03 6.922,0 0.183,-0.03 0.348,0.166 0.352,0.331 0.004,0.165 -0.074,0.312 -0.352,0.367 -0.28,0.055 -6.643,0.05 -6.922,0 -0.112,-0.02 -0.26,-0.204 -0.253,-0.332 0.007,-0.16 0.174,-0.368 0.253,-0.366 z"
         style="opacity:1;fill:#caad7a;fill-opacity:1;stroke:none;stroke-width:2.26499987;stroke-linecap:round;stroke-linejoin:round;stroke-miterlimit:4;stroke-dasharray:none;stroke-dashoffset:0;stroke-opacity:1"
         id="path99" inkscape:connector-curvature="0" />
   </g>
   <path
      style="fill:#f5f5f5;fill-opacity:1;stroke:#898989;stroke-width:1.62346649;stroke-linecap:butt;stroke-linejoin:miter;stroke-miterlimit:4;stroke-dasharray:none;stroke-opacity:1"
      d="m 243.5263,277.69088 -0.75232,1.65671 -35.45505,4.84205 -128.745349,-0.93373 c 0,0 -8.734376,1.46996 -11.05136,1.91548 -2.316984,0.44553 -7.513858,0.81768 -7.513858,0.81768 l -0.200085,-0.08 -29.986068,-9.74014 c 0,0 -0.848361,-0.62293 -1.650034,-1.6487 -0.80034,-1.02443 -2.227613,-3.96568 -2.761173,-5.88249 -0.536228,-1.91548 -1.560663,-9.35865 -2.319652,-12.56667 C 22.333696,252.86167 9.8123782,191.5423 9.8123782,191.5423 l 75.6427918,-6.47342 37.99347,1.08846 80.5222,-6.70951 116.21736,-14.46481 m 0,0 c 0,0 -61.46077,93.09687 -63.63636,96.43695 -9.42134,14.46348 -13.59778,16.75779 -13.59778,16.75779"
      id="path103" inkscape:connector-curvature="0" />
   <ellipse
      style="opacity:1;fill:#ffffff;fill-opacity:0.40500004;stroke:none;stroke-width:0.35292765;stroke-linecap:round;stroke-linejoin:round;stroke-miterlimit:4;stroke-dasharray:none;stroke-dashoffset:0;stroke-opacity:1"
      cx="-31.99452" cy="275.85223" rx="9.4826946" ry="2.8972304" transform="rotate(-15.015)" id="ellipse105" />
   <path
      d="m 48.993018,270.5105 c 0,0 5.615719,2.09422 6.149279,2.36234 0.536227,0.26678 9.403993,6.10526 9.448012,7.79931 0.04535,1.69405 -4.321835,4.50058 -5.970536,6.14928 -1.6487,1.6487 -2.027527,1.8141 -3.805616,4.58861 -1.776754,2.77452 -2.902566,4.75669 -3.654885,6.99631 -0.750986,2.24095 -1.007095,5.66107 -1.229856,7.48851 -0.222761,1.82745 -2.361003,4.10041 -2.761173,5.34761 -0.402837,1.24719 -0.180076,2.71848 -0.180076,2.71848 0,0 -5.391623,0.22277 -5.97187,-0.17874 -0.578912,-0.40017 0,-0.84702 -0.53356,-1.33657 -0.536227,-0.49087 -3.654885,-2.62911 -4.100408,-3.47614 -0.445522,-0.84702 -0.222761,-2.18359 -0.222761,-2.18359 0,0 -0.624265,-0.0894 -0.580247,-1.38192 0.04535,-1.29122 1.471292,-4.5446 2.272966,-5.92652 0.803007,-1.38192 3.388105,-3.83229 3.609533,-4.45523 0.222761,-0.62559 0.624265,-2.31831 0.312132,-3.20936 -0.312132,-0.89104 -0.445522,-2.85188 -1.203177,-3.52149 -0.757655,-0.66695 -3.654886,-2.8959 -5.168862,-4.45523 -1.51531,-1.56066 -4.011037,-4.05505 -4.279151,-4.72467 -0.26678,-0.66695 -0.66695,-1.96084 -0.756321,-4.14443 -0.08937,-2.18359 0.13339,-3.87631 0.756321,-4.9461 0.624265,-1.06979 3.342753,-1.56066 3.921666,-2.22761 0.580246,-0.66962 1.337901,-3.74426 2.272965,-4.2338 0.936398,-0.49088 1.827443,-0.4015 2.541079,0.26678 0.712303,0.66828 2.761173,3.2974 3.832294,3.96568 1.069788,0.66962 5.302252,2.71849 5.302252,2.71849 z"
      style="fill:url(#id-25i);fill-opacity:1;stroke:#898989;stroke-width:1.62346649;stroke-linecap:butt;stroke-linejoin:miter;stroke-miterlimit:4;stroke-dasharray:none;stroke-opacity:1"
      id="path107" inkscape:connector-curvature="0" />
   <path
      d="m 52.587878,284.50578 c 0.214758,0.064 0.01867,0.32013 -0.106712,0.35615 -0.342812,0.096 -0.600255,-0.26945 -0.60559,-0.57224 -0.008,-0.54157 0.53356,-0.89638 1.03644,-0.8537 0.734979,0.0627 1.197842,0.80301 1.103135,1.50064 -0.12672,0.92839 -1.072455,1.50197 -1.964834,1.35124 -1.123144,-0.18942 -1.807435,-1.3419 -1.60068,-2.4277 0.249439,-1.31789 1.611351,-2.11423 2.894563,-1.85012 1.50864,0.3108 2.417026,1.8808 2.09689,3.35743 -0.370824,1.70472 -2.150246,2.72515 -3.821623,2.34766 -1.899473,-0.43085 -3.031954,-2.42103 -2.595769,-4.28715 0.489541,-2.09289 2.689142,-3.33875 4.748683,-2.84388 2.287639,0.54824 3.646883,2.95993 3.094648,5.21422"
      style="fill:none;fill-rule:evenodd;stroke:#c99f5a;stroke-width:0.70585537;stroke-miterlimit:4;stroke-dasharray:none;stroke-opacity:1"
      id="path109" inkscape:connector-curvature="0" />
   <path
      d="m 43.645414,299.7896 c 0,0 -1.336568,2.00485 -1.469958,3.8323 -0.13339,1.82744 0.891045,4.32183 0.891045,4.32183 m -3.43079,0.62427 c 0,0 -1.427273,-2.04887 -0.580247,-4.67799 0.847027,-2.63045 3.164011,-4.10041 3.164011,-4.10041 m 2.144911,0.89772 3.874979,-1.29122 m -3.781606,2.83587 3.876313,-1.29121 m -3.686899,3.11866 3.876312,-1.29122 m -3.686899,2.93058 3.876313,-1.29255 m -10.241683,-4.3165 1.323229,0.66161 m -1.890136,0.62961 0.976415,0.53622 m -1.44995,0.69363 0.947069,0.4722 m -1.73407,1.13515 0.976415,0.40951 m 2.044869,-32.17633 c 0,0 -0.26678,2.18359 0.222761,4.67932 0.489541,2.49439 1.616687,8.04074 1.616687,8.04074 m -8.862431,-12.21985 c 0,0 3.252048,2.7625 4.144427,4.81271 0.891045,2.0502 2.881223,7.55121 2.881223,7.55121 m 8.376891,-13.68982 c 0,0 -3.700238,1.2472 -4.413874,3.47481 -0.712303,2.22761 -0.493543,9.61075 -0.493543,9.61075 m -2.487723,0.59492 c 0,0 -2.334325,-8.72371 -2.561088,-9.28795 -0.225429,-0.56424 -2.144911,-3.34809 -2.144911,-3.34809 m 6.246653,12.26655 c 0,0 -1.013764,-7.45117 -0.677621,-9.408 0.33881,-1.95549 1.768751,-3.38544 1.768751,-3.38544"
      style="fill:none;stroke:#c99f5a;stroke-width:0.70585537;stroke-linecap:round;stroke-linejoin:miter;stroke-miterlimit:4;stroke-dasharray:none;stroke-opacity:1"
      id="path111" inkscape:connector-curvature="0" />
   <path
      d="m 42.642321,291.03255 c 0,0 0.640272,-0.41351 2.37034,-0.41351 1.731402,0 3.951011,1.05378 3.951011,1.05378 m -6.282668,3.12266 c 0,0 0.337477,0.26278 1.391258,0.37616 1.053781,0.11338 3.801614,-0.11338 3.801614,-0.11338 m -4.253806,-3.48014 c 0,0 -0.132056,0.54689 -0.186746,1.41126 -0.05736,0.8657 0.130722,1.44862 0.130722,1.44862 m 3.801614,-2.48372 c 0,0 0.130723,0.52689 0.112048,1.29788 -0.01868,0.77233 -0.09337,1.09113 -0.09337,1.09113 m -1.787426,-2.63312 c 0,0 -0.340144,0.9404 -0.340144,1.42994 0,0.48821 0.07603,1.20318 0.07603,1.20318 m -0.740314,-2.73983 c 0,0 -0.186746,0.85103 -0.200085,1.35658 -0.01334,0.50554 0.09337,1.44994 0.09337,1.44994 m 2.04887,-2.60777 c 0,0 0.01334,0.78433 -0.02668,1.28988 -0.04002,0.50688 -0.09337,1.27788 -0.09337,1.27788"
      style="fill:none;stroke:#9e7534;stroke-width:0.70585537;stroke-linecap:round;stroke-linejoin:miter;stroke-miterlimit:4;stroke-dasharray:none;stroke-opacity:1"
      id="path113" inkscape:connector-curvature="0" />
   <path d="m 44.405737,285.23009 1.916814,-6.54545"
      style="fill:none;stroke:#c99f5a;stroke-width:0.35292765;stroke-linecap:round;stroke-linejoin:miter;stroke-miterlimit:4;stroke-dasharray:none;stroke-opacity:1"
      id="path115" inkscape:connector-curvature="0" />
   <path d="m 38.392516,285.54889 -2.766508,-4.94877"
      style="fill:none;stroke:#c99f5a;stroke-width:0.35292765px;stroke-linecap:round;stroke-linejoin:miter;stroke-opacity:1" id="path117"
      inkscape:connector-curvature="0" />
   <path
      style="fill:url(#id-26j);fill-opacity:1;stroke:#898989;stroke-width:1.62346649;stroke-linecap:butt;stroke-linejoin:miter;stroke-miterlimit:4;stroke-dasharray:none;stroke-opacity:1"
      d="m 223.31505,271.97646 c 0,0 -5.90917,2.14224 -6.47075,2.41702 -0.56423,0.27345 -9.89753,6.24399 -9.94422,7.97672 -0.048,1.73407 4.5486,4.60329 6.28267,6.28934 1.73674,1.68739 2.13424,1.85546 4.00704,4.694 1.86879,2.8372 3.05463,4.86473 3.84563,7.15503 0.791,2.29298 1.06045,5.79046 1.29388,7.65926 0.23477,1.87013 2.48506,4.19378 2.9079,5.46899 0.42285,1.27654 0.18808,2.78118 0.18808,2.78118 0,0 5.67441,0.22809 6.28534,-0.18275 0.60959,-0.4095 0,-0.86703 0.56157,-1.36724 0.56424,-0.50155 3.84697,-2.68915 4.31517,-3.55485 0.46953,-0.86703 0.23476,-2.23294 0.23476,-2.23294 0,0 0.65762,-0.092 0.61093,-1.41394 -0.048,-1.32056 -1.54866,-4.64864 -2.39302,-6.06124 -0.84436,-1.41393 -3.56551,-3.92033 -3.79761,-4.5566 -0.23477,-0.64027 -0.65761,-2.37168 -0.32947,-3.28273 0.32947,-0.91239 0.46953,-2.91724 1.2672,-3.60153 0.79634,-0.68296 3.84563,-2.96259 5.43965,-4.55793 1.59401,-1.59535 4.22179,-4.1471 4.50324,-4.83139 0.28012,-0.68296 0.70163,-2.00618 0.79634,-4.23913 0.0934,-2.23429 -0.14006,-3.96569 -0.79634,-5.05949 -0.65628,-1.09379 -3.51749,-1.59534 -4.12709,-2.2783 -0.61092,-0.68429 -1.40859,-3.82829 -2.39168,-4.32984 -0.98708,-0.50288 -1.92348,-0.41084 -2.67447,0.27212 -0.74965,0.68429 -2.90656,3.37343 -4.03371,4.05639 -1.12581,0.68562 -5.58104,2.78118 -5.58104,2.78118 z"
      id="path119" inkscape:connector-curvature="0" />
   <path style="fill:none;fill-rule:evenodd;stroke:#c99f5a;stroke-width:0.73233837;stroke-miterlimit:4;stroke-dasharray:none;stroke-opacity:1"
      d="m 219.53211,286.29187 c -0.22676,0.0654 -0.02,0.32681 0.11205,0.36415 0.36015,0.0974 0.63227,-0.27611 0.6376,-0.58558 0.008,-0.55357 -0.56023,-0.91639 -1.09113,-0.8737 -0.77366,0.0654 -1.26053,0.82168 -1.16049,1.53532 0.13339,0.94973 1.12848,1.53665 2.06755,1.38192 1.18183,-0.19342 1.90214,-1.37259 1.68471,-2.48239 -0.26278,-1.34724 -1.69538,-2.16225 -3.04529,-1.8928 -1.58868,0.31746 -2.54508,1.92348 -2.20761,3.43479 0.3895,1.74341 2.2623,2.78785 4.02171,2.40102 1.99952,-0.44019 3.19069,-2.47705 2.73183,-4.38586 -0.51489,-2.13958 -2.83054,-3.41479 -4.99679,-2.90791 -2.40769,0.56024 -3.83896,3.02796 -3.25738,5.33293"
      id="path121" inkscape:connector-curvature="0" />
   <path
      style="fill:none;stroke:#c99f5a;stroke-width:0.73233837;stroke-linecap:round;stroke-linejoin:miter;stroke-miterlimit:4;stroke-dasharray:none;stroke-opacity:1"
      d="m 228.94278,301.92384 c 0,0 1.40726,2.05021 1.54732,3.92033 0.14139,1.86746 -0.93773,4.41921 -0.93773,4.41921 m 3.61087,0.64028 c 0,0 1.50197,-2.09689 0.61092,-4.78604 -0.89104,-2.69047 -3.32941,-4.19378 -3.32941,-4.19378 m -2.25829,0.91773 -4.07774,-1.32057 m 3.98036,2.90124 -4.0804,-1.32056 m 3.88165,3.18935 -4.08173,-1.32056 m 3.88164,2.99727 -4.0804,-1.32189 m 10.77925,-4.41521 -1.39259,0.67629 m 1.98884,0.64427 -1.0271,0.54823 m 1.52598,0.70964 -0.99642,0.48287 m 1.82477,1.16049 -1.0271,0.42018 m -2.15291,-32.90998 c 0,0 0.28011,2.23295 -0.23477,4.78604 -0.51489,2.55041 -1.70072,8.22349 -1.70072,8.22349 m 9.32662,-12.49864 c 0,0 -3.42278,2.82653 -4.36185,4.92209 -0.93773,2.09822 -3.03195,7.72328 -3.03195,7.72328 m -8.81441,-14.00061 c 0,0 3.89232,1.2752 4.6433,3.5535 0.74966,2.27831 0.52022,9.83085 0.52022,9.83085 m 2.61845,0.60692 c 0,0 2.45571,-8.92246 2.69448,-9.4987 0.23743,-0.57758 2.25829,-3.42545 2.25829,-3.42545 m -6.57613,12.54666 c 0,0 1.06979,-7.62057 0.71497,-9.62276 -0.35748,-2.00085 -1.86212,-3.4628 -1.86212,-3.4628"
      id="path123" inkscape:connector-curvature="0" />
   <path
      style="fill:none;stroke:#9e7534;stroke-width:0.73233837;stroke-linecap:round;stroke-linejoin:miter;stroke-miterlimit:4;stroke-dasharray:none;stroke-opacity:1"
      d="m 229.99923,292.9667 c 0,0 -0.67362,-0.42284 -2.4944,-0.42284 -1.8221,0 -4.15776,1.07779 -4.15776,1.07779 m 6.61347,3.19469 c 0,0 -0.35748,0.26811 -1.46729,0.38416 -1.10713,0.11605 -3.99903,-0.11605 -3.99903,-0.11605 m 4.47657,-3.55884 c 0,0 0.13872,0.56024 0.19608,1.44328 0.06,0.88571 -0.13739,1.48063 -0.13739,1.48063 m -4.0017,-2.53975 c 0,0 -0.13739,0.5389 -0.11738,1.32723 0.02,0.79101 0.0987,1.11648 0.0987,1.11648 m 1.88213,-2.69315 c 0,0 0.35615,0.96174 0.35615,1.46196 0,0.50021 -0.08,1.23119 -0.08,1.23119 m 0.77899,-2.80119 c 0,0 0.19742,0.8697 0.21076,1.38725 0.0133,0.51622 -0.0974,1.48197 -0.0974,1.48197 m -2.15691,-2.6678 c 0,0 -0.0133,0.803 0.028,1.32056 0.0427,0.51755 0.0987,1.30722 0.0987,1.30722"
      id="path125" inkscape:connector-curvature="0" />
   <path
      style="fill:none;stroke:#c99f5a;stroke-width:0.36616915;stroke-linecap:round;stroke-linejoin:miter;stroke-miterlimit:4;stroke-dasharray:none;stroke-opacity:1"
      d="m 228.14244,287.03218 -2.01686,-6.69484" id="path127" inkscape:connector-curvature="0" />
   <path style="fill:none;stroke:#c99f5a;stroke-width:0.36616915px;stroke-linecap:round;stroke-linejoin:miter;stroke-opacity:1"
      d="m 234.47179,287.35899 2.9119,-5.06215" id="path129" inkscape:connector-curvature="0" />
   <path style="fill:url(#id-27k);fill-opacity:1;stroke:none;stroke-width:0.35292765px;stroke-linecap:butt;stroke-linejoin:miter;stroke-opacity:1"
      d="m 18.461385,180.62699 c 3.552175,-0.0413 6.123934,-0.30546 6.123934,-0.30546 l -0.522889,2.82787 -4.468564,-0.0534 -2.875888,-0.14673 -3.086645,-0.0667 -1.316559,-0.18541 -0.492209,-0.25344 c 0.146729,-0.42152 0.248106,-0.96041 1.072456,-1.22719 1.576669,-0.51355 4.41254,-0.56024 5.566364,-0.58959 z"
      id="path131" inkscape:connector-curvature="0" />
   <path style="fill:url(#id-28l);fill-opacity:1;stroke:none;stroke-width:0.35292765px;stroke-linecap:butt;stroke-linejoin:miter;stroke-opacity:1"
      d="m 326.95374,152.391 c 0,0 -1.88881,-1.63669 -9.23326,-0.83769 -7.34312,0.79768 -34.01711,6.04657 -34.01711,6.04657 l 2.85988,6.72552 18.34112,-4.71133 13.7325,-3.77093 4.44189,-1.22986 2.83587,-1.17383 c 0.82168,-0.32948 1.38725,-0.66962 1.04044,-1.04845 z"
      id="path133" inkscape:connector-curvature="0" />
   <path
      style="color:#000000;font-style:normal;font-variant:normal;font-weight:400;font-stretch:normal;font-size:medium;line-height:normal;font-family:sans-serif;font-variant-ligatures:normal;font-variant-position:normal;font-variant-caps:normal;font-variant-numeric:normal;font-variant-alternates:normal;font-feature-settings:normal;text-indent:0;text-align:start;text-decoration:none;text-decoration-line:none;text-decoration-style:solid;text-decoration-color:#000000;letter-spacing:normal;word-spacing:normal;text-transform:none;writing-mode:lr-tb;direction:ltr;text-orientation:mixed;dominant-baseline:auto;baseline-shift:baseline;text-anchor:start;white-space:normal;shape-padding:0;clip-rule:nonzero;display:inline;overflow:visible;visibility:visible;opacity:1;isolation:auto;mix-blend-mode:normal;color-interpolation:sRGB;color-interpolation-filters:linearRGB;solid-color:#000000;solid-opacity:1;vector-effect:none;fill:#ffffff;fill-opacity:0.21499999;fill-rule:nonzero;stroke:none;stroke-width:5.28891277;stroke-linecap:round;stroke-linejoin:miter;stroke-miterlimit:4;stroke-dasharray:none;stroke-dashoffset:0;stroke-opacity:1;color-rendering:auto;image-rendering:auto;shape-rendering:auto;text-rendering:auto;enable-background:accumulate"
      d="m 40.5521,271.82573 c -1.101801,-0.0894 -2.230281,-0.0667 -3.381436,0.20408 -3.824291,0.89905 -5.447647,4.25114 -5.447647,4.25114 a 2.6451234,2.6451234 0 1 0 4.731343,2.36634 c 0,0 0.634936,-1.16583 1.927485,-1.46996 0.258777,-0.06 2.633118,0.0133 4.49791,0.33348 a 52.488959,52.488959 0 0 1 3.436126,0.71363 2.6451234,2.6451234 0 1 0 1.284546,-5.13151 c 0,0 -1.740739,-0.43752 -3.828293,-0.795 -1.043109,-0.17875 -2.116899,-0.3815 -3.220034,-0.4722 z"
      id="path135" inkscape:connector-curvature="0" />
   <path
      style="color:#000000;font-style:normal;font-variant:normal;font-weight:400;font-stretch:normal;font-size:medium;line-height:normal;font-family:sans-serif;font-variant-ligatures:normal;font-variant-position:normal;font-variant-caps:normal;font-variant-numeric:normal;font-variant-alternates:normal;font-feature-settings:normal;text-indent:0;text-align:start;text-decoration:none;text-decoration-line:none;text-decoration-style:solid;text-decoration-color:#000000;letter-spacing:normal;word-spacing:normal;text-transform:none;writing-mode:lr-tb;direction:ltr;text-orientation:mixed;dominant-baseline:auto;baseline-shift:baseline;text-anchor:start;white-space:normal;shape-padding:0;clip-rule:nonzero;display:inline;overflow:visible;visibility:visible;opacity:1;isolation:auto;mix-blend-mode:normal;color-interpolation:sRGB;color-interpolation-filters:linearRGB;solid-color:#000000;solid-opacity:1;vector-effect:none;fill:#ffffff;fill-opacity:0.22000002;fill-rule:nonzero;stroke:none;stroke-width:3.02128339;stroke-linecap:round;stroke-linejoin:miter;stroke-miterlimit:4;stroke-dasharray:none;stroke-dashoffset:0;stroke-opacity:1;color-rendering:auto;image-rendering:auto;shape-rendering:auto;text-rendering:auto;enable-background:accumulate"
      d="m 46.467946,302.20796 a 1.5113085,1.5113085 0 0 0 -0.819015,0.23077 c 0,0 -2.407689,1.2592 -3.754928,1.21118 -1.560663,-0.056 -3.027952,-1.0111 -3.027952,-1.0111 a 1.5113085,1.5113085 0 1 0 -1.726067,2.48106 c 0,0 1.995514,1.45395 4.647307,1.54999 2.867885,0.10137 5.428973,-1.64737 5.428973,-1.64737 a 1.5113085,1.5113085 0 0 0 -0.749652,-2.81453 z"
      id="path137" inkscape:connector-curvature="0" />
   <path
      d="m 229.20956,276.75449 c 1.1018,-0.0907 2.23028,-0.068 3.38143,0.20275 3.82429,0.90038 5.44765,4.25247 5.44765,4.25247 a 2.6451234,2.6451234 0 1 1 -4.73134,2.36501 c 0,0 -0.63494,-1.16583 -1.92882,-1.46996 -0.25745,-0.06 -2.63179,0.0133 -4.49524,0.33347 -1.8648,0.32014 -3.43746,0.71497 -3.43746,0.71497 a 2.6455704,2.6455704 0 1 1 -1.28455,-5.13284 c 0,0 1.74074,-0.43752 3.82829,-0.79501 1.04311,-0.17874 2.1169,-0.38149 3.2187,-0.47086 z"
      style="color:#000000;font-style:normal;font-variant:normal;font-weight:400;font-stretch:normal;font-size:medium;line-height:normal;font-family:sans-serif;font-variant-ligatures:normal;font-variant-position:normal;font-variant-caps:normal;font-variant-numeric:normal;font-variant-alternates:normal;font-feature-settings:normal;text-indent:0;text-align:start;text-decoration:none;text-decoration-line:none;text-decoration-style:solid;text-decoration-color:#000000;letter-spacing:normal;word-spacing:normal;text-transform:none;writing-mode:lr-tb;direction:ltr;text-orientation:mixed;dominant-baseline:auto;baseline-shift:baseline;text-anchor:start;white-space:normal;shape-padding:0;clip-rule:nonzero;display:inline;overflow:visible;visibility:visible;opacity:1;isolation:auto;mix-blend-mode:normal;color-interpolation:sRGB;color-interpolation-filters:linearRGB;solid-color:#000000;solid-opacity:1;vector-effect:none;fill:#ffffff;fill-opacity:0.21499999;fill-rule:nonzero;stroke:none;stroke-width:5.28891277;stroke-linecap:round;stroke-linejoin:miter;stroke-miterlimit:4;stroke-dasharray:none;stroke-dashoffset:0;stroke-opacity:1;color-rendering:auto;image-rendering:auto;shape-rendering:auto;text-rendering:auto;enable-background:accumulate"
      id="path139" inkscape:connector-curvature="0" />
   <path
      d="m 225.79611,303.83799 a 1.5113085,1.5113085 0 0 1 0.81768,0.2281 c 0,0 2.40769,1.26053 3.75493,1.21251 1.56066,-0.056 3.02928,-1.0111 3.02928,-1.0111 a 1.5113085,1.5113085 0 1 1 1.72473,2.48106 c 0,0 -1.99551,1.45395 -4.6473,1.54866 -2.86789,0.10271 -5.42764,-1.64604 -5.42764,-1.64604 a 1.5113085,1.5113085 0 0 1 0.74698,-2.81453 z"
      style="color:#000000;font-style:normal;font-variant:normal;font-weight:400;font-stretch:normal;font-size:medium;line-height:normal;font-family:sans-serif;font-variant-ligatures:normal;font-variant-position:normal;font-variant-caps:normal;font-variant-numeric:normal;font-variant-alternates:normal;font-feature-settings:normal;text-indent:0;text-align:start;text-decoration:none;text-decoration-line:none;text-decoration-style:solid;text-decoration-color:#000000;letter-spacing:normal;word-spacing:normal;text-transform:none;writing-mode:lr-tb;direction:ltr;text-orientation:mixed;dominant-baseline:auto;baseline-shift:baseline;text-anchor:start;white-space:normal;shape-padding:0;clip-rule:nonzero;display:inline;overflow:visible;visibility:visible;opacity:1;isolation:auto;mix-blend-mode:normal;color-interpolation:sRGB;color-interpolation-filters:linearRGB;solid-color:#000000;solid-opacity:1;vector-effect:none;fill:#ffffff;fill-opacity:0.22000002;fill-rule:nonzero;stroke:none;stroke-width:3.02128339;stroke-linecap:round;stroke-linejoin:miter;stroke-miterlimit:4;stroke-dasharray:none;stroke-dashoffset:0;stroke-opacity:1;color-rendering:auto;image-rendering:auto;shape-rendering:auto;text-rendering:auto;enable-background:accumulate"
      id="path141" inkscape:connector-curvature="0" />
   <path style="fill:url(#id-29m);fill-opacity:1;stroke:none;stroke-width:0.35292765px;stroke-linecap:butt;stroke-linejoin:miter;stroke-opacity:1"
      d="m 319.8027,165.25647 -0.12806,0.0147 c -1.09379,0.38683 -2.19426,0.77099 -3.28406,1.13782 -6.36537,2.14224 -43.99201,10.27102 -64.91423,13.67514 -20.92356,3.40411 -30.65702,4.18177 -30.65702,4.18177 0,0 -49.31828,5.36762 -61.79692,6.69084 -12.47863,1.32323 -43.10497,1.78743 -54.32307,1.78743 -11.218094,0 -81.41324,-0.40417 -86.360674,-0.58291 -2.787851,-0.0987 -4.89808,-0.0654 -7.676594,-0.2948 0.792337,3.76694 1.253866,5.80514 1.840782,8.69703 111.321946,2.08489 223.274826,-5.30892 302.888636,-29.71929 4.14576,-6.28 4.41121,-5.5877 4.41121,-5.5877 z"
      id="path143" inkscape:connector-curvature="0" />
   <path
      style="fill:#ffffff;fill-opacity:1;stroke:#898989;stroke-width:1.62346649;stroke-linecap:butt;stroke-linejoin:miter;stroke-miterlimit:4;stroke-dasharray:none;stroke-opacity:1"
      d="m 1.6289026,189.64149 c 0.3668225,0.52022 0.5442312,0.63494 1.7474088,1.03644 1.2031777,0.40017 10.3377236,1.20318 15.2864926,1.38059 4.9461,0.17874 75.138578,0.60825 86.356676,0.60825 11.2181,0 41.97249,-0.5669 54.44979,-1.89013 12.47997,-1.32323 61.73555,-6.78422 61.73555,-6.78422 0,0 9.73347,-0.77899 30.65702,-4.18177 20.92356,-3.40278 58.54887,-11.5329 64.91424,-13.67648 6.36404,-2.14224 13.36034,-4.85273 14.11666,-5.23022 0.75632,-0.37883 1.57534,-1.32323 1.57534,-1.32323 0,0 -0.0627,-6.7442 -1.07112,-7.6259 -1.00843,-0.88304 -3.5922,-2.58377 -7.6886,-2.8999 -4.09508,-0.3148 -10.2737,0.31613 -16.89118,1.07245 -6.61614,0.75633 -46.321,8.0661 -46.321,8.0661 0,0 -23.19252,4.97944 -30.69304,6.11326 -7.49918,1.13381 -46.0689,7.059 -53.19059,7.75263 -7.12169,0.69362 -32.14165,3.27605 -41.40425,3.46547 0,0 -22.42819,0.75899 -28.57747,0.75899 -6.14928,0 -69.520192,0.1774 -75.445375,0.22276 -5.927851,0.044 -13.459049,0.17741 -16.757783,0.89104 -3.297401,0.71231 -9.3439688,2.27297 -10.3830768,3.03062 -1.8047665,1.31389 -2.4677147,3.72559 -2.7611726,5.481 0.050688,1.09513 -0.2160918,2.8412 0.3468139,3.73225 z"
      id="path145" inkscape:connector-curvature="0" />
   <path
      style="fill:none;stroke:#898989;stroke-width:1.62346649;stroke-linecap:round;stroke-linejoin:miter;stroke-miterlimit:4;stroke-dasharray:none;stroke-opacity:1"
      d="m 12.509524,182.04626 c 0,0 -1.493968,0.44419 0.04802,0.68029 1.544656,0.2361 4.228463,0.22276 11.540901,0.47354 7.235073,0.2481 41.977829,0.62426 60.519036,0.89104 18.537209,0.26678 72.013249,-1.06845 97.949599,-4.09907 25.93635,-3.03062 58.79564,-8.05676 74.33024,-10.01225 15.53459,-1.95283 35.07222,-6.96296 44.55759,-9.35865 9.48402,-2.39435 22.20676,-6.18929 22.20676,-6.18929 0,0 4.56994,-1.56333 3.29207,-2.05954"
      id="path147" inkscape:connector-curvature="0" />
   <g transform="translate(-77.571912,106.58085)" clip-path="url(#clipPath971)" id="g153">
      <circle style="fill:#ffffff;stroke:#1a191e;stroke-width:1;stroke-linecap:round;stroke-miterlimit:4;stroke-dasharray:none" cx="287.14801"
         cy="35.498001" r="53.173" id="circle149" />
      <image style="fill:none" transform="matrix(0.60721,0,0,0.60721,660.957,194.605)" clip-path="url(#id-31o)" width="179.261" height="179.261"
         preserveAspectRatio="none" xlink:href="C:\Users\Extreme PC\strongseal.png" x="-705.24902" y="-351.66199" id="image151" />
   </g>
</svg>