<svg xmlns:dc="http://purl.org/dc/elements/1.1/" xmlns:cc="http://creativecommons.org/ns#" xmlns:rdf="http://www.w3.org/1999/02/22-rdf-syntax-ns#"
    xmlns:svg="http://www.w3.org/2000/svg" xmlns="http://www.w3.org/2000/svg" xmlns:xlink="http://www.w3.org/1999/xlink" version="1.1"
    viewBox="0 0 162.69531 317.49999" height="1200" width="614.91144">
    <defs>
        <linearGradient id="id-32a">
            <stop stop-color="#a8a8a8" offset="0" />
            <stop stop-color="#828282" offset="1" />
        </linearGradient>
        <linearGradient>
            <stop stop-color="#c4c4c4" offset="0" />
            <stop stop-color="#595959" offset="1" />
        </linearGradient>
        <linearGradient>
            <stop stop-color="#7a7a7a" offset="0" />
            <stop stop-opacity="0" stop-color="#7a7a7a" offset="1" />
        </linearGradient>
        <linearGradient>
            <stop stop-color="#101010" offset="0" />
            <stop stop-color="#989898" offset=".5" />
            <stop stop-color="#221f1f" offset="1" />
        </linearGradient>
        <linearGradient>
            <stop stop-color="#858585" offset="0" />
            <stop stop-color="#282828" offset="1" />
        </linearGradient>
        <linearGradient>
            <stop stop-color="#3e3e3e" offset="0" />
            <stop offset="1" />
        </linearGradient>
        <linearGradient>
            <stop stop-color="#dadada" offset="0" />
            <stop stop-color="#636363" offset="1" />
        </linearGradient>
        <linearGradient>
            <stop stop-color="#888" offset="0" />
            <stop stop-opacity="0" stop-color="#888" offset="1" />
        </linearGradient>
        <linearGradient>
            <stop stop-color="#121212" offset="0" />
            <stop stop-color="#a9a9a9" offset=".5" />
            <stop stop-color="#262222" offset="1" />
        </linearGradient>
        <linearGradient>
            <stop stop-color="#949494" offset="0" />
            <stop stop-color="#2c2c2c" offset="1" />
        </linearGradient>
        <linearGradient>
            <stop stop-color="#454545" offset="0" />
            <stop stop-color="#0a0a0a" offset="1" />
        </linearGradient>
        <linearGradient>
            <stop stop-color="#4d4d4d" offset="0" />
            <stop stop-color="#0b0b0b" offset="1" />
        </linearGradient>
        <radialGradient gradientUnits="userSpaceOnUse" gradientTransform="matrix(1,0,0,0.80798,-2e-5,13.41685)" r="17.90435" fy="65.195236"
            fx="108.35538" cy="65.195236" cx="108.35538" id="id-33b" xlink:href="#id-32a" />
        <clipPath clipPathUnits="userSpaceOnUse" id="id-34c">
            <circle style="fill:#473e81;stroke:#1a191e;stroke-width:0.86209005;stroke-linecap:round" r="87.568947" cy="-262.03094" cx="-615.61871" />
        </clipPath>
    </defs>
    <g transform="translate(1000.4442,231.76594)">
        <g class="chair" style="stroke-linejoin:round" transform="matrix(-1,0,0,1,-1838.1932,0)">
            <path transform="matrix(1.98602,0,0,1.98602,-1093.4092,-326.40587)" overflow="visible" font-weight="400"
                style="color:#000000;font-weight:400;overflow:visible;fill:url(#id-33b);stroke:#3a3a3a;stroke-width:0.86500001;stroke-opacity:1"
                d="m 100.97075,55.54102 c 1.63548,-0.0083 3.16211,0.01367 3.16211,0.01367 h 0.006 c 0,0 1.50951,-0.03335 3.22266,0 1.71314,0.03335 3.64628,0.14319 4.41601,0.39453 1.58594,0.51786 3.41705,2.21594 4.0293,3.60156 0.15051,0.34064 0.43444,1.20137 0.77539,2.33008 0.34096,1.1287 0.74354,2.53357 1.14844,3.98828 0.80979,2.90941 1.62707,6.02555 1.97656,7.55664 0.3205,1.40408 0.76388,2.9115 1.29102,4.4043 -0.16381,0.11045 -3.75858,2.5235 -9.4961,4.80468 -5.84323,2.32322 -12.78552,1.85547 -18.24023,-0.002 -5.44122,-1.85282 -7.75195,-5.49609 -7.75195,-5.49609 1.22846,-1.57755 1.71794,-3.90704 2.26171,-5.31445 0.57575,-1.49017 2.6064,-7.81704 3.17774,-9.95117 0.5625,-2.10115 1.48492,-3.55194 2.42773,-4.66016 0.44817,-0.5268 1.17628,-0.8505 1.90625,-1.0664 0.72997,-0.21591 1.45387,-0.32405 1.9043,-0.44532 0.17763,-0.04782 0.73482,-0.09222 1.42773,-0.11719 0.69292,-0.02497 1.53773,-0.03684 2.35547,-0.04102 z" />
            <path transform="matrix(1.98602,0,0,1.98602,-1093.4092,-326.40587)" overflow="visible" font-weight="400"
                style="color:#000000;font-weight:400;overflow:visible;fill:#6e6e6e;stroke:#3a3a3a;stroke-width:0.86500001;stroke-opacity:1"
                d="m 85.35552,77.35352 c 0.01423,0.02202 0.47018,0.49761 0.61719,0.6914 l -3.18164,27.68164 c -0.43873,-1.00841 -1.34751,-1.94839 -2.22852,-2.65429 -0.89595,-0.71788 -1.60462,-1.12464 -1.70898,-1.18555 -0.05584,-0.23452 -0.14307,-0.5227 -0.17383,-0.72266 -0.05195,-0.33765 -0.23994,-0.81171 -0.50196,-1.3711 -0.262,-0.55937 -0.59965,-1.1977 -0.95507,-1.83007 -0.71086,-1.26473 -1.48854,-2.5042 -1.87305,-3.04492 -0.72756,-1.02313 -1.73103,-3.69028 -1.91406,-4.92578 -0.18362,-1.23943 0.1229,-2.80792 0.71289,-3.73828 0.27684,-0.43657 1.212,-1.23826 2.08008,-1.91211 0.43403,-0.33693 0.854,-0.64723 1.17187,-0.8789 a 76.63515,76.63515 0 0 1 0.38867,-0.28126 c 0.09774,-0.07034 0.15065,-0.10763 0.17969,-0.13086 -0.0088,0.007 0.03119,-0.0231 0.08203,-0.05859 0.05084,-0.03549 0.1233,-0.08426 0.2129,-0.14648 0.17916,-0.12445 0.43044,-0.30025 0.73241,-0.51172 0.60396,-0.42296 1.41177,-0.99294 2.25586,-1.60938 1.6579,-1.21075 3.40867,-2.56256 4.10352,-3.3711 z m 35.7207,0.73828 c 0.61454,1.69375 1.36672,3.3661 2.32422,4.86328 0.92063,1.43953 1.91393,2.86678 2.67383,4.1914 0.75989,1.32463 1.28125,2.54712 1.28125,3.5547 0,2.12714 0.53159,3.59024 -0.49219,6.19921 -0.40852,1.04108 -0.97601,2.35862 -1.51953,3.65625 -0.12447,0.20128 -1.28187,2.08729 -1.85937,4.14063 -0.0354,0.12598 -0.1324,0.43131 -0.17579,0.57812 -0.0758,0.0424 -0.96666,0.53937 -2.01757,1.16992 -0.54735,0.32841 -1.11669,0.6814 -1.59571,1 -0.47901,0.3186 -0.86307,0.596 -1.06054,0.80664 -0.0154,0.0164 -0.0221,0.0515 -0.0352,0.0703 l 1.01758,-29.35743 c 0.61321,-0.37097 1.38444,-0.823 1.45898,-0.87304 z" />
            <path transform="matrix(1.98602,0,0,1.98602,-1093.4092,-326.40587)" overflow="visible" font-weight="400"
                style="color:#000000;font-weight:400;overflow:visible;fill:#797979;stroke:#3a3a3a;stroke-width:0.86500001;stroke-opacity:1"
                d="m 86.20903,78.3086 c 0.91386,1.12764 2.80366,3.1566 6.9668,4.57421 5.5066,1.8751 12.50256,2.3523 18.42383,-0.002 3.74081,-1.4873 6.13933,-2.80195 7.74805,-3.7539 l -1.03125,29.7539 0.0625,0.002 c -0.0327,0.11144 -0.0649,0.20391 -0.0996,0.3418 -0.12583,0.49941 -0.26456,1.16652 -0.41211,1.94531 -0.2951,1.55758 -0.62151,3.5598 -0.92578,5.53906 -0.60855,3.95854 -1.12891,7.82227 -1.12891,7.82227 l 0.0625,0.008 c -0.6698,0.29007 -1.38696,0.60214 -2.19922,0.96875 -1.02715,0.46361 -2.07955,0.9546 -2.9375,1.38867 -0.85795,0.43408 -1.51052,0.79435 -1.78516,1.06055 -0.50789,0.49231 -0.95954,1.38941 -1.29687,2.25586 -0.16867,0.43322 -0.30705,0.85778 -0.40234,1.21875 -0.0953,0.36097 -0.14948,0.65183 -0.14453,0.84961 0.01,0.39213 0.27753,0.64901 0.52148,0.79492 0.24395,0.14591 0.48437,0.19922 0.48437,0.19922 l 0.006,0.002 h 0.004 c 0,0 0.20576,0.0132 0.24023,0.0176 10e-4,0.0197 0.0525,0.71791 0.13086,1.53906 0.0795,0.83263 0.18129,1.7622 0.28711,2.20313 0.0439,0.18279 0.13901,0.85521 0.24219,1.75 0.10319,0.89479 0.21853,2.02512 0.31445,3.16992 0.005,0.0549 0.005,0.10133 0.01,0.15625 -0.0367,0.0208 -0.73856,0.42944 -1,0.57813 -0.10428,-0.0338 -1.75455,-0.57202 -2.61914,-0.73829 -0.23776,-0.0457 -1.61886,-0.25671 -3.63086,-0.56054 -2.01201,-0.30384 -4.63943,-0.69701 -7.3164,-1.09375 -5.35396,-0.79349 -10.90293,-1.60243 -12.14844,-1.75391 -0.56929,-0.0692 -0.60961,-0.0985 -1.1543,-0.17773 -0.01061,-0.0435 -1.03165,-4.22663 -1.40625,-7.92578 -0.37615,-3.71449 0.0466,-7.1542 0.2832,-10.08789 0.11532,-1.43001 0.94107,-4.48789 1.6504,-7.4375 0.35466,-1.47481 0.68004,-2.92687 0.87304,-4.14649 0.17661,-1.11606 0.20082,-1.95056 0.0625,-2.54687 L 83,106.22852 Z" />
            <path style="fill:none;stroke:#3a3a3a;stroke-width:2.26499629;stroke-opacity:1" d="m -930.73495,-116.61897 64.63392,50.08186" />
            <path transform="matrix(1.98602,0,0,1.98602,-1093.4092,-326.40587)" overflow="visible" font-weight="400"
                style="color:#000000;font-weight:400;overflow:visible;fill:#6e6e6e;stroke:#3a3a3a;stroke-width:0.86500001;stroke-opacity:1"
                d="m 78.94536,102.27148 c 0.24263,0.14601 0.69032,0.39624 1.45117,1.00586 0.94226,0.75498 1.96484,1.77928 2.30274,2.79297 0.159,0.47701 0.1108,1.45199 -0.08008,2.65821 -0.19088,1.20622 -0.5151,2.65277 -0.86914,4.125 -0.70809,2.94444 -1.53534,5.9792 -1.65625,7.47851 -0.23588,2.92493 -0.663,6.38423 -0.2832,10.13477 0.37256,3.67904 1.35816,7.71 1.39453,7.85937 -1.63818,-0.2455 -3.57227,-0.54883 -3.57227,-0.54883 h -0.004 c -0.19551,-0.0293 -0.52722,-0.0205 -1.0625,0.0332 -0.53527,0.0537 -1.26928,0.15516 -2.24219,0.31836 -0.04807,0.008 -0.17342,0.0366 -0.22265,0.0449 -0.03046,-0.0472 -0.26091,-0.40354 -0.55664,-0.92383 -0.31447,-0.55326 -0.6642,-1.23386 -0.79883,-1.70508 -0.12974,-0.45409 -0.09688,-1.23291 0.03516,-2.18359 0.13204,-0.95069 0.35747,-2.07787 0.58203,-3.25977 0.44623,-2.34855 1.74268,-7.32836 1.74414,-7.33398 l 0.002,-0.004 2.2207,-7.37109 v -0.004 c 0,0 0.49102,-2.1922 1.00196,-4.52539 0.51094,-2.33319 1.04052,-4.79012 1.12695,-5.38281 0.08837,-0.60596 -0.06676,-1.37632 -0.25977,-2.1543 -0.09416,-0.37954 -0.16116,-0.6942 -0.2539,-1.05469 z" />
            <path style="fill:none;stroke:#3a3a3a;stroke-width:2.26499629;stroke-opacity:1" d="m -854.71751,-78.10665 -44.00899,37.00693" />
            <path transform="matrix(1.98602,0,0,1.98602,-1093.4092,-326.40587)" overflow="visible" font-weight="400"
                style="color:#000000;font-weight:400;overflow:visible;fill:#6e6e6e;stroke:#3a3a3a;stroke-width:0.86500001;stroke-opacity:1"
                d="m 123.85238,103.76449 c -0.26319,0.75562 -0.3838,1.81901 -0.53597,2.47574 -0.32405,1.39855 -0.92955,6.09645 -1.45899,10.46875 -0.4855,4.00943 -0.83032,7.11501 -0.89648,7.70508 -0.0431,-0.1486 -0.068,-0.3056 -0.14453,-0.42578 -0.0592,-0.093 -0.14909,-0.13363 -0.25391,-0.16992 -0.10482,-0.0363 -0.22959,-0.0613 -0.37109,-0.082 -0.28302,-0.0414 -0.63089,-0.0611 -0.97461,-0.0664 -0.34372,-0.005 -0.68407,0.003 -0.94727,0.0156 -0.1316,0.006 -0.24278,0.014 -0.32812,0.0215 a 3.3265,3.3265 0 0 0 -0.10743,0.0117 c -0.0293,0.004 -0.0454,0.004 -0.082,0.0176 -0.02,0.007 -0.0493,0.0202 -0.11328,0.0469 -0.064,0.0267 -0.15336,0.064 -0.26562,0.11133 -0.22453,0.0947 -0.53959,0.22698 -0.91602,0.38867 -0.0983,0.0423 -0.25695,0.11425 -0.36328,0.16016 0.016,-0.11873 0.51089,-3.80027 1.10937,-7.69336 0.30403,-1.97767 0.62982,-3.97938 0.92383,-5.53125 0.14701,-0.77593 0.28665,-1.43949 0.41016,-1.92969 0.0618,-0.2451 0.1199,-0.44725 0.17187,-0.5957 0.052,-0.14845 0.10778,-0.24764 0.11914,-0.25977 0.15688,-0.16733 0.54037,-0.45277 1.01368,-0.76757 0.47331,-0.31481 1.04069,-0.667 1.58593,-0.99414 0.92132,-0.5528 1.52533,-0.88801 1.76954,-1.0254 -0.7301,2.42268 -2.1609,6.73021 -2.55665,9.5918 -0.43545,3.14862 -0.86914,8.46094 -0.86914,8.46094 l 0.26368,0.0215 c 0,0 0.43595,-5.31309 0.86914,-8.44531 0.43023,-3.11097 2.23118,-8.3556 2.83593,-10.50586 0.10855,-0.38593 -0.0656,-0.59913 0.0785,-0.97139 z" />
            <path transform="matrix(1.98602,0,0,1.98602,-1093.4092,-326.40587)" overflow="visible" font-weight="400"
                style="color:#000000;font-weight:400;overflow:visible;fill:#373737;stroke:#3a3a3a;stroke-width:0.86500001;stroke-opacity:1"
                d="m 70.82813,118.3125 0.23437,0.90039 v 0.004 l 0.17383,1.04882 c -0.05785,0.001 -0.10099,-0.0115 -0.16797,-0.006 -0.1737,0.0146 -0.37257,0.0425 -0.56055,0.0742 -0.37596,0.0634 -0.71289,0.13868 -0.71289,0.13868 -0.0096,0.001 -3.66353,0.56791 -7.45117,1.18945 -1.89632,0.31118 -3.8226,0.63586 -5.33984,0.91016 -0.75862,0.13714 -1.41506,0.26112 -1.91407,0.36523 -0.499,0.10411 -0.82634,0.18068 -0.98632,0.25 -1.02326,0.44342 -1.8717,1.5507 -1.92774,1.62305 l -2.14258,-0.0625 c -0.02206,-0.0179 -0.0943,-0.0743 -0.19336,-0.1836 -0.11291,-0.12459 -0.21936,-0.28938 -0.23047,-0.40039 7e-5,6e-4 0.006,-0.044 0.03126,-0.10351 0.02528,-0.0595 0.06628,-0.13726 0.11914,-0.22266 0.10569,-0.17081 0.25667,-0.37723 0.41992,-0.58594 0.3265,-0.41742 0.70215,-0.8419 0.86718,-1.02343 0.14316,-0.15747 0.45286,-0.35915 0.80079,-0.53516 0.34792,-0.17601 0.7359,-0.33211 1.04492,-0.42969 0.6246,-0.19724 1.52539,-0.39844 1.52539,-0.39844 z m 0.5039,0.90625 c 0.11115,-0.0164 0.63031,-0.11627 1.48242,0.23633 0.44199,0.18289 1.0622,0.72602 1.5547,1.22265 0.46698,0.47092 0.78436,0.8536 0.8203,0.89649 l -0.33593,1.11914 v 0.002 c 0,0 -0.10781,0.45635 -0.11915,0.5 -0.13326,-0.12864 -0.68374,-0.66041 -1.40039,-1.33203 -0.3993,-0.37422 -0.80765,-0.75169 -1.13671,-1.04297 -0.16454,-0.14563 -0.30904,-0.27098 -0.42383,-0.36328 -0.0574,-0.0461 -0.10759,-0.0834 -0.1504,-0.11328 -0.04144,-0.0289 -0.06901,-0.0503 -0.11523,-0.0664 z" />
            <path style="fill:none;stroke:#3a3a3a;stroke-width:2.26499629;stroke-opacity:1" d="m -932.05786,-96.39725 64.63392,50.08187" />
            <path transform="matrix(1.98602,0,0,1.98602,-1093.4092,-326.40587)" overflow="visible" font-weight="400"
                style="color:#000000;font-weight:400;overflow:visible;fill:#373737;stroke:#3a3a3a;stroke-width:0.86500001;stroke-opacity:1"
                d="m 50.61719,125.03125 1.40039,0.041 c -0.05138,0.0885 -0.1119,0.15941 -0.20313,0.51171 -0.12505,0.48298 -0.22962,1.24413 -0.1621,2.375 0.06918,1.15902 0.7145,3.41204 1.3418,5.39844 0.62728,1.98641 1.23632,3.69336 1.23632,3.69336 l 0.01172,-0.004 c -0.20715,0.17993 -0.50236,0.337 -0.66797,0.52539 -0.11335,0.12893 -0.21893,0.44023 -0.33398,0.59375 -0.09979,-0.21764 -1.287,-2.80245 -1.59961,-3.67774 -0.3247,-0.90914 -1.4961,-5.15941 -1.4961,-6.80273 0,-1.61834 0.44034,-2.58135 0.47266,-2.6543 z" />
            <path transform="matrix(1.98602,0,0,1.98602,-1093.4092,-326.40587)" overflow="visible" font-weight="400"
                style="color:#000000;font-weight:400;overflow:visible;fill:#363937;fill-opacity:1;stroke:#3a3a3a;stroke-width:0.86500001;stroke-opacity:1"
                d="m 64.11523,133.89453 c 1.74904,-0.0116 3.7819,0.66517 5.3711,1.34961 1.58148,0.68112 2.70966,1.35862 2.7207,1.36524 l 1.57422,1.63085 c -1.93769,0.33552 -4.55262,0.84902 -8.4629,1.74415 -8.332,1.90732 -12.09187,4.11598 -13.55077,5.26953 -0.74114,0.58601 -1.4284,1.5215 -1.9375,2.3125 -0.3633,0.56445 -0.47198,0.79172 -0.59766,1.02734 0.05492,-0.49985 0.12179,-1.16085 0.22461,-1.79492 0.03022,-0.18633 0.20133,-0.74173 0.4668,-1.4668 0.26546,-0.72507 0.62581,-1.63383 1.04101,-2.58203 0.83041,-1.89639 1.88495,-3.95548 2.80664,-5.00391 0.91845,-1.04473 2.62378,-2.01091 4.53907,-2.70898 1.91529,-0.69807 4.04202,-1.13092 5.80468,-1.14258 z" />
            <path overflow="visible" font-weight="400"
                style="color:#000000;font-weight:400;overflow:visible;fill:#656565;fill-opacity:1;stroke:#3a3a3a;stroke-width:0.86500001;stroke-opacity:1"
                d="m 77.58398,138.03711 c 0,0 2.54175,0.46819 5.01954,0.76953 1.22672,0.1492 6.78708,0.96048 12.14062,1.75391 2.67677,0.39671 5.3028,0.78996 7.31445,1.09375 2.01166,0.30378 3.42454,0.52079 3.6211,0.55859 0.74422,0.14312 2.00204,0.55248 2.35156,0.66406 -1.12212,0.63928 -2.51531,1.42457 -3.56445,2.06836 -0.74051,0.45441 -2.76932,1.7727 -4.73047,3.14844 -0.98058,0.68787 -1.94425,1.38893 -2.7207,2.00391 -0.77646,0.61497 -1.36045,1.1312 -1.60938,1.5 -0.9051,1.34088 -2.24342,4.24577 -2.2832,4.33203 -0.29554,-0.077 -15.58644,-4.06081 -23.68555,-4.92383 -8.06127,-0.85898 -19.87895,-1.95524 -20.1504,-1.98047 0.04217,-0.0822 0.29997,-0.5929 0.76563,-1.31641 0.50152,-0.77921 1.18347,-1.69816 1.87891,-2.24804 1.41424,-1.11824 5.1398,-3.31749 13.44531,-5.21875 4.15767,-0.95176 7.05424,-1.52844 8.9922,-1.85352 0.96897,-0.16254 1.6981,-0.26165 2.2246,-0.31445 0.5265,-0.0528 0.85557,-0.0559 0.99414,-0.0352 z"
                transform="matrix(1.98602,0,0,1.98602,-1093.4092,-326.40587)" />
            <path transform="matrix(1.98602,0,0,1.98602,-1093.4092,-326.40587)" overflow="visible" font-weight="400"
                style="color:#000000;font-weight:400;overflow:visible;fill:#363937;fill-opacity:1;stroke:#3a3a3a;stroke-width:0.86500001;stroke-opacity:1"
                d="m 116.0625,141.04297 c 0.58897,0.15499 0.95033,0.58315 1.19531,1.11328 0.24499,0.53013 0.36016,1.1531 0.44336,1.65234 0.16494,0.98957 0.33399,2.89649 0.33399,2.89649 l 0.008,0.0937 0.42578,0.11328 v 0.0566 l 1.55273,-0.0918 c -0.0314,0.23654 -0.0674,0.47704 -0.0762,0.72266 -0.012,0.3364 -6.4e-4,0.59137 -0.0703,0.83789 -0.0697,0.24652 -0.21856,0.49957 -0.57422,0.84375 -0.0679,0.0657 -0.29503,0.22309 -0.61523,0.41797 -0.32021,0.19488 -0.73905,0.43731 -1.22266,0.70703 -0.96723,0.53944 -2.19077,1.19256 -3.39062,1.82422 -2.36493,1.245 -4.57512,2.36899 -4.64063,2.40234 -0.0611,-0.19211 -0.11632,-0.39592 -0.25195,-0.52539 -0.15266,-0.14572 -0.24886,-0.20223 -0.31055,-0.24219 0.032,-0.0839 0.65851,-1.72276 1.33398,-3.63085 0.34627,-0.97813 0.69712,-2.00351 0.97071,-2.88086 0.27358,-0.87735 0.46963,-1.59665 0.50781,-2.00391 0.0377,-0.40165 0.0215,-1.34134 -0.0195,-2.55078 -0.001,-0.0409 -0.004,-0.0972 -0.006,-0.13867 0.0607,-0.0366 0.79078,-0.47803 1.73047,-0.91602 0.48892,-0.22789 1.01605,-0.44412 1.49414,-0.58203 0.47809,-0.13791 0.90942,-0.19078 1.18164,-0.11914 z" />
            <path transform="matrix(1.98602,0,0,1.98602,-1093.4092,-326.40587)" overflow="visible" font-weight="400"
                style="color:#000000;font-weight:400;overflow:visible;fill:#3c3c3c;stroke:#3a3a3a;stroke-width:0.86505002;stroke-linecap:round;stroke-opacity:1"
                d="m 109.36719,142.40625 c 0.0356,0.45207 0.0535,0.85329 0.0801,1.28711 -0.0584,0.0374 -0.88366,0.565 -1.92383,1.2793 -1.07627,0.73908 -2.3125,1.6279 -2.97852,2.25976 -1.30619,1.23921 -6.4272,6.22146 -8.2168,8.48828 -1.64305,2.0812 -2.89387,5.24399 -3.11718,5.81836 -0.08501,-0.34035 -0.31245,-1.13972 -0.33203,-2.43164 -0.0232,-1.53118 0.4414,-2.98047 0.4414,-2.98047 l -0.0625,-0.0195 0.0078,-0.0332 0.06445,0.0293 c 0,0 1.40935,-3.04546 2.29492,-4.35743 0.20209,-0.29938 0.7869,-0.83174 1.55664,-1.4414 0.76975,-0.60966 1.72903,-1.30808 2.70704,-1.99414 1.956,-1.37213 3.98731,-2.69299 4.71679,-3.14063 1.39246,-0.85446 4.44617,-2.58488 4.76172,-2.76367 z" />
            <path transform="matrix(1.98602,0,0,1.98602,-1093.4092,-326.40587)" overflow="visible" font-weight="400"
                style="color:#000000;font-weight:400;overflow:visible;fill:#363937;fill-opacity:1;stroke:#3a3a3a;stroke-width:0.86500001;stroke-opacity:1"
                d="m 109.46489,143.99805 c 0.0226,0.40293 0.0657,0.86169 0.0762,1.21875 0.0281,0.95497 -0.002,1.72148 -0.0879,2.00781 -0.0949,0.31643 -0.37942,1.01775 -0.75,1.87305 -0.37057,0.85529 -0.82888,1.87103 -1.27343,2.8457 -0.8891,1.94934 -1.72657,3.73242 -1.72657,3.73242 l -0.0703,0.14844 0.16016,0.0352 c 0,0 0.69904,0.15998 1.45117,0.30664 0.0242,0.005 0.046,0.007 0.0703,0.0117 -0.2487,0.1214 -3.13022,1.52183 -6.03906,3.33985 -2.97998,1.86248 -7.11418,2.54835 -7.14062,2.55273 l -0.8086,-0.1289 c 0.0482,-0.12586 1.49023,-3.87956 3.20899,-6.05664 1.75393,-2.22166 6.89171,-7.22595 8.1914,-8.45899 0.63692,-0.60426 1.87492,-1.49994 2.94727,-2.23633 0.96889,-0.66534 1.63869,-1.09351 1.79101,-1.1914 z" />
            <path transform="matrix(1.98602,0,0,1.98602,-1093.4092,-326.40587)" overflow="visible" font-weight="400"
                style="color:#000000;font-weight:400;overflow:visible;fill:#656565;stroke:#3a3a3a;stroke-width:0.86500001;stroke-opacity:1"
                d="m 49.14653,149.27734 c 0.13703,0.0127 12.15983,1.12867 20.26368,1.99219 8.04365,0.85712 23.3244,4.83275 23.63671,4.91406 -0.0395,0.12518 -0.45655,1.41246 -0.43359,2.92774 0.02244,1.48045 0.33869,2.61932 0.38086,2.77734 l -2.99023,-0.47656 -10.20118,-1.88867 -15.16601,-3.07227 h -0.002 c 0,0 -10.95081,-2.10025 -11.74219,-2.24414 -0.41235,-0.075 -0.95977,-0.0663 -1.4336,-0.0273 -0.2369,0.0195 -0.45516,0.0472 -0.62695,0.0781 -0.08589,0.0155 -0.1591,0.0316 -0.2207,0.0488 -0.0616,0.0173 -0.1077,0.0284 -0.1582,0.0645 0.0157,-0.0112 0.01748,-0.005 -0.002,-0.006 -0.01944,-0.001 -0.05343,-0.009 -0.0957,-0.0234 -0.08454,-0.0292 -0.19877,-0.0856 -0.31836,-0.16016 -0.23919,-0.14914 -0.50434,-0.3697 -0.6543,-0.5625 -0.02096,-0.0269 -0.06114,-0.11243 -0.09766,-0.22852 -0.03652,-0.11608 -0.07295,-0.26571 -0.10742,-0.43554 -0.06895,-0.33966 -0.13172,-0.76077 -0.18164,-1.1836 -0.04992,-0.42282 -0.08666,-0.84655 -0.10938,-1.18945 -0.0227,-0.3429 -0.028,-0.61907 -0.01953,-0.69531 0.04244,-0.38194 0.24024,-0.55274 0.24024,-0.55274 l 0.0371,-0.0351 z" />
            <path transform="matrix(1.98602,0,0,1.98602,-1093.4092,-326.40587)" overflow="visible" font-weight="400"
                style="color:#000000;font-weight:400;overflow:visible;fill:#545454;stroke:#3a3a3a;stroke-width:0.86500001;stroke-opacity:1"
                d="m 79.17193,159.66602 0.58007,0.11718 5.69532,1.05469 -0.28125,3.92773 c -0.07064,0.0213 -0.53347,0.16164 -1.20704,0.32422 -0.72259,0.17442 -1.59819,0.34766 -2.17382,0.34766 -0.55971,0 -1.28665,-0.27461 -1.86329,-0.55469 -0.53984,-0.26221 -0.89136,-0.49109 -0.9414,-0.52343 z m 6.5371,1.2207 0.66407,0.12305 -0.03906,0.94531 -0.70118,0.0117 z m 0.92579,0.17187 2.43554,0.45118 0.05273,0.58593 c -0.06363,0.0472 -0.16112,0.12533 -0.39062,0.25196 -0.29023,0.16012 -0.66412,0.31445 -0.9707,0.31445 -0.3051,0 -0.6572,-0.15742 -0.92579,-0.32227 -0.14539,-0.0892 -0.16422,-0.11497 -0.24414,-0.17773 z" />
            <path transform="matrix(1.98602,0,0,1.98602,-1093.4092,-326.40587)" overflow="visible" font-weight="400"
                style="color:#000000;font-weight:400;overflow:visible;fill:#545454;stroke:#3a3a3a;stroke-width:0.86500001;stroke-opacity:1"
                d="m 89.36138,162.20117 c 0.07682,0.0164 0.14147,0.0276 0.28906,0.0703 0.1087,0.0315 0.21955,0.0698 0.30273,0.10743 0.07912,0.0358 -0.69489,-0.036 -0.6976,-0.0457 5.2e-4,0.006 0.81424,0.12398 0.8148,0.13158 0.0024,0.0317 0.0056,0.0798 0.0078,0.14063 0.0044,0.12171 0.0085,0.29585 0.01171,0.51562 0.0064,0.43954 0.0095,1.05769 0.01172,1.79493 0.0044,1.47446 0.002,3.42428 -0.0039,5.36718 -0.0117,3.85152 -0.03475,7.61244 -0.03516,7.67969 -0.05674,0.0525 -0.9365,0.85742 -2.27734,0.85742 -1.33903,0 -2.62366,-0.67749 -2.72656,-0.73242 l 0.09375,-13.04492 c 0.0202,-0.006 0.17773,-0.0469 0.17773,-0.0469 l 0.08789,-0.0273 0.19531,-2.73633 0.61524,-0.01 c 0.01499,0.0133 0.19258,0.1711 0.4707,0.34179 0.28951,0.17769 0.6707,0.36328 1.0625,0.36328 0.3903,0 0.78844,-0.17705 1.09766,-0.34765 0.30921,-0.1706 0.53125,-0.3418 0.53125,-0.3418 z m 16.99023,8.55274 c 0.0268,0.005 0.12958,0.0196 0.27149,0.0586 0.0797,0.0219 0.16253,0.0493 0.22851,0.0781 0.0614,0.0269 0.0995,0.0567 0.11133,0.0684 10e-4,0.007 0.002,0.0122 0.004,0.0234 0.006,0.0359 0.0107,0.0906 0.0156,0.1582 0.01,0.13514 0.0168,0.32297 0.0215,0.54493 0.009,0.44391 0.01,1.02409 0.006,1.59765 -0.008,1.10869 -0.0297,2.12548 -0.0312,2.19727 l -2.82227,1.57031 -0.72852,-0.26367 -6.1953,2.75977 0.04101,0.0937 -5.89648,-0.88476 -1.05078,-0.70898 v -0.0137 c 0,0 0.0034,-0.74774 0.0039,-0.83203 z m -41.00195,0.55273 c 0.16068,0.0395 0.2832,0.10742 0.2832,0.10742 l 0.0098,0.006 19.15235,6.51953 v 0.0996 l -0.99415,0.76953 -6.8418,1.18164 0.0098,-0.0312 -12.32226,-3.84375 -0.06836,-4.27539 c -6e-5,-0.001 -0.01145,-0.25293 0.29883,-0.48046 0.13113,-0.0961 0.31197,-0.0923 0.47266,-0.0527 z m 41.57031,4.50977 -0.0293,0.0859 1.09961,0.36524 c -0.0892,0.0467 -0.10222,0.0482 -0.21875,0.11719 -0.27776,0.16454 -0.58955,0.36772 -0.74804,0.60546 -0.14481,0.21722 -0.40612,0.73895 -0.5918,1.35938 -0.12126,0.40517 -0.0663,0.82887 -0.0547,1.25 l -0.15625,-0.10742 c 0,0 -0.20398,0.30139 -0.41992,0.69726 -0.0791,0.14501 -0.29882,0.29112 -0.53906,0.38086 -0.24025,0.0897 -0.50556,0.12398 -0.61328,0.10742 -0.13151,-0.0202 -0.23446,-0.0617 -0.3711,-0.2207 -0.13663,-0.15897 -0.29616,-0.44269 -0.48242,-0.92578 -0.1718,-0.44562 -0.106,-1.02262 0.0117,-1.48633 0.10861,-0.4278 0.23569,-0.69632 0.25781,-0.74414 l 0.11524,0.041 z" />
            <path transform="matrix(1.98602,0,0,1.98602,-1093.4092,-326.40587)" overflow="visible" font-weight="400"
                style="color:#000000;font-weight:400;overflow:visible;fill:#545454;stroke:#3a3a3a;stroke-width:0.86500001;stroke-opacity:1"
                d="m 108.38286,176.35547 c 0.006,-0.001 0.20308,-0.0524 0.41211,0.14453 0.21199,0.19974 0.44251,0.69587 0.34375,1.88672 -0.0987,1.19064 -0.42059,1.79148 -0.70117,2.09375 -0.14029,0.15113 -0.27205,0.22841 -0.36523,0.26953 -0.0932,0.0411 -0.13672,0.0449 -0.13672,0.0449 H 107.92 l -0.0137,0.006 c 0,0 -0.24656,0.0787 -0.5332,0.0391 -0.28665,-0.0396 -0.59777,-0.17821 -0.77735,-0.66796 -0.17708,-0.48296 -0.0877,-1.15287 0.0899,-1.7461 0.17753,-0.59323 0.44159,-1.11649 0.55664,-1.28906 0.10136,-0.15204 0.39848,-0.36807 0.66406,-0.52539 0.25331,-0.15006 0.45635,-0.24631 0.47656,-0.25586 z m -45.19726,0.4375 c 0.0713,0.0253 1.72851,0.6238 1.72851,2.57422 0,1.02358 -0.14538,1.55558 -0.32812,1.82422 -0.18275,0.26863 -0.39974,0.31056 -0.66211,0.35156 -0.08558,0.0134 -0.23165,-0.0217 -0.39844,-0.11719 -0.16679,-0.0955 -0.35213,-0.24632 -0.5293,-0.4375 -0.35432,-0.38235 -0.67258,-0.92477 -0.77539,-1.49414 -0.21565,-1.19437 -0.16857,-1.52981 0.0098,-2 0.06981,-0.18405 0.31544,-0.38007 0.55274,-0.51367 0.21074,-0.11865 0.36163,-0.17258 0.40234,-0.1875 z m 27.04883,1.36914 -0.06642,0.0977 0.88282,0.5957 -0.4082,5.11719 L 90.60746,184 c 0,0 -0.23944,0.19257 -0.45898,0.41211 -0.07849,0.0785 -0.2922,0.20316 -0.47656,0.29492 -0.13389,0.0666 -0.19223,0.0912 -0.24805,0.11524 l -0.5332,-4.87696 -0.07227,-0.0312 c 0,0 -0.16618,-0.0701 -0.38477,-0.12695 -0.21859,-0.0568 -0.49114,-0.10769 -0.73437,-0.0469 -0.22646,0.0566 -0.50307,0.19324 -0.73243,0.31641 -0.22935,0.12317 -0.4082,0.23438 -0.4082,0.23438 l -0.0703,0.043 0.4785,4.60547 c -0.08282,0.003 -0.21683,0.0108 -0.48437,0.004 -0.33765,-0.009 -0.7422,-0.0419 -0.97265,-0.11524 -0.3959,-0.12596 -0.60174,-0.40226 -0.68555,-0.50195 l 0.19336,-5.96875 c 0.21505,0.11388 1.40618,0.72852 2.76758,0.72852 1.44228,0 2.37872,-0.8584 2.44922,-0.92383 z m -5.48443,0.24609 -0.0293,0.94336 -0.7246,0.58789 -32.5879,5.74414 -0.75781,-0.87695 33.25976,-5.74805 z m 6.55273,0.60547 34.04883,5.10742 -0.17968,4.92188 -0.2461,0.0332 0.37305,-4.44922 -0.12305,-0.0176 c 0,0 -8.29133,-1.14507 -16.70117,-2.32032 -4.20492,-0.58762 -8.43956,-1.18169 -11.68164,-1.64453 -1.62104,-0.23142 -2.99528,-0.43027 -3.99219,-0.57812 -0.49845,-0.0739 -0.90317,-0.13522 -1.19726,-0.18164 -0.20378,-0.0322 -0.27575,-0.048 -0.36524,-0.0645 z" />
            <path transform="matrix(1.98602,0,0,1.98602,-1093.4092,-326.40587)" overflow="visible" font-weight="400"
                style="color:#000000;font-weight:400;overflow:visible;fill:#545454;stroke:#3a3a3a;stroke-width:0.86500001;stroke-opacity:1"
                d="m 84.70898,179.70117 -0.14648,4.5 -33.29492,6.08789 -0.65625,-0.31445 -0.06055,-4.87891 0.75586,0.875 32.80273,-5.7832 z m 3.05469,0.29688 c 0.15767,-0.0394 0.40255,-0.007 0.60156,0.0449 0.15895,0.0413 0.23422,0.0739 0.2793,0.0918 l 1.57617,14.41406 c -0.15183,-0.0604 -0.44576,-0.2053 -0.8711,-0.14453 -0.43352,0.0619 -0.9467,0.24379 -1.10155,0.29687 l -1.47852,-14.22461 c 0.04716,-0.0287 0.14002,-0.0877 0.32227,-0.18554 0.22166,-0.11905 0.49742,-0.24936 0.67187,-0.29297 z m 3.45313,0.0879 c 0.09686,0.0175 0.1595,0.0311 0.3457,0.0605 0.29557,0.0467 0.70032,0.10765 1.19922,0.18164 0.9978,0.148 2.37285,0.34668 3.99414,0.57813 3.24258,0.46291 7.47659,1.05689 11.68164,1.64453 8.34811,1.16663 16.45722,2.28798 16.57812,2.30469 l -0.38281,4.52734 0.66797,-0.0898 c 0.009,5e-4 0.52524,0.0289 1.12891,0.2168 0.6089,0.18956 1.28042,0.5374 1.58593,1.14843 0.58146,1.16285 0.0944,2.27689 0.0137,2.45313 l -0.30078,-0.13477 c -0.0172,-0.0653 -0.13236,-0.54082 -0.55274,-1.08789 -0.44836,-0.58349 -1.21582,-1.18355 -2.4375,-1.23242 -1.21394,-0.0486 -1.92455,0.3851 -2.31445,0.83789 -0.35616,0.4136 -0.41388,0.776 -0.42774,0.84766 l -0.49414,0.27148 0.25196,-3.875 -30.84961,-4.73633 z" />
            <path transform="matrix(1.98602,0,0,1.98602,-1093.4092,-326.40587)" overflow="visible" font-weight="400"
                style="color:#000000;font-weight:400;overflow:visible;fill:#545454;stroke:#3a3a3a;stroke-width:0.86500001;stroke-opacity:1"
                d="m 53.72656,190.10743 0.42774,0.42774 -0.04297,2.79101 -0.19922,-0.0879 c -0.0664,-0.13334 -0.31712,-0.66193 -0.75586,-1.14453 -0.2659,-0.29249 -0.66778,-0.44209 -1.1543,-0.48828 -0.48651,-0.0462 -1.06499,0.009 -1.71093,0.14062 -0.70898,0.14443 -1.35823,0.84986 -1.85547,1.50586 -0.42586,0.56182 -0.63362,0.95115 -0.7129,1.09375 l -0.48046,-0.77343 c 0.0047,-0.0598 0.11078,-1.35164 0.86718,-2.375 0.739,-0.99981 2.29802,-1.00385 2.3457,-1.00391 l 0.7754,0.37109 z m 71,0.8125 c 1.14067,0.0456 1.82634,0.59223 2.24024,1.13086 0.41389,0.53863 0.54297,1.06055 0.54297,1.06055 v 0.002 c -0.004,0.0402 -0.06,0.74317 -0.45313,1.46484 -0.40419,0.74202 -1.12247,1.45152 -2.50195,1.37891 -0.68699,-0.0361 -1.16189,-0.26888 -1.50391,-0.59765 -0.34202,-0.32878 -0.55177,-0.7589 -0.67578,-1.19141 -0.24718,-0.8621 -0.15298,-1.71105 -0.15234,-1.7168 0.002,-0.0114 0.063,-0.39332 0.40039,-0.78515 0.34242,-0.39766 0.9551,-0.79204 2.10351,-0.7461 z" />
            <path transform="matrix(1.98602,0,0,1.98602,-1093.4092,-326.40587)" overflow="visible" font-weight="400"
                style="color:#000000;font-weight:400;overflow:visible;fill:#545454;stroke:#3a3a3a;stroke-width:0.86500001;stroke-opacity:1"
                d="m 51.97656,191.86915 c 0.44662,0.0424 0.7778,0.17511 0.98438,0.40234 0.40316,0.44347 0.65045,0.95465 0.7168,1.08594 -0.0043,0.06 -0.0573,0.80703 -0.11329,1.27735 -0.02878,0.24171 -0.0585,0.3672 -0.1289,0.52734 -0.07041,0.16014 -0.18513,0.35884 -0.375,0.71484 -0.34233,0.64187 -1.10933,0.74189 -1.47461,0.83008 -0.36152,0.0873 -1.01899,0.33659 -1.97266,-0.31055 -0.45177,-0.30656 -0.78192,-0.94927 -0.98437,-1.51757 -0.19612,-0.55054 -0.27044,-0.99051 -0.2754,-1.01953 0.12567,-0.19501 0.11848,-0.21901 0.29297,-0.44922 0.48314,-0.63739 1.13057,-1.28886 1.69727,-1.4043 0.62972,-0.12828 1.1862,-0.17912 1.63281,-0.13672 z m 37.41016,2.79688 c 0.38513,-0.055 0.81416,0.1248 0.87305,0.14843 l 0.10937,4.5 c -0.02222,0.0278 -0.42343,0.54149 -1.14453,0.60157 -0.6988,0.0582 -1.03556,-0.47495 -1.06055,-0.51563 l 0.0625,-4.41992 c 0.06018,-0.0205 0.73965,-0.2544 1.16016,-0.31445 z" />
            <path transform="matrix(1.98602,0,0,1.98602,-1093.4092,-326.40587)" overflow="visible" font-weight="400"
                style="color:#000000;font-weight:400;overflow:visible;fill:#545454;stroke:#3a3a3a;stroke-width:0.86500001;stroke-opacity:1"
                d="m 90.56445,199.50196 0.54297,0.36328 0.11719,1.28125 0.57031,0.59375 c 0.0058,0.0258 0.22884,1.01247 0.25195,2.42188 0.02242,1.36725 -0.47,2.72228 -0.49804,2.80078 l -0.71094,0.0352 -0.09375,-1.64453 -3.02539,-0.0781 0.07031,1.8125 -1,-0.22656 c -0.02476,-0.11509 -0.48486,-2.24268 -0.57422,-3.04688 -0.0419,-0.37712 0.11412,-1.01422 0.28906,-1.53906 0.159,-0.477 0.30067,-0.79022 0.33008,-0.85742 l 0.56446,0.0508 v -1.63672 l 0.59765,-0.23047 c 0.09345,0.13494 0.47576,0.64264 1.25,0.57813 0.80939,-0.0674 1.26057,-0.60674 1.31836,-0.67774 z" />
            <path style="fill:#545454;stroke:#3a3a3a;stroke-width:1.71790731;stroke-opacity:1"
                d="m -968.04021,24.71371 3.01894,-1.49289 6.90044,2.32227 c 0,0 0.5308,3.98102 0.36492,4.97628 -0.16587,0.99525 -0.82938,2.42177 -2.22273,2.654 -1.39336,0.23222 -2.42179,-0.72985 -2.42179,-0.72985 l -0.72985,0.0995 c 0,0 -0.0664,1.42654 -0.7962,1.55925 -0.72986,0.13266 -2.25592,0.13266 -2.25592,0.13266 0,0 2.05686,-0.56399 1.75828,-4.4123 -0.29857,-3.84833 -3.6161,-5.10898 -3.6161,-5.10898 z" />
            <path style="fill:none;stroke:#3a3a3a;stroke-width:2.26499629;stroke-opacity:1"
                d="m -923.5534,-157.6294 64.63392,50.08186 m -67.65772,-28.34822 64.6339,50.08186 m -73.13837,10.01636 39.4985,29.86013 m -3.40178,-113.58187 41.95535,34.39585 m -20.03273,-35.71877 20.59968,17.38694 m -0.75594,1.1339 -76.72916,66.7128 m 77.8631,-92.60417 -75.21726,65.95686 m 73.51635,-17.57593 -74.65028,65.38992 m 43.46725,-104.13246 -38.93154,32.69495 m 16.44196,-38.36459 -13.41815,11.3393 m 63.87798,60.0982 -52.16072,44.22322" />
            <g transform="matrix(-1,0,0,1,-2052.2334,-43.406778)">
                <circle style="fill:#ffffff;stroke:#1a191e;stroke-width:0.99999994;stroke-linecap:round;stroke-miterlimit:4;stroke-dasharray:none"
                    r="53.172741" cy="-46.239151" cx="-1128.4347" />
                <image transform="matrix(0.60721,0,0,0.60721,-754.62487,112.86866)" clip-path="url(#id-34c)" width="179.26129" height="179.26129"
                    preserveAspectRatio="none" xlink:href="C:\Users\Extreme PC\strongseal.png" x="-705.24927" y="-351.66159" />
            </g>
            <path transform="matrix(1.98602,0,0,1.98602,-1093.4092,-326.40587)" overflow="visible" font-weight="400"
                style="color:#000000;font-weight:400;overflow:visible;fill:#545454;stroke:#3a3a3a;stroke-width:0.86500001;stroke-opacity:1"
                d="m 119.75195,126.49609 c 0.0112,-10e-4 0.0389,0.003 0.0859,0.0371 0.047,0.0339 0.10694,0.0943 0.16797,0.17188 0.12205,0.15523 0.25371,0.38181 0.37695,0.62109 0.1834,0.3561 0.29612,0.63341 0.40039,0.87891 -0.003,0.0789 -0.0767,1.88709 -0.13281,3.98828 -0.0574,2.14645 -0.0958,4.49755 -0.01,5.39258 0.0804,0.83599 -0.0424,2.92525 -0.18945,4.80078 -0.0735,0.93776 -0.15251,1.82561 -0.21289,2.48828 -0.0302,0.33134 -0.0562,0.60599 -0.0742,0.80273 -0.009,0.0984 -0.0166,0.17756 -0.0215,0.23438 -0.005,0.0568 -0.008,0.0744 -0.008,0.10937 0,0.01 -0.01,0.093 -0.0254,0.19532 -0.0157,0.10234 -0.0363,0.23418 -0.0586,0.38281 -4.4e-4,0.003 -0.002,0.007 -0.002,0.01 l -1.31445,0.0781 c 10e-4,-0.21722 0.0356,-6.18062 0.13281,-7.73633 0.10014,-1.60236 0.72964,-12.35293 0.73242,-12.40039 0.0143,-0.006 0.0362,-0.0166 0.0488,-0.0215 0.058,-0.0227 0.10361,-0.0332 0.10351,-0.0332 z m -0.42383,0.18164 c -0.0169,0.28828 -0.62785,10.67837 -0.72656,12.25782 -0.099,1.58429 -0.12736,7.41552 -0.1289,7.70312 l -0.18555,-0.0488 c -0.0102,-0.11561 -0.16049,-1.8419 -0.32422,-2.82422 -0.0838,-0.50301 -0.20035,-1.14834 -0.46484,-1.7207 -0.2645,-0.57235 -0.68858,-1.07871 -1.36914,-1.25781 -0.13839,-0.0364 -0.34048,0.0398 -0.50391,0.0469 -0.002,-0.0274 -0.21072,-2.7723 -0.32812,-5.49609 -0.11581,-2.68617 0.019,-6.25998 0.0234,-6.37891 0.46605,-0.28886 0.93097,-0.57897 1.43164,-0.87109 0.71804,-0.41894 1.42428,-0.81478 1.97657,-1.10742 0.23806,-0.12615 0.43038,-0.22126 0.5996,-0.30274 z m -4.27343,2.44336 c -0.0109,0.29839 -0.13499,3.59568 -0.0215,6.22852 0.11771,2.73069 0.32619,5.48237 0.32813,5.50781 -0.19084,0.0281 -0.34378,-0.009 -0.55274,0.0508 -0.49911,0.14398 -1.03657,0.36422 -1.5332,0.59571 -0.88789,0.41384 -1.48178,0.77506 -1.63281,0.86523 -0.0416,-1.1285 -0.0954,-2.39862 -0.16016,-3.67187 -0.14473,-2.84453 -0.30859,-5.49805 -0.30859,-5.49805 l -0.26367,0.0156 c 0,0 0.16199,2.65326 0.30664,5.4961 0.0723,1.42142 0.14071,2.89085 0.18164,4.09765 0.0409,1.20681 0.0527,2.16133 0.0195,2.51563 -0.0327,0.34869 -0.22616,1.07924 -0.49805,1.95117 -0.27189,0.87193 -0.62119,1.89483 -0.9668,2.87109 -0.6912,1.95254 -1.36523,3.7168 -1.36523,3.7168 l -0.0391,0.10352 0.0937,0.0566 c 0,0 0.18184,0.11151 0.35351,0.27539 0.17168,0.16387 0.30961,0.37183 0.28711,0.52929 -0.0363,0.25416 -0.0289,0.58069 -0.0625,0.84961 -0.0168,0.13447 -0.0449,0.25144 -0.084,0.33008 -0.0391,0.0786 -0.0768,0.11406 -0.13867,0.12891 -0.0206,0.005 -0.10584,0.0113 -0.2168,0.004 -0.11096,-0.007 -0.25203,-0.0245 -0.41016,-0.0469 -0.31625,-0.0448 -0.70263,-0.11467 -1.07617,-0.1875 -0.66425,-0.12952 -1.15304,-0.24214 -1.2832,-0.27148 0.0644,-0.13693 0.80652,-1.71045 1.66016,-3.58204 0.44495,-0.97556 0.90171,-1.99361 1.27343,-2.85156 0.37173,-0.85795 0.6562,-1.54865 0.76172,-1.90039 0.11456,-0.38184 0.12596,-1.1289 0.0977,-2.0918 -0.0283,-0.96289 -0.105,-2.12557 -0.20117,-3.27343 -0.0962,-1.14787 -0.21093,-2.27995 -0.31446,-3.17774 -0.10353,-0.89779 -0.19169,-1.54838 -0.24804,-1.7832 -0.0946,-0.39429 -0.20206,-1.33655 -0.28125,-2.16602 -0.0761,-0.79712 -0.12294,-1.44069 -0.12696,-1.49414 0.25516,0.0279 0.41855,0.0596 0.91602,0.0684 0.77322,0.0137 1.66792,-0.0361 2.20703,-0.375 0.52426,-0.32959 0.72949,-0.84783 0.91016,-1.35742 0.18066,-0.50959 0.34115,-1.01491 0.74609,-1.39648 0.19878,-0.18732 0.6826,-0.52757 1.28711,-0.91602 0.10472,-0.0673 0.24387,-0.14664 0.35547,-0.2168 z" />
            <path transform="matrix(1.98602,0,0,1.98602,-1093.4092,-326.40587)" overflow="visible" font-weight="400"
                style="color:#000000;font-weight:400;overflow:visible;fill:#545454;stroke:#3a3a3a;stroke-width:0.86500001;stroke-opacity:1"
                d="m 119.21289,123.93555 c 0.33698,0.005 0.67645,0.024 0.93945,0.0625 0.13151,0.0192 0.24491,0.0428 0.32422,0.0703 0.0793,0.0275 0.11792,0.0636 0.11719,0.0625 0.0971,0.15256 0.17611,0.43284 0.2207,0.66797 0.0446,0.23512 0.0606,0.42578 0.0606,0.42578 l 0.002,0.0293 1.73438,2.88476 1.11914,0.20703 c 0.007,0.003 0.0713,0.0322 0.15234,0.13477 0.0855,0.10814 0.1736,0.28227 0.16602,0.57031 -0.008,0.29224 -0.0944,0.47262 -0.17383,0.58203 -0.0717,0.0988 -0.11835,0.12103 -0.12891,0.12696 l -1.13086,0.0625 a 72.24669,72.24669 0 0 1 -0.34179,-0.24219 c -0.19591,-0.13964 -0.41602,-0.30014 -0.44727,-0.32617 -0.0285,-0.0237 -0.17418,-0.17111 -0.31445,-0.33985 -0.14027,-0.16873 -0.28688,-0.3719 -0.35156,-0.51562 -0.0143,-0.0319 -0.0837,-0.18367 -0.10938,-0.24414 v -0.0254 h -0.0137 c -0.10136,-0.23919 -0.2209,-0.54119 -0.41797,-0.92383 -0.12733,-0.24723 -0.26521,-0.48469 -0.40625,-0.66406 -0.0705,-0.0897 -0.1405,-0.16426 -0.21875,-0.22071 -0.0782,-0.0564 -0.16994,-0.0972 -0.27148,-0.0859 -0.0565,0.006 -0.10527,0.0228 -0.17188,0.0488 -0.0666,0.0261 -0.1465,0.0615 -0.24023,0.10547 -0.18747,0.0879 -0.42854,0.20985 -0.70703,0.35742 -0.55699,0.29514 -1.26375,0.69283 -1.98438,1.11329 -0.72063,0.42045 -1.45333,0.86442 -2.0625,1.25585 -0.60917,0.39144 -1.08869,0.72337 -1.32422,0.94532 -0.46369,0.43693 -0.63799,0.99678 -0.8164,1.5 -0.17841,0.50322 -0.35593,0.94493 -0.80079,1.22461 -0.43001,0.27034 -1.30734,0.34538 -2.0625,0.33203 -0.75093,-0.0133 -1.37575,-0.10059 -1.38281,-0.10157 -0.004,-9.2e-4 -0.20146,-0.0459 -0.40234,-0.16601 -0.20289,-0.12136 -0.38568,-0.29818 -0.39258,-0.57422 -0.003,-0.13631 0.0425,-0.42586 0.13477,-0.77539 0.0923,-0.34953 0.22744,-0.76529 0.39257,-1.18945 0.33028,-0.84832 0.78978,-1.73122 1.23633,-2.16407 0.20259,-0.19636 0.8669,-0.58269 1.71875,-1.01367 0.85185,-0.43098 1.90263,-0.92208 2.92774,-1.38476 1.0251,-0.46269 2.02364,-0.8978 2.77539,-1.22071 0.37587,-0.16145 0.6901,-0.29421 0.91406,-0.38867 a 67.8223,67.8223 0 0 1 0.26562,-0.11133 c 0.0635,-0.0264 0.10876,-0.0461 0.10547,-0.0449 -0.0199,0.007 7.1e-4,0.001 0.0234,-0.002 0.0227,-0.003 0.0557,-0.006 0.0957,-0.01 0.08,-0.007 0.18948,-0.0154 0.31836,-0.0215 0.25777,-0.0121 0.59271,-0.0188 0.92969,-0.0137 z" />
        </g>
    </g>
</svg>