<svg xmlns="http://www.w3.org/2000/svg" xmlns:xlink="http://www.w3.org/1999/xlink" width="614.91141" height="1144.05162"
    viewBox="0 0 162.69531 302.69699">
    <defs>
        <linearGradient id="a">
            <stop offset="0" stop-color="#a8a8a8" />
            <stop offset="1" stop-color="#828282" />
        </linearGradient>
        <linearGradient id="b">
            <stop offset="0" stop-color="#c4c4c4" />
            <stop offset="1" stop-color="#595959" />
        </linearGradient>
        <linearGradient id="c">
            <stop offset="0" stop-color="#7a7a7a" />
            <stop offset="1" stop-color="#7a7a7a" stop-opacity="0" />
        </linearGradient>
        <linearGradient id="d">
            <stop offset="0" stop-color="#101010" />
            <stop offset=".5" stop-color="#989898" />
            <stop offset="1" stop-color="#221f1f" />
        </linearGradient>
        <linearGradient id="e">
            <stop offset="0" stop-color="#858585" />
            <stop offset="1" stop-color="#282828" />
        </linearGradient>
        <linearGradient id="f">
            <stop offset="0" stop-color="#3e3e3e" />
            <stop offset="1" />
        </linearGradient>
        <linearGradient id="g">
            <stop offset="0" stop-color="#dadada" />
            <stop offset="1" stop-color="#636363" />
        </linearGradient>
        <linearGradient id="h">
            <stop offset="0" stop-color="#888" />
            <stop offset="1" stop-color="#888" stop-opacity="0" />
        </linearGradient>
        <linearGradient id="i">
            <stop offset="0" stop-color="#121212" />
            <stop offset=".5" stop-color="#a9a9a9" />
            <stop offset="1" stop-color="#262222" />
        </linearGradient>
        <linearGradient id="j">
            <stop offset="0" stop-color="#949494" />
            <stop offset="1" stop-color="#2c2c2c" />
        </linearGradient>
        <linearGradient id="k">
            <stop offset="0" stop-color="#454545" />
            <stop offset="1" stop-color="#0a0a0a" />
        </linearGradient>
        <linearGradient id="l">
            <stop offset="0" stop-color="#4d4d4d" />
            <stop offset="1" stop-color="#0b0b0b" />
        </linearGradient>
        <radialGradient xlink:href="#a" id="m" cx="108.35538" cy="65.19524" fx="108.35538" fy="65.19524" r="17.90435"
            gradientTransform="matrix(1 0 0 .80798 -.00002 13.41685)" gradientUnits="userSpaceOnUse" />
        <clipPath clipPathUnits="userSpaceOnUse" id="gamechairclippath">
            <circle cx="-615.61865" cy="-262.03094" r="87.56895" fill="#473e81" stroke="#1a191e" stroke-width=".86209" stroke-linecap="round" />
        </clipPath>
    </defs>
    <g transform="translate(1000.4442 216.96294)">
        <g stroke-linejoin="round">
            <path
                d="M100.97075 55.54102c1.63548-.0083 3.16211.01367 3.16211.01367h.006s1.50951-.03335 3.22266 0c1.71314.03335 3.64628.14319 4.41601.39453 1.58594.51786 3.41705 2.21594 4.0293 3.60156.15051.34064.43444 1.20137.77539 2.33008.34096 1.1287.74354 2.53357 1.14844 3.98828.80979 2.90941 1.62707 6.02555 1.97656 7.55664.3205 1.40408.76388 2.9115 1.29102 4.4043-.16381.11045-3.75858 2.5235-9.4961 4.80468-5.84323 2.32322-12.78552 1.85547-18.24023-.002-5.44122-1.85282-7.75195-5.49609-7.75195-5.49609 1.22846-1.57755 1.71794-3.90704 2.26171-5.31445.57575-1.49017 2.6064-7.81704 3.17774-9.95117.5625-2.10115 1.48492-3.55194 2.42773-4.66016.44817-.5268 1.17628-.8505 1.90625-1.0664.72997-.21591 1.45387-.32405 1.9043-.44532.17763-.04782.73482-.09222 1.42773-.11719.69292-.02497 1.53773-.03684 2.35547-.04102z"
                style="line-height:normal;font-variant-ligatures:normal;font-variant-position:normal;font-variant-caps:normal;font-variant-numeric:normal;font-variant-alternates:normal;font-feature-settings:normal;text-indent:0;text-align:start;text-decoration-line:none;text-decoration-style:solid;text-decoration-color:#000;text-transform:none;text-orientation:mixed;white-space:normal;shape-padding:0;isolation:auto;mix-blend-mode:normal;solid-color:#000;solid-opacity:1"
                color="#000" font-weight="400" font-family="sans-serif" overflow="visible" fill="url(#m)" stroke="#000" stroke-width=".865"
                transform="translate(-1093.4092 -326.40587) scale(1.98602)" />
            <path
                d="M85.35552 77.35352c.01423.02202.47018.49761.61719.6914l-3.18164 27.68164c-.43873-1.00841-1.34751-1.94839-2.22852-2.65429-.89595-.71788-1.60462-1.12464-1.70898-1.18555-.05584-.23452-.14307-.5227-.17383-.72266-.05195-.33765-.23994-.81171-.50196-1.3711-.262-.55937-.59965-1.1977-.95507-1.83007-.71086-1.26473-1.48854-2.5042-1.87305-3.04492-.72756-1.02313-1.73103-3.69028-1.91406-4.92578-.18362-1.23943.1229-2.80792.71289-3.73828.27684-.43657 1.212-1.23826 2.08008-1.91211.43403-.33693.854-.64723 1.17187-.8789a76.63515 76.63515 0 0 1 .38867-.28126c.09774-.07034.15065-.10763.17969-.13086-.0088.007.03119-.0231.08203-.05859.05084-.03549.1233-.08426.2129-.14648.17916-.12445.43044-.30025.73241-.51172.60396-.42296 1.41177-.99294 2.25586-1.60938 1.6579-1.21075 3.40867-2.56256 4.10352-3.3711zM121.07622 78.0918c.61454 1.69375 1.36672 3.3661 2.32422 4.86328.92063 1.43953 1.91393 2.86678 2.67383 4.1914.75989 1.32463 1.28125 2.54712 1.28125 3.5547 0 2.12714.53159 3.59024-.49219 6.19921-.40852 1.04108-.97601 2.35862-1.51953 3.65625-.12447.20128-1.28187 2.08729-1.85937 4.14063-.0354.12598-.1324.43131-.17579.57812-.0758.0424-.96666.53937-2.01757 1.16992-.54735.32841-1.11669.6814-1.59571 1-.47901.3186-.86307.596-1.06054.80664-.0154.0164-.0221.0515-.0352.0703l1.01758-29.35743c.61321-.37097 1.38444-.823 1.45898-.87304z"
                style="line-height:normal;font-variant-ligatures:normal;font-variant-position:normal;font-variant-caps:normal;font-variant-numeric:normal;font-variant-alternates:normal;font-feature-settings:normal;text-indent:0;text-align:start;text-decoration-line:none;text-decoration-style:solid;text-decoration-color:#000;text-transform:none;text-orientation:mixed;white-space:normal;shape-padding:0;isolation:auto;mix-blend-mode:normal;solid-color:#000;solid-opacity:1"
                color="#000" font-weight="400" font-family="sans-serif" overflow="visible" fill="#6e6e6e" stroke="#000" stroke-width=".865"
                transform="translate(-1093.4092 -326.40587) scale(1.98602)" />
            <path
                d="M86.20903 78.3086c.91386 1.12764 2.80366 3.1566 6.9668 4.57421 5.5066 1.8751 12.50256 2.3523 18.42383-.002 3.74081-1.4873 6.13933-2.80195 7.74805-3.7539l-1.03125 29.7539.0625.002c-.0327.11144-.0649.20391-.0996.3418-.12583.49941-.26456 1.16652-.41211 1.94531-.2951 1.55758-.62151 3.5598-.92578 5.53906-.60855 3.95854-1.12891 7.82227-1.12891 7.82227l.0625.008c-.6698.29007-1.38696.60214-2.19922.96875-1.02715.46361-2.07955.9546-2.9375 1.38867-.85795.43408-1.51052.79435-1.78516 1.06055-.50789.49231-.95954 1.38941-1.29687 2.25586-.16867.43322-.30705.85778-.40234 1.21875-.0953.36097-.14948.65183-.14453.84961.01.39213.27753.64901.52148.79492.24395.14591.48437.19922.48437.19922l.006.002h.004s.20576.0132.24023.0176c.001.0197.0525.71791.13086 1.53906.0795.83263.18129 1.7622.28711 2.20313.0439.18279.13901.85521.24219 1.75.10319.89479.21853 2.02512.31445 3.16992.005.0549.005.10133.01.15625-.0367.0208-.73856.42944-1 .57813-.10428-.0338-1.75455-.57202-2.61914-.73829-.23776-.0457-1.61886-.25671-3.63086-.56054-2.01201-.30384-4.63943-.69701-7.3164-1.09375-5.35396-.79349-10.90293-1.60243-12.14844-1.75391-.56929-.0692-.60961-.0985-1.1543-.17773-.01061-.0435-1.03165-4.22663-1.40625-7.92578-.37615-3.71449.0466-7.1542.2832-10.08789.11532-1.43001.94107-4.48789 1.6504-7.4375.35466-1.47481.68004-2.92687.87304-4.14649.17661-1.11606.20082-1.95056.0625-2.54687l.05612.0056Z"
                style="line-height:normal;font-variant-ligatures:normal;font-variant-position:normal;font-variant-caps:normal;font-variant-numeric:normal;font-variant-alternates:normal;font-feature-settings:normal;text-indent:0;text-align:start;text-decoration-line:none;text-decoration-style:solid;text-decoration-color:#000;text-transform:none;text-orientation:mixed;white-space:normal;shape-padding:0;isolation:auto;mix-blend-mode:normal;solid-color:#000;solid-opacity:1"
                color="#000" font-weight="400" font-family="sans-serif" overflow="visible" fill="#797979" stroke="#3d3d3d" stroke-width=".865"
                transform="translate(-1093.4092 -326.40587) scale(1.98602)" />
            <path d="m-930.73495-116.61897 64.63392 50.08186" fill="none" stroke="#3d3d3d" stroke-width="2.2649962294" />
            <path
                d="M78.94536 102.27148c.24263.14601.69032.39624 1.45117 1.00586.94226.75498 1.96484 1.77928 2.30274 2.79297.159.47701.1108 1.45199-.08008 2.65821s-.5151 2.65277-.86914 4.125c-.70809 2.94444-1.53534 5.9792-1.65625 7.47851-.23588 2.92493-.663 6.38423-.2832 10.13477.37256 3.67904 1.35816 7.71 1.39453 7.85937-1.63818-.2455-3.57227-.54883-3.57227-.54883h-.004c-.19551-.0293-.52722-.0205-1.0625.0332-.53527.0537-1.26928.15516-2.24219.31836-.04807.008-.17342.0366-.22265.0449-.03046-.0472-.26091-.40354-.55664-.92383-.31447-.55326-.6642-1.23386-.79883-1.70508-.12974-.45409-.09688-1.23291.03516-2.18359.13204-.95069.35747-2.07787.58203-3.25977.44623-2.34855 1.74268-7.32836 1.74414-7.33398l.002-.004 2.2207-7.37109v-.004s.49102-2.1922 1.00196-4.52539c.51094-2.33319 1.04052-4.79012 1.12695-5.38281.08837-.60596-.06676-1.37632-.25977-2.1543-.09416-.37954-.16116-.6942-.2539-1.05469z"
                style="line-height:normal;font-variant-ligatures:normal;font-variant-position:normal;font-variant-caps:normal;font-variant-numeric:normal;font-variant-alternates:normal;font-feature-settings:normal;text-indent:0;text-align:start;text-decoration-line:none;text-decoration-style:solid;text-decoration-color:#000;text-transform:none;text-orientation:mixed;white-space:normal;shape-padding:0;isolation:auto;mix-blend-mode:normal;solid-color:#000;solid-opacity:1"
                color="#000" font-weight="400" font-family="sans-serif" overflow="visible" fill="#6e6e6e" stroke="#000" stroke-width=".865"
                transform="translate(-1093.4092 -326.40587) scale(1.98602)" />
            <path d="m-854.71751-78.10665-44.00899 37.00693" fill="none" stroke="#3d3d3d" stroke-width="2.2649962294" />
            <path
                d="M123.85238 103.76449c-.26319.75562-.3838 1.81901-.53597 2.47574-.32405 1.39855-.92955 6.09645-1.45899 10.46875-.4855 4.00943-.83032 7.11501-.89648 7.70508-.0431-.1486-.068-.3056-.14453-.42578-.0592-.093-.14909-.13363-.25391-.16992-.10482-.0363-.22959-.0613-.37109-.082-.28302-.0414-.63089-.0611-.97461-.0664-.34372-.005-.68407.003-.94727.0156-.1316.006-.24278.014-.32812.0215a3.3265 3.3265 0 0 0-.10743.0117c-.0293.004-.0454.004-.082.0176-.02.007-.0493.0202-.11328.0469-.064.0267-.15336.064-.26562.11133-.22453.0947-.53959.22698-.91602.38867-.0983.0423-.25695.11425-.36328.16016.016-.11873.51089-3.80027 1.10937-7.69336.30403-1.97767.62982-3.97938.92383-5.53125.14701-.77593.28665-1.43949.41016-1.92969.0618-.2451.1199-.44725.17187-.5957.052-.14845.10778-.24764.11914-.25977.15688-.16733.54037-.45277 1.01368-.76757.47331-.31481 1.04069-.667 1.58593-.99414.92132-.5528 1.52533-.88801 1.76954-1.0254-.7301 2.42268-2.1609 6.73021-2.55665 9.5918-.43545 3.14862-.86914 8.46094-.86914 8.46094l.26368.0215s.43595-5.31309.86914-8.44531c.43023-3.11097 2.23118-8.3556 2.83593-10.50586.10855-.38593-.0656-.59913.0785-.97139z"
                style="line-height:normal;font-variant-ligatures:normal;font-variant-position:normal;font-variant-caps:normal;font-variant-numeric:normal;font-variant-alternates:normal;font-feature-settings:normal;text-indent:0;text-align:start;text-decoration-line:none;text-decoration-style:solid;text-decoration-color:#000;text-transform:none;text-orientation:mixed;white-space:normal;shape-padding:0;isolation:auto;mix-blend-mode:normal;solid-color:#000;solid-opacity:1"
                color="#000" font-weight="400" font-family="sans-serif" overflow="visible" fill="#6e6e6e" stroke="#000" stroke-width=".865"
                transform="translate(-1093.4092 -326.40587) scale(1.98602)" />
            <path
                d="m70.82813 118.3125.23437.90039v.004l.17383 1.04882c-.05785.001-.10099-.0115-.16797-.006-.1737.0146-.37257.0425-.56055.0742-.37596.0634-.71289.13868-.71289.13868-.0096.001-3.66353.56791-7.45117 1.18945-1.89632.31118-3.8226.63586-5.33984.91016-.75862.13714-1.41506.26112-1.91407.36523-.499.10411-.82634.18068-.98632.25-1.02326.44342-1.8717 1.5507-1.92774 1.62305l-2.14258-.0625c-.02206-.0179-.0943-.0743-.19336-.1836-.11291-.12459-.21936-.28938-.23047-.40039.00007.0006.006-.044.03126-.10351.02528-.0595.06628-.13726.11914-.22266.10569-.17081.25667-.37723.41992-.58594.3265-.41742.70215-.8419.86718-1.02343.14316-.15747.45286-.35915.80079-.53516.34792-.17601.7359-.33211 1.04492-.42969.6246-.19724 1.52539-.39844 1.52539-.39844zM71.33203 119.21875c.11115-.0164.63031-.11627 1.48242.23633.44199.18289 1.0622.72602 1.5547 1.22265.46698.47092.78436.8536.8203.89649l-.33593 1.11914v.002s-.10781.45635-.11915.5c-.13326-.12864-.68374-.66041-1.40039-1.33203-.3993-.37422-.80765-.75169-1.13671-1.04297-.16454-.14563-.30904-.27098-.42383-.36328-.0574-.0461-.10759-.0834-.1504-.11328-.04144-.0289-.06901-.0503-.11523-.0664z"
                style="line-height:normal;font-variant-ligatures:normal;font-variant-position:normal;font-variant-caps:normal;font-variant-numeric:normal;font-variant-alternates:normal;font-feature-settings:normal;text-indent:0;text-align:start;text-decoration-line:none;text-decoration-style:solid;text-decoration-color:#000;text-transform:none;text-orientation:mixed;white-space:normal;shape-padding:0;isolation:auto;mix-blend-mode:normal;solid-color:#000;solid-opacity:1"
                color="#000" font-weight="400" font-family="sans-serif" overflow="visible" fill="#373737" stroke="#000" stroke-width=".865"
                transform="translate(-1093.4092 -326.40587) scale(1.98602)" />
            <path d="m-932.05786-96.39725 64.63392 50.08187" fill="none" stroke="#3d3d3d" stroke-width="2.2649962294" />
            <path
                d="M119.21289 123.93555c.33698.005.67645.024.93945.0625.13151.0192.24491.0428.32422.0703.0793.0275.11792.0636.11719.0625.0971.15256.17611.43284.2207.66797.0446.23512.0606.42578.0606.42578l.002.0293 1.73438 2.88476 1.11914.20703c.007.003.0713.0322.15234.13477.0855.10814.1736.28227.16602.57031-.008.29224-.0944.47262-.17383.58203-.0717.0988-.11835.12103-.12891.12696l-1.13086.0625a72.24669 72.24669 0 0 1-.34179-.24219c-.19591-.13964-.41602-.30014-.44727-.32617-.0285-.0237-.17418-.17111-.31445-.33985-.14027-.16873-.28688-.3719-.35156-.51562-.0143-.0319-.0837-.18367-.10938-.24414v-.0254h-.0137c-.10136-.23919-.2209-.54119-.41797-.92383-.12733-.24723-.26521-.48469-.40625-.66406-.0705-.0897-.1405-.16426-.21875-.22071-.0782-.0564-.16994-.0972-.27148-.0859-.0565.006-.10527.0228-.17188.0488-.0666.0261-.1465.0615-.24023.10547-.18747.0879-.42854.20985-.70703.35742-.55699.29514-1.26375.69283-1.98438 1.11329-.72063.42045-1.45333.86442-2.0625 1.25585-.60917.39144-1.08869.72337-1.32422.94532-.46369.43693-.63799.99678-.8164 1.5-.17841.50322-.35593.94493-.80079 1.22461-.43001.27034-1.30734.34538-2.0625.33203-.75093-.0133-1.37575-.10059-1.38281-.10157-.004-.00092-.20146-.0459-.40234-.16601-.20289-.12136-.38568-.29818-.39258-.57422-.003-.13631.0425-.42586.13477-.77539.0923-.34953.22744-.76529.39257-1.18945.33028-.84832.78978-1.73122 1.23633-2.16407.20259-.19636.8669-.58269 1.71875-1.01367.85185-.43098 1.90263-.92208 2.92774-1.38476 1.0251-.46269 2.02364-.8978 2.77539-1.22071.37587-.16145.6901-.29421.91406-.38867a67.8223 67.8223 0 0 1 .26562-.11133c.0635-.0264.10876-.0461.10547-.0449-.0199.007.00071.001.0234-.002.0227-.003.0557-.006.0957-.01.08-.007.18948-.0154.31836-.0215.25777-.0121.59271-.0188.92969-.0137z"
                style="line-height:normal;font-variant-ligatures:normal;font-variant-position:normal;font-variant-caps:normal;font-variant-numeric:normal;font-variant-alternates:normal;font-feature-settings:normal;text-indent:0;text-align:start;text-decoration-line:none;text-decoration-style:solid;text-decoration-color:#000;text-transform:none;text-orientation:mixed;white-space:normal;shape-padding:0;isolation:auto;mix-blend-mode:normal;solid-color:#000;solid-opacity:1"
                color="#000" font-weight="400" font-family="sans-serif" overflow="visible" fill="#545454" stroke="#000" stroke-width=".865"
                transform="translate(-1093.4092 -326.40587) scale(1.98602)" />
            <path
                d="m50.61719 125.03125 1.40039.041c-.05138.0885-.1119.15941-.20313.51171-.12505.48298-.22962 1.24413-.1621 2.375.06918 1.15902.7145 3.41204 1.3418 5.39844.62728 1.98641 1.23632 3.69336 1.23632 3.69336l.01172-.004c-.20715.17993-.50236.337-.66797.52539-.11335.12893-.21893.44023-.33398.59375-.09979-.21764-1.287-2.80245-1.59961-3.67774-.3247-.90914-1.4961-5.15941-1.4961-6.80273 0-1.61834.44034-2.58135.47266-2.6543z"
                style="line-height:normal;font-variant-ligatures:normal;font-variant-position:normal;font-variant-caps:normal;font-variant-numeric:normal;font-variant-alternates:normal;font-feature-settings:normal;text-indent:0;text-align:start;text-decoration-line:none;text-decoration-style:solid;text-decoration-color:#000;text-transform:none;text-orientation:mixed;white-space:normal;shape-padding:0;isolation:auto;mix-blend-mode:normal;solid-color:#000;solid-opacity:1"
                color="#000" font-weight="400" font-family="sans-serif" overflow="visible" fill="#373737" stroke="#000" stroke-width=".865"
                transform="translate(-1093.4092 -326.40587) scale(1.98602)" />
            <path
                d="M119.75195 126.49609c.0112-.001.0389.003.0859.0371.047.0339.10694.0943.16797.17188.12205.15523.25371.38181.37695.62109.1834.3561.29612.63341.40039.87891-.003.0789-.0767 1.88709-.13281 3.98828-.0574 2.14645-.0958 4.49755-.01 5.39258.0804.83599-.0424 2.92525-.18945 4.80078-.0735.93776-.15251 1.82561-.21289 2.48828-.0302.33134-.0562.60599-.0742.80273-.009.0984-.0166.17756-.0215.23438-.005.0568-.008.0744-.008.10937 0 .01-.01.093-.0254.19532-.0157.10234-.0363.23418-.0586.38281-.00044.003-.002.007-.002.01l-1.31445.0781c.001-.21722.0356-6.18062.13281-7.73633.10014-1.60236.72964-12.35293.73242-12.40039.0143-.006.0362-.0166.0488-.0215.058-.0227.10361-.0332.10351-.0332zM119.32812 126.67773c-.0169.28828-.62785 10.67837-.72656 12.25782-.099 1.58429-.12736 7.41552-.1289 7.70312l-.18555-.0488c-.0102-.11561-.16049-1.8419-.32422-2.82422-.0838-.50301-.20035-1.14834-.46484-1.7207-.2645-.57235-.68858-1.07871-1.36914-1.25781-.13839-.0364-.34048.0398-.50391.0469-.002-.0274-.21072-2.7723-.32812-5.49609-.11581-2.68617.019-6.25998.0234-6.37891.46605-.28886.93097-.57897 1.43164-.87109.71804-.41894 1.42428-.81478 1.97657-1.10742.23806-.12615.43038-.22126.5996-.30274zM115.05469 129.12109c-.0109.29839-.13499 3.59568-.0215 6.22852.11771 2.73069.32619 5.48237.32813 5.50781-.19084.0281-.34378-.009-.55274.0508-.49911.14398-1.03657.36422-1.5332.59571-.88789.41384-1.48178.77506-1.63281.86523-.0416-1.1285-.0954-2.39862-.16016-3.67187-.14473-2.84453-.30859-5.49805-.30859-5.49805l-.26367.0156s.16199 2.65326.30664 5.4961c.0723 1.42142.14071 2.89085.18164 4.09765.0409 1.20681.0527 2.16133.0195 2.51563-.0327.34869-.22616 1.07924-.49805 1.95117-.27189.87193-.62119 1.89483-.9668 2.87109-.6912 1.95254-1.36523 3.7168-1.36523 3.7168l-.0391.10352.0937.0566s.18184.11151.35351.27539c.17168.16387.30961.37183.28711.52929-.0363.25416-.0289.58069-.0625.84961-.0168.13447-.0449.25144-.084.33008-.0391.0786-.0768.11406-.13867.12891-.0206.005-.10584.0113-.2168.004-.11096-.007-.25203-.0245-.41016-.0469-.31625-.0448-.70263-.11467-1.07617-.1875-.66425-.12952-1.15304-.24214-1.2832-.27148.0644-.13693.80652-1.71045 1.66016-3.58204.44495-.97556.90171-1.99361 1.27343-2.85156.37173-.85795.6562-1.54865.76172-1.90039.11456-.38184.12596-1.1289.0977-2.0918-.0283-.96289-.105-2.12557-.20117-3.27343-.0962-1.14787-.21093-2.27995-.31446-3.17774-.10353-.89779-.19169-1.54838-.24804-1.7832-.0946-.39429-.20206-1.33655-.28125-2.16602-.0761-.79712-.12294-1.44069-.12696-1.49414.25516.0279.41855.0596.91602.0684.77322.0137 1.66792-.0361 2.20703-.375.52426-.32959.72949-.84783.91016-1.35742.18066-.50959.34115-1.01491.74609-1.39648.19878-.18732.6826-.52757 1.28711-.91602.10472-.0673.24387-.14664.35547-.2168z"
                style="line-height:normal;font-variant-ligatures:normal;font-variant-position:normal;font-variant-caps:normal;font-variant-numeric:normal;font-variant-alternates:normal;font-feature-settings:normal;text-indent:0;text-align:start;text-decoration-line:none;text-decoration-style:solid;text-decoration-color:#000;text-transform:none;text-orientation:mixed;white-space:normal;shape-padding:0;isolation:auto;mix-blend-mode:normal;solid-color:#000;solid-opacity:1"
                color="#000" font-weight="400" font-family="sans-serif" overflow="visible" fill="#545454" stroke="#000" stroke-width=".865"
                transform="translate(-1093.4092 -326.40587) scale(1.98602)" />
            <path
                d="M64.11523 133.89453c1.74904-.0116 3.7819.66517 5.3711 1.34961 1.58148.68112 2.70966 1.35862 2.7207 1.36524l1.57422 1.63085c-1.93769.33552-4.55262.84902-8.4629 1.74415-8.332 1.90732-12.09187 4.11598-13.55077 5.26953-.74114.58601-1.4284 1.5215-1.9375 2.3125-.3633.56445-.47198.79172-.59766 1.02734.05492-.49985.12179-1.16085.22461-1.79492.03022-.18633.20133-.74173.4668-1.4668.26546-.72507.62581-1.63383 1.04101-2.58203.83041-1.89639 1.88495-3.95548 2.80664-5.00391.91845-1.04473 2.62378-2.01091 4.53907-2.70898 1.91529-.69807 4.04202-1.13092 5.80468-1.14258z"
                style="line-height:normal;font-variant-ligatures:normal;font-variant-position:normal;font-variant-caps:normal;font-variant-numeric:normal;font-variant-alternates:normal;font-feature-settings:normal;text-indent:0;text-align:start;text-decoration-line:none;text-decoration-style:solid;text-decoration-color:#000;text-transform:none;text-orientation:mixed;white-space:normal;shape-padding:0;isolation:auto;mix-blend-mode:normal;solid-color:#000;solid-opacity:1"
                color="#000" font-weight="400" font-family="sans-serif" overflow="visible" fill="#282a29" stroke="#000" stroke-width=".865"
                transform="translate(-1093.4092 -326.40587) scale(1.98602)" />
            <path
                d="M77.58398 138.03711s2.54175.46819 5.01954.76953c1.22672.1492 6.78708.96048 12.14062 1.75391 2.67677.39671 5.3028.78996 7.31445 1.09375 2.01166.30378 3.42454.52079 3.6211.55859.74422.14312 2.00204.55248 2.35156.66406-1.12212.63928-2.51531 1.42457-3.56445 2.06836-.74051.45441-2.76932 1.7727-4.73047 3.14844-.98058.68787-1.94425 1.38893-2.7207 2.00391-.77646.61497-1.36045 1.1312-1.60938 1.5-.9051 1.34088-2.24342 4.24577-2.2832 4.33203-.29554-.077-15.58644-4.06081-23.68555-4.92383-8.06127-.85898-19.87895-1.95524-20.1504-1.98047.04217-.0822.29997-.5929.76563-1.31641.50152-.77921 1.18347-1.69816 1.87891-2.24804 1.41424-1.11824 5.1398-3.31749 13.44531-5.21875 4.15767-.95176 7.05424-1.52844 8.9922-1.85352.96897-.16254 1.6981-.26165 2.2246-.31445.5265-.0528.85557-.0559.99414-.0352z"
                style="line-height:normal;font-variant-ligatures:normal;font-variant-position:normal;font-variant-caps:normal;font-variant-numeric:normal;font-variant-alternates:normal;font-feature-settings:normal;text-indent:0;text-align:start;text-decoration-line:none;text-decoration-style:solid;text-decoration-color:#000;text-transform:none;text-orientation:mixed;white-space:normal;shape-padding:0;isolation:auto;mix-blend-mode:normal;solid-color:#000;solid-opacity:1"
                color="#000" font-weight="400" font-family="sans-serif" overflow="visible" fill="#3c3c3c" stroke="#000" stroke-width=".865"
                transform="translate(-1093.4092 -326.40587) scale(1.98602)" />
            <path
                d="M116.0625 141.04297c.58897.15499.95033.58315 1.19531 1.11328.24499.53013.36016 1.1531.44336 1.65234.16494.98957.33399 2.89649.33399 2.89649l.008.0937.42578.11328v.0566l1.55273-.0918c-.0314.23654-.0674.47704-.0762.72266-.012.3364-.00064.59137-.0703.83789-.0697.24652-.21856.49957-.57422.84375-.0679.0657-.29503.22309-.61523.41797-.32021.19488-.73905.43731-1.22266.70703-.96723.53944-2.19077 1.19256-3.39062 1.82422-2.36493 1.245-4.57512 2.36899-4.64063 2.40234-.0611-.19211-.11632-.39592-.25195-.52539-.15266-.14572-.24886-.20223-.31055-.24219.032-.0839.65851-1.72276 1.33398-3.63085.34627-.97813.69712-2.00351.97071-2.88086.27358-.87735.46963-1.59665.50781-2.00391.0377-.40165.0215-1.34134-.0195-2.55078-.001-.0409-.004-.0972-.006-.13867.0607-.0366.79078-.47803 1.73047-.91602.48892-.22789 1.01605-.44412 1.49414-.58203.47809-.13791.90942-.19078 1.18164-.11914z"
                style="line-height:normal;font-variant-ligatures:normal;font-variant-position:normal;font-variant-caps:normal;font-variant-numeric:normal;font-variant-alternates:normal;font-feature-settings:normal;text-indent:0;text-align:start;text-decoration-line:none;text-decoration-style:solid;text-decoration-color:#000;text-transform:none;text-orientation:mixed;white-space:normal;shape-padding:0;isolation:auto;mix-blend-mode:normal;solid-color:#000;solid-opacity:1"
                color="#000" font-weight="400" font-family="sans-serif" overflow="visible" fill="#282a29" stroke="#000" stroke-width=".865"
                transform="translate(-1093.4092 -326.40587) scale(1.98602)" />
            <path
                d="M109.36719 142.40625c.0356.45207.0535.85329.0801 1.28711-.0584.0374-.88366.565-1.92383 1.2793-1.07627.73908-2.3125 1.6279-2.97852 2.25976-1.30619 1.23921-6.4272 6.22146-8.2168 8.48828-1.64305 2.0812-2.89387 5.24399-3.11718 5.81836-.08501-.34035-.31245-1.13972-.33203-2.43164-.0232-1.53118.4414-2.98047.4414-2.98047l-.0625-.0195.0078-.0332.06445.0293s1.40935-3.04546 2.29492-4.35743c.20209-.29938.7869-.83174 1.55664-1.4414.76975-.60966 1.72903-1.30808 2.70704-1.99414 1.956-1.37213 3.98731-2.69299 4.71679-3.14063 1.39246-.85446 4.44617-2.58488 4.76172-2.76367z"
                style="line-height:normal;font-variant-ligatures:normal;font-variant-position:normal;font-variant-caps:normal;font-variant-numeric:normal;font-variant-alternates:normal;font-feature-settings:normal;text-indent:0;text-align:start;text-decoration-line:none;text-decoration-style:solid;text-decoration-color:#000;text-transform:none;text-orientation:mixed;white-space:normal;shape-padding:0;isolation:auto;mix-blend-mode:normal;solid-color:#000;solid-opacity:1"
                color="#000" font-weight="400" font-family="sans-serif" overflow="visible" fill="#3c3c3c" stroke="#000" stroke-width=".86505"
                stroke-linecap="round" transform="translate(-1093.4092 -326.40587) scale(1.98602)" />
            <path
                d="M109.46489 143.99805c.0226.40293.0657.86169.0762 1.21875.0281.95497-.002 1.72148-.0879 2.00781-.0949.31643-.37942 1.01775-.75 1.87305-.37057.85529-.82888 1.87103-1.27343 2.8457-.8891 1.94934-1.72657 3.73242-1.72657 3.73242l-.0703.14844.16016.0352s.69904.15998 1.45117.30664c.0242.005.046.007.0703.0117-.2487.1214-3.13022 1.52183-6.03906 3.33985-2.97998 1.86248-7.11418 2.54835-7.14062 2.55273l-.8086-.1289c.0482-.12586 1.49023-3.87956 3.20899-6.05664 1.75393-2.22166 6.89171-7.22595 8.1914-8.45899.63692-.60426 1.87492-1.49994 2.94727-2.23633.96889-.66534 1.63869-1.09351 1.79101-1.1914z"
                style="line-height:normal;font-variant-ligatures:normal;font-variant-position:normal;font-variant-caps:normal;font-variant-numeric:normal;font-variant-alternates:normal;font-feature-settings:normal;text-indent:0;text-align:start;text-decoration-line:none;text-decoration-style:solid;text-decoration-color:#000;text-transform:none;text-orientation:mixed;white-space:normal;shape-padding:0;isolation:auto;mix-blend-mode:normal;solid-color:#000;solid-opacity:1"
                color="#000" font-weight="400" font-family="sans-serif" overflow="visible" fill="#282a29" stroke="#000" stroke-width=".865"
                transform="translate(-1093.4092 -326.40587) scale(1.98602)" />
            <path
                d="M49.14653 149.27734c.13703.0127 12.15983 1.12867 20.26368 1.99219 8.04365.85712 23.3244 4.83275 23.63671 4.91406-.0395.12518-.45655 1.41246-.43359 2.92774.02244 1.48045.33869 2.61932.38086 2.77734l-2.99023-.47656-10.20118-1.88867-15.16601-3.07227h-.002s-10.95081-2.10025-11.74219-2.24414c-.41235-.075-.95977-.0663-1.4336-.0273-.2369.0195-.45516.0472-.62695.0781-.08589.0155-.1591.0316-.2207.0488-.0616.0173-.1077.0284-.1582.0645.0157-.0112.01748-.005-.002-.006-.01944-.001-.05343-.009-.0957-.0234-.08454-.0292-.19877-.0856-.31836-.16016-.23919-.14914-.50434-.3697-.6543-.5625-.02096-.0269-.06114-.11243-.09766-.22852-.03652-.11608-.07295-.26571-.10742-.43554-.06895-.33966-.13172-.76077-.18164-1.1836-.04992-.42282-.08666-.84655-.10938-1.18945-.0227-.3429-.028-.61907-.01953-.69531.04244-.38194.24024-.55274.24024-.55274l.0371-.0351z"
                style="line-height:normal;font-variant-ligatures:normal;font-variant-position:normal;font-variant-caps:normal;font-variant-numeric:normal;font-variant-alternates:normal;font-feature-settings:normal;text-indent:0;text-align:start;text-decoration-line:none;text-decoration-style:solid;text-decoration-color:#000;text-transform:none;text-orientation:mixed;white-space:normal;shape-padding:0;isolation:auto;mix-blend-mode:normal;solid-color:#000;solid-opacity:1"
                color="#000" font-weight="400" font-family="sans-serif" overflow="visible" fill="#656565" stroke="#000" stroke-width=".865"
                transform="translate(-1093.4092 -326.40587) scale(1.98602)" />
            <path
                d="m79.17193 159.66602.58007.11718 5.69532 1.05469-.28125 3.92773c-.07064.0213-.53347.16164-1.20704.32422-.72259.17442-1.59819.34766-2.17382.34766-.55971 0-1.28665-.27461-1.86329-.55469-.53984-.26221-.89136-.49109-.9414-.52343zM85.70903 160.88672l.66407.12305-.03906.94531-.70118.0117zM86.63482 161.05859l2.43554.45118.05273.58593c-.06363.0472-.16112.12533-.39062.25196-.29023.16012-.66412.31445-.9707.31445-.3051 0-.6572-.15742-.92579-.32227-.14539-.0892-.16422-.11497-.24414-.17773z"
                style="line-height:normal;font-variant-ligatures:normal;font-variant-position:normal;font-variant-caps:normal;font-variant-numeric:normal;font-variant-alternates:normal;font-feature-settings:normal;text-indent:0;text-align:start;text-decoration-line:none;text-decoration-style:solid;text-decoration-color:#000;text-transform:none;text-orientation:mixed;white-space:normal;shape-padding:0;isolation:auto;mix-blend-mode:normal;solid-color:#000;solid-opacity:1"
                color="#000" font-weight="400" font-family="sans-serif" overflow="visible" fill="#545454" stroke="#000" stroke-width=".865"
                transform="translate(-1093.4092 -326.40587) scale(1.98602)" />
            <path
                d="M89.36138 162.20117c.07682.0164.14147.0276.28906.0703.1087.0315.21955.0698.30273.10743.07912.0358-.69489-.036-.6976-.0457.00052.006.81424.12398.8148.13158.0024.0317.0056.0798.0078.14063.0044.12171.0085.29585.01171.51562.0064.43954.0095 1.05769.01172 1.79493.0044 1.47446.002 3.42428-.0039 5.36718-.0117 3.85152-.03475 7.61244-.03516 7.67969-.05674.0525-.9365.85742-2.27734.85742-1.33903 0-2.62366-.67749-2.72656-.73242l.09375-13.04492c.0202-.006.17773-.0469.17773-.0469l.08789-.0273.19531-2.73633.61524-.01c.01499.0133.19258.1711.4707.34179.28951.17769.6707.36328 1.0625.36328.3903 0 .78844-.17705 1.09766-.34765.30921-.1706.53125-.3418.53125-.3418zM106.35161 170.75391c.0268.005.12958.0196.27149.0586.0797.0219.16253.0493.22851.0781.0614.0269.0995.0567.11133.0684.001.007.002.0122.004.0234.006.0359.0107.0906.0156.1582.01.13514.0168.32297.0215.54493.009.44391.01 1.02409.006 1.59765-.008 1.10869-.0297 2.12548-.0312 2.19727l-2.82227 1.57031-.72852-.26367-6.1953 2.75977.04101.0937-5.89648-.88476-1.05078-.70898v-.0137s.0034-.74774.0039-.83203zM65.34966 171.30664c.16068.0395.2832.10742.2832.10742l.0098.006 19.15235 6.51953v.0996l-.99415.76953-6.8418 1.18164.0098-.0312-12.32226-3.84375-.06836-4.27539c-.00006-.001-.01145-.25293.29883-.48046.13113-.0961.31197-.0923.47266-.0527zM106.91997 175.81641l-.0293.0859 1.09961.36524c-.0892.0467-.10222.0482-.21875.11719-.27776.16454-.58955.36772-.74804.60546-.14481.21722-.40612.73895-.5918 1.35938-.12126.40517-.0663.82887-.0547 1.25l-.15625-.10742s-.20398.30139-.41992.69726c-.0791.14501-.29882.29112-.53906.38086-.24025.0897-.50556.12398-.61328.10742-.13151-.0202-.23446-.0617-.3711-.2207-.13663-.15897-.29616-.44269-.48242-.92578-.1718-.44562-.106-1.02262.0117-1.48633.10861-.4278.23569-.69632.25781-.74414l.11524.041z"
                style="line-height:normal;font-variant-ligatures:normal;font-variant-position:normal;font-variant-caps:normal;font-variant-numeric:normal;font-variant-alternates:normal;font-feature-settings:normal;text-indent:0;text-align:start;text-decoration-line:none;text-decoration-style:solid;text-decoration-color:#000;text-transform:none;text-orientation:mixed;white-space:normal;shape-padding:0;isolation:auto;mix-blend-mode:normal;solid-color:#000;solid-opacity:1"
                color="#000" font-weight="400" font-family="sans-serif" overflow="visible" fill="#545454" stroke="#000" stroke-width=".865"
                transform="translate(-1093.4092 -326.40587) scale(1.98602)" />
            <path
                d="M108.38286 176.35547c.006-.001.20308-.0524.41211.14453.21199.19974.44251.69587.34375 1.88672-.0987 1.19064-.42059 1.79148-.70117 2.09375-.14029.15113-.27205.22841-.36523.26953-.0932.0411-.13672.0449-.13672.0449h-.0156l-.0137.006s-.24656.0787-.5332.0391c-.28665-.0396-.59777-.17821-.77735-.66796-.17708-.48296-.0877-1.15287.0899-1.7461.17753-.59323.44159-1.11649.55664-1.28906.10136-.15204.39848-.36807.66406-.52539.25331-.15006.45635-.24631.47656-.25586zM63.1856 176.79297c.0713.0253 1.72851.6238 1.72851 2.57422 0 1.02358-.14538 1.55558-.32812 1.82422-.18275.26863-.39974.31056-.66211.35156-.08558.0134-.23165-.0217-.39844-.11719-.16679-.0955-.35213-.24632-.5293-.4375-.35432-.38235-.67258-.92477-.77539-1.49414-.21565-1.19437-.16857-1.52981.0098-2 .06981-.18405.31544-.38007.55274-.51367.21074-.11865.36163-.17258.40234-.1875zM90.23443 178.16211l-.06642.0977.88282.5957-.4082 5.11719-.03517.0273s-.23944.19257-.45898.41211c-.07849.0785-.2922.20316-.47656.29492-.13389.0666-.19223.0912-.24805.11524l-.5332-4.87696-.07227-.0312s-.16618-.0701-.38477-.12695c-.21859-.0568-.49114-.10769-.73437-.0469-.22646.0566-.50307.19324-.73243.31641-.22935.12317-.4082.23438-.4082.23438l-.0703.043.4785 4.60547c-.08282.003-.21683.0108-.48437.004-.33765-.009-.7422-.0419-.97265-.11524-.3959-.12596-.60174-.40226-.68555-.50195l.19336-5.96875c.21505.11388 1.40618.72852 2.76758.72852 1.44228 0 2.37872-.8584 2.44922-.92383zM84.75 178.4082l-.0293.94336-.7246.58789-32.5879 5.74414-.75781-.87695 33.25976-5.74805zM91.30273 179.01367l34.04883 5.10742-.17968 4.92188-.2461.0332.37305-4.44922-.12305-.0176s-8.29133-1.14507-16.70117-2.32032c-4.20492-.58762-8.43956-1.18169-11.68164-1.64453-1.62104-.23142-2.99528-.43027-3.99219-.57812-.49845-.0739-.90317-.13522-1.19726-.18164-.20378-.0322-.27575-.048-.36524-.0645z"
                style="line-height:normal;font-variant-ligatures:normal;font-variant-position:normal;font-variant-caps:normal;font-variant-numeric:normal;font-variant-alternates:normal;font-feature-settings:normal;text-indent:0;text-align:start;text-decoration-line:none;text-decoration-style:solid;text-decoration-color:#000;text-transform:none;text-orientation:mixed;white-space:normal;shape-padding:0;isolation:auto;mix-blend-mode:normal;solid-color:#000;solid-opacity:1"
                color="#000" font-weight="400" font-family="sans-serif" overflow="visible" fill="#545454" stroke="#000" stroke-width=".865"
                transform="translate(-1093.4092 -326.40587) scale(1.98602)" />
            <path
                d="m84.70898 179.70117-.14648 4.5-33.29492 6.08789-.65625-.31445-.06055-4.87891.75586.875 32.80273-5.7832zM87.76367 179.99805c.15767-.0394.40255-.007.60156.0449.15895.0413.23422.0739.2793.0918l1.57617 14.41406c-.15183-.0604-.44576-.2053-.8711-.14453-.43352.0619-.9467.24379-1.10155.29687l-1.47852-14.22461c.04716-.0287.14002-.0877.32227-.18554.22166-.11905.49742-.24936.67187-.29297zM91.2168 180.08595c.09686.0175.1595.0311.3457.0605.29557.0467.70032.10765 1.19922.18164.9978.148 2.37285.34668 3.99414.57813 3.24258.46291 7.47659 1.05689 11.68164 1.64453 8.34811 1.16663 16.45722 2.28798 16.57812 2.30469l-.38281 4.52734.66797-.0898c.009.0005.52524.0289 1.12891.2168.6089.18956 1.28042.5374 1.58593 1.14843.58146 1.16285.0944 2.27689.0137 2.45313l-.30078-.13477c-.0172-.0653-.13236-.54082-.55274-1.08789-.44836-.58349-1.21582-1.18355-2.4375-1.23242-1.21394-.0486-1.92455.3851-2.31445.83789-.35616.4136-.41388.776-.42774.84766l-.49414.27148.25196-3.875-30.84961-4.73633z"
                style="line-height:normal;font-variant-ligatures:normal;font-variant-position:normal;font-variant-caps:normal;font-variant-numeric:normal;font-variant-alternates:normal;font-feature-settings:normal;text-indent:0;text-align:start;text-decoration-line:none;text-decoration-style:solid;text-decoration-color:#000;text-transform:none;text-orientation:mixed;white-space:normal;shape-padding:0;isolation:auto;mix-blend-mode:normal;solid-color:#000;solid-opacity:1"
                color="#000" font-weight="400" font-family="sans-serif" overflow="visible" fill="#545454" stroke="#000" stroke-width=".865"
                transform="translate(-1093.4092 -326.40587) scale(1.98602)" />
            <path
                d="m53.72656 190.10743.42774.42774-.04297 2.79101-.19922-.0879c-.0664-.13334-.31712-.66193-.75586-1.14453-.2659-.29249-.66778-.44209-1.1543-.48828-.48651-.0462-1.06499.009-1.71093.14062-.70898.14443-1.35823.84986-1.85547 1.50586-.42586.56182-.63362.95115-.7129 1.09375l-.48046-.77343c.0047-.0598.11078-1.35164.86718-2.375.739-.99981 2.29802-1.00385 2.3457-1.00391l.7754.37109zM124.72656 190.91993c1.14067.0456 1.82634.59223 2.24024 1.13086.41389.53863.54297 1.06055.54297 1.06055v.002c-.004.0402-.06.74317-.45313 1.46484-.40419.74202-1.12247 1.45152-2.50195 1.37891-.68699-.0361-1.16189-.26888-1.50391-.59765-.34202-.32878-.55177-.7589-.67578-1.19141-.24718-.8621-.15298-1.71105-.15234-1.7168.002-.0114.063-.39332.40039-.78515.34242-.39766.9551-.79204 2.10351-.7461z"
                style="line-height:normal;font-variant-ligatures:normal;font-variant-position:normal;font-variant-caps:normal;font-variant-numeric:normal;font-variant-alternates:normal;font-feature-settings:normal;text-indent:0;text-align:start;text-decoration-line:none;text-decoration-style:solid;text-decoration-color:#000;text-transform:none;text-orientation:mixed;white-space:normal;shape-padding:0;isolation:auto;mix-blend-mode:normal;solid-color:#000;solid-opacity:1"
                color="#000" font-weight="400" font-family="sans-serif" overflow="visible" fill="#545454" stroke="#000" stroke-width=".865"
                transform="translate(-1093.4092 -326.40587) scale(1.98602)" />
            <path
                d="M51.97656 191.86915c.44662.0424.7778.17511.98438.40234.40316.44347.65045.95465.7168 1.08594-.0043.06-.0573.80703-.11329 1.27735-.02878.24171-.0585.3672-.1289.52734-.07041.16014-.18513.35884-.375.71484-.34233.64187-1.10933.74189-1.47461.83008-.36152.0873-1.01899.33659-1.97266-.31055-.45177-.30656-.78192-.94927-.98437-1.51757-.19612-.55054-.27044-.99051-.2754-1.01953.12567-.19501.11848-.21901.29297-.44922.48314-.63739 1.13057-1.28886 1.69727-1.4043.62972-.12828 1.1862-.17912 1.63281-.13672zM89.38672 194.66603c.38513-.055.81416.1248.87305.14843l.10937 4.5c-.02222.0278-.42343.54149-1.14453.60157-.6988.0582-1.03556-.47495-1.06055-.51563l.0625-4.41992c.06018-.0205.73965-.2544 1.16016-.31445z"
                style="line-height:normal;font-variant-ligatures:normal;font-variant-position:normal;font-variant-caps:normal;font-variant-numeric:normal;font-variant-alternates:normal;font-feature-settings:normal;text-indent:0;text-align:start;text-decoration-line:none;text-decoration-style:solid;text-decoration-color:#000;text-transform:none;text-orientation:mixed;white-space:normal;shape-padding:0;isolation:auto;mix-blend-mode:normal;solid-color:#000;solid-opacity:1"
                color="#000" font-weight="400" font-family="sans-serif" overflow="visible" fill="#545454" stroke="#000" stroke-width=".865"
                transform="translate(-1093.4092 -326.40587) scale(1.98602)" />
            <path
                d="m90.56445 199.50196.54297.36328.11719 1.28125.57031.59375c.0058.0258.22884 1.01247.25195 2.42188.02242 1.36725-.47 2.72228-.49804 2.80078l-.71094.0352-.09375-1.64453-3.02539-.0781.07031 1.8125-1-.22656c-.02476-.11509-.48486-2.24268-.57422-3.04688-.0419-.37712.11412-1.01422.28906-1.53906.159-.477.30067-.79022.33008-.85742l.56446.0508v-1.63672l.59765-.23047c.09345.13494.47576.64264 1.25.57813.80939-.0674 1.26057-.60674 1.31836-.67774z"
                style="line-height:normal;font-variant-ligatures:normal;font-variant-position:normal;font-variant-caps:normal;font-variant-numeric:normal;font-variant-alternates:normal;font-feature-settings:normal;text-indent:0;text-align:start;text-decoration-line:none;text-decoration-style:solid;text-decoration-color:#000;text-transform:none;text-orientation:mixed;white-space:normal;shape-padding:0;isolation:auto;mix-blend-mode:normal;solid-color:#000;solid-opacity:1"
                color="#000" font-weight="400" font-family="sans-serif" overflow="visible" fill="#545454" stroke="#000" stroke-width=".865"
                transform="translate(-1093.4092 -326.40587) scale(1.98602)" />
            <path
                d="m-968.04021 24.71371 3.01894-1.49289 6.90044 2.32227s.5308 3.98102.36492 4.97628c-.16587.99525-.82938 2.42177-2.22273 2.654-1.39336.23222-2.42179-.72985-2.42179-.72985l-.72985.0995s-.06636 1.42654-.7962 1.55925c-.72986.13266-2.25592.13266-2.25592.13266s2.05686-.56399 1.75828-4.4123c-.29857-3.84833-3.6161-5.10898-3.6161-5.10898z"
                fill="#545454" stroke="#000" stroke-width="1.7179072999999998" />
            <path
                d="m-923.5534-157.6294 64.63392 50.08186M-926.5772-135.89576l64.6339 50.08186M-935.08167-75.79754l39.4985 29.86013M-898.98495-159.51928l41.95535 34.39585M-877.06233-160.8422l20.59968 17.38694M-857.21859-142.32136l-76.72916 66.7128M-856.08465-168.21273l-75.21726 65.95686M-857.78556-119.8318l-74.65028 65.38992M-888.96859-158.57434l-38.93154 32.69495M-911.45817-164.24398l-13.41815 11.3393M-860.99834-92.80648l-52.16072 44.22322"
                fill="none" stroke="#3d3d3d" stroke-width="2.2649962294" />
        </g>
        <image transform="matrix(.60721 0 0 .60721 -558.8269 73.1509)" clip-path="url(#gamechairclippath)" width="179.26129" height="179.26129"
            preserveAspectRatio="none" xlink:href="C:\Users\Extreme PC\strongseal.png" x="-705.24927" y="-351.66159" />
    </g>
</svg>