<svg xmlns="http://www.w3.org/2000/svg" xmlns:xlink="http://www.w3.org/1999/xlink" width="1153.6797" height="868.45281"
    viewBox="0 0 305.24442 229.77814">
    <defs>
        <linearGradient id="a">
            <stop offset="0" stop-color="#c4c4c4" />
            <stop offset="1" stop-color="#595959" />
        </linearGradient>
        <linearGradient id="b">
            <stop offset="0" stop-color="#7a7a7a" />
            <stop offset="1" stop-color="#7a7a7a" stop-opacity="0" />
        </linearGradient>
        <linearGradient id="c">
            <stop offset="0" stop-color="#101010" />
            <stop offset=".5" stop-color="#989898" />
            <stop offset="1" stop-color="#221f1f" />
        </linearGradient>
        <linearGradient id="d">
            <stop offset="0" stop-color="#858585" />
            <stop offset="1" stop-color="#282828" />
        </linearGradient>
        <linearGradient id="e">
            <stop offset="0" stop-color="#3e3e3e" />
            <stop offset="1" />
        </linearGradient>
        <linearGradient id="f">
            <stop offset="0" stop-color="#dadada" />
            <stop offset="1" stop-color="#636363" />
        </linearGradient>
        <linearGradient id="g">
            <stop offset="0" stop-color="#888" />
            <stop offset="1" stop-color="#888" stop-opacity="0" />
        </linearGradient>
        <linearGradient id="h">
            <stop offset="0" stop-color="#121212" />
            <stop offset=".5" stop-color="#a9a9a9" />
            <stop offset="1" stop-color="#262222" />
        </linearGradient>
        <linearGradient id="i">
            <stop offset="0" stop-color="#949494" />
            <stop offset="1" stop-color="#2c2c2c" />
        </linearGradient>
        <linearGradient id="j">
            <stop offset="0" stop-color="#454545" />
            <stop offset="1" stop-color="#0a0a0a" />
        </linearGradient>
        <linearGradient id="k">
            <stop offset="0" stop-color="#4d4d4d" />
            <stop offset="1" stop-color="#0b0b0b" />
        </linearGradient>
        <clipPath clipPathUnits="userSpaceOnUse" id="greycouchclippath">
            <circle cx="-615.61865" cy="-262.03094" r="87.56895" fill="#473e81" stroke="#1a191e" stroke-width=".86209" stroke-linecap="round" />
        </clipPath>
    </defs>
    <g transform="translate(777.25408 292.14653)">
        <g color="#000" font-weight="400" font-family="sans-serif" stroke="#000" stroke-width=".865">
            <path
                d="M173.11719-215.00781c.0369.0648.4467.78045.94922 1.76953.52459 1.03254 1.10816 2.28485 1.33593 3.13086.11092.41196.57755 2.60401 1.20704 5.62304.62948 3.01904 1.42611 6.88094 2.20703 10.68946 1.56182 7.61703 3.06445 15.01758 3.06445 15.01758l.002.0117.006.0117s.59897 1.48453 1.17383 3.17579c.28743.84562.56977 1.74276.76562 2.52929.19586.78654.30114 1.46839.25586 1.84571-.0648.53991-.60575 1.77646-1.2871 2.47656-1.23815 1.2722-2.91901 2.00198-2.95508 2.01758-.063-.004-4.682-.26163-8.89258.9414-4.09359 1.16959-17.31967 6.09509-18.22461 6.43164.21232-.18246.30325-.24189.63477-.57422.58858-.59002 1.23361-1.33287 1.44921-2.01562.0304-.0961.0175-.17664.002-.31445-.0155-.13781-.045-.31621-.0859-.53711-.0819-.44181-.21291-1.04917-.38672-1.79883-.34762-1.49933-.86522-3.56931-1.49805-6.01758-1.26564-4.89653-2.99118-11.30501-4.72851-17.67383-3.44602-12.63264-6.88597-24.90259-6.94336-25.10742.35549.0913 7.39583 1.88454 12.39648 1.22656 5.05875-.66563 19.41496-2.83852 19.55274-2.85937zM83.78906-213.75h6.41602c.00008.00004.06688.0383.06836.0391.0624.093 1.09252 1.61283 1.50586 3.23438.10345.40587.41284 2.03972.81836 4.28125.4055 2.24153.91088 5.10359 1.41406 8.00781 1.00635 5.80844 2.0082 11.79595 2.20703 13.32031.20336 1.55907 1.17168 5.92443 2.14063 10.20117.96894 4.27675 1.93929 8.46334 2.13671 9.58204.20249 1.1474.87043 4.04898 1.48829 6.87109.30892 1.41105.60537 2.80161.82421 3.9375.21884 1.13589.35938 2.02877.35938 2.39844v2.08593l.99219.50782c-.55333.086-15.74322 2.44323-21.4043 3.75976-5.76713 1.34119-29.17188 8.25391-29.17188 8.25391l.03906.13086c-7.85686-4.77382-16.9973-10.15739-19.08398-11.2461-1.83287-.95628-4.01427-2.97985-6.36133-5.33203-.0094-.0229-.47862-1.16776-.98047-2.55078-.50685-1.39678-1.03628-3.02261-1.12695-3.86133-.04962-.45894-.2629-1.39879-.57031-2.64843-.30743-1.24964-.70957-2.80057-1.13477-4.45118-.8504-3.3012-1.79468-6.99837-2.26562-9.44726-.94153-4.89595-3.70523-15.29596-3.74024-15.42774l.0879-.002-.08595-.18359s-2.339-5.01516-3.33594-7.87305c-.49479-1.41841-.66196-2.89445-.7871-4.1543-.12516-1.25984-.19297-2.29741-.5625-2.88867-.62845-1.0055-1.96738-3.56776-2.09766-3.8164.39487-.11799 2.99627-.86871 7.93555-.99219 5.33131-.13328 36.72492-.13281 36.73828-.13281h.0078c.02583.005 5.20068.93375 9.3457 1.20117 2.08037.13422 5.38856.13549 8.36523.0352 1.48834-.0502 2.89464-.1263 4.02149-.22265 1.12684-.0964 1.96188-.20613 2.36719-.35352.76856-.27948 1.41303-.86065 1.98046-1.36133.56744-.50067 1.0634-.90234 1.44922-.90234z"
                style="line-height:normal;font-variant-ligatures:normal;font-variant-position:normal;font-variant-caps:normal;font-variant-numeric:normal;font-variant-alternates:normal;font-feature-settings:normal;text-indent:0;text-align:start;text-decoration-line:none;text-decoration-style:solid;text-decoration-color:#000;text-transform:none;text-orientation:mixed;white-space:normal;shape-padding:0;isolation:auto;mix-blend-mode:normal;solid-color:#000;solid-opacity:1"
                overflow="visible" fill="#7e8387" transform="matrix(1.21477 0 0 1.21477 -752.554 -30.43866)" />
            <path
                d="M90.66602-213.48828c.29977.16379.92007.49699 2.25 1.2793.2366.13918.63692.2408 1.19726.33593.56034.0951 1.27333.17651 2.10547.2461 1.66427.13918 3.79818.2282 6.0918.26367 4.58724.0709 9.80972-.0719 13.17578-.45117 6.70252-.75521 16.23293-1.32095 18.14062-1.51172 1.84341-.18434 7.12604-.15299 7.24024-.15235.01.0349 3.51876 12.56051 6.98828 25.2793 1.73717 6.36824 3.46345 12.77758 4.72851 17.67188.63254 2.44715 1.14944 4.51458 1.4961 6.00976.17333.7476.30419 1.35243.38476 1.78711.0403.21734.0677.39248.082.51953.0143.12705.004.22186.01.20508-.1853.58678-.80775 1.32977-1.38476 1.9082-.57702.57844-1.10352 1-1.10352 1l.0273.0469c-.03-.008-.0886-.0255-.11718-.0332-.21288-.0572-.38566-.10213-.51563-.13086-.12997-.0287-.19878-.0461-.2832-.0391-.0879.007-.26101.0347-.53711.084-.2761.0493-.64749.11976-1.10156.20703-.90815.17454-2.1486.42071-3.61719.7168-2.93719.59216-6.79078 1.38594-10.74219 2.21875-7.90281 1.66561-16.17844 3.47843-18.33203 4.14843-4.25633 1.32419-10.20899 3.4043-10.20899 3.4043l.0293.082-1.71094-.7539.0332-.006-1.56055-.80078v-1.92383c0-.43214-.14363-1.30914-.36328-2.44922-.21965-1.14008-.51704-2.53138-.82617-3.94336-.61827-2.82396-1.28596-5.73499-1.48438-6.85938-.20349-1.15309-1.17187-5.31787-2.14062-9.59375-.96876-4.27588-1.93722-8.6632-2.13477-10.17773-.20207-1.54924-1.20441-7.52261-2.21094-13.33203-.50326-2.90472-1.00641-5.76723-1.4121-8.00977-.4057-2.24254-.71053-3.85278-.82422-4.29883-.38203-1.49873-1.12768-2.57589-1.36914-2.94726z"
                style="line-height:normal;font-variant-ligatures:normal;font-variant-position:normal;font-variant-caps:normal;font-variant-numeric:normal;font-variant-alternates:normal;font-feature-settings:normal;text-indent:0;text-align:start;text-decoration-line:none;text-decoration-style:solid;text-decoration-color:#000;text-transform:none;text-orientation:mixed;white-space:normal;shape-padding:0;isolation:auto;mix-blend-mode:normal;solid-color:#000;solid-opacity:1"
                overflow="visible" fill="#7e8387" transform="matrix(1.21477 0 0 1.21477 -752.554 -30.43866)" />
            <path
                d="M18.08984-192.0957c.0135.0508 2.80987 10.58007 3.75 15.46875.474 2.4648 1.41904 6.16132 2.26954 9.46289.42524 1.65078.82797 3.2041 1.13476 4.45117.30679 1.24707.51762 2.1962.5625 2.61133.09832.90943.63166 2.52122 1.14063 3.92383.39015 1.07518.60735 1.59919.76171 1.98242-1.40271-1.42028-2.7875-2.83356-4.36132-4.45508-2.18874-2.25506-5.53234-6.89869-8.73829-11.60742-3.20594-4.70873-6.2798-9.48493-7.95117-12.02539-1.67966-2.55309-3.3962-4.10262-4.6953-5.01368-1.22761-.86091-1.97885-1.09327-2.07032-1.12304.00624-.0322.00085-.0519.06054-.16406.08607-.16173.25544-.39608.58985-.66602.66881-.53989 2.00123-1.22019 4.62695-1.71875 5.16837-.98134 12.66322-1.12225 12.91992-1.12695z"
                style="line-height:normal;font-variant-ligatures:normal;font-variant-position:normal;font-variant-caps:normal;font-variant-numeric:normal;font-variant-alternates:normal;font-feature-settings:normal;text-indent:0;text-align:start;text-decoration-line:none;text-decoration-style:solid;text-decoration-color:#000;text-transform:none;text-orientation:mixed;white-space:normal;shape-padding:0;isolation:auto;mix-blend-mode:normal;solid-color:#000;solid-opacity:1"
                overflow="visible" fill="#6b717b" transform="matrix(1.21477 0 0 1.21477 -752.554 -30.43866)" />
            <path
                d="M-.2871-188.22266c.0151.005.83775.25765 2.0996 1.14258 1.27337.89301 2.9638 2.41638 4.625 4.94141 1.6695 2.53765 4.7446 7.31678 7.95313 12.02929 3.20852 4.71252 6.54636 9.35406 8.76757 11.64258 4.408 4.54158 8.14041 8.68994 11.25782 10.31641 3.04687 1.58968 24.60967 14.18079 28.71484 17.22656 2.07483 1.53939 4.17842 2.94274 5.8418 4.27344 1.66338 1.3307 2.87614 2.59379 3.1953 3.80664.15608.59306.2051 2.02159.17384 3.79102-.03126 1.76942-.1365 3.89427-.26172 5.93945-.23183 3.78659-.49723 6.77806-.54102 7.2793-.43217.44599-.88348.92805-1.48047 1.20898-.38238.17995-1.4938.58516-2.93554 1.08984-1.44174.50469-3.22238 1.11435-4.97657 1.7168-1.75418.60245-3.48269 1.19785-4.8203 1.67969-.66882.24092-1.24065.45267-1.66993.62305-.21464.08519-.392.16137-.53125.2246-.13925.06324-.23503.10938-.30273.16016-.41185.30888-.7891.88434-1.07618 1.38672-.28707.50238-.47851.9336-.47851.9336l-.002.0059-.002.0078s-.4738 1.49238-.92383 3.33984c-.45002 1.84746-.88005 4.04335-.7832 5.49609.18683 2.80255 1.68453 7.1422 1.76171 7.36524-.1285.0184-1.26949.17325-2.68554.71484-1.3217.5055-2.67385 1.39226-3.42383 2.67773.00062-.24625.0234-8.88498-.10156-18.08398-.06337-4.66458-.16385-9.40812-.32422-13.14648-.0802-1.86919-.1762-3.48649-.28906-4.71875-.05643-.61614-.11548-1.1366-.18164-1.54493-.06616-.40832-.13446-.70051-.22266-.88671-.32112-.67791-1.25003-1.73763-2.55469-3.02344s-2.98114-2.78278-4.7793-4.27149c-3.5963-2.97741-7.66972-5.91926-10.23828-7.06836-5.037-2.25339-17.22359-10.82018-21.34765-14.41211-4.10892-3.57873-14.15642-16.02973-16.8164-19.88671-1.32012-1.91416-2.49096-4.94905-3.4922-7.83594-1.00123-2.8869-1.83092-5.61888-2.51172-6.98047-1.29001-2.58003-3.67021-5.11594-3.89453-5.35352.16751-.0529 1.91416-.60437 4.14649-1.24218 2.33653-.66758 5.0161-1.36919 6.32422-1.5 2.66753-.26676 8.7359-1.05778 8.7871-1.06446z"
                style="line-height:normal;font-variant-ligatures:normal;font-variant-position:normal;font-variant-caps:normal;font-variant-numeric:normal;font-variant-alternates:normal;font-feature-settings:normal;text-indent:0;text-align:start;text-decoration-line:none;text-decoration-style:solid;text-decoration-color:#000;text-transform:none;text-orientation:mixed;white-space:normal;shape-padding:0;isolation:auto;mix-blend-mode:normal;solid-color:#000;solid-opacity:1"
                overflow="visible" fill="#81888e" transform="matrix(1.21477 0 0 1.21477 -752.554 -30.43866)" />
            <path
                d="M-19.46875-183.92383c.5599.60892 2.43934 2.69314 3.58203 4.97852.65555 1.3111 1.49476 4.05836 2.49805 6.95117 1.00328 2.89281 2.1728 5.93718 3.52539 7.89844 2.6854 3.89384 12.68293 16.298 16.85937 19.93554 4.1613 3.62436 16.29483 12.1649 21.41407 14.45508 2.50956 1.12271 6.58922 4.05996 10.17578 7.0293 1.79328 1.48467 3.46662 2.97755 4.76367 4.25586 1.29704 1.2783 2.22171 2.3576 2.50195 2.94922.06214.13118.13464.41783.19922.8164.0646.39858.12555.91302.18164 1.52539.11218 1.22475.20703 2.84027.28711 4.70703.16017 3.73354.26087 8.47548.32422 13.13868.1267 9.32639.10156 18.33593.10156 18.33593h.0586c-.03565.0755-.12357.11287-.1543.19141-.1614.41247-.27733 1.10735-.36914 2.02734-.09182.92-.15531 2.06097-.19922 3.34375-.08782 2.56557-.09202 5.69556-.0586 8.72852.06464 5.8652.25993 10.9995.27344 11.35742L20.53906-77.53516l-.002-.002S13.18931-84.5852 5.5566-92.20122c-3.81636-3.808-7.70543-7.7586-10.7793-11.03906-1.53693-1.64023-2.86972-3.11337-3.88867-4.31641-1.01894-1.20304-1.7254-2.14416-1.99609-2.68555-.55136-1.10272-1.1156-3.41641-1.63477-6.3125-.51916-2.89609-.99915-6.38217-1.4082-9.86328-.8181-6.96221-1.35351-13.91992-1.35351-16.10351 0-1.12253-.25104-4.27935-.62696-8.40821-.37592-4.12885-.8758-9.22074-1.37695-14.17383-.97944-9.68018-1.91676-18.40771-1.96094-18.82031z"
                style="line-height:normal;font-variant-ligatures:normal;font-variant-position:normal;font-variant-caps:normal;font-variant-numeric:normal;font-variant-alternates:normal;font-feature-settings:normal;text-indent:0;text-align:start;text-decoration-line:none;text-decoration-style:solid;text-decoration-color:#000;text-transform:none;text-orientation:mixed;white-space:normal;shape-padding:0;isolation:auto;mix-blend-mode:normal;solid-color:#000;solid-opacity:1"
                overflow="visible" fill="#3e3e3e" transform="matrix(1.21477 0 0 1.21477 -752.554 -30.43866)" />
            <path
                d="M182.22266-178.61328c.33382.0961 3.12246.89663 4.83203 1.49609.48561.17028 1.94108.48988 3.91797.89649 1.97688.4066 4.45931.89315 6.93554 1.37304 2.47623.47989 4.94547.95422 6.90039 1.33399 1.95493.37976 3.4036.6674 3.80079.76953.81413.20935 3.57186 1.05054 6.19726 1.94141 1.3127.44543 2.59411.9035 3.58594 1.30273.49591.19962.9196.38543 1.23633.54492.31672.1595.53248.30795.58007.36914.1417.18219.26653.52213.35743.9336.0909.41147.15249.89489.1914 1.3789.0778.96802.0679 1.93872.0449 2.33008-.0107.18273-.0813.65588-.17773 1.24414-.0965.58826-.22084 1.29928-.34375 1.98438-.24582 1.37018-.48438 2.63867-.48437 2.63867l.12304.0234c-.31992.0833-.54315.0841-.88867.18554-.91119.26751-1.84853.54856-2.41602.58008-.55393.0308-1.59536-.22938-2.55859-.54492-.96323-.31554-1.86724-.6846-2.18555-.84375-.0613-.0306-.14897-.0603-.28125-.10156-.13227-.0412-.30477-.0905-.51367-.14844-.4178-.11582-.97932-.26432-1.64648-.4336-1.33433-.33854-3.08747-.76477-4.92969-1.19921-3.68444-.8689-7.72296-1.76984-9.50391-2.07227-1.75219-.29754-5.53029-1.32554-8.85742-2.27734-3.14293-.89911-5.57252-1.63719-5.86719-1.72657.4374-.2043 1.63256-.79219 2.7168-1.90625.73787-.75816 1.28093-1.97486 1.35938-2.6289.0549-.45791-.0649-1.14507-.26368-1.94336-.16421-.65948-.40176-1.39412-.63671-2.10742.16624.0302 2.96541.53925 6.21289 1.14648 3.34238.62498 6.98125 1.32133 8.13086 1.59961 1.1673.28257 5.55498 1.27451 9.69531 2.25 2.07016.48775 4.07832.97166 5.58789 1.35938.75478.19386 1.38425.36396 1.83398.49804.22487.067.40588.12526.53125.17188.0627.0233.11253.0448.14453.0605.032.0157.0482.0366.0274.01l.0273.0371.0449.01c1.4065.35789 1.93712 1.12485 2.13672 2.17187.1996 1.04702.0315 2.37381-.0371 3.75586-.13398 1.98795-1.41406 4.74609-1.41406 4.74609l.24024.11133s1.29778-2.7587 1.4375-4.8418v-.002c.0679-1.36849.24538-2.70537.0332-3.81836-.21031-1.10316-.84855-1.98056-2.30274-2.36328-.0245-.019-.0491-.0404-.0781-.0547-.0452-.0222-.10033-.0452-.16797-.0703-.13529-.0503-.31892-.10977-.54687-.17773-.45592-.13593-1.08726-.3057-1.84376-.5-1.51299-.3886-3.52277-.87144-5.59374-1.35938-4.14196-.97588-8.53581-1.96978-9.69336-2.25-1.17527-.28449-4.80135-.97839-8.14454-1.60351-3.31759-.62035-6.30144-1.16153-6.34765-1.16993-.0181-.0538-.0307-.10676-.0488-.16015-.53417-1.57154-1.00911-2.74822-1.08984-2.94922z"
                style="line-height:normal;font-variant-ligatures:normal;font-variant-position:normal;font-variant-caps:normal;font-variant-numeric:normal;font-variant-alternates:normal;font-feature-settings:normal;text-indent:0;text-align:start;text-decoration-line:none;text-decoration-style:solid;text-decoration-color:#000;text-transform:none;text-orientation:mixed;white-space:normal;shape-padding:0;isolation:auto;mix-blend-mode:normal;solid-color:#000;solid-opacity:1"
                overflow="visible" fill="#5b606a" transform="matrix(1.21477 0 0 1.21477 -752.554 -30.43866)" />
            <path
                d="M179.93164-166.45898c.073.0222 2.84809.86641 6.13477 1.80664 3.32955.95249 7.09563 1.97939 8.88476 2.2832 1.76037.29893 5.80611 1.2 9.48828 2.06836 1.84109.43418 3.59173.86124 4.92383 1.19922.66605.16899 1.22803.31477 1.64258.42968.20727.0575.37801.10861.50586.14844.12785.0398.218.0729.24023.084.34987.17493 1.24818.54015 2.22266.85937.97448.31923 2.00552.59269 2.6543.55664.63522-.0353 1.56697-.32281 2.47656-.58984.90959-.26704 1.80495-.50832 2.25195-.47852.21844.0146.85512.14764 1.66406.34961.80895.20198 1.80503.47188 2.79297.76367.98795.2918 1.96801.60608 2.75.89063.391.14227.73258.27729.99805.39844.13709.0626.18324.10299.27539.15625l-19.76172 10.55664-.002.002s-.94967.5591-2.01953 1.12109c-.53493.281-1.10156.56303-1.58985.7754-.48828.21236-.91112.35071-1.10546.35742-.91757.0316-3.05747-.0265-3.23438-.0312-.17363-.13509-.40625-.32422-.40625-.32422l-.0117-.01-.0156-.004s-12.33112-4.06369-24.80469-8.11524c-6.23679-2.02577-12.50853-4.04795-17.29297-5.55859-2.39222-.75532-4.41256-1.38261-5.87109-1.81836-.539-.16103-.91267-.26548-1.28907-.37109.35933-.13366 14.45455-5.3796 18.58789-6.56055 4.17963-1.19419 8.84375-.92969 8.84375-.92969l.0312.002.0274-.0137.008-.004zM151.20117-158.99023c-.0135.001.0819.008.20508.0351.1232.0272.29322.0684.50391.125.42136.11326 1.00832.28446 1.73632.50196 1.45602.43499 3.47565 1.06129 5.86719 1.8164 4.78309 1.51021 11.05459 3.53294 17.29102 5.5586 12.46194 4.04777 24.76164 8.10031 24.7832 8.10742.003.002.17849.15406.2793.23047-.19522.0905-9.6089 4.45591-19.30078 8.93359-4.89593 2.26193-9.81308 4.53005-13.54688 6.24414-1.8669.85705-3.4376 1.57384-4.5625 2.08398-.56245.25507-1.01384.45963-1.33398.60157-.16008.071-.28707.12685-.37891.16601-.0918.0392-.16116.0639-.15625.0625-.64922.1855-1.19789.27614-1.20508.27735l-54.47265-24.03907c.20776-.0725 5.84581-2.04196 10.01757-3.33984 2.09865-.65291 10.40728-2.47923 18.3086-4.14453 3.95066-.83265 7.80403-1.62679 10.74023-2.21875 1.4681-.29598 2.70648-.54057 3.61328-.71484.4534-.0871.82354-.15614 1.09766-.20508.27412-.0489.45985-.0776.51367-.082z"
                style="line-height:normal;font-variant-ligatures:normal;font-variant-position:normal;font-variant-caps:normal;font-variant-numeric:normal;font-variant-alternates:normal;font-feature-settings:normal;text-indent:0;text-align:start;text-decoration-line:none;text-decoration-style:solid;text-decoration-color:#000;text-transform:none;text-orientation:mixed;white-space:normal;shape-padding:0;isolation:auto;mix-blend-mode:normal;solid-color:#000;solid-opacity:1"
                overflow="visible" fill="#8f999d" transform="matrix(1.21477 0 0 1.21477 -752.554 -30.43866)" />
            <path
                d="M230.09961-155.37305c.14434.13904.282.52886.34766 1.07227.0665.55026.0779 1.24553.0488 1.98437-.0581 1.47769-.27479 3.12903-.50586 4.15235-.23613 1.04576-.32066 1.98816-.41211 2.73633-.0914.74816-.20256 1.2977-.42578 1.54882.00022-.00024-.0384.0342-.0937.0762-.0554.0419-.13134.0977-.22656.16406-.19043.13266-.4575.31069-.78711.52734-.65921.43331-1.57464 1.01928-2.66211 1.70703-2.17494 1.37552-5.03849 3.15408-7.92773 4.91602-2.88925 1.76194-5.8039 3.5082-8.07813 4.8164-1.13711.65411-2.1131 1.19962-2.8457 1.58204-.3663.19121-.67269.34068-.9043.44336-.2316.10267-.40598.15467-.4375.15625-.65868.0329-1.45179.00073-2.11718-.0645-.3327-.0326-.63347-.0747-.86915-.11914-.21061-.0397-.345-.0856-.41015-.11523l.15625-4.50586c.0367-1.06477.34739-2.51846.63867-3.83399.14564-.65776.28597-1.28167.38477-1.80859.0988-.52692.15931-.95268.13281-1.24414-.0491-.53991-.37807-.97596-.69531-1.30469.47525.0125 2.09823.0589 2.95703.0293.29008-.01.70481-.16218 1.20312-.37891.49832-.21673 1.0691-.50042 1.60742-.7832 1.07462-.56449 2.02182-1.1229 2.02539-1.125l.004-.002z"
                style="line-height:normal;font-variant-ligatures:normal;font-variant-position:normal;font-variant-caps:normal;font-variant-numeric:normal;font-variant-alternates:normal;font-feature-settings:normal;text-indent:0;text-align:start;text-decoration-line:none;text-decoration-style:solid;text-decoration-color:#000;text-transform:none;text-orientation:mixed;white-space:normal;shape-padding:0;isolation:auto;mix-blend-mode:normal;solid-color:#000;solid-opacity:1"
                overflow="visible" fill="#595d62" transform="matrix(1.21477 0 0 1.21477 -752.554 -30.43866)" />
            <path
                d="m104.47656-149.07031 56.57617 24.96875-93.28125 38.15625-14.27734-10.69336c.00048-.0015.0195-.07215.01953-.07227l.002-.0059c.0053-.01193.1851-.41378.46094-.89649.2799-.4898.6598-1.0466 1.0039-1.30468.0268-.0201.12107-.0725.25391-.13282.13284-.06033.30729-.13451.51953-.21875.42449-.16847.99472-.37873 1.66211-.61914 1.33479-.48081 3.0625-1.07733 4.8164-1.67968 1.75392-.60235 3.53329-1.21157 4.97657-1.7168 1.44328-.50522 2.54208-.90158 2.9629-1.09961.55135-.25946.9285-.69214 1.34179-1.08984-.00054.006-.01758.22461-.01758.22461l.26367.0234s.0328-.44965.03516-.47656c.68315-.71876 1.17383-1.37891 1.17383-1.37891l-.22656-.13672s-.369.53694-.91993 1.1543c.05935-.68344.29943-3.37433.52344-7.03321.12535-2.04738.22839-4.17314.25977-5.94922.03138-1.77607-.0036-3.18876-.18164-3.86523-.349-1.32621-1.60767-2.60137-3.28516-3.94336s-3.78372-2.74509-5.85156-4.2793c-1.34594-.99859-5.77725-3.63742-9.51758-5.91211.17755-.0524 23.34326-6.89233 29.04687-8.21874 5.69892-1.32534 21.49488-3.77902 21.66016-3.80469z"
                style="line-height:normal;font-variant-ligatures:normal;font-variant-position:normal;font-variant-caps:normal;font-variant-numeric:normal;font-variant-alternates:normal;font-feature-settings:normal;text-indent:0;text-align:start;text-decoration-line:none;text-decoration-style:solid;text-decoration-color:#000;text-transform:none;text-orientation:mixed;white-space:normal;shape-padding:0;isolation:auto;mix-blend-mode:normal;solid-color:#000;solid-opacity:1"
                overflow="visible" fill="#8f999d" transform="matrix(1.21477 0 0 1.21477 -752.554 -30.43866)" />
            <path
                d="M202.09375-142.42773c.33782.30949.6991.73304.74805 1.27148.0207.22826-.0315.65058-.12891 1.16992-.0974.51934-.23703 1.14043-.38281 1.79883-.29156 1.31679-.60637 2.77746-.64453 3.88477l-.16602 4.77343c-.0636.0367-8.44917 4.87232-17.01562 9.80274-4.29945 2.47454-8.62833 4.96313-11.94141 6.86328-1.65654.95007-3.05835 1.75208-4.07617 2.33203-1.01782.57995-1.66725.94593-1.76367.99414-.19699.0985-.54705.13992-.95118.12695-.40412-.013-.86276-.0743-1.29296-.15039-.86041-.15218-1.60547-.36328-1.60547-.36328l-.008.0293-1.29687-14.12305c.11597-.0203.50344-.0838 1.0918-.25195.0462-.0132.0936-.0342.1875-.0742s.22209-.0948.38281-.16602c.32143-.14251.77313-.34632 1.33594-.60156 1.12561-.51047 2.69736-1.2288 4.56445-2.08594 3.73418-1.71426 8.65085-3.98216 13.54687-6.24414 9.74984-4.50444 19.33285-8.94778 19.41602-8.98632z"
                style="line-height:normal;font-variant-ligatures:normal;font-variant-position:normal;font-variant-caps:normal;font-variant-numeric:normal;font-variant-alternates:normal;font-feature-settings:normal;text-indent:0;text-align:start;text-decoration-line:none;text-decoration-style:solid;text-decoration-color:#000;text-transform:none;text-orientation:mixed;white-space:normal;shape-padding:0;isolation:auto;mix-blend-mode:normal;solid-color:#000;solid-opacity:1"
                overflow="visible" fill="#595d62" transform="matrix(1.21477 0 0 1.21477 -752.554 -30.43866)" />
            <path
                d="m227.33789-142.34183 2.18359 1.625c.001.061.0486 2.69151.0899 5.59766.0417 2.93962.0738 6.10409.041 6.95703-.0333.86648-.10056 2.05061-.25 3.17969-.14943 1.12907-.38657 2.20783-.73632 2.84375-.70971 1.29037-2.07813 1.94726-2.07813 1.94726l-.004.004L83.47847-37.75971l-.02148-.002-.002.01367-11.63282 6.70118-.0059.0039s-.59615.44656-1.31445.85937c-.35915.20641-.74886.40394-1.10351.53125-.35466.12731-.67492.17888-.87696.125-.93295-.24879-1.6621-1.2832-1.6621-1.2832l-.0059-.0098-20.084-20.1504c-.0019-.04882-.2167-5.65424-.2832-11.68945-.0334-3.03071-.02897-6.15635.0586-8.71484.04379-1.27925.10833-2.41743.19921-3.32813.0909-.91069.21229-1.59914.35157-1.95507.57857-1.47857 2.16933-2.41759 3.63086-2.97657 1.43283-.548 2.67059-.71762 2.7207-.7246.05202.04956 4.4404 4.23298 9.23242 8.29101 2.18635 1.85146 4.22037 3.4837 5.9961 4.64258 1.77572 1.15888 3.28837 1.85369 4.46874 1.79492h.002c.76478-.05098 2.09822-.5995 3.27149-1.13281 1.1703-.53195 2.15707-1.0501 2.1621-1.05274l.0059-.002 78.5918-36.51953.002-.002s1.27071-.63756 2.59179-1.32618c.66055-.3443 1.3327-.70135 1.86719-.99804.26725-.14835.49973-.28277.67969-.39258.17996-.10981.30027-.18503.375-.25977.21373-.21372.30634-.39396.33789-.53125a.50654.50654 0 0 0 .01-.16992c-.005-.0424-.0195-.0801-.0195-.0801l.0117.041-.14648-1.59375c.0737.0207.71517.20285 1.54492.34961.43796.0775.90786.14069 1.33203.1543.42417.0136.80265-.0166 1.07813-.1543.13981-.0699.75716-.41982 1.77539-1 1.01823-.58019 2.42147-1.38189 4.07812-2.33203 3.31331-1.90028 7.6419-4.39066 11.94141-6.86524 8.59902-4.94916 17.08008-9.83984 17.08008-9.83984l.0625-.0352.006-.15039c.10774.0383.20247.0779.36914.10938.24692.0466.55396.0899.89258.12304.67722.0664 1.47858.0983 2.15624.0645.13553-.007.29083-.0711.53126-.17774.24042-.10658.54875-.25844.91796-.45117.73843-.38546 1.71857-.93279 2.85743-1.58789 2.2777-1.3102 5.19352-3.05568 8.08398-4.81836s5.7551-3.54144 7.93164-4.91797c.73967-.46779 1.25781-.80371 1.8125-1.16211z"
                style="line-height:normal;font-variant-ligatures:normal;font-variant-position:normal;font-variant-caps:normal;font-variant-numeric:normal;font-variant-alternates:normal;font-feature-settings:normal;text-indent:0;text-align:start;text-decoration-line:none;text-decoration-style:solid;text-decoration-color:#000;text-transform:none;text-orientation:mixed;white-space:normal;shape-padding:0;isolation:auto;mix-blend-mode:normal;solid-color:#000;solid-opacity:1"
                overflow="visible" fill="#4f5257" transform="matrix(1.21477 0 0 1.21477 -752.554 -30.43866)" />
            <path
                d="m161.3125-123.92191 1.45898 15.91211.008.0195s-.002-.01 0 .004c.002.0136.001.0387-.008.0781-.0181.0789-.0758.21642-.26367.40429-.0257.0257-.1515.11608-.32617.22266-.17467.10658-.40648.23745-.67187.38477-.53079.29463-1.20191.65236-1.86133.99609-1.31885.68745-2.58789 1.32422-2.58789 1.32422L78.4668-68.05469l-.0039.002s-.98885.51712-2.1543 1.04688c-1.16481.52946-2.52468 1.0673-3.17774 1.11132-1.06254.05219-2.55149-.60523-4.30859-1.75195-1.75796-1.14728-3.7896-2.77437-5.97266-4.62305-4.79927-4.06416-9.22536-8.28316-9.25-8.30664-.01751-.05078-1.594-4.62307-1.7793-7.40234-.09213-1.38207.32773-3.5782.7754-5.41601.40004-1.64229.73767-2.69795.82227-2.96876l14.3164 10.7207z"
                style="line-height:normal;font-variant-ligatures:normal;font-variant-position:normal;font-variant-caps:normal;font-variant-numeric:normal;font-variant-alternates:normal;font-feature-settings:normal;text-indent:0;text-align:start;text-decoration-line:none;text-decoration-style:solid;text-decoration-color:#000;text-transform:none;text-orientation:mixed;white-space:normal;shape-padding:0;isolation:auto;mix-blend-mode:normal;solid-color:#000;solid-opacity:1"
                overflow="visible" fill="#595d62" transform="matrix(1.21477 0 0 1.21477 -752.554 -30.43866)" />
            <path
                d="m223.34766-118.01956.0527 1.04687-5.35742 2.9375-.40039-.69922zM-7.05078-104.875c.56644.62326.99067 1.12693 1.63672 1.81641 1.2331 1.31597 2.88352 2.94771 4.32031 4.42578l-1.08594.45703-4.8711-4.31445zM83.43164-37.42969l-.10352 1.4043-14.6914 9.19922-4.88672-4.4961.24805-1.98828 2.6582 2.66797c.02338.0345.74258 1.08995 1.79688 1.3711.2991.07976.6569.0049 1.03515-.13086.37825-.13579.77704-.33959 1.14453-.55079.72777-.41825 1.3164-.86034 1.32813-.86914l.01367-.0078z"
                style="line-height:normal;font-variant-ligatures:normal;font-variant-position:normal;font-variant-caps:normal;font-variant-numeric:normal;font-variant-alternates:normal;font-feature-settings:normal;text-indent:0;text-align:start;text-decoration-line:none;text-decoration-style:solid;text-decoration-color:#000;text-transform:none;text-orientation:mixed;white-space:normal;shape-padding:0;isolation:auto;mix-blend-mode:normal;solid-color:#000;solid-opacity:1"
                overflow="visible" transform="matrix(1.21477 0 0 1.21477 -752.554 -30.43866)" />
        </g>
        <image transform="matrix(.60721 0 0 .60721 -245.79492 -66.58172)" clip-path="url(#greycouchclippath)" width="179.26129" height="179.26129"
            preserveAspectRatio="none" xlink:href="C:\Users\Extreme PC\strongseal.png" x="-705.24927" y="-351.66159" />
    </g>
</svg>