<svg xmlns:dc="http://purl.org/dc/elements/1.1/" xmlns:cc="http://creativecommons.org/ns#" xmlns:rdf="http://www.w3.org/1999/02/22-rdf-syntax-ns#" xmlns:svg="http://www.w3.org/2000/svg" xmlns="http://www.w3.org/2000/svg" xmlns:xlink="http://www.w3.org/1999/xlink" version="1.1" viewBox="0 0 317.5 317.5" height="1200" width="1200"><defs><linearGradient><stop stop-color="#c4c4c4" offset="0"/><stop stop-color="#595959" offset="1"/></linearGradient><linearGradient><stop stop-color="#7a7a7a" offset="0"/><stop stop-opacity="0" stop-color="#7a7a7a" offset="1"/></linearGradient><linearGradient><stop stop-color="#101010" offset="0"/><stop stop-color="#989898" offset=".5"/><stop stop-color="#221f1f" offset="1"/></linearGradient><linearGradient><stop stop-color="#858585" offset="0"/><stop stop-color="#282828" offset="1"/></linearGradient><linearGradient><stop stop-color="#3e3e3e" offset="0"/><stop offset="1"/></linearGradient><linearGradient><stop stop-color="#dadada" offset="0"/><stop stop-color="#636363" offset="1"/></linearGradient><linearGradient><stop stop-color="#888" offset="0"/><stop stop-opacity="0" stop-color="#888" offset="1"/></linearGradient><linearGradient><stop stop-color="#121212" offset="0"/><stop stop-color="#a9a9a9" offset=".5"/><stop stop-color="#262222" offset="1"/></linearGradient><linearGradient><stop stop-color="#949494" offset="0"/><stop stop-color="#2c2c2c" offset="1"/></linearGradient><linearGradient><stop stop-color="#454545" offset="0"/><stop stop-color="#0a0a0a" offset="1"/></linearGradient><linearGradient id="id-39e"><stop stop-color="#4d4d4d" offset="0"/><stop stop-color="#0b0b0b" offset="1"/></linearGradient><clipPath clipPathUnits="userSpaceOnUse" id="id-44j"><circle style="fill:#473e81;stroke:#1a191e;stroke-width:0.86208999;stroke-linecap:round" r="87.568947" cy="-262.03094" cx="-615.61865"/></clipPath><clipPath clipPathUnits="userSpaceOnUse"><circle r="87.568947" cy="-262.03094" cx="-615.61865" style="fill:#473e81;stroke:#1a191e;stroke-width:0.86208999;stroke-linecap:round"/></clipPath><linearGradient xlink:href="#id-35a" gradientUnits="userSpaceOnUse" gradientTransform="matrix(1.1623465,0.08835763,-0.08835763,1.1623465,-1308.5393,-74.958383)" x1="1489.2958" y1="667.79865" x2="1450.7551" y2="715.26587"/><linearGradient id="id-35a"><stop stop-color="#f2f2f2" offset="0"/><stop stop-color="#6e6e6e" offset="1"/></linearGradient><linearGradient xlink:href="#id-35a" gradientUnits="userSpaceOnUse" gradientTransform="matrix(1.16235,0.08836,-0.08836,1.16235,-1311.639,-76.25904)" x1="1458.281" y1="678.05872" x2="1464.223" y2="717.07275"/><linearGradient xlink:href="#id-36b" gradientUnits="userSpaceOnUse" gradientTransform="matrix(1.1657,0,0,1.1657,-1374.2487,36.06295)" x1="1455.0509" y1="711.57135" x2="1466.9231" y2="711.57135"/><linearGradient id="id-36b"><stop stop-color="#979797" offset="0"/><stop stop-opacity="0" stop-color="#979797" offset="1"/></linearGradient><linearGradient xlink:href="#id-35a" gradientUnits="userSpaceOnUse" gradientTransform="matrix(1.16235,0.08836,-0.08836,1.16235,-1311.639,-76.25904)" x1="1487.8141" y1="663.16022" x2="1444.5061" y2="682.60339"/><linearGradient xlink:href="#id-37c" gradientUnits="userSpaceOnUse" x1="1378.1128" y1="883.67627" x2="1369.9249" y2="910.1145"/><linearGradient id="id-37c"><stop stop-color="#141414" offset="0"/><stop stop-color="#bcbcbc" offset=".5"/><stop stop-color="#2a2626" offset="1"/></linearGradient><linearGradient xlink:href="#id-38d" gradientUnits="userSpaceOnUse" gradientTransform="matrix(0.90667,5.7e-4,5e-4,0.9188,127.09096,71.58128)" x1="1423.3486" y1="908.87756" x2="1351.9747" y2="893.44263"/><linearGradient id="id-38d"><stop stop-color="#a4a4a4" offset="0"/><stop stop-color="#313131" offset="1"/></linearGradient><linearGradient xlink:href="#id-35a" gradientUnits="userSpaceOnUse" gradientTransform="matrix(1.1623465,0.08835763,-0.08835763,1.1623465,-1290.0219,-69.268466)" x1="1485.2881" y1="663.48065" x2="1462.1097" y2="706.55676"/><linearGradient xlink:href="#id-35a" gradientUnits="userSpaceOnUse" gradientTransform="matrix(1.1623465,0.08835763,-0.08835763,1.1623465,-1293.1184,-70.568957)" x1="1457.9685" y1="674.39838" x2="1464.8898" y2="724.73755"/><linearGradient xlink:href="#id-35a" gradientUnits="userSpaceOnUse" gradientTransform="matrix(1.1623465,0.08835763,-0.08835763,1.1623465,-1293.1184,-70.568963)" x1="1487.8141" y1="663.16022" x2="1444.5061" y2="682.60339"/><linearGradient xlink:href="#id-37c" gradientUnits="userSpaceOnUse" gradientTransform="matrix(1,-0.07672,0,1,14.45325,135.07961)" x1="1480.3562" y1="713.55145" x2="1480.2505" y2="699.89374"/><linearGradient xlink:href="#id-37c" gradientUnits="userSpaceOnUse" gradientTransform="matrix(1,-0.07672,0,1,14.45325,135.07961)" x1="1476.0466" y1="720.76678" x2="1475.4058" y2="691.3255"/><linearGradient xlink:href="#id-35a" gradientUnits="userSpaceOnUse" gradientTransform="matrix(1,-0.07672,0,1,61.10047,103.91988)" x1="1426.3765" y1="742.80731" x2="1436.7494" y2="727.41016"/><filter style="color-interpolation-filters:sRGB" x="-0.01932" width="1.03863" y="-0.26409" height="1.52817"><feGaussianBlur stdDeviation="2.80703"/></filter><filter style="color-interpolation-filters:sRGB"><feGaussianBlur stdDeviation="1.44316"/></filter><filter style="color-interpolation-filters:sRGB"><feGaussianBlur stdDeviation="1.38063"/></filter><filter style="color-interpolation-filters:sRGB"><feGaussianBlur stdDeviation="1.33172"/></filter><filter style="color-interpolation-filters:sRGB"><feGaussianBlur stdDeviation="1.43792"/></filter><filter style="color-interpolation-filters:sRGB"><feGaussianBlur stdDeviation="1.25596"/></filter><filter style="color-interpolation-filters:sRGB"><feGaussianBlur stdDeviation=".70937"/></filter><filter style="color-interpolation-filters:sRGB"><feGaussianBlur stdDeviation=".70937"/></filter><filter style="color-interpolation-filters:sRGB"><feGaussianBlur stdDeviation=".70937"/></filter><filter style="color-interpolation-filters:sRGB"><feGaussianBlur stdDeviation=".70937"/></filter><filter style="color-interpolation-filters:sRGB"><feGaussianBlur stdDeviation=".70937"/></filter><filter style="color-interpolation-filters:sRGB"><feGaussianBlur stdDeviation=".70937"/></filter><filter style="color-interpolation-filters:sRGB"><feGaussianBlur stdDeviation=".70937"/></filter><filter style="color-interpolation-filters:sRGB"><feGaussianBlur stdDeviation=".70937"/></filter><filter style="color-interpolation-filters:sRGB"><feGaussianBlur stdDeviation=".70937"/></filter><filter style="color-interpolation-filters:sRGB"><feGaussianBlur stdDeviation=".71843"/></filter><filter style="color-interpolation-filters:sRGB"><feGaussianBlur stdDeviation=".71843"/></filter><filter style="color-interpolation-filters:sRGB"><feGaussianBlur stdDeviation=".71843"/></filter><filter style="color-interpolation-filters:sRGB"><feGaussianBlur stdDeviation=".71843"/></filter><filter style="color-interpolation-filters:sRGB"><feGaussianBlur stdDeviation=".71843"/></filter><filter style="color-interpolation-filters:sRGB"><feGaussianBlur stdDeviation=".71843"/></filter><filter style="color-interpolation-filters:sRGB"><feGaussianBlur stdDeviation=".80552"/></filter><filter style="color-interpolation-filters:sRGB" x="-0.048870001" width="1.0977401" y="-0.13668001" height="1.27337"><feGaussianBlur stdDeviation=".62517"/></filter><filter style="color-interpolation-filters:sRGB"><feGaussianBlur stdDeviation="1.98776"/></filter><filter style="color-interpolation-filters:sRGB"><feGaussianBlur stdDeviation="2.05552"/></filter><filter style="color-interpolation-filters:sRGB"><feGaussianBlur stdDeviation=".8496"/></filter><filter style="color-interpolation-filters:sRGB"><feGaussianBlur stdDeviation=".8496"/></filter><filter style="color-interpolation-filters:sRGB"><feGaussianBlur stdDeviation=".8496"/></filter><radialGradient xlink:href="#id-39e" gradientUnits="userSpaceOnUse" gradientTransform="matrix(0.36227,-0.00112,-0.00787,0.49499,897.13891,433.95193)" cx="1394.4729" cy="857.33496" fx="1394.4729" fy="857.33496" r="23.997231"/><radialGradient xlink:href="#id-39e" gradientUnits="userSpaceOnUse" gradientTransform="matrix(0.36227,-0.00112,-0.00787,0.49499,897.13891,433.95193)" cx="1394.4729" cy="857.33496" fx="1394.4729" fy="857.33496" r="23.997231"/><radialGradient xlink:href="#id-39e" gradientUnits="userSpaceOnUse" gradientTransform="matrix(0.36227,-0.00112,-0.00787,0.49499,897.13891,433.95193)" cx="1394.4729" cy="857.33496" fx="1394.4729" fy="857.33496" r="23.997231"/><radialGradient xlink:href="#id-39e" gradientUnits="userSpaceOnUse" gradientTransform="matrix(0.36227,-0.00112,-0.00787,0.49499,897.13891,433.95193)" cx="1394.4729" cy="857.33496" fx="1394.4729" fy="857.33496" r="23.997231"/><clipPath clipPathUnits="userSpaceOnUse"><circle r="87.568947" cy="-262.03094" cx="-615.61865" style="fill:#473e81;stroke:#1a191e;stroke-width:0.86208999;stroke-linecap:round"/></clipPath><linearGradient id="id-40f"><stop offset="0" stop-color="#a8a8a8"/><stop offset="1" stop-color="#828282"/></linearGradient><radialGradient xlink:href="#id-40f" cx="108.35538" cy="65.195236" fx="108.35538" fy="65.195236" r="17.90435" gradientTransform="matrix(1,0,0,0.80798,-2e-5,13.41685)" gradientUnits="userSpaceOnUse"/><clipPath clipPathUnits="userSpaceOnUse"><circle cx="-615.61871" cy="-262.03094" r="87.568947" style="fill:#473e81;stroke:#1a191e;stroke-width:0.86209005;stroke-linecap:round"/></clipPath><linearGradient id="id-43i"><stop stop-color="#6d62b4" offset="0"/><stop stop-color="#473e81" offset="1"/></linearGradient><linearGradient id="id-42h"><stop stop-color="#787e94" offset="0"/><stop stop-color="#667097" offset="1"/></linearGradient><linearGradient id="id-41g"><stop stop-color="#5d6495" offset="0"/><stop stop-color="#767999" offset=".20911"/><stop stop-color="#5d6495" offset="1"/></linearGradient><linearGradient gradientUnits="userSpaceOnUse" y2="77.310387" x2="149.28954" y1="65.283257" x1="81.85881" xlink:href="#id-41g"/><linearGradient gradientUnits="userSpaceOnUse" y2="88.118423" x2="109.01274" y1="103.62005" x1="68.017563" xlink:href="#id-42h"/><linearGradient gradientUnits="userSpaceOnUse" y2="105.15166" x2="108.35014" y1="81.816223" x1="111.99181" xlink:href="#id-43i"/><clipPath clipPathUnits="userSpaceOnUse"><circle style="fill:#473e81;stroke:#1a191e;stroke-width:0.86209005;stroke-linecap:round" r="87.568947" cy="-262.03094" cx="-615.61865"/></clipPath></defs><g class="chair" style="color:#000000;stroke:#000000;stroke-width:0.86500001" transform="translate(783.38219,379.86831)"><path d="m 173.11719,-215.00781 c 0.0369,0.0648 0.4467,0.78045 0.94922,1.76953 0.52459,1.03254 1.10816,2.28485 1.33593,3.13086 0.11092,0.41196 0.57755,2.60401 1.20704,5.62304 0.62948,3.01904 1.42611,6.88094 2.20703,10.68946 1.56182,7.61703 3.06445,15.01758 3.06445,15.01758 l 0.002,0.0117 0.006,0.0117 c 0,0 0.59897,1.48453 1.17383,3.17579 0.28743,0.84562 0.56977,1.74276 0.76562,2.52929 0.19586,0.78654 0.30114,1.46839 0.25586,1.84571 -0.0648,0.53991 -0.60575,1.77646 -1.2871,2.47656 -1.23815,1.2722 -2.91901,2.00198 -2.95508,2.01758 -0.063,-0.004 -4.682,-0.26163 -8.89258,0.9414 -4.09359,1.16959 -17.31967,6.09509 -18.22461,6.43164 0.21232,-0.18246 0.30325,-0.24189 0.63477,-0.57422 0.58858,-0.59002 1.23361,-1.33287 1.44921,-2.01562 0.0304,-0.0961 0.0175,-0.17664 0.002,-0.31445 -0.0155,-0.13781 -0.045,-0.31621 -0.0859,-0.53711 -0.0819,-0.44181 -0.21291,-1.04917 -0.38672,-1.79883 -0.34762,-1.49933 -0.86522,-3.56931 -1.49805,-6.01758 -1.26564,-4.89653 -2.99118,-11.30501 -4.72851,-17.67383 -3.44602,-12.63264 -6.88597,-24.90259 -6.94336,-25.10742 0.35549,0.0913 7.39583,1.88454 12.39648,1.22656 5.05875,-0.66563 19.41496,-2.83852 19.55274,-2.85937 z M 83.78906,-213.75 h 6.41602 c 8e-5,4e-5 0.06688,0.0383 0.06836,0.0391 0.0624,0.093 1.09252,1.61283 1.50586,3.23438 0.10345,0.40587 0.41284,2.03972 0.81836,4.28125 0.4055,2.24153 0.91088,5.10359 1.41406,8.00781 1.00635,5.80844 2.0082,11.79595 2.20703,13.32031 0.20336,1.55907 1.17168,5.92443 2.14063,10.20117 0.96894,4.27675 1.93929,8.46334 2.13671,9.58204 0.20249,1.1474 0.87043,4.04898 1.48829,6.87109 0.30892,1.41105 0.60537,2.80161 0.82421,3.9375 0.21884,1.13589 0.35938,2.02877 0.35938,2.39844 v 2.08593 l 0.99219,0.50782 c -0.55333,0.086 -15.74322,2.44323 -21.4043,3.75976 -5.76713,1.34119 -29.17188,8.25391 -29.17188,8.25391 l 0.03906,0.13086 c -7.85686,-4.77382 -16.9973,-10.15739 -19.08398,-11.2461 -1.83287,-0.95628 -4.01427,-2.97985 -6.36133,-5.33203 -0.0094,-0.0229 -0.47862,-1.16776 -0.98047,-2.55078 -0.50685,-1.39678 -1.03628,-3.02261 -1.12695,-3.86133 -0.04962,-0.45894 -0.2629,-1.39879 -0.57031,-2.64843 -0.30743,-1.24964 -0.70957,-2.80057 -1.13477,-4.45118 -0.8504,-3.3012 -1.79468,-6.99837 -2.26562,-9.44726 -0.94153,-4.89595 -3.70523,-15.29596 -3.74024,-15.42774 l 0.0879,-0.002 -0.08595,-0.18359 c 0,0 -2.339,-5.01516 -3.33594,-7.87305 -0.49479,-1.41841 -0.66196,-2.89445 -0.7871,-4.1543 -0.12516,-1.25984 -0.19297,-2.29741 -0.5625,-2.88867 -0.62845,-1.0055 -1.96738,-3.56776 -2.09766,-3.8164 0.39487,-0.11799 2.99627,-0.86871 7.93555,-0.99219 5.33131,-0.13328 36.72492,-0.13281 36.73828,-0.13281 h 0.0078 c 0.02583,0.005 5.20068,0.93375 9.3457,1.20117 2.08037,0.13422 5.38856,0.13549 8.36523,0.0352 1.48834,-0.0502 2.89464,-0.1263 4.02149,-0.22265 1.12684,-0.0964 1.96188,-0.20613 2.36719,-0.35352 0.76856,-0.27948 1.41303,-0.86065 1.98046,-1.36133 0.56744,-0.50067 1.0634,-0.90234 1.44922,-0.90234 z" style="line-height:normal;font-variant-ligatures:normal;font-variant-position:normal;font-variant-caps:normal;font-variant-numeric:normal;font-variant-alternates:normal;font-feature-settings:normal;text-indent:0;text-align:start;text-decoration:none;text-decoration-line:none;text-decoration-style:solid;text-decoration-color:#000000;text-transform:none;text-orientation:mixed;white-space:normal;shape-padding:0;overflow:visible;isolation:auto;mix-blend-mode:normal;solid-color:#000000;solid-opacity:1;fill:#7e8387;stroke:#282828;stroke-opacity:1" overflow="visible" transform="matrix(1.21477,0,0,1.21477,-752.554,-30.43866)"/><path d="m 90.66602,-213.48828 c 0.29977,0.16379 0.92007,0.49699 2.25,1.2793 0.2366,0.13918 0.63692,0.2408 1.19726,0.33593 0.56034,0.0951 1.27333,0.17651 2.10547,0.2461 1.66427,0.13918 3.79818,0.2282 6.0918,0.26367 4.58724,0.0709 9.80972,-0.0719 13.17578,-0.45117 6.70252,-0.75521 16.23293,-1.32095 18.14062,-1.51172 1.84341,-0.18434 7.12604,-0.15299 7.24024,-0.15235 0.01,0.0349 3.51876,12.56051 6.98828,25.2793 1.73717,6.36824 3.46345,12.77758 4.72851,17.67188 0.63254,2.44715 1.14944,4.51458 1.4961,6.00976 0.17333,0.7476 0.30419,1.35243 0.38476,1.78711 0.0403,0.21734 0.0677,0.39248 0.082,0.51953 0.0143,0.12705 0.004,0.22186 0.01,0.20508 -0.1853,0.58678 -0.80775,1.32977 -1.38476,1.9082 -0.57702,0.57844 -1.10352,1 -1.10352,1 l 0.0273,0.0469 c -0.03,-0.008 -0.0886,-0.0255 -0.11718,-0.0332 -0.21288,-0.0572 -0.38566,-0.10213 -0.51563,-0.13086 -0.12997,-0.0287 -0.19878,-0.0461 -0.2832,-0.0391 -0.0879,0.007 -0.26101,0.0347 -0.53711,0.084 -0.2761,0.0493 -0.64749,0.11976 -1.10156,0.20703 -0.90815,0.17454 -2.1486,0.42071 -3.61719,0.7168 -2.93719,0.59216 -6.79078,1.38594 -10.74219,2.21875 -7.90281,1.66561 -16.17844,3.47843 -18.33203,4.14843 -4.25633,1.32419 -10.20899,3.4043 -10.20899,3.4043 l 0.0293,0.082 -1.71094,-0.7539 0.0332,-0.006 -1.56055,-0.80078 v -1.92383 c 0,-0.43214 -0.14363,-1.30914 -0.36328,-2.44922 -0.21965,-1.14008 -0.51704,-2.53138 -0.82617,-3.94336 -0.61827,-2.82396 -1.28596,-5.73499 -1.48438,-6.85938 -0.20349,-1.15309 -1.17187,-5.31787 -2.14062,-9.59375 -0.96876,-4.27588 -1.93722,-8.6632 -2.13477,-10.17773 -0.20207,-1.54924 -1.20441,-7.52261 -2.21094,-13.33203 -0.50326,-2.90472 -1.00641,-5.76723 -1.4121,-8.00977 -0.4057,-2.24254 -0.71053,-3.85278 -0.82422,-4.29883 -0.38203,-1.49873 -1.12768,-2.57589 -1.36914,-2.94726 z" style="line-height:normal;font-variant-ligatures:normal;font-variant-position:normal;font-variant-caps:normal;font-variant-numeric:normal;font-variant-alternates:normal;font-feature-settings:normal;text-indent:0;text-align:start;text-decoration:none;text-decoration-line:none;text-decoration-style:solid;text-decoration-color:#000000;text-transform:none;text-orientation:mixed;white-space:normal;shape-padding:0;overflow:visible;isolation:auto;mix-blend-mode:normal;solid-color:#000000;solid-opacity:1;fill:#7e8387;stroke:#282828;stroke-opacity:1" overflow="visible" transform="matrix(1.21477,0,0,1.21477,-752.554,-30.43866)"/><path d="m 18.08984,-192.0957 c 0.0135,0.0508 2.80987,10.58007 3.75,15.46875 0.474,2.4648 1.41904,6.16132 2.26954,9.46289 0.42524,1.65078 0.82797,3.2041 1.13476,4.45117 0.30679,1.24707 0.51762,2.1962 0.5625,2.61133 0.09832,0.90943 0.63166,2.52122 1.14063,3.92383 0.39015,1.07518 0.60735,1.59919 0.76171,1.98242 -1.40271,-1.42028 -2.7875,-2.83356 -4.36132,-4.45508 -2.18874,-2.25506 -5.53234,-6.89869 -8.73829,-11.60742 -3.20594,-4.70873 -6.2798,-9.48493 -7.95117,-12.02539 -1.67966,-2.55309 -3.3962,-4.10262 -4.6953,-5.01368 -1.22761,-0.86091 -1.97885,-1.09327 -2.07032,-1.12304 0.00624,-0.0322 8.5e-4,-0.0519 0.06054,-0.16406 0.08607,-0.16173 0.25544,-0.39608 0.58985,-0.66602 0.66881,-0.53989 2.00123,-1.22019 4.62695,-1.71875 5.16837,-0.98134 12.66322,-1.12225 12.91992,-1.12695 z" style="line-height:normal;font-variant-ligatures:normal;font-variant-position:normal;font-variant-caps:normal;font-variant-numeric:normal;font-variant-alternates:normal;font-feature-settings:normal;text-indent:0;text-align:start;text-decoration:none;text-decoration-line:none;text-decoration-style:solid;text-decoration-color:#000000;text-transform:none;text-orientation:mixed;white-space:normal;shape-padding:0;overflow:visible;isolation:auto;mix-blend-mode:normal;solid-color:#000000;solid-opacity:1;fill:#6b717b;stroke:#282828;stroke-opacity:1" overflow="visible" transform="matrix(1.21477,0,0,1.21477,-752.554,-30.43866)"/><path d="m -0.2871,-188.22266 c 0.0151,0.005 0.83775,0.25765 2.0996,1.14258 1.27337,0.89301 2.9638,2.41638 4.625,4.94141 1.6695,2.53765 4.7446,7.31678 7.95313,12.02929 3.20852,4.71252 6.54636,9.35406 8.76757,11.64258 4.408,4.54158 8.14041,8.68994 11.25782,10.31641 3.04687,1.58968 24.60967,14.18079 28.71484,17.22656 2.07483,1.53939 4.17842,2.94274 5.8418,4.27344 1.66338,1.3307 2.87614,2.59379 3.1953,3.80664 0.15608,0.59306 0.2051,2.02159 0.17384,3.79102 -0.03126,1.76942 -0.1365,3.89427 -0.26172,5.93945 -0.23183,3.78659 -0.49723,6.77806 -0.54102,7.2793 -0.43217,0.44599 -0.88348,0.92805 -1.48047,1.20898 -0.38238,0.17995 -1.4938,0.58516 -2.93554,1.08984 -1.44174,0.50469 -3.22238,1.11435 -4.97657,1.7168 -1.75418,0.60245 -3.48269,1.19785 -4.8203,1.67969 -0.66882,0.24092 -1.24065,0.45267 -1.66993,0.62305 -0.21464,0.08519 -0.392,0.16137 -0.53125,0.2246 -0.13925,0.06324 -0.23503,0.10938 -0.30273,0.16016 -0.41185,0.30888 -0.7891,0.88434 -1.07618,1.38672 -0.28707,0.50238 -0.47851,0.9336 -0.47851,0.9336 l -0.002,0.0059 -0.002,0.0078 c 0,0 -0.4738,1.49238 -0.92383,3.33984 -0.45002,1.84746 -0.88005,4.04335 -0.7832,5.49609 0.18683,2.80255 1.68453,7.1422 1.76171,7.36524 -0.1285,0.0184 -1.26949,0.17325 -2.68554,0.71484 -1.3217,0.5055 -2.67385,1.39226 -3.42383,2.67773 6.2e-4,-0.24625 0.0234,-8.88498 -0.10156,-18.08398 -0.06337,-4.66458 -0.16385,-9.40812 -0.32422,-13.14648 -0.0802,-1.86919 -0.1762,-3.48649 -0.28906,-4.71875 -0.05643,-0.61614 -0.11548,-1.1366 -0.18164,-1.54493 -0.06616,-0.40832 -0.13446,-0.70051 -0.22266,-0.88671 -0.32112,-0.67791 -1.25003,-1.73763 -2.55469,-3.02344 -1.30466,-1.28581 -2.98114,-2.78278 -4.7793,-4.27149 -3.5963,-2.97741 -7.66972,-5.91926 -10.23828,-7.06836 -5.037,-2.25339 -17.22359,-10.82018 -21.34765,-14.41211 -4.10892,-3.57873 -14.15642,-16.02973 -16.8164,-19.88671 -1.32012,-1.91416 -2.49096,-4.94905 -3.4922,-7.83594 -1.00123,-2.8869 -1.83092,-5.61888 -2.51172,-6.98047 -1.29001,-2.58003 -3.67021,-5.11594 -3.89453,-5.35352 0.16751,-0.0529 1.91416,-0.60437 4.14649,-1.24218 2.33653,-0.66758 5.0161,-1.36919 6.32422,-1.5 2.66753,-0.26676 8.7359,-1.05778 8.7871,-1.06446 z" style="line-height:normal;font-variant-ligatures:normal;font-variant-position:normal;font-variant-caps:normal;font-variant-numeric:normal;font-variant-alternates:normal;font-feature-settings:normal;text-indent:0;text-align:start;text-decoration:none;text-decoration-line:none;text-decoration-style:solid;text-decoration-color:#000000;text-transform:none;text-orientation:mixed;white-space:normal;shape-padding:0;overflow:visible;isolation:auto;mix-blend-mode:normal;solid-color:#000000;solid-opacity:1;fill:#81888e;stroke:#282828;stroke-opacity:1" overflow="visible" transform="matrix(1.21477,0,0,1.21477,-752.554,-30.43866)"/><path d="m -19.46875,-183.92383 c 0.5599,0.60892 2.43934,2.69314 3.58203,4.97852 0.65555,1.3111 1.49476,4.05836 2.49805,6.95117 1.00328,2.89281 2.1728,5.93718 3.52539,7.89844 2.6854,3.89384 12.68293,16.298 16.85937,19.93554 4.1613,3.62436 16.29483,12.1649 21.41407,14.45508 2.50956,1.12271 6.58922,4.05996 10.17578,7.0293 1.79328,1.48467 3.46662,2.97755 4.76367,4.25586 1.29704,1.2783 2.22171,2.3576 2.50195,2.94922 0.06214,0.13118 0.13464,0.41783 0.19922,0.8164 0.0646,0.39858 0.12555,0.91302 0.18164,1.52539 0.11218,1.22475 0.20703,2.84027 0.28711,4.70703 0.16017,3.73354 0.26087,8.47548 0.32422,13.13868 0.1267,9.32639 0.10156,18.33593 0.10156,18.33593 h 0.0586 c -0.03565,0.0755 -0.12357,0.11287 -0.1543,0.19141 -0.1614,0.41247 -0.27733,1.10735 -0.36914,2.02734 -0.09182,0.92 -0.15531,2.06097 -0.19922,3.34375 -0.08782,2.56557 -0.09202,5.69556 -0.0586,8.72852 0.06464,5.8652 0.25993,10.9995 0.27344,11.35742 l -25.95703,-26.23633 -0.002,-0.002 c 0,0 -7.34775,-7.04804 -14.98046,-14.66406 -3.81636,-3.808 -7.70543,-7.7586 -10.7793,-11.03906 -1.53693,-1.64023 -2.86972,-3.11337 -3.88867,-4.31641 -1.01894,-1.20304 -1.7254,-2.14416 -1.99609,-2.68555 -0.55136,-1.10272 -1.1156,-3.41641 -1.63477,-6.3125 -0.51916,-2.89609 -0.99915,-6.38217 -1.4082,-9.86328 -0.8181,-6.96221 -1.35351,-13.91992 -1.35351,-16.10351 0,-1.12253 -0.25104,-4.27935 -0.62696,-8.40821 -0.37592,-4.12885 -0.8758,-9.22074 -1.37695,-14.17383 -0.97944,-9.68018 -1.91676,-18.40771 -1.96094,-18.82031 z" style="line-height:normal;font-variant-ligatures:normal;font-variant-position:normal;font-variant-caps:normal;font-variant-numeric:normal;font-variant-alternates:normal;font-feature-settings:normal;text-indent:0;text-align:start;text-decoration:none;text-decoration-line:none;text-decoration-style:solid;text-decoration-color:#000000;text-transform:none;text-orientation:mixed;white-space:normal;shape-padding:0;overflow:visible;isolation:auto;mix-blend-mode:normal;solid-color:#000000;solid-opacity:1;fill:#3e3e3e;stroke:#282828;stroke-opacity:1" overflow="visible" transform="matrix(1.21477,0,0,1.21477,-752.554,-30.43866)"/><path d="m 182.22266,-178.61328 c 0.33382,0.0961 3.12246,0.89663 4.83203,1.49609 0.48561,0.17028 1.94108,0.48988 3.91797,0.89649 1.97688,0.4066 4.45931,0.89315 6.93554,1.37304 2.47623,0.47989 4.94547,0.95422 6.90039,1.33399 1.95493,0.37976 3.4036,0.6674 3.80079,0.76953 0.81413,0.20935 3.57186,1.05054 6.19726,1.94141 1.3127,0.44543 2.59411,0.9035 3.58594,1.30273 0.49591,0.19962 0.9196,0.38543 1.23633,0.54492 0.31672,0.1595 0.53248,0.30795 0.58007,0.36914 0.1417,0.18219 0.26653,0.52213 0.35743,0.9336 0.0909,0.41147 0.15249,0.89489 0.1914,1.3789 0.0778,0.96802 0.0679,1.93872 0.0449,2.33008 -0.0107,0.18273 -0.0813,0.65588 -0.17773,1.24414 -0.0965,0.58826 -0.22084,1.29928 -0.34375,1.98438 -0.24582,1.37018 -0.48438,2.63867 -0.48437,2.63867 l 0.12304,0.0234 c -0.31992,0.0833 -0.54315,0.0841 -0.88867,0.18554 -0.91119,0.26751 -1.84853,0.54856 -2.41602,0.58008 -0.55393,0.0308 -1.59536,-0.22938 -2.55859,-0.54492 -0.96323,-0.31554 -1.86724,-0.6846 -2.18555,-0.84375 -0.0613,-0.0306 -0.14897,-0.0603 -0.28125,-0.10156 -0.13227,-0.0412 -0.30477,-0.0905 -0.51367,-0.14844 -0.4178,-0.11582 -0.97932,-0.26432 -1.64648,-0.4336 -1.33433,-0.33854 -3.08747,-0.76477 -4.92969,-1.19921 -3.68444,-0.8689 -7.72296,-1.76984 -9.50391,-2.07227 -1.75219,-0.29754 -5.53029,-1.32554 -8.85742,-2.27734 -3.14293,-0.89911 -5.57252,-1.63719 -5.86719,-1.72657 0.4374,-0.2043 1.63256,-0.79219 2.7168,-1.90625 0.73787,-0.75816 1.28093,-1.97486 1.35938,-2.6289 0.0549,-0.45791 -0.0649,-1.14507 -0.26368,-1.94336 -0.16421,-0.65948 -0.40176,-1.39412 -0.63671,-2.10742 0.16624,0.0302 2.96541,0.53925 6.21289,1.14648 3.34238,0.62498 6.98125,1.32133 8.13086,1.59961 1.1673,0.28257 5.55498,1.27451 9.69531,2.25 2.07016,0.48775 4.07832,0.97166 5.58789,1.35938 0.75478,0.19386 1.38425,0.36396 1.83398,0.49804 0.22487,0.067 0.40588,0.12526 0.53125,0.17188 0.0627,0.0233 0.11253,0.0448 0.14453,0.0605 0.032,0.0157 0.0482,0.0366 0.0274,0.01 l 0.0273,0.0371 0.0449,0.01 c 1.4065,0.35789 1.93712,1.12485 2.13672,2.17187 0.1996,1.04702 0.0315,2.37381 -0.0371,3.75586 -0.13398,1.98795 -1.41406,4.74609 -1.41406,4.74609 l 0.24024,0.11133 c 0,0 1.29778,-2.7587 1.4375,-4.8418 v -0.002 c 0.0679,-1.36849 0.24538,-2.70537 0.0332,-3.81836 -0.21031,-1.10316 -0.84855,-1.98056 -2.30274,-2.36328 -0.0245,-0.019 -0.0491,-0.0404 -0.0781,-0.0547 -0.0452,-0.0222 -0.10033,-0.0452 -0.16797,-0.0703 -0.13529,-0.0503 -0.31892,-0.10977 -0.54687,-0.17773 -0.45592,-0.13593 -1.08726,-0.3057 -1.84376,-0.5 -1.51299,-0.3886 -3.52277,-0.87144 -5.59374,-1.35938 -4.14196,-0.97588 -8.53581,-1.96978 -9.69336,-2.25 -1.17527,-0.28449 -4.80135,-0.97839 -8.14454,-1.60351 -3.31759,-0.62035 -6.30144,-1.16153 -6.34765,-1.16993 -0.0181,-0.0538 -0.0307,-0.10676 -0.0488,-0.16015 -0.53417,-1.57154 -1.00911,-2.74822 -1.08984,-2.94922 z" style="line-height:normal;font-variant-ligatures:normal;font-variant-position:normal;font-variant-caps:normal;font-variant-numeric:normal;font-variant-alternates:normal;font-feature-settings:normal;text-indent:0;text-align:start;text-decoration:none;text-decoration-line:none;text-decoration-style:solid;text-decoration-color:#000000;text-transform:none;text-orientation:mixed;white-space:normal;shape-padding:0;overflow:visible;isolation:auto;mix-blend-mode:normal;solid-color:#000000;solid-opacity:1;fill:#5b606a;stroke:#282828;stroke-opacity:1" overflow="visible" transform="matrix(1.21477,0,0,1.21477,-752.554,-30.43866)"/><path d="m 179.93164,-166.45898 c 0.073,0.0222 2.84809,0.86641 6.13477,1.80664 3.32955,0.95249 7.09563,1.97939 8.88476,2.2832 1.76037,0.29893 5.80611,1.2 9.48828,2.06836 1.84109,0.43418 3.59173,0.86124 4.92383,1.19922 0.66605,0.16899 1.22803,0.31477 1.64258,0.42968 0.20727,0.0575 0.37801,0.10861 0.50586,0.14844 0.12785,0.0398 0.218,0.0729 0.24023,0.084 0.34987,0.17493 1.24818,0.54015 2.22266,0.85937 0.97448,0.31923 2.00552,0.59269 2.6543,0.55664 0.63522,-0.0353 1.56697,-0.32281 2.47656,-0.58984 0.90959,-0.26704 1.80495,-0.50832 2.25195,-0.47852 0.21844,0.0146 0.85512,0.14764 1.66406,0.34961 0.80895,0.20198 1.80503,0.47188 2.79297,0.76367 0.98795,0.2918 1.96801,0.60608 2.75,0.89063 0.391,0.14227 0.73258,0.27729 0.99805,0.39844 0.13709,0.0626 0.18324,0.10299 0.27539,0.15625 l -19.76172,10.55664 -0.002,0.002 c 0,0 -0.94967,0.5591 -2.01953,1.12109 -0.53493,0.281 -1.10156,0.56303 -1.58985,0.7754 -0.48828,0.21236 -0.91112,0.35071 -1.10546,0.35742 -0.91757,0.0316 -3.05747,-0.0265 -3.23438,-0.0312 -0.17363,-0.13509 -0.40625,-0.32422 -0.40625,-0.32422 l -0.0117,-0.01 -0.0156,-0.004 c 0,0 -12.33112,-4.06369 -24.80469,-8.11524 -6.23679,-2.02577 -12.50853,-4.04795 -17.29297,-5.55859 -2.39222,-0.75532 -4.41256,-1.38261 -5.87109,-1.81836 -0.539,-0.16103 -0.91267,-0.26548 -1.28907,-0.37109 0.35933,-0.13366 14.45455,-5.3796 18.58789,-6.56055 4.17963,-1.19419 8.84375,-0.92969 8.84375,-0.92969 l 0.0312,0.002 0.0274,-0.0137 0.008,-0.004 z m -28.73047,7.46875 c -0.0135,0.001 0.0819,0.008 0.20508,0.0351 0.1232,0.0272 0.29322,0.0684 0.50391,0.125 0.42136,0.11326 1.00832,0.28446 1.73632,0.50196 1.45602,0.43499 3.47565,1.06129 5.86719,1.8164 4.78309,1.51021 11.05459,3.53294 17.29102,5.5586 12.46194,4.04777 24.76164,8.10031 24.7832,8.10742 0.003,0.002 0.17849,0.15406 0.2793,0.23047 -0.19522,0.0905 -9.6089,4.45591 -19.30078,8.93359 -4.89593,2.26193 -9.81308,4.53005 -13.54688,6.24414 -1.8669,0.85705 -3.4376,1.57384 -4.5625,2.08398 -0.56245,0.25507 -1.01384,0.45963 -1.33398,0.60157 -0.16008,0.071 -0.28707,0.12685 -0.37891,0.16601 -0.0918,0.0392 -0.16116,0.0639 -0.15625,0.0625 -0.64922,0.1855 -1.19789,0.27614 -1.20508,0.27735 l -54.47265,-24.03907 c 0.20776,-0.0725 5.84581,-2.04196 10.01757,-3.33984 2.09865,-0.65291 10.40728,-2.47923 18.3086,-4.14453 3.95066,-0.83265 7.80403,-1.62679 10.74023,-2.21875 1.4681,-0.29598 2.70648,-0.54057 3.61328,-0.71484 0.4534,-0.0871 0.82354,-0.15614 1.09766,-0.20508 0.27412,-0.0489 0.45985,-0.0776 0.51367,-0.082 z" style="line-height:normal;font-variant-ligatures:normal;font-variant-position:normal;font-variant-caps:normal;font-variant-numeric:normal;font-variant-alternates:normal;font-feature-settings:normal;text-indent:0;text-align:start;text-decoration:none;text-decoration-line:none;text-decoration-style:solid;text-decoration-color:#000000;text-transform:none;text-orientation:mixed;white-space:normal;shape-padding:0;overflow:visible;isolation:auto;mix-blend-mode:normal;solid-color:#000000;solid-opacity:1;fill:#8f999d;stroke:#282828;stroke-opacity:1" overflow="visible" transform="matrix(1.21477,0,0,1.21477,-752.554,-30.43866)"/><path d="m 230.09961,-155.37305 c 0.14434,0.13904 0.282,0.52886 0.34766,1.07227 0.0665,0.55026 0.0779,1.24553 0.0488,1.98437 -0.0581,1.47769 -0.27479,3.12903 -0.50586,4.15235 -0.23613,1.04576 -0.32066,1.98816 -0.41211,2.73633 -0.0914,0.74816 -0.20256,1.2977 -0.42578,1.54882 2.2e-4,-2.4e-4 -0.0384,0.0342 -0.0937,0.0762 -0.0554,0.0419 -0.13134,0.0977 -0.22656,0.16406 -0.19043,0.13266 -0.4575,0.31069 -0.78711,0.52734 -0.65921,0.43331 -1.57464,1.01928 -2.66211,1.70703 -2.17494,1.37552 -5.03849,3.15408 -7.92773,4.91602 -2.88925,1.76194 -5.8039,3.5082 -8.07813,4.8164 -1.13711,0.65411 -2.1131,1.19962 -2.8457,1.58204 -0.3663,0.19121 -0.67269,0.34068 -0.9043,0.44336 -0.2316,0.10267 -0.40598,0.15467 -0.4375,0.15625 -0.65868,0.0329 -1.45179,7.3e-4 -2.11718,-0.0645 -0.3327,-0.0326 -0.63347,-0.0747 -0.86915,-0.11914 -0.21061,-0.0397 -0.345,-0.0856 -0.41015,-0.11523 l 0.15625,-4.50586 c 0.0367,-1.06477 0.34739,-2.51846 0.63867,-3.83399 0.14564,-0.65776 0.28597,-1.28167 0.38477,-1.80859 0.0988,-0.52692 0.15931,-0.95268 0.13281,-1.24414 -0.0491,-0.53991 -0.37807,-0.97596 -0.69531,-1.30469 0.47525,0.0125 2.09823,0.0589 2.95703,0.0293 0.29008,-0.01 0.70481,-0.16218 1.20312,-0.37891 0.49832,-0.21673 1.0691,-0.50042 1.60742,-0.7832 1.07462,-0.56449 2.02182,-1.1229 2.02539,-1.125 l 0.004,-0.002 z" style="line-height:normal;font-variant-ligatures:normal;font-variant-position:normal;font-variant-caps:normal;font-variant-numeric:normal;font-variant-alternates:normal;font-feature-settings:normal;text-indent:0;text-align:start;text-decoration:none;text-decoration-line:none;text-decoration-style:solid;text-decoration-color:#000000;text-transform:none;text-orientation:mixed;white-space:normal;shape-padding:0;overflow:visible;isolation:auto;mix-blend-mode:normal;solid-color:#000000;solid-opacity:1;fill:#595d62;stroke:#282828;stroke-opacity:1" overflow="visible" transform="matrix(1.21477,0,0,1.21477,-752.554,-30.43866)"/><path d="m 104.47656,-149.07031 56.57617,24.96875 -93.28125,38.15625 -14.27734,-10.69336 c 4.8e-4,-0.0015 0.0195,-0.07215 0.01953,-0.07227 l 0.002,-0.0059 c 0.0053,-0.01193 0.1851,-0.41378 0.46094,-0.89649 0.2799,-0.4898 0.6598,-1.0466 1.0039,-1.30468 0.0268,-0.0201 0.12107,-0.0725 0.25391,-0.13282 0.13284,-0.06033 0.30729,-0.13451 0.51953,-0.21875 0.42449,-0.16847 0.99472,-0.37873 1.66211,-0.61914 1.33479,-0.48081 3.0625,-1.07733 4.8164,-1.67968 1.75392,-0.60235 3.53329,-1.21157 4.97657,-1.7168 1.44328,-0.50522 2.54208,-0.90158 2.9629,-1.09961 0.55135,-0.25946 0.9285,-0.69214 1.34179,-1.08984 -5.4e-4,0.006 -0.01758,0.22461 -0.01758,0.22461 l 0.26367,0.0234 c 0,0 0.0328,-0.44965 0.03516,-0.47656 0.68315,-0.71876 1.17383,-1.37891 1.17383,-1.37891 l -0.22656,-0.13672 c 0,0 -0.369,0.53694 -0.91993,1.1543 0.05935,-0.68344 0.29943,-3.37433 0.52344,-7.03321 0.12535,-2.04738 0.22839,-4.17314 0.25977,-5.94922 0.03138,-1.77607 -0.0036,-3.18876 -0.18164,-3.86523 -0.349,-1.32621 -1.60767,-2.60137 -3.28516,-3.94336 -1.67749,-1.34199 -3.78372,-2.74509 -5.85156,-4.2793 -1.34594,-0.99859 -5.77725,-3.63742 -9.51758,-5.91211 0.17755,-0.0524 23.34326,-6.89233 29.04687,-8.21874 5.69892,-1.32534 21.49488,-3.77902 21.66016,-3.80469 z" style="line-height:normal;font-variant-ligatures:normal;font-variant-position:normal;font-variant-caps:normal;font-variant-numeric:normal;font-variant-alternates:normal;font-feature-settings:normal;text-indent:0;text-align:start;text-decoration:none;text-decoration-line:none;text-decoration-style:solid;text-decoration-color:#000000;text-transform:none;text-orientation:mixed;white-space:normal;shape-padding:0;overflow:visible;isolation:auto;mix-blend-mode:normal;solid-color:#000000;solid-opacity:1;fill:#8f999d;stroke:#282828;stroke-opacity:1" overflow="visible" transform="matrix(1.21477,0,0,1.21477,-752.554,-30.43866)"/><path d="m 202.09375,-142.42773 c 0.33782,0.30949 0.6991,0.73304 0.74805,1.27148 0.0207,0.22826 -0.0315,0.65058 -0.12891,1.16992 -0.0974,0.51934 -0.23703,1.14043 -0.38281,1.79883 -0.29156,1.31679 -0.60637,2.77746 -0.64453,3.88477 l -0.16602,4.77343 c -0.0636,0.0367 -8.44917,4.87232 -17.01562,9.80274 -4.29945,2.47454 -8.62833,4.96313 -11.94141,6.86328 -1.65654,0.95007 -3.05835,1.75208 -4.07617,2.33203 -1.01782,0.57995 -1.66725,0.94593 -1.76367,0.99414 -0.19699,0.0985 -0.54705,0.13992 -0.95118,0.12695 -0.40412,-0.013 -0.86276,-0.0743 -1.29296,-0.15039 -0.86041,-0.15218 -1.60547,-0.36328 -1.60547,-0.36328 l -0.008,0.0293 -1.29687,-14.12305 c 0.11597,-0.0203 0.50344,-0.0838 1.0918,-0.25195 0.0462,-0.0132 0.0936,-0.0342 0.1875,-0.0742 0.0939,-0.04 0.22209,-0.0948 0.38281,-0.16602 0.32143,-0.14251 0.77313,-0.34632 1.33594,-0.60156 1.12561,-0.51047 2.69736,-1.2288 4.56445,-2.08594 3.73418,-1.71426 8.65085,-3.98216 13.54687,-6.24414 9.74984,-4.50444 19.33285,-8.94778 19.41602,-8.98632 z" style="line-height:normal;font-variant-ligatures:normal;font-variant-position:normal;font-variant-caps:normal;font-variant-numeric:normal;font-variant-alternates:normal;font-feature-settings:normal;text-indent:0;text-align:start;text-decoration:none;text-decoration-line:none;text-decoration-style:solid;text-decoration-color:#000000;text-transform:none;text-orientation:mixed;white-space:normal;shape-padding:0;overflow:visible;isolation:auto;mix-blend-mode:normal;solid-color:#000000;solid-opacity:1;fill:#595d62;stroke:#282828;stroke-opacity:1" overflow="visible" transform="matrix(1.21477,0,0,1.21477,-752.554,-30.43866)"/><path d="m 227.33789,-142.34183 2.18359,1.625 c 0.001,0.061 0.0486,2.69151 0.0899,5.59766 0.0417,2.93962 0.0738,6.10409 0.041,6.95703 -0.0333,0.86648 -0.10056,2.05061 -0.25,3.17969 -0.14943,1.12907 -0.38657,2.20783 -0.73632,2.84375 -0.70971,1.29037 -2.07813,1.94726 -2.07813,1.94726 l -0.004,0.004 -143.10546,82.42773 -0.02148,-0.002 -0.002,0.01367 -11.63282,6.70118 -0.0059,0.0039 c 0,0 -0.59615,0.44656 -1.31445,0.85937 -0.35915,0.20641 -0.74886,0.40394 -1.10351,0.53125 -0.35466,0.12731 -0.67492,0.17888 -0.87696,0.125 -0.93295,-0.24879 -1.6621,-1.2832 -1.6621,-1.2832 l -0.0059,-0.0098 -20.084,-20.1504 c -0.0019,-0.04882 -0.2167,-5.65424 -0.2832,-11.68945 -0.0334,-3.03071 -0.02897,-6.15635 0.0586,-8.71484 0.04379,-1.27925 0.10833,-2.41743 0.19921,-3.32813 0.0909,-0.91069 0.21229,-1.59914 0.35157,-1.95507 0.57857,-1.47857 2.16933,-2.41759 3.63086,-2.97657 1.43283,-0.548 2.67059,-0.71762 2.7207,-0.7246 0.05202,0.04956 4.4404,4.23298 9.23242,8.29101 2.18635,1.85146 4.22037,3.4837 5.9961,4.64258 1.77572,1.15888 3.28837,1.85369 4.46874,1.79492 h 0.002 c 0.76478,-0.05098 2.09822,-0.5995 3.27149,-1.13281 1.1703,-0.53195 2.15707,-1.0501 2.1621,-1.05274 l 0.0059,-0.002 78.5918,-36.51953 0.002,-0.002 c 0,0 1.27071,-0.63756 2.59179,-1.32618 0.66055,-0.3443 1.3327,-0.70135 1.86719,-0.99804 0.26725,-0.14835 0.49973,-0.28277 0.67969,-0.39258 0.17996,-0.10981 0.30027,-0.18503 0.375,-0.25977 0.21373,-0.21372 0.30634,-0.39396 0.33789,-0.53125 a 0.50654,0.50654 0 0 0 0.01,-0.16992 c -0.005,-0.0424 -0.0195,-0.0801 -0.0195,-0.0801 l 0.0117,0.041 -0.14648,-1.59375 c 0.0737,0.0207 0.71517,0.20285 1.54492,0.34961 0.43796,0.0775 0.90786,0.14069 1.33203,0.1543 0.42417,0.0136 0.80265,-0.0166 1.07813,-0.1543 0.13981,-0.0699 0.75716,-0.41982 1.77539,-1 1.01823,-0.58019 2.42147,-1.38189 4.07812,-2.33203 3.31331,-1.90028 7.6419,-4.39066 11.94141,-6.86524 8.59902,-4.94916 17.08008,-9.83984 17.08008,-9.83984 l 0.0625,-0.0352 0.006,-0.15039 c 0.10774,0.0383 0.20247,0.0779 0.36914,0.10938 0.24692,0.0466 0.55396,0.0899 0.89258,0.12304 0.67722,0.0664 1.47858,0.0983 2.15624,0.0645 0.13553,-0.007 0.29083,-0.0711 0.53126,-0.17774 0.24042,-0.10658 0.54875,-0.25844 0.91796,-0.45117 0.73843,-0.38546 1.71857,-0.93279 2.85743,-1.58789 2.2777,-1.3102 5.19352,-3.05568 8.08398,-4.81836 2.89046,-1.76268 5.7551,-3.54144 7.93164,-4.91797 0.73967,-0.46779 1.25781,-0.80371 1.8125,-1.16211 z" style="line-height:normal;font-variant-ligatures:normal;font-variant-position:normal;font-variant-caps:normal;font-variant-numeric:normal;font-variant-alternates:normal;font-feature-settings:normal;text-indent:0;text-align:start;text-decoration:none;text-decoration-line:none;text-decoration-style:solid;text-decoration-color:#000000;text-transform:none;text-orientation:mixed;white-space:normal;shape-padding:0;overflow:visible;isolation:auto;mix-blend-mode:normal;solid-color:#000000;solid-opacity:1;fill:#4f5257;stroke:#282828;stroke-opacity:1" overflow="visible" transform="matrix(1.21477,0,0,1.21477,-752.554,-30.43866)"/><path d="m 161.3125,-123.92191 1.45898,15.91211 0.008,0.0195 c 0,0 -0.002,-0.01 0,0.004 0.002,0.0136 0.001,0.0387 -0.008,0.0781 -0.0181,0.0789 -0.0758,0.21642 -0.26367,0.40429 -0.0257,0.0257 -0.1515,0.11608 -0.32617,0.22266 -0.17467,0.10658 -0.40648,0.23745 -0.67187,0.38477 -0.53079,0.29463 -1.20191,0.65236 -1.86133,0.99609 -1.31885,0.68745 -2.58789,1.32422 -2.58789,1.32422 l -78.59375,36.52148 -0.0039,0.002 c 0,0 -0.98885,0.51712 -2.1543,1.04688 -1.16481,0.52946 -2.52468,1.0673 -3.17774,1.11132 -1.06254,0.05219 -2.55149,-0.60523 -4.30859,-1.75195 -1.75796,-1.14728 -3.7896,-2.77437 -5.97266,-4.62305 -4.79927,-4.06416 -9.22536,-8.28316 -9.25,-8.30664 -0.01751,-0.05078 -1.594,-4.62307 -1.7793,-7.40234 -0.09213,-1.38207 0.32773,-3.5782 0.7754,-5.41601 0.40004,-1.64229 0.73767,-2.69795 0.82227,-2.96876 l 14.3164,10.7207 z" style="line-height:normal;font-variant-ligatures:normal;font-variant-position:normal;font-variant-caps:normal;font-variant-numeric:normal;font-variant-alternates:normal;font-feature-settings:normal;text-indent:0;text-align:start;text-decoration:none;text-decoration-line:none;text-decoration-style:solid;text-decoration-color:#000000;text-transform:none;text-orientation:mixed;white-space:normal;shape-padding:0;overflow:visible;isolation:auto;mix-blend-mode:normal;solid-color:#000000;solid-opacity:1;fill:#595d62;stroke:#282828;stroke-opacity:1" overflow="visible" transform="matrix(1.21477,0,0,1.21477,-752.554,-30.43866)"/><path d="m 223.34766,-118.01956 0.0527,1.04687 -5.35742,2.9375 -0.40039,-0.69922 z M -7.05078,-104.875 c 0.56644,0.62326 0.99067,1.12693 1.63672,1.81641 1.2331,1.31597 2.88352,2.94771 4.32031,4.42578 l -1.08594,0.45703 -4.8711,-4.31445 z m 90.48242,67.44531 -0.10352,1.4043 -14.6914,9.19922 -4.88672,-4.4961 0.24805,-1.98828 2.6582,2.66797 c 0.02338,0.0345 0.74258,1.08995 1.79688,1.3711 0.2991,0.07976 0.6569,0.0049 1.03515,-0.13086 0.37825,-0.13579 0.77704,-0.33959 1.14453,-0.55079 0.72777,-0.41825 1.3164,-0.86034 1.32813,-0.86914 l 0.01367,-0.0078 z" style="line-height:normal;font-variant-ligatures:normal;font-variant-position:normal;font-variant-caps:normal;font-variant-numeric:normal;font-variant-alternates:normal;font-feature-settings:normal;text-indent:0;text-align:start;text-decoration:none;text-decoration-line:none;text-decoration-style:solid;text-decoration-color:#000000;text-transform:none;text-orientation:mixed;white-space:normal;shape-padding:0;overflow:visible;isolation:auto;mix-blend-mode:normal;solid-color:#000000;solid-opacity:1;stroke:#282828;stroke-opacity:1" overflow="visible" transform="matrix(1.21477,0,0,1.21477,-752.554,-30.43866)"/></g><g transform="translate(274.61503,125.51814)"><circle style="fill:#ffffff;stroke:#1a191e;stroke-width:1;stroke-linecap:round;stroke-miterlimit:4;stroke-dasharray:none" r="53.172741" cy="24.983801" cx="-91.512039"/><image y="-351.66159" x="-705.24927" xlink:href="C:\Users\Extreme PC\strongseal.png" preserveAspectRatio="none" height="179.26129" width="179.26129" clip-path="url(#id-44j)" transform="matrix(0.60721,0,0,0.60721,282.29776,184.09161)"/></g></svg>