<svg width="900" height="1200" viewBox="0 0 238.125 317.5" version="1.1" id="little-car_vue_svg__svg163"
    xmlns:xlink="http://www.w3.org/1999/xlink"
    xmlns="http://www.w3.org/2000/svg">
    <defs id="little-car_vue_svg__defs47">
        <linearGradient id="little-car_vue_svg__a">
            <stop offset="0" stop-color="#a8a8a8" id="little-car_vue_svg__stop2"/>
            <stop offset="1" stop-color="#828282" id="little-car_vue_svg__stop4"/>
        </linearGradient>
        <linearGradient id="little-car_vue_svg__b">
            <stop offset="0" stop-color="#c4c4c4" id="little-car_vue_svg__stop7"/>
            <stop offset="1" stop-color="#595959" id="little-car_vue_svg__stop9"/>
        </linearGradient>
        <linearGradient id="little-car_vue_svg__c">
            <stop offset="0" stop-color="#7a7a7a" id="little-car_vue_svg__stop12"/>
            <stop offset="1" stop-color="#7a7a7a" stop-opacity="0" id="little-car_vue_svg__stop14"/>
        </linearGradient>
        <linearGradient id="little-car_vue_svg__d">
            <stop offset="0" stop-color="#101010" id="little-car_vue_svg__stop17"/>
            <stop offset=".5" stop-color="#989898" id="little-car_vue_svg__stop19"/>
            <stop offset="1" stop-color="#221f1f" id="little-car_vue_svg__stop21"/>
        </linearGradient>
        <linearGradient id="little-car_vue_svg__e">
            <stop offset="0" stop-color="#858585" id="little-car_vue_svg__stop24"/>
            <stop offset="1" stop-color="#282828" id="little-car_vue_svg__stop26"/>
        </linearGradient>
        <linearGradient id="little-car_vue_svg__f">
            <stop offset="0" stop-color="#3e3e3e" id="little-car_vue_svg__stop29"/>
            <stop offset="1" id="little-car_vue_svg__stop31"/>
        </linearGradient>
        <linearGradient id="little-car_vue_svg__g">
            <stop offset="0" stop-color="#454545" id="little-car_vue_svg__stop34"/>
            <stop offset="1" stop-color="#0a0a0a" id="little-car_vue_svg__stop36"/>
        </linearGradient>
        <linearGradient id="little-car_vue_svg__h">
            <stop offset="0" stop-color="#4d4d4d" id="little-car_vue_svg__stop39"/>
            <stop offset="1" stop-color="#0b0b0b" id="little-car_vue_svg__stop41"/>
        </linearGradient>
        <clipPath clipPathUnits="userSpaceOnUse" id="little-car_vue_svg__i">
            <circle style="opacity:1;fill:none;fill-opacity:1;stroke:#1a191e;stroke-width:.86208731;stroke-linecap:round;stroke-linejoin:miter;stroke-miterlimit:4;stroke-dasharray:none;stroke-dashoffset:0;stroke-opacity:1" cx="-615.619" cy="-262.031" r="87.569" id="little-car_vue_svg__circle44"/>
        </clipPath>
    </defs>
    <path style="color:#000;shape-padding:0;clip-rule:nonzero;display:inline;overflow:visible;visibility:visible;opacity:1;isolation:auto;color-interpolation:sRGB;color-interpolation-filters:linearRGB;solid-color:#000;solid-opacity:1;vector-effect:none;fill:#ffd42f;fill-opacity:1;fill-rule:nonzero;stroke:#9b7f13;stroke-width:.89108306;stroke-linecap:round;stroke-linejoin:round;stroke-miterlimit:4;enable-background:accumulate" d="M163.198 43.743c-.288.269-.508.518-.843.796-1.43 1.185-3.198 2.393-4.604 3.07-1.364.657-2.222 1.31-4.518 2.007-.283.085-1.296.196-1.627.284.104.195 13.518 25.614 19.438 40.72 5.471 13.96 17.54 50.341 19.575 56.489h.042l-.006.104c.163.494 1.241 3.706 1.244 3.714.053.046 6.396 5.542 10.169 8.524 1.841 1.456 3.224 1.901 4.45 1.127.613-.387 1.164-.932 1.543-1.4.38-.466.786-1.625.85-1.805-.008.025.004-.019.004-.08 0-.062-.005-.15-.015-.258a15.56 15.56 0 0 0-.12-.888 85.167 85.167 0 0 0-.553-2.996 356.864 356.864 0 0 0-2.01-9.286c-1.612-7.063-3.605-15.092-4.939-19.381-1.325-4.264-6.59-16.526-11.924-28.485-5.333-11.96-10.744-23.65-12.363-26.814-3.21-6.279-13.547-24.996-13.793-25.442z" id="little-car_vue_svg__path49"/>
    <path style="color:#000;shape-padding:0;clip-rule:nonzero;display:inline;overflow:visible;visibility:visible;opacity:1;isolation:auto;color-interpolation:sRGB;color-interpolation-filters:linearRGB;solid-color:#000;solid-opacity:1;vector-effect:none;fill:#fdd72c;fill-opacity:1;fill-rule:nonzero;stroke:#9b7f13;stroke-width:.89108306;stroke-linecap:butt;stroke-linejoin:miter;stroke-miterlimit:4;enable-background:accumulate" d="M83.75 48.754c-9.071-.412-14.53 1.124-18.152 2.724.413-.025.515-.037 1.073-.057.594-.02 1.21-.033 1.728-.017.519.015.913.04 1.175.161.47.218.771.794 1.008 1.31.213.464.315.806.34.888.039.02 1.016.527 3.14 1.094 2.165.578 5.446 1.188 9.906 1.315 8.756.25 17.489-1.777 17.802-1.85-.096-.613-.198-1.208-.167-1.645.03-.45.296-.751.606-1.013-.076-.035-1.225-.56-4.099-1.202-2.966-.662-7.62-1.401-14.36-1.708z" id="little-car_vue_svg__path51"/>
    <path style="color:#000;shape-padding:0;clip-rule:nonzero;display:inline;overflow:visible;visibility:visible;opacity:1;isolation:auto;color-interpolation:sRGB;color-interpolation-filters:linearRGB;solid-color:#000;solid-opacity:1;vector-effect:none;fill:#fdd72c;fill-opacity:1;fill-rule:nonzero;stroke:#9b7f13;stroke-width:.89108306;stroke-linecap:butt;stroke-linejoin:miter;stroke-miterlimit:4;enable-background:accumulate" d="M70.947 54.196c-.033.358-1.313 14.242-1.818 19.997-.515 5.866-3.174 18.231-4.401 24.162-.617 2.98-2.178 8.87-3.391 14.178-.607 2.654-1.125 5.162-1.396 7.077-.136.958-.21 1.767-.204 2.365a3.472 3.472 0 0 0 .069.724c.042.178.105.28.147.314.735.613 2.278 1.51 4.428 2.445 2.15.936 4.915 1.918 8.126 2.733 3.216.817 7.764 1.801 11.73 2.542 1.983.37 3.821.678 5.271.876 1.45.197 2.543.272 2.912.21.845-.146 2.242-.73 3.406-1.278 1.164-.547 2.105-1.055 2.105-1.055l.018-.01.015-.005s.458-.147.957-.4c.499-.254 1.02-.632 1.16-.966-.005.012.02-.104.027-.267a9.795 9.795 0 0 0-.003-.657 62.38 62.38 0 0 0-.12-2.192c-.122-1.805-.32-4.234-.526-6.943-.411-5.416-.859-11.946-.822-16.842.072-9.762-.003-22.99 1.088-29.83a7034.758 7034.758 0 0 1 2.446-15.187l-.15-.556c-.11-.427-.178-.694-.2-.828-.005-.032-.003-.046-.009-.078-.39.091-9.065 2.105-17.853 1.854-4.49-.128-7.806-.745-10.001-1.33-2.013-.538-2.846-.97-3.011-1.053z" id="little-car_vue_svg__path53"/>
    <path style="color:#000;shape-padding:0;clip-rule:nonzero;display:inline;overflow:visible;visibility:visible;opacity:1;isolation:auto;color-interpolation:sRGB;color-interpolation-filters:linearRGB;solid-color:#000;solid-opacity:1;vector-effect:none;fill:#b80000;fill-opacity:1;fill-rule:nonzero;stroke:#890404;stroke-width:.89108306;stroke-linecap:butt;stroke-linejoin:miter;stroke-miterlimit:4;enable-background:accumulate" d="m60.258 123.638.015.155s-5.388.541-9.066 1.118c-3.58.562-10.583 3.123-10.793 3.2-.04 1.04-.038 1.246-.048 2.036.395.003 1.05.003 1.985.083 1.188.104 2.477.664 2.575.706l6.371-2.305c.054-.207.66-2.437 3.16-3.05.712-.174 1.875-.014 3.316.302 1.441.315 3.141.8 4.83 1.325 3.375 1.05 6.707 2.268 7.77 2.622 1.097.365 1.75.802 2.132 1.157.19.177.313.333.389.448.076.116.11.207.11.207l.126.34-.356-.074s-8.397-1.723-16.463 1.169c-7.924 2.84-15.734 10.039-16.014 10.297a126.898 126.898 0 0 1-.06 3.95 30.353 30.353 0 0 1-.11 1.779c-.048.475-.09.798-.198 1.014-.007.013-.037.025-.045.038l.07.007-.249 3.962 6.401-5.39c.025-.048 1.804-3.538 4.482-6.65 1.38-1.604 4.285-3.479 7.694-5.006 3.408-1.526 7.31-2.694 10.68-2.804 3.353-.11 5.75.476 7.313 1.091 1.473.58 2.09 1.136 2.17 1.205l6.187-2.733 11.224 1.166 28.545 13.458c-.073-.463-.08-.748-.158-1.22-.26-1.582-.735-3.553-1.04-5.247-.315-.18-6.744-3.85-11.216-6.034-4.538-2.215-13.255-6.206-13.446-6.294-.141.054-.402.172-.415.177 0 0-.95.515-2.126 1.067-1.176.553-2.568 1.145-3.514 1.307-.525.09-1.574-.008-3.034-.206a113.95 113.95 0 0 1-5.29-.88c-3.974-.742-8.527-1.727-11.756-2.547-3.233-.821-6.015-1.81-8.186-2.754-1.901-.826-3.1-1.561-3.962-2.191z" id="little-car_vue_svg__path55"/>
    <path style="color:#000;shape-padding:0;clip-rule:nonzero;display:inline;overflow:visible;visibility:visible;opacity:1;isolation:auto;color-interpolation:sRGB;color-interpolation-filters:linearRGB;solid-color:#000;solid-opacity:1;vector-effect:none;fill:#d4d4d4;fill-opacity:1;fill-rule:nonzero;stroke:#000;stroke-width:.89108306;stroke-linecap:butt;stroke-linejoin:miter;stroke-miterlimit:4;enable-background:accumulate" d="M17.827 124.594c.343.017.598.129.598.129l-.024-.009 3.026.846.006.003 1.51.562c.19.07.384.23.613.473.23.243.478.572.709.98a6.369 6.369 0 0 1 .804 3.32c-.039 1.349-.265 2.334-.595 3.028-.33.694-.769 1.1-1.232 1.25-.261.084-.574.062-.933 0a9.768 9.768 0 0 1-1.166-.296c-.808-.25-1.631-.564-2.087-.7-.972-.289-1.352-.628-1.806-.98-.16-.125-.3-.323-.451-.59a7.05 7.05 0 0 1-.449-.974c-.284-.753-.52-1.676-.559-2.575-.078-1.771.256-3.307.924-4.033.342-.372.77-.45 1.112-.434z" id="little-car_vue_svg__path57"/>
    <path style="color:#000;shape-padding:0;clip-rule:nonzero;display:inline;overflow:visible;visibility:visible;opacity:1;isolation:auto;color-interpolation:sRGB;color-interpolation-filters:linearRGB;solid-color:#000;solid-opacity:1;vector-effect:none;fill:#ff0d0d;fill-opacity:1;fill-rule:nonzero;stroke:#000;stroke-width:.89108306;stroke-linecap:butt;stroke-linejoin:miter;stroke-miterlimit:4;enable-background:accumulate" d="M18.267 125.094s-.764-.328-1.256.206c-.508.553-.891 2.037-.816 3.743.037.84.263 1.731.535 2.45.136.358.283.674.422.917.138.243.276.415.346.47.468.363.752.638 1.672.911.49.146 1.303.46 2.093.703a9.403 9.403 0 0 0 1.115.281c.33.057.604.059.738.015.33-.106.697-.414.993-1.037.297-.623.518-1.558.556-2.867a5.967 5.967 0 0 0-.753-3.11 4.68 4.68 0 0 0-.649-.9c-.205-.217-.396-.347-.46-.37l-1.495-.557-3.03-.849z" id="little-car_vue_svg__path59"/>
    <path style="color:#000;shape-padding:0;clip-rule:nonzero;display:inline;overflow:visible;visibility:visible;opacity:1;isolation:auto;color-interpolation:sRGB;color-interpolation-filters:linearRGB;solid-color:#000;solid-opacity:1;vector-effect:none;fill:#b80000;fill-opacity:1;fill-rule:nonzero;stroke:#890404;stroke-width:.89108306;stroke-linecap:butt;stroke-linejoin:miter;stroke-miterlimit:4;enable-background:accumulate" d="M54.553 125.976c-2.394.586-2.918 2.867-2.918 2.867l-.027.105-6.674 2.419-.072-.033s-1.426-.602-2.547-.7c-.916-.08-1.568-.077-1.959-.08-.013 1.898-.122 5.238-.122 5.238v.006s.073 3.268.075 6.682c0 .129-.007.236-.007.365.687-.632 8.048-7.342 15.873-10.148 7.837-2.81 15.517-1.364 16.215-1.229-.053-.062-.08-.108-.162-.185-.334-.31-.934-.717-1.985-1.067-1.086-.362-4.402-1.573-7.765-2.62-1.681-.523-3.371-1.004-4.793-1.315-1.421-.311-2.592-.438-3.133-.305z" id="little-car_vue_svg__path61"/>
    <path style="color:#000;shape-padding:0;clip-rule:nonzero;display:inline;overflow:visible;visibility:visible;opacity:1;isolation:auto;color-interpolation:sRGB;color-interpolation-filters:linearRGB;solid-color:#000;solid-opacity:1;vector-effect:none;fill:#d4d4d4;fill-opacity:1;fill-rule:nonzero;stroke:#000;stroke-width:.89108306;stroke-linecap:butt;stroke-linejoin:miter;stroke-miterlimit:4;enable-background:accumulate" d="M17.609 126.302c.12 0 .259.015.413.039a11.92 11.92 0 0 1 1.037.215c.718.177 1.39.383 1.39.383.003 0 .613.17 1.26.376.323.103.656.214.926.32a4.057 4.057 0 0 1 .353.156c.099.05.173.085.245.173.233.285.811 1.03.942 2.694.067.85-.121 1.558-.398 2.057-.138.25-.296.449-.466.59-.17.14-.353.23-.55.22-.102-.005-.218-.035-.389-.077-.17-.043-.385-.101-.628-.17a57.294 57.294 0 0 1-3.313-1.068c-.226-.082-.42-.157-.568-.219a3 3 0 0 1-.185-.083c-.051-.026-.086-.039-.14-.093a1.627 1.627 0 0 1-.252-.365 5.99 5.99 0 0 1-.29-.604 6.964 6.964 0 0 1-.475-1.665c-.089-.62.005-1.238.158-1.74a3.527 3.527 0 0 1 .27-.652c.098-.179.191-.318.32-.41.117-.084.22-.078.34-.077z" id="little-car_vue_svg__path63"/>
    <path style="color:#000;shape-padding:0;clip-rule:nonzero;display:inline;overflow:visible;visibility:visible;opacity:1;isolation:auto;color-interpolation:sRGB;color-interpolation-filters:linearRGB;solid-color:#000;solid-opacity:1;vector-effect:none;fill:#fff;fill-opacity:1;fill-rule:nonzero;stroke:#000;stroke-width:.89108306;stroke-linecap:butt;stroke-linejoin:miter;stroke-miterlimit:4;enable-background:accumulate" d="M17.606 126.709c-.088-.001-.14.026-.102 0-.032.022-.12.125-.203.274a3.72 3.72 0 0 0-.38 2.141 6.601 6.601 0 0 0 .449 1.564 5.759 5.759 0 0 0 .269.565 1.647 1.647 0 0 0 .185.275c-.027-.027 0 0 .036.018a2.857 2.857 0 0 0 .162.072c.136.057.324.128.547.21a57.043 57.043 0 0 0 3.289 1.061c.24.068.45.127.613.167.163.04.29.062.31.063.047.003.149-.03.27-.129.12-.1.256-.26.373-.472.236-.425.408-1.053.347-1.827-.124-1.584-.625-2.192-.852-2.47.014.018-.037-.031-.116-.072-.08-.04-.19-.087-.317-.137-.255-.1-.581-.21-.9-.311-.638-.203-1.247-.374-1.247-.374h-.006s-.668-.203-1.373-.377a11.785 11.785 0 0 0-.998-.209 2.656 2.656 0 0 0-.356-.033z" id="little-car_vue_svg__path65"/>
    <path style="color:#000;shape-padding:0;clip-rule:nonzero;display:inline;overflow:visible;visibility:visible;opacity:1;isolation:auto;color-interpolation:sRGB;color-interpolation-filters:linearRGB;solid-color:#000;solid-opacity:1;vector-effect:none;fill:#595959;fill-opacity:1;fill-rule:nonzero;stroke:#000;stroke-width:.89108306;stroke-linecap:butt;stroke-linejoin:miter;stroke-miterlimit:4;enable-background:accumulate" d="M155.263 128.783c-4.71-.698-8.872 2.94-8.964 3.02 2.86 9.533 6.972 23.127 7.38 24.497.138-.081 2.116-1.149 3.808-2.07l-6.003-16.83.024.048s-.207-.304-.29-.795c-.084-.491-.049-1.187.388-1.986.878-1.602 2.418-1.662 3.188-1.767.486-.066.946.211 1.267.691.322.48.533 1.172.59 2.03.109 1.68-.003 2.98-.515 4.77-.502 1.757-1.527 4.35-1.567 4.451l2.096 5.881c.052-.03.053-.022.159-.098a5.42 5.42 0 0 0 .855-.802c.704-.796 1.624-2.181 2.449-4.53 1.645-4.686 1.36-9.833 1.252-11.307-.101-1.386-1.315-4.491-6.117-5.203z" id="little-car_vue_svg__path67"/>
    <path style="color:#000;shape-padding:0;clip-rule:nonzero;display:inline;overflow:visible;visibility:visible;opacity:1;isolation:auto;color-interpolation:sRGB;color-interpolation-filters:linearRGB;solid-color:#000;solid-opacity:1;vector-effect:none;fill:#d4d4d4;fill-opacity:1;fill-rule:nonzero;stroke:#000;stroke-width:.89108306;stroke-linecap:butt;stroke-linejoin:miter;stroke-miterlimit:4;enable-background:accumulate" d="M154.847 133.304c-.821.112-2.099.122-2.885 1.558-.395.72-.414 1.309-.344 1.722.07.413.224.634.224.634l.015.02 2.497 7c.209-.536.953-2.418 1.393-3.958.502-1.755.607-2.984.5-4.632-.053-.805-.257-1.435-.524-1.833-.266-.397-.567-.553-.876-.51z" id="little-car_vue_svg__path69"/>
    <path style="color:#000;shape-padding:0;clip-rule:nonzero;display:inline;overflow:visible;visibility:visible;opacity:1;isolation:auto;color-interpolation:sRGB;color-interpolation-filters:linearRGB;solid-color:#000;solid-opacity:1;vector-effect:none;fill:#b80000;fill-opacity:1;fill-rule:nonzero;stroke:#890404;stroke-width:.89108306;stroke-linecap:butt;stroke-linejoin:miter;stroke-miterlimit:4;enable-background:accumulate" d="m84.694 134.249-6.16 2.578c.082.208 1.219 2.554 2.193 5.055a679.71 679.71 0 0 1 1.384 3.582c.186.487.34.891.443 1.172.051.14.09.25.116.326.012.038.023.067.03.093.003.013.007.019.01.047v.033l-.008.033 5.938 38.134c3.84 1.521 7.06 2.468 10.238 3.376l-5.074-53.481z" id="little-car_vue_svg__path71"/>
    <path style="color:#000;shape-padding:0;clip-rule:nonzero;display:inline;overflow:visible;visibility:visible;opacity:1;isolation:auto;color-interpolation:sRGB;color-interpolation-filters:linearRGB;solid-color:#000;solid-opacity:1;vector-effect:none;fill:#b80000;fill-opacity:1;fill-rule:nonzero;stroke:#890404;stroke-width:.89108306;stroke-linecap:butt;stroke-linejoin:miter;stroke-miterlimit:4;enable-background:accumulate" d="M68.973 134.679c-3.285.108-7.155 1.255-10.527 2.766-3.373 1.511-6.256 3.397-7.553 4.904-2.656 3.086-4.455 6.613-4.455 6.613l-.021.036-6.644 5.597c.26.083.505.155.894.347a34.36 34.36 0 0 1 1.977 1.08c1.104.642 2.507 1.54 3.875 2.406.155-.778.878-4.208 2.75-7.286 1.022-1.679 1.814-3.617 3.789-5.606 1.974-1.99 5.122-4.021 10.844-5.938 5.77-1.933 10.478-.09 13.715 2.227 2.229 1.596 3.959 4.248 4.705 5.23-.04-.108-.241-1.508-.286-1.626-.372-.972-1.002-2.292-1.51-3.597-.974-2.502-2.057-4.612-2.138-4.817l-.08-.072s-.671-.606-2.183-1.202c-1.512-.596-3.851-1.17-7.152-1.062zm25.238.56 5.09 53.57c1.154.326 2.743.924 3.71 1.163 6.457 1.597 15.567 1.64 16.196 1.642-.593-.672-1.27-1.423-1.743-2.386-.558-1.136-.827-2.47-.299-3.902l.003-.007v-.003c1.463-3.459 3.352-6.91 5.397-10.88l-.281.095s-1.503-4.378-.828-8.74c.675-4.362 3.855-10.385 3.857-10.39-.259-2.101-.469-4.031-.85-6.467l-28.718-13.538Z" id="little-car_vue_svg__path73"/>
    <path style="color:#000;shape-padding:0;clip-rule:nonzero;display:inline;overflow:visible;visibility:visible;opacity:1;isolation:auto;color-interpolation:sRGB;color-interpolation-filters:linearRGB;solid-color:#000;solid-opacity:1;vector-effect:none;fill:#b80000;fill-opacity:1;fill-rule:nonzero;stroke:#890404;stroke-width:.89108306;stroke-linecap:butt;stroke-linejoin:miter;stroke-miterlimit:4;enable-background:accumulate" d="M68.05 139.206a14.91 14.91 0 0 0-4.02.778c-5.682 1.903-8.765 3.904-10.685 5.839-1.92 1.935-2.687 3.812-3.732 5.528-1.877 3.087-2.617 6.7-2.735 7.299.39.249.698.425 1.097.682 3.872 2.497 7.98 5.281 9.897 6.583 3.855 2.619 9.265 7.384 17.933 13.019 3.757 2.441 8.116 4.46 12.4 6.18l-5.915-37.975c-.025-.04-1.763-2.732-4.91-4.985-2.376-1.701-5.526-3.134-9.33-2.948z" id="little-car_vue_svg__path75"/>
    <path style="color:#000;shape-padding:0;clip-rule:nonzero;display:inline;overflow:visible;visibility:visible;opacity:1;isolation:auto;color-interpolation:sRGB;color-interpolation-filters:linearRGB;solid-color:#000;solid-opacity:1;vector-effect:none;fill:#595959;fill-opacity:1;fill-rule:nonzero;stroke:#000;stroke-width:.89108306;stroke-linecap:butt;stroke-linejoin:miter;stroke-miterlimit:4;enable-background:accumulate" d="M125.408 156.147c-.426.833-2.949 5.814-3.552 9.709-.64 4.14.725 8.255.784 8.431.884-1.713 1.883-3.864 2.353-4.745.005-.128.045-1.463.17-2.34.072-.502.354-1.14.616-1.675.227-.463.389-.735.443-.829a51.701 51.701 0 0 0-.192-3.806c-.106-1.254-.443-3.237-.622-4.745z" id="little-car_vue_svg__path77"/>
    <path style="color:#000;shape-padding:0;clip-rule:nonzero;display:inline;overflow:visible;visibility:visible;opacity:1;isolation:auto;color-interpolation:sRGB;color-interpolation-filters:linearRGB;solid-color:#000;solid-opacity:1;vector-effect:none;fill:#d4d4d4;fill-opacity:1;fill-rule:nonzero;stroke:#616161;stroke-width:.89108306;stroke-linecap:butt;stroke-linejoin:miter;stroke-miterlimit:4;enable-background:accumulate" d="M12.837 157.837c-.318.015-.458.14-.736.2-.57.124-1.203.24-1.512.413-.154.085-.46.472-.75.992a19.59 19.59 0 0 0-.868 1.806 44.53 44.53 0 0 0-.966 2.479l-.06.17-.176-.039s-.988-.229-1.564.571c-.278.386-.364 1.027-.278 1.696.087.668.343 1.359.679 1.83a19.226 19.226 0 0 1 1.28 2.086l.033.063-.016.069s-.48 2.42.906 4.326c.726.999 1.15 1.65 1.642 2.078.492.43 1.064.666 2.167.844 1.088.175 1.94.035 2.52-.147.58-.182.874-.398.874-.398l.069-.047.083.012s.604.096 1.346.125c.742.03 1.623-.022 2.114-.26.045-.022.18-.175.293-.451a7.175 7.175 0 0 0 .287-.972c-.157.005-.388.015-.88 0-.627-.02-1.38-.074-1.93-.24a4.764 4.764 0 0 1-1.77-.992l-.075-.072.849-6.972.28.215s.304.234.668.49c.363.256.806.539.992.607.071.026.31.066.592.087.282.021.619.03.945.033.326.003.643 0 .882-.01a4.751 4.751 0 0 0 .29-.02h.01c.01-.17.08-.927.08-.927v-.006s.087-1.191-.371-1.976c-.227-.39-.822-1.04-1.351-1.57-.53-.53-.996-.95-.996-.95l-.066-.06v-.085s-.07-2.539-2.3-4.072a5.127 5.127 0 0 0-3.216-.927z" id="little-car_vue_svg__path79"/>
    <path style="color:#000;shape-padding:0;clip-rule:nonzero;display:inline;overflow:visible;visibility:visible;opacity:1;isolation:auto;color-interpolation:sRGB;color-interpolation-filters:linearRGB;solid-color:#000;solid-opacity:1;vector-effect:none;fill:#595959;fill-opacity:1;fill-rule:nonzero;stroke:#000;stroke-width:.89108306;stroke-linecap:butt;stroke-linejoin:miter;stroke-miterlimit:4;enable-background:accumulate" d="M126.246 165.512c-.05.096-.049.086-.102.194-.255.52-.524 1.158-.58 1.552-.069.48-.07.811-.099 1.327.08-.147.494-1.001.538-1.082.064-.115.135-.375.18-.741.04-.325.055-.765.063-1.25z" id="little-car_vue_svg__path81"/>
    <path style="color:#000;shape-padding:0;clip-rule:nonzero;display:inline;overflow:visible;visibility:visible;opacity:1;isolation:auto;color-interpolation:sRGB;color-interpolation-filters:linearRGB;solid-color:#000;solid-opacity:1;vector-effect:none;fill:#d4d4d4;fill-opacity:1;fill-rule:nonzero;stroke:#616161;stroke-width:.89108306;stroke-linecap:butt;stroke-linejoin:miter;stroke-miterlimit:4;enable-background:accumulate" d="m16.715 167.754-.736 6.046c.056.052.605.577 1.531.855.473.142 1.214.205 1.827.224.53.017.84.003.948 0a33.617 33.617 0 0 0 .46-2.915c.187-1.597.222-2.358.275-3.148-.073.006-.15.013-.248.018a18.104 18.104 0 0 1-1.871-.024c-.296-.022-.53-.047-.703-.11-.3-.111-.714-.394-1.085-.656-.217-.152-.273-.195-.398-.29z" id="little-car_vue_svg__path83"/>
    <path style="color:#000;shape-padding:0;clip-rule:nonzero;display:inline;overflow:visible;visibility:visible;opacity:1;isolation:auto;color-interpolation:sRGB;color-interpolation-filters:linearRGB;solid-color:#000;solid-opacity:1;vector-effect:none;fill:#cc0505;fill-opacity:1;fill-rule:nonzero;stroke:#890404;stroke-width:.89108306;stroke-linecap:butt;stroke-linejoin:miter;stroke-miterlimit:4;enable-background:accumulate" d="M13.028 201.974c-.167.079-.39.21-.643.455-.526.509-1.16 1.478-1.515 3.327-.348 1.807.313 3.825 1.465 5.717 1.15 1.892 2.786 3.65 4.326 4.94a361.995 361.995 0 0 0 6.201 5.076l.045-.017.03.08c1.084.863 1.796 1.48 2.918 2.386l.099-.012.007.102c2.405 1.942 4.593 3.603 6.258 5.121 2.079 1.897 5.418 5.6 9.104 9.422 3.686 3.821 7.716 7.755 11.126 10.088 6.847 4.685 17.247 9.67 27.998 12.411 10.725 2.735 22.776 1.298 32.958-1.085 6.502-1.522 12.314-5.06 17.102-7.113 2.696-1.157 5.126-1.303 6.946-1.636 2.625-.48 7.596-.24 14.035-.033 6.438.207 14.327.387 22.705-.191 16.765-1.156 24.748-3.678 32.976-7.72 8.21-4.033 12.557-9.207 15.521-12.821 1.467-1.789 3.084-4.449 4.404-6.919 1.321-2.47 2.351-4.766 2.647-5.773.304-1.038.44-1.83.293-2.751-.148-.92-.588-1.986-1.469-3.531-.873-1.533-1.727-2.348-2.356-2.78-.508-.352-.7-.365-.813-.39.027.101.06.17.075.308.058.535-.004 1.362-.446 2.578-.87 2.395-3.854 10.107-11.777 16.794-7.902 6.67-13.965 9.374-23.54 10.462-9.56 1.086-18.522.507-18.54.505 0 0-17.696.039-29.317 2.485-11.631 2.449-27.094 8.422-32.384 10.306-5.282 1.882-7.439 2.544-18.947 2.326-11.564-.218-25.12-5.953-37.587-15.592-12.477-9.648-19.024-21.534-25.6-26.252-3.318-2.38-6.312-4.13-8.632-5.412-2.32-1.281-3.944-2.07-4.613-2.622-.951-.783-1.053-1.685-1.059-2.24z" id="little-car_vue_svg__path85"/>
    <path style="color:#000;shape-padding:0;clip-rule:nonzero;display:inline;overflow:visible;visibility:visible;opacity:1;isolation:auto;color-interpolation:sRGB;color-interpolation-filters:linearRGB;solid-color:#000;solid-opacity:1;vector-effect:none;fill:#d4d4d4;fill-opacity:1;fill-rule:nonzero;stroke:#000;stroke-width:.89108306;stroke-linecap:butt;stroke-linejoin:miter;stroke-miterlimit:4;enable-background:accumulate" d="m23.236 222.321.73 1.871c.49-.058 1.158-.163 1.339-.179-.797-.642-1.288-1.07-2.069-1.692z" id="little-car_vue_svg__path87"/>
    <path style="color:#000;shape-padding:0;clip-rule:nonzero;display:inline;overflow:visible;visibility:visible;opacity:1;isolation:auto;color-interpolation:sRGB;color-interpolation-filters:linearRGB;solid-color:#000;solid-opacity:1;vector-effect:none;fill:#0f0f0f;fill-opacity:1;fill-rule:nonzero;stroke:#000;stroke-width:.89108306;stroke-linecap:butt;stroke-linejoin:miter;stroke-miterlimit:4;enable-background:accumulate" d="M25.733 224.363c-.403.034-6.335.552-10.836 2.508-2.326 1.012-5.217 2.855-7.705 5.14-2.489 2.286-4.571 5.014-5.322 7.768-.754 2.766-.808 6.933-.449 10.847.36 3.915 1.136 7.596 1.97 9.368.853 1.81 2.687 5.126 5.182 8.252 2.496 3.127 5.653 6.058 9.117 7.137 3.483 1.086 7.761 1.068 11.63.509 3.87-.56 7.338-1.664 9.18-2.691 3.741-2.089 5.741-4.097 7.424-6.172 2.605-3.212 3.628-6.022 3.931-7.6.512-2.66.916-4.785.715-7-.203-2.228-.867-5.4-.867-5.4l.099-.02c-2.865-2.326-5.891-5.17-8.773-8.157-3.692-3.827-7.042-7.539-9.086-9.403-1.641-1.497-3.825-3.16-6.21-5.086z" id="little-car_vue_svg__path89"/>
    <path style="color:#000;shape-padding:0;clip-rule:nonzero;display:inline;overflow:visible;visibility:visible;opacity:1;isolation:auto;color-interpolation:sRGB;color-interpolation-filters:linearRGB;solid-color:#000;solid-opacity:1;vector-effect:none;fill:#010101;fill-opacity:1;fill-rule:nonzero;stroke:#000;stroke-width:.89108306;stroke-linecap:butt;stroke-linejoin:miter;stroke-miterlimit:4;enable-background:accumulate" d="M222.842 230.902c-2.966 3.612-7.327 8.743-15.494 12.755-.372.182-.762.32-1.133.496l-4.743 11.93c.41.034 1.954.216 2.733 1.842.431.899.59 1.813.485 2.595-.106.783-.49 1.443-1.137 1.776-.593.306-1.021.436-1.393.446-.372.01-.668-.1-.978-.219a1.507 1.507 0 0 1-.681-.49c-.083-.11-.09-.154-.11-.212-.576.223-1.098.38-1.562.35-.519-.035-.982-.265-1.405-.688-.458-.459-.55-1.13-.46-1.884.089-.752.355-1.613.663-2.52.314-.924 1.444-3.788 2.497-6.438.96-2.416 1.7-4.255 1.85-4.628-4.787 1.906-10.182 3.365-17.58 4.368-.032.139-.27 1.075-.129 3.262.152 2.338.75 5.848 2.533 10.51 3.555 9.294 10.542 13.085 16.146 15.225 5.584 2.132 12 2.493 19.47-1.675 7.49-4.177 12.6-9.412 13.709-15.254 1.124-5.926 1.432-9.175-1.477-17.85-2.833-8.45-11.504-13.522-11.804-13.697z" id="little-car_vue_svg__path91"/>
    <path style="color:#000;shape-padding:0;clip-rule:nonzero;display:inline;overflow:visible;visibility:visible;opacity:1;isolation:auto;color-interpolation:sRGB;color-interpolation-filters:linearRGB;solid-color:#000;solid-opacity:1;vector-effect:none;fill:#d4d4d4;fill-opacity:1;fill-rule:nonzero;stroke:#000;stroke-width:.89108306;stroke-linecap:butt;stroke-linejoin:miter;stroke-miterlimit:4;enable-background:accumulate" d="M14.79 241.917c1.24-.031 3.197.176 4.801 1.034.82.44 1.985 1.432 3.188 2.703 1.202 1.271 2.43 2.816 3.327 4.354.912 1.562 1.393 3.73 1.447 5.935.055 2.205-.314 4.448-1.148 6.17a6.685 6.685 0 0 1-3.56 3.344c-1.379.554-2.786.614-3.798.346-.951-.25-3.304-.813-5.534-2.607-2.23-1.793-4.342-4.829-4.853-9.974-.51-5.137.682-7.971 2.189-9.514 1.507-1.543 3.295-1.775 3.94-1.791z" id="little-car_vue_svg__path93"/>
    <path style="color:#000;shape-padding:0;clip-rule:nonzero;display:inline;overflow:visible;visibility:visible;opacity:1;isolation:auto;color-interpolation:sRGB;color-interpolation-filters:linearRGB;solid-color:#000;solid-opacity:1;vector-effect:none;fill:#f6f6f6;fill-opacity:1;fill-rule:nonzero;stroke:#000;stroke-width:.89108306;stroke-linecap:butt;stroke-linejoin:miter;stroke-miterlimit:4;enable-background:accumulate" d="M14.799 242.32c-.567.014-2.251.227-3.66 1.669-1.409 1.442-2.578 4.133-2.075 9.194.502 5.052 2.549 7.967 4.703 9.7 2.155 1.732 4.416 2.274 5.382 2.529.905.239 2.245.19 3.543-.332a6.263 6.263 0 0 0 3.349-3.143c.794-1.64 1.163-3.833 1.109-5.985-.054-2.153-.533-4.263-1.393-5.738-.875-1.5-2.087-3.03-3.271-4.282-1.185-1.251-2.351-2.229-3.086-2.622-1.506-.805-3.419-1.02-4.601-.99z" id="little-car_vue_svg__path95"/>
    <path style="color:#000;shape-padding:0;clip-rule:nonzero;display:inline;overflow:visible;visibility:visible;opacity:1;isolation:auto;color-interpolation:sRGB;color-interpolation-filters:linearRGB;solid-color:#000;solid-opacity:1;vector-effect:none;fill:#d4d4d4;fill-opacity:1;fill-rule:nonzero;stroke:#000;stroke-width:.89108306;stroke-linecap:butt;stroke-linejoin:miter;stroke-miterlimit:4;enable-background:accumulate" d="M205.686 244.386a71.75 71.75 0 0 1-3.182 1.397c-.023.058-.966 2.392-2.006 5.008-1.053 2.648-2.184 5.535-2.485 6.42-.306.9-.563 1.742-.645 2.436-.083.694.006 1.212.343 1.549.373.373.724.543 1.146.571.42.028.923-.096 1.56-.362 1.268-.528 1.764-1.135 2.075-1.653.103-.172.067-.523-.074-.91-.142-.385-.362-.786-.509-1.06-.015-.03-.025-.035-.05-.045a.3.3 0 0 0-.132-.016c-.124.01-.305.068-.479.147-.347.157-.672.382-.672.382l-.553.39zm-155.528 2.916c.036.175.215 1.444.385 2.4.01.006 1.415.754 2.856 1.077 1.37.307 2.638.412 2.82.428-1.26-.753-2.907-1.464-4.001-2.213-.648-.443-1.379-1.15-2.06-1.692zm-29.682 2.248c.603.063 1.02.272 1.492.613.28.202.634.624.957 1.14.324.514.606 1.106.649 1.653.04.508.007 1.164-.218 1.773-.226.608-.66 1.173-1.4 1.438-.728.261-1.532.225-2.185.098a5.081 5.081 0 0 1-.843-.236c-.228-.087-.378-.15-.494-.266-.036-.036-.204-.178-.391-.374a3.89 3.89 0 0 1-.592-.783c-.285-.503-.372-1.2-.219-1.97l-.09-.027s.104-.197.153-.314c.038-.115.006-.208.06-.326.95-2.084 2.44-2.49 3.122-2.419z" id="little-car_vue_svg__path97"/>
    <path style="color:#000;shape-padding:0;clip-rule:nonzero;display:inline;overflow:visible;visibility:visible;opacity:1;isolation:auto;color-interpolation:sRGB;color-interpolation-filters:linearRGB;solid-color:#000;solid-opacity:1;vector-effect:none;fill:#f70000;fill-opacity:1;fill-rule:nonzero;stroke:#000;stroke-width:.89108306;stroke-linecap:butt;stroke-linejoin:miter;stroke-miterlimit:4;enable-background:accumulate" d="M20.43 249.697c-.415-.043-1.52.392-2.433 1.778.168-.07.245-.261.459-.23.544.08 1.09.456 1.529.937.44.48.774 1.073.806 1.65.03.553-.16 1.026-.408 1.376-.247.35-.535.582-.796.676-.06.02-.126-.003-.188.007.137.038.249.08.408.111.645.125 1.431.153 2.099-.086.657-.235 1.024-.716 1.233-1.28.209-.565.246-1.208.207-1.702-.036-.453-.305-1.053-.628-1.567s-.712-.957-.904-1.096c-.48-.304-.953-.525-1.383-.574z" id="little-car_vue_svg__path99"/>
    <path style="color:#000;shape-padding:0;clip-rule:nonzero;display:inline;overflow:visible;visibility:visible;opacity:1;isolation:auto;color-interpolation:sRGB;color-interpolation-filters:linearRGB;solid-color:#000;solid-opacity:1;vector-effect:none;fill:#d4d4d4;fill-opacity:1;fill-rule:nonzero;stroke:#000;stroke-width:.89108306;stroke-linecap:butt;stroke-linejoin:miter;stroke-miterlimit:4;enable-background:accumulate" d="M159.072 251.796c-.012.15-.089 1.042-.027 2.356.068 1.418.31 3.125.942 4.245.634 1.121 1.488 1.466 2.539 1.4 1.05-.067 2.286-.59 3.528-1.274 2.52-1.39 5.759-2.757 5.759-2.757l.227-.098.05.245s.014.07.016.185c.001.114-.006.285-.036.526-.061.483-.218 1.243-.601 2.392-.755 2.263-3.059 8.202-3.125 8.372l2.234 2.509c.098-.298.922-2.801 1.874-5.732a661.774 661.774 0 0 0 1.418-4.401c.401-1.267.698-2.236.753-2.482.125-.553.283-1.422.296-2.24.013-.816-.136-1.561-.523-1.904-.403-.356-1.04-.426-1.767-.326-.727.1-1.522.365-2.186.616-.622.235-2.444 1.211-4.18 2.072-.868.43-1.72.833-2.413 1.11-.346.138-.65.245-.906.307-.254.062-.453.104-.648.016-.176-.08-.278-.239-.362-.425a3.443 3.443 0 0 1-.207-.673c-.11-.514-.18-1.15-.224-1.773-.081-1.144-.073-2.069-.072-2.242z" id="little-car_vue_svg__path101"/>
    <path style="color:#000;shape-padding:0;clip-rule:nonzero;display:inline;overflow:visible;visibility:visible;opacity:1;isolation:auto;color-interpolation:sRGB;color-interpolation-filters:linearRGB;solid-color:#000;solid-opacity:1;vector-effect:none;fill:#f70000;fill-opacity:1;fill-rule:nonzero;stroke:#000;stroke-width:.89108306;stroke-linecap:butt;stroke-linejoin:miter;stroke-miterlimit:4;enable-background:accumulate" d="M18.336 251.372c-.418-.062-.692.181-.904.486-.042.062-.028.068-.062.129-.388 1.043-.277 1.922.088 2.57.198.349.438.64.648.86.115.12.176.168.26.244.068.017.187.052.417.084.287.041.634.045.758 0 .138-.049.448-.267.68-.596a2 2 0 0 0 .378-1.27c-.027-.48-.349-1.093-.798-1.585-.45-.492-1.026-.858-1.464-.922z" id="little-car_vue_svg__path103"/>
    <path style="color:#000;shape-padding:0;clip-rule:nonzero;display:inline;overflow:visible;visibility:visible;opacity:1;isolation:auto;color-interpolation:sRGB;color-interpolation-filters:linearRGB;solid-color:#000;solid-opacity:1;vector-effect:none;fill:#d4d4d4;fill-opacity:1;fill-rule:nonzero;stroke:#000;stroke-width:.89108306;stroke-linecap:butt;stroke-linejoin:miter;stroke-miterlimit:4;enable-background:accumulate" d="m201.326 256.457-.463 1.166c.1-.056.101-.073.218-.125a1.862 1.862 0 0 1 .616-.18.696.696 0 0 1 .314.042.517.517 0 0 1 .254.233c.143.268.375.682.532 1.11.157.427.265.888.042 1.258-.314.525-.958 1.15-2.096 1.684.005.016.013.053.084.146.083.11.23.249.502.353.306.117.534.2.822.191.289-.007.654-.107 1.217-.397.511-.264.825-.785.918-1.471.093-.687-.044-1.528-.445-2.365-.723-1.509-2.281-1.631-2.515-1.645z" id="little-car_vue_svg__path105"/>
    <path style="color:#000;shape-padding:0;clip-rule:nonzero;display:inline;overflow:visible;visibility:visible;opacity:1;isolation:auto;color-interpolation:sRGB;color-interpolation-filters:linearRGB;solid-color:#000;solid-opacity:1;vector-effect:none;fill:#010101;fill-opacity:1;fill-rule:nonzero;stroke:#000;stroke-width:.89108306;stroke-linecap:butt;stroke-linejoin:miter;stroke-miterlimit:4;enable-background:accumulate" d="M153.287 259.36c-7.885-1.112-17.13 3.263-20.738 5.346-3.577 2.066-9.27 7.6-10.232 15.856-.967 8.298.65 15.134 6.312 24.162 2.814 4.488 6.8 7.512 10.408 9.43 3.608 1.918 6.86 2.729 8.1 2.802 2.61.153 6.851.46 12.333-2.028 5.495-2.493 11.066-6.602 12.958-9.391l.012-.015.012-.016s1.466-1.45 2.796-4.464c1.33-3.014 2.512-7.579 1.902-13.783-1.22-12.402-9.12-19.477-9.12-19.477l-.006-.006-.006-.007s-6.857-7.3-14.731-8.41z" id="little-car_vue_svg__path107"/>
    <path style="color:#000;shape-padding:0;clip-rule:nonzero;display:inline;overflow:visible;visibility:visible;opacity:1;isolation:auto;color-interpolation:sRGB;color-interpolation-filters:linearRGB;solid-color:#000;solid-opacity:1;vector-effect:none;fill:#d4d4d4;fill-opacity:1;fill-rule:nonzero;stroke:#000;stroke-width:.89108306;stroke-linecap:butt;stroke-linejoin:miter;stroke-miterlimit:4;enable-background:accumulate" d="M140.523 278.433c1.094.172 2.66.699 4.574 2.096 3.83 2.794 6.932 7.434 7.14 12.07.103 2.286.044 4.385-.675 6.294-.72 1.91-2.102 3.614-4.587 5.09-2.52 1.495-4.91.995-6.835-.12-1.925-1.116-3.42-2.834-4.264-3.806-.833-.96-2.072-2.161-3.04-4.118-.969-1.956-1.665-4.667-1.46-8.659.208-4.021 2.069-6.255 3.875-7.453 1.795-1.19 3.52-1.37 3.544-1.373.008-.003.64-.191 1.728-.02z" id="little-car_vue_svg__path109"/>
    <path style="color:#000;shape-padding:0;clip-rule:nonzero;display:inline;overflow:visible;visibility:visible;opacity:1;isolation:auto;color-interpolation:sRGB;color-interpolation-filters:linearRGB;solid-color:#000;solid-opacity:1;vector-effect:none;fill:#fff;fill-opacity:1;fill-rule:nonzero;stroke:#000;stroke-width:.89108306;stroke-linecap:butt;stroke-linejoin:miter;stroke-miterlimit:4;enable-background:accumulate" d="M140.46 278.834c-1.028-.161-1.56.006-1.56.006l-.019.007-.02.003s-1.663.174-3.385 1.315c-1.722 1.142-3.494 3.232-3.696 7.137-.203 3.936.48 6.567 1.417 8.459.937 1.892 2.13 3.047 2.984 4.03.844.972 2.315 2.652 4.162 3.723 1.847 1.07 4.032 1.542 6.423.123 2.424-1.44 3.729-3.059 4.416-4.883.687-1.824.754-3.869.652-6.135-.201-4.468-3.236-9.034-6.976-11.763-1.87-1.364-3.37-1.86-4.398-2.021z" id="little-car_vue_svg__path111"/>
    <path style="color:#000;shape-padding:0;clip-rule:nonzero;display:inline;overflow:visible;visibility:visible;opacity:1;isolation:auto;color-interpolation:sRGB;color-interpolation-filters:linearRGB;solid-color:#000;solid-opacity:1;vector-effect:none;fill:#d4d4d4;fill-opacity:1;fill-rule:nonzero;stroke:#000;stroke-width:.89111662;stroke-linecap:round;stroke-linejoin:round;stroke-miterlimit:4;enable-background:accumulate" d="M144.233 286.559c.943-.049 1.682.502 2.198 1.101a5.809 5.809 0 0 1 .93 1.525c.21.526.295 1.168.104 2.81l-.002.018-.006.018c-.055.173-.074.392-.233.65-.16.257-.447.529-1.014.872-.64.388-1.684.618-2.619.458-.384-.066-.692-.356-1.014-.497-.167-.129-.196-.139-.343-.17-.233-.14-.477-.106-.736-.359-.398-.389-.675-.974-.807-1.606-.132-.631-.116-1.315.11-1.904a5.437 5.437 0 0 1 1.184-1.836c.572-.574 1.33-1.03 2.249-1.08z" id="little-car_vue_svg__path113"/>
    <path style="color:#000;shape-padding:0;clip-rule:nonzero;display:inline;overflow:visible;visibility:visible;opacity:1;isolation:auto;color-interpolation:sRGB;color-interpolation-filters:linearRGB;solid-color:#000;solid-opacity:1;vector-effect:none;fill:#f72222;fill-opacity:1;fill-rule:nonzero;stroke:#000;stroke-width:.89108306;stroke-linecap:butt;stroke-linejoin:miter;stroke-miterlimit:4;enable-background:accumulate" d="M144.254 286.966c-.798.043-1.46.436-1.982.96-.329.33-.484.702-.688 1.068.172-.06.328-.142.538-.132.327.016.687.153 1.008.473.321.319.61.814.84 1.551.231.74.256 1.287.138 1.702a1.3 1.3 0 0 1-.679.822c-.07.034-.079-.005-.15.018.132.03.221.159.377.185.817.14 1.82-.085 2.344-.403.537-.326.767-.561.88-.742.106-.172.119-.324.182-.532.185-1.6.104-2.144-.078-2.601a5.496 5.496 0 0 0-.858-1.412c-.47-.547-1.097-.997-1.872-.956z" id="little-car_vue_svg__path115"/>
    <path style="color:#000;shape-padding:0;clip-rule:nonzero;display:inline;overflow:visible;visibility:visible;opacity:1;isolation:auto;color-interpolation:sRGB;color-interpolation-filters:linearRGB;solid-color:#000;solid-opacity:1;vector-effect:none;fill:#f72222;fill-opacity:1;fill-rule:nonzero;stroke:#000;stroke-width:.89108306;stroke-linecap:butt;stroke-linejoin:miter;stroke-miterlimit:4;enable-background:accumulate" d="M142.104 289.269a1.2 1.2 0 0 0-.825.293c-.048.043-.073.089-.066.072l-.032-.016-.003.003c-.19.496-.208 1.107-.09 1.675.119.567.376 1.089.694 1.399.32.313.603.296.867.424.203.007.345.055.6-.071a.85.85 0 0 0 .467-.571c.088-.308.082-.779-.134-1.471-.217-.695-.48-1.125-.739-1.382-.258-.256-.506-.344-.738-.356z" id="little-car_vue_svg__path117"/>
    <g transform="translate(104.633 41.978)" id="little-car_vue_svg__g123">
        <circle style="opacity:1;fill:#fff;fill-opacity:1;stroke:#1a191e;stroke-width:2;stroke-linecap:round;stroke-linejoin:miter;stroke-miterlimit:4;stroke-dasharray:none;stroke-dashoffset:0;stroke-opacity:1" cx="-13.835" cy="88.718" r="53.173" id="little-car_vue_svg__circle119"/>
        <image class="seated-avatar" transform="translate(359.977 247.827) scale(.60721)" clip-path="url(#little-car_vue_svg__i)" width="179.261" height="179.261" preserveAspectRatio="none" x="-705.249" y="-351.662" id="little-car_vue_svg__image121" xlink:href="placeholder.png"/>
    </g>
    <path style="color:#000;shape-padding:0;clip-rule:nonzero;display:inline;overflow:visible;visibility:visible;opacity:1;isolation:auto;color-interpolation:sRGB;color-interpolation-filters:linearRGB;solid-color:#000;solid-opacity:1;vector-effect:none;fill:#ffd42f;fill-opacity:1;fill-rule:nonzero;stroke:#9b7f13;stroke-width:.89108306;stroke-linecap:round;stroke-linejoin:round;stroke-miterlimit:4;enable-background:accumulate" d="M115.613 21.238c-22.87-.919-46.478 5.421-60.346 12.967-6.913 3.762-13.194 10.366-17.835 16.28a100.642 100.642 0 0 0-5.615 7.909c-1.38 2.168-2.238 3.747-2.416 4.195-.392.986-.546 1.634-.604 2.03a2.632 2.632 0 0 0-.033.404c.117.04 2.854.963 5.962 1.913 1.587.486 3.24.965 4.623 1.319 1.382.353 2.523.572 2.974.55 1.003-.049 2.588-.48 4.157-.945 1.526-.453 3.009-.92 4.024-1.11l-.003-.005s.62-.215 1.283-.484a13.22 13.22 0 0 0 .944-.422c.274-.138.486-.292.515-.329-.001.002.044-.067.095-.161a21.134 21.134 0 0 0 .2-.38c.164-.315.381-.746.644-1.256a108.112 108.112 0 0 1 2.009-3.737c.784-1.383 1.65-2.813 2.511-4.016.861-1.203 1.706-2.182 2.497-2.673 2.967-1.841 9.027-5.555 22.568-4.94 6.762.308 11.44 1.052 14.433 1.72 2.991.668 4.311 1.265 4.311 1.265l-.03.063a1.364 1.364 0 0 1 .535-.057c.266.019.587.07.954.143.735.147 1.655.381 2.64.634 1.971.507 4.213 1.081 5.69 1.151 1.498.072 3.179-.09 4.79-.071.2.002.383.045.58.053v-.092s8.013.102 22.323-1.636c7.155-.869 10.867-1.609 13.123-2.293 2.256-.684 3.06-1.31 4.458-1.982 1.356-.653 3.116-1.85 4.524-3.017.704-.584 1.32-1.161 1.755-1.654.435-.492.664-.93.664-1.082 0-.241-.08-.775-.215-1.426a40.865 40.865 0 0 0-.533-2.216c-.42-1.566-.947-3.167-1.27-3.722-.176-.302-.283-.48-.401-.709-.013.549-.137 1.292-.637 2.144-.95 1.616-3.198 3.484-8.33 4.65-10.249 2.325-35.16 3.842-43.671 3.333-8.489-.508-21.578-2.969-21.578-2.969l.074-.398s13.092 2.456 21.528 2.96c8.414.504 33.41-1.018 43.557-3.321 5.066-1.15 7.193-2.968 8.07-4.461.877-1.494.532-2.664.532-2.664l.036-.012c-.327-.435-.839-.879-1.973-1.55-.529-.311-2.146-1.048-4.599-1.967-2.452-.918-5.754-2.03-9.699-3.127-7.89-2.196-18.359-4.34-29.795-4.799z" id="little-car_vue_svg__path127"/>
    <path style="color:#000;shape-padding:0;clip-rule:nonzero;display:inline;overflow:visible;visibility:visible;opacity:1;isolation:auto;color-interpolation:sRGB;color-interpolation-filters:linearRGB;solid-color:#000;solid-opacity:1;vector-effect:none;fill:#ffd42f;fill-opacity:1;fill-rule:nonzero;stroke:#9b7f13;stroke-width:.89108306;stroke-linecap:butt;stroke-linejoin:miter;stroke-miterlimit:4;enable-background:accumulate" d="M28.69 65.42c-.12.255-6.863 14.51-10.226 29.176-3.386 14.77-3.612 45.379-3.612 45.379v.014s-.02.259.135.777.487 1.273 1.196 2.195c1.422 1.849 6.427 7.204 11.212 9.49 1.518.725 3.322.486 5.074.245a19.405 19.405 0 0 0 4.775-1.313 11.142 11.142 0 0 0 1.603-.819c.404-.258.661-.507.72-.625.037-.073.109-.412.156-.873a29.868 29.868 0 0 0 .11-1.755c.045-1.155.052-2.609.057-4.033l-.048-.054.05-.042c.002-.247.01-.453.01-.7-.001-3.405-.075-6.661-.075-6.667 0 0 .111-3.357.126-5.275l-.126-.006v-.406l.135.006c.068-5.474.504-14.854 3.86-29.663 4.707-20.774 8.498-31.632 8.498-31.632v-.003l.003-.003s.1-.257.173-.568c.074-.311.092-.678.033-.802-.062-.129-.096-.237-.132-.302-.035-.065-.055-.09-.134-.122-.158-.065-.601-.086-1.576.084-.956.166-2.516.66-4.09 1.127-1.574.466-3.16.91-4.255.962-.596.03-1.701-.205-3.094-.562-1.394-.356-3.05-.84-4.64-1.327a225.906 225.906 0 0 1-5.918-1.902z" id="little-car_vue_svg__path129"/>
    <path style="color:#000;shape-padding:0;clip-rule:nonzero;display:inline;overflow:visible;visibility:visible;opacity:1;isolation:auto;color-interpolation:sRGB;color-interpolation-filters:linearRGB;solid-color:#000;solid-opacity:1;vector-effect:none;fill:#f92424;fill-opacity:1;fill-rule:nonzero;stroke:#890404;stroke-width:.89108306;stroke-linecap:butt;stroke-linejoin:miter;stroke-miterlimit:4;enable-background:accumulate" d="M39.355 154.856c-.395-.059-1.086.16-1.854.559s-1.66.66-2.455 1.235c-1.552 1.123-3.036 2.19-3.1 2.246l.159 4.717c.139.072 10.149 4.968 15.35 8.384 5.25 3.449 16.435 13.049 26.73 18.298 10.31 5.258 19.8 7.909 27.549 8.878 7.749.968 20.793 1.123 24.374 1.175.816.012 1.418-.443 1.899-1.187.48-.745.813-1.77 1.034-2.802.428-2 .43-3.898.43-4.018-.072.009-.157.045-.23.053-4.772.579-6.818.872-7.896.835-.539-.02-.867-.137-1.112-.353-.245-.216-.4-.485-.715-.834l-.007-.01c-.141 0-9.877-.005-16.6-1.668-1.002-.248-2.64-.862-3.842-1.202l-.143.013-.006-.06c-6.874-1.953-15.968-5.053-23.337-9.843-8.69-5.65-14.128-10.432-17.94-13.021-1.916-1.302-6.02-4.085-9.887-6.578-.363-.234-.642-.392-1-.62l-.379-.068.036-.146c-1.408-.894-2.848-1.81-3.976-2.467a33.246 33.246 0 0 0-1.95-1.067c-.532-.263-.945-.421-1.133-.449z" id="little-car_vue_svg__path131"/>
    <path style="color:#000;shape-padding:0;clip-rule:nonzero;display:inline;overflow:visible;visibility:visible;opacity:1;isolation:auto;color-interpolation:sRGB;color-interpolation-filters:linearRGB;solid-color:#000;solid-opacity:1;vector-effect:none;fill:#f92424;fill-opacity:1;fill-rule:nonzero;stroke:#890404;stroke-width:.89108306;stroke-linecap:butt;stroke-linejoin:miter;stroke-miterlimit:4;enable-background:accumulate" d="m29.584 163.021-.296 3.385v.003s-1.843 16.073 4.568 31.056c6.419 15.001 19.139 30.259 19.139 30.259l.009.009.006.012s1.349 2.14 5.238 5.247c3.89 3.108 10.307 7.166 20.416 10.943 20.206 7.552 32.298 3.564 37.972-.083 5.695-3.661 8.638-7.924 8.638-7.924l.057-.08 9.29-.506-4.369-32.213v-.007s-.076-.977-.828-1.866c-.637-.753-1.157-1.063-1.393-1.22l-.072-.003.009-.05c-.015-.01-.1-.091-.108-.097-.475.5-1.032.875-1.758.865-3.579-.052-16.617-.2-24.416-1.176-7.799-.974-17.335-3.643-27.687-8.921-10.367-5.287-21.583-14.916-26.766-18.32-5.19-3.41-15.136-8.562-15.156-8.572z" id="little-car_vue_svg__path133"/>
    <path style="color:#000;shape-padding:0;clip-rule:nonzero;display:inline;overflow:visible;visibility:visible;opacity:1;isolation:auto;color-interpolation:sRGB;color-interpolation-filters:linearRGB;solid-color:#000;solid-opacity:1;vector-effect:none;fill:#ec2525;fill-opacity:1;fill-rule:nonzero;stroke:#890404;stroke-width:.89108306;stroke-linecap:round;stroke-linejoin:round;stroke-miterlimit:4;enable-background:accumulate" d="M15.25 142.077c-.108.503-1.375 6.435-1.716 8.288a3173.21 3173.21 0 0 1-1.352 7.241c.246-.045.361-.16.634-.173a5.55 5.55 0 0 1 3.465.999c2.32 1.594 2.445 4.115 2.452 4.287.038.034.454.41.969.924.537.537 1.135 1.172 1.414 1.65.553.949.425 2.207.425 2.213v.006c0 .007-.125 2.214-.392 4.5-.134 1.144-.303 2.307-.511 3.226a7.62 7.62 0 0 1-.347 1.17c-.129.31-.256.55-.49.663-.63.305-1.537.332-2.306.302-.733-.03-1.28-.118-1.333-.126-.059.04-.326.233-.9.413-.632.198-1.552.348-2.706.161-1.139-.183-1.815-.454-2.371-.938-.531-.463-.961-1.128-1.624-2.046-.118.627-.858 4.68-.296 8.758.613 4.443 1.083 6.27 1.66 7.182.597.945 1.456 1.806 1.456 1.806l.042.042 1.704 8.817.275.039s-.198 1.48.942 2.419c.56.46 2.226 1.297 4.554 2.583 2.327 1.286 5.335 3.043 8.67 5.436 6.733 4.83 13.208 16.67 25.612 26.26 12.415 9.6 25.909 15.293 37.345 15.51 11.492.216 13.529-.423 18.806-2.303 5.27-1.877 20.745-7.863 32.435-10.324 11.701-2.464 29.4-2.49 29.4-2.49h.016s8.952.576 18.477-.506c9.52-1.082 15.462-3.73 23.328-10.37 7.844-6.62 10.793-14.242 11.658-16.62.425-1.172.471-1.936.421-2.395a1.696 1.696 0 0 0-.114-.479.623.623 0 0 0-.056-.113l-.027-.033-.012-.042s-.545-1.994-1.017-4.243c-.236-1.124-.454-2.311-.577-3.352-.123-1.04-.16-1.921.003-2.493.581-2.033.716-2.037.535-4.27-.092-1.15-.218-5.704-.367-10.079a363.562 363.562 0 0 0-.24-5.956 63.001 63.001 0 0 0-.128-2.003c-.022-.25-.041-.457-.063-.604-.021-.147-.063-.258-.045-.224-.01-.02-.07-.057-.09-.081-.2.144-1.269.961-3.21 1.268-2.083.328-3.071.143-3.071.143l-.093-.018-1.68-3.091-.015.033-.063-.177-.096-.176.027-.016-.042-.122s-1.164-3.302-1.868-4.676c-.342-.666-.888-1.194-1.397-1.627-.508-.433-.978-.737-1.172-1.124-.163-.326-.354-.931-.592-1.558-.237-.627-.523-1.268-.792-1.585-.599-.704-.821-.736-1.516-1.028-.643-.27-1.295-.275-1.295-.275-1.9-.493-2.298.145-3.924-1.093-3.805-3.008-10.14-8.486-10.14-8.486-.464-1.175-.82-2.453-1.226-3.676-.26-.016-3.446-.117-7.335-.074-4.064.044-8.992.344-12.405 1.33-6.751 1.95-16.87 7.844-17.165 8.016.037.127.783 2.602.783 2.602.001.003.397 1.22.99 2.693.594 1.476 1.392 3.208 2.159 4.183.776.989 1.914 1.963 2.987 2.808 1.072.845 2.071 1.554 2.607 2.063.509.483 1.025.942 1.36 1.53.336.59.471 1.314.23 2.25v.002l-.003.007c-.244.777-1.165 1.663-2.407 2.65-1.241.986-2.809 2.043-4.35 3.016a118.122 118.122 0 0 1-6.058 3.555s-12.649 6.803-22.212 8.187c0 .026.002 2.097-.448 4.2-.227 1.06-.566 2.123-1.092 2.937-.057.09-.146.135-.209.218.006.003.044.04.05.045.204.035 2.097.338 5.063-.715.77-.273 3.219-1.293 6.506-2.685 3.287-1.392 7.427-3.161 11.628-4.945 8.4-3.568 17.02-7.191 19.617-8.022 2.523-.808 7.277-3.065 11.915-5.352 4.638-2.287 9.168-4.605 11.317-5.553 4.27-1.881 8.83-3.763 12.136-4.816 3.276-1.044 4.431-1.821 4.431-1.821l.227.338s-1.23.815-4.535 1.868c-3.276 1.044-7.83 2.923-12.095 4.802-2.118.934-6.66 3.255-11.302 5.544-4.642 2.289-9.38 4.546-11.971 5.376-2.518.805-11.182 4.443-19.582 8.01-4.2 1.783-8.34 3.553-11.627 4.945-3.289 1.392-5.713 2.405-6.528 2.694-2.458.872-3.974.82-4.718.753.357.264.575.354 1.065.933.837.99.92 2.09.92 2.093l.004.003 4.425 32.63-9.541.517c-.09.13-3.01 4.306-8.683 7.953-5.782 3.717-18.034 7.71-38.334.123-10.145-3.792-16.604-7.87-20.529-11.006-3.897-3.114-5.29-5.297-5.31-5.329l-.018-.02c-.03-.036-12.732-15.263-19.18-30.334-6.462-15.1-4.603-31.247-4.602-31.256v-.006l.302-3.448c-.064-.012-.063-.007-.182-.039a9.66 9.66 0 0 1-1.178-.418c-1.09-.454-2.825-1.316-5.436-2.966-2.617-1.654-4.286-3.112-5.301-4.16-1.016-1.047-1.388-1.698-1.388-1.698l.353-.2s.336.595 1.328 1.618c.991 1.023 2.632 2.458 5.223 4.096 2.597 1.64 4.314 2.494 5.376 2.936.531.22.9.338 1.13.4.231.063.311.07.311.07l.2.017-.003.04 2.327.687-.135-3.989-.057.016-1.432-5.936.392-.092 1.34 5.546a39.28 39.28 0 0 1 2.792-2.218c.805-.583 1.672-1.156 2.47-1.57.737-.383 1.383-.587 1.94-.556l.018-.016.251-4c-.15.137-.23.272-.46.418-.431.276-.997.57-1.663.853a19.782 19.782 0 0 1-4.88 1.342c-1.752.242-3.644.509-5.304-.284-4.906-2.344-9.885-7.695-11.355-9.607-.359-.465-.413-.748-.613-1.13z" id="little-car_vue_svg__path135"/>
    <path style="color:#000;shape-padding:0;clip-rule:nonzero;display:inline;overflow:visible;visibility:visible;opacity:1;isolation:auto;color-interpolation:sRGB;color-interpolation-filters:linearRGB;solid-color:#000;solid-opacity:1;vector-effect:none;fill:#ec2525;fill-opacity:1;fill-rule:nonzero;stroke:#890404;stroke-width:.89108306;stroke-linecap:butt;stroke-linejoin:miter;stroke-miterlimit:4;enable-background:accumulate" d="M217.063 171.154c-.483.012-.786.08-.986.248-.204.17-.515.636-.745 1.044-.222.394-.371.714-.383.737l.9 1.495.017-.032s.18.084.643.158c.462.073 1.187.127 2.225.039 1.02-.088 1.622-.37 1.971-.621.202-.145.194-.178.254-.26-.002-.048-.048-.902-.296-1.48-.15-.348-.223-.668-.412-.883-.19-.216-.5-.38-1.26-.397-.804-.018-1.445-.06-1.928-.048z" id="little-car_vue_svg__path137"/>
    <path style="color:#000;shape-padding:0;clip-rule:nonzero;display:inline;overflow:visible;visibility:visible;opacity:1;isolation:auto;color-interpolation:sRGB;color-interpolation-filters:linearRGB;solid-color:#000;solid-opacity:1;vector-effect:none;fill:#ec2525;fill-opacity:1;fill-rule:nonzero;stroke:#890404;stroke-width:.89108306;stroke-linecap:butt;stroke-linejoin:miter;stroke-miterlimit:4;enable-background:accumulate" d="M220.907 173.919c-.09.113-.074.15-.28.298-.418.3-1.111.613-2.205.707-1.075.092-1.843.035-2.348-.045-.206-.033-.19-.046-.313-.08l.742 1.238c.055.01.953.17 3.138-.143 1.971-.282 2.969-.98 3.244-1.155-.025-.015-.026-.027-.052-.042a7.805 7.805 0 0 0-.884-.415c-.542-.217-.928-.329-1.042-.364z" id="little-car_vue_svg__path139"/>
    <path style="color:#000;shape-padding:0;clip-rule:nonzero;display:inline;overflow:visible;visibility:visible;opacity:1;isolation:auto;color-interpolation:sRGB;color-interpolation-filters:linearRGB;solid-color:#000;solid-opacity:1;vector-effect:none;fill:#d4d4d4;fill-opacity:1;fill-rule:nonzero;stroke:#000;stroke-width:.89108306;stroke-linecap:butt;stroke-linejoin:miter;stroke-miterlimit:4;enable-background:accumulate" d="M202.27 176.264c1.012.196 1.923 1.058 2.656 1.973.733.915 1.28 1.892 1.507 2.386.23.502.615 1.641.771 3.04.156 1.4.081 3.055-.646 4.548-.379.78-1.171 1.51-2.146 2.195-.976.686-2.14 1.322-3.274 1.869a40.564 40.564 0 0 1-3.098 1.33 27.29 27.29 0 0 1-1.073.386c-.278.092-.443.144-.562.161-.512.073-1.826.372-3.173-.41-1.324-.767-3.254-2.58-4.084-6.161-.42-1.813-.066-3.323.457-4.426.524-1.103 1.21-1.801 1.472-2.036a2.535 2.535 0 0 1 .403-.269 19.904 19.904 0 0 1 .682-.37 77.644 77.644 0 0 1 1.827-.924 153.073 153.073 0 0 1 2.484-1.193s.96-.616 2.156-1.184c1.196-.57 2.611-1.116 3.642-.915z" id="little-car_vue_svg__path141"/>
    <path style="color:#000;shape-padding:0;clip-rule:nonzero;display:inline;overflow:visible;visibility:visible;opacity:1;isolation:auto;color-interpolation:sRGB;color-interpolation-filters:linearRGB;solid-color:#000;solid-opacity:1;vector-effect:none;fill:#ad0000;fill-opacity:1;fill-rule:nonzero;stroke:#000;stroke-width:.89108306;stroke-linecap:butt;stroke-linejoin:miter;stroke-miterlimit:4;enable-background:accumulate" d="M202.193 176.661c-.81-.157-2.218.329-3.387.885a22.067 22.067 0 0 0-2.114 1.157l-.012.006-.012.007s-1.22.577-2.5 1.205c-.64.315-1.294.643-1.818.918-.261.138-.49.263-.666.365a2.99 2.99 0 0 0-.338.218c-.224.2-.88.87-1.373 1.908-.493 1.038-.828 2.443-.43 4.159.806 3.476 2.66 5.19 3.893 5.905 1.21.702 2.349.44 2.912.359a6.625 6.625 0 0 0 .49-.147c.271-.09.635-.218 1.059-.38a40.118 40.118 0 0 0 3.064-1.315c1.122-.54 2.27-1.167 3.218-1.833.947-.666 1.69-1.376 2.015-2.042.68-1.397.757-2.977.607-4.326-.151-1.35-.532-2.475-.736-2.919-.208-.452-.75-1.417-1.456-2.299-.706-.881-1.585-1.668-2.416-1.83z" id="little-car_vue_svg__path143"/>
    <path style="color:#000;shape-padding:0;clip-rule:nonzero;display:inline;overflow:visible;visibility:visible;opacity:1;isolation:auto;color-interpolation:sRGB;color-interpolation-filters:linearRGB;solid-color:#000;solid-opacity:1;vector-effect:none;fill:#d4d4d4;fill-opacity:1;fill-rule:nonzero;stroke:#000;stroke-width:.89108306;stroke-linecap:butt;stroke-linejoin:miter;stroke-miterlimit:4;enable-background:accumulate" d="M213.546 176.808c.385-.136.8.027 1.205.308.404.28.82.698 1.226 1.175.812.954 1.58 2.148 2.033 2.957l.003.007.003.006c1.76 3.829 1.888 7.734 1.988 9.02.054.686.008 2.193-.32 3.538-.163.672-.394 1.302-.741 1.767-.347.464-.842.763-1.441.69-1.157-.14-2.08-1.184-2.897-2.945-.818-1.76-1.545-4.274-2.288-7.49-.746-3.227-.766-5.352-.44-6.745.328-1.393 1.02-2.058 1.67-2.287z" id="little-car_vue_svg__path145"/>
    <path style="color:#000;shape-padding:0;clip-rule:nonzero;display:inline;overflow:visible;visibility:visible;opacity:1;isolation:auto;color-interpolation:sRGB;color-interpolation-filters:linearRGB;solid-color:#000;solid-opacity:1;vector-effect:none;fill:#fff;fill-opacity:1;fill-rule:nonzero;stroke:#000;stroke-width:.89108306;stroke-linecap:butt;stroke-linejoin:miter;stroke-miterlimit:4;enable-background:accumulate" d="M213.68 177.19c-.505.179-1.106.699-1.41 1.998-.306 1.299-.296 3.372.442 6.563.74 3.203 1.466 5.698 2.26 7.409.794 1.71 1.637 2.6 2.577 2.715.45.054.776-.141 1.068-.533.292-.39.517-.978.673-1.62.312-1.283.36-2.793.31-3.412-.103-1.32-.234-5.13-1.946-8.865l-.003-.003c-.44-.786-1.2-1.966-1.985-2.888-.393-.462-.793-.86-1.148-1.106-.356-.247-.645-.325-.838-.258z" id="little-car_vue_svg__path147"/>
    <path style="color:#000;shape-padding:0;clip-rule:nonzero;display:inline;overflow:visible;visibility:visible;opacity:1;isolation:auto;color-interpolation:sRGB;color-interpolation-filters:linearRGB;solid-color:#000;solid-opacity:1;vector-effect:none;fill:#d4d4d4;fill-opacity:1;fill-rule:nonzero;stroke:#000;stroke-width:.89108306;stroke-linecap:butt;stroke-linejoin:miter;stroke-miterlimit:4;enable-background:accumulate" d="M202.25 178.638c.629.013 1.121.17 1.564.592.442.42.846 1.082 1.41 2.122a6.584 6.584 0 0 1 .808 3.056c.01.91-.175 1.643-.46 2.063-.286.421-.81.722-1.373.996-.563.273-1.174.512-1.62.735-.442.221-2.04 1.109-3.63 1.923-.795.407-1.589.796-2.248 1.08-.33.141-.628.256-.876.334-.25.079-.438.128-.62.108-.474-.053-1.04-.169-1.61-.55-.573-.382-1.146-1.021-1.67-2.093-1.053-2.16-.586-4.07-.104-5.062.086-.177.245-.323.457-.494a8.462 8.462 0 0 1 .793-.547 31.408 31.408 0 0 1 2.147-1.196 73.614 73.614 0 0 1 2.948-1.429s.702-.412 1.554-.822c.853-.41 1.834-.831 2.53-.816z" id="little-car_vue_svg__path149"/>
    <path style="color:#000;shape-padding:0;clip-rule:nonzero;display:inline;overflow:visible;visibility:visible;opacity:1;isolation:auto;color-interpolation:sRGB;color-interpolation-filters:linearRGB;solid-color:#000;solid-opacity:1;vector-effect:none;fill:#fff;fill-opacity:1;fill-rule:nonzero;stroke:#000;stroke-width:.89108306;stroke-linecap:butt;stroke-linejoin:miter;stroke-miterlimit:4;enable-background:accumulate" d="M202.24 179.044c-.505-.01-1.511.373-2.346.775-.835.4-1.522.807-1.522.807l-.01.006-.008.003s-1.448.658-2.951 1.432c-.752.387-1.516.803-2.117 1.178-.3.188-.56.363-.753.517-.193.155-.318.297-.347.356-.439.901-.89 2.676.101 4.71.5 1.024 1.03 1.596 1.531 1.93.502.336.984.439 1.43.488.048.006.23-.02.457-.092a9.21 9.21 0 0 0 .834-.32 39.209 39.209 0 0 0 2.228-1.07c1.58-.81 3.153-1.687 3.632-1.926.475-.237 1.078-.472 1.62-.736.543-.263 1.018-.563 1.218-.858.2-.296.398-.981.388-1.83a6.181 6.181 0 0 0-.756-2.87c-.56-1.031-.957-1.66-1.333-2.018-.377-.358-.722-.47-1.295-.482z" id="little-car_vue_svg__path151"/>
    <path style="color:#000;shape-padding:0;clip-rule:nonzero;display:inline;overflow:visible;visibility:visible;opacity:1;isolation:auto;color-interpolation:sRGB;color-interpolation-filters:linearRGB;solid-color:#000;solid-opacity:1;vector-effect:none;fill:#d4d4d4;fill-opacity:1;fill-rule:nonzero;stroke:#000;stroke-width:.89108306;stroke-linecap:butt;stroke-linejoin:miter;stroke-miterlimit:4;enable-background:accumulate" d="M174.988 194.559c1.2-.084 2.906.264 4.64 1.334 1.737 1.071 5.384 4.13 4.652 10.862-.367 3.375-1.836 5.549-3.534 6.886-1.698 1.337-3.614 1.844-4.9 1.937-1.32.096-3.5-.429-5.388-2.048-1.887-1.619-3.453-4.343-3.472-8.605-.018-4.267 1.683-6.859 3.538-8.369a9.764 9.764 0 0 1 2.697-1.548c.805-.305 1.445-.427 1.767-.449z" id="little-car_vue_svg__path153"/>
    <path style="color:#000;shape-padding:0;clip-rule:nonzero;display:inline;overflow:visible;visibility:visible;opacity:1;isolation:auto;color-interpolation:sRGB;color-interpolation-filters:linearRGB;solid-color:#000;solid-opacity:1;vector-effect:none;fill:#fff;fill-opacity:1;fill-rule:nonzero;stroke:#000;stroke-width:.89108306;stroke-linecap:butt;stroke-linejoin:miter;stroke-miterlimit:4;enable-background:accumulate" d="M175.014 194.963c-.252.017-.878.133-1.65.424-.772.292-1.7.761-2.586 1.483-1.774 1.445-3.403 3.893-3.385 8.052.018 4.164 1.526 6.755 3.328 8.3 1.801 1.546 3.921 2.038 5.098 1.953 1.209-.088 3.056-.578 4.676-1.854 1.62-1.276 3.025-3.332 3.382-6.61.715-6.577-2.799-9.449-4.461-10.475-1.666-1.027-3.307-1.35-4.402-1.273z" id="little-car_vue_svg__path155"/>
    <path style="color:#000;shape-padding:0;clip-rule:nonzero;display:inline;overflow:visible;visibility:visible;opacity:1;isolation:auto;color-interpolation:sRGB;color-interpolation-filters:linearRGB;solid-color:#000;solid-opacity:1;vector-effect:none;fill:#d4d4d4;fill-opacity:1;fill-rule:nonzero;stroke:#890404;stroke-width:.89108306;stroke-linecap:butt;stroke-linejoin:miter;stroke-miterlimit:4;enable-background:accumulate" d="M157.7 196.837c1.516-.115 2.499.822 3.067 1.753.508.83.643 1.509.682 1.68.486-.413.96-.853 1.387-1.163.838-.727 2.347-.416 2.533-.135.417.703-.925 1.907-1.2 2.165-1.112 1.025-2.96 2.083-5.85 2.251-2.653.4-5.643-.644-7.4-1.934l-.078-.057-.006-.096s-.034-.278.117-.526a.5.5 0 0 1 .427-.236c.19.007.387.1.628.287.29.224.783.394 1.241.574.018-.266.032-.553.102-1.148.048-.41.107-.834.182-1.19s.134-.63.308-.82c.19-.206.444-.529 1.002-.798.557-.269 1.414-.497 2.858-.607z" id="little-car_vue_svg__path157"/>
    <path style="color:#000;shape-padding:0;clip-rule:nonzero;display:inline;overflow:visible;visibility:visible;opacity:1;isolation:auto;color-interpolation:sRGB;color-interpolation-filters:linearRGB;solid-color:#000;solid-opacity:1;vector-effect:none;fill:#ec2525;fill-opacity:1;fill-rule:nonzero;stroke:#890404;stroke-width:.89108306;stroke-linecap:butt;stroke-linejoin:miter;stroke-miterlimit:4;enable-background:accumulate" d="M153.825 198.031c-.475.621-.403.924-.502 1.759a41.519 41.519 0 0 0-.152 1.45c.751.36 2.476.726 4.28.6 1.784-.126 3.3-1.036 4.123-1.666a18.701 18.701 0 0 0-.985-1.879c-.525-.86-1.666-1.685-3.007-1.583-1.465-.018-3.28.698-3.757 1.32z" id="little-car_vue_svg__path159"/>
    <path style="color:#000;shape-padding:0;clip-rule:nonzero;display:inline;overflow:visible;visibility:visible;opacity:1;isolation:auto;color-interpolation:sRGB;color-interpolation-filters:linearRGB;solid-color:#000;solid-opacity:1;vector-effect:none;fill:#ec2525;fill-opacity:1;fill-rule:nonzero;stroke:#890404;stroke-width:.89108306;stroke-linecap:round;stroke-linejoin:round;stroke-miterlimit:4;enable-background:accumulate" d="M164.346 198.689c-.699-.047-.992-.047-1.504.325-1.064.774-2.004 2.618-5.346 2.853-2.05.145-3.082-.05-4.04-.385-.463-.206-1.175-.345-1.574-.643-.206-.159-.488-.284-.54-.286-.052-.002-.295.282-.319.32-.03.05-.051.513-.058.584 1.677 1.195 5.362 2.395 7.61 2.184 2.249-.211 4.242-1.388 5.61-2.553.94-.865 1.173-1.697 1.244-1.864-.41-.276-.384-.488-1.083-.535z" id="little-car_vue_svg__path161"/>
    <image class="seated-keyboard" width="209.85" height="46.167" preserveAspectRatio="none" xlink:href="keyboard.png" id="little-car_vue_svg__keyboard" x="4.073" y="145.414"/>
    <path style="color:#000;shape-padding:0;clip-rule:nonzero;display:inline;overflow:visible;visibility:visible;opacity:1;isolation:auto;color-interpolation:sRGB;color-interpolation-filters:linearRGB;solid-color:#000;solid-opacity:1;vector-effect:none;fill:#ffd42f;fill-opacity:1;fill-rule:nonzero;stroke:#9b7f13;stroke-width:.89108306;stroke-linecap:butt;stroke-linejoin:round;stroke-miterlimit:4;enable-background:accumulate" d="M102.99 51.741c-.237-.017-.406.009-.443.027-.373.187-.507.452-.54.936-.034.485.07 1.166.214 2.033.014.084.081.369.192.793.11.424.265 1 .457 1.704.384 1.409.92 3.339 1.561 5.642 1.284 4.606 2.994 10.698 4.766 17.082 3.544 12.766 7.339 26.681 8.5 32.198 1.954 9.282 4.128 19.995 5.864 29.568l.116.063-.077.131c.307 1.698.782 3.67 1.043 5.256.095.576.106.93.194 1.492l.198.093-.144.308c.687 4.422 1.278 8.67 1.543 11.792a52.574 52.574 0 0 1 .197 3.914l.006.003-.006.01c.002.157.031.42.03.567-.004.58-.03 1.066-.077 1.456-.048.391-.111.681-.228.891-.078.141-.78 1.6-.968 1.953v.012h-.006c-1.527 2.863-5.72 10.804-7.837 15.805-.483 1.315-.245 2.51.281 3.579.526 1.07 1.344 1.999 1.994 2.72.337.375.506.647.682.802.176.155.363.237.855.254.984.035 3.062-.252 7.837-.83 9.47-1.149 22.711-8.295 22.711-8.295s2.963-1.606 6.031-3.543c1.534-.968 3.093-2.02 4.315-2.99 1.22-.97 2.094-1.89 2.272-2.452.216-.848.098-1.43-.191-1.937-.291-.51-.772-.95-1.286-1.438-.487-.463-1.499-1.187-2.58-2.04-1.082-.852-2.241-1.836-3.056-2.873-.825-1.05-1.616-2.792-2.216-4.282-.6-1.49-.998-2.726-.998-2.726h-.003v-.003s-7.665-25.839-15.626-51.876c-3.98-13.018-8.034-26.087-11.239-35.999-1.602-4.956-2.992-9.122-4.054-12.097a74.736 74.736 0 0 0-1.334-3.516c-.175-.42-.326-.75-.448-.984-.122-.233-.247-.375-.236-.368-1.122-.759-2.588-.96-4.168-.977-1.58-.018-3.265.145-4.805.071-1.56-.074-3.803-.657-5.774-1.163-.985-.253-1.9-.488-2.616-.63a7.535 7.535 0 0 0-.903-.135z" id="little-car_vue_svg__path125"/>
</svg>