<svg xmlns:dc="http://purl.org/dc/elements/1.1/" xmlns:cc="http://creativecommons.org/ns#" xmlns:rdf="http://www.w3.org/1999/02/22-rdf-syntax-ns#"
    xmlns:svg="http://www.w3.org/2000/svg" xmlns="http://www.w3.org/2000/svg" xmlns:xlink="http://www.w3.org/1999/xlink" width="780.47174"
    height="1200" viewBox="0 0 206.49981 317.49999" version="1.1">
    <defs>
        <linearGradient>
            <stop offset="0" stop-color="#c4c4c4" />
            <stop offset="1" stop-color="#595959" />
        </linearGradient>
        <linearGradient>
            <stop offset="0" stop-color="#7a7a7a" />
            <stop offset="1" stop-color="#7a7a7a" stop-opacity="0" />
        </linearGradient>
        <linearGradient>
            <stop offset="0" stop-color="#101010" />
            <stop offset=".5" stop-color="#989898" />
            <stop offset="1" stop-color="#221f1f" />
        </linearGradient>
        <linearGradient>
            <stop offset="0" stop-color="#858585" />
            <stop offset="1" stop-color="#282828" />
        </linearGradient>
        <linearGradient>
            <stop offset="0" stop-color="#3e3e3e" />
            <stop offset="1" />
        </linearGradient>
        <linearGradient>
            <stop offset="0" stop-color="#dadada" />
            <stop offset="1" stop-color="#636363" />
        </linearGradient>
        <linearGradient>
            <stop offset="0" stop-color="#888" />
            <stop offset="1" stop-color="#888" stop-opacity="0" />
        </linearGradient>
        <linearGradient>
            <stop offset="0" stop-color="#121212" />
            <stop offset=".5" stop-color="#a9a9a9" />
            <stop offset="1" stop-color="#262222" />
        </linearGradient>
        <linearGradient>
            <stop offset="0" stop-color="#949494" />
            <stop offset="1" stop-color="#2c2c2c" />
        </linearGradient>
        <linearGradient>
            <stop offset="0" stop-color="#454545" />
            <stop offset="1" stop-color="#0a0a0a" />
        </linearGradient>
        <linearGradient y2="715.26587" x2="1450.7551" y1="667.79865" x1="1489.2958"
            gradientTransform="matrix(1.1623465,0.08835763,-0.08835763,1.1623465,-1308.5393,-74.958383)" gradientUnits="userSpaceOnUse" id="id-93W"
            xlink:href="#id-45a" />
        <linearGradient id="id-45a">
            <stop offset="0" stop-color="#f2f2f2" />
            <stop offset="1" stop-color="#6e6e6e" />
        </linearGradient>
        <linearGradient y2="717.07275" x2="1464.223" y1="678.05872" x1="1458.281"
            gradientTransform="matrix(1.16235,0.08836,-0.08836,1.16235,-1311.639,-76.25904)" gradientUnits="userSpaceOnUse" id="id-94X"
            xlink:href="#id-45a" />
        <linearGradient y2="711.57135" x2="1466.9231" y1="711.57135" x1="1455.0509" gradientTransform="matrix(1.1657,0,0,1.1657,-1374.2487,36.06295)"
            gradientUnits="userSpaceOnUse" xlink:href="#id-46b" />
        <linearGradient id="id-46b">
            <stop offset="0" stop-color="#979797" />
            <stop offset="1" stop-color="#979797" stop-opacity="0" />
        </linearGradient>
        <linearGradient y2="682.60339" x2="1444.5061" y1="663.16022" x1="1487.8141"
            gradientTransform="matrix(1.16235,0.08836,-0.08836,1.16235,-1311.639,-76.25904)" gradientUnits="userSpaceOnUse" id="id-95Y"
            xlink:href="#id-45a" />
        <linearGradient y2="910.1145" x2="1369.9249" y1="883.67627" x1="1378.1128" gradientUnits="userSpaceOnUse" id="id-96Z" xlink:href="#id-47c" />
        <linearGradient id="id-47c">
            <stop offset="0" stop-color="#141414" />
            <stop offset=".5" stop-color="#bcbcbc" />
            <stop offset="1" stop-color="#2a2626" />
        </linearGradient>
        <linearGradient y2="893.44263" x2="1351.9747" y1="908.87756" x1="1423.3486"
            gradientTransform="matrix(0.90667,5.7e-4,5e-4,0.9188,127.09096,71.58128)" gradientUnits="userSpaceOnUse" id="id-97aa"
            xlink:href="#id-48d" />
        <linearGradient id="id-48d">
            <stop offset="0" stop-color="#a4a4a4" />
            <stop offset="1" stop-color="#313131" />
        </linearGradient>
        <linearGradient id="id-49e">
            <stop offset="0" stop-color="#4d4d4d" />
            <stop offset="1" stop-color="#0b0b0b" />
        </linearGradient>
        <linearGradient y2="706.55676" x2="1462.1097" y1="663.48065" x1="1485.2881"
            gradientTransform="matrix(1.1623465,0.08835763,-0.08835763,1.1623465,-1290.0219,-69.268466)" gradientUnits="userSpaceOnUse" id="id-99ac"
            xlink:href="#id-45a" />
        <linearGradient y2="724.73755" x2="1464.8898" y1="674.39838" x1="1457.9685"
            gradientTransform="matrix(1.1623465,0.08835763,-0.08835763,1.1623465,-1293.1184,-70.568957)" gradientUnits="userSpaceOnUse" id="id-100ad"
            xlink:href="#id-45a" />
        <linearGradient y2="682.60339" x2="1444.5061" y1="663.16022" x1="1487.8141"
            gradientTransform="matrix(1.1623465,0.08835763,-0.08835763,1.1623465,-1293.1184,-70.568963)" gradientUnits="userSpaceOnUse" id="id-105ai"
            xlink:href="#id-45a" />
        <linearGradient y2="699.89374" x2="1480.2505" y1="713.55145" x1="1480.3562" gradientTransform="matrix(1,-0.07672,0,1,14.45325,135.07961)"
            gradientUnits="userSpaceOnUse" id="id-102af" xlink:href="#id-47c" />
        <linearGradient y2="691.3255" x2="1475.4058" y1="720.76678" x1="1476.0466" gradientTransform="matrix(1,-0.07672,0,1,14.45325,135.07961)"
            gradientUnits="userSpaceOnUse" id="id-103ag" xlink:href="#id-47c" />
        <linearGradient y2="727.41016" x2="1436.7494" y1="742.80731" x1="1426.3765" gradientTransform="matrix(1,-0.07672,0,1,61.10047,103.91988)"
            gradientUnits="userSpaceOnUse" id="id-104ah" xlink:href="#id-45a" />
        <linearGradient xlink:href="#id-45a" id="id-50f" gradientUnits="userSpaceOnUse"
            gradientTransform="matrix(1.1623465,0.08835763,-0.08835763,1.1623465,-1308.5393,-74.958383)" x1="1489.2958" y1="667.79865" x2="1450.7551"
            y2="715.26587" />
        <linearGradient xlink:href="#id-45a" id="id-51g" gradientUnits="userSpaceOnUse"
            gradientTransform="matrix(1.16235,0.08836,-0.08836,1.16235,-1311.639,-76.25904)" x1="1458.281" y1="678.05872" x2="1464.223"
            y2="717.07275" />
        <linearGradient xlink:href="#id-46b" gradientUnits="userSpaceOnUse" gradientTransform="matrix(1.1657,0,0,1.1657,-1374.2487,36.06295)"
            x1="1455.0509" y1="711.57135" x2="1466.9231" y2="711.57135" />
        <linearGradient xlink:href="#id-45a" id="id-52h" gradientUnits="userSpaceOnUse"
            gradientTransform="matrix(1.16235,0.08836,-0.08836,1.16235,-1311.639,-76.25904)" x1="1487.8141" y1="663.16022" x2="1444.5061"
            y2="682.60339" />
        <linearGradient xlink:href="#id-47c" id="id-53i" gradientUnits="userSpaceOnUse" x1="1378.1128" y1="883.67627" x2="1369.9249" y2="910.1145" />
        <linearGradient xlink:href="#id-48d" id="id-54j" gradientUnits="userSpaceOnUse"
            gradientTransform="matrix(0.90667,5.7e-4,5e-4,0.9188,127.09096,71.58128)" x1="1423.3486" y1="908.87756" x2="1351.9747" y2="893.44263" />
        <linearGradient xlink:href="#id-45a" id="id-56l" gradientUnits="userSpaceOnUse"
            gradientTransform="matrix(1.1623465,0.08835763,-0.08835763,1.1623465,-1290.0219,-69.268466)" x1="1485.2881" y1="663.48065" x2="1462.1097"
            y2="706.55676" />
        <linearGradient xlink:href="#id-45a" id="id-57m" gradientUnits="userSpaceOnUse"
            gradientTransform="matrix(1.1623465,0.08835763,-0.08835763,1.1623465,-1293.1184,-70.568957)" x1="1457.9685" y1="674.39838" x2="1464.8898"
            y2="724.73755" />
        <linearGradient xlink:href="#id-45a" id="id-58n" gradientUnits="userSpaceOnUse"
            gradientTransform="matrix(1.1623465,0.08835763,-0.08835763,1.1623465,-1293.1184,-70.568963)" x1="1487.8141" y1="663.16022" x2="1444.5061"
            y2="682.60339" />
        <linearGradient xlink:href="#id-47c" id="id-59o" gradientUnits="userSpaceOnUse" gradientTransform="matrix(1,-0.07672,0,1,14.45325,135.07961)"
            x1="1480.3562" y1="713.55145" x2="1480.2505" y2="699.89374" />
        <linearGradient xlink:href="#id-47c" id="id-60p" gradientUnits="userSpaceOnUse" gradientTransform="matrix(1,-0.07672,0,1,14.45325,135.07961)"
            x1="1476.0466" y1="720.76678" x2="1475.4058" y2="691.3255" />
        <linearGradient xlink:href="#id-45a" id="id-61q" gradientUnits="userSpaceOnUse" gradientTransform="matrix(1,-0.07672,0,1,61.10047,103.91988)"
            x1="1426.3765" y1="742.80731" x2="1436.7494" y2="727.41016" />
        <linearGradient xlink:href="#id-45a" id="id-62r" gradientUnits="userSpaceOnUse"
            gradientTransform="matrix(1.1623465,0.08835763,-0.08835763,1.1623465,-1293.1184,-70.568963)" x1="1487.8141" y1="663.16022" x2="1444.5061"
            y2="682.60339" />
        <linearGradient xlink:href="#id-45a" id="id-67w" gradientUnits="userSpaceOnUse"
            gradientTransform="matrix(1.1623465,0.08835763,-0.08835763,1.1623465,-1308.5393,-74.958383)" x1="1489.2958" y1="667.79865" x2="1450.7551"
            y2="715.26587" />
        <linearGradient xlink:href="#id-45a" id="id-68x" gradientUnits="userSpaceOnUse"
            gradientTransform="matrix(1.16235,0.08836,-0.08836,1.16235,-1311.639,-76.25904)" x1="1458.281" y1="678.05872" x2="1464.223"
            y2="717.07275" />
        <linearGradient xlink:href="#id-46b" gradientUnits="userSpaceOnUse" gradientTransform="matrix(1.1657,0,0,1.1657,-1374.2487,36.06295)"
            x1="1455.0509" y1="711.57135" x2="1466.9231" y2="711.57135" />
        <linearGradient xlink:href="#id-45a" id="id-69y" gradientUnits="userSpaceOnUse"
            gradientTransform="matrix(1.16235,0.08836,-0.08836,1.16235,-1311.639,-76.25904)" x1="1487.8141" y1="663.16022" x2="1444.5061"
            y2="682.60339" />
        <linearGradient xlink:href="#id-47c" id="id-70z" gradientUnits="userSpaceOnUse" x1="1378.1128" y1="883.67627" x2="1369.9249" y2="910.1145" />
        <linearGradient xlink:href="#id-48d" id="id-71A" gradientUnits="userSpaceOnUse"
            gradientTransform="matrix(0.90667,5.7e-4,5e-4,0.9188,127.09096,71.58128)" x1="1423.3486" y1="908.87756" x2="1351.9747" y2="893.44263" />
        <linearGradient xlink:href="#id-45a" id="id-73C" gradientUnits="userSpaceOnUse"
            gradientTransform="matrix(1.1623465,0.08835763,-0.08835763,1.1623465,-1290.0219,-69.268466)" x1="1485.2881" y1="663.48065" x2="1462.1097"
            y2="706.55676" />
        <linearGradient xlink:href="#id-45a" id="id-74D" gradientUnits="userSpaceOnUse"
            gradientTransform="matrix(1.1623465,0.08835763,-0.08835763,1.1623465,-1293.1184,-70.568957)" x1="1457.9685" y1="674.39838" x2="1464.8898"
            y2="724.73755" />
        <linearGradient xlink:href="#id-45a" id="id-75E" gradientUnits="userSpaceOnUse"
            gradientTransform="matrix(1.1623465,0.08835763,-0.08835763,1.1623465,-1293.1184,-70.568963)" x1="1487.8141" y1="663.16022" x2="1444.5061"
            y2="682.60339" />
        <linearGradient xlink:href="#id-47c" id="id-76F" gradientUnits="userSpaceOnUse" gradientTransform="matrix(1,-0.07672,0,1,14.45325,135.07961)"
            x1="1480.3562" y1="713.55145" x2="1480.2505" y2="699.89374" />
        <linearGradient xlink:href="#id-47c" id="id-77G" gradientUnits="userSpaceOnUse" gradientTransform="matrix(1,-0.07672,0,1,14.45325,135.07961)"
            x1="1476.0466" y1="720.76678" x2="1475.4058" y2="691.3255" />
        <linearGradient xlink:href="#id-45a" id="id-78H" gradientUnits="userSpaceOnUse" gradientTransform="matrix(1,-0.07672,0,1,61.10047,103.91988)"
            x1="1426.3765" y1="742.80731" x2="1436.7494" y2="727.41016" />
        <linearGradient xlink:href="#id-45a" id="id-79I" gradientUnits="userSpaceOnUse"
            gradientTransform="matrix(1.1623465,0.08835763,-0.08835763,1.1623465,-1293.1184,-70.568963)" x1="1487.8141" y1="663.16022" x2="1444.5061"
            y2="682.60339" />
        <linearGradient xlink:href="#id-45a" id="id-80J" gradientUnits="userSpaceOnUse"
            gradientTransform="matrix(1.1623465,0.08835763,-0.08835763,1.1623465,-1308.5393,-74.958383)" x1="1489.2958" y1="667.79865" x2="1450.7551"
            y2="715.26587" />
        <linearGradient xlink:href="#id-45a" id="id-81K" gradientUnits="userSpaceOnUse"
            gradientTransform="matrix(1.16235,0.08836,-0.08836,1.16235,-1311.639,-76.25904)" x1="1458.281" y1="678.05872" x2="1464.223"
            y2="717.07275" />
        <linearGradient xlink:href="#id-46b" gradientUnits="userSpaceOnUse" gradientTransform="matrix(1.1657,0,0,1.1657,-1374.2487,36.06295)"
            x1="1455.0509" y1="711.57135" x2="1466.9231" y2="711.57135" />
        <linearGradient xlink:href="#id-45a" id="id-82L" gradientUnits="userSpaceOnUse"
            gradientTransform="matrix(1.16235,0.08836,-0.08836,1.16235,-1311.639,-76.25904)" x1="1487.8141" y1="663.16022" x2="1444.5061"
            y2="682.60339" />
        <linearGradient xlink:href="#id-47c" id="id-83M" gradientUnits="userSpaceOnUse" x1="1378.1128" y1="883.67627" x2="1369.9249" y2="910.1145" />
        <linearGradient xlink:href="#id-48d" id="id-84N" gradientUnits="userSpaceOnUse"
            gradientTransform="matrix(0.90667,5.7e-4,5e-4,0.9188,127.09096,71.58128)" x1="1423.3486" y1="908.87756" x2="1351.9747" y2="893.44263" />
        <linearGradient xlink:href="#id-45a" id="id-86P" gradientUnits="userSpaceOnUse"
            gradientTransform="matrix(1.1623465,0.08835763,-0.08835763,1.1623465,-1290.0219,-69.268466)" x1="1485.2881" y1="663.48065" x2="1462.1097"
            y2="706.55676" />
        <linearGradient xlink:href="#id-45a" id="id-87Q" gradientUnits="userSpaceOnUse"
            gradientTransform="matrix(1.1623465,0.08835763,-0.08835763,1.1623465,-1293.1184,-70.568957)" x1="1457.9685" y1="674.39838" x2="1464.8898"
            y2="724.73755" />
        <linearGradient xlink:href="#id-45a" id="id-88R" gradientUnits="userSpaceOnUse"
            gradientTransform="matrix(1.1623465,0.08835763,-0.08835763,1.1623465,-1293.1184,-70.568963)" x1="1487.8141" y1="663.16022" x2="1444.5061"
            y2="682.60339" />
        <linearGradient xlink:href="#id-47c" id="id-89S" gradientUnits="userSpaceOnUse" gradientTransform="matrix(1,-0.07672,0,1,14.45325,135.07961)"
            x1="1480.3562" y1="713.55145" x2="1480.2505" y2="699.89374" />
        <linearGradient xlink:href="#id-47c" id="id-90T" gradientUnits="userSpaceOnUse" gradientTransform="matrix(1,-0.07672,0,1,14.45325,135.07961)"
            x1="1476.0466" y1="720.76678" x2="1475.4058" y2="691.3255" />
        <linearGradient xlink:href="#id-45a" id="id-91U" gradientUnits="userSpaceOnUse" gradientTransform="matrix(1,-0.07672,0,1,61.10047,103.91988)"
            x1="1426.3765" y1="742.80731" x2="1436.7494" y2="727.41016" />
        <linearGradient xlink:href="#id-45a" id="id-92V" gradientUnits="userSpaceOnUse"
            gradientTransform="matrix(1.1623465,0.08835763,-0.08835763,1.1623465,-1293.1184,-70.568963)" x1="1487.8141" y1="663.16022" x2="1444.5061"
            y2="682.60339" />
        <linearGradient xlink:href="#id-45a" id="id-101ae" gradientUnits="userSpaceOnUse"
            gradientTransform="matrix(1.1623465,0.08835763,-0.08835763,1.1623465,-1293.1184,-70.568963)" x1="1487.8141" y1="663.16022" x2="1444.5061"
            y2="682.60339" />
        <filter style="color-interpolation-filters:sRGB" height="1.52817" y="-0.26409" width="1.03863" x="-0.01932" id="id-108al">
            <feGaussianBlur stdDeviation="2.80703" />
        </filter>
        <filter style="color-interpolation-filters:sRGB" id="id-109am">
            <feGaussianBlur stdDeviation="1.44316" />
        </filter>
        <filter style="color-interpolation-filters:sRGB" id="id-110an">
            <feGaussianBlur stdDeviation="1.38063" />
        </filter>
        <filter style="color-interpolation-filters:sRGB" id="id-111ao">
            <feGaussianBlur stdDeviation="1.33172" />
        </filter>
        <filter style="color-interpolation-filters:sRGB" id="id-112ap">
            <feGaussianBlur stdDeviation="1.43792" />
        </filter>
        <filter style="color-interpolation-filters:sRGB" id="id-113aq">
            <feGaussianBlur stdDeviation="1.25596" />
        </filter>
        <filter style="color-interpolation-filters:sRGB" id="id-114ar">
            <feGaussianBlur stdDeviation=".70937" />
        </filter>
        <filter style="color-interpolation-filters:sRGB" id="id-115as">
            <feGaussianBlur stdDeviation=".70937" />
        </filter>
        <filter style="color-interpolation-filters:sRGB" id="id-116at">
            <feGaussianBlur stdDeviation=".70937" />
        </filter>
        <filter style="color-interpolation-filters:sRGB" id="id-117au">
            <feGaussianBlur stdDeviation=".70937" />
        </filter>
        <filter style="color-interpolation-filters:sRGB" id="id-118av">
            <feGaussianBlur stdDeviation=".70937" />
        </filter>
        <filter style="color-interpolation-filters:sRGB" id="id-119aw">
            <feGaussianBlur stdDeviation=".70937" />
        </filter>
        <filter style="color-interpolation-filters:sRGB" id="id-120ax">
            <feGaussianBlur stdDeviation=".70937" />
        </filter>
        <filter style="color-interpolation-filters:sRGB" id="id-121ay">
            <feGaussianBlur stdDeviation=".70937" />
        </filter>
        <filter style="color-interpolation-filters:sRGB" id="id-122az">
            <feGaussianBlur stdDeviation=".70937" />
        </filter>
        <filter style="color-interpolation-filters:sRGB" id="id-123aA">
            <feGaussianBlur stdDeviation=".71843" />
        </filter>
        <filter style="color-interpolation-filters:sRGB" id="id-124aB">
            <feGaussianBlur stdDeviation=".71843" />
        </filter>
        <filter style="color-interpolation-filters:sRGB" id="id-125aC">
            <feGaussianBlur stdDeviation=".71843" />
        </filter>
        <filter style="color-interpolation-filters:sRGB" id="id-126aD">
            <feGaussianBlur stdDeviation=".71843" />
        </filter>
        <filter style="color-interpolation-filters:sRGB" id="id-127aE">
            <feGaussianBlur stdDeviation=".71843" />
        </filter>
        <filter style="color-interpolation-filters:sRGB" id="id-128aF">
            <feGaussianBlur stdDeviation=".71843" />
        </filter>
        <filter style="color-interpolation-filters:sRGB" id="id-130aH">
            <feGaussianBlur stdDeviation=".80552" />
        </filter>
        <filter style="color-interpolation-filters:sRGB" height="1.27337" y="-0.13668001" width="1.0977401" x="-0.048870001" id="id-63s">
            <feGaussianBlur stdDeviation=".62517" />
        </filter>
        <filter style="color-interpolation-filters:sRGB" id="id-107ak">
            <feGaussianBlur stdDeviation="1.98776" />
        </filter>
        <filter style="color-interpolation-filters:sRGB" id="id-106aj">
            <feGaussianBlur stdDeviation="2.05552" />
        </filter>
        <filter style="color-interpolation-filters:sRGB" id="id-66v">
            <feGaussianBlur stdDeviation=".8496" />
        </filter>
        <filter style="color-interpolation-filters:sRGB" id="id-64t">
            <feGaussianBlur stdDeviation=".8496" />
        </filter>
        <filter style="color-interpolation-filters:sRGB" id="id-65u">
            <feGaussianBlur stdDeviation=".8496" />
        </filter>
        <radialGradient r="23.997231" fy="857.33496" fx="1394.4729" cy="857.33496" cx="1394.4729"
            gradientTransform="matrix(0.36227,-0.00112,-0.00787,0.49499,897.13891,433.95193)" gradientUnits="userSpaceOnUse" id="id-72B"
            xlink:href="#id-49e" />
        <radialGradient r="23.997231" fy="857.33496" fx="1394.4729" cy="857.33496" cx="1394.4729"
            gradientTransform="matrix(0.36227,-0.00112,-0.00787,0.49499,897.13891,433.95193)" gradientUnits="userSpaceOnUse" id="id-85O"
            xlink:href="#id-49e" />
        <radialGradient r="23.997231" fy="857.33496" fx="1394.4729" cy="857.33496" cx="1394.4729"
            gradientTransform="matrix(0.36227,-0.00112,-0.00787,0.49499,897.13891,433.95193)" gradientUnits="userSpaceOnUse" id="id-98ab"
            xlink:href="#id-49e" />
        <radialGradient r="23.997231" fy="857.33496" fx="1394.4729" cy="857.33496" cx="1394.4729"
            gradientTransform="matrix(0.36227,-0.00112,-0.00787,0.49499,897.13891,433.95193)" gradientUnits="userSpaceOnUse" id="id-55k"
            xlink:href="#id-49e" />
        <clipPath clipPathUnits="userSpaceOnUse" id="id-129aG">
            <circle style="fill:#473e81;stroke:#1a191e;stroke-width:0.86208999;stroke-linecap:round" cx="-615.61865" cy="-262.03094" r="87.568947" />
        </clipPath>
    </defs>
    <g transform="matrix(-0.25813,0,0,0.25813,194.4401,87.834429)">
        <path style="fill:url(#id-50f);stroke:#979797;stroke-width:0.11657"
            d="m 325.07854,839.21711 3.29626,42.10946 c 1.23868,4.30667 2.38363,8.64147 7.30104,11.84518 2.90353,0.56876 5.82035,0.96293 8.82985,0.13865 2.77496,-1.45199 5.45607,-3.27854 7.585,-7.30523 0.93932,-1.97478 1.72722,-5.64037 2.51687,-9.28817 l 0.5677,-11.67308 c 0.0117,-0.1412 5.05624,-38.49222 5.05624,-38.49222 z"
            transform="translate(255.96358,-119.18216)" />
        <path style="fill:url(#id-51g);stroke:url(#r);stroke-width:0.11657"
            d="m 325.07854,839.21711 3.29626,42.10946 c 1.23868,4.30667 2.38363,8.64147 7.30104,11.84518 l -3.09658,-1.30049 c -4.9174,-3.2037 -6.06236,-7.53851 -7.30103,-11.84518 l -3.29615,-42.10947 z"
            transform="translate(255.96358,-119.18216)" />
        <path style="fill:url(#id-52h);stroke:#979797;stroke-width:0.11657"
            d="m 321.98208,837.91661 35.15296,-12.6654 3.09646,1.30049 -35.15296,12.66541 z" transform="translate(255.96358,-119.18216)" />
        <g style="color:#000000">
            <path
                d="m 1384.1055,891.70249 c -0.4021,11.09673 -7.3236,19.85343 -15.4597,19.55862 -8.136,-0.29479 -14.4056,-9.52946 -14.0035,-20.62618 0.4021,-11.09673 7.3236,-19.85342 15.4596,-19.55863 8.136,0.29481 14.4056,9.52947 14.0036,20.62619 z"
                style="overflow:visible;fill:url(#id-53i);marker:none;enable-background:accumulate" overflow="visible"
                transform="matrix(1.04988,0.05824,-0.04379,1.2464,-786.30492,-428.5112)" />
            <path style="overflow:visible;fill:url(#id-54j);marker:none;enable-background:accumulate"
                d="m 1380.0107,891.63675 c -0.3599,9.5557 -6.6372,17.09258 -14.0212,16.83408 -7.3839,-0.25849 -13.0784,-8.21447 -12.7188,-17.77016 0.3599,-9.5557 6.6372,-17.09257 14.0211,-16.83409 7.3839,0.2585 13.0784,8.21448 12.7189,17.77017 z"
                overflow="visible" transform="matrix(1.04988,0.05824,-0.04379,1.2464,-786.30492,-428.5112)" />
            <path
                style="overflow:visible;fill:url(#id-55k);stroke:#0b0b0b;stroke-width:2.06270003;stroke-linecap:square;marker:none;enable-background:accumulate"
                d="m 1405.4688,838.625 c -9.5309,1.72131 -17.0926,10.2604 -17.5938,24.09375 -0.5013,13.83337 6.8338,22.93695 16.6284,25.46541 4.0615,1.04847 9.5439,1.26426 13.9139,-0.32146 8.6154,-3.12626 15.2017,-11.33495 15.6573,-23.91052 0.5012,-13.83335 -6.3195,-24.65291 -15.9184,-25.70218 -4.498,-1.0954 -9.1535,-0.26324 -12.6874,0.375 z m 10.3437,5.0625 c 0.2517,-0.008 0.4958,-0.009 0.75,0 8.136,0.29481 14.402,9.52828 14,20.625 -0.4021,11.09673 -7.3014,19.85731 -15.4375,19.5625 -8.136,-0.29479 -15.3445,-9.50753 -14.9423,-20.60425 0.3895,-10.74996 7.8266,-19.32714 15.6298,-19.58325 z"
                transform="matrix(1.04988,0.05824,-0.04379,1.2464,-836.48666,-396.851)" overflow="visible" />
        </g>
        <path style="fill:url(#id-56l);stroke:#979797;stroke-width:0.11657"
            d="m 378.76141,832.25982 -35.15331,12.6406 0.21822,2.76855 3.05997,39.34249 c 0.8139,5.47493 2.22452,8.93049 7.32202,11.83918 2.74885,1.56853 5.9121,1.28832 8.81575,0.14571 2.91438,-1.14684 5.44803,-3.25896 7.57707,-7.28565 0.93933,-1.97478 2.04255,-4.84486 2.51349,-9.2892 l 0.58285,-11.69346 c 0.0117,-2.96677 5.06359,-38.46822 5.06359,-38.46822 z"
            transform="translate(255.96358,-119.18216)" />
        <path style="fill:url(#id-57m)"
            d="m 321.96973,837.9062 0.23174,2.80386 18.56523,6.08463 3.0236,38.90535 c 1.20114,6.29677 2.40461,8.67191 7.32202,11.87561 l 3.09634,1.27499 c -4.9174,-3.20372 -6.45881,-7.11947 -7.32202,-11.83918 l -3.27854,-42.11104 z"
            transform="translate(255.96358,-119.18216)" />
        <path style="fill:url(#id-58n);stroke:#979797;stroke-width:0.11657"
            d="m 340.4994,843.60654 34.55227,-12.56214 3.69726,1.19723 -35.15296,12.66541 z" transform="translate(255.96358,-119.18216)" />
        <g style="color:#000000;fill-rule:evenodd;stroke:#979797;stroke-linecap:square">
            <path style="overflow:visible;fill:url(#id-59o);stroke-width:0.10853;marker:none;enable-background:accumulate"
                d="m 1493.047,721.60723 -5.7353,0.15667 0.3565,13.15182 5.3788,0.12901 c 1.4598,0.035 2.625,-3.20963 2.625,-6.92015 -10e-5,-3.71052 -1.1683,-6.62911 -2.625,-6.51735 z"
                overflow="visible" transform="matrix(1.14677,0.0292,-0.0263,1.03283,-1073.8782,-32.38021)" />
            <path style="overflow:visible;fill:url(#id-60p);stroke-width:0.1;marker:none;enable-background:accumulate"
                d="m 1492.9532,738.23942 c -2.8527,0.21887 -5.1563,-4.0787 -5.1562,-9.6044 0,-5.52571 2.3035,-10.17673 5.1562,-10.3956 l -3.6077,-0.10734 c -2.9623,0.22727 -5.1265,4.64697 -5.1265,10.38494 -10e-5,5.73796 2.1752,9.86287 4.901,10.02901 z"
                overflow="visible" transform="matrix(1.14677,0.0292,-0.0263,1.03283,-1073.8782,-32.38021)" />
            <path style="overflow:visible;fill:url(#id-61q);stroke-width:0.1;marker:none;enable-background:accumulate"
                d="m 1492.9533,718.23943 c -2.8527,0.21886 -5.1562,4.86988 -5.1562,10.39559 -10e-5,5.5257 2.3035,9.82327 5.1562,9.60441 2.8527,-0.21887 5.1562,-4.86991 5.1562,-10.3956 0,-5.52571 -2.3035,-9.82327 -5.1562,-9.6044 z m 0.094,3.36778 c 1.4568,-0.11177 2.6249,2.80684 2.625,6.51736 0,3.71052 -1.1682,6.80837 -2.625,6.92014 -1.4568,0.11177 -2.6563,-2.80443 -2.6563,-6.51495 0,-3.71053 1.1994,-6.81077 2.6563,-6.92255 z"
                overflow="visible" transform="matrix(1.14677,0.0292,-0.0263,1.03283,-1073.8782,-32.38021)" />
        </g>
        <path style="fill:url(#id-62r);stroke:#979797;stroke-width:0.11657"
            d="m 321.98208,837.91661 35.15296,-12.6654 21.61389,6.99042 -35.15296,12.66541 z" transform="translate(255.96358,-119.18216)" />
        <path style="fill:none;stroke:#ffffff;stroke-width:2;stroke-linecap:round;filter:url(#id-63s)" transform="translate(-146.62075,6.49252)"
            d="m 747.14707,719.17427 32.89106,-12.00792" />
        <path style="fill:none;stroke:#8a8a8a;stroke-width:6;stroke-linecap:round" d="m 488.49561,243.90691 -51.2058,322.63777" />
        <path style="fill:none;stroke:#e6e6e6;stroke-width:2.02621007;stroke-linecap:round;filter:url(#id-64t)"
            transform="matrix(0.04138,-0.9732,1.002,-0.02075,168.23961,2026.922)" d="M 1826.895,244.1691 1496.1735,206.72376" />
        <path style="fill:none;stroke:#8a8a8a;stroke-width:6;stroke-linecap:round" d="m 574.32561,254.15651 -58.1392,322.63777" />
        <path style="fill:none;stroke:#e6e6e6;stroke-width:2.02621007;stroke-linecap:round;filter:url(#id-65u)"
            d="M 1826.895,244.1691 1496.1735,206.72376" transform="matrix(0.0623,-0.9732,1.00245,-0.02075,215.75271,2037.1716)" />
        <path style="fill:none;stroke:#8a8a8a;stroke-width:6;stroke-linecap:round" d="m 403.18561,234.52211 -45.659,322.63777" />
        <path style="fill:none;stroke:#e6e6e6;stroke-width:2.02621007;stroke-linecap:round;filter:url(#id-66v)"
            d="M 1826.895,244.1691 1496.1735,206.72376" transform="matrix(0.02465,-0.9732,1.00165,-0.02075,113.58321,2017.5372)" />
        <path style="fill:url(#id-67w);stroke:#979797;stroke-width:0.11657"
            d="m 325.07854,839.21711 3.29626,42.10946 c 1.23868,4.30667 2.38363,8.64147 7.30104,11.84518 2.90353,0.56876 5.82035,0.96293 8.82985,0.13865 2.77496,-1.45199 5.45607,-3.27854 7.585,-7.30523 0.93932,-1.97478 1.72722,-5.64037 2.51687,-9.28817 l 0.5677,-11.67308 c 0.0117,-0.1412 5.05624,-38.49222 5.05624,-38.49222 z"
            transform="matrix(0.92754,0,0,0.92754,23.87087,-112.07818)" />
        <path style="fill:url(#id-68x);stroke:url(#J);stroke-width:0.11657"
            d="m 325.07854,839.21711 3.29626,42.10946 c 1.23868,4.30667 2.38363,8.64147 7.30104,11.84518 l -3.09658,-1.30049 c -4.9174,-3.2037 -6.06236,-7.53851 -7.30103,-11.84518 l -3.29615,-42.10947 z"
            transform="matrix(0.92754,0,0,0.92754,23.87087,-112.07818)" />
        <path style="fill:url(#id-69y);stroke:#979797;stroke-width:0.11657"
            d="m 321.98208,837.91661 35.15296,-12.6654 3.09646,1.30049 -35.15296,12.66541 z"
            transform="matrix(0.92754,0,0,0.92754,23.87087,-112.07818)" />
        <g style="color:#000000">
            <path style="overflow:visible;fill:url(#id-70z);marker:none;enable-background:accumulate"
                d="m 1384.1055,891.70249 c -0.4021,11.09673 -7.3236,19.85343 -15.4597,19.55862 -8.136,-0.29479 -14.4056,-9.52946 -14.0035,-20.62618 0.4021,-11.09673 7.3236,-19.85342 15.4596,-19.55863 8.136,0.29481 14.4056,9.52947 14.0036,20.62619 z"
                overflow="visible" transform="matrix(0.97381,0.05402,-0.04062,1.15609,-942.87882,-398.9944)" />
            <path
                d="m 1380.0107,891.63675 c -0.3599,9.5557 -6.6372,17.09258 -14.0212,16.83408 -7.3839,-0.25849 -13.0784,-8.21447 -12.7188,-17.77016 0.3599,-9.5557 6.6372,-17.09257 14.0211,-16.83409 7.3839,0.2585 13.0784,8.21448 12.7189,17.77017 z"
                style="overflow:visible;fill:url(#id-71A);marker:none;enable-background:accumulate" overflow="visible"
                transform="matrix(0.97381,0.05402,-0.04062,1.15609,-942.87882,-398.9944)" />
            <path transform="matrix(0.97381,0.05402,-0.04062,1.15609,-989.42458,-369.62818)"
                d="m 1405.4688,838.625 c -9.5309,1.72131 -17.0926,10.2604 -17.5938,24.09375 -0.5013,13.83337 6.8338,22.93695 16.6284,25.46541 4.0615,1.04847 9.5439,1.26426 13.9139,-0.32146 8.6154,-3.12626 15.2017,-11.33495 15.6573,-23.91052 0.5012,-13.83335 -6.3195,-24.65291 -15.9184,-25.70218 -4.498,-1.0954 -9.1535,-0.26324 -12.6874,0.375 z m 10.3437,5.0625 c 0.2517,-0.008 0.4958,-0.009 0.75,0 8.136,0.29481 14.402,9.52828 14,20.625 -0.4021,11.09673 -7.3014,19.85731 -15.4375,19.5625 -8.136,-0.29479 -15.3445,-9.50753 -14.9423,-20.60425 0.3895,-10.74996 7.8266,-19.32714 15.6298,-19.58325 z"
                style="overflow:visible;fill:url(#id-72B);stroke:#0b0b0b;stroke-width:2.06270003;stroke-linecap:square;marker:none;enable-background:accumulate"
                overflow="visible" />
        </g>
        <path style="fill:url(#id-73C);stroke:#979797;stroke-width:0.11657"
            d="m 378.76141,832.25982 -35.15331,12.6406 0.21822,2.76855 3.05997,39.34249 c 0.8139,5.47493 2.22452,8.93049 7.32202,11.83918 2.74885,1.56853 5.9121,1.28832 8.81575,0.14571 2.91438,-1.14684 5.44803,-3.25896 7.57707,-7.28565 0.93933,-1.97478 2.04255,-4.84486 2.51349,-9.2892 l 0.58285,-11.69346 c 0.0117,-2.96677 5.06359,-38.46822 5.06359,-38.46822 z"
            transform="matrix(0.92754,0,0,0.92754,23.87087,-112.07818)" />
        <path style="fill:url(#id-74D)"
            d="m 321.96973,837.9062 0.23174,2.80386 18.56523,6.08463 3.0236,38.90535 c 1.20114,6.29677 2.40461,8.67191 7.32202,11.87561 l 3.09634,1.27499 c -4.9174,-3.20372 -6.45881,-7.11947 -7.32202,-11.83918 l -3.27854,-42.11104 z"
            transform="matrix(0.92754,0,0,0.92754,23.87087,-112.07818)" />
        <path style="fill:url(#id-75E);stroke:#979797;stroke-width:0.11657"
            d="m 340.4994,843.60654 34.55227,-12.56214 3.69726,1.19723 -35.15296,12.66541 z"
            transform="matrix(0.92754,0,0,0.92754,23.87087,-112.07818)" />
        <g style="color:#000000;fill-rule:evenodd;stroke:#979797;stroke-linecap:square">
            <path
                d="m 1493.047,721.60723 -5.7353,0.15667 0.3565,13.15182 5.3788,0.12901 c 1.4598,0.035 2.625,-3.20963 2.625,-6.92015 -10e-5,-3.71052 -1.1683,-6.62911 -2.625,-6.51735 z"
                style="overflow:visible;fill:url(#id-76F);stroke-width:0.10853;marker:none;enable-background:accumulate" overflow="visible"
                transform="matrix(1.06368,0.02709,-0.0244,0.958,-1209.6157,-31.56557)" />
            <path
                d="m 1492.9532,738.23942 c -2.8527,0.21887 -5.1563,-4.0787 -5.1562,-9.6044 0,-5.52571 2.3035,-10.17673 5.1562,-10.3956 l -3.6077,-0.10734 c -2.9623,0.22727 -5.1265,4.64697 -5.1265,10.38494 -10e-5,5.73796 2.1752,9.86287 4.901,10.02901 z"
                style="overflow:visible;fill:url(#id-77G);stroke-width:0.1;marker:none;enable-background:accumulate" overflow="visible"
                transform="matrix(1.06368,0.02709,-0.0244,0.958,-1209.6157,-31.56557)" />
            <path
                d="m 1492.9533,718.23943 c -2.8527,0.21886 -5.1562,4.86988 -5.1562,10.39559 -10e-5,5.5257 2.3035,9.82327 5.1562,9.60441 2.8527,-0.21887 5.1562,-4.86991 5.1562,-10.3956 0,-5.52571 -2.3035,-9.82327 -5.1562,-9.6044 z m 0.094,3.36778 c 1.4568,-0.11177 2.6249,2.80684 2.625,6.51736 0,3.71052 -1.1682,6.80837 -2.625,6.92014 -1.4568,0.11177 -2.6563,-2.80443 -2.6563,-6.51495 0,-3.71053 1.1994,-6.81077 2.6563,-6.92255 z"
                style="overflow:visible;fill:url(#id-78H);stroke-width:0.1;marker:none;enable-background:accumulate" overflow="visible"
                transform="matrix(1.06368,0.02709,-0.0244,0.958,-1209.6157,-31.56557)" />
        </g>
        <path style="fill:url(#id-79I);stroke:#979797;stroke-width:0.11657"
            d="m 321.98208,837.91661 35.15296,-12.6654 21.61389,6.99042 -35.15296,12.66541 z"
            transform="matrix(0.92754,0,0,0.92754,23.87087,-112.07818)" />
        <path style="fill:none;stroke:#ffffff;stroke-width:2;stroke-linecap:round;filter:url(#id-63s)" d="M 443.7098,692.76864 473.76625,681.5338"
            transform="translate(-99.97353,-21.08833)" />
        <path style="fill:url(#id-80J);stroke:#979797;stroke-width:0.11657"
            d="m 325.07854,839.21711 3.29626,42.10946 c 1.23868,4.30667 2.38363,8.64147 7.30104,11.84518 2.90353,0.56876 5.82035,0.96293 8.82985,0.13865 2.77496,-1.45199 5.45607,-3.27854 7.585,-7.30523 0.93932,-1.97478 1.72722,-5.64037 2.51687,-9.28817 l 0.5677,-11.67308 c 0.0117,-0.1412 5.05624,-38.49222 5.05624,-38.49222 z"
            transform="matrix(0.92754,0,0,0.92754,-190.3336,6.36779)" />
        <path style="fill:url(#id-81K);stroke:url(#X);stroke-width:0.11657"
            d="m 325.07854,839.21711 3.29626,42.10946 c 1.23868,4.30667 2.38363,8.64147 7.30104,11.84518 l -3.09658,-1.30049 c -4.9174,-3.2037 -6.06236,-7.53851 -7.30103,-11.84518 l -3.29615,-42.10947 z"
            transform="matrix(0.92754,0,0,0.92754,-190.3336,6.36779)" />
        <path style="fill:url(#id-82L);stroke:#979797;stroke-width:0.11657"
            d="m 321.98208,837.91661 35.15296,-12.6654 3.09646,1.30049 -35.15296,12.66541 z"
            transform="matrix(0.92754,0,0,0.92754,-190.3336,6.36779)" />
        <g style="color:#000000">
            <path style="overflow:visible;fill:url(#id-83M);marker:none;enable-background:accumulate"
                d="m 1384.1055,891.70249 c -0.4021,11.09673 -7.3236,19.85343 -15.4597,19.55862 -8.136,-0.29479 -14.4056,-9.52946 -14.0035,-20.62618 0.4021,-11.09673 7.3236,-19.85342 15.4596,-19.55863 8.136,0.29481 14.4056,9.52947 14.0036,20.62619 z"
                overflow="visible" transform="matrix(0.97381,0.05402,-0.04062,1.15609,-1157.0833,-280.54844)" />
            <path
                d="m 1380.0107,891.63675 c -0.3599,9.5557 -6.6372,17.09258 -14.0212,16.83408 -7.3839,-0.25849 -13.0784,-8.21447 -12.7188,-17.77016 0.3599,-9.5557 6.6372,-17.09257 14.0211,-16.83409 7.3839,0.2585 13.0784,8.21448 12.7189,17.77017 z"
                style="overflow:visible;fill:url(#id-84N);marker:none;enable-background:accumulate" overflow="visible"
                transform="matrix(0.97381,0.05402,-0.04062,1.15609,-1157.0833,-280.54844)" />
            <path transform="matrix(0.97381,0.05402,-0.04062,1.15609,-1203.6291,-251.18222)"
                d="m 1405.4688,838.625 c -9.5309,1.72131 -17.0926,10.2604 -17.5938,24.09375 -0.5013,13.83337 6.8338,22.93695 16.6284,25.46541 4.0615,1.04847 9.5439,1.26426 13.9139,-0.32146 8.6154,-3.12626 15.2017,-11.33495 15.6573,-23.91052 0.5012,-13.83335 -6.3195,-24.65291 -15.9184,-25.70218 -4.498,-1.0954 -9.1535,-0.26324 -12.6874,0.375 z m 10.3437,5.0625 c 0.2517,-0.008 0.4958,-0.009 0.75,0 8.136,0.29481 14.402,9.52828 14,20.625 -0.4021,11.09673 -7.3014,19.85731 -15.4375,19.5625 -8.136,-0.29479 -15.3445,-9.50753 -14.9423,-20.60425 0.3895,-10.74996 7.8266,-19.32714 15.6298,-19.58325 z"
                style="overflow:visible;fill:url(#id-85O);stroke:#0b0b0b;stroke-width:2.06270003;stroke-linecap:square;marker:none;enable-background:accumulate"
                overflow="visible" />
        </g>
        <path style="fill:url(#id-86P);stroke:#979797;stroke-width:0.11657"
            d="m 378.76141,832.25982 -35.15331,12.6406 0.21822,2.76855 3.05997,39.34249 c 0.8139,5.47493 2.22452,8.93049 7.32202,11.83918 2.74885,1.56853 5.9121,1.28832 8.81575,0.14571 2.91438,-1.14684 5.44803,-3.25896 7.57707,-7.28565 0.93933,-1.97478 2.04255,-4.84486 2.51349,-9.2892 l 0.58285,-11.69346 c 0.0117,-2.96677 5.06359,-38.46822 5.06359,-38.46822 z"
            transform="matrix(0.92754,0,0,0.92754,-190.3336,6.36779)" />
        <path style="fill:url(#id-87Q)"
            d="m 321.96973,837.9062 0.23174,2.80386 18.56523,6.08463 3.0236,38.90535 c 1.20114,6.29677 2.40461,8.67191 7.32202,11.87561 l 3.09634,1.27499 c -4.9174,-3.20372 -6.45881,-7.11947 -7.32202,-11.83918 l -3.27854,-42.11104 z"
            transform="matrix(0.92754,0,0,0.92754,-190.3336,6.36779)" />
        <path style="fill:url(#id-88R);stroke:#979797;stroke-width:0.11657"
            d="m 340.4994,843.60654 34.55227,-12.56214 3.69726,1.19723 -35.15296,12.66541 z"
            transform="matrix(0.92754,0,0,0.92754,-190.3336,6.36779)" />
        <g style="color:#000000;fill-rule:evenodd;stroke:#979797;stroke-linecap:square">
            <path
                d="m 1493.047,721.60723 -5.7353,0.15667 0.3565,13.15182 5.3788,0.12901 c 1.4598,0.035 2.625,-3.20963 2.625,-6.92015 -10e-5,-3.71052 -1.1683,-6.62911 -2.625,-6.51735 z"
                style="overflow:visible;fill:url(#id-89S);stroke-width:0.10853;marker:none;enable-background:accumulate" overflow="visible"
                transform="matrix(1.06368,0.02709,-0.0244,0.958,-1423.8201,86.8804)" />
            <path
                d="m 1492.9532,738.23942 c -2.8527,0.21887 -5.1563,-4.0787 -5.1562,-9.6044 0,-5.52571 2.3035,-10.17673 5.1562,-10.3956 l -3.6077,-0.10734 c -2.9623,0.22727 -5.1265,4.64697 -5.1265,10.38494 -10e-5,5.73796 2.1752,9.86287 4.901,10.02901 z"
                style="overflow:visible;fill:url(#id-90T);stroke-width:0.1;marker:none;enable-background:accumulate" overflow="visible"
                transform="matrix(1.06368,0.02709,-0.0244,0.958,-1423.8201,86.8804)" />
            <path
                d="m 1492.9533,718.23943 c -2.8527,0.21886 -5.1562,4.86988 -5.1562,10.39559 -10e-5,5.5257 2.3035,9.82327 5.1562,9.60441 2.8527,-0.21887 5.1562,-4.86991 5.1562,-10.3956 0,-5.52571 -2.3035,-9.82327 -5.1562,-9.6044 z m 0.094,3.36778 c 1.4568,-0.11177 2.6249,2.80684 2.625,6.51736 0,3.71052 -1.1682,6.80837 -2.625,6.92014 -1.4568,0.11177 -2.6563,-2.80443 -2.6563,-6.51495 0,-3.71053 1.1994,-6.81077 2.6563,-6.92255 z"
                style="overflow:visible;fill:url(#id-91U);stroke-width:0.1;marker:none;enable-background:accumulate" overflow="visible"
                transform="matrix(1.06368,0.02709,-0.0244,0.958,-1423.8201,86.8804)" />
        </g>
        <path style="fill:url(#id-92V);stroke:#979797;stroke-width:0.11657"
            d="m 321.98208,837.91661 35.15296,-12.6654 21.61389,6.99042 -35.15296,12.66541 z"
            transform="matrix(0.92754,0,0,0.92754,-190.3336,6.36779)" />
        <path style="fill:url(#id-93W);stroke:#979797;stroke-width:0.11657"
            d="m 325.07854,839.21711 3.29626,42.10946 c 1.23868,4.30667 2.38363,8.64147 7.30104,11.84518 2.90353,0.56876 5.82035,0.96293 8.82985,0.13865 2.77496,-1.45199 5.45607,-3.27854 7.585,-7.30523 0.93932,-1.97478 1.72722,-5.64037 2.51687,-9.28817 l 0.5677,-11.67308 c 0.0117,-0.1412 5.05624,-38.49222 5.05624,-38.49222 z"
            transform="translate(-101.78768,-24.20124)" />
        <path style="fill:url(#id-94X);stroke:url(#al);stroke-width:0.11657"
            d="m 325.07854,839.21711 3.29626,42.10946 c 1.23868,4.30667 2.38363,8.64147 7.30104,11.84518 l -3.09658,-1.30049 c -4.9174,-3.2037 -6.06236,-7.53851 -7.30103,-11.84518 l -3.29615,-42.10947 z"
            transform="translate(-101.78768,-24.20124)" />
        <path style="fill:url(#id-95Y);stroke:#979797;stroke-width:0.11657"
            d="m 321.98208,837.91661 35.15296,-12.6654 3.09646,1.30049 -35.15296,12.66541 z" transform="translate(-101.78768,-24.20124)" />
        <g style="color:#000000">
            <path
                d="m 1384.1055,891.70249 c -0.4021,11.09673 -7.3236,19.85343 -15.4597,19.55862 -8.136,-0.29479 -14.4056,-9.52946 -14.0035,-20.62618 0.4021,-11.09673 7.3236,-19.85342 15.4596,-19.55863 8.136,0.29481 14.4056,9.52947 14.0036,20.62619 z"
                style="overflow:visible;fill:url(#id-96Z);marker:none;enable-background:accumulate" overflow="visible"
                transform="matrix(1.04988,0.05824,-0.04379,1.2464,-1144.0562,-333.53027)" />
            <path style="overflow:visible;fill:url(#id-97aa);marker:none;enable-background:accumulate"
                d="m 1380.0107,891.63675 c -0.3599,9.5557 -6.6372,17.09258 -14.0212,16.83408 -7.3839,-0.25849 -13.0784,-8.21447 -12.7188,-17.77016 0.3599,-9.5557 6.6372,-17.09257 14.0211,-16.83409 7.3839,0.2585 13.0784,8.21448 12.7189,17.77017 z"
                overflow="visible" transform="matrix(1.04988,0.05824,-0.04379,1.2464,-1144.0562,-333.53027)" />
            <path
                style="overflow:visible;fill:url(#id-98ab);stroke:#0b0b0b;stroke-width:2.06270003;stroke-linecap:square;marker:none;enable-background:accumulate"
                d="m 1405.4688,838.625 c -9.5309,1.72131 -17.0926,10.2604 -17.5938,24.09375 -0.5013,13.83337 6.8338,22.93695 16.6284,25.46541 4.0615,1.04847 9.5439,1.26426 13.9139,-0.32146 8.6154,-3.12626 15.2017,-11.33495 15.6573,-23.91052 0.5012,-13.83335 -6.3195,-24.65291 -15.9184,-25.70218 -4.498,-1.0954 -9.1535,-0.26324 -12.6874,0.375 z m 10.3437,5.0625 c 0.2517,-0.008 0.4958,-0.009 0.75,0 8.136,0.29481 14.402,9.52828 14,20.625 -0.4021,11.09673 -7.3014,19.85731 -15.4375,19.5625 -8.136,-0.29479 -15.3445,-9.50753 -14.9423,-20.60425 0.3895,-10.74996 7.8266,-19.32714 15.6298,-19.58325 z"
                transform="matrix(1.04988,0.05824,-0.04379,1.2464,-1194.2379,-301.87008)" overflow="visible" />
        </g>
        <path style="fill:url(#id-99ac);stroke:#979797;stroke-width:0.11657"
            d="m 378.76141,832.25982 -35.15331,12.6406 0.21822,2.76855 3.05997,39.34249 c 0.8139,5.47493 2.22452,8.93049 7.32202,11.83918 2.74885,1.56853 5.9121,1.28832 8.81575,0.14571 2.91438,-1.14684 5.44803,-3.25896 7.57707,-7.28565 0.93933,-1.97478 2.04255,-4.84486 2.51349,-9.2892 l 0.58285,-11.69346 c 0.0117,-2.96677 5.06359,-38.46822 5.06359,-38.46822 z"
            transform="translate(-101.78768,-24.20124)" />
        <path style="fill:url(#id-100ad)"
            d="m 321.96973,837.9062 0.23174,2.80386 18.56523,6.08463 3.0236,38.90535 c 1.20114,6.29677 2.40461,8.67191 7.32202,11.87561 l 3.09634,1.27499 c -4.9174,-3.20372 -6.45881,-7.11947 -7.32202,-11.83918 l -3.27854,-42.11104 z"
            transform="translate(-101.78768,-24.20124)" />
        <path style="fill:url(#id-101ae);stroke:#979797;stroke-width:0.11657"
            d="m 340.4994,843.60654 34.55227,-12.56214 3.69726,1.19723 -35.15296,12.66541 z" transform="translate(-101.78768,-24.20124)" />
        <g style="color:#000000;fill-rule:evenodd;stroke:#979797;stroke-linecap:square">
            <path style="overflow:visible;fill:url(#id-102af);stroke-width:0.10853;marker:none;enable-background:accumulate"
                d="m 1493.047,721.60723 -5.7353,0.15667 0.3565,13.15182 5.3788,0.12901 c 1.4598,0.035 2.625,-3.20963 2.625,-6.92015 -10e-5,-3.71052 -1.1683,-6.62911 -2.625,-6.51735 z"
                overflow="visible" transform="matrix(1.14677,0.0292,-0.0263,1.03283,-1431.6295,62.6007)" />
            <path style="overflow:visible;fill:url(#id-103ag);stroke-width:0.1;marker:none;enable-background:accumulate"
                d="m 1492.9532,738.23942 c -2.8527,0.21887 -5.1563,-4.0787 -5.1562,-9.6044 0,-5.52571 2.3035,-10.17673 5.1562,-10.3956 l -3.6077,-0.10734 c -2.9623,0.22727 -5.1265,4.64697 -5.1265,10.38494 -10e-5,5.73796 2.1752,9.86287 4.901,10.02901 z"
                overflow="visible" transform="matrix(1.14677,0.0292,-0.0263,1.03283,-1431.6295,62.6007)" />
            <path style="overflow:visible;fill:url(#id-104ah);stroke-width:0.1;marker:none;enable-background:accumulate"
                d="m 1492.9533,718.23943 c -2.8527,0.21886 -5.1562,4.86988 -5.1562,10.39559 -10e-5,5.5257 2.3035,9.82327 5.1562,9.60441 2.8527,-0.21887 5.1562,-4.86991 5.1562,-10.3956 0,-5.52571 -2.3035,-9.82327 -5.1562,-9.6044 z m 0.094,3.36778 c 1.4568,-0.11177 2.6249,2.80684 2.625,6.51736 0,3.71052 -1.1682,6.80837 -2.625,6.92014 -1.4568,0.11177 -2.6563,-2.80443 -2.6563,-6.51495 0,-3.71053 1.1994,-6.81077 2.6563,-6.92255 z"
                overflow="visible" transform="matrix(1.14677,0.0292,-0.0263,1.03283,-1431.6295,62.6007)" />
        </g>
        <path style="fill:url(#id-105ai);stroke:#979797;stroke-width:0.11657"
            d="m 321.98208,837.91661 35.15296,-12.6654 21.61389,6.99042 -35.15296,12.66541 z" transform="translate(-101.78768,-24.20124)" />
        <path
            style="color:#000000;font-weight:400;line-height:normal;font-family:Sans;text-indent:0;text-align:start;text-decoration:none;text-decoration-line:none;text-transform:none;overflow:visible;fill:#da3434;marker:none;enable-background:accumulate"
            d="m 321.18272,533.47417 v 0.0625 c 0.0379,5.7e-4 0.0712,-10e-4 0.0937,0 0.19507,0.0104 0.28998,0.0193 0.375,0.0312 -0.14727,-0.0282 -0.29517,-0.0689 -0.46875,-0.0937 z M 123.24357,759.205 c 0.0966,0.30105 0.14051,0.26946 0.21875,0.46875 0.0126,0.0289 -0.0129,0.099 0,0.125 0.32709,0.65772 0.0786,0.33111 -0.21875,-0.59375 z"
            font-weight="400" overflow="visible" />
        <path
            style="color:#000000;font-weight:400;line-height:normal;font-family:Sans;text-indent:0;text-align:start;text-decoration:none;text-decoration-line:none;text-transform:none;overflow:visible;fill:#bbbbbb;stroke:#666666;stroke-width:4;marker:none;filter:url(#id-106aj);enable-background:accumulate"
            d="m 320.27647,539.91167 -3.03125,17.75 12.9375,2.5625 c 2.68442,0.78661 4.29657,1.55757 5.1875,2.21875 1.82475,1.35418 3.00138,3.55177 5.78125,10.1875 l 0.0312,0.0937 0.0312,0.0625 18.9375,42.71875 v 0.0312 c 2.53236,6.63545 3.23042,12.09367 2.65625,15.34375 -0.56545,3.20072 -1.43279,4.64791 -5.125,6.40625 l -241.4375,107.03125 -0.15625,0.0937 -0.1875,0.0937 c -4.05765,2.01607 -7.49219,5.17708 -9.28125,9.1875 -1.78906,4.01042 -1.74248,8.48902 -0.5625,12.15625 2.35996,7.33446 8.35482,12.44581 15.90625,14.46875 l 132.15625,35.40625 0.34375,0.0625 0.34375,0.0625 c 22.60408,4.21755 42.64459,3.34649 62.71875,-4 h 0.0624 c 116.37744,-43.29482 203.88022,-69.73464 302.5,-102.28125 v 0.0312 c 9.85585,-2.95047 19.05909,-5.88805 24.6875,-14.59375 5.62841,-8.7057 5.07491,-19.68994 1.28125,-34.40625 l -0.125,-0.5 -0.1875,-0.46875 -14.15605,-37.3435 -0.0625,-0.125 -0.0312,-0.125 c -3.74547,-9.08835 -10.74001,-16.0206 -19.375,-20.71875 -8.62764,-4.69416 -18.90493,-7.58361 -31.03125,-9.9375 h -0.0312 l -245.5626,-48.46875 c -4.10988,-1.2179 -8.92416,-2.06133 -14.75,-2.90625 -0.16991,-0.0246 -0.29708,-0.0691 -0.46875,-0.0937 z m 37.46875,25.75 219.875,43.375 h 0.0312 c 11.2465,2.18172 19.91691,4.85205 25.875,8.09375 5.95809,3.2417 9.20117,6.65811 11.3125,11.78125 l 13.84375,36.46875 c 3.21675,12.64423 2.27074,17.86116 0.96875,19.875 -1.31432,2.03291 -5.57105,4.34591 -14.75,7.09375 l -0.125,0.0312 -0.0937,0.0312 c -98.44,32.49097 -186.37652,59.01839 -303.34375,102.53125 -16.95376,6.20452 -32.75672,7.01843 -53.0625,3.25 -0.0552,-0.0102 -0.10099,-0.0209 -0.15625,-0.0312 L 132.66713,764.87447 c -5.53925,-1.38618 -8.01213,-4.78477 -1.23389,-8.14827 l 233.56193,-102.97078 0.0625,-0.0312 0.0937,-0.0312 c 8.28715,-3.86909 13.93194,-11.5191 15.375,-19.6875 1.44306,-8.1684 -0.32548,-16.47082 -3.5625,-24.9375 l -0.0937,-0.21885 -0.0937,-0.21875 z"
            font-weight="400" overflow="visible" />
        <path
            style="color:#000000;font-weight:400;line-height:normal;font-family:Sans;text-indent:0;text-align:start;text-decoration:none;text-decoration-line:none;text-transform:none;overflow:visible;fill:#ffffff;marker:none;filter:url(#id-107ak);enable-background:accumulate"
            d="m 325.56675,547.52377 -0.84375,4.96875 6.71875,1.34375 0.28125,0.0625 0.25,0.0625 0.0312,0.0312 h 0.0625 l 0.0937,0.0312 v 0.0312 c 2.98875,0.88629 5.25036,1.78822 7.09375,3.15625 3.24477,2.40801 4.9356,5.95605 7.5,12.03125 l 0.0312,0.0625 0.78125,1.71875 18.5625,41.84375 0.0625,0.1875 0.0937,0.15625 v 0.0625 l 0.375,0.71875 v 0.53125 c 2.4142,6.72738 3.43666,12.52052 2.5625,17.46875 -0.35627,2.01667 -0.99968,4.39143 -2.65625,6.5625 -1.41948,1.86035 -3.271,3.10063 -5.25,4.125 l -0.21875,0.21875 -0.59375,0.25 -0.1875,0.0937 -0.0937,0.0312 -0.625,0.3125 h -0.0625 l -240.40625,106.5625 -0.0625,0.0312 -0.0625,0.0312 -0.0625,0.0312 -0.125,0.0625 h -0.0312 c -0.0274,0.0136 -0.0352,0.0488 -0.0625,0.0625 -2.89116,1.45698 -5.15741,3.65965 -6.1875,5.96875 -1.02319,2.29362 -1.00193,5.26023 -0.28125,7.5 1.65138,5.13226 5.64384,8.64382 11.40625,10.1875 l 131.5625,35.28125 0.1875,0.0312 h 0.0625 l 0.0312,0.0312 h 0.1249 l 0.15625,0.0312 0.1875,0.0312 h 0.0312 c 21.76995,4.06192 40.389,3.23788 59.3125,-3.6875 l 0.34375,-0.125 h 0.0312 l 0.71875,-0.28125 c 0.0189,-0.007 0.0436,0.007 0.0625,0 115.97678,-43.1055 203.37222,-69.56399 301.5625,-101.96875 h 0.0312 l 2.59375,-0.875 5.9375,-1.96875 v 0.0625 c 5.57069,-2.10943 9.81406,-4.63219 12.71875,-9.125 4.15911,-6.43308 4.11005,-15.11045 0.5,-29.15625 l -0.0312,-0.0625 c -0.003,-0.0109 0.003,-0.0203 0,-0.0312 l -0.125,-0.28125 -14.125,-37.28125 -0.0625,-0.15625 -0.15625,-0.375 c -3.13782,-7.34429 -8.85847,-13.06939 -16.3125,-17.125 -7.60662,-4.13864 -17.12684,-6.87794 -28.75,-9.15625 l -0.25,-0.0625 -0.15625,-0.0312 h -0.0312 l -245.5625,-48.46875 -0.28125,-0.0312 -0.25,-0.0937 -0.0625,-0.0312 c -0.0326,-0.01 -0.0922,-0.0213 -0.125,-0.0312 -2.06675,-0.60609 -5.12594,-1.06278 -7.96875,-1.5625 z m 20.15625,9.46875 9.53125,1.53125 3.75,0.75 219.40625,43.28125 0.3125,0.0625 0.15625,0.0312 c 11.60307,2.2509 20.82743,4.99779 27.78125,8.78125 5.77628,3.14278 9.94001,7.18223 12.71875,12.21875 l 1.84375,3.6875 13.5625,35.71875 0.0937,0.25 v 0.0625 l 0.0312,0.0937 0.0312,0.0937 v 0.0312 l 0.0312,0.0625 v 0.0312 l 0.0312,0.0625 c 3.38413,13.30217 3.20841,20.26203 0.125,25.03125 -1.69047,2.61471 -4.18268,4.16817 -7,5.5625 -2.63801,1.30559 -6.03565,2.55044 -10.21875,3.84375 l -0.59375,0.59375 h -1.21875 c -98.27692,32.42657 -185.97148,58.90035 -302.5,102.25 h -0.0312 c -18.01593,6.59324 -35.3934,7.47376 -56.46875,3.5625 -0.0232,-0.004 -0.041,0.004 -0.0625,0 l -0.0625,-0.0312 -0.21855,-0.0623 -0.40625,-0.0625 -0.15625,-0.0625 -125.125,-33.21875 v 0.0312 c -0.0307,-0.008 -0.063,-0.0232 -0.0937,-0.0312 -0.0308,-0.008 -0.0629,-0.0232 -0.0937,-0.0312 -1.69394,-0.43314 -7.62192,-1.8736 -9.375,-2.96875 -1.81701,-1.13508 -3.45952,-2.91259 -4.25,-5.375 -0.99094,-3.08686 -0.69769,-4.90121 1.0625,-7.15625 1.32279,-1.69467 7.57222,-3.22996 9.40625,-4.21875 l 1,-1 h 0.9375 l 231.90625,-102.25 0.1875,-0.1875 0.84375,-0.28125 c 6.21413,-2.98649 10.48686,-8.90073 11.53125,-14.8125 1.14953,-6.50686 -0.22307,-13.58377 -3.21875,-21.4375 l -0.0625,-0.15625 -0.0312,-0.0625 -0.375,-0.71875 v -0.125 l -18.65625,-42.09375 v -0.0312 l -1.53125,-3.53125 -4.53125,-7.71875 z"
            font-weight="400" overflow="visible" />
        <path
            style="color:#000000;font-weight:400;line-height:normal;font-family:Sans;text-indent:0;text-align:start;text-decoration:none;text-decoration-line:none;text-transform:none;overflow:visible;fill:#727272;marker:none;enable-background:accumulate"
            d="m 320.55772,537.94292 -0.25,1.8125 -2,-0.1875 -3.03125,17.75 -0.34375,1.9375 1.9375,0.375 12.875,2.5625 h 0.0625 c 2.36698,0.71733 3.83615,1.44386 4.375,1.84375 1.3087,0.97121 2.36882,2.8047 5.0625,9.21875 0.0128,0.0304 0.0184,0.0319 0.0312,0.0625 v 0.0312 c 0.0129,0.0307 0.0183,0.0316 0.0312,0.0625 l 0.0312,0.0937 0.0312,0.0937 0.0312,0.0312 0.0312,0.0625 18.8125,42.53125 0.0312,0.0312 0.0312,0.0625 c 2.42189,6.37503 2.9886,11.62994 2.53125,14.21875 -0.26123,1.4787 -0.52612,2.25394 -1,2.875 -0.46493,0.60933 -1.325,1.23946 -2.96875,2.03125 -0.0317,0.0152 -0.0302,0.0159 -0.0625,0.0312 l -241.375,107 -0.125,0.0625 -0.0937,0.0625 -0.0312,0.0312 -0.125,0.0625 -0.0312,0.0312 h -0.0312 c -4.39073,2.18726 -8.17342,5.64143 -10.1875,10.15625 -2.02002,4.52815 -1.97695,9.48917 -0.65625,13.59375 2.57946,8.01665 9.172,13.60888 17.28125,15.78125 l 132.15645,35.40665 h 0.0937 l 0.0937,0.0312 0.34375,0.0625 0.3125,0.0625 h 0.0312 c 22.70951,4.23294 43.07931,3.37817 63.375,-3.96875 h 0.125 l 0.3125,-0.125 c 116.0818,-43.18473 203.44338,-69.59812 301.8439,-102.06245 0.17945,-0.0592 0.35172,-0.097 0.53125,-0.15625 0.0221,-0.007 0.0404,-0.0246 0.0625,-0.0312 9.85534,-2.95101 19.70683,-6.02777 25.75,-15.375 6.07732,-9.40004 5.37322,-21.09628 1.53125,-36 l -0.125,-0.5 -0.0312,-0.125 -0.0625,-0.125 -0.15625,-0.4375 h -0.0312 v -0.0312 l -14.125,-37.3125 -0.0312,-0.0937 -0.0312,-0.0625 -0.0312,-0.0312 -0.0312,-0.0937 c -0.005,-0.0132 -0.0258,-0.018 -0.0312,-0.0312 -3.94717,-9.54852 -11.26894,-16.81806 -20.21875,-21.6875 -8.91068,-4.84816 -19.40564,-7.7843 -31.625,-10.15625 h -0.0312 l -0.15625,-0.0312 -245.40625,-48.4375 c -4.23477,-1.2388 -9.0673,-2.06879 -14.84415,-2.9066 0.0285,0.004 -0.0991,-0.0408 -0.46875,-0.0937 z m 1.34375,4.28125 c 5.09526,0.76585 9.44568,1.53122 13.03125,2.59375 l 0.0937,0.0312 0.0937,0.0312 245.5625,48.46875 h 0.0312 l 0.15625,0.0312 c 11.95905,2.32978 21.97555,5.1685 30.28125,9.6875 8.25715,4.49257 14.87412,11.03075 18.4375,19.5625 0.0218,0.0523 0.0409,0.10379 0.0625,0.15625 v 0.0625 l 0.0625,0.15625 0.0312,0.0625 14.125,37.28125 0.0312,0.0312 0.0937,0.21875 v 0.0312 l 0.125,0.46875 c 3.74535,14.5289 4.14825,24.80114 -1.03125,32.8125 -4.73109,7.31778 -12.27923,10.27757 -21,12.96875 v -0.0937 l -2.625,0.875 c -98.49165,32.50432 -185.96008,58.94924 -302.21875,102.1875 h -0.0625 l -0.34375,0.125 c -19.71864,7.21638 -39.31051,8.0756 -61.65625,3.90625 h -0.0312 l -0.34375,-0.0625 -0.15625,-0.0312 -0.1875,-0.0312 -131.96875,-35.375 c -6.99361,-1.87351 -12.39079,-6.50398 -14.53125,-13.15625 -1.03926,-3.22988 -1.08935,-7.22606 0.46875,-10.71875 1.56037,-3.49778 4.62939,-6.37324 8.34375,-8.21875 h 0.0312 l 0.1875,-0.0937 0.0625,-0.0312 0.0625,-0.0312 241.375,-107 0.0312,-0.0312 h 0.0312 c 1.98352,-0.94461 3.4133,-1.9077 4.4375,-3.25 1.0242,-1.3423 1.47703,-2.90298 1.78125,-4.625 0.67301,-3.80959 -0.14973,-9.32407 -2.625,-15.96875 v -0.1875 l -0.125,-0.25 -0.0312,-0.125 -18.9375,-42.6875 v -0.0312 l -0.0312,-0.0312 v -0.0312 l -0.0312,-0.0312 v -0.0312 c -0.007,-0.0171 -0.0241,-0.0142 -0.0312,-0.0312 -2.78203,-6.63825 -4.08634,-9.2471 -6.40625,-10.96875 -1.22064,-0.90587 -2.99703,-1.70624 -5.8125,-2.53125 l -0.0937,-0.0312 -0.0937,-0.0312 -11,-2.1875 2.34375,-13.84375 z m 32.46875,20.71875 1.53125,3.53125 19.03125,42.9375 v 0.0312 l 0.0937,0.1875 0.0625,0.15625 0.0312,0.0625 c 3.15151,8.26228 4.78786,16.16882 3.4375,23.8125 -1.31744,7.45734 -6.50814,14.54816 -14.125,18.15625 -0.0214,0.0101 -0.0411,0.0212 -0.0625,0.0312 l -0.0625,0.0312 h -0.0312 l -0.0937,0.0312 -0.0312,0.0312 -0.0625,0.0312 -233.4688,102.9378 h -0.0312 l -0.0312,0.0312 c -1.85807,0.92201 -3.23416,1.88118 -4.15625,3.0625 -0.92209,1.18132 -1.31389,2.78907 -0.875,4.15625 0.8749,2.72539 3.56249,3.8867 6.625,4.65625 0.0101,0.003 0.0212,-0.003 0.0312,0 l 125.4375,33.28125 h 0.0625 l 0.0625,0.0312 c 0.006,10e-4 0.0496,0.0116 0.15625,0.0312 20.53961,3.81183 36.84757,2.97922 54.125,-3.34375 116.88635,-43.48277 204.77314,-70.00815 303.21875,-102.5 l 0.125,-0.0312 h 0.0624 l 0.0312,-0.0312 c 4.6558,-1.39378 8.11994,-2.68224 10.65625,-3.9375 2.53631,-1.25526 4.21487,-2.41601 5.21875,-3.96875 1.91721,-2.96542 2.55351,-8.60633 -0.71875,-21.46875 l -0.0312,-0.0937 -0.0312,-0.125 -13.84375,-36.46875 v -0.0312 h -0.0312 c -2.26689,-5.50061 -5.97886,-9.40323 -12.1875,-12.78125 -6.26858,-3.41063 -15.11139,-6.10927 -26.46875,-8.3125 h -0.0312 l -0.15625,-0.0312 -219.71875,-43.34375 -3.75,-0.75 z m 6.78125,5.4375 216.09375,42.625 h 0.0312 l 0.15625,0.0312 c 11.04959,2.15401 19.50713,4.78716 25.125,7.84375 5.6911,3.09643 8.4515,6.02838 10.40625,10.75 0.006,0.0136 0.0256,0.0176 0.0312,0.0312 l 13.75,36.21875 0.0625,0.21875 c 3.07808,12.23335 1.83822,17.00768 1.15625,18.0625 -0.31044,0.48017 -1.40962,1.49732 -3.625,2.59375 -2.20094,1.08928 -5.46002,2.31247 -9.9375,3.65625 l -0.0625,0.0312 h -0.125 l -0.0625,0.0312 -0.0937,0.0312 c -98.41104,32.48141 -186.38097,59.02804 -303.40625,102.5625 -16.63009,6.08607 -31.92805,6.88128 -52,3.15625 -7.3e-4,-1.3e-4 -0.0274,8.5e-4 -0.0312,0 l -0.125,-0.0312 -125.3125,-33.25 h -0.0312 c -2.46421,-0.61666 -3.76359,-1.84764 -3.8125,-2 -0.0245,-0.0762 -0.12877,-0.0548 0.21875,-0.5 0.33852,-0.43369 1.22886,-1.13653 2.6875,-1.875 l 233.5312,-102.96855 h 0.0312 l 0.0312,-0.0312 h 0.0625 l 0.0625,-0.0625 h 0.0312 c 8.84515,-4.12961 14.87248,-12.24204 16.46875,-21.03125 l 0.0312,-0.125 c 1.53215,-8.6727 -0.35026,-17.35292 -3.65625,-26 l -0.0312,-0.0312 v -0.0312 l -0.0937,-0.21875 -0.0937,-0.21875 v -0.0312 l -17.46875,-39.4375 z"
            font-weight="400" overflow="visible" />
        <path style="fill:#aa0000;stroke:#cb3939;stroke-width:20.17301941;stroke-linecap:round" d="m 345.31145,171.1975 355.58383,27.37282" />
        <path style="fill:#aa0000;stroke:#ffffff;stroke-width:7;stroke-linecap:round;filter:url(#id-108al)"
            transform="matrix(1.01653,0.00526,0.04143,1.00104,-1206.0752,4.13942)" d="m 1519.6793,158.89212 348.761,25.51021" />
        <path style="fill:none;stroke:#999999;stroke-width:10;stroke-linecap:round"
            d="m 694.35451,201.14295 c -21.2643,10.02912 -28.3716,25.39708 -34.7154,45.45886 l -69.296,321.50154 c -2.4502,16.52016 -13.8264,27.47353 -30.405,24.59878 l -242.6416,-47.95936 c -8.5063,-3.1077 -16.284,-8.18545 -14.0178,-28.18561 l 26.5071,-316.56884 c 3.5041,-13.20055 6.5714,-17.73536 16.8519,-26.26946" />
        <path style="fill:none;stroke:#ffffff;stroke-width:3;stroke-linecap:round;filter:url(#id-109am)"
            transform="matrix(0.99917,0.00526,0.04072,1.00104,-1178.8743,6.19226)"
            d="m 1867.9756,183.83457 c -21.6949,11.95489 -30.8932,27.34752 -37.3318,46.69719 l -82.4614,321.59959 c -3.1255,16.51936 -14.9597,27.52353 -31.4385,24.73843 l -239.9112,-46.89994 c -8.3887,-3.06034 -16.4831,-2.6814 -13.4,-29.37689 l 38.9115,-314.89959 c 5.503,-12.84361 6.9361,-18.84853 16.846,-25.97195" />
        <path style="fill:none;stroke:#999999;stroke-width:10;stroke-linecap:round" d="M 656.4488,260.23367 324.47672,221.00821" />
        <path style="fill:none;stroke:#ffffff;stroke-width:3;stroke-linecap:round;filter:url(#id-110an)"
            transform="matrix(0.99917,0.00526,0.04072,1.00104,-1178.8743,6.19226)" d="M 1826.895,244.1691 1496.1735,206.72376" />
        <path style="fill:none;stroke:#999999;stroke-width:10;stroke-linecap:round"
            d="m 39.35567,473.76561 c 1.19273,-1.00509 4.22315,-2.76843 6.86237,-4.00902 L 314.84652,356.29075" />
        <path style="fill:none;stroke:#ffffff;stroke-width:3;stroke-linecap:round;filter:url(#id-111ao)"
            transform="matrix(0.99917,0.00526,0.04072,1.00104,-1133.389,-21.17184)"
            d="m 1153.1761,488.80878 c 1.8444,-1.72217 4.2247,-3.26573 7.5245,-4.50278 l 273.3117,-114.41597" />
        <path style="fill:none;stroke:#999999;stroke-width:10;stroke-linecap:round"
            d="m 648.84214,274.60059 -367.29243,148.5177 c -19.4481,8.07318 -34.60081,10.99652 -50.61988,8.44267 L 26.66833,395.14983 c -6.78773,-1.4614 -2.84177,-7.1217 7.33634,-11.20173 L 324.42346,242.07133" />
        <path style="fill:none;stroke:#ffffff;stroke-width:3;stroke-linecap:round;filter:url(#id-112ap)"
            d="m 1818.6953,258.56414 -373.7245,150.32799 c -19.7972,8.16886 -35.0848,11.16955 -51.0166,8.70214 l -202.9921,-35.30564 c -6.7353,-1.42446 -2.5547,-7.10083 7.8002,-11.23106 l 296.5001,-143.28789"
            transform="matrix(0.99917,0.00526,0.04072,1.00104,-1178.8743,6.19226)" />
        <path style="fill:none;stroke:#999999;stroke-width:10;stroke-linecap:round" d="m 51.85104,552.24473 6.41555,-3.65251 247.91587,-97.83796" />
        <path style="fill:none;stroke:#ffffff;stroke-width:3;stroke-linecap:round;filter:url(#id-113aq)"
            transform="matrix(0.99917,0.00526,0.04072,1.00104,-1133.389,-21.17184)" d="m 1163.6417,566.12166 5.8062,-3.14927 253.2885,-99.01604" />
        <g style="fill:none;stroke-linecap:round">
            <path style="stroke:#707070;stroke-width:5.0669899"
                d="m -548.11198,621.74008 c -1.151,0.0274 -2.32119,-0.0809 -3.49034,-0.34697 l -182.77301,-43.67563 c -4.0348,-1.24042 -7.7143,-6.30286 -8.244,-11.118 l -10.58959,-223.54663"
                transform="matrix(1.07276,-0.02341,0.0688,1.00642,848.56196,9.45243)" />
            <path style="stroke:#bababa;stroke-width:2;filter:url(#id-114ar)"
                d="m -547.92766,621.73454 c -1.21027,0.044 -2.44305,-0.0611 -3.67466,-0.34143 l -182.77301,-43.67563 c -4.0348,-1.24042 -7.7143,-6.30286 -8.244,-11.118 l -10.46074,-222.96682"
                transform="matrix(1.07276,-0.02341,0.0688,1.00642,848.56196,9.45243)" />
        </g>
        <g style="fill:none;stroke-linecap:round">
            <path style="stroke:#707070;stroke-width:5.0669899"
                d="m -514.09434,615.36218 c -1.24983,0.0498 -2.52458,-0.0568 -3.79808,-0.34662 l -188.68168,-44.7323 c -4.0348,-1.24042 -7.7143,-6.30286 -8.244,-11.118 l -8.94731,-230.16513"
                transform="matrix(1.07276,-0.02341,0.0688,1.00642,848.56196,9.45243)" />
            <path style="stroke:#bababa;stroke-width:2;filter:url(#id-115as)"
                d="m -513.72938,615.34317 c -1.36612,0.0879 -2.76533,-0.01 -4.16304,-0.32761 l -188.68168,-44.7323 c -4.0348,-1.24042 -7.7143,-6.30286 -8.244,-11.118 l -8.81847,-229.97186"
                transform="matrix(1.07276,-0.02341,0.0688,1.00642,848.56196,9.45243)" />
        </g>
        <g style="fill:none;stroke-linecap:round">
            <path style="stroke:#707070;stroke-width:5.0669899"
                d="m -484.21527,609.86411 c -1.36112,0.096 -2.75798,0.004 -4.15815,-0.31502 L -678.8254,563.90035 c -4.0348,-1.24042 -7.7143,-6.30286 -8.244,-11.118 l -8.37702,-237.43545"
                transform="matrix(1.07276,-0.02341,0.0688,1.00642,848.56196,9.45243)" />
            <path style="stroke:#bababa;stroke-width:2;filter:url(#id-116at)"
                d="m -484.02893,609.84978 c -1.41982,0.11826 -2.88034,0.0325 -4.34449,-0.30069 L -678.8254,563.90035 c -4.0348,-1.24042 -7.7143,-6.30286 -8.244,-11.118 l -8.37702,-237.43545"
                transform="matrix(1.07276,-0.02341,0.0688,1.00642,848.56196,9.45243)" />
        </g>
        <g style="fill:none;stroke-linecap:round">
            <path style="stroke:#707070;stroke-width:5.0669899"
                d="m -456.41969,604.24531 c -1.38866,0.0862 -2.81851,-0.0175 -4.25696,-0.34491 l -191.5453,-45.83096 c -4.0348,-1.24042 -7.7143,-6.30286 -8.244,-11.118 l -7.04812,-245.39041"
                transform="matrix(1.07276,-0.02341,0.0688,1.00642,848.56196,9.45243)" />
            <path style="stroke:#bababa;stroke-width:2;filter:url(#id-117au)"
                d="m -456.41969,604.24531 c -1.38866,0.0862 -2.81851,-0.0175 -4.25696,-0.34491 l -191.5453,-45.83096 c -4.0348,-1.24042 -7.7143,-6.30286 -8.244,-11.118 l -7.04812,-245.00387"
                transform="matrix(1.07276,-0.02341,0.0688,1.00642,848.56196,9.45243)" />
        </g>
        <g style="fill:none;stroke-linecap:round">
            <path style="stroke:#707070;stroke-width:5.0669899"
                d="m -424.5658,598.68078 c -1.43808,0.13216 -2.92531,0.0508 -4.42746,-0.29107 l -197.69267,-46.69782 c -4.0348,-1.24042 -7.7143,-6.30286 -8.244,-11.118 l -5.12298,-252.22619"
                transform="matrix(1.07276,-0.02341,0.0688,1.00642,848.56196,9.45243)" />
            <path style="stroke:#bababa;stroke-width:2;filter:url(#id-118av)"
                d="m -424.89443,598.70719 c -1.33554,0.0919 -2.71081,-0.002 -4.09883,-0.31748 l -197.69267,-46.69782 c -4.0348,-1.24042 -7.7143,-6.30286 -8.244,-11.118 l -5.05856,-252.22619"
                transform="matrix(1.07276,-0.02341,0.0688,1.00642,848.56196,9.45243)" />
        </g>
        <g style="fill:none;stroke-linecap:round">
            <path style="stroke:#707070;stroke-width:5.0669899"
                d="m -393.69648,592.8953 c -1.61772,0.21007 -3.30071,0.15598 -4.99562,-0.22975 L -602.84151,543.6744 c -4.0348,-1.24042 -7.7143,-6.30286 -8.244,-11.118 l -1.02399,-257.75898"
                transform="matrix(1.07276,-0.02341,0.0688,1.00642,848.56196,9.45243)" />
            <path style="stroke:#bababa;stroke-width:2;filter:url(#id-119aw)"
                d="m -394.12512,593.09282 c -1.23084,0.0539 -3.30057,-0.13903 -4.56698,-0.42727 L -602.84151,543.6744 c -4.0348,-1.24042 -7.7143,-6.30286 -8.244,-11.118 l -1.02399,-257.56571"
                transform="matrix(1.07276,-0.02341,0.0688,1.00642,848.56196,9.45243)" />
        </g>
        <g style="fill:none;stroke-linecap:round">
            <path style="stroke:#707070;stroke-width:5.0669899"
                d="m -366.4974,588.04739 c -1.6239,0.19829 -3.30969,0.13647 -5.00033,-0.24829 l -208.56685,-49.22674 c -4.0348,-1.24042 -7.7143,-6.30286 -8.244,-11.118 l 0.72886,-264.40338"
                transform="matrix(1.07276,-0.02341,0.0688,1.00642,848.56196,9.45243)" />
            <path style="stroke:#bababa;stroke-width:2;filter:url(#id-120ax)"
                d="m -366.60727,588.0604 c -1.59,0.18233 -3.23792,0.11479 -4.89046,-0.2613 l -208.56685,-49.22674 c -4.0348,-1.24042 -7.7143,-6.30286 -8.244,-11.118 l 0.72886,-264.40338"
                transform="matrix(1.07276,-0.02341,0.0688,1.00642,848.56196,9.45243)" />
        </g>
        <g style="fill:none;stroke-linecap:round">
            <path style="stroke:#707070;stroke-width:5.0669899"
                d="m -339.49532,582.99014 c -1.52676,0.1711 -3.11203,0.10283 -4.71428,-0.26182 L -559.65642,533.2881 c -4.0348,-1.24042 -7.7143,-6.30286 -8.244,-11.118 l 6.86467,-272.16128"
                transform="matrix(1.07276,-0.02341,0.0688,1.00642,848.56196,9.45243)" />
            <path style="stroke:#bababa;stroke-width:2;filter:url(#id-121ay)"
                d="m -339.75883,583.01723 c -1.44532,0.13519 -2.9405,0.0548 -4.45077,-0.28891 L -559.65642,533.2881 c -4.0348,-1.24042 -7.7143,-6.30286 -8.244,-11.118 l 6.92909,-272.03243"
                transform="matrix(1.07276,-0.02341,0.0688,1.00642,848.56196,9.45243)" />
        </g>
        <g style="fill:none;stroke-linecap:round">
            <path style="stroke:#707070;stroke-width:5.0669899"
                d="m -311.62035,577.78739 c -1.65764,0.17768 -3.39434,0.0896 -5.15932,-0.31206 l -223.01525,-48.19597 c -4.0348,-1.24042 -7.7143,-6.30286 -8.244,-11.118 l 13.8533,-280.8028"
                transform="matrix(1.07276,-0.02341,0.0688,1.00642,848.56196,9.45243)" />
            <path style="stroke:#bababa;stroke-width:2;filter:url(#id-122az)"
                d="m -311.41774,577.7643 c -1.71851,0.20744 -3.5249,0.12911 -5.36193,-0.28895 l -223.01525,-48.19597 c -4.0348,-1.24042 -7.7143,-6.30286 -8.244,-11.118 l 13.8533,-280.8028"
                transform="matrix(1.07276,-0.02341,0.0688,1.00642,848.56196,9.45243)" />
        </g>
        <g style="fill:none;stroke-linecap:round">
            <path style="stroke:#8a8a8a;stroke-width:6"
                d="m 1151.9162,413.97201 23.4379,191.92053 c 1.4051,12.24699 6.5458,13.76456 14.9417,12.7551 l 237.0096,-60.50924"
                transform="matrix(1.00198,0.00526,0.06905,1.00104,-1148.9778,-21.17184)" />
            <path style="stroke:#e6e6e6;stroke-width:2;filter:url(#id-123aA)"
                d="m 1151.9162,413.97201 23.4379,191.92053 c 1.4051,12.24699 6.5458,13.76456 14.9417,12.7551 l 237.0096,-60.50924"
                transform="matrix(1.00198,0.00526,0.06905,1.00104,-1148.9778,-21.17184)" />
        </g>
        <g style="fill:none;stroke-linecap:round">
            <path style="stroke:#8a8a8a;stroke-width:6"
                d="m 1183.3546,417.57969 20.861,196.55899 c 1.4051,12.24699 6.5458,13.76456 14.9417,12.7551 L 1469.0515,564.323"
                transform="matrix(1.00198,0.00526,0.06905,1.00104,-1148.9778,-21.17184)" />
            <path style="stroke:#e6e6e6;stroke-width:2;filter:url(#id-124aB)"
                d="m 1183.3546,417.57969 20.861,196.55899 c 1.4051,12.24699 6.5458,13.76456 14.9417,12.7551 L 1469.0515,564.323"
                transform="matrix(1.00198,0.00526,0.06905,1.00104,-1148.9778,-21.17184)" />
        </g>
        <g style="fill:none;stroke-linecap:round">
            <path style="stroke:#8a8a8a;stroke-width:6"
                d="m 1215.8238,424.79506 18.7994,195.01284 c 1.4051,12.24699 6.5458,13.76456 14.9417,12.7551 l 257.1096,-60.50925"
                transform="matrix(1.00198,0.00526,0.06905,1.00104,-1148.9778,-21.17184)" />
            <path style="stroke:#e6e6e6;stroke-width:2;filter:url(#id-125aC)"
                d="m 1215.8238,424.79506 18.7994,195.01284 c 1.4051,12.24699 6.5458,13.76456 14.9417,12.7551 l 257.1096,-60.50925"
                transform="matrix(1.00198,0.00526,0.06905,1.00104,-1148.9778,-21.17184)" />
        </g>
        <g style="fill:none;stroke-linecap:round">
            <path style="stroke:#8a8a8a;stroke-width:6"
                d="m 1247.7776,429.43352 19.3148,198.10514 c 1.4051,12.24699 6.5458,13.76456 14.9417,12.7551 l 263.8095,-61.54001"
                transform="matrix(1.00198,0.00526,0.06905,1.00104,-1148.9778,-21.17184)" />
            <path style="stroke:#e6e6e6;stroke-width:2;filter:url(#id-126aD)"
                d="m 1247.7776,429.43352 19.3148,198.10514 c 1.4051,12.24699 6.5458,13.76456 14.9417,12.7551 l 263.8095,-61.54001"
                transform="matrix(1.00198,0.00526,0.06905,1.00104,-1148.9778,-21.17184)" />
        </g>
        <g style="fill:none;stroke-linecap:round">
            <path style="stroke:#8a8a8a;stroke-width:6"
                d="m 1281.2775,436.64889 15.1917,196.55899 c 1.4051,12.24699 6.5458,13.76456 14.9417,12.7551 l 266.3865,-57.93232"
                transform="matrix(1.00198,0.00526,0.06905,1.00104,-1148.9778,-21.17184)" />
            <path style="stroke:#e6e6e6;stroke-width:2;filter:url(#id-127aE)"
                d="m 1281.2775,436.64889 15.1917,196.55899 c 1.4051,12.24699 6.5458,13.76456 14.9417,12.7551 l 266.3865,-57.93232"
                transform="matrix(1.00198,0.00526,0.06905,1.00104,-1148.9778,-21.17184)" />
        </g>
        <g style="fill:none;stroke-linecap:round">
            <path style="stroke:#8a8a8a;stroke-width:6"
                d="m 1311.6851,442.31812 17.7687,198.62052 c 1.4051,12.24699 6.5458,13.76456 14.9417,12.7551 l 283.42,-58.42181"
                transform="matrix(1.00198,0.00526,0.06905,1.00104,-1148.9778,-21.17184)" />
            <path style="stroke:#e6e6e6;stroke-width:2;filter:url(#id-128aF)"
                d="m 1311.6851,442.31812 17.7687,198.62052 c 1.4051,12.24699 6.5458,13.76456 14.9417,12.7551 L 1628.18,595.08971"
                transform="matrix(1.00198,0.00526,0.06905,1.00104,-1148.9778,-21.17184)" />
        </g>
        <g style="fill:none;stroke-linecap:round">
            <path style="stroke:#999999;stroke-width:5.0669899"
                d="m -268.52702,289.61785 -57.76878,282.17414 c -0.97322,5.13212 -6.52782,10.45051 -13.19952,11.19815"
                transform="matrix(1.07276,-0.02341,0.0688,1.00642,848.56196,9.45243)" />
            <path style="stroke:#ffffff;stroke-width:2;filter:url(#id-121ay)"
                d="m -268.52702,289.61785 -57.76878,282.17414 c -0.986,5.19954 -6.67455,10.59028 -13.46303,11.22524 -1.44532,0.13519 -2.9405,0.0548 -4.45077,-0.28891"
                transform="matrix(1.07276,-0.02341,0.0688,1.00642,848.56196,9.45243)" />
        </g>
        <g style="fill:none;stroke-linecap:round">
            <path style="stroke:#999999;stroke-width:5.0669899"
                d="m -264.11711,281.70394 -62.17869,290.08805 c -0.97322,5.13212 -6.52782,10.45051 -13.19952,11.19815"
                transform="matrix(1.07276,-0.02341,0.0688,1.00642,878.28057,3.59253)" />
            <path style="stroke:#ffffff;stroke-width:2;filter:url(#id-121ay)"
                d="m -264.2971,281.79387 -61.9987,289.99812 c -0.986,5.19954 -6.67455,10.59028 -13.46303,11.22524 -1.44532,0.13519 -2.9405,0.0548 -4.45077,-0.28891"
                transform="matrix(1.07276,-0.02341,0.0688,1.00642,878.28057,3.59253)" />
        </g>
        <path style="fill:none;stroke:#999999;stroke-width:10;stroke-linecap:round"
            d="m 601.87777,514.07887 -314.48301,79.94451 c -17.60177,6.65553 -31.65718,8.48243 -47.08812,4.78299 l -186.5786,-39.8713 c -4.07705,-2.19064 -3.45143,-3.50499 -3.35108,-4.95725" />
        <path style="fill:none;stroke:#ffffff;stroke-width:3;stroke-linecap:round;filter:url(#id-113aq)"
            transform="matrix(0.99917,0.00526,0.04072,1.00104,-1133.389,-21.17184)"
            d="m 1715.282,525.67182 -318.0673,81.53369 c -17.8912,6.74267 -32.0357,8.64204 -47.3321,5.0269 l -185.1498,-38.85603 c -3.9261,-0.81692 -5.2149,-3.94452 -1.9764,-6.49067 0.3078,-0.24199 2.0738,-1.31622 2.465,-1.54522" />
        <circle r="205.9893" cy="326.20886" cx="-337.84891"
            style="fill:#ffffff;stroke:#1a191e;stroke-width:3.87401676;stroke-linecap:round;stroke-miterlimit:4;stroke-dasharray:none"
            transform="scale(-1,1)" />
        <image transform="matrix(-2.35231,0,0,2.35231,-1110.277,942.58688)" clip-path="url(#id-129aG)" width="179.26129" height="179.26129"
            preserveAspectRatio="none" xlink:href="C:\Users\Extreme PC\strongseal.png" x="-705.24927" y="-351.66159" style="fill:none" />
        <path style="fill:none;stroke:#999999;stroke-width:10;stroke-linecap:round"
            d="m 648.84214,274.60059 -367.29243,148.5177 c -19.4481,8.07318 -34.60081,10.99652 -50.61988,8.44267 L 26.66833,395.14983 c -6.78773,-1.4614 -1.30734,-7.37152 7.33634,-11.20173" />
        <path style="fill:none;stroke:#ffffff;stroke-width:3;stroke-linecap:round;filter:url(#id-112ap)"
            transform="matrix(0.99917,0.00526,0.04072,1.00104,-1178.8743,6.19226)"
            d="m 1818.6953,258.56414 -373.7245,150.32799 c -19.7972,8.16886 -35.0848,11.16955 -51.0166,8.70214 l -202.9921,-35.30564 c -6.7353,-1.42446 -0.2355,-8.1316 11.6656,-13.2926" />
        <path style="fill:none;stroke:#999999;stroke-width:10;stroke-linecap:round"
            d="M 624.05429,401.11732 287.49938,520.66305 c -17.60176,6.65554 -31.65718,8.48243 -47.08811,4.78299 L 42.41465,480.72395 c -3.47374,-1.7034 -4.39034,-3.54149 -3.96966,-5.19378" />
        <path style="fill:none;stroke:#ffffff;stroke-width:3;stroke-linecap:round;filter:url(#id-111ao)"
            transform="matrix(0.99917,0.00526,0.04072,1.00104,-1133.389,-21.17185)"
            d="M 1742.082,412.68725 1400.307,533.9055 c -17.8912,6.74267 -32.0357,8.64204 -47.3321,5.0269 l -195.7455,-43.5012 c -4.9178,-0.66888 -7.7811,-5.94047 -1.2659,-8.8592" />
        <g style="fill:none;stroke-linecap:round">
            <path style="stroke:#8a8a8a;stroke-width:6" transform="matrix(1.00198,0.00526,0.06905,1.00104,-1195.3269,6.70004)"
                d="m 1391.7639,417.8207 19.3148,201.71283 c 1.4051,12.24699 6.5458,13.76456 14.9417,12.7551 l 290.626,-55.37181" />
            <path style="stroke:#e6e6e6;stroke-width:2;filter:url(#id-130aH)"
                d="m 1391.7639,417.8207 19.3148,201.71283 c 1.4051,12.24699 6.5458,13.76456 14.9417,12.7551 l 290.4548,-55.37181"
                transform="matrix(1.00198,0.00526,0.06905,1.00104,-1195.3269,6.70004)" />
        </g>
        <g style="fill:none;stroke-linecap:round">
            <path style="stroke:#999999;stroke-width:5.0669899"
                d="m -508.50502,384.91668 -25.1835,225.5401 c -0.5794,5.6278 -7.53853,11.4796 -15.14386,11.28259"
                transform="matrix(1.07276,-0.02341,0.0688,1.00642,848.56196,9.45243)" />
            <path style="stroke:#ffffff;stroke-width:2;filter:url(#id-114ar)"
                d="m -508.50502,384.91668 -25.1835,225.5401 c -0.59965,5.82452 -8.03285,11.88897 -15.94352,11.23948 -0.65469,-0.0538 -1.31265,-0.15348 -1.97028,-0.30315"
                transform="matrix(1.07276,-0.02341,0.0688,1.00642,848.56196,9.45243)" />
        </g>
        <g style="fill:none;stroke-linecap:round">
            <path style="stroke:#999999;stroke-width:5.0669899"
                d="m -469.69312,370.88607 -30.2855,233.19316 c -0.57979,5.79433 -7.54795,11.52235 -15.1593,11.28777"
                transform="matrix(1.07276,-0.02341,0.0688,1.00642,848.56196,9.45243)" />
            <path style="stroke:#ffffff;stroke-width:2;filter:url(#id-115as)"
                d="m -469.69312,370.88607 -30.2855,233.19316 c -0.59099,5.90629 -7.81963,11.74368 -15.60119,11.26745 -0.76744,-0.047 -1.54025,-0.15534 -2.31261,-0.33112"
                transform="matrix(1.07276,-0.02341,0.0688,1.00642,848.56196,9.45243)" />
        </g>
        <g style="fill:none;stroke-linecap:round">
            <path style="stroke:#999999;stroke-width:5.0669899"
                d="m -433.97882,355.57995 -36.4808,243.03281 c -0.7358,5.58079 -7.45983,11.38185 -14.95982,11.28626"
                transform="matrix(1.07276,-0.02341,0.0688,1.00642,848.56196,9.45243)" />
            <path style="stroke:#ffffff;stroke-width:2;filter:url(#id-116at)"
                d="m -433.97882,355.57995 -36.4808,243.03281 c -0.73372,5.56505 -7.42194,11.34912 -14.89636,11.28693 -0.99593,-0.008 -2.00582,-0.12037 -3.01744,-0.3506"
                transform="matrix(1.07276,-0.02341,0.0688,1.00642,848.56196,9.45243)" />
        </g>
        <g style="fill:none;stroke-linecap:round">
            <path style="stroke:#999999;stroke-width:5.0669899"
                d="m -399.72222,343.18928 -43.04063,249.77479 c -0.91381,6.17782 -7.74551,11.69579 -15.38569,11.28905"
                transform="matrix(1.07276,-0.02341,0.0688,1.00642,848.56196,9.45243)" />
            <path style="stroke:#ffffff;stroke-width:2;filter:url(#id-117au)"
                d="m -399.72222,343.18928 -43.04063,249.77479 c -0.91394,6.17873 -7.74753,11.69741 -15.38907,11.28887 -0.83417,-0.0446 -1.67796,-0.15983 -2.52473,-0.35254"
                transform="matrix(1.07276,-0.02341,0.0688,1.00642,848.56196,9.45243)" />
        </g>
        <g style="fill:none;stroke-linecap:round">
            <path style="stroke:#999999;stroke-width:5.0669899"
                d="m -367.28792,329.5231 -43.79154,257.93028 c -1.07298,5.65819 -7.71472,11.5428 -15.28266,11.27886"
                transform="matrix(1.07276,-0.02341,0.0688,1.00642,848.56196,9.45243)" />
            <path style="stroke:#ffffff;stroke-width:2;filter:url(#id-118av)"
                d="m -367.28792,329.5231 -43.79154,257.93028 c -1.07464,5.66698 -7.73537,11.56109 -15.31795,11.27759 -0.85578,-0.032 -1.72329,-0.14268 -2.59585,-0.34126"
                transform="matrix(1.07276,-0.02341,0.0688,1.00642,848.56196,9.45243)" />
        </g>
        <g style="fill:none;stroke-linecap:round">
            <path style="stroke:#999999;stroke-width:5.0669899"
                d="m -336.49352,316.768 -44.28478,264.96122 c -0.90637,5.6388 -7.63477,11.50248 -15.19943,11.28136"
                transform="matrix(1.07276,-0.02341,0.0688,1.00642,848.56196,9.45243)" />
            <path style="stroke:#ffffff;stroke-width:2;filter:url(#id-119aw)"
                d="m -336.49352,316.768 -44.28478,264.96122 c -0.88083,5.47988 -7.26014,11.17214 -14.56194,11.2857 -1.10153,0.0171 -2.22405,-0.0927 -3.35186,-0.34937"
                transform="matrix(1.07276,-0.02341,0.0688,1.00642,848.56196,9.45243)" />
        </g>
        <g style="fill:none;stroke-linecap:round">
            <path style="stroke:#999999;stroke-width:5.0669899"
                d="m -301.41582,302.64039 -52.16811,274.22238 c -0.6681,5.21374 -6.27323,10.3738 -12.91347,11.18462"
                transform="matrix(1.07276,-0.02341,0.0688,1.00642,848.56196,9.45243)" />
            <path style="stroke:#ffffff;stroke-width:2;filter:url(#id-120ax)"
                d="m -301.32582,302.73032 -52.25811,274.13245 c -0.67178,5.24247 -6.33516,10.43067 -13.02334,11.19763 -1.59,0.18233 -3.23792,0.11479 -4.89046,-0.2613"
                transform="matrix(1.07276,-0.02341,0.0688,1.00642,848.56196,9.45243)" />
        </g>
    </g>
</svg>