<svg width="730.833" height="1200" viewBox="0 0 193.366 317.5" version="1.1" id="tan-chair_vue_svg__svg54"
    xmlns:xlink="http://www.w3.org/1999/xlink"
    xmlns="http://www.w3.org/2000/svg">
    <defs id="tan-chair_vue_svg__defs2707">
        <linearGradient id="tan-chair_vue_svg__linearGradient2638">
            <stop offset="0" stop-color="#c4c4c4" id="tan-chair_vue_svg__stop2634"/>
            <stop offset="1" stop-color="#595959" id="tan-chair_vue_svg__stop2636"/>
        </linearGradient>
        <linearGradient id="tan-chair_vue_svg__linearGradient2644">
            <stop offset="0" stop-color="#7a7a7a" id="tan-chair_vue_svg__stop2640"/>
            <stop offset="1" stop-color="#7a7a7a" stop-opacity="0" id="tan-chair_vue_svg__stop2642"/>
        </linearGradient>
        <linearGradient id="tan-chair_vue_svg__linearGradient2652">
            <stop offset="0" stop-color="#101010" id="tan-chair_vue_svg__stop2646"/>
            <stop offset=".5" stop-color="#989898" id="tan-chair_vue_svg__stop2648"/>
            <stop offset="1" stop-color="#221f1f" id="tan-chair_vue_svg__stop2650"/>
        </linearGradient>
        <linearGradient id="tan-chair_vue_svg__linearGradient2658">
            <stop offset="0" stop-color="#858585" id="tan-chair_vue_svg__stop2654"/>
            <stop offset="1" stop-color="#282828" id="tan-chair_vue_svg__stop2656"/>
        </linearGradient>
        <linearGradient id="tan-chair_vue_svg__linearGradient2664">
            <stop offset="0" stop-color="#3e3e3e" id="tan-chair_vue_svg__stop2660"/>
            <stop offset="1" id="tan-chair_vue_svg__stop2662"/>
        </linearGradient>
        <linearGradient id="tan-chair_vue_svg__linearGradient2670">
            <stop offset="0" stop-color="#dadada" id="tan-chair_vue_svg__stop2666"/>
            <stop offset="1" stop-color="#636363" id="tan-chair_vue_svg__stop2668"/>
        </linearGradient>
        <linearGradient id="tan-chair_vue_svg__linearGradient2676">
            <stop offset="0" stop-color="#888" id="tan-chair_vue_svg__stop2672"/>
            <stop offset="1" stop-color="#888" stop-opacity="0" id="tan-chair_vue_svg__stop2674"/>
        </linearGradient>
        <linearGradient id="tan-chair_vue_svg__linearGradient2684">
            <stop offset="0" stop-color="#121212" id="tan-chair_vue_svg__stop2678"/>
            <stop offset=".5" stop-color="#a9a9a9" id="tan-chair_vue_svg__stop2680"/>
            <stop offset="1" stop-color="#262222" id="tan-chair_vue_svg__stop2682"/>
        </linearGradient>
        <linearGradient id="tan-chair_vue_svg__linearGradient2690">
            <stop offset="0" stop-color="#949494" id="tan-chair_vue_svg__stop2686"/>
            <stop offset="1" stop-color="#2c2c2c" id="tan-chair_vue_svg__stop2688"/>
        </linearGradient>
        <linearGradient id="tan-chair_vue_svg__linearGradient2696">
            <stop offset="0" stop-color="#454545" id="tan-chair_vue_svg__stop2692"/>
            <stop offset="1" stop-color="#0a0a0a" id="tan-chair_vue_svg__stop2694"/>
        </linearGradient>
        <linearGradient id="tan-chair_vue_svg__linearGradient2702">
            <stop offset="0" stop-color="#4d4d4d" id="tan-chair_vue_svg__stop2698"/>
            <stop offset="1" stop-color="#0b0b0b" id="tan-chair_vue_svg__stop2700"/>
        </linearGradient>
        <clipPath clipPathUnits="userSpaceOnUse" id="tan-chair_vue_svg__id-0a">
            <circle style="fill:#473e81;stroke:#1a191e;stroke-width:.86208999;stroke-linecap:round" cx="-615.619" cy="-262.031" r="87.569" id="tan-chair_vue_svg__circle2704"/>
        </clipPath>
    </defs>
    <path style="fill:#785131;stroke:#422f1f;stroke-width:1.153;stroke-miterlimit:4;stroke-dasharray:none;stroke-opacity:1" d="m27.513 268.69 3.716 16.934 3.104 2.069 6.092-.92 1.602-8.315-14.46-9.764zm151.604 7.862-10.457 2.29-2.26-.536-5.148 1.388-.064.068 2.76 13.985 5.363 2.337 5.249-1.035zm-92.468 18.44-15.937 2.835-3.903-2.636-.025.012 4.253 18.85 4.445 2.835 6.781-1.418z" id="tan-chair_vue_svg__path2709"/>
    <path style="fill:none;stroke:#422f1f;stroke-width:1.55299997;stroke-miterlimit:4;stroke-dasharray:none;stroke-opacity:1" d="m34.41 287.655-1.456-15.44m42.643 44.711-1.265-19.808m94.979-.958-.077-17.47" id="tan-chair_vue_svg__path2711"/>
    <path style="color:#000;shape-padding:0;overflow:visible;isolation:auto;mix-blend-mode:normal;solid-color:#000;solid-opacity:1;fill:#dbd8d0;stroke:#4f4a3d;stroke-width:1.14699996;stroke-linecap:round;stroke-linejoin:round;stroke-miterlimit:4;stroke-dasharray:none;stroke-opacity:1" d="M63.028 135.887c-19.97.539-39.878 2.366-59.776 4.063-5.53 5.048-.877 12.966-.423 19.059 2.11 7.342 2.111 15.617 5.874 22.35 1.43 3.77 5.83 1.159 9.223 1.249 16.28-1.881 31.96 4.255 47.459 8.05 10.378 3.377 21.35 11.103 22.977 22.674 8.266-.992 16.606-2.04 24.933-1.16.912-10.72-4.677-23.208 3.397-32.271 1.942-2.142 4.619-4.069 7.674-3.621 4.28-13.034-.237-27.549-7.813-38.479-17.821-1.048-35.667-2.035-53.525-1.914z" id="tan-chair_vue_svg__path2713"/>
    <path style="color:#000;shape-padding:0;overflow:visible;isolation:auto;mix-blend-mode:normal;solid-color:#000;solid-opacity:1;fill:#d2cec3;stroke:#4f4a3d;stroke-width:1.14699996;stroke-linecap:round;stroke-linejoin:round;stroke-miterlimit:4;stroke-dasharray:none;stroke-opacity:1" d="M122.719 173.987c-9.016 1.352-13.42 11.694-12.766 19.998.112 6.04 1.414 11.994 1.022 18.058 13.918.15 27.433 4.795 40.807 8.475 5.177 1.747 13.368 2.696 12.982 9.95 1.026 7.008 1.65 15.574-4.174 20.716 5.258.328 6.393 5.487 8.647 9.191.05-17.848.35-35.821 3.122-53.442 1.815-8.288 5.606-17.475 14.565-19.991 8.33-1.058 5.016-2.648-1.07-4.22-20.87-3.875-42.115-5.796-63.135-8.735z" id="tan-chair_vue_svg__path2715"/>
    <path style="color:#000;shape-padding:0;overflow:visible;isolation:auto;mix-blend-mode:normal;solid-color:#000;solid-opacity:1;fill:#afafa7;stroke:#4f4a3d;stroke-width:1.14699996;stroke-linecap:round;stroke-linejoin:round;stroke-miterlimit:4;stroke-dasharray:none;stroke-opacity:1" d="M188.07 184.366c-8.756 1.367-14.894 9.325-16.661 17.64-4.116 12.782-3.042 26.526-4.356 39.752-.154 12.892-.165 25.786-.256 38.678l19.043-4.17c2.25-27.828 3.838-55.78 6.943-83.445.076-3.198-.247-8.745-4.712-8.455z" id="tan-chair_vue_svg__path2719"/>
    <path style="color:#000;shape-padding:0;overflow:visible;isolation:auto;mix-blend-mode:normal;solid-color:#000;solid-opacity:1;fill:#eae7de;stroke:#4f4a3d;stroke-width:1.14699996;stroke-linecap:round;stroke-linejoin:round;stroke-miterlimit:4;stroke-dasharray:none;stroke-opacity:1" d="M105.334 209.495c-5.79.169-11.546.88-17.293 1.562 1.08 8.144 2.41 16.27 2.684 24.492 7.914 2.366 16.3-1.256 24.346-1.414 17.457-2.795 35.33-3.256 52.548-7.351-5.553-8.013-16.31-8.02-24.613-11.325-12.42-2.869-24.762-6.772-37.672-5.964z" id="tan-chair_vue_svg__path2721"/>
    <path style="color:#000;shape-padding:0;overflow:visible;isolation:auto;mix-blend-mode:normal;solid-color:#000;solid-opacity:1;fill:#bcb9b2;stroke:#4f4a3d;stroke-width:1.14699996;stroke-linecap:round;stroke-linejoin:round;stroke-miterlimit:4;stroke-dasharray:none;stroke-opacity:1" d="M163.907 225.323c-22.48 3.662-45.419 5.888-68.11 8.76-5.003-1.249-6.001.512-4.818 5.74.403 7.604.55 15.16.595 22.795 9.674 2.453 19.47-2.319 29.132-2.913 13.843-2.5 28.003-4.303 41.656-7.222 6.3-5.013 5.713-14.392 4.837-21.59-.897-1.886.095-7.841-3.292-5.57z" id="tan-chair_vue_svg__path2723"/>
    <path style="color:#000;shape-padding:0;overflow:visible;isolation:auto;mix-blend-mode:normal;solid-color:#000;solid-opacity:1;fill:#a5a59d;stroke:#4f4a3d;stroke-width:1.14699996;stroke-linecap:round;stroke-linejoin:round;stroke-miterlimit:4;stroke-dasharray:none;stroke-opacity:1" d="M161.473 250.19c-21.343 4.225-43.26 7.668-64.91 10.973-4.836-1.694-5.784.455-4.928 5.363 0 9.086-.091 18.173-.291 27.258 2.773 1.139 5.374.244 8.256-.256.35-3.015 5.391.22 9.774-1.917 19.404-4.148 39.097-6.982 58.206-12.425 1-8.549 2.452-17.648.385-26.082-1.078-2.035-4.658-4.505-6.492-2.914z" id="tan-chair_vue_svg__path2725"/>
    <g transform="translate(-181.849 138.418)" id="tan-chair_vue_svg__g2731">
        <circle style="fill:#fff;stroke:#1a191e;stroke-width:1;stroke-linecap:round;stroke-miterlimit:4;stroke-dasharray:none" cx="287.148" cy="35.498" r="53.173" id="tan-chair_vue_svg__circle2727"/>
        <image style="fill:none" transform="translate(660.957 194.605) scale(.60721)" clip-path="url(#tan-chair_vue_svg__id-0a)" width="179.261" height="179.261" preserveAspectRatio="none" xlink:href="placeholder.png" x="-705.249" y="-351.662" id="tan-chair_vue_svg__image2729" class="seated-avatar"/>
    </g>
    <path style="color:#000;shape-padding:0;overflow:visible;isolation:auto;mix-blend-mode:normal;solid-color:#000;solid-opacity:1;fill:#efebe2;stroke:#4f4a3d;stroke-width:1.14699996;stroke-linecap:round;stroke-linejoin:round;stroke-miterlimit:4;stroke-dasharray:none;stroke-opacity:1" d="M25.016 179.965c-5.95-.154-10.519.152-16.313 1.395 18.986 7.087 37.216 13.348 56.426 19.805.074-6.27 7.224-5.165 11.335-4.44 7.528 1.564-.633-4.072-3.77-5.544-13.255-5.807-27.78-8.17-41.88-11.083-1.923-.203-3.867-.141-5.798-.133z" id="tan-chair_vue_svg__path2733"/>
    <path style="color:#000;shape-padding:0;overflow:visible;isolation:auto;mix-blend-mode:normal;solid-color:#000;solid-opacity:1;fill:#a9a59c;stroke:#4f4a3d;stroke-width:1.14699996;stroke-linecap:round;stroke-linejoin:round;stroke-miterlimit:4;stroke-dasharray:none;stroke-opacity:1" d="M72.143 193.819c-5.297-.682-10.136 3.767-9.186 9.168 1.116 20.66 4.585 41.143 4.956 61.897.607 11.439 1.202 22.877 1.806 34.316 7.982-1.788 15.963-3.577 23.945-5.364.11-28.589 1.824-57.658-4.101-85.787-2.988-6.907-9.188-14.392-17.42-14.23z" id="tan-chair_vue_svg__path2735"/>
    <path style="color:#000;shape-padding:0;overflow:visible;isolation:auto;mix-blend-mode:normal;solid-color:#000;solid-opacity:1;fill:#d5cfc2;stroke:#4f4a3d;stroke-width:1.14699996;stroke-linecap:round;stroke-linejoin:round;stroke-miterlimit:4;stroke-dasharray:none;stroke-opacity:1" d="M9.242 182.817c-.094 1.112-.45 4.793.428 5.848 3.574 26.134 7.835 52.174 12.91 78.06 16.505 11.146 33.01 22.29 49.516 33.434-1.522-30.399-2.79-60.823-6.574-91.04-.862-3.41.752-8.225-.726-10.501-18.238-5.584-36.294-12.318-54.64-17.221-.922-.36-.61.946-.914 1.42z" id="tan-chair_vue_svg__path2717"/>
    <image class="seated-keyboard" width="209.85" height="46.167" preserveAspectRatio="none" xlink:href="keyboard.png" id="tan-chair_vue_svg__keyboard" x="21.535" y="193.257" transform="rotate(.343)"/>
</svg>