<svg xmlns:svg="http://www.w3.org/2000/svg" xmlns="http://www.w3.org/2000/svg" xmlns:xlink="http://www.w3.org/1999/xlink" id="svg4398" version="1.1"
   viewBox="0 0 193.36632 198.208" height="749.13257" width="730.83331">
   <defs id="defs4368">
      <linearGradient id="a">
         <stop id="stop4306" stop-color="#c4c4c4" offset="0" />
         <stop id="stop4308" stop-color="#595959" offset="1" />
      </linearGradient>
      <linearGradient id="b">
         <stop id="stop4311" stop-color="#7a7a7a" offset="0" />
         <stop id="stop4313" stop-opacity="0" stop-color="#7a7a7a" offset="1" />
      </linearGradient>
      <linearGradient id="c">
         <stop id="stop4316" stop-color="#101010" offset="0" />
         <stop id="stop4318" stop-color="#989898" offset=".5" />
         <stop id="stop4320" stop-color="#221f1f" offset="1" />
      </linearGradient>
      <linearGradient id="d">
         <stop id="stop4323" stop-color="#858585" offset="0" />
         <stop id="stop4325" stop-color="#282828" offset="1" />
      </linearGradient>
      <linearGradient id="e">
         <stop id="stop4328" stop-color="#3e3e3e" offset="0" />
         <stop id="stop4330" offset="1" />
      </linearGradient>
      <linearGradient id="f">
         <stop id="stop4333" stop-color="#dadada" offset="0" />
         <stop id="stop4335" stop-color="#636363" offset="1" />
      </linearGradient>
      <linearGradient id="g">
         <stop id="stop4338" stop-color="#888" offset="0" />
         <stop id="stop4340" stop-opacity="0" stop-color="#888" offset="1" />
      </linearGradient>
      <linearGradient id="h">
         <stop id="stop4343" stop-color="#121212" offset="0" />
         <stop id="stop4345" stop-color="#a9a9a9" offset=".5" />
         <stop id="stop4347" stop-color="#262222" offset="1" />
      </linearGradient>
      <linearGradient id="i">
         <stop id="stop4350" stop-color="#949494" offset="0" />
         <stop id="stop4352" stop-color="#2c2c2c" offset="1" />
      </linearGradient>
      <linearGradient id="j">
         <stop id="stop4355" stop-color="#454545" offset="0" />
         <stop id="stop4357" stop-color="#0a0a0a" offset="1" />
      </linearGradient>
      <linearGradient id="k">
         <stop id="stop4360" stop-color="#4d4d4d" offset="0" />
         <stop id="stop4362" stop-color="#0b0b0b" offset="1" />
      </linearGradient>
      <clipPath id="clipPath4420" clipPathUnits="userSpaceOnUse">
         <circle id="circle4422" r="87.568947" cy="-262.03094" cx="-615.61865"
            style="fill:#473e81;stroke:#1a191e;stroke-width:0.86208999;stroke-linecap:round" />
      </clipPath>
   </defs>
   <path
      d="m 27.513094,149.39762 3.71638,16.9344 3.1036,2.06886 6.09164,-0.91916 1.60247,-8.31578 -14.46016,-9.76417 z m 151.604116,7.86242 -10.45754,2.29052 -2.26029,-0.53634 -5.14699,1.38794 -0.064,0.0682 2.7587,13.98428 5.36388,2.33732 5.24892,-1.03472 z m -92.468576,18.44026 -15.937,2.83455 -3.90246,-2.63543 -0.0249,0.0113 4.2527,18.84977 4.44473,2.83514 6.78146,-1.41757 z"
      id="path4370" style="fill:#785131;stroke:#422f1f;stroke-width:1.153;stroke-miterlimit:4;stroke-dasharray:none;stroke-opacity:1" />
   <path d="m 34.409674,168.3627 -1.4559,-15.44028 m 42.64276,44.71169 -1.26434,-19.808 m 94.978826,-0.95784 -0.0766,-17.47089" id="path4372"
      style="fill:none;stroke:#422f1f;stroke-width:1.55299997;stroke-miterlimit:4;stroke-dasharray:none;stroke-opacity:1" />
   <path id="path4376"
      d="m 63.027617,16.595156 c -19.970216,0.538544 -39.878024,2.365407 -59.7753908,4.0625 -5.531072,5.048346 -0.8767337,12.966667 -0.4233087,19.059015 2.1106368,7.342582 2.1113775,15.617511 5.8744806,22.351142 1.4302099,3.769461 5.8286729,1.157745 9.2226569,1.248046 16.280642,-1.881016 31.959159,4.254694 47.458984,8.050782 10.377485,3.375856 21.350552,11.102485 22.976563,22.673828 8.26639,-0.992699 16.606018,-2.041215 24.933588,-1.160156 0.9114,-10.721151 -4.67747,-23.208166 3.39649,-32.271485 1.94267,-2.141544 4.61918,-4.068398 7.67382,-3.621094 C 128.64643,43.953582 124.12902,29.439332 116.553,18.509219 98.731848,17.46121 80.886128,16.474262 63.027617,16.595156 Z"
      style="color:#000000;font-weight:400;line-height:normal;font-family:sans-serif;font-variant-ligatures:normal;font-variant-position:normal;font-variant-caps:normal;font-variant-numeric:normal;font-variant-alternates:normal;font-feature-settings:normal;text-indent:0;text-align:start;text-decoration:none;text-decoration-line:none;text-decoration-style:solid;text-decoration-color:#000000;text-transform:none;text-orientation:mixed;white-space:normal;shape-padding:0;overflow:visible;isolation:auto;mix-blend-mode:normal;solid-color:#000000;solid-opacity:1;fill:#dbd8d0;stroke:#4f4a3d;stroke-width:1.14699996;stroke-linecap:round;stroke-linejoin:round;stroke-miterlimit:4;stroke-dasharray:none;stroke-opacity:1" />
   <path id="path4378"
      d="m 122.71902,54.694766 c -9.01608,1.35228 -13.42006,11.694052 -12.76563,19.998047 0.11124,6.039444 1.41411,11.994616 1.02149,18.058593 13.91854,0.149467 27.43311,4.794627 40.80664,8.474604 5.17775,1.74685 13.36822,2.69619 12.98234,9.94981 1.02566,7.0077 1.64987,15.57408 -4.17375,20.71621 5.25774,0.32838 6.39324,5.48727 8.64649,9.1914 0.0496,-17.84839 0.35105,-35.82172 3.12191,-53.442006 1.81585,-8.288242 5.60622,-17.47554 14.56559,-19.99158 8.33045,-1.058332 5.01608,-2.647938 -1.07032,-4.220703 -20.86964,-3.873753 -42.11468,-5.795255 -63.13476,-8.734375 z"
      style="color:#000000;font-weight:400;line-height:normal;font-family:sans-serif;font-variant-ligatures:normal;font-variant-position:normal;font-variant-caps:normal;font-variant-numeric:normal;font-variant-alternates:normal;font-feature-settings:normal;text-indent:0;text-align:start;text-decoration:none;text-decoration-line:none;text-decoration-style:solid;text-decoration-color:#000000;text-transform:none;text-orientation:mixed;white-space:normal;shape-padding:0;overflow:visible;isolation:auto;mix-blend-mode:normal;solid-color:#000000;solid-opacity:1;fill:#d2cec3;stroke:#4f4a3d;stroke-width:1.14699996;stroke-linecap:round;stroke-linejoin:round;stroke-miterlimit:4;stroke-dasharray:none;stroke-opacity:1" />
   <path id="path4382"
      d="m 9.2424606,63.524844 c -0.094511,1.112094 -0.4511825,4.793193 0.4277343,5.847656 3.5738621,26.134445 7.8348931,52.17446 12.9101571,78.06054 16.504178,11.14606 33.009629,22.29023 49.515624,33.4336 C 70.574088,150.46817 69.3064,120.04365 65.521697,89.826888 64.659901,86.416626 66.273515,81.60154 64.796448,79.32577 46.558263,73.742442 28.501506,67.008231 10.156523,62.104922 9.2338145,61.745509 9.5468773,63.051172 9.2424606,63.524844 Z"
      style="color:#000000;font-weight:400;line-height:normal;font-family:sans-serif;font-variant-ligatures:normal;font-variant-position:normal;font-variant-caps:normal;font-variant-numeric:normal;font-variant-alternates:normal;font-feature-settings:normal;text-indent:0;text-align:start;text-decoration:none;text-decoration-line:none;text-decoration-style:solid;text-decoration-color:#000000;text-transform:none;text-orientation:mixed;white-space:normal;shape-padding:0;overflow:visible;isolation:auto;mix-blend-mode:normal;solid-color:#000000;solid-opacity:1;fill:#d5cfc2;stroke:#4f4a3d;stroke-width:1.14699996;stroke-linecap:round;stroke-linejoin:round;stroke-miterlimit:4;stroke-dasharray:none;stroke-opacity:1" />
   <path id="path4384"
      d="m 188.07058,65.073672 c -8.75688,1.367308 -14.89476,9.32573 -16.662,17.640609 -4.1151,12.781224 -3.04165,26.526009 -4.35558,39.751969 -0.15417,12.89165 -0.16537,25.78528 -0.25586,38.67773 6.34739,-1.39123 12.69544,-2.77936 19.04297,-4.16992 2.25041,-27.82823 3.83769,-55.77978 6.94336,-83.44531 0.0752,-3.198013 -0.24783,-8.744453 -4.71289,-8.455078 z"
      style="color:#000000;font-weight:400;line-height:normal;font-family:sans-serif;font-variant-ligatures:normal;font-variant-position:normal;font-variant-caps:normal;font-variant-numeric:normal;font-variant-alternates:normal;font-feature-settings:normal;text-indent:0;text-align:start;text-decoration:none;text-decoration-line:none;text-decoration-style:solid;text-decoration-color:#000000;text-transform:none;text-orientation:mixed;white-space:normal;shape-padding:0;overflow:visible;isolation:auto;mix-blend-mode:normal;solid-color:#000000;solid-opacity:1;fill:#afafa7;stroke:#4f4a3d;stroke-width:1.14699996;stroke-linecap:round;stroke-linejoin:round;stroke-miterlimit:4;stroke-dasharray:none;stroke-opacity:1" />
   <path id="path4388"
      d="m 105.33425,90.202578 c -5.789602,0.16904 -11.546361,0.880225 -17.292961,1.5625 1.079412,8.143497 2.410098,16.269752 2.683594,24.492182 7.91421,2.36597 16.300617,-1.25607 24.346537,-1.41396 17.45611,-2.79484 35.32918,-3.25586 52.54799,-7.35166 -5.55351,-8.012915 -16.31059,-8.019185 -24.61328,-11.324218 -12.42103,-2.869425 -24.76244,-6.772796 -37.67188,-5.964844 z"
      style="color:#000000;font-weight:400;line-height:normal;font-family:sans-serif;font-variant-ligatures:normal;font-variant-position:normal;font-variant-caps:normal;font-variant-numeric:normal;font-variant-alternates:normal;font-feature-settings:normal;text-indent:0;text-align:start;text-decoration:none;text-decoration-line:none;text-decoration-style:solid;text-decoration-color:#000000;text-transform:none;text-orientation:mixed;white-space:normal;shape-padding:0;overflow:visible;isolation:auto;mix-blend-mode:normal;solid-color:#000000;solid-opacity:1;fill:#eae7de;stroke:#4f4a3d;stroke-width:1.14699996;stroke-linecap:round;stroke-linejoin:round;stroke-miterlimit:4;stroke-dasharray:none;stroke-opacity:1" />
   <path id="path4390"
      d="m 163.90652,106.0307 c -22.47944,3.66233 -45.4184,5.88845 -68.109372,8.75976 -5.003554,-1.24807 -6.001235,0.51285 -4.818471,5.74091 0.403405,7.60375 0.549759,15.16003 0.595815,22.79425 9.673288,2.45349 19.470088,-2.31826 29.131338,-2.91263 13.84363,-2.49913 28.00275,-4.30284 41.65577,-7.22214 6.30114,-5.01305 5.71345,-14.39168 4.83789,-21.58984 -0.89705,-1.88561 0.0942,-7.84135 -3.29297,-5.57031 z"
      style="color:#000000;font-weight:400;line-height:normal;font-family:sans-serif;font-variant-ligatures:normal;font-variant-position:normal;font-variant-caps:normal;font-variant-numeric:normal;font-variant-alternates:normal;font-feature-settings:normal;text-indent:0;text-align:start;text-decoration:none;text-decoration-line:none;text-decoration-style:solid;text-decoration-color:#000000;text-transform:none;text-orientation:mixed;white-space:normal;shape-padding:0;overflow:visible;isolation:auto;mix-blend-mode:normal;solid-color:#000000;solid-opacity:1;fill:#bcb9b2;stroke:#4f4a3d;stroke-width:1.14699996;stroke-linecap:round;stroke-linejoin:round;stroke-miterlimit:4;stroke-dasharray:none;stroke-opacity:1" />
   <path id="path4392"
      d="m 161.47293,130.89789 c -21.34322,4.22529 -43.25965,7.6686 -64.910157,10.97265 -4.835357,-1.69375 -5.783876,0.45499 -4.927734,5.36328 1.43e-4,9.08661 -0.09101,18.17338 -0.291016,27.25782 2.772492,1.13928 5.373549,0.2443 8.25586,-0.25586 0.350944,-3.01512 5.391557,0.21929 9.774127,-1.91662 19.40396,-4.14837 39.09747,-6.98191 58.20634,-12.42518 0.99961,-8.54892 2.45182,-17.64798 0.38476,-26.08203 -1.0782,-2.03506 -4.65837,-4.50544 -6.49218,-2.91406 z"
      style="color:#000000;font-weight:400;line-height:normal;font-family:sans-serif;font-variant-ligatures:normal;font-variant-position:normal;font-variant-caps:normal;font-variant-numeric:normal;font-variant-alternates:normal;font-feature-settings:normal;text-indent:0;text-align:start;text-decoration:none;text-decoration-line:none;text-decoration-style:solid;text-decoration-color:#000000;text-transform:none;text-orientation:mixed;white-space:normal;shape-padding:0;overflow:visible;isolation:auto;mix-blend-mode:normal;solid-color:#000000;solid-opacity:1;fill:#a5a59d;stroke:#4f4a3d;stroke-width:1.14699996;stroke-linecap:round;stroke-linejoin:round;stroke-miterlimit:4;stroke-dasharray:none;stroke-opacity:1" />
   <g transform="translate(-171.85988,18.17519)" id="g4969">
      <circle id="circle4365" r="53.172741" cy="35.497551" cx="287.14758"
         style="fill:white;stroke:#1a191e;stroke-width:1;stroke-linecap:round;stroke-miterlimit:4;stroke-dasharray:none" />
      <image id="image4394" y="-351.66159" x="-705.24927" xlink:href="C:\Users\Extreme PC\strongseal.png" preserveAspectRatio="none"
         height="179.26129" width="179.26129" clip-path="url(#clipPath4420)" transform="matrix(0.60721,0,0,0.60721,660.95738,194.60536)"
         style="fill:none" />
   </g>
   <path id="path4380"
      d="M 25.015898,60.673281 C 19.066322,60.519438 14.497373,60.825262 8.7033981,62.067813 27.68915,69.155265 45.91901,75.416356 65.12918,81.8725 c 0.07401,-6.269255 7.224239,-5.164059 11.334537,-4.438847 7.528467,1.563153 -0.632639,-4.072214 -3.770556,-5.544171 C 59.439144,66.081769 44.914544,63.718829 30.814726,60.806094 28.890582,60.603195 26.947496,60.664542 25.015898,60.673281 Z"
      style="color:#000000;font-weight:400;line-height:normal;font-family:sans-serif;font-variant-ligatures:normal;font-variant-position:normal;font-variant-caps:normal;font-variant-numeric:normal;font-variant-alternates:normal;font-feature-settings:normal;text-indent:0;text-align:start;text-decoration:none;text-decoration-line:none;text-decoration-style:solid;text-decoration-color:#000000;text-transform:none;text-orientation:mixed;white-space:normal;shape-padding:0;overflow:visible;isolation:auto;mix-blend-mode:normal;solid-color:#000000;solid-opacity:1;fill:#efebe2;stroke:#4f4a3d;stroke-width:1.14699996;stroke-linecap:round;stroke-linejoin:round;stroke-miterlimit:4;stroke-dasharray:none;stroke-opacity:1" />
   <path id="path4386"
      d="m 72.142852,74.526797 c -5.297217,-0.681599 -10.135982,3.767113 -9.185547,9.167969 1.115572,20.659424 4.585031,41.143274 4.955846,61.897584 0.606765,11.43818 1.202152,22.87696 1.805872,34.3153 7.981831,-1.78749 15.963207,-3.57702 23.945313,-5.36328 0.10872,-28.58897 1.823558,-57.65878 -4.101563,-85.787104 C 86.575392,81.850138 80.375127,74.364693 72.142852,74.526797 Z"
      style="color:#000000;font-weight:400;line-height:normal;font-family:sans-serif;font-variant-ligatures:normal;font-variant-position:normal;font-variant-caps:normal;font-variant-numeric:normal;font-variant-alternates:normal;font-feature-settings:normal;text-indent:0;text-align:start;text-decoration:none;text-decoration-line:none;text-decoration-style:solid;text-decoration-color:#000000;text-transform:none;text-orientation:mixed;white-space:normal;shape-padding:0;overflow:visible;isolation:auto;mix-blend-mode:normal;solid-color:#000000;solid-opacity:1;fill:#a9a59c;stroke:#4f4a3d;stroke-width:1.14699996;stroke-linecap:round;stroke-linejoin:round;stroke-miterlimit:4;stroke-dasharray:none;stroke-opacity:1" />
</svg>