<svg xmlns="http://www.w3.org/2000/svg" width="200mm" height="50mm" viewBox="0 0 200 50"><defs><linearGradient id="background_svg__id-3c"><stop stop-color="#6d62b4" offset="0"/><stop stop-color="#473e81" offset="1"/></linearGradient><linearGradient id="background_svg__id-2b"><stop stop-color="#787e94" offset="0"/><stop stop-color="#667097" offset="1"/></linearGradient><linearGradient id="background_svg__id-1a"><stop stop-color="#5d6495" offset="0"/><stop stop-color="#767999" offset=".209"/><stop stop-color="#5d6495" offset="1"/></linearGradient></defs><path style="opacity:1;fill:none;fill-opacity:1;stroke:#414141;stroke-width:.66145831;stroke-linecap:round;stroke-linejoin:round;stroke-miterlimit:4;stroke-dasharray:none;stroke-dashoffset:0;stroke-opacity:1" d="M3.223 139.384h196.359v47.814H3.223z" transform="translate(-2.89 -137.248)"/><path d="m-239.113 85.296 72.289-36.783h-75.522l-88.355 36.783z" style="opacity:1;fill:#ebebeb;fill-opacity:1;stroke:#000;stroke-width:.54374564;stroke-linecap:round;stroke-linejoin:round;stroke-miterlimit:4;stroke-dasharray:none;stroke-dashoffset:0;stroke-opacity:1" transform="translate(67.36 31.956) scale(.18918)"/><path d="m-147.53 85.296 56.227-36.783h-75.521l-72.289 36.783z" style="opacity:1;fill:#bebebe;fill-opacity:1;stroke:#000;stroke-width:.54374564;stroke-linecap:round;stroke-linejoin:round;stroke-miterlimit:4;stroke-dasharray:none;stroke-dashoffset:0;stroke-opacity:1" transform="translate(67.36 31.956) scale(.18918)"/><path d="m-55.941 85.296 40.16-36.783h-75.522l-56.227 36.783Z" style="opacity:1;fill:#ebebeb;fill-opacity:1;stroke:#000;stroke-width:.54374564;stroke-linecap:round;stroke-linejoin:round;stroke-miterlimit:4;stroke-dasharray:none;stroke-dashoffset:0;stroke-opacity:1" transform="translate(67.36 31.956) scale(.18918)"/><path d="M35.645 85.296 59.74 48.513h-75.522l-40.16 36.783z" style="opacity:1;fill:#bebebe;fill-opacity:1;stroke:#000;stroke-width:.54374564;stroke-linecap:round;stroke-linejoin:round;stroke-miterlimit:4;stroke-dasharray:none;stroke-dashoffset:0;stroke-opacity:1" transform="translate(67.36 31.956) scale(.18918)"/><path d="m127.228 85.296 8.032-36.783H59.74L35.646 85.296Z" style="opacity:1;fill:#ebebeb;fill-opacity:1;stroke:#000;stroke-width:.54374564;stroke-linecap:round;stroke-linejoin:round;stroke-miterlimit:4;stroke-dasharray:none;stroke-dashoffset:0;stroke-opacity:1" transform="translate(67.36 31.956) scale(.18918)"/><path d="m218.816 85.296-8.032-36.783H135.26l-8.032 36.783z" style="opacity:1;fill:#bebebe;fill-opacity:1;stroke:#000;stroke-width:.54374564;stroke-linecap:round;stroke-linejoin:round;stroke-miterlimit:4;stroke-dasharray:none;stroke-dashoffset:0;stroke-opacity:1" transform="translate(67.36 31.956) scale(.18918)"/><path d="m310.4 85.296-24.097-36.783h-75.519l8.032 36.783z" style="opacity:1;fill:#ebebeb;fill-opacity:1;stroke:#000;stroke-width:.54374564;stroke-linecap:round;stroke-linejoin:round;stroke-miterlimit:4;stroke-dasharray:none;stroke-dashoffset:0;stroke-opacity:1" transform="translate(67.36 31.956) scale(.18918)"/><path d="m401.985 85.296-40.16-36.783h-75.522L310.4 85.296z" style="opacity:1;fill:#bebebe;fill-opacity:1;stroke:#000;stroke-width:.54374564;stroke-linecap:round;stroke-linejoin:round;stroke-miterlimit:4;stroke-dasharray:none;stroke-dashoffset:0;stroke-opacity:1" transform="translate(67.36 31.956) scale(.18918)"/><path d="m493.574 85.296-56.227-36.783h-75.522l40.16 36.783z" style="opacity:1;fill:#ebebeb;fill-opacity:1;stroke:#000;stroke-width:.54374564;stroke-linecap:round;stroke-linejoin:round;stroke-miterlimit:4;stroke-dasharray:none;stroke-dashoffset:0;stroke-opacity:1" transform="translate(67.36 31.956) scale(.18918)"/><path d="m585.157 85.296-72.289-36.783h-75.521l56.227 36.783z" style="opacity:1;fill:#bebebe;fill-opacity:1;stroke:#000;stroke-width:.54374564;stroke-linecap:round;stroke-linejoin:round;stroke-miterlimit:4;stroke-dasharray:none;stroke-dashoffset:0;stroke-opacity:1" transform="translate(67.36 31.956) scale(.18918)"/><path d="M588.39 48.513h-75.522l72.289 36.783h91.588z" style="opacity:1;fill:#ebebeb;fill-opacity:1;stroke:#000;stroke-width:.54374564;stroke-linecap:round;stroke-linejoin:round;stroke-miterlimit:4;stroke-dasharray:none;stroke-dashoffset:0;stroke-opacity:1" transform="translate(67.36 31.956) scale(.18918)"/><path d="m510.642 16.145 77.748 32.368h65.563L563.93 16.145Z" style="opacity:1;fill:#ebebeb;fill-opacity:1;stroke:#000;stroke-width:.54374564;stroke-linecap:round;stroke-linejoin:round;stroke-miterlimit:4;stroke-dasharray:none;stroke-dashoffset:0;stroke-opacity:1" transform="translate(67.36 31.956) scale(.18918)"/><path d="m449.256 16.145 63.612 32.368h75.522l-77.748-32.368z" style="opacity:1;fill:#bebebe;fill-opacity:1;stroke:#000;stroke-width:.54374564;stroke-linecap:round;stroke-linejoin:round;stroke-miterlimit:4;stroke-dasharray:none;stroke-dashoffset:0;stroke-opacity:1" transform="translate(67.36 31.956) scale(.18918)"/><path d="m387.87 16.145 49.477 32.368h75.521l-63.612-32.368Z" style="opacity:1;fill:#ebebeb;fill-opacity:1;stroke:#000;stroke-width:.54374564;stroke-linecap:round;stroke-linejoin:round;stroke-miterlimit:4;stroke-dasharray:none;stroke-dashoffset:0;stroke-opacity:1" transform="translate(67.36 31.956) scale(.18918)"/><path d="m326.483 16.145 35.342 32.368h75.522l-49.478-32.368Z" style="opacity:1;fill:#bebebe;fill-opacity:1;stroke:#000;stroke-width:.54374564;stroke-linecap:round;stroke-linejoin:round;stroke-miterlimit:4;stroke-dasharray:none;stroke-dashoffset:0;stroke-opacity:1" transform="translate(67.36 31.956) scale(.18918)"/><path d="m265.099 16.145 21.204 32.368h75.522l-35.342-32.368Z" style="opacity:1;fill:#ebebeb;fill-opacity:1;stroke:#000;stroke-width:.54374564;stroke-linecap:round;stroke-linejoin:round;stroke-miterlimit:4;stroke-dasharray:none;stroke-dashoffset:0;stroke-opacity:1" transform="translate(67.36 31.956) scale(.18918)"/><path d="m203.715 16.145 7.07 32.368h75.518L265.1 16.145Z" style="opacity:1;fill:#bebebe;fill-opacity:1;stroke:#000;stroke-width:.54374564;stroke-linecap:round;stroke-linejoin:round;stroke-miterlimit:4;stroke-dasharray:none;stroke-dashoffset:0;stroke-opacity:1" transform="translate(67.36 31.956) scale(.18918)"/><path d="m142.329 16.145-7.07 32.368h75.525l-7.069-32.368z" style="opacity:1;fill:#ebebeb;fill-opacity:1;stroke:#000;stroke-width:.54374564;stroke-linecap:round;stroke-linejoin:round;stroke-miterlimit:4;stroke-dasharray:none;stroke-dashoffset:0;stroke-opacity:1" transform="translate(67.36 31.956) scale(.18918)"/><path d="M80.945 16.145 59.74 48.513h75.519l7.069-32.368z" style="opacity:1;fill:#bebebe;fill-opacity:1;stroke:#000;stroke-width:.54374564;stroke-linecap:round;stroke-linejoin:round;stroke-miterlimit:4;stroke-dasharray:none;stroke-dashoffset:0;stroke-opacity:1" transform="translate(67.36 31.956) scale(.18918)"/><path d="M19.561 16.145-15.78 48.513h75.522l21.204-32.368Z" style="opacity:1;fill:#ebebeb;fill-opacity:1;stroke:#000;stroke-width:.54374564;stroke-linecap:round;stroke-linejoin:round;stroke-miterlimit:4;stroke-dasharray:none;stroke-dashoffset:0;stroke-opacity:1" transform="translate(67.36 31.956) scale(.18918)"/><path d="m-41.825 16.145-49.478 32.368h75.522l35.342-32.368Z" style="opacity:1;fill:#bebebe;fill-opacity:1;stroke:#000;stroke-width:.54374564;stroke-linecap:round;stroke-linejoin:round;stroke-miterlimit:4;stroke-dasharray:none;stroke-dashoffset:0;stroke-opacity:1" transform="translate(67.36 31.956) scale(.18918)"/><path d="m-103.212 16.145-63.612 32.368h75.521l49.478-32.368Z" style="opacity:1;fill:#ebebeb;fill-opacity:1;stroke:#000;stroke-width:.54374564;stroke-linecap:round;stroke-linejoin:round;stroke-miterlimit:4;stroke-dasharray:none;stroke-dashoffset:0;stroke-opacity:1" transform="translate(67.36 31.956) scale(.18918)"/><path d="m-164.599 16.145-77.747 32.368h75.522l63.612-32.368Z" style="opacity:1;fill:#bebebe;fill-opacity:1;stroke:#000;stroke-width:.54374564;stroke-linecap:round;stroke-linejoin:round;stroke-miterlimit:4;stroke-dasharray:none;stroke-dashoffset:0;stroke-opacity:1" transform="translate(67.36 31.956) scale(.18918)"/><path d="m-223.088 16.145-91.216 32.368h71.958l77.747-32.368zM-355.797 34.77l61.873-18.625h-61.873z" style="opacity:1;fill:#ebebeb;fill-opacity:1;stroke:#000;stroke-width:.54374564;stroke-linecap:round;stroke-linejoin:round;stroke-miterlimit:4;stroke-dasharray:none;stroke-dashoffset:0;stroke-opacity:1" transform="translate(67.36 31.956) scale(.18918)"/><path d="M-355.797 48.513h41.493l91.216-32.368h-70.836l-61.873 18.625z" style="opacity:1;fill:#bebebe;fill-opacity:1;stroke:#000;stroke-width:.54374564;stroke-linecap:round;stroke-linejoin:round;stroke-miterlimit:4;stroke-dasharray:none;stroke-dashoffset:0;stroke-opacity:1" transform="translate(67.36 31.956) scale(.18918)"/><path d="m-355.797 63.235 41.493-14.722h-41.493z" style="opacity:1;fill:#ebebeb;fill-opacity:1;stroke:#000;stroke-width:.54374564;stroke-linecap:round;stroke-linejoin:round;stroke-miterlimit:4;stroke-dasharray:none;stroke-dashoffset:0;stroke-opacity:1" transform="translate(67.36 31.956) scale(.18918)"/><path d="M-355.797 85.296h25.096l88.355-36.783h-71.958l-41.493 14.722z" style="opacity:1;fill:#bebebe;fill-opacity:1;stroke:#000;stroke-width:.54374564;stroke-linecap:round;stroke-linejoin:round;stroke-miterlimit:4;stroke-dasharray:none;stroke-dashoffset:0;stroke-opacity:1" transform="translate(67.36 31.956) scale(.18918)"/><path d="m-354.276 95.11 23.575-9.814h-25.096v9.815z" style="opacity:1;fill:#ebebeb;fill-opacity:1;stroke:#000;stroke-width:.54374564;stroke-linecap:round;stroke-linejoin:round;stroke-miterlimit:4;stroke-dasharray:none;stroke-dashoffset:0;stroke-opacity:1" transform="translate(67.36 31.956) scale(.18918)"/><path d="m-258.402 95.11 19.29-9.814h-91.59l-23.574 9.815z" style="opacity:1;fill:#bebebe;fill-opacity:1;stroke:#000;stroke-width:.54374564;stroke-linecap:round;stroke-linejoin:round;stroke-miterlimit:4;stroke-dasharray:none;stroke-dashoffset:0;stroke-opacity:1" transform="translate(67.36 31.956) scale(.18918)"/><path d="m-162.53 95.11 15-9.814h-91.583l-19.289 9.815z" style="opacity:1;fill:#ebebeb;fill-opacity:1;stroke:#000;stroke-width:.54374564;stroke-linecap:round;stroke-linejoin:round;stroke-miterlimit:4;stroke-dasharray:none;stroke-dashoffset:0;stroke-opacity:1" transform="translate(67.36 31.956) scale(.18918)"/><path d="m-66.657 95.11 10.716-9.814h-91.589l-15 9.815z" style="opacity:1;fill:#bebebe;fill-opacity:1;stroke:#000;stroke-width:.54374564;stroke-linecap:round;stroke-linejoin:round;stroke-miterlimit:4;stroke-dasharray:none;stroke-dashoffset:0;stroke-opacity:1" transform="translate(67.36 31.956) scale(.18918)"/><path d="m29.214 95.11 6.43-9.814H-55.94l-10.716 9.815z" style="opacity:1;fill:#ebebeb;fill-opacity:1;stroke:#000;stroke-width:.54374564;stroke-linecap:round;stroke-linejoin:round;stroke-miterlimit:4;stroke-dasharray:none;stroke-dashoffset:0;stroke-opacity:1" transform="translate(67.36 31.956) scale(.18918)"/><path d="m125.085 95.11 2.143-9.814H35.645l-6.431 9.815z" style="opacity:1;fill:#bebebe;fill-opacity:1;stroke:#000;stroke-width:.54374564;stroke-linecap:round;stroke-linejoin:round;stroke-miterlimit:4;stroke-dasharray:none;stroke-dashoffset:0;stroke-opacity:1" transform="translate(67.36 31.956) scale(.18918)"/><path d="m220.959 95.11-2.143-9.814h-91.588l-2.143 9.815z" style="opacity:1;fill:#ebebeb;fill-opacity:1;stroke:#000;stroke-width:.54374564;stroke-linecap:round;stroke-linejoin:round;stroke-miterlimit:4;stroke-dasharray:none;stroke-dashoffset:0;stroke-opacity:1" transform="translate(67.36 31.956) scale(.18918)"/><path d="m316.83 95.11-6.43-9.814h-91.584l2.143 9.815z" style="opacity:1;fill:#bebebe;fill-opacity:1;stroke:#000;stroke-width:.54374564;stroke-linecap:round;stroke-linejoin:round;stroke-miterlimit:4;stroke-dasharray:none;stroke-dashoffset:0;stroke-opacity:1" transform="translate(67.36 31.956) scale(.18918)"/><path d="m412.7 95.11-10.715-9.814h-91.586l6.43 9.815z" style="opacity:1;fill:#ebebeb;fill-opacity:1;stroke:#000;stroke-width:.54374564;stroke-linecap:round;stroke-linejoin:round;stroke-miterlimit:4;stroke-dasharray:none;stroke-dashoffset:0;stroke-opacity:1" transform="translate(67.36 31.956) scale(.18918)"/><path d="m508.575 95.11-15.001-9.814h-91.589l10.716 9.815z" style="opacity:1;fill:#bebebe;fill-opacity:1;stroke:#000;stroke-width:.54374564;stroke-linecap:round;stroke-linejoin:round;stroke-miterlimit:4;stroke-dasharray:none;stroke-dashoffset:0;stroke-opacity:1" transform="translate(67.36 31.956) scale(.18918)"/><path d="m604.446 95.11-19.29-9.814h-91.582l15 9.815z" style="opacity:1;fill:#ebebeb;fill-opacity:1;stroke:#000;stroke-width:.54374564;stroke-linecap:round;stroke-linejoin:round;stroke-miterlimit:4;stroke-dasharray:none;stroke-dashoffset:0;stroke-opacity:1" transform="translate(67.36 31.956) scale(.18918)"/><path d="m700.32 95.11-23.575-9.814h-91.588l19.289 9.815z" style="opacity:1;fill:#bebebe;fill-opacity:1;stroke:#000;stroke-width:.54374564;stroke-linecap:round;stroke-linejoin:round;stroke-miterlimit:4;stroke-dasharray:none;stroke-dashoffset:0;stroke-opacity:1" transform="translate(67.36 31.956) scale(.18918)"/><path d="M700.32 85.296h-23.575l23.575 9.815z" style="opacity:1;fill:#ebebeb;fill-opacity:1;stroke:#000;stroke-width:.54374564;stroke-linecap:round;stroke-linejoin:round;stroke-miterlimit:4;stroke-dasharray:none;stroke-dashoffset:0;stroke-opacity:1" transform="translate(67.36 31.956) scale(.18918)"/><path d="m700.32 65.184-46.367-16.67H588.39l88.355 36.782h23.575z" style="opacity:1;fill:#bebebe;fill-opacity:1;stroke:#000;stroke-width:.54374564;stroke-linecap:round;stroke-linejoin:round;stroke-miterlimit:4;stroke-dasharray:none;stroke-dashoffset:0;stroke-opacity:1" transform="translate(67.36 31.956) scale(.18918)"/><path d="M700.32 48.513h-46.367l46.367 16.67z" style="opacity:1;fill:#ebebeb;fill-opacity:1;stroke:#000;stroke-width:.54374564;stroke-linecap:round;stroke-linejoin:round;stroke-miterlimit:4;stroke-dasharray:none;stroke-dashoffset:0;stroke-opacity:1" transform="translate(67.36 31.956) scale(.18918)"/><path d="m700.32 38.158-71.398-22.013H563.93l90.024 32.368h46.366z" style="opacity:1;fill:#bebebe;fill-opacity:1;stroke:#000;stroke-width:.54374564;stroke-linecap:round;stroke-linejoin:round;stroke-miterlimit:4;stroke-dasharray:none;stroke-dashoffset:0;stroke-opacity:1" transform="translate(67.36 31.956) scale(.18918)"/><path d="M700.32 16.145h-71.398l71.398 22.013zM594.818-12.547 700.32 15.43v-27.978Z" style="opacity:1;fill:#ebebeb;fill-opacity:1;stroke:#000;stroke-width:.54374564;stroke-linecap:round;stroke-linejoin:round;stroke-miterlimit:4;stroke-dasharray:none;stroke-dashoffset:0;stroke-opacity:1" transform="translate(67.36 31.956) scale(.18918)"/><path d="m535.854-12.547 93.068 28.692h71.398v-.714L594.818-12.547Z" style="opacity:1;fill:#bebebe;fill-opacity:1;stroke:#000;stroke-width:.54374564;stroke-linecap:round;stroke-linejoin:round;stroke-miterlimit:4;stroke-dasharray:none;stroke-dashoffset:0;stroke-opacity:1" transform="translate(67.36 31.956) scale(.18918)"/><path d="m484.132-12.547 79.798 28.692h64.992l-93.068-28.692Z" style="opacity:1;fill:#ebebeb;fill-opacity:1;stroke:#000;stroke-width:.54374564;stroke-linecap:round;stroke-linejoin:round;stroke-miterlimit:4;stroke-dasharray:none;stroke-dashoffset:0;stroke-opacity:1" transform="translate(67.36 31.956) scale(.18918)"/><path d="m441.72-12.547 68.922 28.692h53.288l-79.798-28.692z" style="opacity:1;fill:#bebebe;fill-opacity:1;stroke:#000;stroke-width:.54374564;stroke-linecap:round;stroke-linejoin:round;stroke-miterlimit:4;stroke-dasharray:none;stroke-dashoffset:0;stroke-opacity:1" transform="translate(67.36 31.956) scale(.18918)"/><path d="m392.865-12.547 56.39 28.692h61.387l-68.921-28.692z" style="opacity:1;fill:#ebebeb;fill-opacity:1;stroke:#000;stroke-width:.54374564;stroke-linecap:round;stroke-linejoin:round;stroke-miterlimit:4;stroke-dasharray:none;stroke-dashoffset:0;stroke-opacity:1" transform="translate(67.36 31.956) scale(.18918)"/><path d="m344.012-12.547 43.857 28.692h61.387l-56.391-28.692z" style="opacity:1;fill:#bebebe;fill-opacity:1;stroke:#000;stroke-width:.54374564;stroke-linecap:round;stroke-linejoin:round;stroke-miterlimit:4;stroke-dasharray:none;stroke-dashoffset:0;stroke-opacity:1" transform="translate(67.36 31.956) scale(.18918)"/><path d="m295.157-12.547 31.326 28.692h61.386l-43.857-28.692z" style="opacity:1;fill:#ebebeb;fill-opacity:1;stroke:#000;stroke-width:.54374564;stroke-linecap:round;stroke-linejoin:round;stroke-miterlimit:4;stroke-dasharray:none;stroke-dashoffset:0;stroke-opacity:1" transform="translate(67.36 31.956) scale(.18918)"/><path d="m246.304-12.547 18.795 28.692h61.384l-31.326-28.692z" style="opacity:1;fill:#bebebe;fill-opacity:1;stroke:#000;stroke-width:.54374564;stroke-linecap:round;stroke-linejoin:round;stroke-miterlimit:4;stroke-dasharray:none;stroke-dashoffset:0;stroke-opacity:1" transform="translate(67.36 31.956) scale(.18918)"/><path d="m197.448-12.547 6.267 28.692H265.1l-18.795-28.692z" style="opacity:1;fill:#ebebeb;fill-opacity:1;stroke:#000;stroke-width:.54374564;stroke-linecap:round;stroke-linejoin:round;stroke-miterlimit:4;stroke-dasharray:none;stroke-dashoffset:0;stroke-opacity:1" transform="translate(67.36 31.956) scale(.18918)"/><path d="m148.595-12.547-6.266 28.692h61.386l-6.267-28.692z" style="opacity:1;fill:#bebebe;fill-opacity:1;stroke:#000;stroke-width:.54374564;stroke-linecap:round;stroke-linejoin:round;stroke-miterlimit:4;stroke-dasharray:none;stroke-dashoffset:0;stroke-opacity:1" transform="translate(67.36 31.956) scale(.18918)"/><path d="M99.74-12.547 80.945 16.145h61.384l6.266-28.692z" style="opacity:1;fill:#ebebeb;fill-opacity:1;stroke:#000;stroke-width:.54374564;stroke-linecap:round;stroke-linejoin:round;stroke-miterlimit:4;stroke-dasharray:none;stroke-dashoffset:0;stroke-opacity:1" transform="translate(67.36 31.956) scale(.18918)"/><path d="M50.887-12.547 19.561 16.145h61.384L99.74-12.547z" style="opacity:1;fill:#bebebe;fill-opacity:1;stroke:#000;stroke-width:.54374564;stroke-linecap:round;stroke-linejoin:round;stroke-miterlimit:4;stroke-dasharray:none;stroke-dashoffset:0;stroke-opacity:1" transform="translate(67.36 31.956) scale(.18918)"/><path d="m2.032-12.547-43.857 28.692H19.56l31.326-28.692z" style="opacity:1;fill:#ebebeb;fill-opacity:1;stroke:#000;stroke-width:.54374564;stroke-linecap:round;stroke-linejoin:round;stroke-miterlimit:4;stroke-dasharray:none;stroke-dashoffset:0;stroke-opacity:1" transform="translate(67.36 31.956) scale(.18918)"/><path d="m-46.821-12.547-56.391 28.692h61.387L2.032-12.547Z" style="opacity:1;fill:#bebebe;fill-opacity:1;stroke:#000;stroke-width:.54374564;stroke-linecap:round;stroke-linejoin:round;stroke-miterlimit:4;stroke-dasharray:none;stroke-dashoffset:0;stroke-opacity:1" transform="translate(67.36 31.956) scale(.18918)"/><path d="m-95.677-12.547-68.922 28.692h61.387l56.39-28.692z" style="opacity:1;fill:#ebebeb;fill-opacity:1;stroke:#000;stroke-width:.54374564;stroke-linecap:round;stroke-linejoin:round;stroke-miterlimit:4;stroke-dasharray:none;stroke-dashoffset:0;stroke-opacity:1" transform="translate(67.36 31.956) scale(.18918)"/><path d="m-142.226-12.547-80.862 28.692h58.49l68.921-28.692z" style="opacity:1;fill:#bebebe;fill-opacity:1;stroke:#000;stroke-width:.54374564;stroke-linecap:round;stroke-linejoin:round;stroke-miterlimit:4;stroke-dasharray:none;stroke-dashoffset:0;stroke-opacity:1" transform="translate(67.36 31.956) scale(.18918)"/><path d="m-198.603-12.547-95.321 28.692h70.836l80.862-28.692zm-63.102 0h-94.092v24.212z" style="opacity:1;fill:#ebebeb;fill-opacity:1;stroke:#000;stroke-width:.54374564;stroke-linecap:round;stroke-linejoin:round;stroke-miterlimit:4;stroke-dasharray:none;stroke-dashoffset:0;stroke-opacity:1" transform="translate(67.36 31.956) scale(.18918)"/><path d="m-261.705-12.547-94.092 24.212v4.48h61.873l95.321-28.692z" style="opacity:1;fill:#bebebe;fill-opacity:1;stroke:#000;stroke-width:.54374564;stroke-linecap:round;stroke-linejoin:round;stroke-miterlimit:4;stroke-dasharray:none;stroke-dashoffset:0;stroke-opacity:1" transform="translate(67.36 31.956) scale(.18918)"/><path style="opacity:1;fill:#e3e3e3;fill-opacity:1;stroke:#a6acc3;stroke-width:1.62579954;stroke-linecap:round;stroke-linejoin:round;stroke-miterlimit:4;stroke-dasharray:none;stroke-dashoffset:0;stroke-opacity:1" d="M-354.274-168.105H700.32v155.557H-354.274z" transform="translate(67.36 31.956) scale(.18918)"/></svg>