<svg width="86.833"
    height="73.173"
    viewBox="0 0 22.975 19.36"
    xmlns="http://www.w3.org/2000/svg">
    <path style="fill:#3e7ee4;stroke:#fff;stroke-width:1.25;stroke-linejoin:round"
        d="M.853.984h21.314V18.56H.853z"/>
    <path style="fill:#fff"
        d="M6.748 5.296C4.996 5.359 3.4 6.682 3.092 8.42c-.42 1.883.017 4.266 1.861 5.241 1.672.883 3.702.505 5.301-.359V11.32c-.552-.118-.952.134-1.346.485-1.106.761-3.037.794-3.649-.61-.486-1.2-.453-2.884.645-3.74 1.166-.734 2.686-.205 3.625.668.724.2.824-.223.725-.845-.1-.451.272-1.2-.357-1.317-.97-.49-2.06-.754-3.15-.664ZM15.895 5.296c-1.752.063-3.347 1.386-3.656 3.125-.42 1.883.018 4.266 1.862 5.241 1.672.883 3.701.505 5.3-.359V11.32c-.551-.118-.951.134-1.346.485-1.105.761-3.037.794-3.648-.61-.486-1.2-.454-2.884.644-3.74 1.167-.734 2.687-.205 3.626.668.724.2.823-.223.725-.845-.1-.451.272-1.2-.358-1.317-.97-.49-2.059-.754-3.149-.664Z"/>
</svg>