<svg xmlns="http://www.w3.org/2000/svg" width="1024" height="1024"><path style="fill:#fff;fill-rule:evenodd" d="M0 0h1024v1024H0z"/><path style="fill:#232323;fill-rule:evenodd" d="M558.744 648.015c-20.64 20.897-46.503 31.347-77.59 31.347-30.578 0-55.931-10.194-76.062-30.583-20.13-20.388-30.195-46.639-30.195-78.75 0-30.585 10.32-55.943 30.96-76.077s45.993-30.2 76.062-30.2c20.384 0 38.858 4.713 55.421 14.143 16.563 9.43 29.431 22.301 38.604 38.612 9.174 16.31 13.76 34.15 13.76 53.521 0 31.092-10.32 57.088-30.96 77.987zm24.08-429.695v177.383c-17.837-17.84-36.82-30.71-56.95-38.611-20.131-7.9-42.681-11.851-67.653-11.851-40.261 0-76.444 9.939-108.55 29.819-32.108 19.878-57.079 47.02-74.916 81.427C256.918 490.894 248 528.996 248 570.792c0 42.816 8.791 81.428 26.373 115.833 17.582 34.407 42.553 61.55 74.915 81.428 32.362 19.88 69.437 29.82 111.226 29.82 60.645 0 102.944-19.88 126.898-59.638h1.527v54.37H709.72v-601.81Z"/><circle style="opacity:1;fill:none;fill-opacity:1;stroke:#282828;stroke-width:73.0003891;stroke-linecap:round;stroke-linejoin:round;stroke-miterlimit:4;stroke-dasharray:none;stroke-dashoffset:0;stroke-opacity:1" cx="512" cy="512" r="475.5"/></svg>