<svg width="1938.385" height="468.62" viewBox="0 0 512.864 123.989" xmlns="http://www.w3.org/2000/svg"><path style="fill:#fff;stroke:#000;stroke-width:.264583;stroke-linecap:round;stroke-linejoin:round" d="M1.727 173.15h21.308c4.432 0 8 3.569 8 8v21.309c0 4.432-3.568 8-8 8H1.727c-4.432 0-8-3.568-8-8V181.15c0-4.432 3.568-8 8-8ZM44.935 173.15h21.308c4.432 0 8 3.569 8 8v21.309c0 4.432-3.568 8-8 8H44.935c-4.432 0-8-3.568-8-8V181.15c0-4.432 3.568-8 8-8ZM88.144 173.15h21.308c4.432 0 8 3.569 8 8v21.309c0 4.432-3.568 8-8 8H88.144c-4.432 0-8-3.568-8-8V181.15c0-4.432 3.568-8 8-8ZM131.352 173.15h21.308c4.432 0 8 3.569 8 8v21.309c0 4.432-3.568 8-8 8h-21.308c-4.432 0-8-3.568-8-8V181.15c0-4.432 3.568-8 8-8ZM174.56 173.15h21.308c4.432 0 8 3.569 8 8v21.309c0 4.432-3.568 8-8 8H174.56c-4.432 0-8-3.568-8-8V181.15c0-4.432 3.568-8 8-8ZM217.769 173.15h21.308c4.432 0 8 3.569 8 8v21.309c0 4.432-3.568 8-8 8h-21.308c-4.432 0-8-3.568-8-8V181.15c0-4.432 3.568-8 8-8ZM260.977 173.15h21.308c4.432 0 8 3.569 8 8v21.309c0 4.432-3.568 8-8 8h-21.308c-4.432 0-8-3.568-8-8V181.15c0-4.432 3.568-8 8-8ZM304.185 173.15h21.308c4.432 0 8 3.569 8 8v21.309c0 4.432-3.568 8-8 8h-21.308c-4.432 0-8-3.568-8-8V181.15c0-4.432 3.568-8 8-8ZM347.394 173.15h21.308c4.432 0 8 3.569 8 8v21.309c0 4.432-3.568 8-8 8h-21.308c-4.432 0-8-3.568-8-8V181.15c0-4.432 3.568-8 8-8ZM390.602 173.15h21.308c4.432 0 8 3.569 8 8v21.309c0 4.432-3.568 8-8 8h-21.308c-4.432 0-8-3.568-8-8V181.15c0-4.432 3.568-8 8-8ZM-19.833 129.943H1.475c4.432 0 8 3.568 8 8v21.307c0 4.432-3.568 8-8 8h-21.308c-4.432 0-8-3.568-8-8v-21.307c0-4.432 3.568-8 8-8ZM23.375 129.943h21.308c4.432 0 8 3.568 8 8v21.307c0 4.432-3.568 8-8 8H23.375c-4.432 0-8-3.568-8-8v-21.307c0-4.432 3.568-8 8-8ZM66.584 129.943h21.308c4.432 0 8 3.568 8 8v21.307c0 4.432-3.568 8-8 8H66.584c-4.432 0-8-3.568-8-8v-21.307c0-4.432 3.568-8 8-8ZM109.792 129.943H131.1c4.432 0 8 3.568 8 8v21.307c0 4.432-3.568 8-8 8h-21.308c-4.432 0-8-3.568-8-8v-21.307c0-4.432 3.568-8 8-8ZM153 129.943h21.309c4.432 0 8 3.568 8 8v21.307c0 4.432-3.568 8-8 8H153c-4.432 0-8-3.568-8-8v-21.307c0-4.432 3.568-8 8-8ZM196.209 129.943h21.308c4.432 0 8 3.568 8 8v21.307c0 4.432-3.568 8-8 8h-21.308c-4.432 0-8-3.568-8-8v-21.307c0-4.432 3.568-8 8-8ZM239.417 129.943h21.308c4.432 0 8 3.568 8 8v21.307c0 4.432-3.568 8-8 8h-21.308c-4.432 0-8-3.568-8-8v-21.307c0-4.432 3.568-8 8-8ZM282.626 129.943h21.308c4.432 0 8 3.568 8 8v21.307c0 4.432-3.568 8-8 8h-21.308c-4.432 0-8-3.568-8-8v-21.307c0-4.432 3.568-8 8-8ZM325.834 129.943h21.308c4.432 0 8 3.568 8 8v21.307c0 4.432-3.568 8-8 8h-21.308c-4.432 0-8-3.568-8-8v-21.307c0-4.432 3.568-8 8-8ZM369.042 129.943h21.308c4.432 0 8 3.568 8 8v21.307c0 4.432-3.568 8-8 8h-21.308c-4.432 0-8-3.568-8-8v-21.307c0-4.432 3.568-8 8-8ZM412.25 129.943h21.309c4.432 0 8 3.568 8 8v21.307c0 4.432-3.568 8-8 8H412.25c-4.432 0-8-3.568-8-8v-21.307c0-4.432 3.568-8 8-8ZM-43.497 86.734h21.308c4.432 0 8 3.568 8 8v21.308c0 4.432-3.568 8-8 8h-21.308c-4.432 0-8-3.568-8-8V94.734c0-4.432 3.568-8 8-8ZM-.289 86.734H21.02c4.432 0 8 3.568 8 8v21.308c0 4.432-3.568 8-8 8H-.289c-4.432 0-8-3.568-8-8V94.734c0-4.432 3.568-8 8-8ZM42.92 86.734h21.307c4.432 0 8 3.568 8 8v21.308c0 4.432-3.568 8-8 8H42.92c-4.432 0-8-3.568-8-8V94.734c0-4.432 3.568-8 8-8ZM86.128 86.734h21.308c4.432 0 8 3.568 8 8v21.308c0 4.432-3.568 8-8 8H86.128c-4.432 0-8-3.568-8-8V94.734c0-4.432 3.568-8 8-8ZM129.336 86.734h21.308c4.432 0 8 3.568 8 8v21.308c0 4.432-3.568 8-8 8h-21.308c-4.432 0-8-3.568-8-8V94.734c0-4.432 3.568-8 8-8ZM172.545 86.734h21.308c4.432 0 8 3.568 8 8v21.308c0 4.432-3.568 8-8 8h-21.308c-4.432 0-8-3.568-8-8V94.734c0-4.432 3.568-8 8-8ZM215.753 86.734h21.308c4.432 0 8 3.568 8 8v21.308c0 4.432-3.568 8-8 8h-21.308c-4.432 0-8-3.568-8-8V94.734c0-4.432 3.568-8 8-8ZM258.96 86.734h21.309c4.432 0 8 3.568 8 8v21.308c0 4.432-3.568 8-8 8H258.96c-4.432 0-8-3.568-8-8V94.734c0-4.432 3.568-8 8-8ZM302.17 86.734h21.308c4.432 0 8 3.568 8 8v21.308c0 4.432-3.568 8-8 8H302.17c-4.432 0-8-3.568-8-8V94.734c0-4.432 3.568-8 8-8ZM345.378 86.734h21.308c4.432 0 8 3.568 8 8v21.308c0 4.432-3.568 8-8 8h-21.308c-4.432 0-8-3.568-8-8V94.734c0-4.432 3.568-8 8-8ZM388.586 86.734h21.308c4.432 0 8 3.568 8 8v21.308c0 4.432-3.568 8-8 8h-21.308c-4.432 0-8-3.568-8-8V94.734c0-4.432 3.568-8 8-8ZM431.795 86.734h21.308c4.432 0 8 3.568 8 8v21.308c0 4.432-3.568 8-8 8h-21.308c-4.432 0-8-3.568-8-8V94.734c0-4.432 3.568-8 8-8Z" transform="translate(51.63 -86.602)"/><path d="m-35.452 102.568-.793.944-1.667-1.316q-1.123.682-2.536.682-2.129 0-3.486-1.433-1.357-1.44-1.357-3.79 0-2.356 1.357-3.79 1.357-1.432 3.486-1.432 2.123 0 3.473 1.433 1.35 1.433 1.35 3.79 0 2.287-1.309 3.755Zm-2.488-1.95q.93-1.102.93-2.963 0-1.929-.964-3.004-.965-1.075-2.46-1.075-1.523 0-2.501 1.075-.972 1.075-.972 3.004 0 1.923.972 3.005.971 1.074 2.474 1.074.799 0 1.522-.337l-1.006-.793.793-.944ZM10.324 92.605l-2.798 10.1H6.245l-2.426-8.777-2.432 8.778H.105l-2.79-10.101h1.406l2.018 8.227 2.274-8.227H4.62l2.273 8.227 2.02-8.227ZM48.9 102.706h-7.532V92.605h7.297v1.199h-5.96v3.087h5.574v1.198h-5.574v3.418h6.194ZM92.884 102.706h-1.447l-.951-2.694q-.255-.717-.848-1.171-.592-.455-1.364-.455h-2.473v4.32h-1.337V92.605h4.472q1.171 0 1.915.227.744.228 1.213.958.468.73.468 1.647 0 1.047-.606 1.75-.606.703-1.66.916v.028q1.054.337 1.605 1.826Zm-7.083-5.52h2.983q1.247 0 1.805-.392.565-.393.565-1.357 0-1.723-2.163-1.723H85.8ZM134.74 93.804h-3.343v8.902h-1.343v-8.902h-3.314v-1.2h8ZM178.868 92.605l-3.968 5.822v4.279h-1.337v-4.279l-3.969-5.822h1.626l3.018 4.65 3.004-4.65ZM217.713 102.878q-1.757 0-2.632-.682-.868-.682-1.103-1.605-.227-.924-.227-2.143v-5.843h1.337v5.822q0 1.991.668 2.618.668.627 1.957.627 1.288 0 1.957-.627.668-.627.668-2.618v-5.822h1.343v5.843q0 1.833-.44 2.7-.435.869-1.317 1.303-.881.427-2.211.427ZM258.355 102.706h-1.343V92.605h1.343ZM304.317 92.433q2.123 0 3.473 1.433 1.35 1.433 1.35 3.79 0 2.356-1.35 3.789-1.35 1.433-3.473 1.433-2.129 0-3.486-1.433-1.357-1.44-1.357-3.79 0-2.356 1.357-3.79 1.357-1.432 3.486-1.432Zm-.013 9.301q1.515 0 2.48-1.074.972-1.075.972-3.005 0-1.929-.965-3.004t-2.46-1.075q-1.523 0-2.501 1.075-.971 1.075-.971 3.004 0 1.923.971 3.005.972 1.074 2.474 1.074ZM343.038 92.605h3.769q1.24 0 2.074.234.84.228 1.33 1 .489.764.489 1.715 0 1.53-.972 2.322-.971.792-2.811.792h-2.543v4.038h-1.336Zm1.336 4.864h2.557q1.288 0 1.832-.482.552-.482.552-1.392 0-.606-.303-1.075-.304-.468-.772-.592-.462-.124-1.337-.124h-2.529ZM388.703 105.517h-2.742V92.605h2.742v1.027h-1.44v10.852h1.44ZM431.062 105.517h-2.736v-1.033h1.44V93.632h-1.44v-1.027h2.736ZM-15.752 140.49l-1.777-4.686-1.695 4.685Zm3.073 4.133h-1.508l-1.172-3.073h-4.23l-1.117 3.073h-1.412l3.88-10.1h1.44ZM25.932 144.796q-2.136 0-3.197-.958-1.055-.958-1.11-2.46h1.289q.103 1.13.937 1.674.84.538 2.025.538 1.124 0 1.806-.462.689-.462.689-1.254 0-.834-.71-1.213-.71-.379-2.446-.744-1.73-.372-2.487-1.026-.751-.655-.751-1.744 0-1.226.978-2.011.985-.786 2.611-.786 1.71 0 2.756.792 1.048.793 1.11 2.24H28.13q-.2-1.833-2.508-1.833-1.117 0-1.73.42t-.613 1.116q0 .634.49.951.495.317 1.839.614 1.35.296 2.143.585.792.29 1.357.903.565.606.565 1.633 0 1.302-1.04 2.163-1.034.862-2.701.862ZM65.217 134.522h3.204q5.147 0 5.147 4.996 0 5.105-5.147 5.105h-3.204Zm1.337 8.902h1.84q2.197 0 2.997-1.02.799-1.026.799-2.886 0-1.812-.8-2.805-.792-.992-2.997-.992h-1.84ZM115.127 135.721h-5.478v3.128h4.748v1.2h-4.748v4.574h-1.336v-10.1h6.814ZM155.825 144.796q-2.177 0-3.535-1.427-1.35-1.426-1.35-3.796 0-2.377 1.336-3.797 1.337-1.426 3.507-1.426 1.826 0 3.032.882 1.213.875 1.358 2.35h-1.385q-.083-.979-.882-1.53-.8-.558-2.109-.558-1.564 0-2.522 1.068-.95 1.068-.95 3.01 0 1.937.964 3.012.965 1.068 2.522 1.068 2.184 0 3.245-1.44v-1.537h-2.666v-1.206h3.962v5.154h-.944l-.352-1.06q-1.026 1.233-3.231 1.233ZM202.434 144.623h-1.343v-4.754h-5.25v4.754h-1.337v-10.1h1.337v4.147h5.25v-4.148h1.343ZM242.395 141.392q0 1.853-.717 2.632-.716.772-2.115.772-1.254 0-1.984-.765t-.73-2.02v-.268h1.343q0 1.847 1.371 1.847.724 0 1.11-.407.385-.406.385-1.722v-6.939h1.337ZM288.95 144.623h-1.764l-3.583-5.036-1.571 1.536v3.5h-1.337v-10.1h1.337v5.008l4.926-5.009h1.806l-4.231 4.148ZM330.04 144.623h-6.25v-10.1h1.337v8.901h4.913ZM368.423 144.623q0 .903-.358 1.447-.359.545-1.055.545v-.662q.696 0 .696-1.33h-.696v-1.412h1.413Zm0-5.898h-1.413v-1.412h1.413ZM410.898 136.17l-.31 1.935h-.764l-.338-1.936v-1.647h1.412ZM7.835 187.909H-.151v-1.254l6.277-7.648H.428v-1.2h7.235v1.255l-6.277 7.648h6.449ZM52.033 187.909h-1.64l-2.99-4.28-3.004 4.28h-1.64l3.879-5.32-3.493-4.781h1.633l2.611 3.734 2.625-3.734h1.633l-3.507 4.782ZM91.146 188.081q-2.143 0-3.424-1.406-1.275-1.412-1.275-3.817 0-2.404 1.275-3.81 1.281-1.413 3.424-1.413 1.647 0 2.804.89 1.158.888 1.303 2.342h-1.378q-.083-.958-.834-1.523-.744-.565-1.881-.565-1.537 0-2.432 1.061-.896 1.055-.896 3.018 0 1.957.889 3.018.889 1.061 2.411 1.061 1.185 0 1.916-.579.73-.578.827-1.653h1.378q-.145 1.612-1.268 2.494-1.123.882-2.839.882ZM138.197 177.808l-3.928 10.1h-1.378l-3.927-10.1h1.426l3.19 8.66 3.19-8.66ZM180.658 184.974q0 1.419-.964 2.177-.965.758-2.804.758h-3.783v-10.101h3.596q1.613 0 2.536.689t.923 1.888q0 1.46-1.453 2.163.978.248 1.46.917.49.661.49 1.509Zm-6.214-2.936h2.246q1.109 0 1.633-.351.523-.358.523-1.185 0-.744-.51-1.116-.51-.38-1.77-.38h-2.122Zm0 4.672h2.432q2.398 0 2.398-1.736 0-.903-.559-1.317-.55-.42-2.012-.42h-2.26ZM224.133 187.909h-1.371l-5.292-7.972v7.972h-1.268v-10.101h1.365l5.291 7.972v-7.972h1.275ZM268.793 187.909h-1.268v-8.592l-2.88 8.592h-1.199l-2.88-8.592v8.592h-1.268v-10.101h2.005l2.736 8.42 2.749-8.42h2.005ZM303.93 187.909q0 .902-.358 1.447-.358.544-1.054.544v-.661q.696 0 .696-1.33h-.696v-1.413h1.412ZM347.026 187.909h-1.413v-1.413h1.413ZM391.375 177.808l-2.92 10.1h-1l2.921-10.1Z" style="font-size:14.1111px;line-height:1.25;font-family:'Microsoft Sans Serif';-inkscape-font-specification:'Microsoft Sans Serif';stroke-width:.264583" transform="translate(51.63 -86.602)"/><text xml:space="preserve" style="font-style:normal;font-weight:400;font-size:10.5833px;line-height:1.25;font-family:sans-serif;fill:#000;fill-opacity:1;stroke:none;stroke-width:.264583" x="52.558" y="117.014" transform="translate(51.63 -86.602)"><tspan style="stroke-width:.264583" x="52.558" y="117.014">👀</tspan></text><text xml:space="preserve" style="font-size:10.5833px;line-height:1.25;font-family:'Segoe UI Emoji'" x="36.103" y="162.089" transform="translate(51.63 -86.602)"><tspan style="font-style:normal;font-variant:normal;font-weight:400;font-stretch:normal;font-size:10.5833px;font-family:'Segoe UI Emoji';-inkscape-font-specification:'Segoe UI Emoji, Normal';font-variant-ligatures:normal;font-variant-caps:normal;font-variant-numeric:normal;font-variant-east-asian:normal;stroke-width:.264583" x="36.103" y="162.089">🤝</tspan></text><text xml:space="preserve" style="font-size:10.5833px;line-height:1.25;font-family:sans-serif;letter-spacing:0;word-spacing:0;stroke-width:.264583" x="143.566" y="117.2" transform="translate(51.63 -86.602)"><tspan style="stroke-width:.264583" x="143.566" y="117.2">👍</tspan></text><text xml:space="preserve" style="font-size:10.5833px;line-height:1.55;font-family:sans-serif;letter-spacing:0;word-spacing:0;stroke-width:.264583" x="356.125" y="117.758" transform="translate(51.63 -86.602)"><tspan style="stroke-width:.264583" x="356.125" y="117.758">😔</tspan></text><text xml:space="preserve" style="font-size:10.5833px;line-height:1.65;font-family:sans-serif;letter-spacing:0;word-spacing:0;stroke-width:.264583" x="120.11" y="162.089" transform="translate(51.63 -86.602)"><tspan style="stroke-width:.264583" x="120.11" y="162.089">😳</tspan></text><text xml:space="preserve" style="font-size:10.5833px;line-height:1.65;font-family:sans-serif;letter-spacing:0;word-spacing:0;stroke-width:.264583" x="338.162" y="162.089" transform="translate(51.63 -86.602)"><tspan style="stroke-width:.264583" x="338.162" y="162.089">🥺</tspan></text><text xml:space="preserve" style="font-size:10.5833px;line-height:1.55;font-family:sans-serif;letter-spacing:0;word-spacing:0;stroke-width:.264583" x="100.638" y="204.098" transform="translate(51.63 -86.602)"><tspan style="stroke-width:.264583" x="100.638" y="204.098">🤡</tspan></text><text xml:space="preserve" style="font-size:10.5833px;line-height:1.55;font-family:sans-serif;letter-spacing:0;word-spacing:0;stroke-width:.264583" x="79.931" y="162.461" transform="translate(51.63 -86.602)"><tspan style="stroke-width:.264583" x="79.931" y="162.461">💀</tspan></text><text xml:space="preserve" style="font-style:normal;font-variant:normal;font-weight:400;font-stretch:normal;font-size:10.5833px;line-height:1.65;font-family:'Segoe UI Emoji';-inkscape-font-specification:'Segoe UI Emoji, Normal';font-variant-ligatures:normal;font-variant-caps:normal;font-variant-numeric:normal;font-variant-east-asian:normal;letter-spacing:0;word-spacing:0;stroke-width:.264583" x="232.611" y="117.758" transform="translate(51.63 -86.602)"><tspan style="font-style:normal;font-variant:normal;font-weight:400;font-stretch:normal;font-size:10.5833px;font-family:'Segoe UI Emoji';-inkscape-font-specification:'Segoe UI Emoji, Normal';font-variant-ligatures:normal;font-variant-caps:normal;font-variant-numeric:normal;font-variant-east-asian:normal;stroke-width:.264583" x="232.611" y="117.758">☝</tspan></text><text xml:space="preserve" style="font-size:10.5833px;line-height:1.25;font-family:sans-serif;letter-spacing:0;word-spacing:0;stroke-width:.264583" x="133.141" y="114.63" transform="translate(51.63 -86.602)"/><text xml:space="preserve" style="font-size:10.5833px;line-height:1.25;font-family:sans-serif;letter-spacing:0;word-spacing:0;stroke-width:.264583" x="9.564" y="117.758" transform="translate(51.63 -86.602)"><tspan style="stroke-width:.264583" x="9.564" y="117.758">👋</tspan></text><text xml:space="preserve" style="font-size:10.5833px;line-height:1.25;font-family:sans-serif;letter-spacing:0;word-spacing:0;stroke-width:.264583" x="96.003" y="117.572" transform="translate(51.63 -86.602)"><tspan style="stroke-width:.264583" x="96.003" y="117.572">🌈</tspan></text><text xml:space="preserve" style="font-style:normal;font-variant:normal;font-weight:400;font-stretch:normal;font-size:10.5833px;line-height:1.25;font-family:'Segoe UI Emoji';-inkscape-font-specification:'Segoe UI Emoji, Normal';font-variant-ligatures:normal;font-variant-caps:normal;font-variant-numeric:normal;font-variant-east-asian:normal;letter-spacing:0;word-spacing:0;stroke-width:.264583" x="209.373" y="162.261" transform="translate(51.63 -86.602)"><tspan style="font-style:normal;font-variant:normal;font-weight:400;font-stretch:normal;font-size:10.5833px;font-family:'Segoe UI Emoji';-inkscape-font-specification:'Segoe UI Emoji, Normal';font-variant-ligatures:normal;font-variant-caps:normal;font-variant-numeric:normal;font-variant-east-asian:normal;stroke-width:.264583" x="209.373" y="162.261">❤</tspan></text><text xml:space="preserve" style="font-size:10.5833px;line-height:1.55;font-family:sans-serif;letter-spacing:0;word-spacing:0;stroke-width:.264583" x="-8.68" y="162.089" transform="translate(51.63 -86.602)"><tspan style="stroke-width:.264583" x="-8.68" y="162.089">😩</tspan></text></svg>