<svg width="626.8mm" height="210.7mm" version="1.1" viewBox="0 0 626.8 210.7"
    xmlns="http://www.w3.org/2000/svg"
    xmlns:xlink="http://www.w3.org/1999/xlink">
    <g transform="translate(106.6 -43.39)">
        <g transform="translate(-43.31)">
            <use transform="translate(98.48 129.6)" width="100%" height="100%" xlink:href="#rect950"/>
            <use transform="translate(141.7 129.6)" width="100%" height="100%" xlink:href="#rect950"/>
            <use transform="translate(184.9 129.6)" width="100%" height="100%" xlink:href="#rect950"/>
            <use transform="translate(228.1 129.6)" width="100%" height="100%" xlink:href="#rect950"/>
            <use transform="translate(271.3 129.6)" width="100%" height="100%" xlink:href="#rect950"/>
            <use transform="translate(314.5 129.6)" width="100%" height="100%" xlink:href="#rect950"/>
            <use transform="translate(357.7 129.6)" width="100%" height="100%" xlink:href="#rect950"/>
            <use transform="translate(400.9 129.6)" width="100%" height="100%" xlink:href="#rect950"/>
            <use transform="translate(444.2 129.6)" width="100%" height="100%" xlink:href="#rect950"/>
            <use transform="translate(487.4 129.6)" width="100%" height="100%" xlink:href="#rect950"/>
            <path d="m-54.53 173.2h76.53c4.432 0 8 3.568 8 8v21.31c0 4.432-3.568 8-8 8h-76.53c-4.432 0-8-3.568-8-8v-21.31c0-4.432 3.568-8 8-8z" fill="#fff" stroke="#000" stroke-linecap="round" stroke-linejoin="round" stroke-width=".5"/>
            <path d="m478.8 173.2h76.53c4.432 0 8 3.568 8 8v21.31c0 4.432-3.568 8-8 8h-76.53c-4.432 0-8-3.568-8-8v-21.31c0-4.432 3.568-8 8-8z" fill="#fff" stroke="#000" stroke-linecap="round" stroke-linejoin="round" stroke-width=".5"/>
        </g>
        <g transform="translate(33.62)">
            <use transform="translate(0 86.42)" width="100%" height="100%" xlink:href="#rect950"/>
            <use transform="translate(43.21 86.42)" width="100%" height="100%" xlink:href="#rect950"/>
            <use transform="translate(86.42 86.42)" width="100%" height="100%" xlink:href="#rect950"/>
            <use transform="translate(129.6 86.42)" width="100%" height="100%" xlink:href="#rect950"/>
            <use transform="translate(172.8 86.42)" width="100%" height="100%" xlink:href="#rect950"/>
            <use transform="translate(216 86.42)" width="100%" height="100%" xlink:href="#rect950"/>
            <use transform="translate(259.2 86.42)" width="100%" height="100%" xlink:href="#rect950"/>
            <use transform="translate(302.5 86.42)" width="100%" height="100%" xlink:href="#rect950"/>
            <use transform="translate(345.7 86.42)" width="100%" height="100%" xlink:href="#rect950"/>
            <use transform="translate(388.9 86.42)" width="100%" height="100%" xlink:href="#rect950"/>
            <use transform="translate(432.1 86.42)" width="100%" height="100%" xlink:href="#rect950"/>
            <g fill="#fff" stroke="#000" stroke-linecap="round" stroke-linejoin="round" stroke-width=".5">
                <path d="m-119.9 129.9h43.08c4.432 0 8 3.568 8 8v21.31c0 4.432-3.568 8-8 8h-43.08c-4.432 0-8-3.568-8-8v-21.31c0-4.432 3.568-8 8-8z"/>
                <path d="m-130.4 129.9h53.52c4.432 0 8 3.568 8 8v21.31c0 4.432-3.568 8-8 8h-53.52c-4.432 0-8-3.568-8-8v-21.31c0-4.432 3.568-8 8-8z"/>
                <path d="m424.8 129.9h53.52c4.432 0 8 3.568 8 8v21.31c0 4.432-3.568 8-8 8h-53.52c-4.432 0-8-3.568-8-8v-21.31c0-4.432 3.568-8 8-8z"/>
            </g>
        </g>
        <path id="rect950" d="m-53.45 43.53h21.31c4.432 0 8 3.568 8 8v21.31c0 4.432-3.568 8-8 8h-21.31c-4.432 0-8-3.568-8-8v-21.31c0-4.432 3.568-8 8-8z" fill="#fff" stroke="#000" stroke-linecap="round" stroke-linejoin="round" stroke-width=".5"/>
        <use transform="translate(43.21)" width="100%" height="100%" xlink:href="#rect950"/>
        <use transform="translate(86.42)" width="100%" height="100%" xlink:href="#rect950"/>
        <use transform="translate(129.6)" width="100%" height="100%" xlink:href="#rect950"/>
        <use transform="translate(172.8)" width="100%" height="100%" xlink:href="#rect950"/>
        <use transform="translate(216)" width="100%" height="100%" xlink:href="#rect950"/>
        <use transform="translate(259.2)" width="100%" height="100%" xlink:href="#rect950"/>
        <use transform="translate(302.5)" width="100%" height="100%" xlink:href="#rect950"/>
        <use transform="translate(345.7)" width="100%" height="100%" xlink:href="#rect950"/>
        <use transform="translate(388.9)" width="100%" height="100%" xlink:href="#rect950"/>
        <use transform="translate(432.1)" width="100%" height="100%" xlink:href="#rect950"/>
        <use transform="translate(475.3)" width="100%" height="100%" xlink:href="#rect950"/>
        <path d="m465.9 43.53h43.86c4.432 0 8 3.568 8 8v21.31c0 4.432-3.568 8-8 8h-43.86c-4.432 0-8-3.568-8-8v-21.31c0-4.432 3.568-8 8-8z" fill="#fff" stroke="#000" stroke-linecap="round" stroke-linejoin="round" stroke-width=".5"/>
        <path d="m-96.76 43.53h21.31c4.432 0 8 3.568 8 8v21.31c0 4.432-3.568 8-8 8h-21.31c-4.432 0-8-3.568-8-8v-21.31c0-4.432 3.568-8 8-8z" fill="#fff" stroke="#000" stroke-linecap="round" stroke-linejoin="round" stroke-width=".5"/>
        <g transform="translate(9.951)">
            <use transform="translate(0 43.21)" width="100%" height="100%" xlink:href="#rect950"/>
            <use transform="translate(43.21 43.21)" width="100%" height="100%" xlink:href="#rect950"/>
            <use transform="translate(86.42 43.21)" width="100%" height="100%" xlink:href="#rect950"/>
            <use transform="translate(129.6 43.21)" width="100%" height="100%" xlink:href="#rect950"/>
            <use transform="translate(172.8 43.21)" width="100%" height="100%" xlink:href="#rect950"/>
            <use transform="translate(216 43.21)" width="100%" height="100%" xlink:href="#rect950"/>
            <use transform="translate(259.2 43.21)" width="100%" height="100%" xlink:href="#rect950"/>
            <use transform="translate(302.5 43.21)" width="100%" height="100%" xlink:href="#rect950"/>
            <use transform="translate(345.7 43.21)" width="100%" height="100%" xlink:href="#rect950"/>
            <use transform="translate(388.9 43.21)" width="100%" height="100%" xlink:href="#rect950"/>
            <use transform="translate(432.1 43.21)" width="100%" height="100%" xlink:href="#rect950"/>
            <use transform="translate(475.3 43.21)" width="100%" height="100%" xlink:href="#rect950"/>
            <path d="m-106.7 86.73h32.39c4.432 0 8 3.568 8 8v21.31c0 4.432-3.568 8-8 8h-32.39c-4.432 0-8-3.568-8-8v-21.31c0-4.432 3.568-8 8-8z" fill="#fff" stroke="#000" stroke-linecap="round" stroke-linejoin="round" stroke-width=".5"/>
            <path d="m468 86.73h32.39c4.432 0 8 3.568 8 8v21.31c0 4.432-3.568 8-8 8h-32.39c-4.432 0-8-3.568-8-8v-21.31c0-4.432 3.568-8 8-8z" fill="#fff" stroke="#000" stroke-linecap="round" stroke-linejoin="round" stroke-width=".5"/>
        </g>
        <g stroke-width=".5">
            <path d="m-35.45 102.6-0.7924 0.944-1.667-1.316q-1.123 0.6821-2.536 0.6821-2.129 0-3.486-1.433-1.357-1.44-1.357-3.79 0-2.356 1.357-3.79 1.357-1.433 3.486-1.433 2.122 0 3.473 1.433 1.35 1.433 1.35 3.79 0 2.288-1.309 3.755zm-2.487-1.95q0.9302-1.102 0.9302-2.963 0-1.929-0.9646-3.004t-2.46-1.075q-1.523 0-2.501 1.075-0.9715 1.075-0.9715 3.004 0 1.922 0.9715 3.004 0.9715 1.075 2.474 1.075 0.7993 0 1.523-0.3376l-1.006-0.7924 0.7924-0.944z"/>
            <path d="m10.32 92.6-2.797 10.1h-1.282l-2.425-8.778-2.432 8.778h-1.282l-2.791-10.1h1.406l2.019 8.227 2.274-8.227h1.605l2.274 8.227 2.019-8.227z"/>
            <path d="m48.9 102.7h-7.531v-10.1h7.297v1.199h-5.96v3.087h5.574v1.199h-5.574v3.418h6.194z"/>
            <path d="m92.88 102.7h-1.447l-0.9508-2.694q-0.2549-0.7166-0.8475-1.171t-1.364-0.4548h-2.474v4.32h-1.337v-10.1h4.472q1.171 0 1.915 0.2274t1.213 0.9577q0.4685 0.7304 0.4685 1.647 0 1.047-0.6063 1.75-0.6063 0.7028-1.661 0.9164v0.02756q1.054 0.3376 1.605 1.826zm-7.083-5.519h2.983q1.247 0 1.805-0.3927 0.565-0.3927 0.565-1.357 0-1.723-2.164-1.723h-3.19z"/>
            <path d="m134.7 93.8h-3.342v8.902h-1.344v-8.902h-3.314v-1.199h8z"/>
            <path d="m178.9 92.6-3.969 5.822v4.279h-1.337v-4.279l-3.969-5.822h1.626l3.018 4.651 3.004-4.651z"/>
            <path d="m217.7 102.9q-1.757 0-2.632-0.6821-0.8682-0.6821-1.102-1.605-0.2274-0.9233-0.2274-2.143v-5.843h1.337v5.822q0 1.991 0.6684 2.618 0.6684 0.627 1.957 0.627 1.288 0 1.957-0.627 0.6684-0.627 0.6684-2.618v-5.822h1.344v5.843q0 1.833-0.441 2.701-0.4341 0.8682-1.316 1.302-0.8819 0.4272-2.212 0.4272z"/>
            <path d="m258.4 102.7h-1.344v-10.1h1.344z"/>
            <path d="m304.3 92.43q2.122 0 3.473 1.433 1.35 1.433 1.35 3.79 0 2.356-1.35 3.79-1.35 1.433-3.473 1.433-2.129 0-3.486-1.433-1.357-1.44-1.357-3.79 0-2.356 1.357-3.79 1.357-1.433 3.486-1.433zm-0.0138 9.302q1.516 0 2.48-1.075 0.9715-1.075 0.9715-3.004t-0.9646-3.004q-0.9646-1.075-2.46-1.075-1.523 0-2.501 1.075-0.9715 1.075-0.9715 3.004 0 1.922 0.9715 3.004 0.9715 1.075 2.474 1.075z"/>
            <path d="m343 92.6h3.769q1.24 0 2.074 0.2343 0.8406 0.2274 1.33 0.9991 0.4892 0.7648 0.4892 1.716 0 1.53-0.9715 2.322-0.9715 0.7924-2.811 0.7924h-2.542v4.038h-1.337zm1.337 4.864h2.556q1.288 0 1.833-0.4823 0.5512-0.4823 0.5512-1.392 0-0.6063-0.3032-1.075-0.3032-0.4685-0.7717-0.5926-0.4616-0.124-1.337-0.124h-2.529z"/>
            <g aria-label="[">
                <path d="m388.7 105.5h-2.742v-12.91h2.742v1.027h-1.44v10.85h1.44z"/>
            </g>
            <path d="m431.1 105.5h-2.735v-1.034h1.44v-10.85h-1.44v-1.027h2.735z"/>
            <path d="m-15.75 140.5-1.778-4.685-1.695 4.685zm3.073 4.134h-1.509l-1.171-3.073h-4.231l-1.116 3.073h-1.412l3.879-10.1h1.44z"/>
            <path d="m25.93 144.8q-2.136 0-3.197-0.9577-1.054-0.9577-1.109-2.46h1.288q0.1034 1.13 0.9371 1.674 0.8406 0.5374 2.026 0.5374 1.123 0 1.805-0.4616 0.689-0.4616 0.689-1.254 0-0.8337-0.7097-1.213t-2.446-0.7441q-1.729-0.3721-2.487-1.027-0.751-0.6546-0.751-1.743 0-1.226 0.9784-2.012 0.9853-0.7855 2.611-0.7855 1.709 0 2.756 0.7924 1.047 0.7924 1.109 2.239h-1.302q-0.1998-1.833-2.508-1.833-1.116 0-1.729 0.4203-0.6132 0.4203-0.6132 1.116 0 0.6339 0.4892 0.9508 0.4961 0.317 1.84 0.6132 1.35 0.2963 2.143 0.5857 0.7924 0.2894 1.357 0.9026 0.565 0.6063 0.565 1.633 0 1.302-1.04 2.164-1.034 0.8613-2.701 0.8613z"/>
            <path d="m65.22 134.5h3.204q5.147 0 5.147 4.995 0 5.106-5.147 5.106h-3.204zm1.337 8.902h1.84q2.198 0 2.997-1.02 0.7993-1.027 0.7993-2.887 0-1.812-0.7993-2.804-0.7924-0.9922-2.997-0.9922h-1.84z"/>
            <path d="m115.1 135.7h-5.478v3.128h4.747v1.199h-4.747v4.575h-1.337v-10.1h6.814z"/>
            <path d="m155.8 144.8q-2.177 0-3.535-1.426-1.35-1.426-1.35-3.796 0-2.377 1.337-3.796 1.337-1.426 3.507-1.426 1.826 0 3.032 0.8819 1.213 0.8751 1.357 2.35h-1.385q-0.0827-0.9784-0.8819-1.53-0.7993-0.5581-2.108-0.5581-1.564 0-2.522 1.068-0.9508 1.068-0.9508 3.011 0 1.936 0.9646 3.011 0.9646 1.068 2.522 1.068 2.184 0 3.245-1.44v-1.537h-2.666v-1.206h3.962v5.154h-0.944l-0.3514-1.061q-1.027 1.233-3.232 1.233z"/>
            <path d="m202.4 144.6h-1.344v-4.754h-5.25v4.754h-1.337v-10.1h1.337v4.148h5.25v-4.148h1.344z"/>
            <path d="m242.4 141.4q0 1.853-0.7166 2.632-0.7166 0.7717-2.115 0.7717-1.254 0-1.984-0.7648t-0.7304-2.019v-0.2687h1.344q0 1.847 1.371 1.847 0.7235 0 1.109-0.4065t0.3858-1.723v-6.938h1.337z"/>
            <path d="m288.9 144.6h-1.764l-3.583-5.037-1.571 1.537v3.5h-1.337v-10.1h1.337v5.009l4.926-5.009h1.805l-4.231 4.148z"/>
            <path d="m330 144.6h-6.249v-10.1h1.337v8.902h4.913z"/>
            <path d="m368.4 144.6q0 0.9026-0.3583 1.447-0.3583 0.5443-1.054 0.5443v-0.6615q0.6959 0 0.6959-1.33h-0.6959v-1.412h1.412zm0-5.898h-1.412v-1.412h1.412z"/>
            <path d="m410.9 136.2-0.3101 1.936h-0.7648l-0.3376-1.936v-1.647h1.412z"/>
            <path d="m7.835 187.9h-7.986v-1.254l6.277-7.648h-5.698v-1.199h7.235v1.254l-6.277 7.648h6.449z"/>
            <path d="m52.03 187.9h-1.64l-2.99-4.279-3.004 4.279h-1.64l3.879-5.319-3.493-4.782h1.633l2.611 3.734 2.625-3.734h1.633l-3.507 4.782z"/>
            <path d="m91.15 188.1q-2.143 0-3.424-1.406-1.275-1.412-1.275-3.817 0-2.405 1.275-3.81 1.282-1.412 3.424-1.412 1.647 0 2.804 0.8888 1.158 0.8888 1.302 2.343h-1.378q-0.08268-0.9577-0.8337-1.523-0.7441-0.565-1.881-0.565-1.537 0-2.432 1.061-0.8957 1.054-0.8957 3.018 0 1.957 0.8888 3.018t2.412 1.061q1.185 0 1.915-0.5788 0.7304-0.5788 0.8268-1.654h1.378q-0.1447 1.612-1.268 2.494-1.123 0.8819-2.839 0.8819z"/>
            <path d="m138.2 177.8-3.927 10.1h-1.378l-3.927-10.1h1.426l3.19 8.661 3.19-8.661z"/>
            <path d="m180.7 185q0 1.419-0.9646 2.177t-2.804 0.7579h-3.783v-10.1h3.597q1.612 0 2.536 0.689 0.9233 0.689 0.9233 1.888 0 1.461-1.454 2.164 0.9784 0.248 1.461 0.9164 0.4892 0.6615 0.4892 1.509zm-6.215-2.935h2.246q1.109 0 1.633-0.3514 0.5237-0.3583 0.5237-1.185 0-0.7441-0.5099-1.116-0.5099-0.379-1.771-0.379h-2.122zm0 4.672h2.432q2.398 0 2.398-1.736 0-0.9026-0.5581-1.316-0.5512-0.4203-2.012-0.4203h-2.26z"/>
            <path d="m224.1 187.9h-1.371l-5.292-7.972v7.972h-1.268v-10.1h1.364l5.292 7.972v-7.972h1.275z"/>
            <path d="m268.8 187.9h-1.268v-8.592l-2.88 8.592h-1.199l-2.88-8.592v8.592h-1.268v-10.1h2.005l2.735 8.42 2.749-8.42h2.005z"/>
            <path d="m303.9 187.9q0 0.9026-0.3583 1.447-0.3583 0.5443-1.054 0.5443v-0.6615q0.6959 0 0.6959-1.33h-0.6959v-1.412h1.412z"/>
            <path d="m347 187.9h-1.412v-1.412h1.412z"/>
            <path d="m391.4 177.8-2.921 10.1h-0.9991l2.921-10.1z"/>
            <text x="52.55838" y="117.01366" fill="#000000" font-family="sans-serif" font-size="10.58px" style="line-height:1.25" xml:space="preserve">
                <tspan x="52.55838" y="117.01366" stroke-width=".5">👀</tspan>
            </text>
        </g>
        <g fill="#fff" stroke="#000" stroke-linecap="round" stroke-linejoin="round" stroke-width=".5">
            <path d="m-98.5 216.6h31.14c4.432 0 8 3.568 8 8v21.31c0 4.432-3.568 8-8 8h-31.14c-4.432 0-8-3.568-8-8v-21.31c0-4.432 3.568-8 8-8z"/>
            <path d="m-45.67 216.6h31.14c4.432 0 8 3.568 8 8v21.31c0 4.432-3.568 8-8 8h-31.14c-4.432 0-8-3.568-8-8v-21.31c0-4.432 3.568-8 8-8z"/>
            <path d="m6.546 216.6h31.14c4.432 0 8 3.568 8 8v21.31c0 4.432-3.568 8-8 8h-31.14c-4.432 0-8-3.568-8-8v-21.31c0-4.432 3.568-8 8-8z"/>
            <path d="m59.07 216.6h290.4c4.432 0 8 3.568 8 8v21.31c0 4.432-3.568 8-8 8h-290.4c-4.432 0-8-3.568-8-8v-21.31c0-4.432 3.568-8 8-8z"/>
            <path d="m480.2 216.6h31.14c4.432 0 8 3.568 8 8v21.31c0 4.432-3.568 8-8 8h-31.14c-4.432 0-8-3.568-8-8v-21.31c0-4.432 3.568-8 8-8z"/>
            <path d="m427 216.6h31.14c4.432 0 8 3.568 8 8v21.31c0 4.432-3.568 8-8 8h-31.14c-4.432 0-8-3.568-8-8v-21.31c0-4.432 3.568-8 8-8z"/>
            <path d="m373.6 216.6h31.14c4.432 0 8 3.568 8 8v21.31c0 4.432-3.568 8-8 8h-31.14c-4.432 0-8-3.568-8-8v-21.31c0-4.432 3.568-8 8-8z"/>
        </g>
        <g stroke-width=".5" aria-label="Alt (aka Option) (hold this)">
            <path d="m12.42 234.1h-1.09l-0.7545-2.145h-3.328l-0.7545 2.145h-1.039l2.801-7.695h1.364zm-2.16-3.023-1.349-3.778-1.354 3.778z"/>
            <path d="m14.5 234.1h-0.9715v-8.041h0.9715z"/>
            <path d="m19.42 234q-0.2739 0.0724-0.5994 0.1189-0.3204 0.0465-0.5736 0.0465-0.8837 0-1.344-0.4754-0.4599-0.4754-0.4599-1.524v-3.07h-0.6563v-0.8165h0.6563v-1.659h0.9715v1.659h2.005v0.8165h-2.005v2.63q0 0.4548 0.02067 0.7131 0.02067 0.2532 0.1447 0.4754 0.1137 0.2067 0.3101 0.3049 0.2015 0.093 0.6098 0.093 0.2377 0 0.4961-0.0672 0.2584-0.0724 0.3721-0.1189h0.05168z"/>
            <path d="m7.483 243.6h-0.6311q-0.4878-0.5595-0.7579-1.221t-0.2701-1.491q0-0.8296 0.2701-1.491t0.7579-1.221h0.6311v0.0276q-0.2232 0.2012-0.4272 0.4658-0.2012 0.2618-0.3748 0.6118-0.1654 0.339-0.2701 0.7469-0.102 0.4079-0.102 0.8599 0 0.4713 0.09922 0.8627 0.102 0.3914 0.2729 0.7441 0.1654 0.339 0.3776 0.6118 0.2122 0.2756 0.4244 0.4658z"/>
            <path d="m10.79 242.5h-0.5154v-0.328q-0.0689 0.0469-0.1874 0.1323-0.1158 0.0827-0.226 0.1323-0.1295 0.0634-0.2977 0.1047-0.1681 0.0441-0.3941 0.0441-0.4162 0-0.7056-0.2756t-0.2894-0.7028q0-0.35 0.1488-0.565 0.1516-0.2177 0.4299-0.3418 0.2811-0.124 0.6752-0.1681 0.3941-0.0441 0.8461-0.0661v-0.0799q0-0.1764-0.06339-0.2921-0.06063-0.1158-0.1764-0.1819-0.1102-0.0634-0.5-0.0854-0.1543-0.022-0.3225-0.022-0.2039 0-0.4548 0.0551-0.2508 0.0524-0.5181 0.1543h-0.02756v-0.5264q0.1516-0.0413 0.4382-0.0909t0.565-0.0496q0.3252 0 0.565 0.0551 0.2425 0.0524 0.4189 0.1819 0.1736 0.1268 0.5 0.328 0.09095 0.2012 0.09095 0.4988zm-0.5154-0.7579v-0.8571q-0.237 0.0138-0.5595 0.0413-0.3197 0.0276-0.5071 0.0799-0.2232 0.0634-0.361 0.1984-0.1378 0.1323-0.1378 0.3666 0 0.5 0.1599 0.3996 0.1599 0.1323 0.4878 0.1323 0.2729 0 0.4988-0.1047 0.226-0.1075 0.4189-0.2563z"/>
            <path d="m14.58 242.5h-0.6835l-1.235-1.348-0.3362 0.3197v1.028h-0.5181v-4.288h0.5181v2.751l1.497-1.541h0.6532l-1.43 1.422z"/>
            <path d="m17.52 242.5h-0.5154v-0.328q-0.0689 0.0469-0.1874 0.1323-0.1158 0.0827-0.226 0.1323-0.1295 0.0634-0.2977 0.1047-0.1681 0.0441-0.3941 0.0441-0.4162 0-0.7056-0.2756-0.2894-0.2756-0.2894-0.7028 0-0.35 0.1488-0.565 0.1516-0.2177 0.4299-0.3418 0.2811-0.124 0.6752-0.1681 0.3941-0.0441 0.8461-0.0661v-0.0799q0-0.1764-0.06339-0.2921-0.06063-0.1158-0.1764-0.1819-0.1102-0.0634-0.5-0.0854t-0.3225-0.022q-0.2039 0-0.4548 0.0551-0.2508 0.0524-0.5181 0.1543h-0.02756v-0.5264q0.1516-0.0413 0.4382-0.0909t0.565-0.0496q0.3252 0 0.565 0.0551 0.2425 0.0524 0.4189 0.1819 0.1736 0.1268 0.5 0.328 0.09095 0.2012 0.09095 0.4988zm-0.5154-0.7579v-0.8571q-0.237 0.0138-0.5595 0.0413-0.3197 0.0276-0.5071 0.0799-0.2232 0.0634-0.361 0.1984-0.1378 0.1323-0.1378 0.3666 0 0.5 0.1599 0.3996 0.1599 0.1323 0.4878 0.1323 0.2729 0 0.4988-0.1047 0.226-0.1075 0.4189-0.2563z"/>
            <path d="m23.6 238.9q0.2508 0.2756 0.3831 0.6752 0.135 0.3996 0.135 0.9068t-0.1378 0.9095q-0.135 0.3996-0.3803 0.667-0.2536 0.2784-0.6008 0.4189-0.3445 0.1406-0.7882 0.1406-0.4327 0-0.7882-0.1433-0.3528-0.1433-0.6008-0.4162-0.248-0.2728-0.3831-0.6697-0.1323-0.3969-0.1323-0.9068 0-0.5016 0.1323-0.8985 0.1323-0.3996 0.3858-0.6835 0.2425-0.2701 0.6008-0.4134 0.361-0.1433 0.7855-0.1433 0.441 0 0.791 0.1461 0.3528 0.1433 0.5981 0.4106zm-0.04961 1.582q0-0.7993-0.3583-1.232-0.3583-0.4355-0.9784-0.4355-0.6256 0-0.9839 0.4355-0.3555 0.4327-0.3555 1.232 0 0.8075 0.3638 1.237 0.3638 0.4272 0.9756 0.4272 0.6118 0 0.9729-0.4272 0.3638-0.43 0.3638-1.237z"/>
            <path d="m27.65 240.9q0 0.3748-0.1075 0.6863-0.1075 0.3087-0.3032 0.5236-0.1819 0.204-0.4299 0.317-0.2453 0.1102-0.5209 0.1102-0.2398 0-0.4355-0.0524-0.1929-0.0524-0.3941-0.1626v1.29h-0.5181v-4.214h0.5181v0.3225q0.2067-0.1736 0.463-0.2894 0.2591-0.1185 0.5512-0.1185 0.5567 0 0.8654 0.4217 0.3114 0.4189 0.3114 1.166zm-0.5347 0.0138q0-0.5567-0.1902-0.8323t-0.5843-0.2756q-0.2232 0-0.4492 0.0965t-0.4327 0.2536v1.745q0.2205 0.0992 0.3776 0.135 0.1599 0.0358 0.361 0.0358 0.4327 0 0.6752-0.2922 0.2425-0.2921 0.2425-0.8654z"/>
            <path d="m30.06 242.5q-0.1461 0.0386-0.3197 0.0634-0.1709 0.0248-0.3059 0.0248-0.4713 0-0.7166-0.2536-0.2453-0.2536-0.2453-0.813v-1.637h-0.35v-0.4355h0.35v-0.8847h0.5181v0.8847h1.069v0.4355h-1.069v1.403q0 0.2425 0.01102 0.3803 0.01103 0.135 0.07717 0.2536 0.06063 0.1102 0.1654 0.1626 0.1075 0.0496 0.3252 0.0496 0.1268 0 0.5-0.0358 0.1378-0.0386 0.1984-0.0634h0.02756z"/>
            <path d="m31.24 238.9h-0.5843v-0.5374h0.5843zm-0.03307 3.594h-0.5181v-3.079h0.5181z"/>
            <path d="m34.86 241q0 0.7524-0.3858 1.188-0.3859 0.4355-1.034 0.4355-0.6532 0-1.039-0.4355-0.3831-0.4355-0.3831-1.188t0.3831-1.188q0.3858-0.4382 1.039-0.4382 0.6477 0 1.034 0.4382 0.3858 0.4355 0.3858 1.188zm-0.5347 0q0-0.5981-0.2343-0.8875-0.2343-0.2921-0.6504-0.2921-0.4217 0-0.6559 0.2921-0.2315 0.2894-0.2315 0.8875 0 0.5788 0.2343 0.8792 0.2343 0.2976 0.6532 0.2976 0.4134 0 0.6477-0.2949 0.237-0.2976 0.237-0.8819z"/>
            <path d="m38.23 242.5h-0.5181v-1.753q0-0.2122-0.0248-0.3969-0.02481-0.1874-0.09095-0.2921-0.0689-0.1158-0.1984-0.1709-0.1295-0.0579-0.3362-0.0579-0.2122 0-0.4437 0.1047-0.2315 0.1047-0.4437 0.2673v2.299h-0.5181v-3.079h0.5181v0.3418q0.2425-0.2012 0.5016-0.3142 0.2591-0.113 0.5319-0.113 0.4988 0 0.7607 0.3004t0.2618 0.8654z"/>
            <path d="m40.79 240.9q0 0.8296-0.2701 1.491t-0.7579 1.221h-0.6311v-0.0276q0.2122-0.1902 0.4244-0.4658 0.215-0.2728 0.3776-0.6118 0.1709-0.3528 0.2701-0.7441 0.102-0.3914 0.102-0.8627 0-0.452-0.102-0.8599-0.102-0.4079-0.2701-0.7469-0.1736-0.35-0.3776-0.6118-0.2012-0.5-0.4244-0.4658v-0.0276h0.6311q0.4878 0.5595 0.7579 1.221t0.2701 1.491z"/>
            <path d="m7.483 250.1h-0.6311q-0.4878-0.5595-0.7579-1.221-0.2701-0.6615-0.2701-1.491t0.2701-1.491q0.2701-0.6614 0.7579-1.221h0.6311v0.0276q-0.2232 0.2012-0.4272 0.4658-0.2012 0.2618-0.3748 0.6118-0.1654 0.339-0.2701 0.7469-0.102 0.4079-0.102 0.8599 0 0.4713 0.09922 0.8626 0.102 0.3914 0.2729 0.7441 0.1654 0.339 0.3776 0.6118 0.2122 0.2756 0.4244 0.4658z"/>
            <path d="m10.97 249h-0.5181v-1.753q0-0.2122-0.02481-0.3969-0.0248-0.1874-0.09095-0.2922-0.0689-0.1158-0.1984-0.1709-0.1295-0.0579-0.3362-0.0579-0.2122 0-0.4437 0.1047-0.2315 0.1047-0.4437 0.2673v2.299h-0.5181v-4.288h0.5181v1.552q0.2425-0.2012 0.5016-0.3142 0.2591-0.113 0.5319-0.113 0.4988 0 0.7607 0.3004 0.2618 0.3004 0.2618 0.8654z"/>
            <path d="m14.59 247.4q0 0.7524-0.3858 1.188-0.3859 0.4355-1.034 0.4355-0.6532 0-1.039-0.4355-0.3831-0.4355-0.3831-1.188 0-0.7524 0.3831-1.188 0.3858-0.4382 1.039-0.4382 0.6477 0 1.034 0.4382 0.3858 0.4355 0.3858 1.188zm-0.5347 0q0-0.5981-0.2343-0.8875-0.2343-0.2921-0.6504-0.2921-0.4217 0-0.6559 0.2921-0.2315 0.2894-0.2315 0.8875 0 0.5788 0.2343 0.8792 0.2343 0.2977 0.6532 0.2977 0.4134 0 0.6477-0.2949 0.237-0.2977 0.237-0.8819z"/>
            <path d="m15.92 249h-0.5181v-4.288h0.5181z"/>
            <path d="m19.44 249h-0.5181v-0.3225q-0.2232 0.1929-0.4658 0.3004-0.2425 0.1075-0.5264 0.1075-0.5512 0-0.8764-0.4244-0.3225-0.4244-0.3225-1.177 0-0.3914 0.1102-0.6973 0.113-0.3059 0.3032-0.5209 0.1874-0.2095 0.4355-0.3197 0.2508-0.1102 0.5181-0.1102 0.2425 0 0.4299 0.0524 0.1874 0.0496 0.3941 0.1571v-1.334h0.5181zm-0.5181-0.7579v-1.767q-0.2095-0.0937-0.3748-0.1295-0.1654-0.0358-0.361-0.0358-0.4355 0-0.678 0.3032-0.2425 0.3032-0.2425 0.8599 0 0.5485 0.1874 0.8351 0.1874 0.2839 0.6008 0.2839 0.2205 0 0.4465-0.0965 0.226-0.0992 0.4217-0.2536z"/>
            <path d="m24.04 249q-0.1461 0.0386-0.3197 0.0634-0.1709 0.0248-0.3059 0.0248-0.4713 0-0.7166-0.2536-0.2453-0.2536-0.2453-0.813v-1.637h-0.35v-0.4355h0.35v-0.8847h0.5181v0.8847h1.069v0.4355h-1.069v1.403q0 0.2425 0.01103 0.3803 0.01102 0.135 0.07717 0.2536 0.06063 0.1102 0.1654 0.1626 0.1075 0.0496 0.3252 0.0496 0.1268 0 0.5-0.0358 0.1378-0.0386 0.1984-0.0634h0.02756z"/>
            <path d="m27.24 249h-0.5181v-1.753q0-0.2122-0.02481-0.3969-0.0248-0.1874-0.09095-0.2922-0.0689-0.1158-0.1984-0.1709-0.1295-0.0579-0.3362-0.0579-0.2122 0-0.4437 0.1047-0.2315 0.1047-0.4437 0.2673v2.299h-0.5181v-4.288h0.5181v1.552q0.2425-0.2012 0.5016-0.3142t0.5319-0.113q0.4988 0 0.7607 0.3004 0.2618 0.3004 0.2618 0.8654z"/>
            <path d="m28.8 245.4h-0.5843v-0.5374h0.5843zm-0.03307 3.594h-0.5181v-3.079h0.5181z"/>
            <path d="m31.99 248.1q0 0.4217-0.35 0.6918-0.3473 0.2701-0.9508 0.2701-0.3418 0-0.6284-0.0799-0.2839-0.0827-0.4768-0.1791v-0.5815h0.02756q0.2453 0.1846 0.5457 0.2949 0.3004 0.1075 0.576 0.1075 0.3418 0 0.5347-0.1102t0.1929-0.3473q0-0.1819-0.1047-0.2756-0.1047-0.0937-0.4024-0.1598-0.1102-0.0248-0.2894-0.0579-0.1764-0.0331-0.3225-0.0717-0.4051-0.1075-0.576-0.3142-0.1681-0.2095-0.1681-0.5126 0-0.1902 0.07717-0.3583 0.07993-0.1681 0.2398-0.3004 0.1543-0.1295 0.3914-0.204 0.2398-0.0772 0.5347-0.0772 0.2756 0 0.5567 0.0689 0.2839 0.0661 0.4713 0.1626v0.554h-0.02756q-0.1984-0.1461-0.4823-0.2453-0.2839-0.102-0.5567-0.102-0.2839 0-0.4796 0.1102-0.1957 0.1075-0.1957 0.3225 0 0.1902 0.1185 0.2866 0.1158 0.0965 0.3748 0.1571 0.1433 0.0331 0.3197 0.0661 0.1791 0.0331 0.2977 0.0606 0.361 0.0827 0.5567 0.2839 0.1957 0.204 0.1957 0.5402z"/>
            <path d="m34.29 247.4q0 0.8296-0.2701 1.491-0.2701 0.6614-0.7579 1.221h-0.6311v-0.0276q0.2122-0.1902 0.4244-0.4658 0.215-0.2728 0.3776-0.6118 0.1709-0.3528 0.2701-0.7441 0.102-0.3914 0.102-0.8626 0-0.452-0.102-0.8599-0.102-0.4079-0.2701-0.7469-0.1736-0.35-0.3776-0.6118-0.2012-0.5-0.4244-0.4658v-0.0276h0.6311q0.4878 0.5595 0.7579 1.221 0.2701 0.6615 0.2701 1.491z"/>
        </g>
        <text x="36.10252" y="162.08917" font-family="'Segoe UI Emoji'" font-size="10.58px" style="line-height:1.25" xml:space="preserve">
            <tspan x="36.10252" y="162.08917" font-family="'Segoe UI Emoji'" font-size="10.58px" stroke-width=".5" style="font-variant-caps:normal;font-variant-east-asian:normal;font-variant-ligatures:normal;font-variant-numeric:normal">🤝</tspan>
        </text>
        <g font-family="sans-serif" font-size="10.58px" letter-spacing="0px" stroke-width=".5" word-spacing="0px">
            <text x="143.56595" y="117.19969" style="line-height:1.25" xml:space="preserve">
                <tspan x="143.56595" y="117.19969" stroke-width=".5">👍</tspan>
            </text>
            <text x="356.12485" y="117.75779" style="line-height:1.55" xml:space="preserve">
                <tspan x="356.12485" y="117.75779" stroke-width=".5">😔</tspan>
            </text>
            <text x="120.11014" y="162.08917" style="line-height:1.65" xml:space="preserve">
                <tspan x="120.11014" y="162.08917" stroke-width=".5">😳</tspan>
            </text>
            <text x="338.16226" y="162.08917" style="line-height:1.65" xml:space="preserve">
                <tspan x="338.16226" y="162.08917" stroke-width=".5">🥺</tspan>
            </text>
            <text x="100.63815" y="204.09836" style="line-height:1.55" xml:space="preserve">
                <tspan x="100.63815" y="204.09836" stroke-width=".5">🤡</tspan>
            </text>
            <text x="79.931213" y="162.46124" style="line-height:1.55" xml:space="preserve">
                <tspan x="79.931213" y="162.46124" stroke-width=".5">💀</tspan>
            </text>
        </g>
        <text x="232.61113" y="117.75779" font-family="'Segoe UI Emoji'" font-size="10.58px" letter-spacing="0px" stroke-width=".5" word-spacing="0px" style="font-variant-caps:normal;font-variant-east-asian:normal;font-variant-ligatures:normal;font-variant-numeric:normal;line-height:1.65" xml:space="preserve">
            <tspan x="232.61113" y="117.75779" font-family="'Segoe UI Emoji'" font-size="10.58px" stroke-width=".5" style="font-variant-caps:normal;font-variant-east-asian:normal;font-variant-ligatures:normal;font-variant-numeric:normal">☝</tspan>
        </text>
        <g font-family="sans-serif" font-size="10.58px" letter-spacing="0px" stroke-width=".5" word-spacing="0px">
            <text x="133.14113" y="114.62973" style="line-height:1.25" xml:space="preserve">
                <tspan stroke-width=".5"/>
            </text>
            <text x="9.5637865" y="117.75779" style="line-height:1.25" xml:space="preserve">
                <tspan x="9.5637865" y="117.75779" stroke-width=".5">👋</tspan>
            </text>
            <text x="96.002777" y="117.57176" style="line-height:1.25" xml:space="preserve">
                <tspan x="96.002777" y="117.57176" stroke-width=".5">🌈</tspan>
            </text>
        </g>
        <text x="209.3725" y="162.26143" font-family="'Segoe UI Emoji'" font-size="10.58px" letter-spacing="0px" stroke-width=".5" word-spacing="0px" style="font-variant-caps:normal;font-variant-east-asian:normal;font-variant-ligatures:normal;font-variant-numeric:normal;line-height:1.25" xml:space="preserve">
            <tspan x="209.3725" y="162.26143" font-family="'Segoe UI Emoji'" font-size="10.58px" stroke-width=".5" style="font-variant-caps:normal;font-variant-east-asian:normal;font-variant-ligatures:normal;font-variant-numeric:normal">❤</tspan>
        </text>
        <text x="-8.6796207" y="162.08917" font-family="sans-serif" font-size="10.58px" letter-spacing="0px" stroke-width=".5" word-spacing="0px" style="line-height:1.55" xml:space="preserve">
            <tspan x="-8.6796207" y="162.08917" stroke-width=".5">😩</tspan>
        </text>
    </g>
</svg>
