<svg xmlns="http://www.w3.org/2000/svg" xmlns:xlink="http://www.w3.org/1999/xlink" viewBox="0 -0.5 21 21" shape-rendering="crispEdges" version="1.1" id="svg2087"><defs id="defs2091"><linearGradient id="linearGradient2140"><stop offset="0" id="stop2136" stop-color="#5282f6" stop-opacity="1"/><stop offset="1" id="stop2138" stop-color="#2577f7" stop-opacity="1"/></linearGradient><linearGradient xlink:href="#linearGradient2140" id="linearGradient2142" x1="4.995607" y1="12.489536" x2="12.042912" y2="15.506058" gradientUnits="userSpaceOnUse"/></defs><path stroke="#6696eb" d="M1 0h1m17 0h1" id="path1455"/><path stroke="#e5edfb" d="M2 0h1" id="path1457"/><path d="M3 0h16M0 2h1M0 3h1m19 0h1M0 4h1m19 0h1M0 5h1m19 0h1M0 6h1m19 0h1M0 7h1m19 0h1M0 8h1m19 0h1M0 9h1m19 0h1M0 10h1m19 0h1M0 11h1m19 0h1M0 12h1m19 0h1M0 13h1m4 0h7m8 0h1M0 14h1m4 0h7m8 0h1M0 15h1m4 0h7m8 0h1M0 16h1m19 0h1M0 17h1m19 0h1m-1 1h1M2 20h16" id="path1459" stroke="#fff"/><path stroke="#6693e9" d="M0 1h1m19 0h1" id="path1461"/><path stroke="#dce5fd" d="M1 1h1" id="path1463"/><path stroke="#739af8" d="M2 1h1" id="path1465"/><path stroke="#608cf7" d="M3 1h1M2 8h1" id="path1467"/><path stroke="#5584f6" d="M4 1h1" id="path1469"/><path stroke="#4d7ef6" d="M5 1h1M1 6h1m5 4h1" id="path1471"/><path stroke="#487af5" d="M6 1h1" id="path1473"/><path stroke="#4276f5" d="M7 1h1M3 14h1" id="path1475"/><path stroke="#4478f5" d="M8 1h1m5 3h1M2 12h1" id="path1477"/><path stroke="#3e73f5" d="M9 1h2" id="path1479"/><path stroke="#3b71f5" d="M11 1h2" id="path1481"/><path stroke="#336cf4" d="M13 1h2" id="path1483"/><path stroke="#306af4" d="M15 1h1" id="path1485"/><path stroke="#2864f4" d="M16 1h1" id="path1487"/><path stroke="#1f5def" d="M17 1h1" id="path1489"/><path stroke="#3467e0" d="M18 1h1" id="path1491"/><path stroke="#d2dbf2" d="M19 1h1" id="path1493"/><path stroke="#769cf8" d="M1 2h1" id="path1495"/><path stroke="#90aff9" d="M2 2h1" id="path1497"/><path stroke="#94b2f9" d="M3 2h1" id="path1499"/><path stroke="#85a7f8" d="M4 2h1" id="path1501"/><path stroke="#759cf8" d="M5 2h1" id="path1503"/><path stroke="#6e97f8" d="M6 2h1M2 6h1" id="path1505"/><path stroke="#6892f7" d="M7 2h1" id="path1507"/><path stroke="#6690f7" d="M8 2h1" id="path1509"/><path stroke="#628ef7" d="M9 2h1m0 1h1" id="path1511"/><path stroke="#5f8cf7" d="M10 2h1" id="path1513"/><path stroke="#5e8bf7" d="M11 2h1" id="path1515"/><path stroke="#5988f6" d="M12 2h1" id="path1517"/><path stroke="#5685f6" d="M13 2h1" id="path1519"/><path stroke="#5082f6" d="M14 2h1" id="path1521"/><path stroke="#497cf5" d="M15 2h1" id="path1523"/><path stroke="#3f75f5" d="M16 2h1m-2 2h1" id="path1525"/><path stroke="#326bf2" d="M17 2h1" id="path1527"/><path stroke="#235ce3" d="M18 2h1" id="path1529"/><path stroke="#305cc5" d="M19 2h1" id="path1531"/><path stroke="#e5ecfb" d="M20 2h1" id="path1533"/><path stroke="#6590f7" d="M1 3h1" id="path1535"/><path stroke="#97b4f9" d="M2 3h1" id="path1537"/><path stroke="#9ab7fa" d="M3 3h1" id="path1539"/><path stroke="#89aaf9" d="M4 3h1M2 4h1" id="path1541"/><path stroke="#7aa0f8" d="M5 3h1" id="path1543"/><path stroke="#729af8" d="M6 3h1" id="path1545"/><path stroke="#6d95f8" d="M7 3h1" id="path1547"/><path stroke="#6892f8" d="M8 3h1M2 7h1" id="path1549"/><path stroke="#658ff7" d="M9 3h1" id="path1551"/><path stroke="#618df7" d="M11 3h1" id="path1553"/><path stroke="#5d8af7" d="M12 3h1M3 9h1" id="path1555"/><path stroke="#5987f6" d="M13 3h1M2 9h1" id="path1557"/><path stroke="#5283f6" d="M14 3h1" id="path1559"/><path stroke="#4c7ef6" d="M15 3h1" id="path1561"/><path stroke="#4377f5" d="M16 3h1" id="path1563"/><path stroke="#376ef2" d="M17 3h1" id="path1565"/><path stroke="#285fe3" d="M18 3h1" id="path1567"/><path stroke="#1546b9" d="M19 3h1" id="path1569"/><path stroke="#5886f6" d="M1 4h1" id="path1571"/><path stroke="#8dadf9" d="M3 4h1" id="path1573"/><path stroke="#7fa3f8" d="M4 4h1" id="path1575"/><path stroke="#7199f8" d="M5 4h1M4 5h1" id="path1577"/><path stroke="#6a93f8" d="M6 4h1M4 6h1M3 7h1" id="path1579"/><path stroke="#648ef7" d="M7 4h1" id="path1581"/><path stroke="#5e8af7" d="M8 4h1" id="path1583"/><path stroke="#5986f7" d="M9 4h1M5 9h1m-2 1h1" id="path1585"/><path stroke="#5482f6" d="M10 4h1" id="path1587"/><path stroke="#5180f6" d="M11 4h1" id="path1589"/><path stroke="#4b7cf5" d="M12 4h1" id="path1591"/><path stroke="#4a7cf5" d="M13 4h1" id="path1593"/><path stroke="#3a72f4" d="M16 4h1" id="path1595"/><path stroke="#346cf2" d="M17 4h1" id="path1597"/><path stroke="#2a61e3" d="M18 4h1" id="path1599"/><path stroke="#1848bb" d="M19 4h1" id="path1601"/><path stroke="#5282f6" d="M1 5h1m4 6h1m-3 1h1" id="path1603"/><path stroke="#799ff8" d="M2 5h1" id="path1605"/><path stroke="#7ca1f8" d="M3 5h1" id="path1607"/><path stroke="#6791f8" d="M5 5h1" id="path1609"/><path stroke="#608bf7" d="M6 5h1M4 8h1" id="path1611"/><path stroke="#5985f7" d="M7 5h1" id="path1613"/><path stroke="#5381f6" d="M8 5h1M6 9h1" id="path1615"/><path stroke="#4d7bf6" d="M9 5h1M8 6h1" id="path1617"/><path stroke="#4677f5" d="M10 5h1" id="path1619"/><path stroke="#4173f5" d="M11 5h1" id="path1621"/><path stroke="#3a6ff4" d="M12 5h1" id="path1623"/><path stroke="#386ef4" d="M13 5h1" id="path1625"/><path stroke="#346cf4" d="M14 5h1" id="path1627"/><path stroke="#326cf4" d="M15 5h1" id="path1629"/><path stroke="#316bf4" d="M16 5h1M3 16h1" id="path1631"/><path stroke="#3069f1" d="M17 5h1" id="path1633"/><path stroke="#2c62e4" d="M18 5h1" id="path1635"/><path stroke="#1d4cbc" d="M19 5h1m-1 1h1" id="path1637"/><path stroke="#7099f8" d="M3 6h1" id="path1639"/><path stroke="#628cf8" d="M5 6h1" id="path1641"/><path stroke="#5b86f7" d="M6 6h1" id="path1643"/><path stroke="#5480f7" d="M7 6h1" id="path1645"/><path stroke="#4777f6" d="M9 6h1" id="path1647"/><path stroke="#4072f5" d="M10 6h1" id="path1649"/><path stroke="#3a6ff5" d="M11 6h1" id="path1651"/><path stroke="#346df4" d="M12 6h1" id="path1653"/><path stroke="#306bf4" d="M13 6h1" id="path1655"/><path stroke="#2d69f4" d="M14 6h1" id="path1657"/><path stroke="#2c69f5" d="M15 6h1" id="path1659"/><path stroke="#2d69f5" d="M16 6h1" id="path1661"/><path stroke="#2e69f2" d="M17 6h1" id="path1663"/><path stroke="#2c63e5" d="M18 6h1" id="path1665"/><path stroke="#4679f5" d="M1 7h1M1 8h1" id="path1667"/><path stroke="#658ff8" d="M4 7h1" id="path1669"/><path stroke="#5e89f7" d="M5 7h1" id="path1671"/><path stroke="#5783f7" d="M6 7h1" id="path1673"/><path stroke="#507ef6" d="M7 7h1" id="path1675"/><path stroke="#4a79f6" d="M8 7h1" id="path1677"/><path stroke="#4375f5" d="M9 7h1" id="path1679"/><path stroke="#3d71f5" d="M10 7h1" id="path1681"/><path stroke="#366ef4" d="M11 7h1M2 14h1" id="path1683"/><path stroke="#2f6bf5" d="M12 7h1" id="path1685"/><path stroke="#2b69f5" d="M13 7h1" id="path1687"/><path stroke="#2867f5" d="M14 7h1" id="path1689"/><path stroke="#2766f5" d="M15 7h1" id="path1691"/><path stroke="#2a68f5" d="M16 7h1" id="path1693"/><path stroke="#2c69f2" d="M17 7h1" id="path1695"/><path stroke="#2a62e4" d="M18 7h1" id="path1697"/><path stroke="#1c4cbd" d="M19 7h1" id="path1699"/><path stroke="#628df8" d="M3 8h1" id="path1701"/><path stroke="#5b87f7" d="M5 8h1" id="path1703"/><path stroke="#5482f7" d="M6 8h1" id="path1705"/><path stroke="#4e7cf6" d="M7 8h1" id="path1707"/><path stroke="#4778f6" d="M8 8h1" id="path1709"/><path stroke="#4174f5" d="M9 8h1" id="path1711"/><path stroke="#3a71f5" d="M10 8h1" id="path1713"/><path stroke="#346ef4" d="M11 8h1" id="path1715"/><path stroke="#2d6bf5" d="M12 8h1" id="path1717"/><path stroke="#2869f5" d="M13 8h1" id="path1719"/><path stroke="#2467f5" d="M14 8h1" id="path1721"/><path stroke="#2266f5" d="M15 8h1" id="path1723"/><path stroke="#2567f5" d="M16 8h1" id="path1725"/><path stroke="#2968f2" d="M17 8h1" id="path1727"/><path stroke="#2963e4" d="M18 8h1" id="path1729"/><path stroke="#1b4bbd" d="M19 8h1" id="path1731"/><path stroke="#3c72f4" d="M1 9h1" id="path1733"/><path stroke="#5d89f7" d="M4 9h1" id="path1735"/><path stroke="#4e7ef6" d="M7 9h1" id="path1737"/><path stroke="#477af5" d="M8 9h1" id="path1739"/><path stroke="#4178f5" d="M9 9h1" id="path1741"/><path stroke="#3a74f5" d="M10 9h1" id="path1743"/><path stroke="#3472f5" d="M11 9h1" id="path1745"/><path stroke="#2c6ff5" d="M12 9h1" id="path1747"/><path stroke="#276cf5" d="M13 9h1" id="path1749"/><path stroke="#236af6" d="M14 9h1" id="path1751"/><path stroke="#2069f6" d="M15 9h1" id="path1753"/><path stroke="#2268f5" d="M16 9h1" id="path1755"/><path stroke="#2569f2" d="M17 9h1" id="path1757"/><path stroke="#2562e6" d="M18 9h1" id="path1759"/><path stroke="#194bbe" d="M19 9h1" id="path1761"/><path stroke="#376ef4" d="M1 10h1" id="path1763"/><path stroke="#5181f6" d="M2 10h1" id="path1765"/><path stroke="#5785f7" d="M3 10h1m1 0h1" id="path1767"/><path stroke="#5281f6" d="M6 10h1" id="path1769"/><path stroke="#477bf6" d="M8 10h1" id="path1771"/><path stroke="#4179f6" d="M9 10h1" id="path1773"/><path stroke="#3b77f5" d="M10 10h1" id="path1775"/><path stroke="#3474f5" d="M11 10h1" id="path1777"/><path stroke="#2c72f6" d="M12 10h1" id="path1779"/><path stroke="#266ff6" d="M13 10h1" id="path1781"/><path stroke="#226df6" d="M14 10h1" id="path1783"/><path stroke="#1e6bf6" d="M15 10h1" id="path1785"/><path stroke="#1f6af6" d="M16 10h1" id="path1787"/><path stroke="#216af3" d="M17 10h1" id="path1789"/><path stroke="#2162e6" d="M18 10h1" id="path1791"/><path stroke="#1649be" d="M19 10h1" id="path1793"/><path stroke="#326bf4" d="M1 11h1" id="path1795"/><path stroke="#4b7df5" d="M2 11h1" id="path1797"/><path stroke="#5483f6" d="M3 11h1" id="path1799"/><path stroke="#5684f7" d="M4 11h1" id="path1801"/><path stroke="#5583f7" d="M5 11h1" id="path1803"/><path stroke="#4d80f6" d="M7 11h1" id="path1805"/><path stroke="#487df6" d="M8 11h1" id="path1807"/><path stroke="#427cf6" d="M9 11h1" id="path1809"/><path stroke="#3c7af6" d="M10 11h1" id="path1811"/><path stroke="#3478f6" d="M11 11h1" id="path1813"/><path stroke="#2d76f6" d="M12 11h1" id="path1815"/><path stroke="#2673f7" d="M13 11h1" id="path1817"/><path stroke="#2171f7" d="M14 11h1" id="path1819"/><path stroke="#1c6ff6" d="M15 11h1" id="path1821"/><path stroke="#1c6df6" d="M16 11h1" id="path1823"/><path stroke="#1c6af4" d="M17 11h1" id="path1825"/><path stroke="#1c61e6" d="M18 11h1" id="path1827"/><path stroke="#1248bf" d="M19 11h1" id="path1829"/><path stroke="#2b66f4" d="M1 12h1" id="path1831"/><path stroke="#4e7ff6" d="M3 12h1" id="path1833"/><path stroke="#5383f6" d="M5 12h1" id="path1835"/><path stroke="#5182f6" d="M6 12h1" id="path1837"/><path stroke="#4d81f7" d="M7 12h1" id="path1839"/><path stroke="#487ff6" d="M8 12h1" id="path1841"/><path stroke="#437ff6" d="M9 12h1" id="path1843"/><path stroke="#3d7ef6" d="M10 12h1" id="path1845"/><path stroke="#357cf6" d="M11 12h1" id="path1847"/><path stroke="#2d7af7" d="M12 12h1" id="path1849"/><path stroke="#2677f7" d="M13 12h1" id="path1851"/><path stroke="#2174f7" d="M14 12h1" id="path1853"/><path stroke="#1b71f7" d="M15 12h1" id="path1855"/><path stroke="#186ef7" d="M16 12h1" id="path1857"/><path stroke="#186af4" d="M17 12h1" id="path1859"/><path stroke="#165fe7" d="M18 12h1" id="path1861"/><path stroke="#0f47c0" d="M19 12h1" id="path1863"/><path stroke="#2562f3" d="M1 13h1" id="path1865"/><path stroke="#3d73f4" d="M2 13h1" id="path1867"/><path stroke="#487bf5" d="M3 13h1" id="path1869"/><path d="M4 13h1" id="path1871" stroke="#4e80f6"/><path stroke="#2d7cf7" d="M12 13h1" id="path1873"/><path stroke="#2679f8" d="M13 13h1" id="path1875"/><path stroke="#2077f7" d="M14 13h1" id="path1877"/><path stroke="#1973f7" d="M15 13h1" id="path1879"/><path stroke="#166ff7" d="M16 13h1" id="path1881"/><path stroke="#1369f4" d="M17 13h1" id="path1883"/><path stroke="#105de8" d="M18 13h1" id="path1885"/><path stroke="#0a44bf" d="M19 13h1" id="path1887"/><path stroke="#1e5df3" d="M1 14h1" id="path1889"/><path stroke="#497bf5" d="M4 14h1" id="path1891"/><path stroke="#2d7df7" d="M12 14h1" id="path1893"/><path stroke="#257af8" d="M13 14h1" id="path1895"/><path stroke="#1e77f8" d="M14 14h1" id="path1897"/><path stroke="#1773f8" d="M15 14h1" id="path1899"/><path stroke="#116df7" d="M16 14h1" id="path1901"/><path stroke="#0d66f4" d="M17 14h1m-3 3h1" id="path1903"/><path stroke="#0b59e7" d="M18 14h1" id="path1905"/><path stroke="#0641c0" d="M19 14h1m-6 5h1" id="path1907"/><path stroke="#1859f3" d="M1 15h1" id="path1909"/><path stroke="#2e68f4" d="M2 15h1" id="path1911"/><path stroke="#3a71f4" d="M3 15h1" id="path1913"/><path stroke="#4277f5" d="M4 15h1" id="path1915"/><path stroke="#2a7cf8" d="M12 15h1" id="path1917"/><path stroke="#247af8" d="M13 15h1" id="path1919"/><path stroke="#1d77f8" d="M14 15h1" id="path1921"/><path stroke="#1573f8" d="M15 15h1" id="path1923"/><path stroke="#0e6cf8" d="M16 15h1" id="path1925"/><path stroke="#0963f4" d="M17 15h1" id="path1927"/><path stroke="#0556e7" d="M18 15h1" id="path1929"/><path stroke="#023fbf" d="M19 15h1" id="path1931"/><path stroke="#1456f3" d="M1 16h1" id="path1933"/><path stroke="#2562f4" d="M2 16h1" id="path1935"/><path stroke="#3971f4" d="M4 16h1" id="path1937"/><path stroke="#3d74f5" d="M5 16h1" id="path1939"/><path stroke="#3d74f6" d="M6 16h1" id="path1941"/><path stroke="#3b75f5" d="M7 16h1" id="path1943"/><path stroke="#3976f5" d="M8 16h1" id="path1945"/><path stroke="#3777f5" d="M9 16h1" id="path1947"/><path stroke="#3278f6" d="M10 16h1" id="path1949"/><path stroke="#2c78f7" d="M11 16h1" id="path1951"/><path stroke="#2577f7" d="M12 16h1" id="path1953"/><path stroke="#1f76f7" d="M13 16h1" id="path1955"/><path stroke="#1972f7" d="M14 16h1" id="path1957"/><path stroke="#116ef8" d="M15 16h1" id="path1959"/><path stroke="#0b68f7" d="M16 16h1" id="path1961"/><path stroke="#0560f4" d="M17 16h1" id="path1963"/><path stroke="#0253e6" d="M18 16h1" id="path1965"/><path stroke="#013dbe" d="M19 16h1" id="path1967"/><path stroke="#0e50ed" d="M1 17h1" id="path1969"/><path stroke="#1c5bef" d="M2 17h1" id="path1971"/><path stroke="#2863f0" d="M3 17h1" id="path1973"/><path stroke="#2f68f0" d="M4 17h1" id="path1975"/><path stroke="#336bf1" d="M5 17h1" id="path1977"/><path stroke="#346cf1" d="M6 17h1" id="path1979"/><path stroke="#316cf2" d="M7 17h1" id="path1981"/><path stroke="#316df2" d="M8 17h1" id="path1983"/><path stroke="#2e6ff2" d="M9 17h1" id="path1985"/><path stroke="#2a70f2" d="M10 17h1" id="path1987"/><path stroke="#2570f3" d="M11 17h1" id="path1989"/><path stroke="#1f6ff3" d="M12 17h1" id="path1991"/><path stroke="#196df4" d="M13 17h1" id="path1993"/><path stroke="#136af4" d="M14 17h1" id="path1995"/><path stroke="#0760f3" d="M16 17h1" id="path1997"/><path stroke="#025af0" d="M17 17h1" id="path1999"/><path stroke="#004de2" d="M18 17h1" id="path2001"/><path stroke="#003ab9" d="M19 17h1" id="path2003"/><path stroke="#e5eefd" d="M0 18h1" id="path2005"/><path stroke="#285edf" d="M1 18h1" id="path2007"/><path stroke="#134fdf" d="M2 18h1" id="path2009"/><path stroke="#1b55df" d="M3 18h1" id="path2011"/><path stroke="#215ae2" d="M4 18h1" id="path2013"/><path stroke="#255ce1" d="M5 18h1" id="path2015"/><path stroke="#265de0" d="M6 18h1" id="path2017"/><path stroke="#245ce1" d="M7 18h1" id="path2019"/><path stroke="#235ee2" d="M8 18h1" id="path2021"/><path stroke="#215ee2" d="M9 18h1" id="path2023"/><path stroke="#1e5ee2" d="M10 18h1" id="path2025"/><path stroke="#1b5fe5" d="M11 18h1" id="path2027"/><path stroke="#165ee5" d="M12 18h1" id="path2029"/><path stroke="#135de6" d="M13 18h1" id="path2031"/><path stroke="#0e5be5" d="M14 18h1" id="path2033"/><path stroke="#0958e6" d="M15 18h1" id="path2035"/><path stroke="#0454e6" d="M16 18h1" id="path2037"/><path stroke="#014ee2" d="M17 18h1" id="path2039"/><path stroke="#0045d3" d="M18 18h1" id="path2041"/><path stroke="#1f4eb8" d="M19 18h1" id="path2043"/><path stroke="#679ef6" d="M0 19h1m19 0h1" id="path2045"/><path stroke="#d0daf1" d="M1 19h1" id="path2047"/><path stroke="#2856c3" d="M2 19h1" id="path2049"/><path stroke="#0d3fb6" d="M3 19h1" id="path2051"/><path stroke="#1144bd" d="M4 19h1" id="path2053"/><path stroke="#1245bb" d="M5 19h1" id="path2055"/><path stroke="#1445b9" d="M6 19h1" id="path2057"/><path stroke="#1244b9" d="M7 19h1" id="path2059"/><path stroke="#1345bc" d="M8 19h1" id="path2061"/><path stroke="#1346bd" d="M9 19h1" id="path2063"/><path stroke="#1045be" d="M10 19h1" id="path2065"/><path stroke="#0d45c0" d="M11 19h1" id="path2067"/><path stroke="#0a45c1" d="M12 19h1" id="path2069"/><path stroke="#0844c3" d="M13 19h1" id="path2071"/><path stroke="#033fc0" d="M15 19h1" id="path2073"/><path stroke="#013fc3" d="M16 19h1" id="path2075"/><path stroke="#003bbe" d="M17 19h1" id="path2077"/><path stroke="#1f4eb9" d="M18 19h1" id="path2079"/><path stroke="#cfd8ed" d="M19 19h1" id="path2081"/><path stroke="#669bf5" d="M1 20h1m17 0h1" id="path2083"/><path stroke="#e5edfd" d="M18 20h1" id="path2085"/><path id="rect2134" opacity="1" fill="url(#linearGradient2142)" fill-opacity="1" stroke="none" stroke-width="3.080315" stroke-linecap="round" stroke-linejoin="miter" stroke-miterlimit="4" stroke-dasharray="none" stroke-dashoffset="0" stroke-opacity="1" d="M4.995607 12.489536h7.047304v3.016522H4.995607z"/><path id="path2146" d="M11 13h1" fill="#fff" stroke="#2d7af7"/><path id="path2148" d="M5 15h1" fill="#fff" stroke="#3d74f5"/><g id="g2130" transform="matrix(.76277 0 0 .76277 2.930448 2.317019)" fill="#fff"><path id="path2115" d="M17 17H9v2l7.847182.07148c.561075.0051 2.000363 0 2.000363 0V1.071473s-1.723251.00026-2.000327.00026l-8.000039-.000521v1.928384H17Z"/><path id="path2117" d="M7 15v-4h8V9H7V5l-6 5z"/></g></svg>