<svg xmlns="http://www.w3.org/2000/svg" width="1361.951" height="426.562" viewBox="0 0 360.349 112.861"><path style="opacity:1;fill:#caf8f8;fill-opacity:1;stroke:none;stroke-width:2.2481432;stroke-linecap:butt;stroke-linejoin:miter;stroke-miterlimit:4;stroke-dasharray:none;stroke-dashoffset:0;stroke-opacity:1" transform="skewX(-24.649) scale(1 .90888)" d="M31.465 0h328.884v75.444H31.465z"/><path style="opacity:1;fill:#159e9e;fill-opacity:1;stroke:none;stroke-width:1.10269463;stroke-linecap:butt;stroke-linejoin:miter;stroke-miterlimit:4;stroke-dasharray:none;stroke-dashoffset:0;stroke-opacity:1" transform="skewX(24.834) scale(1 .90753)" d="M49.997 86.005h155.634v38.355H49.997z"/><path style="opacity:1;fill:#11e2e2;fill-opacity:1;stroke:none;stroke-width:1.0504756;stroke-linecap:butt;stroke-linejoin:miter;stroke-miterlimit:4;stroke-dasharray:none;stroke-dashoffset:0;stroke-opacity:1" d="M79.794 74.947h155.634l16.109 34.81H95.903Z"/><path d="M48.256 162.94c-4.039-.376-9.155-1.591-12-2.85-3.24-1.432-8.857-5.821-8.533-6.666.068-.177-.69-.86-1.702-1.533-1.003-.667-2.66-2.002-3.682-2.966-1.25-1.18-1.903-1.636-1.993-1.393-.074.198-.164 3.336-.201 6.974l-.067 6.615-10.294.069c-13.747.093-16.703-.261-20.71-2.477-1.85-1.024-4.848-3.869-4.848-4.602 0-.323-.587-.814-1.76-1.47-3.22-1.8-6.11-5.334-6.951-8.5-.823-3.095-.893-5.49-1.05-36.198-.151-29.426-.187-31.222-.623-31.306-.438-.084-.465 2.116-.529 42.197l-.067 42.287-15.274.068-15.274.068-.17-.678c-.094-.373-.118-1.68-.054-2.905l.117-2.227-3.325-.073-3.326-.074-.068-48.683c-.063-45.536-.039-48.705.381-49.015.294-.216 1.438-.33 3.31-.33h2.86l.003-1.522c.002-.836.075-1.785.161-2.108.156-.582.125-.588-3.244-.662l-3.403-.074-.07-8.038c-.05-5.71.017-8.143.231-8.4.249-.3 2.988-.363 15.737-.363 14.991 0 15.445.015 15.71.512.151.281.275 1.859.275 3.506v2.994l2.218-.092c3.627-.151 3.358-.828 3.276 8.239l-.07 7.728-2.731.075c-1.822.05-2.7.172-2.635.364.108.324 6.027.325 6.354 0 .106-.106.225-3.463.264-7.46l.07-7.267H5.262l.133 3.307.132 3.308 2.778.132 2.778.132v7.938l1.058.132 1.059.132.132 3.414.132 3.413 2.303-.056c1.306-.032 2.542.072 2.856.24.49.263.785.08 2.591-1.607 4.899-4.575 10.824-7.51 17.915-8.872 3.35-.643 12.48-.649 16.007-.01 4.915.891 10.286 3.06 14.023 5.663 3.087 2.15 6.334 5.631 7.631 8.181.365.718.77 1.136 1.152 1.19.845.123 3.7 3.645 4.984 6.15.593 1.156 1.16 2.23 1.262 2.385.102.155.244-9.6.317-21.678l.132-21.96h30.692l.073 3.45.074 3.452 2.458-.107c3.577-.157 3.348-.689 3.348 7.775 0 3.846.053 6.993.117 6.993.065 0 1.166-.349 2.448-.775 5.582-1.856 12.466-1.745 17.517.282 4.458 1.79 8.815 5.627 10.396 9.158.331.74.671 1.125.996 1.125.768 0 3.63 3.325 4.655 5.406.886 1.8 1.243 3.345 1.927 8.352.15 1.097.248-6.68.272-21.465.031-19.904.091-23.23.42-23.503.521-.433 39.262-.232 43.14.223 9.178 1.076 13.859 2.724 18.082 6.364 1.866 1.609 4.44 4.776 5.226 6.432.268.566.662.993.915.993.602 0 2.63 2.214 4.044 4.413 2.706 4.213 3.959 9.232 4.412 17.68.526 9.803-.603 16.034-3.508 19.351-.862.985-4.504 3.531-5.061 3.539-.163.002-.469.113-.679.245-.308.196-.18.461.674 1.387.58.63 1.565 2.068 2.188 3.197.623 1.129 1.243 1.984 1.379 1.9.468-.29 3.31 2.759 4.362 4.68l1.04 1.897.164-10.425c.09-5.734.307-11.736.482-13.336 1.306-11.981 4.452-18.32 11.571-23.313 5.475-3.84 11.184-5.511 19.93-5.833 15.017-.552 26.505 4.449 32.427 14.117.643 1.049 1.281 1.784 1.588 1.828.282.041.901.498 1.376 1.015.475.518.921.94.992.94.071 0 .129-3.02.129-6.714 0-5.207.078-6.779.346-7.001.19-.158 1.59-.322 3.109-.363l2.762-.076.132-7.409.133-7.408H342.075l.133 3.307.132 3.308 2.778.132 2.778.132v7.938l1.059.132 1.058.132.132 3.414.132 3.413 2.303-.056c3.687-.09 3.406-.775 3.324 8.124l-.07 7.595-3.837.132-3.836.132-.068 27.848-.067 27.847h1.404c.771 0 1.546.143 1.72.318.212.21.318 1.364.318 3.44v3.121h2.33c1.448 0 2.503.126 2.783.331.411.301.446 1.025.381 8.004l-.07 7.673-9.922.08c-9.565.077-14.163-.136-16.933-.784-2.388-.559-5.433-2.284-7.264-4.115-.952-.952-1.732-1.94-1.732-2.192 0-.29-.66-.84-1.78-1.487-3.583-2.07-6.226-5.49-7.077-9.16-.35-1.506-.858-7.7-.962-11.711l-.035-1.323-.208 1.455c-.115.8-.335 2.723-.49 4.271-.784 7.885-3.056 13.112-7.853 18.075-4.187 4.331-9.277 6.822-16.917 8.277-3.333.635-14.445.63-18.256-.008-5.416-.907-9.474-2.284-12.787-4.34-2.3-1.426-4.808-3.79-4.808-4.53 0-.363-.454-.784-1.46-1.35-1.958-1.106-5.161-4.193-6.607-6.368-1.225-1.842-2.536-4.549-3.075-6.348-.402-1.34-.763-1.118-.769.473-.013 3.429-1.403 9.085-2.94 11.957-2.316 4.331-6.004 6.931-11.415 8.049-5.104 1.054-9.687 1.219-33.774 1.213-12.722-.003-23.2-.075-23.284-.159-.083-.084-.152-1.387-.152-2.895v-2.741l-3.366-.08-3.366-.08-.073 2.91-.074 2.91H129.88l-.04-2.777-.038-2.778-3.269-.133-3.268-.132-.132-36.689c-.073-20.179-.212-36.768-.31-36.866-.284-.284-.754.82-1.158 2.727-.314 1.48-.377 7.873-.384 38.946-.005 20.445-.104 37.324-.22 37.507-.167.262-3.347.318-15.011.264l-14.8-.068V155.446l-3.307-.073-3.307-.073-.072-4.96c-.04-2.73-.159-4.962-.265-4.961-.106 0-.55.685-.986 1.521-3.748 7.18-9.274 12.043-16.272 14.319-3.929 1.277-6.5 1.645-12.17 1.74-2.984.051-5.96.043-6.615-.018zm-30.611-20.67c-3.549-7.284-4.182-13.875-3.971-41.305.073-9.552.175-17.605.226-17.896.082-.471-.054-.53-1.23-.53h-1.324l-.067 27.848-.068 27.847h1.404c.772 0 1.546.143 1.721.318.211.21.317 1.364.317 3.44v3.121H19.03zm33.843-4.763c1.38-1.583 1.59-3.218 1.769-13.825l.158-9.393h27.517l.074 3.519.073 3.518 1.646-.079 1.646-.078V101.427l-12.227.022c-6.726.013-12.53-.053-12.899-.145-.666-.168-.67-.187-.67-3.05v-2.882h-3.28c-2.746 0-3.305-.068-3.44-.419-.088-.23-.164-3.355-.168-6.945-.007-5.6-.06-6.459-.373-6.046-.862 1.137-.942 3.666-.942 29.902 0 27.527-.025 26.95 1.116 25.643zm222.48-1.588c.248-.947.354-7.602.432-27.044.057-14.183.028-26.088-.064-26.455-.242-.963-.536-.297-.892 2.022-.368 2.395-.415 52.734-.05 52.734.134 0 .392-.566.573-1.257zm-74.627-5.183c.268-.606.614-2.335.769-3.842.304-2.967.38-14.911.11-17.169l-.167-1.389h-2.308v24.096l.554-.296c.305-.164.774-.793 1.042-1.4zm111.791-53.815c-.09-.232-.787-.335-2.276-.335-1.18 0-2.106.09-2.056.199.05.109.519 1.032 1.043 2.05 1.45 2.82 2.242 5.563 2.748 9.525.403 3.15.532 2.234.599-4.229.039-3.78.013-7.025-.058-7.21zM198.97 80.61c.96-1.416 1.678-9.417 1.288-14.345l-.19-2.405-1.095.08-1.096.08-.07 8.82c-.074 9.423-.053 9.564 1.163 7.77zm-230.723-4.441c-.088-.23-.16-2.989-.16-6.13 0-3.14-.074-5.637-.165-5.546-.09.09-.18 2.849-.198 6.13-.028 4.862.032 5.964.325 5.964.219 0 .296-.163.198-.418zM-159.6 160.579c-.094-.373-.118-1.68-.054-2.905l.117-2.227-3.326-.073-3.325-.074-.067-59.383c-.053-47.332 0-59.426.265-59.593.182-.116 9.335-.213 20.34-.215 15.69-.003 20.07.067 20.284.327.15.182.493 1.757.763 3.502l.49 3.17 1.98-.07c1.09-.038 2.15.042 2.356.179.226.15.558 1.391.84 3.144.477 2.945 2.444 16.516 2.762 19.046.096.764.27 1.448.388 1.52.117.073.346-.85.51-2.05.37-2.72 3.092-24.102 3.342-26.258.328-2.814-2.15-2.527 21.097-2.45l20.429.068.132 3.412.133 3.412 2.413-.053c1.928-.043 2.5.033 2.844.377.396.395.43 5.196.428 58.554-.002 31.968-.076 58.392-.164 58.721l-.16.598-13.529-.069-13.528-.068-.04-2.778-.038-2.778-3.268-.133-3.269-.132-.07-7.74c-.042-4.6-.17-7.738-.319-7.738-.285 0-.225-.349-1.328 7.739-.463 3.399-1.339 10.085-1.48 11.31-.077.656-.195 1.46-.263 1.79l-.123.599-9.718-.07-9.718-.07-.305-1.454c-.168-.8-.316-2.08-.33-2.845l-.026-1.389h-2.895c-1.608 0-2.966-.115-3.055-.26-.171-.276-.46-2.158-2.38-15.472-.67-4.651-1.27-8.508-1.333-8.57-.332-.333-.397 1.846-.457 15.306l-.066 14.685-13.555.068-13.554.069zm22.12-69.97c0-.29-.12-.529-.265-.529-.146 0-.265.238-.265.53 0 .29.119.528.265.528.145 0 .264-.238.264-.529zm19.843-6.365c0-.283-.12-.514-.265-.514-.145 0-.264.305-.264.677 0 .384.114.606.264.514.146-.09.265-.395.265-.677z" style="fill:#a0c7fa;stroke-width:.26458335" transform="matrix(.58603 0 0 .48779 116.709 -13.75)"/><path d="M48.256 162.94c-4.07-.379-9.156-1.591-12.054-2.873-2.207-.976-5.58-3.307-7.25-5.01-1.852-1.888-1.578-2.308.778-1.194 4.339 2.052 10.757 3.157 18.339 3.157 3.945 0 4.83-.092 9.315-.97 3.95-.772 7.955-2.48 11.14-4.75 1.948-1.389 5.497-5.09 6.885-7.18 1.192-1.796 3.068-5.515 3.652-7.242.815-2.408 1.633-8.655 1.815-13.857l.056-1.588 1.78-.078 1.78-.078.072 10.53c.04 5.79-.023 11.183-.138 11.984-.404 2.793-3.864 8.202-7.355 11.495-3.9 3.68-7.914 5.66-14.263 7.037-1.957.424-3.715.565-7.938.637-2.983.05-5.96.041-6.614-.02zm223.308.01c-6.838-.552-12.768-2.234-16.888-4.79-3.118-1.936-5.787-4.845-4.444-4.845.2 0 1.032.296 1.848.657.816.36 2.527.94 3.803 1.287 2.178.594 3.145.773 7.947 1.478 1.058.156 3.975.282 6.482.28 9.645-.005 16.39-1.645 22.31-5.427 4.624-2.953 9.206-9.244 10.692-14.679.18-.655.422-1.488.54-1.852 1.055-3.267 1.34-9.893 1.324-30.665-.015-17.907-.126-21.284-.83-25.294-.282-1.598-1.352-5.065-1.855-6.004a2.012 2.012 0 0 1-.188-1.062c.08-.538.11-.533.949.174 1.069.903 1.444 1.568 1.633 2.895.087.61.336 1.123.61 1.257.254.124.671.325.926.445 1.027.485 3.11 5.37 3.742 8.777.79 4.26.86 6.853.751 27.914-.112 21.622-.159 22.745-1.152 27.649-.925 4.565-3.549 9.382-7.128 13.085-4.17 4.315-9.336 6.849-16.792 8.239-2.145.4-11.42.712-14.28.481zm-87.613-1.633-17.366-.068-.159-.593c-.29-1.08-.178-4.314.165-4.773.303-.407 1.774-.445 17.925-.459 31.275-.027 36.618-.795 41.778-6.007 3.06-3.091 4.277-5.703 5.33-11.447.48-2.618.577-4.409.694-12.833.163-11.65-.178-16.862-1.373-20.975-.352-1.214-.403-1.74-.19-1.954.48-.479 3.207 2.349 4.554 4.72l1.175 2.07.08 7.408c.104 9.488.654 17.95 1.228 18.862.356.567.23 5.58-.208 8.258-.929 5.681-2.54 9.433-5.155 12.008-3.627 3.57-7.313 4.763-16.824 5.443-5.12.366-10.46.423-31.654.34zm-343.497-.483c-.299-.778-.171-4.493.17-4.953.299-.404 1.332-.453 10.782-.514l10.45-.067.056-31.555c.05-28.859.156-33.779.688-31.922.148.514.965 5.497 1.493 9.105.734 5.012 2.477 17.225 2.661 18.653.113.873.4 2.838.638 4.366.369 2.366.431 5.304.42 19.81-.006 9.368-.076 17.137-.155 17.264-.079.128-6.185.232-13.593.232-12.02 0-13.467-.044-13.61-.419zm38.104.207c-.268-.433-.73-3.704-.648-4.575l.086-.902 7-.132 7-.132.319-1.985c.296-1.84.43-2.798 1.15-8.202.145-1.091.457-3.353.693-5.027.236-1.673.523-3.876.638-4.894.115-1.02.394-3.103.62-4.63.225-1.529.716-5.16 1.09-8.07.638-4.955.788-6.076 1.45-10.848.14-1.019.39-2.924.552-4.234.162-1.31.517-3.929.789-5.82.27-1.892.625-4.452.787-5.69.453-3.468.843-5.295 1.097-5.138.31.192.265 44.64-.048 47.34-.135 1.164-.365 2.89-.512 3.836-.264 1.712-.632 4.397-1.05 7.673-.757 5.93-1.375 10.533-1.483 11.047l-.126.595h-9.636c-5.3 0-9.696-.095-9.768-.212zm29.645.036c-.248-.248-.213-4.913.04-5.311.158-.25 2.7-.344 10.645-.397l10.437-.07.133-55.902c.116-49.307.179-55.933.529-56.154.218-.138 1.37-.252 2.56-.255 1.62-.003 2.27.101 2.58.412.376.375.416 6.05.413 58.54-.002 31.967-.076 58.39-.164 58.718l-.16.595h-13.418c-7.38 0-13.498-.08-13.595-.176zm34.38-.24c-.299-.78-.172-4.495.17-4.957.3-.406 1.434-.452 12.502-.513l12.17-.067.135-39.29c.074-21.61.163-39.325.198-39.367.036-.041 1.285-.041 2.776 0l2.712.076v84.402l-15.25.068c-13.735.062-15.267.027-15.412-.352zm53.417.012c-4.523-.588-7.444-1.923-10.167-4.647-1.515-1.515-2.173-2.896-1.201-2.523 1.122.43 3.768.992 5.856 1.243 3.564.428 23.34.648 23.724.264.203-.201.355-1.97.442-5.124l.132-4.816h2.22c3.38 0 3.26-.316 3.217 8.473-.02 3.9-.097 7.191-.172 7.313-.227.367-21.04.209-24.05-.183zm95.295.228c-.351-.351-.195-5.036.178-5.345.245-.204 3.966-.315 12.104-.363l11.75-.069.143-38.365c.147-39.7.147-39.724 1.198-41.335 1.018-1.562 3.499-1.79 4.897-.45 1.468 1.406 1.676 4.875.474 7.919l-.626 1.587-.063 37.703c-.035 20.737-.126 37.971-.204 38.299l-.14.595h-14.768c-8.122 0-14.846-.08-14.943-.176zm38.63.002c-.352-.353-.198-5.037.177-5.347.245-.204 3.931-.316 11.972-.363l11.618-.07.034-38.496c.035-39.8-.05-43.65-1.052-47.356-.673-2.491-.03-2.517 2.195-.088 2.005 2.188 3.327 4.816 3.836 7.624.878 4.84.973 9.879.89 47.228l-.082 36.91-14.704.068c-8.088.038-14.785-.012-14.883-.11zm203.551-.118c-4.777-.545-7.985-1.941-10.702-4.659-1.68-1.679-2.296-2.96-1.27-2.638 4.3 1.35 7.343 1.604 19.38 1.621l10.187.015.133-4.763c.072-2.619.228-4.911.346-5.093.143-.22.941-.33 2.397-.33 1.329 0 2.36.129 2.634.33.411.3.446 1.025.382 8.004l-.07 7.673-10.717.033c-5.893.018-11.608-.068-12.7-.193zm-289.718-4.75c-7.16-.447-13.347-2.281-17.638-5.228-1.59-1.092-4.339-3.812-5.877-5.816-1.331-1.735-3.13-5.766-3.874-8.681-1.721-6.742-2.073-13.26-1.912-35.427.1-13.768.199-17.22.57-19.842 1.364-9.651 4.018-14.156 11.136-18.9 6.314-4.21 13.959-6.143 22.754-5.755 9.51.42 17.219 3.336 23.082 8.732 5.285 4.863 7.878 12.95 8.075 25.183l.064 3.969H52.886l-.162-7.276c-.183-8.236-.348-9.976-1.098-11.587-.657-1.411-1.637-1.945-3.57-1.945-1.64 0-2.534.485-3.287 1.785-.937 1.618-1.044 5.203-.953 31.855.081 23.733.125 25.924.556 27.384.577 1.959 1.52 3.43 2.637 4.11 1.76 1.074 4.566.368 5.617-1.412 1.066-1.803 1.241-3.415 1.376-12.62.072-4.874.241-9.071.376-9.326.23-.431 1.109-.463 12.738-.459 6.871.002 12.66.11 12.863.238.307.195.34 1.114.193 5.354-.203 5.845-.593 10.864-.994 12.792-1.617 7.78-6.878 15.152-13.465 18.87-5.605 3.162-13.205 4.547-21.955 4.001zm223.043-.003c-15.337-.95-23.453-5.92-27.2-16.653-1.8-5.157-2.142-9.273-2.342-28.175-.235-22.27.224-29.495 2.3-36.216 2.39-7.74 8.479-13.848 16.508-16.563 8.336-2.817 20.012-2.802 28.726.038 1.987.647 5.829 2.519 7.938 3.867 3.948 2.523 8.165 7.963 9.808 12.652 1.62 4.624 2.088 11.196 2.094 29.431.007 21.021-.598 29.103-2.527 33.796-3.858 9.384-10.665 14.823-21.33 17.041-2.035.424-9.453 1.153-10.403 1.024-.145-.02-1.753-.129-3.572-.242zm6.372-17.517c.573-.386 1.084-1.073 1.428-1.918.525-1.293.535-1.822.535-30.288 0-27.37-.027-29.049-.483-30.358-.686-1.966-1.407-2.45-3.65-2.45-1.607 0-1.905.083-2.633.733-1.71 1.528-1.667.791-1.77 29.946-.06 17.21.005 27.273.188 29.087.313 3.115.976 4.843 2.09 5.448 1.117.606 3.245.507 4.295-.2zm-4.27-.921c-1.56-1.395-1.572-1.625-1.572-31.55 0-28.945.033-29.716 1.348-31.116 1.235-1.315 4.106-1.052 4.881.447.227.438.526 1.798.665 3.023.204 1.793.177 2.422-.138 3.229-.86 2.205-.932 4.492-.934 30.13-.002 29.128.21 26.566-2.201 26.566-.97 0-1.405-.154-2.048-.73zm-434.254 16.692c-.097-.097-.177-26.472-.177-58.612V37.415l.692-.263c.986-.375 38.342-.219 38.723.162.278.278.707 2.562 1.313 6.993.17 1.237.414 2.964.544 3.837.481 3.23.838 5.752 1.987 14.023.646 4.656 1.306 9.36 1.466 10.45.16 1.092.41 2.818.554 3.837.144 1.019.366 2.507.492 3.307.126.8.373 2.527.549 3.837.175 1.31.481 2.645.68 2.967.198.322.36 1.06.36 1.638 0 .579.12 1.126.265 1.216.164.1.265-.377.265-1.255 0-.78.122-1.54.27-1.688.15-.15.382-1.215.516-2.369.135-1.153.545-4.418.912-7.256s.785-6.171.93-7.408c.143-1.237.39-3.202.547-4.366.157-1.164.394-3.01.528-4.101.133-1.091.662-5.259 1.176-9.26A4319.08 4319.08 0 0 0-111.394 41c.237-1.892.542-3.559.678-3.704.274-.293 36.584-.539 38.52-.261l1.125.16v58.562c0 53.155-.04 58.575-.419 58.72-.23.09-6.17.161-13.2.161-11.413 0-12.8-.044-12.944-.418-.088-.23-.16-16.253-.16-35.606 0-33.369-.024-35.183-.463-35.099-.265.05-.497.37-.542.747-.043.362-.241 1.254-.44 1.982-.2.727-.495 2.335-.657 3.572-.163 1.236-.407 3.082-.544 4.1-.136 1.02-.379 2.865-.538 4.102-.16 1.237-.404 3.082-.544 4.1-.14 1.02-.613 4.532-1.052 7.806-.44 3.274-.922 6.846-1.072 7.937-.336 2.435-.644 4.76-1 7.541-.15 1.164-.39 3.01-.535 4.101-.146 1.091-.452 3.413-.681 5.16a973.76 973.76 0 0 1-.802 5.953 798.096 798.096 0 0 0-1.2 8.863c-.15 1.164-.415 2.772-.591 3.572l-.32 1.455-9.198.07-9.198.07-.257-.6c-.214-.5-.893-4.971-2.401-15.812-.132-.946-.35-2.434-.485-3.307-.135-.873-.32-2.123-.413-2.778a255.49 255.49 0 0 0-.413-2.778c-.135-.873-.549-3.85-.92-6.615a604.495 604.495 0 0 0-.916-6.614c-.132-.874-.374-2.54-.537-3.705a283.284 283.284 0 0 0-.545-3.704c-.136-.873-.665-4.504-1.175-8.07-.51-3.565-1.04-7.196-1.178-8.07-.138-.872-.449-2.897-.69-4.497-.241-1.601-.545-3.024-.675-3.162-.13-.138-.235-.823-.235-1.521 0-.699-.101-1.27-.224-1.27-.472 0-.57 6.662-.57 38.75 0 25.4-.074 33.184-.317 33.428-.239.238-3.53.317-13.185.317-7.078 0-12.947-.079-13.044-.176zm67.557-73.393c0-1.002-.1-1.542-.265-1.44-.145.09-.265.811-.265 1.603 0 .792.12 1.44.265 1.44.147 0 .265-.711.265-1.603zm34.557 73.153c-.296-.77-.185-95.09.112-95.645.266-.496.707-.511 14.75-.507 7.963.002 14.627.098 14.809.214.264.168.318 9.986.265 48.216l-.067 48.006-14.854.068c-13.373.062-14.87.027-15.015-.352zm56.062.121c-4.985-.379-7.98-1.126-10.318-2.574-1.624-1.005-4.479-3.992-5.225-5.467-1.83-3.614-1.84-3.807-2.021-39.024l-.163-31.353-2.854-.132c-2.143-.1-2.918-.232-3.105-.53-.14-.222-.252-3.433-.254-7.31-.003-5.374.073-6.976.342-7.2.19-.157 1.589-.32 3.108-.363l2.763-.076.143-7.408c.079-4.074.168-7.439.199-7.477.03-.037 6.574-.037 14.541 0l14.486.069.132 7.408.133 7.408 3.307.065c1.819.036 3.575.127 3.903.204l.595.138V75.466l-.595.16c-.328.088-2.042.161-3.809.163-2.683.003-3.239.073-3.373.422-.258.674-.167 55.011.098 57.943.132 1.466.383 2.978.557 3.36.431.947 1.46 1.26 4.877 1.482 1.604.104 3.062.28 3.241.39.247.153.327 2.014.327 7.567 0 6.471-.05 7.384-.419 7.525-.609.234-17.194.125-20.616-.135zm92.633-.123c-.088-.23-.16-26.606-.16-58.612V37.415l.678-.258c.91-.346 27.1-.346 28.011 0l.679.258v12.45c0 10.874.05 12.47.4 12.604.236.09 1.3-.447 2.58-1.302 3.799-2.537 6.073-3.492 10.25-4.303 5.152-1.001 11.618.018 15.742 2.481 4.27 2.55 6.827 5.519 8.015 9.304 1.423 4.537 1.642 11.422 1.642 51.578 0 30.252-.041 33.621-.418 33.998-.372.372-1.97.41-14.618.35l-14.2-.069-.15-38.1c-.151-38.702-.147-38.527-1.086-40.942-.443-1.14-1.743-1.788-3.588-1.788-2.6 0-3.522 1.068-4.187 4.845-.32 1.817-.381 8.086-.382 38.824 0 28.16-.074 36.732-.317 36.976-.24.239-3.828.317-14.524.317-12.71 0-14.223-.044-14.367-.418zm75.312.243c-.263-.106-.331-12.072-.331-58.59V37.414l.728-.286c1.21-.476 38.153-.11 42.664.424 8.735 1.032 13.072 2.63 17.24 6.351 5.919 5.284 8.236 12.475 8.271 25.67.02 7.375-.43 10.285-2.114 13.647-1.284 2.567-4.925 5.114-9.437 6.604-2.296.758-2.581 1.09-1.561 1.817.428.305.898.555 1.043.555.699 0 5.117 2.085 6.779 3.199 2.356 1.58 3.028 2.295 4.341 4.622 1.267 2.245 2.245 5.386 2.805 9.011.567 3.67.591 21.841.035 26.325-.953 7.681-3.055 12.156-7.058 15.022-3.488 2.498-7.342 3.38-17.441 3.996-4.347.265-45.332.346-45.964.091zm34.415-20.313c1.092-.208 2.482-.633 3.089-.942 2.34-1.195 2.915-4.241 2.904-15.402-.008-7.965-.29-11.648-1.021-13.3-.792-1.788-2.31-2.436-6.314-2.692l-2.712-.173v16.29c0 12.785.07 16.32.33 16.424.6.242 1.712.18 3.724-.205zm-3.352-.798c-.218-.57-.23-29.85-.013-30.418.308-.803 5.275-.285 6.79.708.739.484 1.516 2.44 1.516 3.815 0 .865-.018.88-1.188.88h-1.188l-.068 12.104-.07 12.105-.93.455c-.512.25-1.773.534-2.803.63-1.621.15-1.895.113-2.046-.279zm5.203-50.435c1.458-.405 2.965-1.867 3.324-3.224.578-2.192.944-10.732.616-14.415-.403-4.529-1.208-6.43-3.103-7.33-1.013-.48-5.468-1.045-6.26-.793-.458.145-.482.805-.482 12.923 0 7.023.079 12.85.176 12.947.282.282 4.62.2 5.73-.108zm-5.216-.928c-.088-.23-.16-5.624-.16-11.986 0-8.644.08-11.647.317-11.885.788-.787 5.125.015 6.332 1.171.866.83 1.909 3.364 1.68 4.084-.105.33-.463.509-1.132.564l-.98.082-.064 8.73c-.078 10.4.192 9.658-3.508 9.658-1.875 0-2.355-.08-2.485-.418zm136.894 72.245c-5.342-.5-7.164-1.019-9.81-2.795-2.74-1.84-4.985-4.76-5.782-7.516-.786-2.723-.88-6.039-1.043-36.645l-.166-31.353-2.778-.072c-2.228-.058-2.844-.16-3.11-.514-.244-.326-.33-2.209-.33-7.22 0-5.01.086-6.892.33-7.219.266-.353.882-.455 3.11-.513l2.778-.073.143-7.408c.078-4.074.168-7.439.198-7.477.03-.037 6.574-.037 14.542 0l14.486.069.132 7.408.132 7.408 3.308.065c1.819.036 3.575.127 3.902.204l.595.138v7.404c0 4.072-.03 7.421-.066 7.443-.036.022-1.792.112-3.902.199l-3.837.158-.077 27.517c-.076 27.04.05 32.512.78 34.116.383.841 1.445 1.197 4.06 1.362 1.164.073 2.622.194 3.241.269l1.124.136v7.496c0 6.592-.05 7.516-.418 7.657-.76.291-17.898.098-21.542-.244zM47.135 137.978c-1.113-.876-1.78-2.205-2.195-4.377-.56-2.928-.562-53.604-.002-56.218.456-2.128 1.447-3.18 2.99-3.174 2.1.008 3.154 1.17 3.644 4.01.348 2.018.34 2.069-.747 4.85-.227.58-.347 8.115-.448 28.045l-.137 27.253-1.206.078c-.9.059-1.38-.06-1.9-.467zm298.35.138c-1.036-.153-2.058-.426-2.273-.606-.972-.817-1.037-3.04-.953-32.349l.081-28.442 3.836-.133 3.837-.132.073-4.61c.044-2.854.183-4.745.363-4.962.386-.466 4.443-.481 5.074-.02.41.302.445 1.018.381 7.872l-.07 7.54-3.837.133-3.836.132-.067 27.82c-.054 21.92-.138 27.842-.397 27.927-.182.06-1.177-.017-2.213-.17zm-337.578-.05-1.115-.242c-1.265-.269-1.267-.301-1.267-31.737V76.72l3.837-.133 3.836-.132.073-4.75c.052-3.396.165-4.81.397-4.958.582-.37 4.544-.246 5.098.159.495.362.487.405-.292 1.521-1.382 1.98-2.479 4.492-3.159 7.234-.36 1.456-.666 3.003-.68 3.44-.013.436-.163 1.33-.333 1.984-.308 1.183-.318 1.192-1.633 1.323l-1.323.132-.132 27.782-.132 27.781-1.323.041c-.728.023-1.561-.011-1.852-.076zm51.122-36.793c-.422-.11-.464-.423-.397-2.946l.075-2.823 10.848-.067c8.701-.054 10.9-.137 11.112-.422.336-.45.07-9.493-.37-12.608-.477-3.362-1.028-5.855-1.77-7.999-1.022-2.955-1.058-3.182-.486-3.072.786.152 3.69 3.84 5.064 6.432l1.266 2.39.08 10.483.08 10.483-.609.163c-.696.186-24.174.173-24.893-.014zm164.91-6.779c-1.602-1.051-2.912-1.705-5.358-2.672-.546-.215-.992-.547-.992-.737 0-.19.863-.68 1.918-1.088 4.586-1.775 7.009-3.734 8.514-6.883 1.191-2.493 1.67-4.453 1.995-8.152.29-3.315-.017-12.557-.52-15.574-.342-2.061-1.43-6.17-1.984-7.496-.818-1.959-.182-2.04 1.544-.195 2.428 2.597 4.375 6.246 5.34 10.016 1.789 6.982 2.11 18.846.662 24.506-1 3.908-2.744 6.262-6.155 8.304-2.204 1.32-2.916 1.316-4.964-.029zm-342.49-11.624a302.4 302.4 0 0 1-.562-3.77 70477.935 70477.935 0 0 1-1.72-11.906 972.608 972.608 0 0 1-.77-5.424l-.526-3.837c-.16-1.164-.398-3.01-.53-4.1a200.958 200.958 0 0 0-.783-5.425c-.66-4.194-.68-5.051-.128-5.263.637-.244 3.369-.184 3.792.084.419.265.773 2.277 2.382 13.54.59 4.133 1.21 8.378 1.38 9.434.308 1.934.216 4.396-.294 7.87-.15 1.018-.452 3.4-.672 5.291-.22 1.892-.465 3.648-.546 3.903-.243.77-.87.527-1.022-.397zm234.187-21.806c-.097-.097-.176-4.081-.176-8.854 0-10.05-.269-9.226 3.006-9.226 1.45 0 2.095.112 2.399.416.357.357.416 1.412.416 7.49v7.075l-2.628 1.638c-2.82 1.757-2.753 1.725-3.017 1.461zM5.683 59.551c-.207-.249-.281-1.59-.231-4.167l.073-3.8h5.557l.073 3.834c.065 3.374.02 3.874-.38 4.167-.652.476-4.691.449-5.092-.034zm336.988.08c-.406-.235-.463-.718-.46-3.894.004-1.993.102-3.778.221-3.965.158-.25.92-.32 2.84-.265l2.624.076.074 3.835c.065 3.374.02 3.874-.381 4.167-.55.402-4.248.437-4.918.047zM-32.4 58.34l-.28-.803H-44.71c-6.617 0-12.219-.072-12.45-.16-.313-.12-.417-.534-.414-1.654.002-.821.075-1.76.163-2.088l.16-.596 11.809-.003c6.495-.002 12.077-.076 12.404-.163.589-.158.596-.214.596-4.75 0-5.367-.133-5.138 2.974-5.138 3.064 0 2.867-.59 2.785 8.335l-.07 7.673-2.684.075-2.683.075zm-30.839-6.513c-.088-.23-.16-3.567-.16-7.415v-6.996l.678-.258c.736-.28 27.865-.366 28.889-.091l.595.16v15.019h-14.92c-13.362 0-14.938-.044-15.082-.419z" style="fill:#8cb9f9;stroke-width:.26458335" transform="matrix(.58603 0 0 .48779 116.709 -13.75)"/><path d="M48.256 162.94c-4.07-.379-9.156-1.591-12.054-2.873-2.207-.976-5.58-3.307-7.25-5.01-1.852-1.888-1.578-2.308.778-1.194 4.339 2.052 10.757 3.157 18.339 3.157 3.945 0 4.83-.092 9.315-.97 3.95-.772 7.955-2.48 11.14-4.75 1.948-1.389 5.497-5.09 6.885-7.18 1.192-1.796 3.068-5.515 3.652-7.242.815-2.408 1.633-8.655 1.815-13.857l.056-1.588 1.78-.078 1.78-.078.072 10.53c.04 5.79-.023 11.183-.138 11.984-.404 2.793-3.864 8.202-7.355 11.495-3.9 3.68-7.914 5.66-14.263 7.037-1.957.424-3.715.565-7.938.637-2.983.05-5.96.041-6.614-.02zm223.308.01c-6.838-.552-12.768-2.234-16.888-4.79-3.118-1.936-5.787-4.845-4.444-4.845.2 0 1.032.296 1.848.657.816.36 2.527.94 3.803 1.287 2.178.594 3.145.773 7.947 1.478 1.058.156 3.975.282 6.482.28 9.645-.005 16.39-1.645 22.31-5.427 4.624-2.953 9.206-9.244 10.692-14.679.18-.655.422-1.488.54-1.852 1.055-3.267 1.34-9.893 1.324-30.665-.015-17.907-.126-21.284-.83-25.294-.282-1.598-1.352-5.065-1.855-6.004a2.012 2.012 0 0 1-.188-1.062c.08-.538.11-.533.949.174 1.069.903 1.444 1.568 1.633 2.895.087.61.336 1.123.61 1.257.254.124.671.325.926.445 1.027.485 3.11 5.37 3.742 8.777.79 4.26.86 6.853.751 27.914-.112 21.622-.159 22.745-1.152 27.649-.925 4.565-3.549 9.382-7.128 13.085-4.17 4.315-9.336 6.849-16.792 8.239-2.145.4-11.42.712-14.28.481zm-87.613-1.633-17.366-.068-.159-.593c-.29-1.08-.178-4.314.165-4.773.303-.407 1.774-.445 17.925-.459 31.275-.027 36.618-.795 41.778-6.007 3.06-3.091 4.277-5.703 5.33-11.447.48-2.618.577-4.409.694-12.833.163-11.65-.178-16.862-1.373-20.975-.352-1.214-.403-1.74-.19-1.954.48-.479 3.207 2.349 4.554 4.72l1.175 2.07.08 7.408c.104 9.488.654 17.95 1.228 18.862.356.567.23 5.58-.208 8.258-.929 5.681-2.54 9.433-5.155 12.008-3.627 3.57-7.313 4.763-16.824 5.443-5.12.366-10.46.423-31.654.34zm-343.497-.483c-.299-.778-.171-4.493.17-4.953.299-.404 1.332-.453 10.782-.514l10.45-.067.056-31.555c.05-28.859.156-33.779.688-31.922.148.514.965 5.497 1.493 9.105.734 5.012 2.477 17.225 2.661 18.653.113.873.4 2.838.638 4.366.369 2.366.431 5.304.42 19.81-.006 9.368-.076 17.137-.155 17.264-.079.128-6.185.232-13.593.232-12.02 0-13.467-.044-13.61-.419zm38.104.207c-.268-.433-.73-3.704-.648-4.575l.086-.902 7-.132 7-.132.319-1.985c.296-1.84.43-2.798 1.15-8.202.145-1.091.457-3.353.693-5.027.236-1.673.523-3.876.638-4.894.115-1.02.394-3.103.62-4.63.225-1.529.716-5.16 1.09-8.07.638-4.955.788-6.076 1.45-10.848.14-1.019.39-2.924.552-4.234.162-1.31.517-3.929.789-5.82.27-1.892.625-4.452.787-5.69.453-3.468.843-5.295 1.097-5.138.31.192.265 44.64-.048 47.34-.135 1.164-.365 2.89-.512 3.836-.264 1.712-.632 4.397-1.05 7.673-.757 5.93-1.375 10.533-1.483 11.047l-.126.595h-9.636c-5.3 0-9.696-.095-9.768-.212zm29.645.036c-.248-.248-.213-4.913.04-5.311.158-.25 2.7-.344 10.645-.397l10.437-.07.133-55.902c.116-49.307.179-55.933.529-56.154.218-.138 1.37-.252 2.56-.255 1.62-.003 2.27.101 2.58.412.376.375.416 6.05.413 58.54-.002 31.967-.076 58.39-.164 58.718l-.16.595h-13.418c-7.38 0-13.498-.08-13.595-.176zm34.38-.24c-.299-.78-.172-4.495.17-4.957.3-.406 1.434-.452 12.502-.513l12.17-.067.135-39.29c.074-21.61.163-39.325.198-39.367.036-.041 1.285-.041 2.776 0l2.712.076v84.402l-15.25.068c-13.735.062-15.267.027-15.412-.352zm53.417.012c-4.523-.588-7.444-1.923-10.167-4.647-1.515-1.515-2.173-2.896-1.201-2.523 1.122.43 3.768.992 5.856 1.243 3.564.428 23.34.648 23.724.264.203-.201.355-1.97.442-5.124l.132-4.816h2.22c3.38 0 3.26-.316 3.217 8.473-.02 3.9-.097 7.191-.172 7.313-.227.367-21.04.209-24.05-.183zm95.295.228c-.351-.351-.195-5.036.178-5.345.245-.204 3.966-.315 12.104-.363l11.75-.069.143-38.365c.147-39.7.147-39.724 1.198-41.335 1.018-1.562 3.499-1.79 4.897-.45 1.468 1.406 1.676 4.875.474 7.919l-.626 1.587-.063 37.703c-.035 20.737-.126 37.971-.204 38.299l-.14.595h-14.768c-8.122 0-14.846-.08-14.943-.176zm38.63.002c-.352-.353-.198-5.037.177-5.347.245-.204 3.931-.316 11.972-.363l11.618-.07.034-38.496c.035-39.8-.05-43.65-1.052-47.356-.673-2.491-.03-2.517 2.195-.088 2.005 2.188 3.327 4.816 3.836 7.624.878 4.84.973 9.879.89 47.228l-.082 36.91-14.704.068c-8.088.038-14.785-.012-14.883-.11zm203.551-.118c-4.777-.545-7.985-1.941-10.702-4.659-1.68-1.679-2.296-2.96-1.27-2.638 4.3 1.35 7.343 1.604 19.38 1.621l10.187.015.133-4.763c.072-2.619.228-4.911.346-5.093.143-.22.941-.33 2.397-.33 1.329 0 2.36.129 2.634.33.411.3.446 1.025.382 8.004l-.07 7.673-10.717.033c-5.893.018-11.608-.068-12.7-.193zm-290.38-5.536c-5.094-.362-9.254-1.316-12.763-2.925-2.766-1.268-4.211-2.268-6.649-4.597-4.493-4.295-6.713-9.49-7.862-18.4-.555-4.302-.85-35.88-.406-43.392.657-11.099 2.433-15.892 7.572-20.43 6.388-5.64 14.316-8.404 24.117-8.408 15.368-.005 26.908 7.04 30.342 18.524 1.175 3.929 2.177 12.093 1.98 16.135l-.083 1.72-12.815.069c-10.077.054-12.86-.003-13.027-.265-.116-.183-.214-3.131-.217-6.55-.01-9.681-.455-11.959-2.621-13.418-1.263-.85-3.805-.856-5.081-.01-1.616 1.07-2.098 2.524-2.366 7.127-.304 5.224-.309 46.19-.006 50.353.365 5.012 1.542 7.604 3.935 8.662 2.303 1.019 5.097.113 6.19-2.008 1.155-2.24 1.31-3.587 1.459-12.668.104-6.425.226-8.73.47-8.932.216-.18 4.347-.25 12.203-.204l11.876.069-.053 5.292c-.095 9.586-.736 13.676-2.819 17.991-1.509 3.127-2.45 4.574-4.667 7.178-4.627 5.434-11.258 8.38-20.473 9.097-3.501.272-4.287.272-8.236-.01zm222.383-.029c-5.82-.432-10.804-1.648-14.61-3.565-4.312-2.171-6.946-4.87-9.276-9.507-3.195-6.356-3.773-12.684-3.55-38.882.145-17.095.287-19.674 1.361-24.739 2.481-11.697 10.261-18.756 23.032-20.896 5.36-.899 12.37-.73 17.86.432 10.897 2.304 18.62 8.576 21.68 17.604 1.633 4.821 1.867 8.463 1.867 29.067 0 26.127-.515 30.587-4.287 37.105-4.659 8.048-12.57 12.447-24.104 13.401-3.781.313-5.536.31-9.973-.02zm7.781-15.857c1.095-.539 1.742-1.533 2.163-3.322.485-2.06.553-56.58.074-59.327-.245-1.409-.482-1.919-1.298-2.793-.968-1.038-1.055-1.072-2.94-1.156-2.224-.099-3.287.368-4.179 1.833-1.16 1.907-1.205 3.093-1.205 31.578 0 28.42.036 29.353 1.194 31.623.97 1.9 3.968 2.658 6.191 1.564zm-4.356-1.77c-1.561-1.394-1.573-1.625-1.573-31.55 0-28.945.033-29.715 1.348-31.115 1.235-1.315 4.106-1.052 4.881.447.227.438.526 1.798.665 3.023.204 1.792.177 2.422-.138 3.228-.86 2.206-.932 4.492-.934 30.131-.002 29.128.21 26.566-2.201 26.566-.97 0-1.405-.155-2.048-.73zm-433.515 15.748c-.07-.184-.096-26.29-.059-58.013l.068-57.68 18.818-.067c14.858-.054 18.872.002 19.076.265.142.182.517 1.999.833 4.036.316 2.038.684 4.36.818 5.16a194 194 0 0 1 .681 4.762c.24 1.82 1.088 7.891 1.884 13.494.796 5.602 1.922 13.58 2.502 17.727.58 4.147 1.17 7.817 1.31 8.154.176.427.43.588.835.53.805-.117.486 1.882 3.516-22.046.793-6.257 1.558-12.27 1.701-13.361.487-3.717 1.364-10.442 1.877-14.401.31-2.392.645-4.035.848-4.165.184-.117 8.788-.185 19.12-.15l18.785.063v115.887h-24.87l-.136-39.158c-.074-21.537-.163-39.188-.198-39.224-.035-.037-.348-.067-.696-.067-.842 0-.655-.973-2.416 12.568l-.655 5.027c-.133 1.019-.78 5.781-1.436 10.584-.656 4.802-1.44 10.636-1.742 12.964-.787 6.081-.972 7.47-1.586 11.906-.5 3.613-2.218 16.562-2.93 22.093-.16 1.237-.396 2.517-.526 2.844l-.236.596h-8.589c-4.724 0-8.646-.092-8.715-.205-.13-.211-.922-5.36-2.287-14.877-.428-2.983-1.445-10.007-2.259-15.61-.814-5.603-2.242-15.485-3.174-21.96-3.802-26.44-3.4-23.959-3.915-24.156-1.138-.437-1.095-1.78-1.235 38.5l-.132 38.175-12.376.07c-9.76.053-12.404-.003-12.504-.265zm102.183.151c-.097-.097-.177-21.326-.177-47.175 0-36.202.073-47.072.318-47.316.458-.458 27.746-.458 28.204 0 .245.244.318 11.06.318 47.074 0 25.716-.073 46.945-.16 47.175-.144.375-1.647.419-14.244.419-7.746 0-14.162-.08-14.26-.177zm52.74-.219c-4.15-.51-6.67-1.528-9.226-3.73-2.72-2.345-3.988-4.704-4.562-8.493-.221-1.456-.36-11.52-.473-34.08l-.159-32.015L-27.15 75l-3.042-.132V61.373l3.042-.132 3.043-.133.07-7.35.07-7.35.675-.257c.743-.282 24.897-.366 26.272-.09l.827.164.004 7.177c.002 3.947.096 7.322.209 7.5.141.223 1.35.346 3.898.397l3.694.074v13.494l-3.555.074c-2.068.043-3.7.195-3.902.363-.284.235-.347 5.194-.34 26.78.005 14.572.115 28.31.244 30.53.362 6.228.846 6.804 6 7.148l2.876.192v13.758l-9.922.04c-6.716.026-10.82-.072-12.7-.303zm95.902.067c-.07-.183-.096-26.288-.059-58.012l.068-57.68h27.517l.132 13.362c.112 11.258.19 13.35.502 13.283.204-.044.978-.59 1.72-1.215 4.879-4.101 9.947-5.982 16.118-5.982 4.445 0 7.581.78 11.165 2.775 2.024 1.126 4.84 3.698 6.012 5.493 3.017 4.616 3.171 7.307 3.062 53.512l-.082 34.66-13.741.069c-10.818.054-13.786-.002-13.953-.265-.116-.183-.213-16.848-.215-37.033-.003-25.857-.093-37.293-.303-38.706-.504-3.39-1.998-4.895-4.86-4.895-1.96 0-3.118.646-4.012 2.24-1.26 2.246-1.251 1.99-1.403 41.417l-.142 37.173-13.7.069c-10.819.054-13.726-.002-13.826-.265zm75.141-.002c-.07-.182-.095-26.286-.058-58.01l.068-57.679 19.711.018c20.7.018 22.6.107 28.541 1.334 5.82 1.202 10.431 4.003 13.897 8.441 2.097 2.687 3.806 7.36 4.642 12.697.498 3.182.751 10.13.496 13.626-.379 5.186-1.346 8.368-3.258 10.716-1.574 1.932-6.2 4.235-10.887 5.417-1.174.296-1.649.946-1.095 1.498.187.187 1.412.647 2.722 1.022 4.362 1.25 8.511 3.576 10.255 5.75 2.101 2.62 3.192 5.444 4.086 10.58.62 3.565.614 22.217-.008 26.797-1.217 8.948-3.882 13.285-9.678 15.75-2.268.964-5.223 1.517-10.608 1.984-5.972.519-48.632.57-48.826.06zm35.067-18.898c2.21-.574 3.495-1.442 4.188-2.83 1.053-2.107 1.217-3.971 1.227-13.924.01-9.824-.177-12.062-1.17-13.996-.889-1.73-3.158-2.58-7.618-2.852l-2.712-.165v17.061c0 9.384.089 17.15.198 17.26.27.27 4.102-.09 5.887-.554zm-4.589-1.264c-.218-.57-.23-29.85-.013-30.418.308-.802 5.275-.285 6.79.708.739.484 1.516 2.44 1.516 3.816 0 .865-.018.879-1.188.879h-1.188l-.068 12.104-.07 12.105-.93.456c-.512.25-1.773.533-2.803.629-1.621.15-1.895.113-2.046-.279zm6.338-50.127c2.581-1.118 3.135-2.625 3.59-9.777.342-5.358.062-10.233-.72-12.523-.567-1.658-2.266-3.558-3.51-3.924-1.206-.356-6.29-.813-6.812-.613-.326.126-.382 2.157-.382 13.913v13.766l3.241-.129c2.562-.101 3.524-.25 4.593-.713zm-6.35-1.236c-.089-.23-.161-5.624-.161-11.986 0-8.643.08-11.647.317-11.884.788-.787 5.125.015 6.332 1.17.866.83 1.909 3.365 1.68 4.085-.105.33-.463.508-1.132.564l-.98.081-.065 8.731c-.077 10.4.193 9.658-3.507 9.658-1.875 0-2.355-.081-2.485-.419zm135.305 71.46c-4.15-.51-6.67-1.528-9.225-3.73-1.69-1.456-3.097-3.347-3.71-4.984-1.12-2.997-1.172-4.43-1.331-37.722l-.153-31.882-2.763-.076c-1.52-.042-2.919-.205-3.109-.363-.503-.417-.503-12.728 0-13.145.19-.158 1.59-.321 3.109-.363l2.763-.076.07-7.35.07-7.35.675-.257c.742-.282 24.897-.366 26.271-.09l.827.164.004 6.913c.003 3.801.075 7.177.162 7.5.152.568.285.59 3.899.662l3.74.073v13.494l-3.632.073c-3.35.068-3.655.116-3.923.615-.412.77-.176 58.836.247 60.695.6 2.635 1.605 3.227 5.986 3.525l2.646.18v13.758l-9.922.038c-6.716.027-10.82-.07-12.7-.302zm-279.99-15.471c-1.114-.876-1.781-2.205-2.196-4.377-.56-2.928-.562-53.604-.002-56.218.456-2.128 1.447-3.18 2.99-3.174 2.1.008 3.154 1.17 3.644 4.01.348 2.018.34 2.069-.747 4.85-.227.58-.347 8.115-.448 28.045l-.137 27.253-1.206.078c-.9.059-1.38-.06-1.9-.467zm298.348.138c-1.035-.153-2.057-.426-2.272-.606-.972-.817-1.037-3.04-.953-32.349l.081-28.442 3.836-.133 3.837-.132.073-4.61c.044-2.854.183-4.745.363-4.962.386-.466 4.443-.481 5.074-.02.41.302.445 1.018.381 7.872l-.07 7.54-3.837.133-3.836.132-.067 27.82c-.054 21.92-.138 27.842-.397 27.927-.182.06-1.177-.017-2.213-.17zm-337.577-.05-1.115-.242c-1.265-.269-1.267-.301-1.267-31.737V76.72l3.837-.133 3.836-.132.073-4.75c.052-3.396.165-4.81.397-4.958.582-.37 4.544-.246 5.098.159.495.362.487.405-.292 1.521-1.382 1.98-2.479 4.492-3.159 7.234-.36 1.456-.666 3.003-.68 3.44-.013.436-.163 1.33-.333 1.984-.308 1.183-.318 1.192-1.633 1.323l-1.323.132-.132 27.782-.132 27.781-1.323.041c-.728.023-1.561-.011-1.852-.076zm51.122-36.793c-.422-.11-.464-.423-.397-2.946l.075-2.823 10.848-.067c8.701-.054 10.9-.137 11.112-.422.336-.45.07-9.493-.37-12.608-.477-3.362-1.028-5.855-1.77-7.999-1.022-2.955-1.058-3.182-.486-3.072.786.152 3.69 3.84 5.064 6.432l1.266 2.39.08 10.483.08 10.483-.609.163c-.696.186-24.174.173-24.893-.014zm164.91-6.779c-1.602-1.051-2.912-1.705-5.358-2.672-.546-.215-.992-.547-.992-.737 0-.19.863-.68 1.918-1.088 4.586-1.775 7.009-3.734 8.514-6.883 1.191-2.493 1.67-4.453 1.995-8.152.29-3.315-.017-12.557-.52-15.574-.342-2.061-1.43-6.17-1.984-7.496-.818-1.959-.182-2.04 1.544-.195 2.428 2.597 4.375 6.246 5.34 10.016 1.789 6.982 2.11 18.846.662 24.506-1 3.908-2.744 6.262-6.155 8.304-2.204 1.32-2.916 1.316-4.964-.029zm-342.49-11.624a302.4 302.4 0 0 1-.562-3.77 70477.935 70477.935 0 0 1-1.72-11.906 972.608 972.608 0 0 1-.77-5.424l-.526-3.837c-.16-1.164-.398-3.01-.53-4.1a200.958 200.958 0 0 0-.783-5.425c-.66-4.194-.68-5.051-.128-5.263.637-.244 3.369-.184 3.792.084.419.265.773 2.277 2.382 13.54.59 4.133 1.21 8.378 1.38 9.434.308 1.934.216 4.396-.294 7.87-.15 1.018-.452 3.4-.672 5.291-.22 1.892-.465 3.648-.546 3.903-.243.77-.87.527-1.022-.397zm234.187-21.806c-.097-.097-.176-4.081-.176-8.854 0-10.05-.269-9.226 3.006-9.226 1.45 0 2.095.112 2.399.416.357.357.416 1.412.416 7.49v7.075l-2.628 1.638c-2.82 1.757-2.753 1.725-3.017 1.461zM5.683 59.551c-.207-.249-.281-1.59-.231-4.167l.073-3.8h5.557l.073 3.834c.065 3.374.02 3.874-.38 4.167-.652.476-4.691.449-5.092-.034zm336.988.08c-.406-.235-.463-.718-.46-3.894.004-1.993.102-3.778.221-3.965.158-.25.92-.32 2.84-.265l2.624.076.074 3.835c.065 3.374.02 3.874-.381 4.167-.55.402-4.248.437-4.918.047zM-32.4 58.34l-.28-.803H-44.71c-6.617 0-12.219-.072-12.45-.16-.313-.12-.417-.534-.414-1.654.002-.821.075-1.76.163-2.088l.16-.596 11.809-.003c6.495-.002 12.077-.076 12.404-.163.589-.158.596-.214.596-4.75 0-5.367-.133-5.138 2.974-5.138 3.064 0 2.867-.59 2.785 8.335l-.07 7.673-2.684.075-2.683.075zm-30.03-7.064c-.336-.337-.202-12.92.142-13.265.239-.239 3.743-.317 14.146-.317 13.4 0 13.836.015 14.102.511.293.548.395 12.094.113 12.828-.143.375-1.646.419-14.243.419-7.746 0-14.162-.08-14.26-.176z" style="fill:#cc9ea5;stroke-width:.26458335" transform="matrix(.58603 0 0 .48779 116.709 -13.75)"/><path d="M45.711 162.167c-5.923-.864-10.204-2.494-13.992-5.325-3.322-2.482-3.696-3.267-1.012-2.124 4.435 1.89 8.153 2.435 16.49 2.418 9.102-.02 12.137-.534 17.159-2.907 5.8-2.742 10.473-7.47 13.63-13.793 2.047-4.098 2.755-7.334 2.97-13.579.194-5.632.094-5.336 1.77-5.239l1.38.08.07 10.933.069 10.932-.645 1.597c-1.496 3.704-4.648 8.05-7.702 10.62-4.21 3.543-8.81 5.498-15.075 6.404-3.305.478-11.787.468-15.112-.017zm223.736.122c-6.635-.853-11.294-2.35-14.998-4.82-1.768-1.18-3.731-2.974-3.503-3.203.063-.063.77.126 1.57.422 2.164.8 5.846 1.728 8.288 2.09 3.649.54 15.072.613 18.245.116 7.573-1.186 12.658-3.476 17.093-7.695 3.654-3.478 6.66-8.344 7.75-12.552 1.576-6.072 1.67-7.856 1.67-31.486 0-21.76-.028-22.57-.965-26.804-.155-.7-.215-1.34-.133-1.421.081-.082.579-.068 1.106.031.899.169 1.028.328 2.123 2.611 2.718 5.668 2.825 7.035 2.682 34.015-.121 22.65-.165 23.668-1.202 28.08-1.08 4.59-3.304 8.544-6.897 12.26-4.516 4.671-10.3 7.27-18.627 8.37-2.408.318-11.693.31-14.202-.014zm-428.513-1.655c-.074-.194-.1-1.296-.057-2.447l.078-2.093 10.527-.133c8.96-.112 10.566-.191 10.794-.529.174-.259.251-6.464.222-17.86-.072-27.221.004-42.57.206-42.368.188.189.25.567.97 5.989a533.73 533.73 0 0 0 1.765 12.369c.151.982.384 2.56.519 3.506.134.945.372 2.553.528 3.571.157 1.02.414 2.746.571 3.837.282 1.947.332 35.86.054 36.309-.07.112-5.957.203-13.083.203-10.579 0-12.983-.065-13.094-.354zm37.882.027c-.276-.998-.671-4.247-.542-4.456.085-.138 3.044-.244 6.831-.244 4.946 0 6.789-.086 7.097-.33.24-.192.485-.945.578-1.786.181-1.62.448-3.683 1.065-8.21.228-1.678.541-4.12.695-5.424.154-1.306.39-3.147.524-4.093l.527-3.705c.156-1.09.394-2.817.53-3.836.135-1.019.373-2.745.528-3.836a476.9 476.9 0 0 0 .529-3.837c.135-1.019.374-2.804.532-3.969.158-1.164.47-3.605.692-5.424a372.14 372.14 0 0 1 1.155-8.73c.156-1.092.403-2.878.548-3.97.456-3.433.673-4.405.881-3.938.305.684.018 42.236-.302 43.758-.153.728-.414 2.395-.581 3.704a473.61 473.61 0 0 1-.56 4.234 2613.63 2613.63 0 0 0-1.049 7.673 574.343 574.343 0 0 1-.615 4.365l-.327 2.25-9.322.069c-7.33.054-9.341-.002-9.414-.265zm29.918.154c-.098-.099-.178-1.231-.178-2.516v-2.338h10.268c7.799 0 10.376-.08 10.716-.33.419-.31.453-4.042.514-56.158l.065-55.827h4.763v117.21l-12.985.069c-7.14.037-13.064-.012-13.163-.11zm34.33-.178c-.075-.196-.101-1.299-.058-2.45l.078-2.093 12.17-.133c6.694-.072 12.32-.228 12.502-.346.262-.17.33-8.327.33-39.328 0-35.424.04-39.13.42-39.275.607-.233 3.624-.19 4.013.058.264.167.318 8.742.265 41.998l-.067 41.788-14.758.069c-12.175.056-14.782.006-14.895-.288zm55.998.045c-6.194-.443-9.45-1.584-12.455-4.367-1.75-1.62-1.975-2.097-.86-1.825.401.097 1.264.293 1.919.436 3.95.859 25.814 1.44 26.792.711.394-.293.462-.962.523-5.1l.07-4.762 1.853-.077c3.073-.126 2.909-.573 2.909 7.927v7.231l-8.731.03c-4.803.017-10.211-.075-12.02-.204zm92.764.132c-.098-.098-.179-1.23-.179-2.516v-2.337h11.755c10.334 0 11.806-.05 12.171-.415.374-.375.416-4.206.416-38.22 0-38.436.025-39.494.976-41.356.565-1.106 1.882-1.582 3.157-1.141 1.544.534 2.018 1.38 2.161 3.851.094 1.626.015 2.38-.342 3.253a29.617 29.617 0 0 0-.747 2.062c-.193.63-.33 13.046-.43 38.893l-.145 37.968-14.307.069c-7.87.037-14.388-.012-14.486-.11zm38.627-.002c-.097-.097-.177-1.228-.177-2.513v-2.337h11.527c7.44 0 11.708-.098 12.039-.274.502-.27.511-.933.493-35.388-.021-38.718-.163-44.786-1.188-50.835-.192-1.13-.181-1.156.332-.793.975.69 2.74 2.93 3.51 4.454 2.028 4.017 2.125 6.313 2.126 50.358v37.505h-14.243c-7.834 0-14.323-.08-14.42-.177zm36.512 0c-.338-.338-.198-4.595.155-4.712.182-.06 8.843-.174 19.248-.254 21.054-.16 26.23-.4 31.221-1.447 6.907-1.449 11.353-5.358 13.376-11.764 1.294-4.095 1.66-7.62 1.874-18.027.197-9.609-.104-14.216-1.278-19.579-.159-.727-.344-1.471-.412-1.653-.068-.182.058-.331.28-.331.669 0 2.578 2.389 3.593 4.498l.956 1.984.167 8.467c.155 7.849.595 15.793.903 16.29.406.658.596 4.348.354 6.86-.624 6.47-2.41 11.185-5.343 14.112-5.098 5.086-10.123 5.729-44.787 5.731-11.072.001-20.21-.078-20.307-.175zm168.912-.13c-6.195-.443-9.45-1.584-12.456-4.367-1.75-1.62-1.974-2.097-.859-1.825.4.097 1.264.293 1.919.434 4.044.871 25.801 1.45 26.792.714.393-.294.462-.963.522-5.1l.07-4.763 2.142-.076c1.594-.057 2.221.02 2.452.297.224.27.29 2.382.239 7.617l-.07 7.243-8.732.03c-4.802.017-10.21-.075-12.02-.204zm-292.78-5.256c-5.095-.363-9.255-1.316-12.764-2.926-2.766-1.268-4.211-2.268-6.649-4.597-4.493-4.294-6.713-9.49-7.862-18.4-.555-4.301-.85-35.879-.406-43.391.657-11.1 2.433-15.892 7.572-20.43 6.388-5.641 14.316-8.405 24.117-8.408 15.368-.006 26.908 7.04 30.342 18.523 1.175 3.929 2.177 12.094 1.98 16.136l-.083 1.72-12.815.068c-10.077.054-12.86-.002-13.027-.265-.116-.183-.214-3.13-.217-6.55-.01-9.681-.455-11.959-2.621-13.418-1.263-.85-3.805-.855-5.081-.01-1.616 1.07-2.098 2.524-2.366 7.127-.304 5.224-.309 46.19-.006 50.354.365 5.011 1.542 7.603 3.935 8.662 2.303 1.018 5.097.112 6.19-2.008 1.155-2.241 1.31-3.588 1.459-12.669.104-6.425.226-8.73.47-8.932.216-.18 4.347-.25 12.203-.204l11.876.07-.053 5.291c-.095 9.586-.736 13.677-2.819 17.992-1.509 3.126-2.45 4.574-4.667 7.178-4.627 5.433-11.258 8.38-20.473 9.096-3.501.273-4.287.272-8.236-.01zm222.382-.03c-5.82-.431-10.804-1.648-14.61-3.565-4.312-2.17-6.946-4.87-9.276-9.506-3.195-6.357-3.773-12.684-3.55-38.883.145-17.094.287-19.674 1.361-24.739 2.481-11.697 10.261-18.755 23.032-20.896 5.36-.898 12.37-.729 17.86.432 10.897 2.305 18.62 8.576 21.68 17.605 1.633 4.82 1.867 8.462 1.867 29.066 0 26.127-.515 30.587-4.287 37.105-4.659 8.049-12.57 12.447-24.104 13.402-3.781.313-5.536.31-9.973-.02zm7.781-15.856c1.095-.54 1.742-1.534 2.163-3.323.485-2.06.553-56.579.074-59.326-.245-1.41-.482-1.92-1.298-2.794-.968-1.038-1.055-1.072-2.94-1.156-2.224-.098-3.287.368-4.179 1.834-1.16 1.907-1.205 3.092-1.205 31.577 0 28.421.036 29.353 1.194 31.624.97 1.9 3.968 2.657 6.191 1.564zm-3.26-1.536c-.919-.258-1.666-1.4-1.963-3.004-.392-2.114-.558-52.935-.181-55.767.401-3.023.899-4 2.283-4.478.999-.345 1.161-.333 1.984.146.493.287 1.045.829 1.226 1.204.55 1.136.51 5.15-.067 6.832-.473 1.38-.504 2.829-.595 28.124l-.097 26.67-.662.252c-.735.279-.994.282-1.928.02zm-434.61 15.513c-.07-.184-.097-26.29-.06-58.013l.068-57.68 18.818-.067c14.858-.054 18.872.002 19.076.265.142.182.517 1.999.833 4.036.316 2.038.684 4.36.818 5.16a194 194 0 0 1 .681 4.762c.24 1.82 1.088 7.891 1.884 13.494.796 5.602 1.922 13.58 2.502 17.727.58 4.147 1.17 7.817 1.31 8.154.176.427.43.588.835.53.805-.117.486 1.882 3.516-22.046.793-6.257 1.558-12.27 1.701-13.361.487-3.717 1.364-10.442 1.877-14.401.31-2.392.645-4.035.848-4.165.184-.117 8.788-.185 19.12-.15l18.785.063v115.887h-24.87l-.136-39.158c-.074-21.537-.163-39.188-.198-39.224-.035-.037-.348-.067-.696-.067-.842 0-.655-.973-2.416 12.568l-.655 5.027c-.133 1.019-.78 5.781-1.436 10.584-.656 4.802-1.44 10.636-1.742 12.964-.787 6.081-.972 7.47-1.586 11.906-.5 3.613-2.218 16.562-2.93 22.093-.16 1.237-.396 2.517-.526 2.844l-.236.596h-8.589c-4.724 0-8.646-.093-8.715-.205-.13-.211-.922-5.36-2.287-14.877-.428-2.983-1.445-10.007-2.259-15.61-.814-5.603-2.242-15.485-3.174-21.96-3.802-26.44-3.4-23.959-3.915-24.156-1.138-.437-1.095-1.78-1.235 38.5l-.132 38.175-12.376.07c-9.76.053-12.404-.003-12.504-.265zm102.182.151c-.097-.097-.177-21.326-.177-47.175 0-36.202.073-47.072.318-47.316.458-.458 27.746-.458 28.204 0 .245.244.318 11.06.318 47.074 0 25.716-.073 46.945-.16 47.175-.144.375-1.647.419-14.244.419-7.746 0-14.162-.08-14.26-.177zm52.74-.219c-4.15-.51-6.67-1.528-9.226-3.73-2.72-2.345-3.988-4.704-4.562-8.493-.221-1.456-.36-11.52-.473-34.08l-.159-32.015L-27.15 75l-3.042-.132V61.373l3.042-.132 3.043-.133.07-7.35.07-7.35.675-.257c.743-.282 24.897-.366 26.272-.09l.827.164.004 7.177c.002 3.947.096 7.322.209 7.5.141.223 1.35.346 3.898.397l3.694.074v13.494l-3.555.074c-2.068.043-3.7.195-3.902.363-.284.235-.347 5.194-.34 26.78.005 14.572.115 28.31.244 30.53.362 6.228.846 6.804 6 7.148l2.876.192v13.758l-9.922.04c-6.716.026-10.82-.072-12.7-.303zm95.902.067c-.07-.183-.096-26.288-.059-58.012l.068-57.68h27.517l.132 13.362c.112 11.258.19 13.35.502 13.283.204-.044.978-.59 1.72-1.215 4.879-4.101 9.947-5.982 16.118-5.982 4.445 0 7.581.78 11.165 2.775 2.024 1.126 4.84 3.698 6.012 5.493 3.017 4.616 3.171 7.307 3.062 53.512l-.082 34.66-13.741.069c-10.818.054-13.786-.002-13.953-.265-.116-.183-.213-16.848-.215-37.033-.003-25.857-.093-37.293-.303-38.706-.504-3.39-1.998-4.895-4.86-4.895-1.96 0-3.118.646-4.012 2.24-1.26 2.246-1.251 1.99-1.403 41.417l-.142 37.173-13.7.069c-10.819.054-13.726-.002-13.826-.265zm75.141-.002c-.07-.182-.095-26.286-.058-58.01l.068-57.679 19.711.018c20.7.018 22.6.107 28.541 1.334 5.82 1.202 10.431 4.003 13.897 8.441 2.097 2.687 3.806 7.36 4.642 12.697.498 3.182.751 10.13.496 13.626-.379 5.186-1.346 8.368-3.258 10.716-1.574 1.932-6.2 4.235-10.887 5.417-1.174.296-1.649.946-1.095 1.498.187.187 1.412.647 2.722 1.022 4.362 1.25 8.511 3.576 10.255 5.75 2.101 2.62 3.192 5.444 4.086 10.58.62 3.565.614 22.217-.008 26.797-1.217 8.948-3.882 13.285-9.678 15.75-2.268.964-5.223 1.517-10.608 1.984-5.972.519-48.632.57-48.826.06zm35.067-18.898c2.21-.574 3.495-1.442 4.188-2.83 1.053-2.107 1.217-3.971 1.227-13.924.01-9.824-.177-12.062-1.17-13.996-.889-1.73-3.158-2.58-7.618-2.852l-2.712-.165v17.061c0 9.384.089 17.15.198 17.26.27.27 4.102-.09 5.887-.554zm-4.1-1.708c-.076-.199-.107-7.03-.07-15.179l.07-14.816.728-.084c1.103-.127 4.604.73 5.335 1.305.765.601 1.592 3.084 1.19 3.569-.144.173-.483.257-.754.186-.27-.071-.742.005-1.046.167-.548.293-.554.426-.622 12.257l-.07 11.961-.793.385c-1.134.55-3.789.717-3.967.25zm5.849-49.683c2.581-1.118 3.135-2.625 3.59-9.777.342-5.358.062-10.233-.72-12.523-.567-1.658-2.266-3.558-3.51-3.924-1.206-.356-6.29-.813-6.812-.613-.326.126-.382 2.157-.382 13.913v13.766l3.241-.129c2.562-.101 3.524-.25 4.593-.713zm-5.665-1.4c-.237-.237-.317-3.241-.317-11.888 0-10.844.03-11.58.469-11.72.258-.082 1.414.032 2.57.253 2.763.529 3.787 1.471 4.244 3.905.183.978.18.983-.718.983-.497 0-1.046.142-1.22.317-.234.234-.318 2.596-.318 8.98 0 8.653 0 8.665-.588 9.076-.71.498-3.65.565-4.122.094zm134.62 71.625c-4.15-.51-6.67-1.529-9.225-3.73-1.69-1.456-3.097-3.348-3.71-4.984-1.12-2.998-1.172-4.43-1.331-37.723l-.153-31.882-2.763-.076c-1.52-.042-2.919-.205-3.109-.363-.503-.417-.503-12.728 0-13.145.19-.158 1.59-.321 3.109-.363l2.763-.076.07-7.35.07-7.35.675-.257c.742-.282 24.897-.366 26.271-.09l.827.164.004 6.913c.003 3.801.075 7.177.162 7.5.152.568.285.59 3.899.662l3.74.073v13.494l-3.632.073c-3.35.068-3.655.116-3.923.615-.412.77-.176 58.836.247 60.695.6 2.635 1.605 3.227 5.986 3.525l2.646.18v13.758l-9.922.038c-6.716.027-10.82-.07-12.7-.302zM48.161 137.962c-1.121-.336-1.679-.955-2.347-2.608l-.601-1.485v-28.443c0-26.985.025-28.488.48-29.324.642-1.175 2.023-1.764 3.215-1.37 1.309.431 1.69 1.028 2.163 3.39.426 2.122.423 2.172-.162 3.533-.375.87-.68 2.318-.823 3.911-.126 1.391-.227 13.712-.225 27.378.003 20.005-.063 24.891-.338 25.066-.394.25-.367.25-1.362-.048zm-39.894-.235c-1.64-.23-1.997-.588-2.215-2.217-.101-.757-.235-14.1-.296-29.652-.084-21.045-.034-28.368.192-28.64.232-.28 1.171-.367 3.975-.367h3.672v-4.476c0-2.462.073-4.665.16-4.895.13-.335.6-.419 2.366-.419 1.213 0 2.27.105 2.35.234.08.128-.076.515-.344.86-.73.937-2.32 4.147-2.809 5.674-.237.739-.695 2.882-1.019 4.762l-.587 3.42-1.178.084c-.647.046-1.329.21-1.513.363-.268.222-.336 5.897-.336 27.895v27.617l-.596-.036a30.997 30.997 0 0 1-1.822-.207zm336.924 0c-1.691-.205-1.948-.444-2.214-2.06-.115-.698-.216-14.145-.224-29.882-.015-25.856.024-28.628.402-28.773.23-.089 1.944-.161 3.809-.161 2.846 0 3.415-.067 3.55-.419.088-.23.16-2.432.16-4.894V67.06h4.771l-.07 7.475-.07 7.474-3.572.071c-2.977.06-3.627.145-3.903.514-.26.347-.33 6.348-.33 27.909 0 25.996-.026 27.464-.464 27.428a70.837 70.837 0 0 1-1.845-.205zm-286.239-37.15c-.075-.197-.102-1.3-.059-2.45l.078-2.094 10.901-.132c7.88-.096 10.988-.219 11.214-.445.406-.406-.096-11.899-.663-15.165-.396-2.29-1.248-5.717-1.745-7.024-.446-1.174-.131-1.036 1.233.54 1.625 1.877 3.125 4.535 3.807 6.748.494 1.603.525 2.347.46 10.98l-.071 9.26-12.51.07c-10.296.056-12.532.005-12.645-.289zm165.78-6.174c-.509-.372-2.146-1.262-3.637-1.977-1.492-.715-2.712-1.335-2.712-1.378 0-.043.922-.477 2.05-.963 4.307-1.86 6.786-3.993 8.183-7.044.73-1.594.917-2.249 1.543-5.396.474-2.385.55-12.957.113-15.937-.494-3.376-1.304-7.054-1.967-8.933-.203-.575-.277-1.103-.164-1.172.51-.316 3.674 4.246 4.705 6.784 1.827 4.497 2.905 12.673 2.642 20.051-.226 6.338-1.096 9.878-3.142 12.777-1.03 1.46-4.863 3.905-6.081 3.88-.334-.008-1.023-.319-1.532-.692zm-343.014-12.98c-.56-3.77-.724-4.87-.972-6.556a817.773 817.773 0 0 0-1.018-6.813c-.576-3.724-.82-5.454-1.202-8.533-.493-3.968-.85-6.65-1.181-8.864-.142-.946-.378-2.59-.526-3.655-.147-1.064-.337-2.048-.422-2.185-.085-.137-.08-.487.013-.777.143-.453.402-.527 1.853-.527.928 0 1.759.117 1.847.26.314.509 3.3 21.167 3.48 24.082.126 2.043-.018 3.965-.702 9.393-.47 3.725-.696 5.152-.837 5.294-.08.08-.23-.425-.333-1.12zm422.058-6.205c-.23-.63-.503-1.443-.606-1.807l-.186-.661.68.628c.767.708 1.13 1.915.771 2.558-.191.341-.324.197-.659-.718zM116.051 52.211l.07-8.565h4.498v14.228l-1.587.969c-.873.533-1.917 1.186-2.32 1.451l-.73.483zM5.985 59.081c-.343-.343-.48-5.865-.167-6.682.13-.339.613-.419 2.521-.419h2.36l-.073 3.638-.073 3.638-2.12.076c-1.423.05-2.229-.032-2.448-.251zm336.938.14c-.102-.102-.186-1.773-.186-3.713V51.98H347.514l-.073 3.638-.074 3.638-2.129.076c-1.17.042-2.212-.008-2.315-.11zm-374.836-1.288-.252-.661h-12.124c-9.077 0-12.204-.08-12.442-.318-.175-.174-.318-.924-.318-1.667 0-.742.143-1.492.318-1.666.238-.238 3.363-.318 12.435-.318 6.665 0 12.141-.03 12.169-.066.028-.037.117-2.21.198-4.829l.148-4.762h4.498l.07 7.474.07 7.475h-2.259c-2.167 0-2.27-.027-2.511-.662zm-30.515-6.658c-.337-.337-.203-12.92.14-13.265.24-.239 3.744-.317 14.147-.317 13.4 0 13.836.015 14.102.511.293.548.395 12.094.113 12.828-.143.375-1.646.419-14.243.419-7.746 0-14.162-.08-14.26-.176z" style="fill:#5a96f1;stroke-width:.26458335" transform="matrix(.58603 0 0 .48779 116.709 -13.75)"/><path d="M45.711 162.167c-5.923-.864-10.204-2.494-13.992-5.325-3.322-2.482-3.696-3.267-1.012-2.124 4.435 1.89 8.153 2.435 16.49 2.418 9.102-.02 12.137-.534 17.159-2.907 5.8-2.742 10.473-7.47 13.63-13.793 2.047-4.098 2.755-7.334 2.97-13.579.194-5.632.094-5.336 1.77-5.239l1.38.08.07 10.933.069 10.932-.645 1.597c-1.496 3.704-4.648 8.05-7.702 10.62-4.21 3.543-8.81 5.498-15.075 6.404-3.305.478-11.787.468-15.112-.017zm223.736.122c-6.635-.853-11.294-2.35-14.998-4.82-1.768-1.18-3.731-2.974-3.503-3.203.063-.063.77.126 1.57.422 2.164.8 5.846 1.728 8.288 2.09 3.649.54 15.072.613 18.245.116 7.573-1.186 12.658-3.476 17.093-7.695 3.654-3.478 6.66-8.344 7.75-12.552 1.576-6.072 1.67-7.856 1.67-31.486 0-21.76-.028-22.57-.965-26.804-.155-.7-.215-1.34-.133-1.421.081-.082.579-.068 1.106.031.899.169 1.028.328 2.123 2.611 2.718 5.668 2.825 7.035 2.682 34.015-.121 22.65-.165 23.668-1.202 28.08-1.08 4.59-3.304 8.544-6.897 12.26-4.516 4.671-10.3 7.27-18.627 8.37-2.408.318-11.693.31-14.202-.014zm-428.513-1.655c-.074-.194-.1-1.296-.057-2.447l.078-2.093 10.527-.133c8.96-.112 10.566-.191 10.794-.529.174-.259.251-6.464.222-17.86-.072-27.221.004-42.57.206-42.368.188.189.25.567.97 5.989a533.73 533.73 0 0 0 1.765 12.369c.151.982.384 2.56.519 3.506.134.945.372 2.553.528 3.571.157 1.02.414 2.746.571 3.837.282 1.947.332 35.86.054 36.309-.07.112-5.957.203-13.083.203-10.579 0-12.983-.065-13.094-.354zm37.882.027c-.276-.998-.671-4.247-.542-4.456.085-.138 3.044-.244 6.831-.244 4.946 0 6.789-.086 7.097-.33.24-.192.485-.945.578-1.786.181-1.62.448-3.683 1.065-8.21.228-1.678.541-4.12.695-5.424.154-1.306.39-3.147.524-4.093l.527-3.705c.156-1.09.394-2.817.53-3.836.135-1.019.373-2.745.528-3.836a476.9 476.9 0 0 0 .529-3.837c.135-1.019.374-2.804.532-3.969.158-1.164.47-3.605.692-5.424a372.14 372.14 0 0 1 1.155-8.73c.156-1.092.403-2.878.548-3.97.456-3.433.673-4.405.881-3.938.305.684.018 42.236-.302 43.758-.153.728-.414 2.395-.581 3.704a473.61 473.61 0 0 1-.56 4.234 2613.63 2613.63 0 0 0-1.049 7.673 574.343 574.343 0 0 1-.615 4.365l-.327 2.25-9.322.069c-7.33.054-9.341-.002-9.414-.265zm29.918.154c-.098-.099-.178-1.231-.178-2.516v-2.338h10.268c7.799 0 10.376-.08 10.716-.33.419-.31.453-4.042.514-56.158l.065-55.827h4.763v117.21l-12.985.069c-7.14.037-13.064-.012-13.163-.11zm34.33-.178c-.075-.196-.101-1.299-.058-2.45l.078-2.093 12.17-.133c6.694-.072 12.32-.228 12.502-.346.262-.17.33-8.327.33-39.328 0-35.424.04-39.13.42-39.275.607-.233 3.624-.19 4.013.058.264.167.318 8.742.265 41.998l-.067 41.788-14.758.069c-12.175.056-14.782.006-14.895-.288zm55.998.045c-6.194-.443-9.45-1.584-12.455-4.367-1.75-1.62-1.975-2.097-.86-1.825.401.097 1.264.293 1.919.436 3.95.859 25.814 1.44 26.792.711.394-.293.462-.962.523-5.1l.07-4.762 1.853-.077c3.073-.126 2.909-.573 2.909 7.927v7.231l-8.731.03c-4.803.017-10.211-.075-12.02-.204zm92.764.132c-.098-.098-.179-1.23-.179-2.516v-2.337h11.755c10.334 0 11.806-.05 12.171-.415.374-.375.416-4.206.416-38.22 0-38.436.025-39.494.976-41.356.565-1.106 1.882-1.582 3.157-1.141 1.544.534 2.018 1.38 2.161 3.851.094 1.626.015 2.38-.342 3.253a29.617 29.617 0 0 0-.747 2.062c-.193.63-.33 13.046-.43 38.893l-.145 37.968-14.307.069c-7.87.037-14.388-.012-14.486-.11zm38.627-.002c-.097-.097-.177-1.228-.177-2.513v-2.337h11.527c7.44 0 11.708-.098 12.039-.274.502-.27.511-.933.493-35.388-.021-38.718-.163-44.786-1.188-50.835-.192-1.13-.181-1.156.332-.793.975.69 2.74 2.93 3.51 4.454 2.028 4.017 2.125 6.313 2.126 50.358v37.505h-14.243c-7.834 0-14.323-.08-14.42-.177zm36.512 0c-.338-.338-.198-4.595.155-4.712.182-.06 8.843-.174 19.248-.254 21.054-.16 26.23-.4 31.221-1.447 6.907-1.449 11.353-5.358 13.376-11.764 1.294-4.095 1.66-7.62 1.874-18.027.197-9.609-.104-14.216-1.278-19.579-.159-.727-.344-1.471-.412-1.653-.068-.182.058-.331.28-.331.669 0 2.578 2.389 3.593 4.498l.956 1.984.167 8.467c.155 7.849.595 15.793.903 16.29.406.658.596 4.348.354 6.86-.624 6.47-2.41 11.185-5.343 14.112-5.098 5.086-10.123 5.729-44.787 5.731-11.072.001-20.21-.078-20.307-.175zm168.912-.13c-6.195-.443-9.45-1.584-12.456-4.367-1.75-1.62-1.974-2.097-.859-1.825.4.097 1.264.293 1.919.434 4.044.871 25.801 1.45 26.792.714.393-.294.462-.963.522-5.1l.07-4.763 2.142-.076c1.594-.057 2.221.02 2.452.297.224.27.29 2.382.239 7.617l-.07 7.243-8.732.03c-4.802.017-10.21-.075-12.02-.204zm-292.384-5.778c-6.993-.504-12.273-2.017-16.14-4.624-1.836-1.238-4.85-4.128-5.981-5.737-1.504-2.137-3.047-5.522-3.712-8.144-1.535-6.04-1.938-12.649-1.932-31.634.007-22.657.574-28.35 3.339-33.501 1.76-3.282 6.712-7.667 11.159-9.883 1.93-.963 6.15-2.382 8.24-2.772.946-.177 2.291-.43 2.99-.564 1.654-.317 9.948-.315 11.379.003.61.135 1.883.385 2.829.555 5.496.986 11.778 4.085 15.44 7.617 5.12 4.938 7.126 10.95 7.723 23.135l.192 3.906-12.538-.07-12.537-.068-.16-7.937c-.148-7.265-.21-8.063-.731-9.416-.974-2.528-2.555-3.528-5.33-3.372-3.276.186-4.495 1.773-4.999 6.514-.458 4.306-.39 50.82.078 53.939.378 2.516 1.35 5.046 2.36 6.145 2.215 2.41 6.824 1.972 8.45-.801 1.392-2.376 1.559-3.631 1.712-12.854.105-6.317.227-8.599.47-8.8.216-.18 4.184-.25 11.674-.204l11.347.07-.064 5.027c-.11 8.661-.77 13.271-2.424 16.918-4.334 9.56-11.672 14.92-22.25 16.25-3.28.412-7.414.53-10.584.302zm224.5.099c-2.708-.154-7.358-.645-8.468-.896-4.926-1.11-6.363-1.616-9.515-3.35-4.68-2.574-8.269-7.605-9.879-13.845-1.277-4.95-1.635-11.393-1.634-29.369.003-19.796.433-25.891 2.264-32.013 1.237-4.136 4.748-9.395 7.52-11.264.509-.344 1.45-.995 2.09-1.448 2.35-1.664 6.948-3.482 10.61-4.195.8-.156 2.086-.405 2.857-.553 1.873-.359 9.972-.346 12.62.02 11.647 1.613 19.543 6.587 23.694 14.925 2.86 5.744 3.161 8.779 3.16 31.75-.003 20.819-.338 26.652-1.811 31.422-2.297 7.435-7.515 13.25-14.521 16.178-2.084.871-6.186 1.902-8.934 2.244-2.506.313-7.817.52-10.054.394zm5.29-14.885c1.485-.681 1.978-1.338 2.547-3.39.471-1.698.496-3.233.496-30.185 0-32.18.053-31.247-1.854-32.97-2.381-2.15-6.748-1.449-8.05 1.295-1.048 2.207-1.076 3.029-1.076 31.484 0 29.229.007 29.411 1.265 31.865 1.102 2.152 4.203 3.035 6.673 1.901zM270 138.004c-.919-.258-1.666-1.4-1.963-3.004-.392-2.114-.558-52.935-.181-55.767.401-3.023.899-4 2.283-4.478.999-.345 1.161-.333 1.984.146.493.287 1.045.829 1.226 1.204.55 1.136.51 5.15-.067 6.832-.473 1.38-.504 2.828-.595 28.124l-.097 26.67-.662.252c-.735.279-.994.282-1.928.02zm-434.14-42.169.067-57.48 17.992-.074c9.896-.04 18.236-.014 18.534.058.477.115.614.583 1.146 3.91.938 5.862 1.043 6.544 1.35 8.805.159 1.165.396 2.891.529 3.837.132.946.365 2.672.517 3.836a1355.59 1355.59 0 0 0 2.156 15.082c.27 1.742.682 4.608 1.045 7.276.13.946.348 2.493.485 3.44.138.945.398 2.85.578 4.233.447 3.443.565 3.704 1.667 3.704.495 0 1.014-.15 1.152-.331.347-.455 1.032-5.273 3-21.1.153-1.237.387-3.083.52-4.102.132-1.018.37-2.983.53-4.365.16-1.383.398-3.228.528-4.101.414-2.781 1.836-13.807 2.25-17.446.099-.863.284-1.846.413-2.184l.233-.614 18.46.067 18.461.068.067 57.484.067 57.483-11.973-.069-11.973-.068-.133-38.982c-.13-38.55-.138-38.985-.66-39.366-.732-.536-1.527-.356-1.888.428-.167.364-.509 2.269-.758 4.233-.764 6.01-.882 6.932-1.192 9.26l-.526 3.97c-.125.945-.35 2.612-.5 3.704-.259 1.871-1.54 11.37-2.16 16.007-.155 1.164-.39 2.89-.52 3.836-.132.946-.371 2.792-.533 4.101-.162 1.31-.4 3.096-.531 3.97-.338 2.265-1.364 9.875-2.39 17.726-.152 1.164-.384 2.89-.515 3.837a542.661 542.661 0 0 0-.884 6.879c-.04.342-1.211.406-8.444.467-4.618.038-8.397.028-8.397-.023 0-.124-1.832-12.61-2.143-14.6-.23-1.471-.413-2.786-1.013-7.275-.262-1.958-2.044-14.136-2.42-16.537-.354-2.26-.784-5.302-1.545-10.914a2124.527 2124.527 0 0 0-2.426-16.603c-.424-2.724-.782-5.22-1.027-7.153-.33-2.617-.53-3.274-1.08-3.57-.6-.32-1.702.061-1.935.67-.093.242-.169 17.456-.169 38.253v37.814h-24.079zM-61.9 153.14c-.096-.097-.176-21.231-.176-46.965v-46.79l13.825.068 13.824.069.073 46.302c.04 25.466.008 46.57-.071 46.897l-.144.596h-13.577c-7.467 0-13.656-.08-13.753-.177zM-9.158 153c-5.369-.646-8.98-2.493-11.44-5.853-1.404-1.917-1.94-3.356-2.356-6.34-.208-1.485-.355-12.337-.464-34.19l-.16-32.015-3.042-.132-3.043-.132-.071-6.284-.071-6.284h2.761c1.519 0 2.95-.072 3.18-.16.368-.142.419-1.04.419-7.356 0-5.243.086-7.28.317-7.512.238-.238 3.476-.318 12.943-.318 6.944 0 12.814.072 13.044.16.367.142.419 1.041.419 7.377 0 5.642.075 7.278.348 7.504.202.168 1.834.32 3.902.363l3.555.074v12.436l-3.555.074c-2.068.043-3.7.195-3.902.363-.284.236-.348 5.43-.346 28.104.002 26.588.143 32.7.803 34.721.573 1.754 1.957 2.382 5.941 2.696l2.382.188.07 6.416.071 6.416-9.86-.039c-5.423-.02-10.753-.145-11.845-.277zm95.956.14c-.097-.098-.177-25.86-.177-57.25 0-47.88.058-57.122.361-57.373.26-.217 3.965-.28 13.295-.231l12.935.068.132 13.49c.12 12.208.174 13.499.565 13.574.237.046 1.25-.62 2.249-1.481 4.963-4.274 9.848-6.135 16.104-6.135 4.699 0 8.091.938 11.641 3.22 3.279 2.106 5.413 4.64 6.442 7.648 1.459 4.266 1.628 9.41 1.628 49.386v35.26H124.985v-37.157c0-32.382-.052-37.406-.406-39.092-.672-3.203-2.346-4.714-5.223-4.714-2.425 0-3.975.975-4.84 3.044-1.108 2.653-1.156 4.367-1.164 42.001l-.008 35.918h-13.186c-7.251 0-13.264-.08-13.361-.177zm75.03-57.305.067-57.48 19.447.015c16.668.013 19.909.078 22.677.458 5.91.811 8.259 1.41 11.587 2.956 2.05.953 5.693 3.71 6.392 4.84.247.4.778 1.083 1.18 1.52 3.548 3.857 5.872 16.461 4.88 26.458-.534 5.377-1.651 8.485-3.776 10.504-1.123 1.067-5.04 3.006-7.66 3.792-3.383 1.015-3.759 1.183-3.94 1.753-.308.97.512 1.706 2.443 2.19 3.917.981 8.455 3.279 10.32 5.224 2.177 2.272 3.669 5.942 4.463 10.984.617 3.92.429 25.233-.255 28.789-.96 4.99-2.763 8.71-5.265 10.86-1.37 1.177-4.29 2.599-6.401 3.117-5.26 1.292-10.013 1.5-34.081 1.5H161.76zm32.875 39.654c5.37-.813 6.868-2.463 7.548-8.316.378-3.252.192-19.1-.248-21.072-.68-3.05-1.782-4.232-4.677-5.015-1.757-.475-6.24-.959-7.013-.757-.49.128-.504.637-.504 17.55 0 16.31.03 17.436.463 17.689.627.365 1.617.347 4.431-.079zm-2.38-2.58c-.076-.2-.107-7.03-.07-15.18l.07-14.816.728-.084c1.103-.127 4.604.73 5.335 1.305.765.601 1.592 3.084 1.19 3.569-.144.173-.483.257-.754.186-.27-.071-.742.005-1.046.167-.548.293-.554.426-.622 12.257l-.07 11.961-.793.385c-1.134.55-3.789.717-3.967.25zm4.821-48.76c4.096-1.09 4.897-3.026 5.262-12.722.336-8.916-.93-13.237-4.316-14.735-1.195-.529-6.597-1.155-7.66-.889l-.621.156v14.106c0 7.759.08 14.186.176 14.283.325.325 5.76.174 7.16-.198zm-4.637-2.324c-.237-.237-.317-3.241-.317-11.888 0-10.844.03-11.58.469-11.72.258-.082 1.414.032 2.57.253 2.763.529 3.787 1.471 4.244 3.905.183.978.18.983-.718.983-.497 0-1.046.142-1.22.317-.234.234-.318 2.596-.318 8.98 0 8.653 0 8.665-.588 9.076-.71.498-3.65.565-4.122.094zm134.753 71.102c-3.976-.528-6.002-1.3-8.754-3.333-1.543-1.139-3.298-3.586-3.923-5.47-.96-2.889-1.02-4.775-1.184-37.375l-.162-32.147-3.043-.132-3.043-.133V61.902l2.514-.066c1.382-.036 2.781-.128 3.109-.203l.595-.138v-7.239c0-5.79.072-7.298.361-7.538.26-.216 3.964-.28 13.295-.23l12.935.068.07 7.254c.047 4.812.17 7.373.363 7.607.218.263 1.23.353 3.97.353h3.676l-.07 6.284-.072 6.283-3.554.075c-2.068.043-3.7.195-3.903.363-.284.235-.348 5.457-.348 28.256 0 26.89.13 32.385.816 34.57.549 1.747 1.943 2.38 5.931 2.695l2.381.187.071 6.416.071 6.417-9.86-.036c-5.928-.022-10.81-.162-12.242-.353zM48.16 137.962c-1.121-.336-1.679-.955-2.347-2.608l-.601-1.485v-28.443c0-26.985.025-28.488.48-29.324.642-1.175 2.023-1.764 3.215-1.37 1.309.431 1.69 1.028 2.163 3.39.426 2.122.423 2.172-.162 3.533-.375.87-.68 2.318-.823 3.911-.126 1.391-.227 13.712-.225 27.378.003 20.005-.063 24.891-.338 25.066-.394.25-.367.25-1.362-.048zm-39.894-.235c-1.64-.23-1.997-.588-2.215-2.217-.101-.757-.235-14.1-.296-29.652-.084-21.045-.034-28.368.192-28.64.232-.28 1.171-.367 3.975-.367h3.672v-4.476c0-2.462.073-4.665.16-4.895.13-.335.6-.419 2.366-.419 1.213 0 2.27.105 2.35.234.08.128-.076.515-.344.86-.73.937-2.32 4.147-2.809 5.674-.237.739-.695 2.882-1.019 4.762l-.587 3.42-1.178.084c-.647.046-1.329.21-1.513.363-.268.222-.336 5.897-.336 27.895v27.617l-.596-.036a30.997 30.997 0 0 1-1.822-.207zm336.924 0c-1.691-.205-1.948-.444-2.214-2.06-.115-.698-.216-14.145-.224-29.882-.015-25.856.024-28.628.402-28.773.23-.089 1.944-.161 3.809-.161 2.846 0 3.415-.067 3.55-.419.088-.23.16-2.432.16-4.894V67.06h4.771l-.07 7.475-.07 7.474-3.572.071c-2.977.06-3.627.145-3.903.514-.26.347-.33 6.348-.33 27.909 0 25.996-.026 27.464-.464 27.428a70.837 70.837 0 0 1-1.845-.205zm-286.239-37.15c-.075-.197-.102-1.3-.059-2.45l.078-2.094 10.901-.132c7.88-.096 10.988-.219 11.214-.445.406-.406-.096-11.899-.663-15.165-.396-2.29-1.248-5.717-1.745-7.024-.446-1.174-.131-1.036 1.233.54 1.625 1.877 3.125 4.535 3.807 6.748.494 1.603.525 2.347.46 10.98l-.071 9.26-12.51.07c-10.296.056-12.532.005-12.645-.289zm165.78-6.174c-.509-.372-2.146-1.262-3.637-1.977-1.492-.715-2.712-1.335-2.712-1.378 0-.043.922-.477 2.05-.963 4.307-1.86 6.786-3.993 8.183-7.044.73-1.594.917-2.249 1.543-5.396.474-2.385.55-12.957.113-15.937-.494-3.376-1.304-7.054-1.967-8.933-.203-.575-.277-1.103-.164-1.172.51-.316 3.674 4.246 4.705 6.784 1.827 4.497 2.905 12.673 2.642 20.051-.226 6.338-1.096 9.878-3.142 12.777-1.03 1.46-4.863 3.905-6.081 3.88-.334-.008-1.023-.319-1.532-.692zm-343.014-12.98c-.56-3.77-.724-4.87-.972-6.556a817.773 817.773 0 0 0-1.018-6.813c-.576-3.724-.82-5.454-1.202-8.533-.493-3.968-.85-6.65-1.181-8.864-.142-.946-.378-2.59-.526-3.655-.147-1.064-.337-2.048-.422-2.185-.085-.137-.08-.487.013-.777.143-.453.402-.527 1.853-.527.928 0 1.759.117 1.847.26.314.509 3.3 21.167 3.48 24.082.126 2.043-.018 3.965-.702 9.393-.47 3.725-.696 5.152-.837 5.294-.08.08-.23-.425-.333-1.12zm422.058-6.205c-.23-.63-.503-1.443-.606-1.807l-.186-.661.68.628c.767.708 1.13 1.915.771 2.558-.191.341-.324.197-.659-.718zM116.051 52.211l.07-8.565h4.498v14.228l-1.587.969c-.873.533-1.917 1.186-2.32 1.451l-.73.483zM5.985 59.081c-.343-.343-.48-5.865-.167-6.682.13-.339.613-.419 2.521-.419h2.36l-.073 3.638-.073 3.638-2.12.076c-1.423.05-2.229-.032-2.448-.251zm336.938.14c-.102-.102-.186-1.773-.186-3.713V51.98H347.514l-.073 3.638-.074 3.638-2.129.076c-1.17.042-2.212-.008-2.315-.11zm-374.836-1.288-.252-.661h-12.124c-9.077 0-12.204-.08-12.442-.318-.175-.174-.318-.924-.318-1.667 0-.742.143-1.492.318-1.666.238-.238 3.363-.318 12.435-.318 6.665 0 12.141-.03 12.169-.066.028-.037.117-2.21.198-4.829l.148-4.762h4.498l.07 7.474.07 7.475h-2.259c-2.167 0-2.27-.027-2.511-.662zm-30.163-13.198c0-5.402.054-6.213.419-6.353.23-.088 6.347-.16 13.594-.16 10.86 0 13.228.064 13.477.364.211.255.28 2.14.23 6.284l-.07 5.92-13.825.068-13.825.068z" style="fill:#3e7ee4;stroke-width:.26458335" transform="matrix(.58603 0 0 .48779 116.709 -13.75)"/><path d="M45.711 162.167c-5.923-.864-10.204-2.494-13.992-5.325-3.322-2.482-3.696-3.267-1.012-2.124 4.435 1.89 8.153 2.435 16.49 2.418 9.102-.02 12.137-.534 17.159-2.907 5.8-2.742 10.473-7.47 13.63-13.793 2.047-4.098 2.755-7.334 2.97-13.579.194-5.632.094-5.336 1.77-5.239l1.38.08.07 10.933.069 10.932-.645 1.597c-1.496 3.704-4.648 8.05-7.702 10.62-4.21 3.543-8.81 5.498-15.075 6.404-3.305.478-11.787.468-15.112-.017zm223.736.122c-6.635-.853-11.294-2.35-14.998-4.82-1.768-1.18-3.731-2.974-3.503-3.203.063-.063.77.126 1.57.422 2.164.8 5.846 1.728 8.288 2.09 3.649.54 15.072.613 18.245.116 7.573-1.186 12.658-3.476 17.093-7.695 3.654-3.478 6.66-8.344 7.75-12.552 1.576-6.072 1.67-7.856 1.67-31.486 0-21.76-.028-22.57-.965-26.804-.155-.7-.215-1.34-.133-1.421.081-.082.579-.068 1.106.031.899.169 1.028.328 2.123 2.611 2.718 5.668 2.825 7.035 2.682 34.015-.121 22.65-.165 23.668-1.202 28.08-1.08 4.59-3.304 8.544-6.897 12.26-4.516 4.671-10.3 7.27-18.627 8.37-2.408.318-11.693.31-14.202-.014zm-428.513-1.655c-.074-.194-.1-1.296-.057-2.447l.078-2.093 10.527-.133c8.96-.112 10.566-.191 10.794-.529.174-.259.251-6.464.222-17.86-.072-27.221.004-42.57.206-42.368.188.189.25.567.97 5.989a533.73 533.73 0 0 0 1.765 12.369c.151.982.384 2.56.519 3.506.134.945.372 2.553.528 3.571.157 1.02.414 2.746.571 3.837.282 1.947.332 35.86.054 36.309-.07.112-5.957.203-13.083.203-10.579 0-12.983-.065-13.094-.354zm37.882.027c-.276-.998-.671-4.247-.542-4.456.085-.138 3.044-.244 6.831-.244 4.946 0 6.789-.086 7.097-.33.24-.192.485-.945.578-1.786.181-1.62.448-3.683 1.065-8.21.228-1.678.541-4.12.695-5.424.154-1.306.39-3.147.524-4.093l.527-3.705c.156-1.09.394-2.817.53-3.836.135-1.019.373-2.745.528-3.836a476.9 476.9 0 0 0 .529-3.837c.135-1.019.374-2.804.532-3.969.158-1.164.47-3.605.692-5.424a372.14 372.14 0 0 1 1.155-8.73c.156-1.092.403-2.878.548-3.97.456-3.433.673-4.405.881-3.938.305.684.018 42.236-.302 43.758-.153.728-.414 2.395-.581 3.704a473.61 473.61 0 0 1-.56 4.234 2613.63 2613.63 0 0 0-1.049 7.673 574.343 574.343 0 0 1-.615 4.365l-.327 2.25-9.322.069c-7.33.054-9.341-.002-9.414-.265zm29.918.154c-.098-.099-.178-1.231-.178-2.516v-2.338h10.268c7.799 0 10.376-.08 10.716-.33.419-.31.453-4.042.514-56.158l.065-55.827h4.763v117.21l-12.985.069c-7.14.037-13.064-.012-13.163-.11zm34.33-.178c-.075-.196-.101-1.299-.058-2.45l.078-2.093 12.17-.133c6.694-.072 12.32-.228 12.502-.346.262-.17.33-8.327.33-39.328 0-35.424.04-39.13.42-39.275.607-.233 3.624-.19 4.013.058.264.167.318 8.742.265 41.998l-.067 41.788-14.758.069c-12.175.056-14.782.006-14.895-.288zm55.998.045c-6.194-.443-9.45-1.584-12.455-4.367-1.75-1.62-1.975-2.097-.86-1.825.401.097 1.264.293 1.919.436 3.95.859 25.814 1.44 26.792.711.394-.293.462-.962.523-5.1l.07-4.762 1.853-.077c3.073-.126 2.909-.573 2.909 7.927v7.231l-8.731.03c-4.803.017-10.211-.075-12.02-.204zm92.764.132c-.098-.098-.179-1.23-.179-2.516v-2.337h11.755c10.334 0 11.806-.05 12.171-.415.374-.375.416-4.206.416-38.22 0-38.436.025-39.494.976-41.356.565-1.106 1.882-1.582 3.157-1.141 1.544.534 2.018 1.38 2.161 3.851.094 1.626.015 2.38-.342 3.253a29.617 29.617 0 0 0-.747 2.062c-.193.63-.33 13.046-.43 38.893l-.145 37.968-14.307.069c-7.87.037-14.388-.012-14.486-.11zm38.627-.002c-.097-.097-.177-1.228-.177-2.513v-2.337h11.527c7.44 0 11.708-.098 12.039-.274.502-.27.511-.933.493-35.388-.021-38.718-.163-44.786-1.188-50.835-.192-1.13-.181-1.156.332-.793.975.69 2.74 2.93 3.51 4.454 2.028 4.017 2.125 6.313 2.126 50.358v37.505h-14.243c-7.834 0-14.323-.08-14.42-.177zm36.512 0c-.338-.338-.198-4.595.155-4.712.182-.06 8.843-.174 19.248-.254 21.054-.16 26.23-.4 31.221-1.447 6.907-1.449 11.353-5.358 13.376-11.764 1.294-4.095 1.66-7.62 1.874-18.027.197-9.609-.104-14.216-1.278-19.579-.159-.727-.344-1.471-.412-1.653-.068-.182.058-.331.28-.331.669 0 2.578 2.389 3.593 4.498l.956 1.984.167 8.467c.155 7.849.595 15.793.903 16.29.406.658.596 4.348.354 6.86-.624 6.47-2.41 11.185-5.343 14.112-5.098 5.086-10.123 5.729-44.787 5.731-11.072.001-20.21-.078-20.307-.175zm168.912-.13c-6.195-.443-9.45-1.584-12.456-4.367-1.75-1.62-1.974-2.097-.859-1.825.4.097 1.264.293 1.919.434 4.044.871 25.801 1.45 26.792.714.393-.294.462-.963.522-5.1l.07-4.763 2.142-.076c1.594-.057 2.221.02 2.452.297.224.27.29 2.382.239 7.617l-.07 7.243-8.732.03c-4.802.017-10.21-.075-12.02-.204zm-287.716-22.72c-1.121-.336-1.679-.955-2.347-2.608l-.601-1.485v-28.443c0-26.985.025-28.488.48-29.324.642-1.175 2.023-1.764 3.215-1.37 1.309.431 1.69 1.028 2.163 3.39.426 2.122.423 2.172-.162 3.533-.375.87-.68 2.318-.823 3.911-.126 1.391-.227 13.712-.225 27.378.003 20.005-.063 24.891-.338 25.066-.394.25-.367.25-1.362-.048zm221.84.041c-.92-.257-1.667-1.399-1.964-3.003-.392-2.114-.558-52.936-.181-55.768.401-3.022.899-3.999 2.283-4.477.999-.346 1.161-.334 1.984.146.493.287 1.045.829 1.226 1.204.55 1.136.51 5.149-.067 6.831-.473 1.38-.504 2.83-.595 28.125l-.097 26.67-.662.251c-.735.28-.994.282-1.928.021zm-261.734-.276c-1.64-.23-1.997-.588-2.215-2.217-.101-.757-.235-14.1-.296-29.652-.084-21.045-.034-28.368.192-28.64.232-.28 1.171-.367 3.975-.367h3.672v-4.476c0-2.462.073-4.665.16-4.895.13-.335.6-.419 2.366-.419 1.213 0 2.27.105 2.35.234.08.128-.076.515-.344.86-.73.937-2.32 4.147-2.809 5.674-.237.739-.695 2.882-1.019 4.762l-.587 3.42-1.178.084c-.647.046-1.329.21-1.513.363-.268.222-.336 5.897-.336 27.895v27.617l-.596-.036a30.997 30.997 0 0 1-1.822-.207zm336.924 0c-1.691-.205-1.948-.444-2.214-2.06-.115-.698-.216-14.145-.224-29.882-.015-25.856.024-28.628.402-28.773.23-.089 1.944-.161 3.809-.161 2.846 0 3.415-.067 3.55-.419.088-.23.16-2.432.16-4.894V67.06h4.771l-.07 7.475-.07 7.474-3.572.071c-2.977.06-3.627.145-3.903.514-.26.347-.33 6.348-.33 27.909 0 25.996-.026 27.464-.464 27.428a70.837 70.837 0 0 1-1.845-.205zm-152.869-4.819c-.076-.2-.107-7.03-.07-15.179l.07-14.817.728-.084c1.103-.126 4.604.73 5.335 1.306.765.6 1.592 3.083 1.19 3.568-.144.173-.483.257-.754.186-.27-.07-.742.005-1.046.168-.548.293-.554.426-.622 12.257l-.07 11.961-.793.385c-1.134.55-3.789.716-3.967.249zm-133.37-32.331c-.075-.197-.102-1.3-.059-2.45l.078-2.094 10.901-.132c7.88-.096 10.988-.219 11.214-.445.406-.406-.096-11.899-.663-15.165-.396-2.29-1.248-5.717-1.745-7.024-.446-1.174-.131-1.036 1.233.54 1.625 1.877 3.125 4.535 3.807 6.748.494 1.603.525 2.347.46 10.98l-.071 9.26-12.51.07c-10.296.056-12.532.005-12.645-.289zm165.78-6.174c-.509-.372-2.146-1.262-3.637-1.977-1.492-.715-2.712-1.335-2.712-1.378 0-.043.922-.477 2.05-.963 4.307-1.86 6.786-3.993 8.183-7.044.73-1.594.917-2.249 1.543-5.396.474-2.385.55-12.957.113-15.937-.494-3.376-1.304-7.054-1.967-8.933-.203-.575-.277-1.103-.164-1.172.51-.316 3.674 4.246 4.705 6.784 1.827 4.497 2.905 12.673 2.642 20.051-.226 6.338-1.096 9.878-3.142 12.777-1.03 1.46-4.863 3.905-6.081 3.88-.334-.008-1.023-.319-1.532-.692zm-343.014-12.98c-.56-3.77-.724-4.87-.972-6.556a817.773 817.773 0 0 0-1.018-6.813c-.576-3.724-.82-5.454-1.202-8.533-.493-3.968-.85-6.65-1.181-8.864-.142-.946-.378-2.59-.526-3.655-.147-1.064-.337-2.048-.422-2.185-.085-.137-.08-.487.013-.777.143-.453.402-.527 1.853-.527.928 0 1.759.117 1.847.26.314.509 3.3 21.167 3.48 24.082.126 2.043-.018 3.965-.702 9.393-.47 3.725-.696 5.152-.837 5.294-.08.08-.23-.425-.333-1.12zm310.788.402c-.237-.237-.317-3.241-.317-11.888 0-10.845.03-11.58.469-11.72.258-.082 1.414.032 2.57.253 2.763.529 3.787 1.471 4.244 3.904.183.978.18.983-.718.983-.497 0-1.046.143-1.22.318-.234.234-.318 2.595-.318 8.98 0 8.653 0 8.664-.588 9.076-.71.498-3.65.565-4.122.094zm111.27-6.607c-.23-.63-.503-1.443-.606-1.807l-.186-.661.68.628c.767.708 1.13 1.915.771 2.558-.191.341-.324.197-.659-.718zM116.051 52.211l.07-8.565h4.498v14.228l-1.587.969c-.873.533-1.917 1.186-2.32 1.451l-.73.483zM5.985 59.081c-.343-.343-.48-5.865-.167-6.682.13-.339.613-.419 2.521-.419h2.36l-.073 3.638-.073 3.638-2.12.076c-1.423.05-2.229-.032-2.448-.251zm336.938.14c-.102-.102-.186-1.773-.186-3.713V51.98H347.514l-.073 3.638-.074 3.638-2.129.076c-1.17.042-2.212-.008-2.315-.11zm-374.836-1.288-.252-.661h-12.124c-9.077 0-12.204-.08-12.442-.318-.175-.174-.318-.924-.318-1.667 0-.742.143-1.492.318-1.666.238-.238 3.363-.318 12.435-.318 6.665 0 12.141-.03 12.169-.066.028-.037.117-2.21.198-4.829l.148-4.762h4.498l.07 7.474.07 7.475h-2.259c-2.167 0-2.27-.027-2.511-.662z" style="fill:#ab5758;stroke-width:.26458335" transform="matrix(.58603 0 0 .48779 116.709 -13.75)"/><path d="M47.197 161.913c-6.344-.706-11.419-2.5-15.434-5.455-1.225-.902-1.626-1.505-.771-1.16 1.079.435 4.825 1.424 6.416 1.692 4.267.72 5.472.824 9.679.825 11.399.004 18.707-2.489 24.913-8.5 2.645-2.562 4.046-4.462 5.866-7.956 1.545-2.964 2.39-5.338 2.906-8.152.396-2.166.822-6.996.821-9.326v-2.05h2.117v22.267l-1.452 2.823c-1.77 3.442-4.256 6.642-6.816 8.772-1.912 1.59-6.45 4.052-9.002 4.882-4.8 1.562-12.447 2.094-19.242 1.338zm223.97.108c-6.085-.497-10.15-1.531-14.381-3.659-1.989-1-4.966-3.118-4.723-3.36.066-.067.582.06 1.146.28 4.014 1.574 10.668 2.526 17.672 2.53 4.445.001 5.592-.093 9.943-.818 8.257-1.376 15.246-5.766 19.679-12.36 4.839-7.2 5.721-13.346 5.721-39.838 0-14.53-.354-22.26-1.216-26.556-.16-.792-.12-.86.509-.86.59 0 .825.291 1.754 2.183 2.625 5.34 2.924 8.582 2.917 31.643-.006 20.564-.223 24.965-1.507 30.6-1.64 7.199-7.247 14.026-14.078 17.14-6.145 2.802-14.064 3.841-23.436 3.075zm-429.816-3.544v-2.251h10.442c10.053 0 10.452-.02 10.716-.512.183-.342.285-9.901.307-28.906.02-17.265.123-27.823.264-26.938.127.8.354 2.348.504 3.44.298 2.168.627 4.479 1.017 7.143.139.946.74 5.08 1.335 9.186l1.084 7.467-.068 16.743-.068 16.743-12.766.068-12.766.069zm37.744 1.787c-.072-.256-.209-1.27-.305-2.252l-.174-1.786h6.867c5.182 0 6.931-.081 7.124-.33.14-.183.398-1.403.573-2.713.175-1.31.427-3.155.561-4.1.134-.947.367-2.643.518-3.771a3514.897 3514.897 0 0 0 2.274-17.132c.219-1.673.505-3.757.636-4.63.131-.873.37-2.66.532-3.969.162-1.31.404-3.155.538-4.1.42-2.975.766-5.53 1.466-10.849.374-2.837.718-5.338.766-5.556.215-.992.103 36.59-.114 38.232-.135 1.019-.436 3.281-.67 5.027a853.345 853.345 0 0 0-.69 5.292c-.309 2.468-.603 4.673-1.04 7.805a188.857 188.857 0 0 0-.48 3.704l-.166 1.456-9.043.07c-8.447.064-9.052.038-9.173-.398zm29.904.286c-.098-.098-.179-1.112-.179-2.251v-2.073h10.419c8.422 0 10.475-.068 10.715-.357.216-.26.314-15.411.363-56.026l.067-55.668H-65.383v116.417l-12.72.068c-6.995.038-12.8-.012-12.898-.11zm34.482-2.073v-2.251h12.118c9.072 0 12.197-.08 12.435-.318.244-.244.317-9.36.317-39.422V77.38H-27.414l-.067 41.606-.067 41.606-14.486.068-14.485.068zM.1 160.305c-6.537-.459-8.55-.942-11.319-2.72-1.327-.85-3.388-2.862-2.679-2.614.691.243 4.134.702 7.4.987 3.883.34 20.88.347 21.415.01.32-.203.422-1.177.53-5.073l.132-4.822 1.713.07c.942.04 1.805.128 1.918.198.113.07.205 3.334.205 7.255v7.128l-7.21-.038c-3.965-.02-9.412-.192-12.105-.381Zm91.922.062c-.075-.197-.101-1.179-.058-2.183l.08-1.826 11.75-.069c8.138-.047 11.859-.16 12.104-.363.293-.243.355-6.815.355-38.031 0-39.786.011-40.208 1.168-41.974.527-.804 1.96-1.1 2.974-.614 1.614.773 2.201 4.193 1.14 6.64-1.241 2.862-1.295 4.646-1.305 42.992l-.009 35.785h-14.03c-11.532 0-14.057-.064-14.17-.357zm38.694.18c-.097-.097-.176-1.109-.176-2.249v-2.072h11.742c9.766 0 11.793-.063 12.05-.372.233-.281.282-10.243.2-40.812-.105-38.777-.157-41.476-.861-44.938l-.162-.794.937.926c1.436 1.42 2.74 3.815 3.216 5.908 1.042 4.585 1.177 10.06 1.183 48.133l.006 36.447h-13.979c-7.688 0-14.058-.08-14.155-.177zm36.601-2.072v-2.25l17.529.003c28.565.003 35.138-.768 40.539-4.758 3.2-2.365 5.733-6.756 6.717-11.648.907-4.506.964-5.55.953-17.463-.01-10.482-.073-12.363-.49-14.552a141.45 141.45 0 0 1-.599-3.307l-.12-.794.947 1.059c.52.582 1.386 1.936 1.924 3.01l.977 1.953.182 10.086c.1 5.547.315 10.92.477 11.938.162 1.019.43 2.652.595 3.63.328 1.936.157 6.38-.349 9.058-.911 4.827-2.374 8.056-4.738 10.456-5.008 5.086-11.022 5.83-47.148 5.829l-17.396-.001zm170.789 1.962c-6.718-.38-9.747-1.076-12.486-2.869-1.552-1.015-3.486-2.874-2.703-2.598.687.243 4.124.702 7.399.988 3.884.34 20.88.347 21.416.01.32-.203.422-1.172.529-5.025.073-2.626.221-4.774.33-4.773l1.919.002h1.72v14.552l-7.21-.038c-3.966-.021-8.877-.133-10.914-.248zM47.519 137.292c-.824-.577-1.319-1.642-1.778-3.827-.567-2.696-.576-53.173-.01-55.815.412-1.918 1.05-2.651 2.307-2.651 1.68 0 2.264.757 2.749 3.557.292 1.687.274 1.92-.218 2.864-.3.575-.629 1.92-.748 3.058-.118 1.116-.22 13.55-.228 27.629l-.014 25.598h-.735c-.404 0-1-.186-1.324-.413zm221.807-.104c-1.124-1.242-1.182-2.722-1.192-30.52-.01-26.565.078-29.449.938-30.797.461-.724 1.973-1.042 2.977-.626.936.388 1.322 1.45 1.398 3.855.041 1.306-.091 2.242-.45 3.175-.485 1.264-.513 2.515-.64 28.31l-.132 26.988-1.204.078c-.943.062-1.311-.039-1.695-.463zM7.66 137.21c-.55-.119-.855-.397-1.05-.961-.182-.525-.303-10.638-.357-29.832L6.17 77.38h3.561c2.884 0 3.64-.079 3.977-.416.346-.346.415-1.187.415-5.027v-4.611h1.837c1.69 0 2.496.273 1.896.644-.45.278-2.202 3.701-2.714 5.303-.685 2.142-1.194 4.443-1.41 6.373-.098.883-.26 1.738-.362 1.902-.1.163-.776.333-1.5.38l-1.318.082-.068 27.715-.067 27.716-.991-.032a12.018 12.018 0 0 1-1.766-.198Zm336.93-.004c-.902-.16-.933-.208-1.245-1.884-.237-1.273-.323-9.023-.332-29.831L343 77.38l3.506-.004c1.928-.002 3.684-.117 3.903-.255.32-.201.422-1.163.529-4.957l.132-4.706H355.04V81.745l-3.836.133-3.837.132-.067 27.715-.068 27.715-.858-.035a16.183 16.183 0 0 1-1.784-.198zm-151.873-19.11v-14.864l1.851.172c3.317.309 4.22.929 4.644 3.188.178.944.174.95-.758.95-1.837 0-1.768-.497-1.768 12.725v11.894l-.595.22c-.328.122-1.22.301-1.985.4l-1.389.179zM59.368 98.414v-2.248h10.83c9.2 0 10.887-.06 11.22-.392.322-.323.37-1.14.276-4.696-.159-5.975-.727-10.817-1.724-14.685-.272-1.053-.494-2.06-.494-2.24 0-.688 1.63 1.62 2.837 4.02l1.265 2.514.078 9.988.078 9.988H59.368Zm165.63-4.268c-.51-.376-2.042-1.22-3.404-1.876l-2.477-1.194 2.028-.882c3.598-1.564 6.171-3.741 7.49-6.337 1.74-3.428 2.183-6.301 2.183-14.17 0-6.821-.297-9.943-1.353-14.223-.3-1.212-.483-2.265-.41-2.339.214-.213 1.924 2.268 2.807 4.073 1.75 3.573 2.708 8.244 3.205 15.61.653 9.677-.925 16.736-4.344 19.44-3.096 2.447-4.398 2.878-5.726 1.898zm-32.28-24.03V58.595h.613c.337 0 1.32.128 2.183.286 1.787.326 2.843 1.138 3.308 2.546.392 1.191.168 1.666-.788 1.666-.433 0-.883.148-1 .33-.119.182-.274 4.32-.347 9.195l-.132 8.863-1.919.078-1.918.078zm-310.97 9.116c-.084-.51-.226-1.462-.317-2.116-.09-.655-.576-3.99-1.079-7.409-1.092-7.433-1.398-9.586-1.707-12.038-.39-3.1-1.07-7.977-1.567-11.245-.384-2.523-.46-2.381 1.278-2.381h1.55l.157 1.256c.086.692.411 2.924.723 4.961a1035.584 1035.584 0 0 1 1.32 8.864c1.242 8.48 1.411 10.41 1.096 12.546-.152 1.03-.417 3.064-.588 4.52-.17 1.455-.401 2.943-.512 3.307-.192.63-.209.618-.354-.265zm234.506-27.125v-8.064h3.968l.003 5.225c0 2.874.076 5.836.166 6.582.188 1.57.123 1.655-2.483 3.286l-1.654 1.035v-8.064ZM6.187 55.54v-3.319l2.05.078 2.05.077.075 3.241.075 3.241h-4.25Zm336.872.077.075-3.241H347.103l.074 3.241.074 3.241h-4.266zm-374.694 2.087c-.13-.344-.435-.701-.676-.794-.242-.093-5.787-.168-12.324-.168h-11.884v-2.911h11.923c7.714 0 12.105-.097 12.436-.274.476-.254.511-.597.511-4.894v-4.621h4.234v6.983c0 7.926.205 7.304-2.41 7.304-1.41 0-1.597-.065-1.81-.625z" style="opacity:.23600003;fill:#9d3b3b;stroke-width:.26458335" transform="matrix(.58603 0 0 .48779 116.709 -13.75)"/><g aria-label="Streams" style="font-style:normal;font-variant:normal;font-weight:400;font-stretch:normal;font-size:51.81193161px;line-height:1;font-family:Dynalight;text-align:center;letter-spacing:0;word-spacing:0;text-anchor:middle;fill:#3e7ee4;fill-opacity:1;stroke:none;stroke-width:.69390982"><path d="M130.013 67.212q-.415-.674-1.45-.674-1.037 0-1.97.26-.88.258-2.124.725-2.02.829-3.264 1.554-4.663 2.487-8.705 5.855-4.041 3.316-4.248 4.974-.104 1.295 1.399 2.124 1.295.777 3.005 1.502 1.71.674 2.487 1.037 4.145 2.072 4.145 5.492 0 1.502-.881 2.901-1.399 2.176-4.249 3.627-2.797 1.399-6.01 1.969-3.316.57-5.492.57-3.938 0-7.875-1.71-3.938-1.658-4.87-5.233 1.916 1.71 5.284 2.435 3.368.726 6.425.726 4.56-.052 6.735-.726 2.228-.673 3.835-1.554 1.657-.933 3.005-2.124 1.399-1.244 1.399-2.695 0-1.502-1.97-2.694-.155-.103-3.16-1.295-2.953-1.192-4.56-2.643-1.554-1.45-1.554-3.316 0-3.523 4.353-7.15 4.352-3.678 9.481-5.699 5.181-2.02 8.808-2.02 2.539 0 3.938.932 1.399.88 1.399 2.487v.466q-.156 1.607-5.648 6.684-2.02 1.865-3.575 4.197-1.502 2.28-1.502 4.041v.311q-1.606-1.243-1.606-3.316 0-1.865 1.606-4.56 2.331-3.937 7.409-7.46zM130.212 79.284q1.14-1.71 1.813-2.694.726-1.037 1.14-1.503.415-.466 1.865-.777 1.451-.363 2.798-.363t1.347.311q0 .26-2.227 2.383-2.228 2.125-5.182 5.648 3.524.57 4.612 2.228.414.725.103.933-.259.207-.622-.156-1.088-1.088-3.47-1.088-1.037 0-2.332.207-4.197 5.389-5.285 8.808-.363.985-.363 1.658 0 1.814 1.503 1.814 1.606 0 4.507-2.228 3.782-2.85 6.58-5.648.518-.57.674-.259.155.311-.26.674-4.455 4.663-7.512 6.89-3.005 2.177-5.544 2.177-3.471 0-3.471-3.679 0-1.761.984-4.197l-.932.881q-.415.415-.57.26-.208-.208-.208-.363 0-.156.415-.518 3.782-3.316 5.181-5.026-.984.362-1.347.052-.31-.311-.466-.83-.104-.518.518-1.243.673-.777 1.917-1.088 1.295-.363 1.917-.414.777-1.14 1.917-2.85z" style="font-style:normal;font-variant:normal;font-weight:400;font-stretch:normal;font-family:Arizonia;fill:#3e7ee4;fill-opacity:1;stroke-width:.69390982" transform="matrix(.93365 0 0 .93365 12.881 14.816)"/><path d="M149.556 86.693q-2.28 2.642-3.73 4.87-1.4 2.176-1.4 3.109 0 .88 1.036.88 1.089 0 4.353-2.123 3.316-2.125 6.113-4.767.26-.26.467-.207.207.051.207.259 0 .207-.207.466-6.684 6.114-10.207 7.668-1.555.622-2.228.622-2.487 0-3.42-.83-.88-.828-.88-1.813 0-1.968.777-3.005 2.539-3.575 4.041-6.062.466-.725-.207-.984-.622-.31-1.606-.31-.933 0-.985-.053-3.471 4.663-6.89 7.358-.415.362-.467 0 0-.415.57-.985 3.627-3.109 5.958-6.58-.466-.31-.466-.829 0-.57.052-1.347.103-.777.829-2.073 1.243-2.176 2.59-2.176 1.14 0 1.14 1.244 0 1.71-1.606 3.73-.777.933-1.45 1.347 1.916-.621 5.595-.621 1.813 0 2.59 1.347.104.207.104.622 0 .414-.673 1.243z" style="font-style:normal;font-variant:normal;font-weight:400;font-stretch:normal;font-family:Arizonia;fill:#3e7ee4;fill-opacity:1;stroke-width:.69390982" transform="matrix(.93365 0 0 .93365 12.881 14.816)"/><path d="M166.1 88.973q2.747-1.503 2.747-3.057 0-1.555-1.866-1.555-.88 0-1.865.467-2.176.984-4.197 3.42-2.487 3.004-2.487 5.595 0 .984.519 1.865.57.83 1.968.83 2.436 0 6.166-2.54 3.73-2.59 6.425-5.18.621-.622.621-.053 0 .363-.31.622-1.917 1.762-2.591 2.384-.622.57-2.539 2.124-1.917 1.502-3.108 2.124-3.68 1.917-6.27 1.917-2.539 0-4.041-1.14-1.45-1.191-1.45-3.264 0-4.404 3.937-7.564 3.938-3.213 8.238-3.213 2.901 0 3.886 1.244.414.622.414 1.347 0 .673-.466 1.502-.933 1.607-3.523 2.85-2.539 1.192-4.819 1.192-.88 0-.984-.156-.052-.155.155-.207.208-.104.57-.104 2.073 0 4.87-1.45z" style="font-style:normal;font-variant:normal;font-weight:400;font-stretch:normal;font-family:Arizonia;fill:#3e7ee4;fill-opacity:1;stroke-width:.69390982" transform="matrix(.93365 0 0 .93365 12.881 14.816)"/><path d="M190.753 89.076q-.57.674-1.192 1.451-.57.777-1.503 2.124-.88 1.347-.88 2.28 0 .933.777.933.829 0 2.642-.985 3.627-2.072 8.031-6.217.518-.518.674-.156v.208q0 .155-.208.362-8.911 8.394-12.953 8.394-1.191 0-2.02-.777-.778-.83-.778-1.917 0-1.088.933-3.316-2.331 2.901-5.026 4.507-2.642 1.555-4.145 1.555-1.502 0-2.59-.881-1.036-.933-1.036-2.28 0-3.834 3.42-7.513 2.59-2.746 6.424-3.885 1.71-.57 3.316-.57 1.658 0 3.16.932 1.555.881 1.97 2.125 1.554 0 2.227 1.14.104.155.104.517 0 .363-.415.83-.362.466-.932 1.14zm-3.783-5.129q-1.088 0-2.59.674-2.643 1.14-5.026 3.937-3.782 4.456-3.782 6.529 0 1.088.88 1.088.726 0 2.384-.933 1.71-.933 4.456-3.679.155-.155 1.191-1.14 1.037-.984 1.762-1.71 2.435-2.538 2.435-3.626 0-1.14-1.71-1.14z" style="font-style:normal;font-variant:normal;font-weight:400;font-stretch:normal;font-family:Arizonia;fill:#3e7ee4;fill-opacity:1;stroke-width:.69390982" transform="matrix(.93365 0 0 .93365 12.881 14.816)"/><path d="M220.825 85.501c0 1.278-1.088 3.385-3.264 6.321-1.312 1.762-1.969 2.85-1.969 3.265 0 .414.208.621.622.621.45 0 1.07-.259 1.865-.777 1.97-1.347 3.112-2.285 5.081-4.185.277-.277 1.292-1.03 1.396-.892.103.138.155.241.155.31 0 .07-.38.467-1.14 1.192a60.576 60.576 0 0 1-2.538 2.28c-.898.794-2.038 1.623-3.42 2.487-1.382.829-2.522 1.243-3.42 1.243-1.865 0-1.852-1.242-1.838-2.064.01-.587.282-1.855.734-2.507.775-1.326 1.59-2.536 4.554-6.772.449-.483.592-1.903.592-2.18 0-.276-.346-.414-1.036-.414-.691 0-2.177 1.134-3.15 1.972-.971.838-1.464 1.352-2.093 2.104-.629.753-2.199 2.652-3.235 4.448-1.002 1.797-1.723 3.19-2.466 4.456-.248.601-.672.887-1.293.887-.139 0-.311-.018-.518-.052-.657-.173-.916-.484-.778-.933 2.695-4.801 5.19-8.409 5.709-9.618.518-1.209.777-2.072.777-2.59 0-.519-.207-.778-.622-.778-1.246 0-4.451 3.47-5 4.262-.605.873-2.068 2.69-3.16 4.6-1.244 1.934-2.327 3.234-3.087 4.063-.76.83-1.092 1.324-1.706 1.427a4.511 4.511 0 0 1-.84.061c-.897-.014-1.747-.547-1.872-1.164-.124-.618.918-1.092 1.712-2.128.742-.897 2.197-2.032 4.836-6.054-1.486 1.485-3.317 2.601-4.354 3.43-.345.277-.535.294-.57.052-.069-.242 0-.449.208-.622.207-.207.552-.518 1.036-.932.483-.45.825-.671.963-.81.173-.138.466-.407.88-.787.45-.414.86-.712 1.067-.954.644-.717 1.392-1.38 1.776-1.856.383-.476.946-1.081 1.206-1.536.26-.455.458-.84 1.068-1.764.61-.923 1.093-.826 1.348-.79.255.034.998.447.9 1.12-.097.674-.757 1.576-1.063 2.23-.305.656-.427.899-.727 1.483.301-.421.43-.588 1.225-1.624 1.416-1.83 3.049-2.588 4.465-2.588.967 0 1.451.553 1.451 1.658 0 1.037-.866 3.17-2.316 5.83 1.348-1.947 2.784-3.459 3.579-4.322 1.83-1.9 3.52-2.907 5.213-2.907 1.797 0 2.816.778 3.057 2.332z" style="font-style:normal;font-variant:normal;font-weight:400;font-stretch:normal;font-family:Arizonia;fill:#3e7ee4;fill-opacity:1;stroke-width:.69390982" transform="matrix(.93365 0 0 .93365 12.881 14.816)"/><path d="M220.544 94.206c-.034-.035-.051-.087-.051-.156s.069-.103.207-.103c.104 0 .173.069.207.207.622 1.382 1.64 2.072 3.057 2.072 1.762 0 3.299-.863 4.611-2.59a28.759 28.759 0 0 0 2.54-3.99c.759-1.416 1.38-2.539 1.864-3.367.518-.83 1.296-1.762 2.332-2.798 1.07-1.037 2.038-1.676 2.901-1.917-.207-.104-.552-.156-1.036-.156s-1.399.363-2.746 1.088c-1.313.691-2.625 1.59-3.938 2.694a105.734 105.734 0 0 0-4.248 3.68c-1.52 1.38-2.395 2.259-2.705 2.5-.311.242-.542.176-.611-.066-.041-.101.06-.4.301-.608.867-.796 2.151-2 3.844-3.589 1.692-1.623 2.97-2.797 3.834-3.523a13.49 13.49 0 0 1 3.005-1.917c1.105-.552 1.934-.829 2.487-.829 1.382 0 2.228.242 2.539.726-.898.38-1.641 1.381-2.228 3.005a3937.64 3937.64 0 0 0-1.917 5.647c-.691 2.142-1.572 3.817-2.643 5.026.898-.345 2.28-1.14 4.145-2.383 1.9-1.278 3.575-2.66 5.026-4.145.31-.277.535-.311.674-.104v.26c0 .068-.329.43-.985 1.087a43.798 43.798 0 0 1-2.435 2.228c-.933.795-2.107 1.693-3.523 2.694-2.936 2.073-5.89 3.109-8.86 3.109-2.936 0-4.819-1.26-5.648-3.782z" style="font-style:normal;font-variant:normal;font-weight:400;font-stretch:normal;font-family:Arizonia;fill:#3e7ee4;fill-opacity:1;stroke-width:.69390982" transform="matrix(.93365 0 0 .93365 12.881 14.816)"/></g></svg>