<svg xmlns="http://www.w3.org/2000/svg" xmlns:xlink="http://www.w3.org/1999/xlink" viewBox="0 -0.5 21 21" shape-rendering="crispEdges"><defs><linearGradient id="a"><stop offset="0" stop-color="#3f7eff"/><stop offset="1" stop-color="#5596ff"/></linearGradient><linearGradient xlink:href="#a" id="b" x1="5.005" y1="15.495" x2="8.021" y2="12.49" gradientUnits="userSpaceOnUse"/></defs><path d="M1 0h1m17 0h1" fill="#fff" stroke="#93b1ed"/><path d="M2 0h1m17 2h1M0 18h1" fill="#fff" stroke="#f3f6fd"/><path d="M18 0h1M0 2h1m19 16h1M2 20h1" fill="#fff" stroke="#f5f7fd"/><path d="M0 1h1m19 0h1" fill="#fff" stroke="#93b0ec"/><path d="M1 1h1" fill="#fff" stroke="#dce7ff"/><path d="M2 1h1m4 3h1M5 6h1" fill="#fff" stroke="#72a1ff"/><path d="M3 1h1" fill="#fff" stroke="#6a9cff"/><path d="M4 1h1M4 11h2" fill="#fff" stroke="#5f94ff"/><path d="M5 1h1M3 12h1" fill="#fff" stroke="#558eff"/><path d="M6 1h1m3 4h1" fill="#fff" stroke="#518bff"/><path d="M7 1h1" fill="#fff" stroke="#4a86ff"/><path d="M8 1h1m2 4h1M2 12h1" fill="#fff" stroke="#4b87ff"/><path d="M9 1h2" fill="#fff" stroke="#4684ff"/><path d="M11 1h1m4 1h1m-5 3h1M1 9h1m0 4h1" fill="#fff" stroke="#4482ff"/><path d="M12 1h1M3 15h1" fill="#fff" stroke="#4080ff"/><path d="M13 1h1" fill="#fff" stroke="#3b7cff"/><path d="M14 1h1" fill="#fff" stroke="#3a7bff"/><path d="M15 1h1" fill="#fff" stroke="#3678ff"/><path d="M16 1h1" fill="#fff" stroke="#2e73ff"/><path d="M17 1h1" fill="#fff" stroke="#276cf9"/><path d="M18 1h1" fill="#fff" stroke="#3a73e7"/><path d="M19 1h1" fill="#fff" stroke="#d3ddf3"/><path d="M1 2h1" fill="#fff" stroke="#73a1ff"/><path d="M2 2h1" fill="#fff" stroke="#97b9ff"/><path d="M3 2h1" fill="#fff" stroke="#9cbdff"/><path d="M4 2h1" fill="#fff" stroke="#90b5ff"/><path d="M5 2h1M5 4h1" fill="#fff" stroke="#82acff"/><path d="M6 2h1M2 6h1" fill="#fff" stroke="#7ba7ff"/><path d="M7 2h1" fill="#fff" stroke="#75a3ff"/><path d="M8 2h1M3 8h1" fill="#fff" stroke="#6f9fff"/><path d="M9 2h1M1 3h1" fill="#fff" stroke="#6c9dff"/><path d="M10 2h1M5 8h1M3 9h1" fill="#fff" stroke="#689bff"/><path d="M11 2h1m0 1h1M5 9h1" fill="#fff" stroke="#6599ff"/><path d="M12 2h1m0 1h1M8 5h1" fill="#fff" stroke="#6095ff"/><path d="M13 2h1" fill="#fff" stroke="#5d93ff"/><path d="M14 2h1" fill="#fff" stroke="#568eff"/><path d="M15 2h1M3 13h1m0 1h1" fill="#fff" stroke="#4f8aff"/><path d="M17 2h1" fill="#fff" stroke="#3878fb"/><path d="M18 2h1" fill="#fff" stroke="#2969eb"/><path d="M19 2h1" fill="#fff" stroke="#3566cb"/><path d="M2 3h1" fill="#fff" stroke="#9ebeff"/><path d="M3 3h1" fill="#fff" stroke="#a4c2ff"/><path d="M4 3h1M3 4h1" fill="#fff" stroke="#99baff"/><path d="M5 3h1" fill="#fff" stroke="#8ab0ff"/><path d="M6 3h1" fill="#fff" stroke="#82abff"/><path d="M7 3h1" fill="#fff" stroke="#79a6ff"/><path d="M8 3h1" fill="#fff" stroke="#74a3ff"/><path d="M9 3h1" fill="#fff" stroke="#71a0ff"/><path d="M10 3h1M5 7h1M4 8h1" fill="#fff" stroke="#6d9eff"/><path d="M11 3h1" fill="#fff" stroke="#699bff"/><path d="M14 3h1M2 10h1m1 2h1" fill="#fff" stroke="#5a91ff"/><path d="M15 3h1M2 11h1" fill="#fff" stroke="#538cff"/><path d="M16 3h1" fill="#fff" stroke="#4986ff"/><path d="M17 3h1" fill="#fff" stroke="#3d7cfc"/><path d="M18 3h1" fill="#fff" stroke="#2e6cea"/><path d="M19 3h1" fill="#fff" stroke="#1b52c2"/><path d="M1 4h1" fill="#fff" stroke="#6296ff"/><path d="M2 4h1" fill="#fff" stroke="#91b5ff"/><path d="M4 4h1" fill="#fff" stroke="#8fb4ff"/><path d="M6 4h1" fill="#fff" stroke="#7aa6ff"/><path d="M8 4h1" fill="#fff" stroke="#6b9dff"/><path d="M9 4h1" fill="#fff" stroke="#6598ff"/><path d="M10 4h1M7 7h1m-2 3h1" fill="#fff" stroke="#5f95ff"/><path d="M11 4h1" fill="#fff" stroke="#5b92ff"/><path d="M12 4h1M1 6h1m2 7h1" fill="#fff" stroke="#548dff"/><path d="M13 4h1" fill="#fff" stroke="#528cff"/><path d="M14 4h1m-5 2h1" fill="#fff" stroke="#4c88ff"/><path d="M15 4h1" fill="#fff" stroke="#4785ff"/><path d="M16 4h1" fill="#fff" stroke="#4280ff"/><path d="M17 4h1" fill="#fff" stroke="#3b7afb"/><path d="M18 4h1" fill="#fff" stroke="#316fec"/><path d="M19 4h1" fill="#fff" stroke="#1f55c3"/><path d="M1 5h1m7 0h1" fill="#fff" stroke="#5990ff"/><path d="M2 5h1" fill="#fff" stroke="#85adff"/><path d="M3 5h1" fill="#fff" stroke="#8bb1ff"/><path d="M4 5h1" fill="#fff" stroke="#84acff"/><path d="M5 5h1" fill="#fff" stroke="#78a5ff"/><path d="M6 5h1" fill="#fff" stroke="#70a0ff"/><path d="M7 5h1" fill="#fff" stroke="#679aff"/><path d="M13 5h1" fill="#fff" stroke="#4180ff"/><path d="M14 5h1" fill="#fff" stroke="#3d7eff"/><path d="M15 5h1" fill="#fff" stroke="#3b7bff"/><path d="M16 5h1M1 11h1" fill="#fff" stroke="#397aff"/><path d="M17 5h1" fill="#fff" stroke="#3979fc"/><path d="M18 5h1m-1 1h1" fill="#fff" stroke="#3370ec"/><path d="M19 5h1" fill="#fff" stroke="#2357c3"/><path d="M3 6h1" fill="#fff" stroke="#81aaff"/><path d="M4 6h1" fill="#fff" stroke="#7aa7ff"/><path d="M6 6h1" fill="#fff" stroke="#6b9cff"/><path d="M7 6h1m-3 4h1" fill="#fff" stroke="#6297ff"/><path d="M8 6h1M7 8h1m-2 3h1" fill="#fff" stroke="#5c93ff"/><path d="M9 6h1" fill="#fff" stroke="#548eff"/><path d="M11 6h1M5 16h1" fill="#fff" stroke="#4483ff"/><path d="M12 6h1" fill="#fff" stroke="#3d7fff"/><path d="M13 6h1" fill="#fff" stroke="#387bff"/><path d="M14 6h1m1 0h1" fill="#fff" stroke="#3679ff"/><path d="M15 6h1" fill="#fff" stroke="#3579ff"/><path d="M17 6h1" fill="#fff" stroke="#3879fc"/><path d="M19 6h1" fill="#fff" stroke="#2358c5"/><path d="M1 7h1" fill="#fff" stroke="#4e89ff"/><path d="M2 7h1" fill="#fff" stroke="#71a1ff"/><path d="M3 7h1" fill="#fff" stroke="#77a5ff"/><path d="M4 7h1" fill="#fff" stroke="#74a2ff"/><path d="M6 7h1" fill="#fff" stroke="#669aff"/><path d="M8 7h1" fill="#fff" stroke="#5890ff"/><path d="M9 7h1" fill="#fff" stroke="#508dff"/><path d="M10 7h1" fill="#fff" stroke="#4989ff"/><path d="M11 7h1" fill="#fff" stroke="#4183ff"/><path d="M12 7h1" fill="#fff" stroke="#3a7fff"/><path d="M13 7h1" fill="#fff" stroke="#357bff"/><path d="M14 7h2" fill="#fff" stroke="#317aff"/><path d="M16 7h1" fill="#fff" stroke="#337aff"/><path d="M17 7h1" fill="#fff" stroke="#367bfc"/><path d="M18 7h1" fill="#fff" stroke="#3372ed"/><path d="M19 7h1" fill="#fff" stroke="#2359c5"/><path d="M1 8h1" fill="#fff" stroke="#4d88ff"/><path d="M2 8h1" fill="#fff" stroke="#699cff"/><path d="M6 8h1" fill="#fff" stroke="#6398ff"/><path d="M8 8h1" fill="#fff" stroke="#548fff"/><path d="M9 8h1" fill="#fff" stroke="#4d8cff"/><path d="M10 8h1" fill="#fff" stroke="#468aff"/><path d="M11 8h1" fill="#fff" stroke="#3f86ff"/><path d="M12 8h1" fill="#fff" stroke="#3983ff"/><path d="M13 8h1" fill="#fff" stroke="#3380ff"/><path d="M14 8h2" fill="#fff" stroke="#2f7fff"/><path d="M16 8h1" fill="#fff" stroke="#3280ff"/><path d="M17 8h1" fill="#fff" stroke="#3580fc"/><path d="M18 8h1" fill="#fff" stroke="#3276ed"/><path d="M19 8h1" fill="#fff" stroke="#235ac6"/><path d="M2 9h1m3 0h1m-4 1h1" fill="#fff" stroke="#6196ff"/><path d="M4 9h1" fill="#fff" stroke="#689aff"/><path d="M7 9h1" fill="#fff" stroke="#5b93ff"/><path d="M8 9h1" fill="#fff" stroke="#5491ff"/><path d="M9 9h1" fill="#fff" stroke="#4f90ff"/><path d="M10 9h1" fill="#fff" stroke="#4890ff"/><path d="M11 9h1" fill="#fff" stroke="#428eff"/><path d="M12 9h1" fill="#fff" stroke="#3b8dff"/><path d="M13 9h1" fill="#fff" stroke="#348aff"/><path d="M14 9h1" fill="#fff" stroke="#3189ff"/><path d="M15 9h1" fill="#fff" stroke="#2f88ff"/><path d="M16 9h1" fill="#fff" stroke="#3188ff"/><path d="M17 9h1" fill="#fff" stroke="#3385fc"/><path d="M18 9h1" fill="#fff" stroke="#3079ed"/><path d="M19 9h1" fill="#fff" stroke="#215cc8"/><path d="M1 10h1" fill="#fff" stroke="#3f7fff"/><path d="M4 10h1" fill="#fff" stroke="#6397ff"/><path d="M7 10h1" fill="#fff" stroke="#5993ff"/><path d="M8 10h1" fill="#fff" stroke="#5492ff"/><path d="M9 10h1" fill="#fff" stroke="#5093ff"/><path d="M10 10h1" fill="#fff" stroke="#4a95ff"/><path d="M11 10h1" fill="#fff" stroke="#4496ff"/><path d="M12 10h1" fill="#fff" stroke="#3d96ff"/><path d="M13 10h1" fill="#fff" stroke="#3694ff"/><path d="M14 10h1" fill="#fff" stroke="#3193ff"/><path d="M15 10h1" fill="#fff" stroke="#2f92ff"/><path d="M16 10h1" fill="#fff" stroke="#3090ff"/><path d="M17 10h1" fill="#fff" stroke="#328cfc"/><path d="M18 10h1" fill="#fff" stroke="#2e7def"/><path d="M19 10h1" fill="#fff" stroke="#1e5dc9"/><path d="M3 11h1m1 1h1" fill="#fff" stroke="#5c92ff"/><path d="M7 11h1m-1 1h1" fill="#fff" stroke="#5792ff"/><path d="M8 11h1" fill="#fff" stroke="#5594ff"/><path d="M9 11h1" fill="#fff" stroke="#5298ff"/><path d="M10 11h1" fill="#fff" stroke="#4d9cff"/><path d="M11 11h1" fill="#fff" stroke="#479eff"/><path d="M12 11h1" fill="#fff" stroke="#409fff"/><path d="M13 11h1" fill="#fff" stroke="#379fff"/><path d="M14 11h1" fill="#fff" stroke="#339dff"/><path d="M15 11h1" fill="#fff" stroke="#2f9bff"/><path d="M16 11h1" fill="#fff" stroke="#2e97ff"/><path d="M17 11h1" fill="#fff" stroke="#2e91fc"/><path d="M18 11h1" fill="#fff" stroke="#2a80f0"/><path d="M19 11h1" fill="#fff" stroke="#1b5dcb"/><path d="M1 12h1" fill="#fff" stroke="#3275ff"/><path d="M6 12h1" fill="#fff" stroke="#5991ff"/><path d="M8 12h1" fill="#fff" stroke="#5596ff"/><path d="M9 12h1" fill="#fff" stroke="#529cff"/><path d="M10 12h1" fill="#fff" stroke="#4fa1ff"/><path d="M11 12h1" fill="#fff" stroke="#4aa6ff"/><path d="M12 12h1" fill="#fff" stroke="#42a9ff"/><path d="M13 12h1" fill="#fff" stroke="#3aa9ff"/><path d="M14 12h1" fill="#fff" stroke="#34a7ff"/><path d="M15 12h1" fill="#fff" stroke="#30a5ff"/><path d="M16 12h1" fill="#fff" stroke="#2ca0ff"/><path d="M17 12h1" fill="#fff" stroke="#2a96fd"/><path d="M18 12h1" fill="#fff" stroke="#2581f1"/><path d="M19 12h1" fill="#fff" stroke="#185dcc"/><path d="M1 13h1m0 3h1" fill="#fff" stroke="#2d72ff"/><path d="M12 13h1" fill="#fff" stroke="#44afff"/><path d="M13 13h1" fill="#fff" stroke="#3eb1ff"/><path d="M14 13h1" fill="#fff" stroke="#37afff"/><path d="M15 13h1" fill="#fff" stroke="#2fabff"/><path d="M16 13h1" fill="#fff" stroke="#29a4ff"/><path d="M17 13h1" fill="#fff" stroke="#2599fd"/><path d="M18 13h1" fill="#fff" stroke="#1e80f2"/><path d="M19 13h1" fill="#fff" stroke="#145bcd"/><path d="M1 14h1" fill="#fff" stroke="#276eff"/><path d="M2 14h1" fill="#fff" stroke="#3d7dff"/><path d="M3 14h1" fill="#fff" stroke="#4985ff"/><path d="M12 14h1" fill="#fff" stroke="#43b1ff"/><path d="M13 14h1" fill="#fff" stroke="#3eb4ff"/><path d="M14 14h1" fill="#fff" stroke="#35b2ff"/><path d="M15 14h1" fill="#fff" stroke="#2caeff"/><path d="M16 14h1" fill="#fff" stroke="#24a5ff"/><path d="M17 14h1" fill="#fff" stroke="#1f97fd"/><path d="M18 14h1" fill="#fff" stroke="#1980f3"/><path d="M19 14h1" fill="#fff" stroke="#105ace"/><path d="M1 15h1" fill="#fff" stroke="#216aff"/><path d="M2 15h1" fill="#fff" stroke="#3578ff"/><path d="M4 15h1" fill="#fff" stroke="#4885ff"/><path d="M12 15h1" fill="#fff" stroke="#41afff"/><path d="M13 15h1" fill="#fff" stroke="#3bb2ff"/><path d="M14 15h1" fill="#fff" stroke="#33b1ff"/><path d="M15 15h1" fill="#fff" stroke="#2aadff"/><path d="M16 15h1" fill="#fff" stroke="#21a3ff"/><path d="M17 15h1" fill="#fff" stroke="#1a95fd"/><path d="M18 15h1" fill="#fff" stroke="#137cf2"/><path d="M19 15h1" fill="#fff" stroke="#0c59cf"/><path d="M1 16h1" fill="#fff" stroke="#1c66ff"/><path d="M3 16h1" fill="#fff" stroke="#3879ff"/><path d="M4 16h1" fill="#fff" stroke="#3f7eff"/><path d="M6 16h1" fill="#fff" stroke="#4584ff"/><path d="M7 16h1" fill="#fff" stroke="#4587ff"/><path d="M8 16h1" fill="#fff" stroke="#468eff"/><path d="M9 16h1" fill="#fff" stroke="#4696ff"/><path d="M10 16h1" fill="#fff" stroke="#439cff"/><path d="M11 16h1" fill="#fff" stroke="#3fa3ff"/><path d="M12 16h1" fill="#fff" stroke="#3ba8ff"/><path d="M13 16h1" fill="#fff" stroke="#3af"/><path d="M14 16h1" fill="#fff" stroke="#2da9ff"/><path d="M15 16h1" fill="#fff" stroke="#24a6ff"/><path d="M16 16h1" fill="#fff" stroke="#1d9eff"/><path d="M17 16h1" fill="#fff" stroke="#1690fd"/><path d="M18 16h1" fill="#fff" stroke="#1078f1"/><path d="M19 16h1" fill="#fff" stroke="#0b57ce"/><path d="M1 17h1" fill="#fff" stroke="#1761f9"/><path d="M2 17h1" fill="#fff" stroke="#246bfa"/><path d="M3 17h1" fill="#fff" stroke="#2f72fb"/><path d="M4 17h1" fill="#fff" stroke="#3676fb"/><path d="M5 17h1" fill="#fff" stroke="#3a7afb"/><path d="M6 17h1" fill="#fff" stroke="#3b7bfc"/><path d="M7 17h1" fill="#fff" stroke="#3b7efc"/><path d="M8 17h1" fill="#fff" stroke="#3c84fc"/><path d="M9 17h1" fill="#fff" stroke="#3b8afc"/><path d="M10 17h1" fill="#fff" stroke="#3990fc"/><path d="M11 17h1" fill="#fff" stroke="#3695fc"/><path d="M12 17h1" fill="#fff" stroke="#3299fc"/><path d="M13 17h1" fill="#fff" stroke="#2c9cfd"/><path d="M14 17h1" fill="#fff" stroke="#259bfd"/><path d="M15 17h1" fill="#fff" stroke="#1e97fd"/><path d="M16 17h1" fill="#fff" stroke="#1790fc"/><path d="M17 17h1" fill="#fff" stroke="#1184fa"/><path d="M18 17h1" fill="#fff" stroke="#0c6ded"/><path d="M19 17h1" fill="#fff" stroke="#0850c8"/><path d="M1 18h1" fill="#fff" stroke="#2f6ae4"/><path d="M2 18h1" fill="#fff" stroke="#1b5fe9"/><path d="M3 18h1" fill="#fff" stroke="#2163e8"/><path d="M4 18h1" fill="#fff" stroke="#2868eb"/><path d="M5 18h1" fill="#fff" stroke="#2c6aea"/><path d="M6 18h1" fill="#fff" stroke="#2e6dea"/><path d="M7 18h1" fill="#fff" stroke="#2d6deb"/><path d="M8 18h1" fill="#fff" stroke="#2c71ec"/><path d="M9 18h1" fill="#fff" stroke="#2c76ec"/><path d="M10 18h1" fill="#fff" stroke="#2a79ed"/><path d="M11 18h1" fill="#fff" stroke="#287eef"/><path d="M12 18h1" fill="#fff" stroke="#2481f1"/><path d="M13 18h1" fill="#fff" stroke="#2182f1"/><path d="M14 18h1" fill="#fff" stroke="#1c80f1"/><path d="M15 18h1" fill="#fff" stroke="#1880f3"/><path d="M16 18h1" fill="#fff" stroke="#117af2"/><path d="M17 18h1" fill="#fff" stroke="#0c6eed"/><path d="M18 18h1" fill="#fff" stroke="#0a5ddd"/><path d="M19 18h1" fill="#fff" stroke="#265dc1"/><path d="M0 19h1m19 0h1" fill="#fff" stroke="#93b4f2"/><path d="M1 19h1" fill="#fff" stroke="#d1ddf4"/><path d="M2 19h1" fill="#fff" stroke="#2e61ca"/><path d="M3 19h1" fill="#fff" stroke="#134bbf"/><path d="M4 19h1" fill="#fff" stroke="#164fc2"/><path d="M5 19h1" fill="#fff" stroke="#1950c1"/><path d="M6 19h1" fill="#fff" stroke="#1b52c1"/><path d="M7 19h1" fill="#fff" stroke="#1a52c3"/><path d="M8 19h1" fill="#fff" stroke="#1954c6"/><path d="M9 19h1" fill="#fff" stroke="#1b58c9"/><path d="M10 19h1" fill="#fff" stroke="#1858c8"/><path d="M11 19h1" fill="#fff" stroke="#165bcd"/><path d="M12 19h1" fill="#fff" stroke="#145cd0"/><path d="M13 19h1" fill="#fff" stroke="#135cd0"/><path d="M14 19h1" fill="#fff" stroke="#0f58cc"/><path d="M15 19h1" fill="#fff" stroke="#0d5ad2"/><path d="M16 19h1" fill="#fff" stroke="#0b58d1"/><path d="M17 19h1" fill="#fff" stroke="#0951cb"/><path d="M18 19h1" fill="#fff" stroke="#265ec3"/><path d="M19 19h1" fill="#fff" stroke="#d0daee"/><path d="M1 20h1m17 0h1" fill="#fff" stroke="#93b3f2"/><path d="M14 20h1" fill="#fff" stroke="#fefefe"/><path d="M15 20h1m1 0h1" fill="#fff" stroke="#fdfdfd"/><path d="M16 20h1" fill="#fff" stroke="#fcfcfc"/><path d="M18 20h1" fill="#fff" stroke="#f2f5fc"/><path d="M11 13h1M11 14h1M11 15h1" fill="#fff" stroke="#4aa6ff"/><path d="M10 13h1M10 14h1M10 15h1" fill="#fff" stroke="#4fa1ff"/><path d="M9 13h1M9 14h1M9 15h1" fill="#fff" stroke="#529cff"/><path d="M8 13h1M8 14h1M8 15h1" fill="#fff" stroke="#5596ff"/><path fill="url(#b)" d="M5.005 12.49h3.016v3.005H5.005z"/><g fill="#fff"><path d="M15.898 15.284H9.795v1.526l5.986.054c.428.004 1.526 0 1.526 0V3.134H9.679v1.471h6.219Z"/><path d="M8.27 13.759v-3.052h6.102V9.182H8.27V6.13L3.693 9.945z"/></g><path d="M3 0h16M0 2h1M0 3h1m19 0h1M0 4h1m19 0h1M0 5h1m19 0h1M0 6h1m19 0h1M0 7h1m19 0h1M0 8h1m19 0h1M0 9h1m19 0h1M0 10h1m19 0h1M0 11h1m19 0h1M0 12h1m19 0h1M0 13h1m19 0h1M0 14h1m19 0h1M0 15h1m19 0h1M0 16h1m19 0h1M0 17h1m19 0h1m-1 1h1M2 20h16" fill="#fff" stroke="#fff"/></svg>