<svg xmlns="http://www.w3.org/2000/svg" xmlns:xlink="http://www.w3.org/1999/xlink" width="277.921" height="378.777" viewBox="0 0 73.533 100.218"><defs><linearGradient id="a"><stop style="stop-color:#13df21;stop-opacity:1" offset="0"/><stop offset=".441" style="stop-color:#7ded85;stop-opacity:1"/><stop style="stop-color:#acf3b1;stop-opacity:1" offset="1"/></linearGradient><linearGradient xlink:href="#a" id="b" x1="29.667" y1="254.638" x2="36.215" y2="254.571" gradientUnits="userSpaceOnUse" gradientTransform="matrix(1.68515 0 0 2.08905 -38.928 -284.114)"/><filter style="color-interpolation-filters:sRGB" id="c"><feGaussianBlur stdDeviation="0.4 0.4" result="fbSourceGraphic"/><feColorMatrix result="fbSourceGraphicAlpha" in="fbSourceGraphic" values="0 0 0 -1 0 0 0 0 -1 0 0 0 0 -1 0 0 0 0 1 0"/><feGaussianBlur stdDeviation="0.4 0.4" result="blur" in="fbSourceGraphic"/></filter></defs><g transform="translate(-4.602 -196.891)"><path style="opacity:1;fill:#13df21;fill-opacity:1;stroke:#094b0f;stroke-width:2.08905149;stroke-linecap:round;stroke-linejoin:round;stroke-miterlimit:4;stroke-dasharray:none;stroke-dashoffset:0;stroke-opacity:1" d="M94.513 247c0 6.84-78.702 52.279-84.625 48.859-5.924-3.42-5.924-94.298 0-97.718 5.923-3.42 84.625 42.019 84.625 48.859z" transform="matrix(.80666 0 0 1 1.053 0)"/><path style="fill:url(#b);fill-opacity:1;stroke:none;stroke-width:.49642849px;stroke-linecap:butt;stroke-linejoin:miter;stroke-opacity:1;opacity:.8" d="M24.24 246.162c.337 26.103-13.175 45.226-13.175 45.226l.338-87.101c4.654 6.568 12.59 18.065 12.836 41.875z"/><ellipse style="opacity:.54000005;fill:#fff;fill-opacity:1;stroke:none;stroke-width:1;stroke-linecap:round;stroke-linejoin:round;stroke-miterlimit:4;stroke-dasharray:none;stroke-dashoffset:0;stroke-opacity:1;filter:url(#c)" cx="-27.962" cy="241.466" rx="1.236" ry="3.203" transform="matrix(1.76685 -5.89625 4.28252 2.70098 -938.77 -582.407)"/></g></svg>