<svg xmlns="http://www.w3.org/2000/svg" version="1.1" id="svg15" width="100" height="100"><style type="text/css" id="style907">.st1{fill:#4f5d73}</style><g transform="matrix(.37753 0 0 .37753 -21.968 14.565)" id="g956"><g id="Layer_1" transform="matrix(4.1388 0 0 4.1388 59.017 -38.58)"><g id="g911"><circle cx="31.8" cy="32" r="32" id="circle909" style="fill:#c75c5c"/></g><g id="g961"><g id="g915"><path class="st1" id="rect913" style="fill:#4f5d73" d="M16 30h4v4h-4z"/></g><g id="g919"><path class="st1" id="rect917" style="fill:#4f5d73" d="M16 37h4v4h-4z"/></g><g id="g923"><path class="st1" id="rect921" style="fill:#4f5d73" d="M16 44h4v4h-4z"/></g><g id="g927"><path class="st1" id="rect925" style="fill:#4f5d73" d="M16 23h4v4h-4z"/></g><g id="g931"><path class="st1" id="rect929" style="fill:#4f5d73" d="M16 16h4v4h-4z"/></g><g id="g935"><path class="st1" id="rect933" style="fill:#4f5d73" d="M44 30h4v4h-4z"/></g><g id="g939"><path class="st1" id="rect937" style="fill:#4f5d73" d="M44 37h4v4h-4z"/></g><g id="g943"><path class="st1" id="rect941" style="fill:#4f5d73" d="M44 44h4v4h-4z"/></g><g id="g947"><path class="st1" id="rect945" style="fill:#4f5d73" d="M44 23h4v4h-4z"/></g><g id="g951"><path class="st1" id="rect949" style="fill:#4f5d73" d="M44 16h4v4h-4z"/></g><g id="g955"><path class="st1" id="rect953" style="fill:#4f5d73" d="M24 16h16v14H24z"/></g><g id="g959"><path class="st1" id="rect957" style="fill:#4f5d73" d="M24 34h16v14H24z"/></g></g><g id="g965" style="opacity:.2"><path d="M48 14H16c-2.2 0-4 1.8-4 4v32c0 2.2 1.8 4 4 4h32c2.2 0 4-1.8 4-4V18c0-2.2-1.8-4-4-4zM20 50h-4v-4h4zm0-7h-4v-4h4zm0-7h-4v-4h4zm0-7h-4v-4h4zm0-7h-4v-4h4zm20 28H24V36h16Zm0-18H24V18h16zm8 18h-4v-4h4zm0-7h-4v-4h4zm0-7h-4v-4h4zm0-7h-4v-4h4zm0-7h-4v-4h4z" id="path963" style="fill:#231f20"/></g><g id="g969"><path d="M48 12H16c-2.2 0-4 1.8-4 4v32c0 2.2 1.8 4 4 4h32c2.2 0 4-1.8 4-4V16c0-2.2-1.8-4-4-4zM20 48h-4v-4h4zm0-7h-4v-4h4zm0-7h-4v-4h4zm0-7h-4v-4h4zm0-7h-4v-4h4zm20 28H24V34h16Zm0-18H24V16h16zm8 18h-4v-4h4zm0-7h-4v-4h4zm0-7h-4v-4h4zm0-7h-4v-4h4zm0-7h-4v-4h4z" id="path967" style="fill:#e0e0d1"/></g></g></g></svg>