<?xml version="1.0" encoding="UTF-8" standalone="no"?>
<svg
   xmlns:dc="http://purl.org/dc/elements/1.1/"
   xmlns:cc="http://creativecommons.org/ns#"
   xmlns:rdf="http://www.w3.org/1999/02/22-rdf-syntax-ns#"
   xmlns:svg="http://www.w3.org/2000/svg"
   xmlns="http://www.w3.org/2000/svg"
   viewBox="0 0 155.92427 109.2"
   version="1.1"
   id="svg15"
   width="155.92427"
   height="109.2">
  <metadata
     id="metadata21">
    <rdf:RDF>
      <cc:Work
         rdf:about="">
        <dc:format>image/svg+xml</dc:format>
        <dc:type
           rdf:resource="http://purl.org/dc/dcmitype/StillImage" />
        <dc:title></dc:title>
      </cc:Work>
    </rdf:RDF>
  </metadata>
  <defs
     id="defs19" />
  <style
     type="text/css"
     id="style907">
	.st0{fill:#C75C5C;}
	.st1{fill:#4F5D73;}
	.st2{opacity:0.2;}
	.st3{fill:#231F20;}
	.st4{fill:#E0E0D1;}
</style>
  <g
     transform="matrix(0.4104669,0,0,0.4104669,-0.28549958,16.072755)"
     id="g956">
    <g
       id="Layer_1"
       transform="matrix(4.1387975,0,0,4.1387975,59.017046,-38.579521)">
	<g
   id="g911">
		<circle
   class="st0"
   cx="31.799999"
   cy="32"
   r="32"
   id="circle909"
   style="fill:#c75c5c" />

	</g>

	<g
   id="g961">
		<g
   id="g915">
			<rect
   x="16"
   y="30"
   class="st1"
   width="4"
   height="4"
   id="rect913"
   style="fill:#4f5d73" />

		</g>

		<g
   id="g919">
			<rect
   x="16"
   y="37"
   class="st1"
   width="4"
   height="4"
   id="rect917"
   style="fill:#4f5d73" />

		</g>

		<g
   id="g923">
			<rect
   x="16"
   y="44"
   class="st1"
   width="4"
   height="4"
   id="rect921"
   style="fill:#4f5d73" />

		</g>

		<g
   id="g927">
			<rect
   x="16"
   y="23"
   class="st1"
   width="4"
   height="4"
   id="rect925"
   style="fill:#4f5d73" />

		</g>

		<g
   id="g931">
			<rect
   x="16"
   y="16"
   class="st1"
   width="4"
   height="4"
   id="rect929"
   style="fill:#4f5d73" />

		</g>

		<g
   id="g935">
			<rect
   x="44"
   y="30"
   class="st1"
   width="4"
   height="4"
   id="rect933"
   style="fill:#4f5d73" />

		</g>

		<g
   id="g939">
			<rect
   x="44"
   y="37"
   class="st1"
   width="4"
   height="4"
   id="rect937"
   style="fill:#4f5d73" />

		</g>

		<g
   id="g943">
			<rect
   x="44"
   y="44"
   class="st1"
   width="4"
   height="4"
   id="rect941"
   style="fill:#4f5d73" />

		</g>

		<g
   id="g947">
			<rect
   x="44"
   y="23"
   class="st1"
   width="4"
   height="4"
   id="rect945"
   style="fill:#4f5d73" />

		</g>

		<g
   id="g951">
			<rect
   x="44"
   y="16"
   class="st1"
   width="4"
   height="4"
   id="rect949"
   style="fill:#4f5d73" />

		</g>

		<g
   id="g955">
			<rect
   x="24"
   y="16"
   class="st1"
   width="16"
   height="14"
   id="rect953"
   style="fill:#4f5d73" />

		</g>

		<g
   id="g959">
			<rect
   x="24"
   y="34"
   class="st1"
   width="16"
   height="14"
   id="rect957"
   style="fill:#4f5d73" />

		</g>

	</g>

	<g
   class="st2"
   id="g965"
   style="opacity:0.2">
		<path
   class="st3"
   d="M 48,14 H 16 c -2.2,0 -4,1.8 -4,4 v 32 c 0,2.2 1.8,4 4,4 h 32 c 2.2,0 4,-1.8 4,-4 V 18 c 0,-2.2 -1.8,-4 -4,-4 z M 20,50 h -4 v -4 h 4 z m 0,-7 h -4 v -4 h 4 z m 0,-7 h -4 v -4 h 4 z m 0,-7 h -4 v -4 h 4 z m 0,-7 h -4 v -4 h 4 z M 40,50 H 24 V 36 H 40 Z M 40,32 H 24 V 18 h 16 z m 8,18 h -4 v -4 h 4 z m 0,-7 h -4 v -4 h 4 z m 0,-7 h -4 v -4 h 4 z m 0,-7 h -4 v -4 h 4 z m 0,-7 h -4 v -4 h 4 z"
   id="path963"
   style="fill:#231f20" />

	</g>

	<g
   id="g969">
		<path
   class="st4"
   d="M 48,12 H 16 c -2.2,0 -4,1.8 -4,4 v 32 c 0,2.2 1.8,4 4,4 h 32 c 2.2,0 4,-1.8 4,-4 V 16 c 0,-2.2 -1.8,-4 -4,-4 z M 20,48 h -4 v -4 h 4 z m 0,-7 h -4 v -4 h 4 z m 0,-7 h -4 v -4 h 4 z m 0,-7 h -4 v -4 h 4 z m 0,-7 h -4 v -4 h 4 z M 40,48 H 24 V 34 H 40 Z M 40,30 H 24 V 16 h 16 z m 8,18 h -4 v -4 h 4 z m 0,-7 h -4 v -4 h 4 z m 0,-7 h -4 v -4 h 4 z m 0,-7 h -4 v -4 h 4 z m 0,-7 h -4 v -4 h 4 z"
   id="path967"
   style="fill:#e0e0d1" />

	</g>

</g>
    <g
       id="Layer_2"
       transform="translate(0,110.1185)">
</g>
  </g>
</svg>
