<?xml version="1.0" encoding="UTF-8" standalone="no"?>
<svg
   xmlns:dc="http://purl.org/dc/elements/1.1/"
   xmlns:cc="http://creativecommons.org/ns#"
   xmlns:rdf="http://www.w3.org/1999/02/22-rdf-syntax-ns#"
   xmlns:svg="http://www.w3.org/2000/svg"
   xmlns="http://www.w3.org/2000/svg"
   viewBox="0 0 155.92427 109.2"
   version="1.1"
   id="svg15"
   width="155.92427"
   height="109.2">
  <metadata
     id="metadata21">
    <rdf:RDF>
      <cc:Work
         rdf:about="">
        <dc:format>image/svg+xml</dc:format>
        <dc:type
           rdf:resource="http://purl.org/dc/dcmitype/StillImage" />
        <dc:title></dc:title>
      </cc:Work>
    </rdf:RDF>
  </metadata>
  <defs
     id="defs19" />
  <g
     id="layer1"
     transform="matrix(0.4611154,0,0,0.46450924,-153.35269,-152.73091)">
    <rect
       transform="scale(-1,1)"
       ry="35.487503"
       rx="35.487503"
       y="328.84921"
       x="-619.14587"
       height="234.98955"
       width="235.00784"
       id="rect1942"
       style="fill:#00dbff;fill-opacity:1;fill-rule:evenodd;stroke:none;stroke-width:0.875;stroke-linecap:square;stroke-linejoin:miter;stroke-miterlimit:4;stroke-dasharray:0.875, 1.75;stroke-dashoffset:0;stroke-opacity:1" />
    <path
       style="fill:#ffffff;fill-opacity:1;stroke:none"
       d="m 407.51456,418.71714 c 20.36065,-18.26869 38.5373,-50.1058 59.63915,-43.49374 34.97004,9.05104 19.86115,75.94774 39.73277,107.22334 27.21613,-15.34824 44.87532,-47.63468 37.53937,-64.3886 -1.64052,-4.68205 0.3562,-16.35841 -21.98768,-6.15753 -5.79957,2.64773 -5.5624,-7.61098 -4.54176,-8.99938 20.68678,-22.73212 32.63315,-32.21383 46.78872,-31.63182 11.90426,1.9887 32.8395,15.3654 28.99583,47.44772 -7.96729,47.73745 -78.05806,122.69948 -101.4854,119.93729 -26.82107,5.91679 -40.45673,-78.81619 -60.62764,-118.61929 l -18.45832,7.14216 c -7.60606,1.19868 -6.55648,-3.66159 -5.59504,-8.46015 z"
       id="path9951" />
  </g>
</svg>
