<svg xmlns="http://www.w3.org/2000/svg" width="100" height="100" viewBox="-10 -10 120 120">
    <g transform="matrix(.42244 0 0 .42555 -161.914 -139.942)">
        <rect transform="scale(-1 1)" ry="35.488" rx="35.488" y="328.849" x="-619.146" height="234.99" width="235.008" style="fill:#00dbff" />
        <path style="fill:#fff"
            d="M407.515 418.717c20.36-18.269 38.537-50.106 59.639-43.494 34.97 9.051 19.86 75.948 39.732 107.224 27.217-15.349 44.876-47.635 37.54-64.389-1.64-4.682.356-16.358-21.988-6.157-5.8 2.647-5.562-7.611-4.542-9 20.687-22.732 32.634-32.214 46.79-31.632 11.903 1.99 32.839 15.366 28.995 47.448-7.967 47.738-78.058 122.7-101.485 119.937-26.822 5.917-40.457-78.816-60.628-118.619l-18.458 7.142c-7.606 1.199-6.557-3.661-5.595-8.46z" />
    </g>
</svg>