<svg width="1361.95" height="507.025" viewBox="0 0 360.349 134.15" xmlns="http://www.w3.org/2000/svg"><path style="fill:#000;fill-opacity:1;stroke:#000;stroke-width:.22672;stroke-linecap:round;stroke-linejoin:round;stroke-miterlimit:4;stroke-dasharray:none;stroke-opacity:1" transform="skewX(19.573) scale(1 .94221)" d="M72.782 1.102h73.879v15.63H72.782z"/><path style="fill:#f5f5f5;fill-opacity:1;stroke:#000;stroke-width:.22672;stroke-linecap:round;stroke-linejoin:round;stroke-miterlimit:4;stroke-dasharray:none;stroke-opacity:1" transform="skewX(19.573) scale(1 .94221)" d="M71.613.113h73.879v15.63H71.613z"/><path style="opacity:1;fill:#caf8f8;fill-opacity:1;stroke:none;stroke-width:2.14327;stroke-linecap:butt;stroke-linejoin:miter;stroke-miterlimit:4;stroke-dasharray:none;stroke-dashoffset:0;stroke-opacity:1" d="M31.465 21.29h328.884l-31.465 68.57H0Z"/><path style="opacity:1;fill:#159e9e;fill-opacity:1;stroke:none;stroke-width:1.05047;stroke-linecap:butt;stroke-linejoin:miter;stroke-miterlimit:4;stroke-dasharray:none;stroke-dashoffset:0;stroke-opacity:1" d="M105.397 99.342H261.03l16.109 34.808H121.506Z"/><path style="opacity:1;fill:#11e2e2;fill-opacity:1;stroke:none;stroke-width:1.05048;stroke-linecap:butt;stroke-linejoin:miter;stroke-miterlimit:4;stroke-dasharray:none;stroke-dashoffset:0;stroke-opacity:1" d="M99.073 96.237h155.634l16.109 34.81H115.182Z"/><path d="M144.988 87.02c-2.367-.183-5.365-.776-7.032-1.39-1.9-.698-5.19-2.84-5-3.252.039-.086-.405-.419-.998-.747a19.721 19.721 0 0 1-2.158-1.447c-.733-.576-1.115-.798-1.168-.68-.043.097-.096 1.628-.118 3.402l-.04 3.227-6.032.034c-8.056.045-9.788-.128-12.136-1.209-1.085-.5-2.841-1.887-2.841-2.244 0-.158-.344-.397-1.032-.717-1.887-.879-3.58-2.602-4.073-4.147-.483-1.51-.524-2.678-.616-17.657-.088-14.353-.11-15.23-.365-15.27-.257-.041-.272 1.032-.31 20.583l-.04 20.627-8.95.033-8.951.033-.1-.33c-.055-.182-.069-.82-.031-1.417l.068-1.087-1.948-.035-1.95-.036-.04-23.748c-.036-22.212-.022-23.757.224-23.909.172-.105.843-.16 1.94-.16h1.676l.001-.743c.002-.408.044-.87.095-1.028.091-.284.073-.287-1.901-.323l-1.995-.036-.04-3.921c-.03-2.785.01-3.972.135-4.098.146-.146 1.75-.177 9.222-.177 8.785 0 9.051.008 9.207.25.088.137.16.907.16 1.71v1.46l1.3-.044c2.126-.074 1.969-.404 1.92 4.019l-.04 3.77-1.601.036c-1.068.024-1.582.084-1.544.178.063.158 3.532.158 3.723 0 .063-.052.132-1.69.155-3.64l.041-3.544h17.987l.078 1.613.078 1.614 1.628.064 1.628.064v3.873l.62.064.62.064.078 1.666.077 1.664 1.35-.027c.765-.015 1.49.035 1.673.117.287.128.46.04 1.519-.784 2.87-2.231 6.343-3.663 10.498-4.327 1.964-.314 7.314-.317 9.38-.005 2.881.434 6.029 1.492 8.219 2.762 1.809 1.049 3.712 2.747 4.472 3.99.214.351.451.555.675.581.495.06 2.168 1.778 2.92 3 .348.564.68 1.088.74 1.163.06.076.143-4.682.186-10.574l.077-10.712h17.987l.043 1.683.043 1.684 1.44-.052c2.097-.077 1.962-.336 1.962 3.792 0 1.876.032 3.412.069 3.412.038 0 .683-.17 1.435-.379 3.27-.905 7.305-.85 10.265.138 2.613.873 5.166 2.745 6.092 4.467.194.361.394.549.584.549.45 0 2.127 1.622 2.728 2.637.52.878.729 1.632 1.13 4.074.087.535.145-3.258.159-10.47.018-9.71.053-11.332.246-11.465.305-.211 23.009-.113 25.281.109 5.379.525 8.122 1.329 10.597 3.104 1.093.785 2.602 2.33 3.062 3.138.158.276.388.484.537.484.352 0 1.54 1.08 2.37 2.153 1.585 2.055 2.32 4.503 2.585 8.624.308 4.782-.353 7.82-2.056 9.439-.505.48-2.64 1.722-2.966 1.726a1.093 1.093 0 0 0-.397.12c-.181.095-.106.225.395.676.34.308.917 1.009 1.282 1.56.365.55.728.968.808.927.274-.142 1.94 1.345 2.556 2.282l.61.926.096-5.085c.052-2.797.18-5.725.282-6.506.766-5.844 2.61-8.936 6.781-11.371 3.209-1.874 6.554-2.689 11.68-2.846 8.8-.269 15.532 2.17 19.003 6.886.377.512.75.87.93.892.166.02.529.243.807.495.278.253.54.459.581.459.042 0 .076-1.473.076-3.275 0-2.54.046-3.307.203-3.415.111-.077.931-.157 1.822-.177l1.618-.037.078-3.615.077-3.613h17.986l.078 1.613.077 1.614 1.628.064 1.628.064v3.873l.62.064.62.064.078 1.666.077 1.664 1.35-.027c2.16-.044 1.996-.378 1.948 3.963l-.041 3.705-2.249.064-2.248.064-.04 13.584-.039 13.584h.823c.452 0 .906.07 1.008.155.124.102.186.665.186 1.678v1.522h1.366c.848 0 1.467.062 1.63.162.242.147.262.5.224 3.904l-.041 3.743-5.815.039c-5.605.038-8.3-.066-9.923-.382-1.4-.273-3.184-1.115-4.257-2.008-.558-.464-1.015-.946-1.015-1.069 0-.141-.387-.41-1.043-.725-2.1-1.01-3.649-2.678-4.147-4.468-.205-.735-.503-3.756-.564-5.713l-.02-.645-.122.71c-.068.39-.197 1.328-.288 2.083-.459 3.846-1.79 6.396-4.602 8.817-2.453 2.112-5.436 3.327-9.914 4.037-1.953.31-8.465.307-10.698-.004-3.174-.442-5.552-1.114-7.494-2.117-1.348-.695-2.817-1.849-2.817-2.21 0-.177-.266-.382-.856-.658-1.147-.54-3.024-2.045-3.872-3.106-.718-.899-1.486-2.22-1.802-3.097-.235-.653-.447-.545-.45.23-.008 1.674-.823 4.432-1.723 5.833-1.358 2.113-3.519 3.381-6.69 3.927-2.991.514-5.677.594-19.793.591-7.455-.001-13.595-.036-13.645-.077-.048-.041-.089-.677-.089-1.412v-1.337l-1.972-.04-1.973-.038-.043 1.419-.043 1.42h-17.366l-.023-1.355-.023-1.355-1.915-.065-1.915-.064-.078-17.897c-.043-9.843-.124-17.935-.181-17.983-.167-.138-.442.4-.68 1.33-.183.722-.22 3.84-.224 18.998-.003 9.973-.061 18.206-.13 18.295-.097.128-1.96.155-8.796.13l-8.673-.034v-2.768l-1.938-.036-1.938-.035-.042-2.42c-.024-1.332-.094-2.42-.156-2.42s-.322.334-.578.742c-2.196 3.502-5.434 5.875-9.535 6.985-2.303.623-3.81.802-7.132.849-1.75.024-3.493.02-3.877-.01Zm-17.939-10.082c-2.08-3.553-2.45-6.768-2.327-20.149.043-4.659.102-8.587.132-8.729.048-.23-.031-.259-.72-.259h-.776l-.04 13.584-.04 13.584h.823c.453 0 .906.07 1.009.155.124.102.186.665.186 1.678v1.522h2.565Zm19.833-2.324c.809-.772.932-1.57 1.037-6.743l.092-4.582h16.126l.043 1.716.043 1.716.965-.038.964-.038v-9.63l-7.165.01c-3.942.007-7.343-.025-7.56-.07-.39-.082-.392-.091-.392-1.488v-1.406h-1.922c-1.61 0-1.937-.033-2.016-.204-.051-.112-.096-1.637-.098-3.388-.004-2.731-.035-3.15-.219-2.949-.505.555-.552 1.788-.552 14.586 0 13.427-.015 13.146.654 12.508Zm130.38-.774c.145-.462.207-3.708.253-13.192.034-6.918.017-12.726-.037-12.905-.142-.47-.314-.144-.523.987-.216 1.168-.243 25.723-.03 25.723.08 0 .23-.276.336-.613Zm-43.734-2.529c.157-.295.36-1.139.451-1.874.178-1.447.223-7.273.064-8.374l-.097-.678h-1.353v11.754l.325-.145c.178-.08.453-.386.61-.683Zm65.513-26.25c-.053-.113-.461-.163-1.334-.163-.691 0-1.234.044-1.204.097.029.053.304.503.61 1 .85 1.375 1.315 2.713 1.611 4.646.236 1.536.312 1.09.351-2.063.023-1.844.008-3.427-.034-3.517Zm-65.73 1.8c.563-.691.983-4.594.755-6.998l-.112-1.173-.641.04-.643.038-.04 4.302c-.044 4.597-.032 4.666.68 3.79ZM98.1 44.694c-.052-.112-.094-1.458-.094-2.99 0-1.532-.044-2.75-.097-2.705-.053.044-.106 1.39-.116 2.99-.017 2.372.019 2.91.19 2.91.129 0 .174-.08.116-.205ZM23.177 85.87c-.055-.182-.069-.82-.031-1.417l.068-1.087-1.95-.035-1.948-.036-.039-28.967c-.03-23.088 0-28.987.155-29.069.107-.056 5.471-.104 11.92-.105 9.195-.001 11.762.033 11.887.16.088.089.29.857.447 1.708l.288 1.546 1.16-.034c.639-.018 1.26.02 1.38.088.133.073.328.678.493 1.533.28 1.437 1.432 8.057 1.619 9.29.056.373.158.707.227.742.068.036.203-.415.299-1 .217-1.327 1.812-11.757 1.958-12.808.192-1.373-1.26-1.233 12.364-1.195l11.972.033.077 1.664.078 1.664 1.414-.025c1.13-.021 1.465.016 1.667.184.232.192.252 2.534.25 28.562 0 15.593-.044 28.483-.095 28.643l-.094.292-7.929-.034-7.927-.033-.024-1.355-.022-1.355-1.915-.065-1.916-.064-.041-3.776c-.025-2.244-.1-3.774-.187-3.774-.167 0-.132-.17-.778 3.775-.272 1.658-.785 4.919-.868 5.516-.045.32-.114.713-.154.874l-.072.292-5.695-.034-5.695-.035-.179-.709a7.534 7.534 0 0 1-.193-1.388l-.015-.677h-1.697c-.942 0-1.738-.056-1.79-.127-.1-.135-.27-1.053-1.395-7.547-.392-2.269-.744-4.15-.781-4.18-.195-.163-.233.9-.268 7.466l-.039 7.163-7.943.033-7.943.034Zm12.963-34.131c0-.142-.07-.258-.155-.258-.086 0-.155.116-.155.258 0 .142.07.258.155.258.085 0 .155-.116.155-.258Zm11.629-3.105c0-.138-.07-.25-.156-.25-.085 0-.154.148-.154.33 0 .187.067.295.154.25.086-.044.156-.192.156-.33Z" style="fill:#a0c7fa;stroke-width:.141462"/><path d="M144.988 87.02c-2.385-.185-5.366-.776-7.064-1.401-1.293-.476-3.27-1.613-4.249-2.444-1.085-.92-.924-1.126.456-.582 2.543 1 6.304 1.54 10.747 1.54 2.312 0 2.831-.045 5.46-.474 2.314-.376 4.661-1.21 6.528-2.317 1.141-.677 3.221-2.482 4.034-3.502.699-.876 1.798-2.69 2.14-3.533.478-1.174.958-4.221 1.064-6.759l.033-.774 1.043-.038 1.043-.039.043 5.137c.023 2.824-.014 5.455-.081 5.846-.237 1.362-2.265 4-4.31 5.607-2.286 1.795-4.638 2.76-8.36 3.432-1.146.207-2.176.276-4.651.311-1.748.024-3.493.02-3.876-.01Zm130.865.005c-4.007-.27-7.482-1.09-9.897-2.336-1.827-.945-3.391-2.364-2.604-2.364.117 0 .605.145 1.083.32.478.176 1.48.46 2.229.629 1.276.29 1.843.377 4.657.72.62.077 2.33.138 3.798.137 5.653-.002 9.606-.802 13.075-2.647 2.71-1.44 5.395-4.51 6.266-7.16.105-.32.247-.726.316-.904.618-1.593.785-4.826.776-14.958-.009-8.735-.074-10.382-.486-12.338-.166-.78-.793-2.47-1.087-2.929a1.18.981 0 0 1-.11-.518c.046-.262.064-.26.555.085.627.44.847.765.957 1.412.051.298.197.548.358.613.149.06.393.159.543.217.601.237 1.822 2.62 2.193 4.282.463 2.078.504 3.343.44 13.616-.066 10.547-.094 11.095-.675 13.487-.543 2.227-2.08 4.576-4.178 6.383-2.443 2.104-5.47 3.34-9.84 4.019-1.257.195-6.693.347-8.369.234Zm-51.344-.796-10.177-.034-.093-.289c-.17-.527-.104-2.104.097-2.328.177-.199 1.04-.217 10.504-.224 18.329-.013 21.46-.388 24.484-2.93 1.793-1.508 2.506-2.782 3.123-5.584.281-1.277.338-2.15.407-6.26.095-5.682-.104-8.225-.805-10.231-.206-.592-.236-.849-.111-.953.281-.234 1.88 1.146 2.669 2.302l.688 1.01.047 3.613c.061 4.629.383 8.756.72 9.201.208.277.135 2.722-.122 4.028-.545 2.771-1.489 4.602-3.021 5.858-2.126 1.741-4.286 2.323-9.86 2.655-3 .178-6.13.206-18.55.166Zm-201.3-.236c-.174-.38-.1-2.192.1-2.416.176-.197.781-.221 6.319-.25l6.124-.033.033-15.393c.03-14.077.091-16.477.403-15.57.087.25.566 2.68.875 4.44.43 2.445 1.452 8.403 1.56 9.1.066.425.234 1.384.373 2.129.217 1.154.253 2.587.246 9.663-.003 4.57-.044 8.36-.09 8.421-.047.063-3.625.113-7.966.113-7.044 0-7.892-.021-7.976-.204Zm22.33.101c-.156-.211-.427-1.807-.379-2.232l.05-.44 4.103-.064 4.102-.064.187-.969c.173-.897.252-1.365.674-4 .085-.533.268-1.636.406-2.453.138-.816.306-1.89.374-2.387.067-.497.23-1.514.363-2.258.132-.746.42-2.517.639-3.937.374-2.417.462-2.964.85-5.291.082-.497.228-1.427.323-2.066.095-.639.303-1.916.463-2.839.158-.923.366-2.171.46-2.775.266-1.692.495-2.583.644-2.506.181.093.155 21.775-.028 23.092a50.26 50.26 0 0 1-.3 1.87c-.155.836-.37 2.146-.616 3.744-.443 2.892-.806 5.137-.869 5.388l-.074.29h-5.647c-3.106 0-5.682-.046-5.724-.103Zm17.374.018c-.146-.121-.125-2.397.023-2.591.093-.122 1.582-.168 6.238-.194l6.117-.034.078-27.268c.068-24.052.105-27.284.31-27.392.128-.067.803-.123 1.5-.124.95-.002 1.33.05 1.512.2.22.184.244 2.952.242 28.556-.001 15.593-.044 28.482-.096 28.642l-.094.29H70.88c-4.325 0-7.91-.039-7.967-.085Zm20.147-.118c-.175-.38-.1-2.192.1-2.418.176-.198.84-.22 7.327-.25l7.132-.032.079-19.166c.043-10.54.095-19.182.116-19.203.02-.02.753-.02 1.627 0l1.589.038v41.17l-8.937.033c-8.05.03-8.947.013-9.032-.172Zm31.304.006c-2.65-.287-4.362-.938-5.958-2.266-.888-.74-1.273-1.413-.704-1.231.658.21 2.209.484 3.432.606 2.089.209 13.678.316 13.903.129.12-.098.208-.961.26-2.5l.077-2.349h1.3c1.981 0 1.911-.154 1.886 4.133-.012 1.903-.057 3.508-.101 3.568-.133.179-12.33.102-14.094-.09Zm55.846.112c-.206-.172-.114-2.457.104-2.608.144-.1 2.325-.153 7.094-.177l6.886-.033.083-18.715c.087-19.365.087-19.376.702-20.162.597-.762 2.051-.873 2.87-.22.86.686.982 2.378.278 3.863l-.367.774-.037 18.391c-.02 10.116-.074 18.522-.12 18.682l-.081.29h-8.655c-4.76 0-8.7-.039-8.757-.085Zm22.638 0c-.206-.172-.116-2.457.104-2.608.144-.1 2.304-.154 7.016-.177l6.809-.034.02-18.778c.02-19.414-.03-21.292-.617-23.1-.394-1.215-.017-1.227 1.286-.043 1.175 1.068 1.95 2.35 2.248 3.72.515 2.36.57 4.818.522 23.037l-.048 18.004-8.617.033c-4.74.019-8.664-.006-8.722-.054Zm119.287-.057c-2.799-.266-4.679-.947-6.271-2.273-.985-.819-1.346-1.444-.744-1.286 2.52.658 4.303.782 11.357.79l5.97.008.078-2.324c.042-1.277.133-2.395.202-2.484.084-.107.552-.161 1.405-.161.779 0 1.383.063 1.544.16.24.147.261.5.224 3.905l-.041 3.743-6.28.016c-3.454.009-6.804-.033-7.444-.094Zm-169.783-2.317c-4.196-.218-7.822-1.113-10.336-2.55-.932-.533-2.543-1.86-3.444-2.837-.78-.847-1.835-2.813-2.27-4.235-1.01-3.288-1.216-6.468-1.121-17.28.058-6.717.116-8.4.334-9.68.8-4.707 2.354-6.905 6.526-9.219 3.7-2.053 8.18-2.996 13.334-2.807 5.574.205 10.091 1.627 13.527 4.26 3.097 2.372 4.617 6.316 4.732 12.284l.038 1.936h-15.97l-.096-3.55c-.107-4.017-.204-4.866-.643-5.652-.385-.688-.96-.948-2.092-.948-.961 0-1.485.236-1.926.87-.55.79-.612 2.538-.559 15.539.048 11.577.073 12.645.326 13.358.338.955.89 1.673 1.545 2.004 1.032.524 2.676.18 3.292-.688.625-.88.727-1.666.806-6.156.043-2.378.142-4.425.22-4.55.135-.21.65-.225 7.466-.223 4.026 0 7.419.053 7.538.116.18.095.199.543.113 2.611-.12 2.852-.348 5.3-.583 6.24-.947 3.795-4.03 7.391-7.89 9.205-3.285 1.542-7.74 2.218-12.867 1.951Zm130.71-.002c-8.988-.463-13.744-2.887-15.94-8.123-1.055-2.515-1.255-4.523-1.373-13.743-.137-10.863.132-14.388 1.348-17.666 1.4-3.775 4.97-6.755 9.674-8.08 4.886-1.373 11.728-1.366 16.835.02 1.164.315 3.416 1.228 4.652 1.886 2.313 1.23 4.785 3.884 5.747 6.171.95 2.256 1.224 5.461 1.228 14.356.004 10.254-.35 14.196-1.481 16.486-2.261 4.577-6.25 7.23-12.5 8.312-1.193.207-5.54.562-6.097.5-.085-.01-1.027-.063-2.093-.119Zm3.734-8.544c.336-.188.635-.524.837-.936.308-.63.314-.888.314-14.774 0-13.35-.016-14.17-.284-14.808-.402-.96-.824-1.195-2.139-1.195-.941 0-1.116.04-1.543.357-1.002.746-.976.386-1.037 14.608-.035 8.394.003 13.303.11 14.188.184 1.52.572 2.362 1.225 2.657.655.296 1.902.248 2.517-.097Zm-2.502-.45c-.914-.68-.921-.792-.921-15.39 0-14.118.019-14.494.79-15.177.723-.642 2.406-.513 2.86.218.133.213.308.877.39 1.474.12.875.103 1.182-.081 1.575-.504 1.076-.546 2.192-.548 14.698 0 14.208.123 12.958-1.29 12.958-.568 0-.823-.075-1.2-.356ZM19.808 82.886c-.057-.048-.104-12.913-.104-28.59V25.79l.406-.128c.578-.183 22.47-.107 22.693.08.162.135.414 1.249.769 3.41.1.604.243 1.446.319 1.872.282 1.575.49 2.806 1.164 6.84.379 2.271.766 4.566.86 5.098.093.532.24 1.374.324 1.871.084.497.215 1.223.288 1.613.074.39.219 1.233.322 1.872.103.639.282 1.29.399 1.447.116.157.21.517.21.8 0 .282.07.549.156.592.096.05.155-.183.155-.612 0-.38.072-.75.158-.823.088-.073.224-.593.303-1.156.079-.562.32-2.155.534-3.54.215-1.383.46-3.01.545-3.613.084-.603.229-1.562.32-2.13.093-.567.232-1.468.31-2 .078-.532.388-2.565.69-4.517a2531.11 2106.804 0 0 0 .8-5.227c.138-.923.317-1.736.397-1.807.16-.143 21.439-.263 22.574-.127l.659.078V54.25c0 25.929-.024 28.572-.246 28.643-.135.044-3.616.079-7.735.079-6.689 0-7.502-.022-7.586-.204-.051-.112-.094-7.928-.094-17.369 0-16.277-.014-17.161-.271-17.12-.155.024-.291.18-.318.364a7.723 7.723 0 0 1-.257.967c-.118.354-.29 1.139-.386 1.742a806.59 806.59 0 0 1-.318 2c-.08.498-.222 1.398-.316 2.001a260.37 260.37 0 0 1-.318 2c-.082.497-.36 2.21-.617 3.808-.258 1.597-.54 3.339-.628 3.871a308.385 308.385 0 0 0-.586 3.679c-.088.567-.229 1.468-.314 2-.085.532-.265 1.665-.399 2.517a570.653 474.99 0 0 1-.47 2.904 467.708 389.303 0 0 0-.703 4.323 21.123 21.123 0 0 1-.346 1.743l-.188.71-5.39.033-5.39.035-.151-.293c-.125-.244-.523-2.425-1.407-7.713-.077-.462-.205-1.187-.284-1.613-.08-.426-.188-1.036-.242-1.355a149.725 124.625 0 0 0-.242-1.355c-.08-.426-.322-1.878-.54-3.227a354.252 294.867 0 0 0-.536-3.226c-.078-.427-.22-1.24-.315-1.808a166.013 138.183 0 0 0-.32-1.806c-.08-.426-.39-2.197-.688-3.937-.299-1.739-.61-3.51-.69-3.936-.081-.426-.264-1.413-.405-2.194-.141-.78-.32-1.475-.395-1.542-.077-.068-.138-.402-.138-.742 0-.341-.06-.62-.131-.62-.277 0-.334 3.25-.334 18.902 0 12.39-.044 16.187-.186 16.306-.14.116-2.069.155-7.727.155-4.148 0-7.587-.039-7.644-.086Zm39.59-35.8c0-.49-.058-.753-.155-.703-.085.044-.155.396-.155.782s.07.702.155.702c.086 0 .155-.346.155-.782ZM79.65 82.767c-.174-.376-.109-46.384.065-46.655.156-.242.415-.25 8.644-.247 4.667 0 8.572.048 8.679.104.155.082.186 4.871.155 23.52l-.04 23.416-8.704.033c-7.837.03-8.714.014-8.8-.171Zm32.854.059c-2.922-.185-4.677-.55-6.047-1.256-.952-.49-2.625-1.947-3.062-2.667-1.072-1.762-1.078-1.857-1.184-19.035l-.096-15.294-1.672-.064c-1.256-.049-1.71-.113-1.82-.259-.082-.108-.148-1.674-.149-3.565-.002-2.622.043-3.403.2-3.513.112-.076.932-.156 1.822-.177l1.62-.037.083-3.613c.046-1.987.098-3.629.117-3.647.017-.018 3.852-.018 8.521 0l8.49.033.077 3.614.078 3.613 1.938.032c1.066.018 2.095.062 2.287.1l.349.067v7.192l-.35.078c-.191.043-1.196.079-2.231.08-1.573.001-1.898.035-1.977.206-.151.328-.098 26.834.057 28.264.078.715.225 1.452.327 1.639.252.462.856.614 2.858.723.94.05 1.794.136 1.9.19.144.074.19.982.19 3.691 0 3.156-.028 3.602-.245 3.67-.357.115-10.076.062-12.081-.065Zm54.285-.06c-.051-.112-.093-12.978-.093-28.59V25.79l.397-.125c.533-.17 15.881-.17 16.415 0l.398.125v6.073c0 5.305.03 6.083.235 6.149.138.043.762-.219 1.512-.636 2.226-1.237 3.559-1.703 6.006-2.099 3.02-.488 6.809.01 9.226 1.21 2.502 1.245 4 2.693 4.697 4.54.834 2.212.962 5.57.962 25.158 0 14.757-.024 16.4-.245 16.584-.218.182-1.154.2-8.567.17l-8.321-.033-.088-18.585c-.089-18.878-.086-18.793-.636-19.97-.26-.557-1.022-.873-2.103-.873-1.524 0-2.064.521-2.454 2.364-.187.886-.223 3.944-.224 18.937 0 13.737-.043 17.918-.186 18.037-.14.117-2.243.155-8.511.155-7.448 0-8.335-.022-8.42-.204Zm44.136.118c-.155-.051-.194-5.888-.194-28.58V25.79l.426-.14c.71-.232 22.359-.053 25.003.207 5.119.504 7.66 1.283 10.103 3.098 3.469 2.578 4.826 6.085 4.847 12.522.012 3.597-.252 5.017-1.239 6.657-.752 1.252-2.886 2.494-5.53 3.221-1.346.37-1.513.532-.915.886.25.15.526.271.611.271.41 0 2.999 1.017 3.973 1.56 1.38.771 1.774 1.12 2.544 2.255.742 1.095 1.315 2.627 1.644 4.396.332 1.79.346 10.653.02 12.84-.558 3.747-1.79 5.93-4.136 7.328-2.044 1.219-4.303 1.649-10.221 1.95-2.548.129-26.566.168-26.936.044Zm20.168-9.908c.64-.102 1.454-.309 1.81-.46 1.371-.583 1.708-2.068 1.702-7.513-.005-3.885-.17-5.681-.598-6.487-.465-.872-1.354-1.189-3.7-1.313l-1.59-.085v7.946c0 6.237.041 7.961.193 8.012.352.118 1.004.088 2.183-.1Zm-1.965-.39c-.127-.278-.134-14.56-.007-14.837.18-.392 3.091-.14 3.979.345.433.236.888 1.19.888 1.861 0 .422-.01.43-.696.43h-.696l-.04 5.904-.04 5.904-.546.222c-.3.122-1.039.26-1.643.308-.95.073-1.11.055-1.199-.136Zm3.05-24.601c.854-.198 1.737-.91 1.948-1.573.338-1.069.553-5.235.36-7.031-.236-2.21-.707-3.137-1.818-3.576-.594-.234-3.204-.51-3.668-.387-.269.071-.283.393-.283 6.304 0 3.426.046 6.268.103 6.316.165.137 2.708.097 3.358-.053Zm-3.057-.453c-.052-.112-.094-2.743-.094-5.846 0-4.217.047-5.682.186-5.798.462-.384 3.003.007 3.71.571.508.405 1.12 1.641.985 1.992-.061.161-.271.249-.663.276l-.575.04-.037 4.258c-.046 5.073.112 4.711-2.056 4.711-1.099 0-1.38-.039-1.456-.204Zm80.224 35.24c-3.13-.243-4.199-.496-5.75-1.363-1.605-.897-2.92-2.322-3.388-3.666-.46-1.328-.515-2.946-.61-17.875l-.098-15.294-1.628-.035c-1.306-.028-1.667-.078-1.823-.25-.143-.16-.193-1.078-.193-3.522s.05-3.362.193-3.522c.156-.172.517-.222 1.823-.25l1.628-.036.084-3.613c.045-1.987.098-3.629.116-3.647.017-.018 3.852-.018 8.522 0l8.489.033.077 3.614.078 3.613 1.938.032c1.066.018 2.095.062 2.287.1l.349.067v3.611c0 1.987-.018 3.62-.039 3.631-.021.01-1.05.055-2.287.097l-2.248.077-.045 13.423c-.045 13.19.029 15.859.457 16.641.224.41.847.584 2.379.665.682.035 1.537.094 1.9.13l.658.067v3.657c0 3.215-.03 3.666-.245 3.735-.445.142-10.489.047-12.624-.12ZM144.33 74.845c-.652-.427-1.043-1.076-1.286-2.135-.328-1.428-.33-26.148-.001-27.423.267-1.038.848-1.55 1.752-1.548 1.23.004 1.848.57 2.135 1.956.204.985.2 1.01-.437 2.366-.134.283-.204 3.958-.263 13.68l-.08 13.294-.707.038c-.527.029-.809-.03-1.114-.228Zm174.842.067c-.607-.074-1.206-.207-1.332-.295-.57-.399-.608-1.483-.558-15.78l.047-13.873 2.248-.065 2.249-.065.042-2.248c.026-1.393.108-2.315.213-2.42.226-.228 2.604-.235 2.974-.01.24.147.26.496.223 3.84l-.041 3.677-2.249.065-2.248.064-.039 13.57c-.032 10.693-.08 13.582-.233 13.623-.106.03-.69-.008-1.296-.083Zm-197.83-.024-.654-.118c-.741-.131-.743-.147-.743-15.481V44.963l2.249-.065 2.248-.064.043-2.317c.03-1.657.096-2.347.232-2.419.341-.18 2.663-.12 2.988.078.29.176.285.197-.171.742-.81.966-1.453 2.19-1.851 3.528-.211.71-.39 1.465-.399 1.678-.008.213-.095.65-.195.968-.18.577-.186.582-.957.646l-.775.064-.078 13.552-.077 13.551-.775.02c-.427.011-.915-.005-1.086-.037ZM151.3 56.94c-.247-.054-.272-.207-.232-1.437l.044-1.377 6.357-.033c5.099-.026 6.388-.067 6.512-.206.197-.22.04-4.63-.217-6.15-.28-1.64-.602-2.856-1.037-3.902-.6-1.441-.62-1.552-.285-1.498.46.074 2.162 1.873 2.968 3.137l.741 1.166.047 5.114.047 5.113-.357.08c-.408.09-14.166.084-14.588-.007Zm96.643-3.307c-.94-.513-1.707-.832-3.14-1.303-.32-.105-.582-.267-.582-.36 0-.093.506-.332 1.124-.53 2.688-.866 4.108-1.822 4.99-3.358.698-1.216.978-2.172 1.169-3.977.17-1.617-.01-6.125-.305-7.596-.2-1.006-.838-3.01-1.163-3.657-.479-.955-.106-.995.905-.095 1.423 1.267 2.564 3.047 3.13 4.886 1.048 3.405 1.236 9.193.388 11.954-.586 1.906-1.608 3.054-3.607 4.05-1.292.644-1.71.642-2.91-.014Zm-200.71-5.67a177.215 147.508 0 0 1-.33-1.839 41302.184 34378.432 0 0 1-1.007-5.808 569.977 474.428 0 0 1-.451-2.645l-.309-1.872a127.88 127.88 0 0 1-.31-2 117.767 98.025 0 0 0-.46-2.646c-.386-2.046-.398-2.464-.074-2.568.373-.119 1.974-.09 2.222.041.246.13.453 1.111 1.396 6.605.346 2.016.71 4.087.809 4.602.18.943.126 2.144-.173 3.839a94.496 94.496 0 0 0-.393 2.58c-.13.924-.273 1.78-.32 1.905-.143.375-.51.257-.6-.194Zm137.24-10.637c-.056-.047-.102-1.99-.102-4.319 0-4.902-.158-4.5 1.761-4.5.85 0 1.228.055 1.406.203.21.174.244.689.244 3.653v3.452l-1.54.799c-1.653.857-1.614.84-1.768.712Zm-64.435-.738c-.121-.121-.165-.775-.135-2.032l.042-1.854h3.257l.043 1.87c.038 1.646.011 1.89-.223 2.033-.382.232-2.749.219-2.984-.017Zm197.485.04c-.238-.115-.271-.351-.27-1.9.003-.972.06-1.843.13-1.934.093-.122.54-.156 1.664-.13l1.538.037.043 1.871c.038 1.646.012 1.89-.223 2.033-.322.196-2.49.213-2.882.023Zm-219.803-.63-.164-.392h-7.05c-3.878 0-7.16-.035-7.296-.078-.183-.059-.244-.26-.243-.807.002-.4.044-.859.096-1.019l.094-.29 6.92-.002c3.806 0 7.078-.037 7.27-.08.344-.076.349-.104.349-2.316 0-2.618-.078-2.507 1.742-2.507 1.796 0 1.68-.287 1.633 4.066l-.042 3.743-1.572.037-1.573.036ZM79.65 32.82c-.052-.112-.094-1.74-.094-3.617v-3.412l.397-.126c.431-.137 16.33-.178 16.93-.044l.349.078v7.326h-8.744c-7.83 0-8.754-.022-8.838-.205Z" style="fill:#8cb9f9;stroke-width:.141462"/><path d="M144.988 87.02c-2.385-.185-5.366-.776-7.064-1.401-1.293-.476-3.27-1.613-4.249-2.444-1.085-.92-.924-1.126.456-.582 2.543 1 6.304 1.54 10.747 1.54 2.312 0 2.831-.045 5.46-.474 2.314-.376 4.661-1.21 6.528-2.317 1.141-.677 3.221-2.482 4.034-3.502.699-.876 1.798-2.69 2.14-3.533.478-1.174.958-4.221 1.064-6.759l.033-.774 1.043-.038 1.043-.039.043 5.137c.023 2.824-.014 5.455-.081 5.846-.237 1.362-2.265 4-4.31 5.607-2.286 1.795-4.638 2.76-8.36 3.432-1.146.207-2.176.276-4.651.311-1.748.024-3.493.02-3.876-.01Zm130.865.005c-4.007-.27-7.482-1.09-9.897-2.336-1.827-.945-3.391-2.364-2.604-2.364.117 0 .605.145 1.083.32.478.176 1.48.46 2.229.629 1.276.29 1.843.377 4.657.72.62.077 2.33.138 3.798.137 5.653-.002 9.606-.802 13.075-2.647 2.71-1.44 5.395-4.51 6.266-7.16.105-.32.247-.726.316-.904.618-1.593.785-4.826.776-14.958-.009-8.735-.074-10.382-.486-12.338-.166-.78-.793-2.47-1.087-2.929a1.18.981 0 0 1-.11-.518c.046-.262.064-.26.555.085.627.44.847.765.957 1.412.051.298.197.548.358.613.149.06.393.159.543.217.601.237 1.822 2.62 2.193 4.282.463 2.078.504 3.343.44 13.616-.066 10.547-.094 11.095-.675 13.487-.543 2.227-2.08 4.576-4.178 6.383-2.443 2.104-5.47 3.34-9.84 4.019-1.257.195-6.693.347-8.369.234Zm-51.344-.796-10.177-.034-.093-.289c-.17-.527-.104-2.104.097-2.328.177-.199 1.04-.217 10.504-.224 18.329-.013 21.46-.388 24.484-2.93 1.793-1.508 2.506-2.782 3.123-5.584.281-1.277.338-2.15.407-6.26.095-5.682-.104-8.225-.805-10.231-.206-.592-.236-.849-.111-.953.281-.234 1.88 1.146 2.669 2.302l.688 1.01.047 3.613c.061 4.629.383 8.756.72 9.201.208.277.135 2.722-.122 4.028-.545 2.771-1.489 4.602-3.021 5.858-2.126 1.741-4.286 2.323-9.86 2.655-3 .178-6.13.206-18.55.166Zm-201.3-.236c-.174-.38-.1-2.192.1-2.416.176-.197.781-.221 6.319-.25l6.124-.033.033-15.393c.03-14.077.091-16.477.403-15.57.087.25.566 2.68.875 4.44.43 2.445 1.452 8.403 1.56 9.1.066.425.234 1.384.373 2.129.217 1.154.253 2.587.246 9.663-.003 4.57-.044 8.36-.09 8.421-.047.063-3.625.113-7.966.113-7.044 0-7.892-.021-7.976-.204Zm22.33.101c-.156-.211-.427-1.807-.379-2.232l.05-.44 4.103-.064 4.102-.064.187-.969c.173-.897.252-1.365.674-4 .085-.533.268-1.636.406-2.453.138-.816.306-1.89.374-2.387.067-.497.23-1.514.363-2.258.132-.746.42-2.517.639-3.937.374-2.417.462-2.964.85-5.291.082-.497.228-1.427.323-2.066.095-.639.303-1.916.463-2.839.158-.923.366-2.171.46-2.775.266-1.692.495-2.583.644-2.506.181.093.155 21.775-.028 23.092a50.26 50.26 0 0 1-.3 1.87c-.155.836-.37 2.146-.616 3.744-.443 2.892-.806 5.137-.869 5.388l-.074.29h-5.647c-3.106 0-5.682-.046-5.724-.103Zm17.374.018c-.146-.121-.125-2.397.023-2.591.093-.122 1.582-.168 6.238-.194l6.117-.034.078-27.268c.068-24.052.105-27.284.31-27.392.128-.067.803-.123 1.5-.124.95-.002 1.33.05 1.512.2.22.184.244 2.952.242 28.556-.001 15.593-.044 28.482-.096 28.642l-.094.29H70.88c-4.325 0-7.91-.039-7.967-.085Zm20.147-.118c-.175-.38-.1-2.192.1-2.418.176-.198.84-.22 7.327-.25l7.132-.032.079-19.166c.043-10.54.095-19.182.116-19.203.02-.02.753-.02 1.627 0l1.589.038v41.17l-8.937.033c-8.05.03-8.947.013-9.032-.172Zm31.304.006c-2.65-.287-4.362-.938-5.958-2.266-.888-.74-1.273-1.413-.704-1.231.658.21 2.209.484 3.432.606 2.089.209 13.678.316 13.903.129.12-.098.208-.961.26-2.5l.077-2.349h1.3c1.981 0 1.911-.154 1.886 4.133-.012 1.903-.057 3.508-.101 3.568-.133.179-12.33.102-14.094-.09Zm55.846.112c-.206-.172-.114-2.457.104-2.608.144-.1 2.325-.153 7.094-.177l6.886-.033.083-18.715c.087-19.365.087-19.376.702-20.162.597-.762 2.051-.873 2.87-.22.86.686.982 2.378.278 3.863l-.367.774-.037 18.391c-.02 10.116-.074 18.522-.12 18.682l-.081.29h-8.655c-4.76 0-8.7-.039-8.757-.085Zm22.638 0c-.206-.172-.116-2.457.104-2.608.144-.1 2.304-.154 7.016-.177l6.809-.034.02-18.778c.02-19.414-.03-21.292-.617-23.1-.394-1.215-.017-1.227 1.286-.043 1.175 1.068 1.95 2.35 2.248 3.72.515 2.36.57 4.818.522 23.037l-.048 18.004-8.617.033c-4.74.019-8.664-.006-8.722-.054Zm119.287-.057c-2.799-.266-4.679-.947-6.271-2.273-.985-.819-1.346-1.444-.744-1.286 2.52.658 4.303.782 11.357.79l5.97.008.078-2.324c.042-1.277.133-2.395.202-2.484.084-.107.552-.161 1.405-.161.779 0 1.383.063 1.544.16.24.147.261.5.224 3.905l-.041 3.743-6.28.016c-3.454.009-6.804-.033-7.444-.094Zm-170.17-2.7c-2.986-.177-5.424-.642-7.48-1.427-1.621-.619-2.468-1.107-3.897-2.243-2.633-2.095-3.934-4.629-4.607-8.975-.326-2.098-.498-17.502-.238-21.166.385-5.414 1.426-7.752 4.437-9.966 3.744-2.75 8.39-4.1 14.133-4.101 9.007-.002 15.77 3.434 17.782 9.036.688 1.916 1.276 5.899 1.16 7.87l-.048.84-7.51.033c-5.906.026-7.537-.002-7.635-.13-.068-.089-.125-1.527-.127-3.194-.006-4.723-.266-5.834-1.536-6.546-.74-.414-2.23-.417-2.977-.004-.947.522-1.23 1.23-1.387 3.476-.178 2.548-.181 22.531-.004 24.562.214 2.445.904 3.709 2.307 4.225 1.35.497 2.987.055 3.627-.98.677-1.092.768-1.75.855-6.179.061-3.134.133-4.258.275-4.357.127-.088 2.548-.122 7.152-.1l6.96.034-.032 2.582c-.055 4.676-.43 6.67-1.652 8.776-.884 1.525-1.435 2.23-2.735 3.501-2.711 2.65-6.597 4.088-11.997 4.437-2.052.133-2.513.133-4.827-.004Zm130.322-.015c-3.41-.21-6.331-.803-8.562-1.739-2.527-1.059-4.07-2.375-5.436-4.637-1.872-3.1-2.21-6.187-2.08-18.966.085-8.339.168-9.597.797-12.068 1.454-5.705 6.014-9.149 13.498-10.193 3.141-.438 7.25-.356 10.466.211 6.386 1.124 10.912 4.183 12.706 8.587.957 2.352 1.094 4.128 1.094 14.179 0 12.744-.302 14.92-2.513 18.1-2.73 3.925-7.366 6.07-14.125 6.536-2.216.153-3.245.151-5.845-.01Zm4.56-7.735c.642-.262 1.021-.747 1.268-1.62.284-1.005.324-27.6.043-28.94-.144-.686-.282-.935-.76-1.361-.568-.507-.619-.523-1.724-.564-1.303-.049-1.926.18-2.449.894-.68.93-.706 1.509-.706 15.403 0 13.863.021 14.318.7 15.426.568.926 2.325 1.296 3.628.762Zm-2.553-.863c-.914-.68-.921-.793-.921-15.39 0-14.119.019-14.494.79-15.177.723-.642 2.406-.513 2.86.218.133.213.308.877.39 1.474.12.874.103 1.182-.081 1.575-.504 1.076-.546 2.191-.548 14.698 0 14.208.123 12.958-1.29 12.958-.568 0-.823-.075-1.2-.356ZM20.242 82.424c-.041-.09-.057-12.824-.035-28.298l.04-28.136 11.028-.033c8.707-.026 11.06.001 11.179.13.083.088.303.975.488 1.968.185.994.4 2.127.48 2.517a113.69 94.631 0 0 1 .398 2.323c.141.888.638 3.85 1.105 6.582.466 2.733 1.126 6.625 1.466 8.647.34 2.023.685 3.813.768 3.978.103.208.252.287.489.258.472-.057.285.918 2.06-10.753.465-3.053.913-5.986.997-6.518.286-1.813.8-5.093 1.1-7.024.182-1.167.378-1.969.497-2.032.108-.057 5.15-.09 11.205-.073l11.009.03V82.52H59.94l-.08-19.1c-.043-10.506-.095-19.116-.116-19.134-.02-.018-.204-.033-.408-.033-.493 0-.383-.474-1.415 6.13l-.384 2.453c-.078.497-.457 2.82-.842 5.163a1073.78 1073.78 0 0 0-1.02 6.323c-.462 2.967-.57 3.644-.93 5.808-.293 1.762-1.3 8.079-1.717 10.777-.094.603-.232 1.228-.308 1.387l-.139.29H47.55c-2.769 0-5.067-.044-5.107-.1-.077-.102-.54-2.614-1.34-7.256-.252-1.455-.848-4.881-1.325-7.614-.477-2.734-1.313-7.554-1.86-10.712-2.228-12.897-1.992-11.687-2.294-11.783-.667-.214-.642-.869-.724 18.78l-.077 18.62-7.253.035c-5.72.026-7.269-.001-7.327-.13Zm59.882.073c-.057-.047-.104-10.402-.104-23.011 0-17.659.043-22.961.186-23.08.269-.224 16.26-.224 16.529 0 .143.119.186 5.395.186 22.962 0 12.544-.043 22.9-.094 23.011-.084.183-.965.205-8.347.205-4.54 0-8.3-.04-8.357-.087Zm30.907-.106c-2.432-.25-3.909-.746-5.407-1.82-1.594-1.144-2.337-2.294-2.673-4.143-.13-.71-.211-5.619-.277-16.623l-.093-15.617-1.783-.064-1.783-.064v-6.583l1.783-.064 1.783-.065.041-3.586.041-3.585.396-.125c.435-.138 14.59-.179 15.396-.044l.485.08.002 3.5c.001 1.926.056 3.572.122 3.66.083.108.792.168 2.285.193l2.165.036v6.582l-2.084.036c-1.212.021-2.168.095-2.287.177-.166.115-.203 2.534-.199 13.063.003 7.108.068 13.81.143 14.893.212 3.038.496 3.318 3.516 3.486l1.686.094v6.71l-5.815.02c-3.936.013-6.34-.035-7.442-.147Zm56.202.032c-.041-.089-.057-12.823-.035-28.297l.04-28.136h16.126l.077 6.518c.066 5.491.111 6.512.294 6.48.12-.022.573-.289 1.008-.594 2.86-2 5.83-2.918 9.446-2.918 2.605 0 4.442.38 6.543 1.354 1.186.55 2.836 1.804 3.523 2.68 1.768 2.251 1.858 3.564 1.794 26.102l-.048 16.907-8.052.034c-6.34.026-8.08-.001-8.177-.13-.068-.089-.125-8.218-.126-18.064-.002-12.613-.055-18.191-.178-18.88-.295-1.654-1.17-2.388-2.848-2.388-1.148 0-1.827.315-2.351 1.093-.738 1.095-.733.97-.822 20.202l-.083 18.133-8.029.034c-6.34.026-8.044-.001-8.102-.13Zm44.034 0c-.04-.09-.055-12.823-.034-28.297l.04-28.136 11.552.01c12.13.008 13.244.051 16.725.65 3.411.586 6.113 1.953 8.144 4.117 1.23 1.311 2.23 3.59 2.72 6.194.293 1.552.44 4.941.291 6.646-.222 2.53-.788 4.082-1.909 5.228-.922.942-3.633 2.065-6.38 2.642-.688.144-.966.461-.642.73.11.092.828.316 1.596.5 2.556.609 4.987 1.744 6.01 2.804 1.23 1.278 1.87 2.656 2.394 5.16.363 1.74.36 10.838-.005 13.072-.713 4.365-2.275 6.48-5.671 7.683-1.33.47-3.061.74-6.217.968-3.5.253-28.5.278-28.614.029Zm20.55-9.219c1.296-.28 2.049-.703 2.455-1.38.617-1.028.713-1.937.72-6.792.005-4.792-.105-5.884-.687-6.827-.52-.844-1.85-1.259-4.464-1.392l-1.59-.08v8.322c0 4.578.053 8.366.117 8.42.158.131 2.404-.045 3.45-.27Zm-2.689-.616c-.127-.279-.134-14.561-.007-14.838.18-.391 3.091-.14 3.979.345.433.236.888 1.19.888 1.862 0 .422-.01.428-.696.428h-.696l-.04 5.905-.04 5.904-.546.223c-.3.122-1.039.26-1.643.307-.95.073-1.11.055-1.199-.136Zm3.715-24.452c1.512-.545 1.837-1.28 2.104-4.769.2-2.614.036-4.992-.422-6.109-.333-.808-1.328-1.735-2.057-1.914-.707-.173-3.686-.396-3.992-.299-.191.062-.224 1.052-.224 6.787v6.715l1.9-.063c1.5-.05 2.064-.122 2.69-.348Zm-3.722-.603c-.052-.112-.094-2.743-.094-5.846 0-4.216.047-5.682.186-5.797.462-.384 3.003.007 3.71.57.508.405 1.12 1.642.985 1.993-.061.16-.271.248-.663.275l-.575.04-.038 4.258c-.045 5.074.113 4.712-2.055 4.712-1.099 0-1.38-.04-1.456-.205Zm79.293 34.858c-2.432-.25-3.909-.746-5.406-1.82-.99-.71-1.815-1.632-2.174-2.431-.656-1.462-.687-2.16-.78-18.4l-.09-15.552-1.619-.037c-.89-.02-1.71-.1-1.822-.177-.295-.204-.295-6.209 0-6.412.111-.077.932-.157 1.822-.177l1.62-.037.04-3.586.041-3.585.396-.125c.435-.138 14.59-.179 15.395-.044l.485.08.002 3.372c.002 1.854.044 3.5.095 3.658.09.277.167.288 2.285.323l2.192.036v6.582l-2.128.036c-1.964.033-2.142.056-2.3.3-.24.375-.103 28.7.145 29.606.352 1.285.94 1.574 3.508 1.72l1.551.087v6.711l-5.815.019c-3.935.013-6.34-.034-7.442-.147Zm-164.082-7.547c-.653-.427-1.044-1.076-1.287-2.135-.328-1.428-.33-26.148-.001-27.423.267-1.038.848-1.55 1.752-1.548 1.23.004 1.848.57 2.135 1.956.204.985.2 1.01-.437 2.366-.134.283-.204 3.958-.263 13.68l-.08 13.294-.707.038c-.527.029-.809-.03-1.114-.228Zm174.84.067c-.606-.074-1.205-.207-1.33-.295-.57-.399-.609-1.483-.56-15.78l.048-13.873 2.248-.065 2.249-.065.042-2.248c.026-1.393.108-2.315.213-2.42.226-.228 2.604-.235 2.974-.01.24.147.26.496.223 3.84l-.041 3.677-2.249.065-2.248.064-.039 13.57c-.032 10.693-.08 13.582-.233 13.623-.106.03-.69-.008-1.296-.083Zm-197.83-.024-.653-.118c-.741-.131-.743-.147-.743-15.481V44.963l2.249-.065 2.248-.064.043-2.317c.03-1.657.096-2.347.232-2.419.341-.18 2.663-.12 2.988.078.29.176.285.197-.171.742-.81.966-1.453 2.19-1.851 3.528-.211.71-.39 1.465-.399 1.678-.008.213-.095.65-.195.968-.18.577-.186.582-.957.646l-.775.064-.078 13.552-.077 13.551-.775.02c-.427.011-.915-.005-1.086-.037Zm29.96-17.947c-.248-.054-.273-.207-.233-1.437l.044-1.377 6.357-.033c5.099-.026 6.388-.067 6.512-.206.197-.22.04-4.63-.217-6.15-.28-1.64-.602-2.856-1.037-3.902-.6-1.441-.62-1.552-.285-1.498.46.074 2.162 1.873 2.968 3.137l.741 1.166.047 5.114.047 5.113-.357.08c-.408.09-14.166.084-14.588-.007Zm96.642-3.307c-.94-.513-1.707-.832-3.14-1.303-.32-.105-.582-.267-.582-.36 0-.093.506-.332 1.124-.53 2.688-.866 4.108-1.822 4.99-3.358.698-1.216.978-2.172 1.169-3.977.17-1.617-.01-6.125-.305-7.596-.2-1.006-.838-3.01-1.163-3.657-.479-.955-.106-.995.905-.095 1.423 1.267 2.564 3.047 3.13 4.886 1.048 3.405 1.236 9.193.388 11.954-.586 1.906-1.608 3.054-3.607 4.05-1.292.644-1.71.642-2.91-.014Zm-200.71-5.67a177.215 147.508 0 0 1-.33-1.839 41302.184 34378.432 0 0 1-1.007-5.808 569.977 474.428 0 0 1-.451-2.645l-.309-1.872a127.88 127.88 0 0 1-.31-2 117.767 98.025 0 0 0-.46-2.646c-.386-2.046-.398-2.464-.074-2.568.373-.119 1.974-.09 2.222.041.246.13.453 1.111 1.396 6.605.346 2.016.71 4.087.809 4.602.18.943.126 2.144-.173 3.839a94.496 94.496 0 0 0-.393 2.58c-.13.924-.273 1.78-.32 1.905-.143.375-.51.257-.6-.194Zm137.24-10.637c-.056-.047-.102-1.99-.102-4.319 0-4.902-.158-4.5 1.761-4.5.85 0 1.228.055 1.406.203.21.174.244.689.244 3.653v3.452l-1.54.799c-1.653.857-1.614.84-1.768.712Zm-64.435-.738c-.121-.121-.165-.775-.135-2.032l.042-1.854h3.257l.043 1.87c.038 1.646.011 1.89-.223 2.033-.382.232-2.749.219-2.984-.017Zm197.485.04c-.238-.115-.271-.351-.27-1.9.003-.972.06-1.843.13-1.934.093-.122.54-.156 1.664-.13l1.538.037.043 1.871c.038 1.646.012 1.89-.223 2.033-.322.196-2.49.213-2.882.023Zm-219.803-.63-.164-.392h-7.05c-3.878 0-7.16-.035-7.296-.078-.183-.059-.244-.26-.243-.807.002-.4.044-.859.096-1.019l.094-.29 6.92-.002c3.806 0 7.078-.037 7.27-.08.344-.076.349-.104.349-2.316 0-2.618-.078-2.507 1.742-2.507 1.796 0 1.68-.287 1.633 4.066l-.042 3.743-1.572.037-1.573.036Zm-17.598-3.446c-.197-.165-.119-6.303.083-6.47.14-.117 2.193-.155 8.29-.155 7.853 0 8.108.007 8.264.249.172.267.232 5.9.066 6.257-.083.183-.964.205-8.347.205-4.539 0-8.299-.04-8.356-.086Z" style="fill:#cc9ea5;stroke-width:.141462"/><path d="M143.497 86.643c-3.471-.421-5.98-1.216-8.2-2.597-1.947-1.211-2.166-1.594-.593-1.036 2.599.922 4.778 1.187 9.663 1.18 5.334-.01 7.113-.261 10.056-1.419 3.4-1.337 6.138-3.644 7.988-6.728 1.2-1.999 1.614-3.577 1.74-6.624.114-2.747.055-2.603 1.037-2.555l.81.039.04 5.333.04 5.332-.377.78c-.877 1.806-2.724 3.926-4.514 5.18-2.467 1.728-5.163 2.682-8.834 3.123-1.937.234-6.908.229-8.856-.008Zm131.116.06c-3.889-.416-6.62-1.147-8.79-2.351-1.036-.576-2.186-1.451-2.053-1.563.037-.03.452.062.92.206 1.269.39 3.426.843 4.858 1.02 2.138.263 8.832.299 10.692.056 4.438-.578 7.418-1.695 10.017-3.753 2.141-1.697 3.903-4.07 4.541-6.123.924-2.962.979-3.832.979-15.359 0-10.614-.016-11.01-.565-13.074-.091-.342-.126-.654-.078-.694.047-.04.339-.033.648.015.527.083.602.16 1.244 1.274 1.593 2.765 1.655 3.432 1.572 16.592-.071 11.049-.097 11.545-.705 13.697-.633 2.24-1.936 4.168-4.042 5.98-2.646 2.28-6.036 3.547-10.916 4.084-1.41.155-6.852.15-8.322-.007ZM23.49 85.895c-.043-.094-.059-.632-.033-1.193l.045-1.021 6.17-.065c5.25-.055 6.192-.093 6.325-.258.102-.126.147-3.153.13-8.712-.042-13.278.003-20.765.121-20.667.11.093.146.277.568 2.922a312.782 260.348 0 0 0 1.035 6.033c.088.48.225 1.249.304 1.71.078.461.218 1.246.31 1.742.091.498.242 1.34.334 1.872.165.95.195 17.492.032 17.711-.041.055-3.491.1-7.667.1-6.2 0-7.609-.033-7.674-.174Zm22.2.014c-.162-.487-.393-2.072-.318-2.174.05-.067 1.784-.119 4.004-.119 2.898 0 3.978-.042 4.159-.161.14-.094.284-.46.338-.871.106-.79.263-1.797.625-4.005.133-.818.317-2.01.407-2.646.09-.637.228-1.535.307-1.996l.309-1.808c.091-.531.23-1.374.31-1.87.08-.498.219-1.34.31-1.872a279.478 232.627 0 0 0 .31-1.871c.079-.498.219-1.368.312-1.937.092-.567.275-1.758.405-2.645a218.085 181.526 0 0 1 .677-4.259c.091-.532.236-1.404.321-1.936.267-1.675.394-2.149.516-1.921.18.334.01 20.602-.177 21.345-.09.355-.242 1.168-.34 1.806a277.55 231.022 0 0 1-.328 2.066 1531.666 1274.903 0 0 0-.615 3.742 336.582 280.159 0 0 1-.36 2.13l-.192 1.097-5.463.034c-4.296.026-5.474-.001-5.517-.13Zm17.533.075c-.057-.049-.104-.6-.104-1.228v-1.14h6.017c4.57 0 6.08-.039 6.28-.161.245-.151.265-1.972.301-27.393l.038-27.232h2.791v57.174l-7.61.033c-4.183.018-7.655-.005-7.713-.053Zm20.118-.087c-.044-.096-.059-.634-.034-1.195l.046-1.021 7.132-.065c3.923-.035 7.22-.111 7.327-.169.153-.083.193-4.062.193-19.184 0-17.28.023-19.087.246-19.158.356-.113 2.124-.092 2.352.029.155.081.186 4.264.155 20.486l-.04 20.384-8.648.033c-7.135.028-8.662.003-8.729-.14Zm32.817.022c-3.63-.216-5.538-.773-7.3-2.13-1.025-.79-1.157-1.023-.503-.89.235.047.74.142 1.124.212 2.315.42 15.128.703 15.701.347.231-.143.271-.47.307-2.488l.04-2.323 1.087-.037c1.8-.062 1.705-.28 1.705 3.867v3.527l-5.117.014c-2.815.009-5.984-.036-7.044-.1Zm54.362.064c-.057-.048-.105-.6-.105-1.227v-1.14h6.89c6.055 0 6.918-.024 7.132-.202.219-.183.244-2.052.244-18.644 0-18.748.014-19.265.572-20.173.33-.54 1.102-.772 1.85-.556.904.26 1.182.673 1.266 1.878.055.793.009 1.161-.2 1.587a17.356 14.447 0 0 0-.438 1.006c-.113.307-.194 6.363-.252 18.971l-.085 18.52-8.384.034c-4.612.018-8.432-.005-8.49-.053Zm22.637 0c-.057-.048-.104-.6-.104-1.227v-1.14h6.755c4.36 0 6.862-.047 7.056-.133.294-.132.299-.455.288-17.262-.012-18.886-.095-21.846-.696-24.797-.112-.551-.106-.564.195-.387.571.337 1.606 1.43 2.057 2.173 1.188 1.96 1.245 3.08 1.246 24.564v18.295h-8.347c-4.591 0-8.394-.04-8.45-.087Zm21.397 0c-.198-.166-.116-2.242.09-2.3.108-.028 5.183-.084 11.28-.123 12.34-.078 15.372-.195 18.297-.706 4.048-.707 6.653-2.614 7.839-5.738.758-1.998.973-3.717 1.098-8.794.116-4.687-.06-6.934-.749-9.55a8.845 8.845 0 0 0-.241-.806c-.04-.09.034-.162.164-.162.392 0 1.51 1.165 2.105 2.194l.56.968.099 4.13c.09 3.829.348 7.704.529 7.946.238.321.35 2.121.207 3.346-.365 3.156-1.412 5.456-3.13 6.884-2.989 2.481-5.933 2.795-26.247 2.796-6.489 0-11.844-.038-11.9-.086Zm98.988-.064c-3.63-.216-5.538-.773-7.3-2.13-1.026-.79-1.157-1.023-.503-.89.234.047.74.142 1.124.211 2.37.425 15.12.707 15.701.348.23-.143.27-.47.306-2.487l.041-2.324 1.255-.037c.934-.028 1.302.01 1.437.145.131.132.17 1.162.14 3.716l-.04 3.533-5.118.014c-2.814.009-5.983-.036-7.044-.1Zm-171.578-2.564c-2.986-.177-5.424-.642-7.48-1.427-1.621-.619-2.468-1.107-3.897-2.243-2.633-2.094-3.934-4.629-4.607-8.975-.326-2.098-.498-17.501-.238-21.166.385-5.414 1.426-7.752 4.437-9.965 3.744-2.752 8.39-4.1 14.133-4.102 9.007-.002 15.77 3.434 17.782 9.036.688 1.916 1.276 5.9 1.16 7.87l-.048.84-7.51.033c-5.906.026-7.537-.001-7.635-.13-.068-.089-.125-1.526-.127-3.194-.006-4.723-.266-5.834-1.536-6.546-.74-.414-2.23-.417-2.977-.004-.947.522-1.23 1.23-1.387 3.476-.178 2.548-.181 22.531-.004 24.562.214 2.445.904 3.709 2.307 4.225 1.35.497 2.987.055 3.627-.979.677-1.093.768-1.75.855-6.18.061-3.134.133-4.258.275-4.357.127-.088 2.548-.122 7.152-.1l6.96.035-.032 2.58c-.055 4.677-.43 6.672-1.652 8.777-.884 1.525-1.435 2.231-2.735 3.501-2.711 2.65-6.597 4.088-11.997 4.437-2.052.134-2.513.133-4.827-.004Zm130.322-.015c-3.41-.21-6.331-.803-8.562-1.739-2.527-1.058-4.07-2.375-5.436-4.637-1.872-3.1-2.21-6.187-2.08-18.966.085-8.339.168-9.597.797-12.068 1.454-5.705 6.014-9.148 13.498-10.193 3.141-.438 7.25-.355 10.466.211 6.386 1.125 10.912 4.183 12.706 8.588.957 2.35 1.094 4.127 1.094 14.178 0 12.744-.302 14.92-2.513 18.1-2.73 3.925-7.366 6.07-14.125 6.537-2.216.152-3.245.15-5.845-.01Zm4.56-7.734c.642-.263 1.021-.748 1.268-1.62.284-1.006.324-27.6.043-28.94-.144-.687-.282-.936-.76-1.362-.568-.507-.619-.523-1.724-.564-1.303-.048-1.926.18-2.449.894-.68.93-.706 1.509-.706 15.403 0 13.864.021 14.318.7 15.426.568.927 2.325 1.296 3.628.763Zm-1.91-.75c-.539-.125-.977-.682-1.15-1.465-.23-1.03-.328-25.82-.107-27.202.235-1.475.527-1.951 1.338-2.184.586-.169.68-.163 1.163.07.289.14.612.405.718.588.323.554.3 2.512-.039 3.333-.277.673-.295 1.38-.349 13.718l-.057 13.01-.387.122c-.431.137-.583.138-1.13.01ZM20.242 82.425c-.04-.09-.057-12.824-.035-28.298l.04-28.136 11.028-.033c8.707-.026 11.06.001 11.179.13.083.088.303.975.488 1.968.185.994.4 2.127.48 2.517a113.69 94.631 0 0 1 .398 2.323c.141.888.638 3.85 1.105 6.582.466 2.733 1.126 6.625 1.466 8.647.34 2.023.685 3.813.768 3.978.103.208.252.287.489.258.472-.057.285.918 2.06-10.753.465-3.053.913-5.986.997-6.518.286-1.813.8-5.093 1.1-7.024.182-1.167.378-1.969.497-2.032.108-.057 5.15-.09 11.205-.073l11.009.03V82.52H59.94l-.08-19.1c-.043-10.506-.095-19.116-.116-19.134-.02-.018-.204-.033-.408-.033-.493 0-.383-.474-1.415 6.13l-.384 2.453c-.078.497-.457 2.82-.842 5.163a1073.78 1073.78 0 0 0-1.02 6.323c-.462 2.967-.57 3.644-.93 5.808-.293 1.762-1.3 8.079-1.717 10.777-.094.603-.232 1.228-.308 1.387l-.139.29H47.55c-2.769 0-5.067-.045-5.107-.1-.077-.102-.54-2.614-1.34-7.256-.252-1.455-.848-4.881-1.325-7.614-.477-2.734-1.313-7.554-1.86-10.712-2.228-12.897-1.992-11.687-2.294-11.783-.667-.214-.642-.869-.724 18.78l-.077 18.62-7.253.035c-5.72.026-7.269-.001-7.327-.13Zm59.882.073c-.057-.047-.104-10.402-.104-23.011 0-17.659.043-22.961.186-23.08.269-.224 16.26-.224 16.529 0 .143.119.186 5.395.186 22.962 0 12.544-.043 22.9-.094 23.011-.084.183-.965.205-8.347.205-4.54 0-8.3-.04-8.357-.087Zm30.907-.106c-2.432-.25-3.909-.746-5.407-1.82-1.594-1.144-2.337-2.294-2.673-4.143-.13-.71-.211-5.619-.277-16.623l-.093-15.617-1.783-.064-1.783-.064v-6.583l1.783-.064 1.783-.065.041-3.586.041-3.585.396-.125c.435-.138 14.59-.179 15.396-.044l.485.08.002 3.5c.001 1.926.056 3.572.122 3.66.083.108.792.168 2.285.193l2.165.036v6.582l-2.084.036c-1.212.021-2.168.095-2.287.177-.166.115-.203 2.534-.199 13.063.003 7.108.068 13.81.143 14.893.212 3.038.496 3.318 3.516 3.486l1.686.094v6.71l-5.815.02c-3.936.013-6.34-.035-7.442-.147Zm56.202.032c-.041-.089-.057-12.823-.035-28.297l.04-28.136h16.126l.077 6.518c.066 5.491.111 6.512.294 6.48.12-.022.573-.289 1.008-.594 2.86-2 5.83-2.918 9.446-2.918 2.605 0 4.442.38 6.543 1.354 1.186.55 2.836 1.804 3.523 2.68 1.768 2.251 1.858 3.564 1.794 26.102l-.048 16.907-8.052.034c-6.34.026-8.08-.001-8.177-.13-.068-.089-.125-8.218-.126-18.064-.002-12.613-.055-18.191-.178-18.88-.295-1.654-1.17-2.388-2.848-2.388-1.148 0-1.827.315-2.351 1.093-.738 1.095-.733.97-.822 20.202l-.083 18.133-8.029.034c-6.34.026-8.044-.001-8.102-.13Zm44.034 0c-.04-.09-.055-12.823-.034-28.297l.04-28.136 11.552.01c12.13.008 13.244.051 16.725.65 3.411.586 6.113 1.953 8.144 4.117 1.23 1.311 2.23 3.59 2.72 6.194.293 1.552.44 4.941.291 6.646-.222 2.53-.788 4.082-1.909 5.228-.922.942-3.633 2.065-6.38 2.642-.688.144-.966.461-.642.73.11.092.828.316 1.596.5 2.556.609 4.987 1.744 6.01 2.804 1.23 1.278 1.87 2.656 2.394 5.16.363 1.74.36 10.838-.005 13.072-.713 4.365-2.275 6.48-5.671 7.683-1.33.47-3.061.74-6.217.968-3.5.253-28.5.278-28.614.029Zm20.55-9.219c1.296-.28 2.049-.703 2.455-1.38.617-1.028.713-1.937.72-6.792.005-4.792-.105-5.884-.687-6.827-.52-.844-1.85-1.259-4.464-1.392l-1.59-.08v8.322c0 4.578.053 8.366.117 8.42.158.131 2.404-.045 3.45-.27Zm-2.402-.833c-.045-.097-.063-3.43-.041-7.404l.041-7.227.427-.041c.646-.062 2.698.356 3.126.636.448.293.933 1.505.697 1.741-.084.085-.283.126-.441.09-.159-.034-.435.003-.613.082-.322.143-.325.208-.365 5.98l-.04 5.834-.466.187c-.664.269-2.22.35-2.324.122Zm3.428-24.235c1.512-.545 1.837-1.28 2.104-4.769.2-2.614.036-4.992-.422-6.109-.333-.808-1.328-1.735-2.057-1.914-.707-.173-3.686-.396-3.992-.299-.191.062-.224 1.052-.224 6.787v6.715l1.9-.063c1.5-.05 2.064-.122 2.69-.348Zm-3.32-.683c-.139-.115-.186-1.58-.186-5.799 0-5.29.018-5.648.275-5.717.151-.04.829.016 1.506.124 1.62.258 2.22.717 2.487 1.905.107.477.106.48-.42.48-.292 0-.614.068-.716.154-.137.114-.186 1.266-.186 4.38 0 4.221 0 4.227-.345 4.427-.416.243-2.139.276-2.415.046Zm78.891 34.938c-2.432-.249-3.909-.746-5.406-1.82-.99-.71-1.815-1.632-2.174-2.43-.656-1.463-.687-2.161-.78-18.401l-.09-15.552-1.619-.037c-.89-.02-1.71-.1-1.822-.177-.295-.204-.295-6.209 0-6.412.111-.077.932-.157 1.822-.177l1.62-.037.04-3.586.041-3.585.396-.125c.435-.138 14.59-.179 15.395-.044l.485.08.002 3.372c.002 1.854.044 3.5.095 3.658.09.277.167.288 2.285.323l2.192.036v6.582l-2.128.036c-1.964.033-2.142.056-2.3.3-.24.375-.103 28.7.145 29.606.352 1.285.94 1.574 3.508 1.72l1.551.087v6.711l-5.815.019c-3.935.013-6.34-.034-7.442-.147Zm-163.482-7.555c-.657-.164-.984-.466-1.375-1.272l-.352-.724V58.966c0-13.164.014-13.897.281-14.304.376-.574 1.186-.86 1.884-.669.767.21.99.502 1.268 1.654.25 1.035.248 1.06-.095 1.723-.22.425-.399 1.131-.483 1.908-.073.679-.133 6.689-.131 13.355.001 9.758-.037 12.141-.198 12.227-.231.122-.216.122-.799-.024Zm-23.379-.114c-.96-.113-1.17-.287-1.298-1.082-.059-.37-.138-6.878-.173-14.464-.05-10.265-.02-13.837.112-13.97.136-.137.686-.18 2.33-.18h2.152v-2.182c0-1.201.042-2.276.093-2.388.077-.164.352-.205 1.387-.205.71 0 1.33.052 1.377.115.047.062-.044.25-.201.42-.428.456-1.36 2.022-1.647 2.767-.139.36-.407 1.406-.597 2.323l-.344 1.668-.69.04c-.38.023-.779.103-.887.178-.157.108-.197 2.876-.197 13.607V74.84l-.349-.017a18.165 15.12 0 0 1-1.068-.101Zm197.448 0c-.991-.1-1.142-.217-1.298-1.005-.067-.34-.126-6.9-.13-14.576-.01-12.613.013-13.965.235-14.036.134-.043 1.139-.078 2.232-.078 1.668 0 2.001-.033 2.08-.204.052-.113.094-1.187.094-2.388v-2.184h2.796l-.041 3.646-.041 3.646-2.093.035c-1.745.029-2.126.07-2.288.25-.152.17-.193 3.097-.193 13.614 0 12.68-.015 13.397-.272 13.38a41.513 34.554 0 0 1-1.081-.1ZM151.256 56.6c-.044-.096-.06-.634-.034-1.195l.045-1.021 6.389-.065c4.618-.047 6.439-.107 6.571-.217.238-.198-.056-5.804-.388-7.397-.232-1.117-.732-2.789-1.023-3.426-.261-.573-.077-.506.723.263.952.916 1.831 2.212 2.23 3.292.29.782.308 1.145.27 5.356l-.041 4.517-7.331.034c-6.034.027-7.345.002-7.41-.141Zm97.152-3.011c-.298-.182-1.257-.616-2.131-.965-.874-.349-1.59-.651-1.59-.672 0-.02.54-.233 1.202-.47 2.524-.907 3.977-1.947 4.795-3.436.428-.777.538-1.097.905-2.632.277-1.163.322-6.32.066-7.774-.29-1.646-.764-3.44-1.153-4.357-.119-.28-.162-.538-.096-.572.299-.154 2.153 2.071 2.757 3.31 1.071 2.193 1.703 6.181 1.549 9.78-.133 3.092-.643 4.818-1.842 6.233-.603.712-2.85 1.904-3.563 1.892-.196-.004-.6-.155-.898-.337ZM47.392 47.257c-.328-1.839-.425-2.375-.57-3.198a479.24 398.901 0 0 0-.596-3.323 99.345 99.345 0 0 1-.705-4.162 150.722 150.722 0 0 0-.692-4.324 169.75 169.75 0 0 1-.308-1.783c-.086-.52-.198-1-.248-1.066-.05-.067-.046-.238.008-.379.084-.22.236-.257 1.086-.257.544 0 1.03.057 1.082.127.184.248 1.934 10.325 2.04 11.747.074.996-.01 1.934-.412 4.582-.275 1.817-.407 2.513-.49 2.582-.047.039-.135-.207-.195-.546ZM294.73 44.23a14.46 14.46 0 0 1-.355-.881l-.109-.323.399.307c.45.345.662.934.452 1.248-.112.166-.19.096-.387-.35ZM184.718 33.008l.04-4.178h2.637v6.94l-.93.473a68.21 68.21 0 0 0-1.36.708l-.428.235Zm-64.502 3.35c-.201-.166-.281-2.86-.098-3.259.076-.165.36-.204 1.477-.204h1.383l-.042 1.775-.043 1.774-1.242.037c-.834.025-1.307-.015-1.435-.122Zm197.456.07c-.06-.05-.11-.866-.11-1.812v-1.72h2.8l-.043 1.774-.043 1.774-1.248.037c-.685.02-1.296-.004-1.356-.053Zm-219.665-.63-.148-.322h-7.105c-5.32 0-7.152-.039-7.292-.155-.102-.085-.186-.45-.186-.813 0-.362.084-.728.186-.812.14-.117 1.971-.156 7.288-.156 3.906 0 7.115-.014 7.131-.032.017-.018.069-1.078.116-2.355l.087-2.323h2.636l.04 3.646.042 3.646h-1.324c-1.27 0-1.33-.013-1.471-.323Zm-17.883-3.247c-.198-.164-.12-6.302.082-6.47.14-.117 2.194-.155 8.29-.155 7.853 0 8.109.007 8.265.25.171.267.231 5.899.066 6.257-.084.183-.965.204-8.347.204-4.54 0-8.3-.039-8.357-.086Z" style="fill:#5a96f1;stroke-width:.141462"/><path d="M143.497 86.643c-3.471-.421-5.98-1.216-8.2-2.597-1.947-1.211-2.166-1.594-.593-1.036 2.599.922 4.778 1.187 9.663 1.18 5.334-.01 7.113-.261 10.056-1.419 3.4-1.337 6.138-3.644 7.988-6.728 1.2-1.999 1.614-3.577 1.74-6.624.114-2.747.055-2.603 1.037-2.555l.81.039.04 5.333.04 5.332-.377.78c-.877 1.806-2.724 3.926-4.514 5.18-2.467 1.728-5.163 2.682-8.834 3.123-1.937.234-6.908.229-8.856-.008Zm131.116.06c-3.889-.416-6.62-1.147-8.79-2.351-1.036-.576-2.186-1.451-2.053-1.563.037-.03.452.062.92.206 1.269.39 3.426.843 4.858 1.02 2.138.263 8.832.299 10.692.056 4.438-.578 7.418-1.695 10.017-3.753 2.141-1.697 3.903-4.07 4.541-6.123.924-2.962.979-3.832.979-15.359 0-10.614-.016-11.01-.565-13.074-.091-.342-.126-.654-.078-.694.047-.04.339-.033.648.015.527.083.602.16 1.244 1.274 1.593 2.765 1.655 3.432 1.572 16.592-.071 11.049-.097 11.545-.705 13.697-.633 2.24-1.936 4.168-4.042 5.98-2.646 2.28-6.036 3.547-10.916 4.084-1.41.155-6.852.15-8.322-.007ZM23.49 85.895c-.043-.094-.059-.632-.033-1.193l.045-1.021 6.17-.065c5.25-.055 6.192-.093 6.325-.258.102-.126.147-3.153.13-8.712-.042-13.278.003-20.765.121-20.667.11.093.146.277.568 2.922a312.782 260.348 0 0 0 1.035 6.033c.088.48.225 1.249.304 1.71.078.461.218 1.246.31 1.742.091.498.242 1.34.334 1.872.165.95.195 17.492.032 17.711-.041.055-3.491.1-7.667.1-6.2 0-7.609-.033-7.674-.174Zm22.2.014c-.162-.487-.393-2.072-.318-2.174.05-.067 1.784-.119 4.004-.119 2.898 0 3.978-.042 4.159-.161.14-.094.284-.46.338-.871.106-.79.263-1.797.625-4.005.133-.818.317-2.01.407-2.646.09-.637.228-1.535.307-1.996l.309-1.808c.091-.531.23-1.374.31-1.87.08-.498.219-1.34.31-1.872a279.478 232.627 0 0 0 .31-1.871c.079-.498.219-1.368.312-1.937.092-.567.275-1.758.405-2.645a218.085 181.526 0 0 1 .677-4.259c.091-.532.236-1.404.321-1.936.267-1.675.394-2.149.516-1.921.18.334.01 20.602-.177 21.345-.09.355-.242 1.168-.34 1.806a277.55 231.022 0 0 1-.328 2.066 1531.666 1274.903 0 0 0-.615 3.742 336.582 280.159 0 0 1-.36 2.13l-.192 1.097-5.463.034c-4.296.026-5.474-.001-5.517-.13Zm17.533.075c-.057-.049-.104-.6-.104-1.228v-1.14h6.017c4.57 0 6.08-.039 6.28-.161.245-.151.265-1.972.301-27.393l.038-27.232h2.791v57.174l-7.61.033c-4.183.018-7.655-.005-7.713-.053Zm20.118-.087c-.044-.096-.059-.634-.034-1.195l.046-1.021 7.132-.065c3.923-.035 7.22-.111 7.327-.169.153-.083.193-4.062.193-19.184 0-17.28.023-19.087.246-19.158.356-.113 2.124-.092 2.352.029.155.081.186 4.264.155 20.486l-.04 20.384-8.648.033c-7.135.028-8.662.003-8.729-.14Zm32.817.022c-3.63-.216-5.538-.773-7.3-2.13-1.025-.79-1.157-1.023-.503-.89.235.047.74.142 1.124.212 2.315.42 15.128.703 15.701.347.231-.143.271-.47.307-2.488l.04-2.323 1.087-.037c1.8-.062 1.705-.28 1.705 3.867v3.527l-5.117.014c-2.815.009-5.984-.036-7.044-.1Zm54.362.064c-.057-.048-.105-.6-.105-1.227v-1.14h6.89c6.055 0 6.918-.024 7.132-.202.219-.183.244-2.052.244-18.644 0-18.748.014-19.265.572-20.173.33-.54 1.102-.772 1.85-.556.904.26 1.182.673 1.266 1.878.055.793.009 1.161-.2 1.587a17.356 14.447 0 0 0-.438 1.006c-.113.307-.194 6.363-.252 18.971l-.085 18.52-8.384.034c-4.612.018-8.432-.005-8.49-.053Zm22.637 0c-.057-.048-.104-.6-.104-1.227v-1.14h6.755c4.36 0 6.862-.047 7.056-.133.294-.132.299-.455.288-17.262-.012-18.886-.095-21.846-.696-24.797-.112-.551-.106-.564.195-.387.571.337 1.606 1.43 2.057 2.173 1.188 1.96 1.245 3.08 1.246 24.564v18.295h-8.347c-4.591 0-8.394-.04-8.45-.087Zm21.397 0c-.198-.166-.116-2.242.09-2.3.108-.028 5.183-.084 11.28-.123 12.34-.078 15.372-.195 18.297-.706 4.048-.707 6.653-2.614 7.839-5.738.758-1.998.973-3.717 1.098-8.794.116-4.687-.06-6.934-.749-9.55a8.845 8.845 0 0 0-.241-.806c-.04-.09.034-.162.164-.162.392 0 1.51 1.165 2.105 2.194l.56.968.099 4.13c.09 3.829.348 7.704.529 7.946.238.321.35 2.121.207 3.346-.365 3.156-1.412 5.456-3.13 6.884-2.989 2.481-5.933 2.795-26.247 2.796-6.489 0-11.844-.038-11.9-.086Zm98.988-.064c-3.63-.216-5.538-.773-7.3-2.13-1.026-.79-1.157-1.023-.503-.89.234.047.74.142 1.124.211 2.37.425 15.12.707 15.701.348.23-.143.27-.47.306-2.487l.041-2.324 1.255-.037c.934-.028 1.302.01 1.437.145.131.132.17 1.162.14 3.716l-.04 3.533-5.118.014c-2.814.009-5.983-.036-7.044-.1ZM142.197 83.1c-4.098-.245-7.193-.983-9.459-2.255-1.076-.604-2.842-2.014-3.505-2.799-.881-1.042-1.785-2.693-2.175-3.972-.9-2.946-1.136-6.17-1.132-15.43.004-11.053.336-13.83 1.956-16.342 1.032-1.601 3.934-3.74 6.54-4.821 1.13-.47 3.604-1.162 4.829-1.352l1.752-.275c.97-.155 5.83-.154 6.668.001.358.066 1.104.188 1.658.27 3.221.482 6.903 1.993 9.049 3.716 3 2.409 4.176 5.342 4.526 11.285l.112 1.906-7.348-.035-7.347-.033-.093-3.871c-.087-3.544-.123-3.933-.429-4.593-.57-1.234-1.497-1.721-3.123-1.645-1.92.09-2.635.865-2.93 3.177-.268 2.1-.228 24.79.046 26.311.221 1.227.791 2.462 1.383 2.998 1.298 1.175 3.999.962 4.952-.391.816-1.16.913-1.771 1.003-6.27.062-3.082.133-4.195.276-4.293.126-.088 2.451-.122 6.84-.1l6.65.035-.037 2.452c-.064 4.225-.451 6.474-1.42 8.252-2.54 4.664-6.84 7.278-13.04 7.927-1.922.201-4.345.259-6.202.147Zm131.563.049c-1.586-.075-4.312-.315-4.962-.437-2.887-.542-3.729-.789-5.576-1.634-2.743-1.256-4.846-3.71-5.79-6.754-.748-2.414-.958-5.557-.957-14.326.002-9.656.254-12.63 1.327-15.615.725-2.018 2.782-4.583 4.407-5.495.298-.168.85-.485 1.224-.706 1.378-.812 4.072-1.699 6.218-2.047l1.675-.27c1.097-.174 5.843-.168 7.395.01 6.826.787 11.453 3.214 13.886 7.28 1.676 2.803 1.852 4.283 1.851 15.488-.001 10.155-.198 13-1.06 15.327-1.347 3.627-4.405 6.464-8.51 7.892-1.222.425-3.626.928-5.236 1.094-1.469.153-4.581.254-5.892.193Zm3.1-7.261c.87-.332 1.16-.653 1.493-1.654.276-.828.29-1.577.29-14.724 0-15.697.032-15.242-1.086-16.082-1.395-1.049-3.954-.707-4.717.632-.614 1.076-.63 1.477-.63 15.357 0 14.258.003 14.347.74 15.544.646 1.05 2.464 1.48 3.911.927Zm-1.923-1.031c-.539-.126-.977-.683-1.15-1.466-.23-1.03-.328-25.82-.107-27.202.235-1.475.527-1.951 1.338-2.184.586-.169.68-.163 1.163.07.289.14.612.405.718.588.323.554.3 2.512-.039 3.333-.277.673-.295 1.38-.349 13.718l-.057 13.01-.387.122c-.431.137-.583.138-1.13.01Zm-254.42-20.57.04-28.038 10.544-.036c5.8-.02 10.687-.007 10.861.028.28.056.36.285.672 1.907.55 2.86.611 3.192.79 4.295l.31 1.872c.078.461.215 1.303.304 1.871a794.416 661.243 0 0 0 1.263 7.357c.159.85.4 2.248.613 3.55.076.46.204 1.215.284 1.677.08.461.233 1.39.339 2.065.262 1.68.33 1.807.977 1.807.29 0 .594-.073.675-.162.203-.222.605-2.572 1.758-10.292.09-.603.227-1.504.305-2 .077-.498.216-1.456.31-2.13.094-.675.233-1.575.31-2 .242-1.357 1.076-6.735 1.318-8.51.058-.422.167-.901.242-1.066l.137-.3 10.818.033 10.819.033.039 28.04.04 28.04-7.017-.033-7.017-.034-.078-19.015c-.076-18.804-.08-19.016-.387-19.202-.429-.261-.895-.174-1.106.209-.098.177-.298 1.107-.444 2.065a548.721 548.721 0 0 1-.699 4.517l-.308 1.936c-.073.461-.205 1.274-.293 1.807-.152.912-.903 5.546-1.266 7.808-.09.568-.229 1.41-.305 1.871-.077.462-.217 1.362-.312 2-.095.64-.234 1.51-.311 1.937-.198 1.105-.8 4.817-1.4 8.647-.09.567-.226 1.41-.303 1.871a318.016 264.705 0 0 0-.518 3.356c-.023.167-.71.198-4.948.228-2.706.018-4.921.013-4.921-.012 0-.06-1.074-6.15-1.256-7.121-.135-.718-.242-1.36-.594-3.55a787.547 787.547 0 0 0-1.418-8.066c-.207-1.102-.46-2.586-.905-5.323a1245.037 1036.323 0 0 0-1.422-8.1 109.81 109.81 0 0 1-.602-3.488c-.193-1.277-.31-1.597-.633-1.742-.351-.156-.997.03-1.134.327-.054.118-.099 8.515-.099 18.66v18.445H20.48ZM80.434 82.24c-.056-.047-.103-10.356-.103-22.91V36.508l8.102.033 8.101.034.043 22.586c.024 12.422.005 22.716-.042 22.876l-.084.29h-7.956c-4.376 0-8.003-.039-8.06-.086Zm30.909-.068c-3.147-.315-5.263-1.216-6.704-2.855-.823-.935-1.137-1.637-1.381-3.093-.122-.724-.208-6.018-.272-16.678l-.094-15.616-1.783-.065-1.783-.064-.041-3.065-.042-3.065h1.618c.89 0 1.729-.036 1.864-.078.215-.07.245-.508.245-3.589 0-2.557.05-3.55.186-3.664.14-.116 2.037-.155 7.585-.155 4.07 0 7.51.035 7.644.078.215.07.246.508.246 3.598 0 2.753.044 3.55.203 3.66.119.083 1.075.157 2.287.178l2.084.036V43.8l-2.084.036c-1.212.021-2.168.095-2.287.177-.166.115-.203 2.649-.202 13.71 0 12.968.084 15.95.47 16.936.336.855 1.147 1.162 3.482 1.315l1.396.091.04 3.13.042 3.13-5.778-.02c-3.178-.009-6.301-.07-6.941-.134Zm56.233.068c-.057-.048-.104-12.614-.104-27.926 0-23.355.034-27.864.212-27.986.152-.106 2.323-.137 7.79-.113l7.581.033.078 6.58c.07 5.956.101 6.585.33 6.622.14.022.733-.302 1.319-.722 2.908-2.085 5.77-2.993 9.437-2.993 2.754 0 4.742.458 6.822 1.57 1.922 1.028 3.172 2.264 3.775 3.731.855 2.081.954 4.59.954 24.09v17.2h-15.815V64.2c0-15.796-.031-18.246-.238-19.069-.394-1.562-1.375-2.3-3.061-2.3-1.421 0-2.33.476-2.837 1.486-.649 1.294-.677 2.13-.682 20.487l-.004 17.52h-7.728c-4.25 0-7.773-.038-7.83-.086Zm43.97-27.953.039-28.038 11.396.007c9.768.007 11.668.038 13.29.224 3.463.395 4.84.687 6.79 1.442 1.201.464 3.336 1.81 3.746 2.36.145.196.456.529.692.742 2.079 1.881 3.44 8.03 2.86 12.906-.314 2.623-.968 4.139-2.213 5.124-.659.52-2.954 1.466-4.49 1.85-1.982.494-2.202.576-2.308.854-.18.474.3.833 1.431 1.069 2.296.478 4.955 1.6 6.048 2.548 1.276 1.108 2.15 2.898 2.616 5.358.361 1.912.25 12.308-.15 14.043-.562 2.434-1.62 4.248-3.085 5.297-.803.574-2.514 1.268-3.752 1.52-3.082.63-5.867.732-19.972.732h-12.978ZM230.81 73.63c3.147-.397 4.025-1.201 4.424-4.057.221-1.586.112-9.316-.146-10.278-.398-1.488-1.044-2.065-2.74-2.446-1.03-.232-3.657-.468-4.11-.37-.287.063-.296.311-.296 8.561 0 7.956.018 8.505.272 8.628.367.179.947.17 2.596-.038Zm-1.394-1.259c-.045-.097-.063-3.429-.041-7.404l.04-7.227.427-.041c.647-.062 2.698.356 3.127.636.448.293.933 1.505.697 1.741-.084.085-.283.126-.442.09-.158-.034-.435.003-.613.082-.32.143-.324.208-.364 5.98l-.041 5.834-.465.187c-.665.269-2.22.35-2.325.122Zm2.825-23.784c2.4-.532 2.87-1.476 3.084-6.206.196-4.349-.545-6.457-2.53-7.187-.7-.258-3.866-.564-4.489-.434l-.364.076v6.88c0 3.786.047 6.92.103 6.968.19.158 3.376.085 4.196-.097Zm-2.718-1.134c-.138-.115-.185-1.58-.185-5.799 0-5.29.017-5.648.275-5.717.15-.04.828.016 1.506.124 1.619.258 2.219.717 2.487 1.905.107.477.105.48-.421.48-.291 0-.613.068-.715.154-.137.114-.186 1.266-.186 4.38 0 4.221 0 4.227-.345 4.427-.416.243-2.139.276-2.416.046Zm78.97 34.683c-2.33-.258-3.518-.634-5.13-1.626-.905-.555-1.933-1.749-2.3-2.668-.562-1.41-.597-2.33-.693-18.231l-.095-15.681-1.783-.065-1.784-.064v-6.066l1.474-.032c.81-.018 1.63-.063 1.821-.1l.35-.067v-3.53c0-2.825.041-3.56.21-3.678.153-.105 2.324-.136 7.792-.112l7.58.033.041 3.539c.028 2.347.1 3.596.213 3.71.128.129.72.173 2.327.173h2.154l-.041 3.065-.042 3.065-2.083.036c-1.212.021-2.168.095-2.287.177-.167.115-.204 2.662-.204 13.783 0 13.117.076 15.797.478 16.863.322.852 1.139 1.161 3.476 1.315l1.395.091.042 3.13.041 3.13-5.778-.018c-3.474-.01-6.335-.079-7.174-.172Zm-163.561-7.3c-.657-.164-.984-.466-1.376-1.272l-.352-.724V58.966c0-13.164.015-13.897.281-14.304.377-.574 1.186-.86 1.885-.669.767.21.99.502 1.267 1.654.25 1.035.248 1.06-.095 1.723-.22.425-.398 1.131-.482 1.908-.074.679-.133 6.689-.132 13.355.002 9.758-.037 12.141-.198 12.227-.231.122-.215.122-.798-.024Zm-23.38-.114c-.96-.113-1.17-.287-1.297-1.082-.06-.37-.138-6.878-.174-14.464-.05-10.265-.02-13.837.113-13.97.136-.137.686-.18 2.33-.18h2.151v-2.182c0-1.201.043-2.276.094-2.388.076-.164.351-.205 1.386-.205.711 0 1.33.052 1.378.115.046.062-.045.25-.202.42-.428.456-1.36 2.022-1.646 2.767-.14.36-.408 1.406-.597 2.323l-.344 1.668-.69.04c-.38.023-.78.103-.887.178-.157.108-.197 2.876-.197 13.607V74.84l-.35-.017a18.165 15.12 0 0 1-1.067-.101Zm197.448 0c-.99-.1-1.141-.217-1.297-1.005-.068-.34-.127-6.9-.131-14.576-.01-12.613.014-13.965.235-14.036.135-.043 1.14-.078 2.232-.078 1.668 0 2.002-.033 2.08-.204.052-.113.094-1.187.094-2.388v-2.184h2.796l-.04 3.646-.042 3.646-2.093.035c-1.745.029-2.125.07-2.287.25-.153.17-.194 3.097-.194 13.614 0 12.68-.015 13.397-.272 13.38a41.513 34.554 0 0 1-1.08-.1ZM151.256 56.6c-.044-.096-.06-.634-.035-1.195l.046-1.021 6.388-.065c4.618-.047 6.44-.107 6.572-.217.238-.198-.056-5.804-.389-7.397-.232-1.117-.731-2.789-1.022-3.426-.262-.573-.077-.506.722.263.953.916 1.832 2.212 2.231 3.292.29.782.308 1.145.27 5.356l-.042 4.517-7.331.034c-6.034.027-7.344.002-7.41-.141Zm97.152-3.011c-.299-.182-1.258-.616-2.132-.965-.874-.349-1.59-.651-1.59-.672 0-.02.541-.233 1.202-.47 2.524-.907 3.977-1.947 4.796-3.436.428-.777.537-1.097.904-2.632.278-1.163.322-6.32.066-7.774-.29-1.646-.764-3.44-1.152-4.357-.12-.28-.163-.538-.097-.572.3-.154 2.154 2.071 2.758 3.31 1.07 2.193 1.702 6.181 1.548 9.78-.132 3.092-.642 4.818-1.841 6.233-.604.712-2.85 1.904-3.564 1.892-.196-.004-.6-.155-.898-.337ZM47.39 47.257l-.57-3.198a479.24 398.901 0 0 0-.596-3.323 99.345 99.345 0 0 1-.704-4.162 150.722 150.722 0 0 0-.693-4.324 169.75 169.75 0 0 1-.308-1.783c-.086-.52-.197-1-.247-1.066-.05-.067-.047-.238.008-.379.083-.22.235-.257 1.085-.257.544 0 1.031.057 1.083.127.184.248 1.934 10.325 2.04 11.747.073.996-.011 1.934-.412 4.582-.276 1.817-.408 2.513-.49 2.582-.048.039-.135-.207-.196-.546ZM294.73 44.23a14.46 14.46 0 0 1-.355-.881l-.11-.323.4.307c.449.345.661.934.451 1.248-.112.166-.19.096-.386-.35ZM184.718 33.008l.04-4.178h2.637v6.94l-.93.473a68.21 68.21 0 0 0-1.36.708l-.428.235Zm-64.502 3.35c-.201-.166-.281-2.86-.098-3.259.076-.165.36-.204 1.477-.204h1.383l-.042 1.775-.043 1.774-1.242.037c-.834.025-1.307-.015-1.435-.122Zm197.456.07c-.06-.05-.11-.866-.11-1.812v-1.72h2.8l-.043 1.774-.043 1.774-1.248.037c-.685.02-1.296-.004-1.356-.053Zm-219.665-.63-.148-.322h-7.105c-5.32 0-7.152-.039-7.292-.155-.102-.085-.186-.45-.186-.813 0-.362.084-.728.186-.812.14-.117 1.971-.156 7.288-.156 3.906 0 7.115-.014 7.131-.032.017-.018.069-1.078.116-2.355l.087-2.323h2.636l.04 3.646.042 3.646h-1.324c-1.27 0-1.33-.013-1.471-.323ZM80.33 29.362c0-2.635.032-3.03.246-3.099.134-.043 3.72-.078 7.966-.078 6.364 0 7.752.031 7.898.178.124.124.164 1.043.135 3.065l-.041 2.888-8.102.033-8.102.033Z" style="fill:#3e7ee4;stroke-width:.141462"/><path d="M143.497 86.643c-3.471-.421-5.98-1.216-8.2-2.597-1.947-1.211-2.166-1.594-.593-1.036 2.599.922 4.778 1.187 9.663 1.18 5.334-.01 7.113-.261 10.056-1.419 3.4-1.337 6.138-3.644 7.988-6.728 1.2-1.999 1.614-3.577 1.74-6.624.114-2.747.055-2.603 1.037-2.555l.81.039.04 5.333.04 5.332-.377.78c-.877 1.806-2.724 3.926-4.514 5.18-2.467 1.728-5.163 2.682-8.834 3.123-1.937.234-6.908.229-8.856-.008Zm131.116.06c-3.889-.416-6.62-1.147-8.79-2.351-1.036-.576-2.186-1.451-2.053-1.563.037-.03.452.062.92.206 1.269.39 3.426.843 4.858 1.02 2.138.263 8.832.299 10.692.056 4.438-.578 7.418-1.695 10.017-3.753 2.141-1.697 3.903-4.07 4.541-6.123.924-2.962.979-3.832.979-15.359 0-10.614-.016-11.01-.565-13.074-.091-.342-.126-.654-.078-.694.047-.04.339-.033.648.015.527.083.602.16 1.244 1.274 1.593 2.765 1.655 3.432 1.572 16.592-.071 11.049-.097 11.545-.705 13.697-.633 2.24-1.936 4.168-4.042 5.98-2.646 2.28-6.036 3.547-10.916 4.084-1.41.155-6.852.15-8.322-.007ZM23.49 85.895c-.043-.094-.059-.632-.033-1.193l.045-1.021 6.17-.065c5.25-.055 6.192-.093 6.325-.258.102-.126.147-3.153.13-8.712-.042-13.278.003-20.765.121-20.667.11.093.146.277.568 2.922a312.782 260.348 0 0 0 1.035 6.033c.088.48.225 1.249.304 1.71.078.461.218 1.246.31 1.742.091.498.242 1.34.334 1.872.165.95.195 17.492.032 17.711-.041.055-3.491.1-7.667.1-6.2 0-7.609-.033-7.674-.174Zm22.2.014c-.162-.487-.393-2.072-.318-2.174.05-.067 1.784-.119 4.004-.119 2.898 0 3.978-.042 4.159-.161.14-.094.284-.46.338-.871.106-.79.263-1.797.625-4.005.133-.818.317-2.01.407-2.646.09-.637.228-1.535.307-1.996l.309-1.808c.091-.531.23-1.374.31-1.87.08-.498.219-1.34.31-1.872a279.478 232.627 0 0 0 .31-1.871c.079-.498.219-1.368.312-1.937.092-.567.275-1.758.405-2.645a218.085 181.526 0 0 1 .677-4.259c.091-.532.236-1.404.321-1.936.267-1.675.394-2.149.516-1.921.18.334.01 20.602-.177 21.345-.09.355-.242 1.168-.34 1.806a277.55 231.022 0 0 1-.328 2.066 1531.666 1274.903 0 0 0-.615 3.742 336.582 280.159 0 0 1-.36 2.13l-.192 1.097-5.463.034c-4.296.026-5.474-.001-5.517-.13Zm17.533.075c-.057-.049-.104-.6-.104-1.228v-1.14h6.017c4.57 0 6.08-.039 6.28-.161.245-.151.265-1.972.301-27.393l.038-27.232h2.791v57.174l-7.61.033c-4.183.018-7.655-.005-7.713-.053Zm20.118-.087c-.044-.096-.059-.634-.034-1.195l.046-1.021 7.132-.065c3.923-.035 7.22-.111 7.327-.169.153-.083.193-4.062.193-19.184 0-17.28.023-19.087.246-19.158.356-.113 2.124-.092 2.352.029.155.081.186 4.264.155 20.486l-.04 20.384-8.648.033c-7.135.028-8.662.003-8.729-.14Zm32.817.022c-3.63-.216-5.538-.773-7.3-2.13-1.025-.79-1.157-1.023-.503-.89.235.047.74.142 1.124.212 2.315.42 15.128.703 15.701.347.231-.143.271-.47.307-2.488l.04-2.323 1.087-.037c1.8-.062 1.705-.28 1.705 3.867v3.527l-5.117.014c-2.815.009-5.984-.036-7.044-.1Zm54.362.064c-.057-.048-.105-.6-.105-1.227v-1.14h6.89c6.055 0 6.918-.024 7.132-.202.219-.183.244-2.052.244-18.644 0-18.748.014-19.265.572-20.173.33-.54 1.102-.772 1.85-.556.904.26 1.182.673 1.266 1.878.055.793.009 1.161-.2 1.587a17.356 14.447 0 0 0-.438 1.006c-.113.307-.194 6.363-.252 18.971l-.085 18.52-8.384.034c-4.612.018-8.432-.005-8.49-.053Zm22.637 0c-.057-.048-.104-.6-.104-1.227v-1.14h6.755c4.36 0 6.862-.047 7.056-.133.294-.132.299-.455.288-17.262-.012-18.886-.095-21.846-.696-24.797-.112-.551-.106-.564.195-.387.571.337 1.606 1.43 2.057 2.173 1.188 1.96 1.245 3.08 1.246 24.564v18.295h-8.347c-4.591 0-8.394-.04-8.45-.087Zm21.397 0c-.198-.166-.116-2.242.09-2.3.108-.028 5.183-.084 11.28-.123 12.34-.078 15.372-.195 18.297-.706 4.048-.707 6.653-2.614 7.839-5.738.758-1.998.973-3.717 1.098-8.794.116-4.687-.06-6.934-.749-9.55a8.845 8.845 0 0 0-.241-.806c-.04-.09.034-.162.164-.162.392 0 1.51 1.165 2.105 2.194l.56.968.099 4.13c.09 3.829.348 7.704.529 7.946.238.321.35 2.121.207 3.346-.365 3.156-1.412 5.456-3.13 6.884-2.989 2.481-5.933 2.795-26.247 2.796-6.489 0-11.844-.038-11.9-.086Zm98.988-.064c-3.63-.216-5.538-.773-7.3-2.13-1.026-.79-1.157-1.023-.503-.89.234.047.74.142 1.124.211 2.37.425 15.12.707 15.701.348.23-.143.27-.47.306-2.487l.041-2.324 1.255-.037c.934-.028 1.302.01 1.437.145.131.132.17 1.162.14 3.716l-.04 3.533-5.118.014c-2.814.009-5.983-.036-7.044-.1Zm-168.61-11.083c-.658-.164-.985-.466-1.376-1.272l-.352-.724V58.966c0-13.164.014-13.897.281-14.304.376-.574 1.186-.86 1.884-.669.767.21.99.502 1.268 1.654.25 1.035.248 1.06-.095 1.723-.22.425-.399 1.131-.483 1.908-.073.679-.133 6.689-.131 13.355.001 9.758-.037 12.141-.198 12.227-.231.122-.216.122-.799-.024Zm130.004.02c-.539-.125-.977-.682-1.15-1.465-.23-1.03-.328-25.821-.107-27.203.235-1.474.527-1.95 1.338-2.183.586-.17.68-.163 1.163.07.289.14.612.405.718.588.323.554.3 2.512-.039 3.332-.277.673-.295 1.38-.349 13.72l-.057 13.009-.387.122c-.431.137-.583.138-1.13.01Zm-153.384-.134c-.96-.113-1.17-.287-1.298-1.082-.059-.37-.138-6.878-.173-14.464-.05-10.265-.02-13.837.112-13.97.136-.137.686-.18 2.33-.18h2.152v-2.182c0-1.201.042-2.276.093-2.388.077-.164.352-.205 1.387-.205.71 0 1.33.052 1.377.115.047.062-.044.25-.201.42-.428.456-1.36 2.022-1.647 2.767-.139.36-.407 1.406-.597 2.323l-.344 1.668-.69.04c-.38.023-.779.103-.887.178-.157.108-.197 2.876-.197 13.607V74.84l-.349-.017a18.165 15.12 0 0 1-1.068-.101Zm197.448 0c-.991-.1-1.142-.217-1.298-1.005-.067-.34-.126-6.9-.13-14.576-.01-12.613.013-13.965.235-14.036.134-.043 1.139-.078 2.232-.078 1.668 0 2.001-.033 2.08-.204.052-.113.094-1.187.094-2.388v-2.184h2.796l-.041 3.646-.041 3.646-2.093.035c-1.745.029-2.126.07-2.288.25-.152.17-.193 3.097-.193 13.614 0 12.68-.015 13.397-.272 13.38a41.513 34.554 0 0 1-1.081-.1Zm-89.586-2.351c-.045-.098-.063-3.43-.041-7.404l.041-7.228.427-.04c.646-.062 2.698.355 3.126.636.448.293.933 1.504.697 1.74-.084.085-.283.126-.441.091-.159-.034-.435.003-.613.082-.322.143-.325.208-.365 5.98l-.04 5.834-.466.187c-.664.269-2.22.35-2.324.122Zm-78.159-15.77c-.044-.097-.06-.635-.034-1.196l.045-1.021 6.389-.065c4.618-.047 6.439-.107 6.571-.217.238-.198-.056-5.804-.388-7.397-.232-1.117-.732-2.789-1.023-3.426-.261-.573-.077-.506.723.263.952.916 1.831 2.212 2.23 3.292.29.782.308 1.145.27 5.356l-.041 4.517-7.331.034c-6.034.027-7.345.002-7.41-.141Zm97.152-3.012c-.298-.182-1.257-.616-2.131-.965-.874-.349-1.59-.651-1.59-.672 0-.02.54-.233 1.202-.47 2.524-.907 3.977-1.947 4.795-3.436.428-.777.538-1.097.905-2.632.277-1.163.322-6.32.066-7.774-.29-1.646-.764-3.44-1.153-4.357-.119-.28-.162-.538-.096-.572.299-.154 2.153 2.071 2.757 3.31 1.071 2.193 1.703 6.181 1.549 9.78-.133 3.092-.643 4.818-1.842 6.233-.603.712-2.85 1.904-3.563 1.892-.196-.004-.6-.155-.898-.337ZM47.392 47.257c-.328-1.839-.425-2.375-.57-3.198a479.24 398.901 0 0 0-.596-3.323 99.345 99.345 0 0 1-.705-4.162 150.722 150.722 0 0 0-.692-4.324 169.75 169.75 0 0 1-.308-1.783c-.086-.52-.198-1-.248-1.066-.05-.067-.046-.238.008-.379.084-.22.236-.257 1.086-.257.544 0 1.03.057 1.082.127.184.248 1.934 10.325 2.04 11.747.074.996-.01 1.934-.412 4.582-.275 1.817-.407 2.513-.49 2.582-.047.039-.135-.207-.195-.546Zm182.13.196c-.138-.115-.185-1.58-.185-5.799 0-5.29.018-5.648.275-5.717.151-.04.829.016 1.506.124 1.62.258 2.22.717 2.487 1.904.107.477.106.48-.42.48-.292 0-.614.07-.716.155-.137.114-.186 1.266-.186 4.38 0 4.221 0 4.226-.345 4.427-.416.243-2.139.276-2.415.046Zm65.208-3.223a14.46 14.46 0 0 1-.355-.881l-.109-.323.399.307c.45.345.662.934.452 1.248-.112.166-.19.096-.387-.35ZM184.718 33.008l.04-4.178h2.637v6.94l-.93.473a68.21 68.21 0 0 0-1.36.708l-.428.235Zm-64.502 3.35c-.201-.166-.281-2.86-.098-3.259.076-.165.36-.204 1.477-.204h1.383l-.042 1.775-.043 1.774-1.242.037c-.834.025-1.307-.015-1.435-.122Zm197.456.07c-.06-.05-.11-.866-.11-1.812v-1.72h2.8l-.043 1.774-.043 1.774-1.248.037c-.685.02-1.296-.004-1.356-.053Zm-219.665-.63-.148-.322h-7.105c-5.32 0-7.152-.039-7.292-.155-.102-.085-.186-.45-.186-.813 0-.362.084-.728.186-.812.14-.117 1.971-.156 7.288-.156 3.906 0 7.115-.014 7.131-.032.017-.018.069-1.078.116-2.355l.087-2.323h2.636l.04 3.646.042 3.646h-1.324c-1.27 0-1.33-.013-1.471-.323Z" style="fill:#ab5758;stroke-width:.141462"/><path d="M144.367 86.52c-3.717-.345-6.691-1.22-9.044-2.662-.718-.44-.953-.734-.452-.565.632.212 2.827.694 3.76.825 2.5.351 3.207.402 5.672.402 6.68.002 10.963-1.214 14.6-4.146 1.55-1.25 2.37-2.176 3.437-3.88.906-1.447 1.401-2.605 1.703-3.977.232-1.057.482-3.413.481-4.55v-1h1.241V77.83l-.85 1.377c-1.038 1.68-2.495 3.24-3.995 4.28-1.12.775-3.78 1.976-5.276 2.38-2.813.763-7.294 1.022-11.276.653Zm131.254.052c-3.566-.242-5.949-.747-8.428-1.785-1.166-.488-2.91-1.52-2.768-1.639.039-.032.341.03.672.137 2.352.768 6.251 1.232 10.356 1.234 2.605 0 3.277-.045 5.827-.4 4.839-.67 8.934-2.812 11.532-6.028 2.836-3.512 3.353-6.51 3.353-19.433 0-7.087-.207-10.858-.713-12.954-.093-.386-.07-.419.299-.419.345 0 .483.142 1.028 1.065 1.538 2.605 1.713 4.186 1.709 15.435-.003 10.03-.13 12.178-.883 14.926-.961 3.512-4.247 6.842-8.25 8.361-3.601 1.367-8.242 1.874-13.734 1.5ZM23.735 84.843v-1.098h6.12c5.891 0 6.125-.01 6.28-.25.107-.166.167-4.83.18-14.1.011-8.421.072-13.571.154-13.14.075.39.208 1.146.296 1.678.174 1.058.367 2.185.596 3.485l.782 4.48.635 3.643-.04 8.167-.04 8.167-7.48.033-7.482.034Zm22.12.872c-.043-.125-.123-.62-.18-1.099l-.101-.87h4.024c3.037 0 4.062-.04 4.175-.162.082-.089.233-.684.336-1.323.102-.64.25-1.54.329-2 .078-.462.215-1.29.303-1.84a2059.835 1714.532 0 0 0 1.333-8.356c.128-.816.296-1.833.372-2.259.077-.426.217-1.297.312-1.936s.237-1.539.316-2c.246-1.45.448-2.697.859-5.292.219-1.384.42-2.604.449-2.71.126-.484.06 17.848-.067 18.65l-.393 2.451a500.086 416.253 0 0 0-.404 2.582c-.181 1.204-.354 2.28-.61 3.807a110.676 92.123 0 0 0-.281 1.807l-.097.71-5.3.034c-4.95.031-5.304.019-5.375-.194Zm17.524.14c-.057-.048-.105-.543-.105-1.099v-1.01h6.106c4.936 0 6.139-.034 6.28-.175.126-.127.184-7.517.212-27.329l.04-27.154h2.48v56.787l-7.454.033c-4.1.019-7.501-.006-7.559-.054Zm20.208-1.012v-1.098h7.101c5.317 0 7.148-.039 7.288-.155.143-.119.185-4.566.185-19.23V45.285h2.482l-.04 20.295-.038 20.295-8.49.033-8.488.033Zm33.18.892c-3.83-.224-5.01-.46-6.633-1.327-.778-.414-1.986-1.396-1.57-1.275.405.119 2.423.343 4.337.482 2.275.165 12.236.169 12.55.004.187-.099.247-.574.31-2.474l.077-2.352 1.004.034c.552.02 1.058.062 1.124.096.066.035.12 1.627.12 3.54v3.476l-4.225-.018c-2.324-.01-5.516-.094-7.094-.186Zm53.87.03c-.045-.096-.06-.575-.035-1.065l.047-.89 6.886-.034c4.77-.023 6.95-.078 7.093-.177.172-.119.208-3.324.208-18.551 0-19.407.007-19.613.685-20.475.309-.392 1.148-.536 1.743-.3.945.378 1.29 2.046.668 3.24-.728 1.396-.76 2.266-.765 20.97l-.005 17.456h-8.222c-6.758 0-8.238-.03-8.304-.174Zm22.675.088c-.057-.047-.103-.541-.103-1.097v-1.01h6.881c5.723 0 6.911-.031 7.062-.182.136-.137.165-4.997.117-19.908-.062-18.915-.092-20.231-.505-21.92l-.095-.388.55.452c.841.693 1.605 1.861 1.884 2.882.61 2.237.69 4.907.693 23.479l.004 17.778h-8.192c-4.506 0-8.239-.039-8.295-.086Zm21.45-1.01v-1.098l10.272.001c16.74.002 20.592-.374 23.757-2.32 1.875-1.154 3.36-3.296 3.936-5.682.532-2.198.565-2.708.559-8.519-.006-5.113-.043-6.03-.287-7.098a82.894 68.998 0 0 1-.351-1.613l-.07-.387.554.516c.305.284.812.944 1.128 1.468l.572.953.107 4.92c.059 2.706.185 5.327.28 5.823.094.497.251 1.294.348 1.77.192.945.092 3.113-.204 4.42-.534 2.354-1.392 3.929-2.777 5.1-2.935 2.48-6.46 2.843-27.63 2.843H214.76Zm100.087.956c-3.937-.185-5.712-.525-7.317-1.4-.91-.494-2.043-1.401-1.584-1.266.402.118 2.416.342 4.336.482 2.276.165 12.236.169 12.55.004.188-.099.247-.571.31-2.45.043-1.282.13-2.33.193-2.329l1.125.001h1.008v7.098l-4.225-.018c-2.324-.01-5.202-.065-6.396-.121ZM144.556 74.51c-.483-.281-.773-.8-1.042-1.866-.332-1.315-.337-25.938-.006-27.226.242-.936.616-1.293 1.352-1.293.985 0 1.327.369 1.611 1.735.171.822.16.936-.127 1.397-.176.28-.37.936-.439 1.491-.069.545-.129 6.61-.133 13.477l-.009 12.487h-.43c-.237 0-.586-.09-.776-.202Zm129.986-.05c-.659-.606-.693-1.328-.699-14.888-.006-12.958.046-14.365.55-15.022.27-.353 1.156-.508 1.744-.305.549.189.775.707.82 1.88.024.637-.054 1.094-.264 1.549-.284.616-.3 1.226-.375 13.809l-.077 13.164-.706.039c-.553.03-.768-.02-.993-.226Zm-153.344.01c-.323-.058-.502-.193-.616-.468-.106-.256-.177-5.19-.209-14.552l-.049-14.164h2.087c1.69 0 2.133-.039 2.33-.203.204-.169.244-.579.244-2.452v-2.25h1.077c.99 0 1.462.134 1.11.315-.263.135-1.29 1.805-1.59 2.587-.401 1.044-.7 2.167-.826 3.108-.058.431-.152.848-.212.928-.059.08-.455.162-.88.185l-.772.04-.04 13.52-.039 13.52-.58-.017a7.043 5.862 0 0 1-1.035-.096Zm197.45-.002c-.528-.078-.546-.101-.729-.919-.139-.62-.19-4.4-.195-14.55l-.007-13.713 2.054-.002c1.13-.001 2.16-.057 2.288-.124.187-.098.247-.568.31-2.418l.077-2.296h2.327v6.97l-2.248.064-2.249.064-.04 13.52-.04 13.519-.502-.017a9.484 7.894 0 0 1-1.045-.097Zm-89.002-9.321v-7.25l1.085.083c1.944.15 2.473.453 2.722 1.555.104.46.102.464-.444.464-1.077 0-1.037-.243-1.037 6.207v5.802l-.348.107c-.192.06-.715.147-1.164.195l-.814.087Zm-78.146-9.6v-1.097h6.347c5.391 0 6.38-.03 6.575-.192.189-.157.217-.556.162-2.29-.093-2.915-.426-5.277-1.01-7.163-.16-.514-.29-1.005-.29-1.093 0-.336.955.79 1.662 1.96l.742 1.227.045 4.872.046 4.872H151.5Zm97.064-2.083c-.299-.183-1.197-.595-1.995-.915l-1.451-.582 1.188-.43c2.109-.763 3.617-1.825 4.39-3.092 1.02-1.672 1.279-3.073 1.279-6.912 0-3.327-.174-4.85-.793-6.937-.176-.592-.283-1.105-.24-1.141.125-.104 1.127 1.106 1.645 1.986 1.025 1.743 1.587 4.022 1.878 7.615.383 4.72-.542 8.163-2.546 9.482-1.814 1.194-2.577 1.404-3.355.926Zm-18.917-11.721v-5.62h.36c.197 0 .773.062 1.279.14 1.047.158 1.666.554 1.938 1.241.23.581.099.813-.462.813-.253 0-.517.072-.586.16-.07.09-.16 2.108-.203 4.486l-.077 4.323-1.125.038-1.124.038ZM47.41 46.188c-.049-.248-.132-.713-.185-1.032-.053-.32-.338-1.946-.633-3.614-.64-3.626-.819-4.676-1-5.872a213.377 213.377 0 0 0-.918-5.485c-.225-1.23-.27-1.162.749-1.162h.908l.092.613c.05.338.24 1.426.424 2.42a606.883 505.148 0 0 1 .773 4.324c.728 4.136.827 5.078.642 6.12-.089.502-.244 1.494-.344 2.204-.1.71-.235 1.436-.3 1.614-.113.307-.123.301-.208-.13Zm137.428-13.231v-3.934h2.325l.002 2.55c0 1.401.045 2.846.097 3.21.11.766.072.807-1.455 1.603l-.97.505Zm-64.503 1.675v-1.62l1.202.039 1.201.037.044 1.581.044 1.581h-2.49Zm197.417.037.044-1.58h2.326l.044 1.58.043 1.581h-2.5ZM98.17 35.687c-.076-.168-.254-.342-.396-.387-.141-.045-3.391-.082-7.222-.082h-6.964v-1.42h6.987c4.52 0 7.094-.047 7.288-.134.279-.124.3-.29.3-2.387v-2.254h2.48v3.406c0 3.866.12 3.563-1.412 3.563-.826 0-.936-.032-1.06-.305Z" style="opacity:.236;fill:#9d3b3b;stroke-width:.141462"/><g aria-label="Streams" style="font-style:normal;font-variant:normal;font-weight:400;font-stretch:normal;font-size:51.8119px;line-height:1;font-family:Dynalight;text-align:center;letter-spacing:0;word-spacing:0;text-anchor:middle;fill:#3e7ee4;fill-opacity:1;stroke:none;stroke-width:.69391"><path d="M130.013 67.212q-.415-.674-1.45-.674-1.037 0-1.97.26-.88.258-2.124.725-2.02.829-3.264 1.554-4.663 2.487-8.705 5.855-4.041 3.316-4.248 4.974-.104 1.295 1.399 2.124 1.295.777 3.005 1.502 1.71.674 2.487 1.037 4.145 2.072 4.145 5.492 0 1.502-.881 2.901-1.399 2.176-4.249 3.627-2.797 1.399-6.01 1.969-3.316.57-5.492.57-3.938 0-7.875-1.71-3.938-1.658-4.87-5.233 1.916 1.71 5.284 2.435 3.368.726 6.425.726 4.56-.052 6.735-.726 2.228-.673 3.835-1.554 1.657-.933 3.005-2.124 1.399-1.244 1.399-2.695 0-1.502-1.97-2.694-.155-.103-3.16-1.295-2.953-1.192-4.56-2.643-1.554-1.45-1.554-3.316 0-3.523 4.353-7.15 4.352-3.678 9.481-5.699 5.181-2.02 8.808-2.02 2.539 0 3.938.932 1.399.88 1.399 2.487v.466q-.156 1.607-5.648 6.684-2.02 1.865-3.575 4.197-1.502 2.28-1.502 4.041v.311q-1.606-1.243-1.606-3.316 0-1.865 1.606-4.56 2.331-3.937 7.409-7.46Zm.199 12.072q1.14-1.71 1.813-2.694.726-1.037 1.14-1.503.415-.466 1.865-.777 1.451-.363 2.798-.363t1.347.311q0 .26-2.227 2.383-2.228 2.125-5.182 5.648 3.524.57 4.612 2.228.414.725.103.933-.259.207-.622-.156-1.088-1.088-3.47-1.088-1.037 0-2.332.207-4.197 5.389-5.285 8.808-.363.985-.363 1.658 0 1.814 1.503 1.814 1.606 0 4.507-2.228 3.782-2.85 6.58-5.648.518-.57.674-.259.155.311-.26.674-4.455 4.663-7.512 6.89-3.005 2.177-5.544 2.177-3.471 0-3.471-3.679 0-1.761.984-4.197l-.932.881q-.415.415-.57.26-.208-.208-.208-.363 0-.156.415-.518 3.782-3.316 5.181-5.026-.984.362-1.347.052-.31-.311-.466-.83-.104-.518.518-1.243.673-.777 1.917-1.088 1.295-.363 1.917-.414.777-1.14 1.917-2.85Z" style="font-style:normal;font-variant:normal;font-weight:400;font-stretch:normal;font-family:Arizonia;fill:#3e7ee4;fill-opacity:1;stroke-width:.69391" transform="translate(32.16 36.106) scale(.93365)"/><path d="M149.556 86.693q-2.28 2.642-3.73 4.87-1.4 2.176-1.4 3.109 0 .88 1.036.88 1.089 0 4.353-2.123 3.316-2.125 6.113-4.767.26-.26.467-.207.207.051.207.259 0 .207-.207.466-6.684 6.114-10.207 7.668-1.555.622-2.228.622-2.487 0-3.42-.83-.88-.828-.88-1.813 0-1.968.777-3.005 2.539-3.575 4.041-6.062.466-.725-.207-.984-.622-.31-1.606-.31-.933 0-.985-.053-3.471 4.663-6.89 7.358-.415.362-.467 0 0-.415.57-.985 3.627-3.109 5.958-6.58-.466-.31-.466-.829 0-.57.052-1.347.103-.777.829-2.073 1.243-2.176 2.59-2.176 1.14 0 1.14 1.244 0 1.71-1.606 3.73-.777.933-1.45 1.347 1.916-.621 5.595-.621 1.813 0 2.59 1.347.104.207.104.622 0 .414-.673 1.243Z" style="font-style:normal;font-variant:normal;font-weight:400;font-stretch:normal;font-family:Arizonia;fill:#3e7ee4;fill-opacity:1;stroke-width:.69391" transform="translate(32.16 36.106) scale(.93365)"/><path d="M166.1 88.973q2.747-1.503 2.747-3.057 0-1.555-1.866-1.555-.88 0-1.865.467-2.176.984-4.197 3.42-2.487 3.004-2.487 5.595 0 .984.519 1.865.57.83 1.968.83 2.436 0 6.166-2.54 3.73-2.59 6.425-5.18.621-.622.621-.053 0 .363-.31.622-1.917 1.762-2.591 2.384-.622.57-2.539 2.124-1.917 1.502-3.108 2.124-3.68 1.917-6.27 1.917-2.539 0-4.041-1.14-1.45-1.191-1.45-3.264 0-4.404 3.937-7.564 3.938-3.213 8.238-3.213 2.901 0 3.886 1.244.414.622.414 1.347 0 .673-.466 1.502-.933 1.607-3.523 2.85-2.539 1.192-4.819 1.192-.88 0-.984-.156-.052-.155.155-.207.208-.104.57-.104 2.073 0 4.87-1.45Z" style="font-style:normal;font-variant:normal;font-weight:400;font-stretch:normal;font-family:Arizonia;fill:#3e7ee4;fill-opacity:1;stroke-width:.69391" transform="translate(32.16 36.106) scale(.93365)"/><path d="M190.753 89.076q-.57.674-1.192 1.451-.57.777-1.503 2.124-.88 1.347-.88 2.28 0 .933.777.933.829 0 2.642-.985 3.627-2.072 8.031-6.217.518-.518.674-.156v.208q0 .155-.208.362-8.911 8.394-12.953 8.394-1.191 0-2.02-.777-.778-.83-.778-1.917 0-1.088.933-3.316-2.331 2.901-5.026 4.507-2.642 1.555-4.145 1.555-1.502 0-2.59-.881-1.036-.933-1.036-2.28 0-3.834 3.42-7.513 2.59-2.746 6.424-3.885 1.71-.57 3.316-.57 1.658 0 3.16.932 1.555.881 1.97 2.125 1.554 0 2.227 1.14.104.155.104.517 0 .363-.415.83-.362.466-.932 1.14Zm-3.783-5.129q-1.088 0-2.59.674-2.643 1.14-5.026 3.937-3.782 4.456-3.782 6.529 0 1.088.88 1.088.726 0 2.384-.933 1.71-.933 4.456-3.679.155-.155 1.191-1.14 1.037-.984 1.762-1.71 2.435-2.538 2.435-3.626 0-1.14-1.71-1.14Z" style="font-style:normal;font-variant:normal;font-weight:400;font-stretch:normal;font-family:Arizonia;fill:#3e7ee4;fill-opacity:1;stroke-width:.69391" transform="translate(32.16 36.106) scale(.93365)"/><path d="M220.825 85.501c0 1.278-1.088 3.385-3.264 6.321-1.312 1.762-1.969 2.85-1.969 3.265 0 .414.208.621.622.621.45 0 1.07-.259 1.865-.777 1.97-1.347 3.112-2.285 5.081-4.185.277-.277 1.292-1.03 1.396-.892.103.138.155.241.155.31 0 .07-.38.467-1.14 1.192a60.576 60.576 0 0 1-2.538 2.28c-.898.794-2.038 1.623-3.42 2.487-1.382.829-2.522 1.243-3.42 1.243-1.865 0-1.852-1.242-1.838-2.064.01-.587.282-1.855.734-2.507.775-1.326 1.59-2.536 4.554-6.772.449-.483.592-1.903.592-2.18 0-.276-.346-.414-1.036-.414-.691 0-2.177 1.134-3.15 1.972-.971.838-1.464 1.352-2.093 2.104-.629.753-2.199 2.652-3.235 4.448-1.002 1.797-1.723 3.19-2.466 4.456-.248.601-.672.887-1.293.887-.139 0-.311-.018-.518-.052-.657-.173-.916-.484-.778-.933 2.695-4.801 5.19-8.409 5.709-9.618.518-1.209.777-2.072.777-2.59 0-.519-.207-.778-.622-.778-1.246 0-4.451 3.47-5 4.262-.605.873-2.068 2.69-3.16 4.6-1.244 1.934-2.327 3.234-3.087 4.063-.76.83-1.092 1.324-1.706 1.427a4.511 4.511 0 0 1-.84.061c-.897-.014-1.747-.547-1.872-1.164-.124-.618.918-1.092 1.712-2.128.742-.897 2.197-2.032 4.836-6.054-1.486 1.485-3.317 2.601-4.354 3.43-.345.277-.535.294-.57.052-.069-.242 0-.449.208-.622.207-.207.552-.518 1.036-.932.483-.45.825-.671.963-.81.173-.138.466-.407.88-.787.45-.414.86-.712 1.067-.954.644-.717 1.392-1.38 1.776-1.856.383-.476.946-1.081 1.206-1.536.26-.455.458-.84 1.068-1.764.61-.923 1.093-.826 1.348-.79.255.034.998.447.9 1.12-.097.674-.757 1.576-1.063 2.23a33.4 33.4 0 0 1-.727 1.483c.301-.421.43-.588 1.225-1.624 1.416-1.83 3.049-2.588 4.465-2.588.967 0 1.451.553 1.451 1.658 0 1.037-.866 3.17-2.316 5.83 1.348-1.947 2.784-3.459 3.579-4.322 1.83-1.9 3.52-2.907 5.213-2.907 1.797 0 2.816.778 3.057 2.332Z" style="font-style:normal;font-variant:normal;font-weight:400;font-stretch:normal;font-family:Arizonia;fill:#3e7ee4;fill-opacity:1;stroke-width:.69391" transform="translate(32.16 36.106) scale(.93365)"/><path d="M220.544 94.206c-.034-.035-.051-.087-.051-.156s.069-.103.207-.103c.104 0 .173.069.207.207.622 1.382 1.64 2.072 3.057 2.072 1.762 0 3.299-.863 4.611-2.59a28.759 28.759 0 0 0 2.54-3.99c.759-1.416 1.38-2.539 1.864-3.367.518-.83 1.296-1.762 2.332-2.798 1.07-1.037 2.038-1.676 2.901-1.917-.207-.104-.552-.156-1.036-.156s-1.399.363-2.746 1.088c-1.313.691-2.625 1.59-3.938 2.694a105.734 105.734 0 0 0-4.248 3.68c-1.52 1.38-2.395 2.259-2.705 2.5-.311.242-.542.176-.611-.066-.041-.101.06-.4.301-.608.867-.796 2.151-2 3.844-3.589 1.692-1.623 2.97-2.797 3.834-3.523a13.49 13.49 0 0 1 3.005-1.917c1.105-.552 1.934-.829 2.487-.829 1.382 0 2.228.242 2.539.726-.898.38-1.641 1.381-2.228 3.005a3937.64 3937.64 0 0 0-1.917 5.647c-.691 2.142-1.572 3.817-2.643 5.026.898-.345 2.28-1.14 4.145-2.383 1.9-1.278 3.575-2.66 5.026-4.145.31-.277.535-.311.674-.104v.26c0 .068-.329.43-.985 1.087a43.798 43.798 0 0 1-2.435 2.228c-.933.795-2.107 1.693-3.523 2.694-2.936 2.073-5.89 3.109-8.86 3.109-2.936 0-4.819-1.26-5.648-3.782Z" style="font-style:normal;font-variant:normal;font-weight:400;font-stretch:normal;font-family:Arizonia;fill:#3e7ee4;fill-opacity:1;stroke-width:.69391" transform="translate(32.16 36.106) scale(.93365)"/></g><g aria-label="Welcome to" style="font-size:28.1534px;line-height:1.25;letter-spacing:0;word-spacing:0;stroke-width:.703836"><path d="m49.294 24.762.17.169 2.083.394.197-.14 2.815-9.94.394-1.885.394 1.886 2.647 9.516.169.169 2.027.394.197-.14L66.72 6.067l-.169-.113-2.477.338-.14.17-4.027 13.653-.507 2.084-.422-2.084L56.22 10.01V6.068l-.14-.113-2.084.282-.14.169v3.266l-2.929 10.444-.422 2.084-.563-2.084-4.364-14.048-.169-.113-2.224.31-.14.169ZM68.467 20.595c0 3.21 2.055 4.87 5.518 4.87 2.393 0 4.251-1.013 4.927-2.815l-.085-.169-1.689-.59-.197.055c-.535.93-1.38 1.493-3.069 1.493-1.914 0-3.153-1.155-3.153-3.323v-1.463l-.14-1.042c.084.197.76 1.576 3.518 1.576 2.675 0 4.646-1.35 4.646-4.138 0-1.97-1.323-4.167-4.927-4.167-3.181 0-5.35 1.83-5.35 4.983Zm2.252-3.913v-.507c0-2.168 1.098-3.266 3.012-3.266 1.887 0 2.647 1.042 2.647 2.027 0 1.746-1.38 2.253-2.928 2.253-1.52 0-2.73-.507-2.73-.507ZM82.318 22.03c0 2.957 2.309 3.182 3.069 3.182h.225l.141-.14.31-1.774-.113-.141h-.113c-.422 0-1.266-.169-1.266-1.267V4.773l-.141-.113-1.971.282-.14.169ZM88.85 20.595c0 2.872 2.027 4.87 5.49 4.87 2.393 0 4.223-.985 4.927-2.815l-.085-.169-1.69-.59-.196.055c-.479.873-1.351 1.493-3.097 1.493-1.886 0-3.097-1.155-3.097-3.323v-3.885c0-2.168 1.21-3.322 3.097-3.322 1.408 0 2.45.591 2.956 1.549l.197.056 1.69-.591.084-.17c-.788-1.914-2.675-2.87-4.786-2.87-3.463 0-5.49 2.026-5.49 4.898ZM102.138 20.595c0 3.153 2.309 4.87 5.406 4.87 3.097 0 5.405-1.717 5.405-4.87v-4.842c0-3.153-2.308-4.87-5.405-4.87-3.097 0-5.406 1.717-5.406 4.87Zm2.252-.479v-3.913c0-2.168 1.127-3.294 3.154-3.294 1.97 0 3.153 1.126 3.153 3.294v3.913c0 2.168-1.183 3.323-3.153 3.323-2.027 0-3.154-1.155-3.154-3.323ZM116.834 24.987l.141.14h1.97l.142-.14v-11.43c.534-.141 2.252-.648 2.871-.648 1.605 0 2.731.873 2.731 3.294v8.784l.14.14h1.972l.14-.14v-9.46c0-.76-.14-1.407-.31-1.97.648-.197 2.31-.62 2.929-.62 1.604 0 2.984.845 2.984 3.266v8.784l.112.14h2l.14-.14v-9.234c0-3.21-1.83-4.87-4.307-4.87-2.703 0-3.801 1.52-4.11 2.083-.648-1.38-1.887-2.084-3.492-2.084-3.012 0-3.829 1.915-3.941 2.28l-.789-1.97-.168-.113-1.718.254-.14.169.703 2.646ZM138.512 20.595c0 3.21 2.056 4.87 5.518 4.87 2.393 0 4.252-1.013 4.927-2.815l-.084-.169-1.69-.59-.196.055c-.535.93-1.38 1.493-3.07 1.493-1.914 0-3.152-1.155-3.152-3.323v-1.463l-.141-1.042c.084.197.76 1.576 3.519 1.576 2.675 0 4.645-1.35 4.645-4.138 0-1.97-1.323-4.167-4.927-4.167-3.18 0-5.349 1.83-5.349 4.983Zm2.253-3.913v-.507c0-2.168 1.098-3.266 3.012-3.266 1.886 0 2.646 1.042 2.646 2.027 0 1.746-1.38 2.253-2.928 2.253-1.52 0-2.73-.507-2.73-.507ZM159.796 20.2c0 3.52 1.971 5.266 4.533 5.266 1.267 0 2.365-.479 3.294-1.127l.056-.197-.873-1.604-.197-.028s-1.013.872-2.083.872c-1.548 0-2.477-1.436-2.477-3.35v-6.785h4.082l.197-.14.535-1.746-.141-.141h-4.673V8.095l-.141-.113-1.605.226-.14.169-.254 2.843h-1.633l-.14.14v1.746l.14.141h1.52ZM169.622 20.595c0 3.153 2.308 4.87 5.405 4.87 3.097 0 5.406-1.717 5.406-4.87v-4.842c0-3.153-2.309-4.87-5.406-4.87-3.097 0-5.405 1.717-5.405 4.87Zm2.252-.479v-3.913c0-2.168 1.126-3.294 3.153-3.294 1.971 0 3.153 1.126 3.153 3.294v3.913c0 2.168-1.182 3.323-3.153 3.323-2.027 0-3.153-1.155-3.153-3.323Z" style="font-family:Anivers;-inkscape-font-specification:Anivers" transform="translate(57.454 -.441) scale(.4783)"/></g></svg>