<svg xmlns="http://www.w3.org/2000/svg" viewBox="-80 -45 160 90">
   <g>
      <g transform="rotate(-50)">
         <path style="fill:#f75a87;stroke-width:0.40336156"
            d="m 81.921875,-23.466797 c 0,0 -7.782251,9.282346 -8.759766,13.126953 -0.977515,3.8446067 1.418945,9.43944282 1.226563,12.0800784 -0.192382,2.6406356 -1.521925,2.1037025 -1.738281,6.1727431 -0.216356,4.0690405 4.299241,12.1567315 4.496093,16.3682725 0.196852,4.211541 -4.060605,7.608194 -4.095444,12.782577 -0.03484,5.174383 2.999061,9.842614 3.070054,12.563126 0.07099,2.720512 -1.760863,5.812897 -2.320313,7.896485 -0.55945,2.083588 -0.717309,4.860698 -0.1875,7.763671 0.529809,2.902973 2.312783,6.435168 2.88086,7.509766 0.568077,1.074598 3.437557,4.662839 4.443359,5.660156 1.005802,0.997317 1.532321,2.836353 1.796875,4.449219 0.264554,1.612866 -0.403721,4.605654 -0.07617,5.166016 0.327551,0.560362 1.652676,0.656384 1.933594,0.0293 0.280918,-0.627084 0.08047,-0.49054 0.195312,-1.68164 0.114839,-1.1911 0.210992,-4.285476 0.419922,-5.470703 0.20893,-1.185227 0.685176,-2.105083 1.556641,-4.914063 0.871465,-2.80898 0.545337,-6.116702 0.455078,-7.90625 -0.09026,-1.789548 -1.750172,-5.704397 -2.867188,-7.939453 -1.117016,-2.235056 1.493577,-7.040093 1.47461,-10.134765 -0.01897,-3.094672 -3.490467,-10.143246 -3.460938,-12.869141 0.02953,-2.725895 4.585843,-8.018719 4.484375,-12.478516 -0.101468,-4.459797 -5.055542,-12.650297 -4.990234,-16.4921872 0.06531,-3.8418905 1.845475,-3.4881525 1.736328,-6.5264757 -0.109147,-3.0383231 -4.691477,-8.3887817 -4.865234,-12.2215711 -0.173757,-3.832789 4.291015,-12.197266 4.291015,-12.197266 z"
            transform="translate(-80,-45)" id="path826">
            <animate attributeName="d" dur="1s" repeatCount="indefinite"
               values="m 81.921875,-23.466797 c 0,0 -7.782251,9.282346 -8.759766,13.126953 -0.977515,3.8446067 1.418945,9.43944282 1.226563,12.0800784 -0.192382,2.6406356 -1.521925,2.1037025 -1.738281,6.1727431 -0.216356,4.0690405 4.299241,12.1567315 4.496093,16.3682725 0.196852,4.211541 -4.060605,7.608194 -4.095444,12.782577 -0.03484,5.174383 2.999061,9.842614 3.070054,12.563126 0.07099,2.720512 -1.760863,5.812897 -2.320313,7.896485 -0.55945,2.083588 -0.717309,4.860698 -0.1875,7.763671 0.529809,2.902973 2.312783,6.435168 2.88086,7.509766 0.568077,1.074598 3.437557,4.662839 4.443359,5.660156 1.005802,0.997317 1.532321,2.836353 1.796875,4.449219 0.264554,1.612866 -0.403721,4.605654 -0.07617,5.166016 0.327551,0.560362 1.652676,0.656384 1.933594,0.0293 0.280918,-0.627084 0.08047,-0.49054 0.195312,-1.68164 0.114839,-1.1911 0.210992,-4.285476 0.419922,-5.470703 0.20893,-1.185227 0.685176,-2.105083 1.556641,-4.914063 0.871465,-2.80898 0.545337,-6.116702 0.455078,-7.90625 -0.09026,-1.789548 -1.750172,-5.704397 -2.867188,-7.939453 -1.117016,-2.235056 1.493577,-7.040093 1.47461,-10.134765 -0.01897,-3.094672 -3.490467,-10.143246 -3.460938,-12.869141 0.02953,-2.725895 4.585843,-8.018719 4.484375,-12.478516 -0.101468,-4.459797 -5.055542,-12.650297 -4.990234,-16.4921872 0.06531,-3.8418905 1.845475,-3.4881525 1.736328,-6.5264757 -0.109147,-3.0383231 -4.691477,-8.3887817 -4.865234,-12.2215711 -0.173757,-3.832789 4.291015,-12.197266 4.291015,-12.197266 z;m 66.421875,-22.633464 c 0,0 5.32886,8.171236 6.740234,12.29362 1.411374,4.1223845 -0.938078,7.1609876 -1.13046,9.80162321 -0.192382,2.64063559 4.684902,4.38215769 4.468546,8.45119829 -0.216356,4.0690405 -6.857333,12.1567315 -6.660481,16.3682725 0.196852,4.211541 7.174536,9.997083 7.139697,12.782577 -0.03484,2.785494 -5.48622,8.506968 -5.33666,12.484559 0.14956,3.97759 2.71748,5.891464 2.15803,7.975052 -0.55945,2.083588 -0.717309,4.860698 -0.1875,7.763671 0.529809,2.902973 2.312783,6.435168 2.88086,7.509766 0.568077,1.074598 3.437557,4.662839 4.443359,5.660156 1.005802,0.997317 1.532321,2.836353 1.796875,4.449219 0.264554,1.612866 -0.403721,4.605654 -0.07617,5.166016 0.327551,0.560362 1.652676,0.656384 1.933594,0.0293 0.280918,-0.627084 0.08047,-0.49054 0.195312,-1.68164 0.114839,-1.1911 0.210992,-4.285476 0.419922,-5.470703 0.20893,-1.185227 0.685176,-2.105083 1.556641,-4.914063 0.871465,-2.80898 0.545337,-6.116702 0.455078,-7.90625 C 87.128492,66.339362 85.46858,62.424513 84.351564,60.189457 83.234548,57.954401 79.841476,53.335772 79.720927,49.943581 79.600378,46.55139 86.041856,42.300335 85.62694,37.185551 85.212025,32.070767 79.644309,29.166832 79.542841,24.707035 79.441373,20.247238 85.643873,12.056738 85.709181,8.2148478 85.774491,4.3729573 81.347829,2.4482401 81.238682,-0.59008309 81.129535,-3.6284062 80.848672,-7.2004096 78.730471,-10.533199 76.61227,-13.865988 68.077042,-22.786021 68.077042,-22.786021 Z;m 81.921875,-23.466797 c 0,0 -7.782251,9.282346 -8.759766,13.126953 -0.977515,3.8446067 1.418945,9.43944282 1.226563,12.0800784 -0.192382,2.6406356 -1.521925,2.1037025 -1.738281,6.1727431 -0.216356,4.0690405 4.299241,12.1567315 4.496093,16.3682725 0.196852,4.211541 -4.060605,7.608194 -4.095444,12.782577 -0.03484,5.174383 2.999061,9.842614 3.070054,12.563126 0.07099,2.720512 -1.760863,5.812897 -2.320313,7.896485 -0.55945,2.083588 -0.717309,4.860698 -0.1875,7.763671 0.529809,2.902973 2.312783,6.435168 2.88086,7.509766 0.568077,1.074598 3.437557,4.662839 4.443359,5.660156 1.005802,0.997317 1.532321,2.836353 1.796875,4.449219 0.264554,1.612866 -0.403721,4.605654 -0.07617,5.166016 0.327551,0.560362 1.652676,0.656384 1.933594,0.0293 0.280918,-0.627084 0.08047,-0.49054 0.195312,-1.68164 0.114839,-1.1911 0.210992,-4.285476 0.419922,-5.470703 0.20893,-1.185227 0.685176,-2.105083 1.556641,-4.914063 0.871465,-2.80898 0.545337,-6.116702 0.455078,-7.90625 -0.09026,-1.789548 -1.750172,-5.704397 -2.867188,-7.939453 -1.117016,-2.235056 1.493577,-7.040093 1.47461,-10.134765 -0.01897,-3.094672 -3.490467,-10.143246 -3.460938,-12.869141 0.02953,-2.725895 4.585843,-8.018719 4.484375,-12.478516 -0.101468,-4.459797 -5.055542,-12.650297 -4.990234,-16.4921872 0.06531,-3.8418905 1.845475,-3.4881525 1.736328,-6.5264757 -0.109147,-3.0383231 -4.691477,-8.3887817 -4.865234,-12.2215711 -0.173757,-3.832789 4.291015,-12.197266 4.291015,-12.197266 z" />
         </path>
         <path id="path830"
            d="m 2.094592,28.411256 c -0.3162868,0.163933 -0.7188403,0.571647 -0.8481161,1.042523 -0.1899921,0.692034 -0.1015811,1.144704 0.652736,1.413117 0.7543205,0.268392 1.3212184,-0.346103 1.4578882,-0.676401 0.1366623,-0.330301 0.232773,-0.80107 0.2052416,-1.135623 -0.027532,-0.334554 -0.3044896,-0.675959 -0.5412621,-0.758229 -0.2881613,-0.100141 -0.6101955,-0.04932 -0.9264876,0.114613 0,0 0,0 0,0"
            style="fill:#f0f0f0;fill-opacity:1;stroke:#000000;stroke-width:0.3px;stroke-linecap:butt;stroke-linejoin:miter;stroke-opacity:1" />
         <path id="path832"
            d="m 5.259785,27.766155 c 0.3860279,-0.01272 0.7752485,0.37271 0.8069826,0.717122 0.031734,0.344412 -0.069194,1.299953 -0.4682808,1.596095 -0.399088,0.296146 -1.0007644,0.535127 -1.4006457,0.300388 -0.3998927,-0.234743 -0.4815153,-0.82 -0.427219,-1.1227 0.054296,-0.302699 0.3373124,-0.880986 0.5777433,-1.135844 0.2404294,-0.254854 0.5253917,-0.342345 0.9114196,-0.355061 0,0 0,0 0,0"
            style="fill:#efefef;fill-opacity:1;stroke:#000000;stroke-width:0.3px;stroke-linecap:butt;stroke-linejoin:miter;stroke-opacity:1" />
         <path id="path834"
            d="m 2.9304396,28.986381 c 0,0 -0.291188,-0.06558 -0.4381839,0.225053 -0.1469998,0.290632 -0.1143231,0.40518 -0.049187,0.501542 0.065131,0.09636 0.3017941,0.06453 0.3017941,0.06453 0,0 0.1514615,-0.04914 0.2370227,-0.245956 0.085554,-0.19682 0.08992,-0.261469 0.062359,-0.389365 -0.027563,-0.127893 -0.113805,-0.155809 -0.113805,-0.155809 0,0 1e-7,5e-6 1e-7,5e-6"
            style="fill:#000000;fill-opacity:1;stroke:#000000;stroke-width:0.10672273px;stroke-linecap:butt;stroke-linejoin:miter;stroke-opacity:1" />
         <path style="fill:#000000;fill-opacity:1;stroke:#000000;stroke-width:0.10672273px;stroke-linecap:butt;stroke-linejoin:miter;stroke-opacity:1"
            d="m 5.3161723,28.644834 c 0,0 -0.2911879,-0.06558 -0.4381839,0.225054 -0.1469997,0.290632 -0.1143231,0.405179 -0.049187,0.501541 0.065131,0.09637 0.301794,0.06454 0.301794,0.06454 0,0 0.1514615,-0.04914 0.2370227,-0.245957 0.085554,-0.196819 0.089921,-0.261468 0.062359,-0.389365 -0.027563,-0.127892 -0.113805,-0.155809 -0.113805,-0.155809 0,0 2e-7,-4e-6 2e-7,-4e-6"
            id="path836" />
      </g>
      <animateTransform attributeName="transform" repeatCount="indefinite" dur="2s" type="translate" from="-114.9 -96.45" to="114.9 96.45" />
   </g>
</svg>