<svg xmlns="http://www.w3.org/2000/svg" width="100" height="100"><path d="M97.793 25.95a12.57 12.57 0 0 0-8.85-8.85c-7.76-2.117-38.994-2.117-38.994-2.117s-31.233.064-38.993 2.18a12.57 12.57 0 0 0-8.85 8.851C-.242 39.803-1.152 60.813 2.17 74.05a12.57 12.57 0 0 0 8.85 8.85c7.76 2.117 38.994 2.117 38.994 2.117s31.233 0 38.993-2.116a12.57 12.57 0 0 0 8.85-8.85c2.476-13.809 3.239-34.806-.064-48.101z" style="fill:red;stroke-width:.64133698"/><path d="M40.009 65.007 65.919 50l-25.91-15.007Z" style="fill:#fff;stroke-width:.64133698"/></svg>