<svg version="1.1" viewBox="0 0 170.127 317.5" height="1200" width="643" id="blue-chair_vue_svg__svg317"
    xmlns:xlink="http://www.w3.org/1999/xlink"
    xmlns="http://www.w3.org/2000/svg">
    <defs id="blue-chair_vue_svg__defs293">
        <linearGradient id="blue-chair_vue_svg__linearGradient6">
            <stop stop-color="#c4c4c4" offset="0" id="blue-chair_vue_svg__stop2"/>
            <stop stop-color="#595959" offset="1" id="blue-chair_vue_svg__stop4"/>
        </linearGradient>
        <linearGradient id="blue-chair_vue_svg__linearGradient12">
            <stop stop-color="#7a7a7a" offset="0" id="blue-chair_vue_svg__stop8"/>
            <stop stop-opacity="0" stop-color="#7a7a7a" offset="1" id="blue-chair_vue_svg__stop10"/>
        </linearGradient>
        <linearGradient id="blue-chair_vue_svg__linearGradient20">
            <stop stop-color="#101010" offset="0" id="blue-chair_vue_svg__stop14"/>
            <stop stop-color="#989898" offset=".5" id="blue-chair_vue_svg__stop16"/>
            <stop stop-color="#221f1f" offset="1" id="blue-chair_vue_svg__stop18"/>
        </linearGradient>
        <linearGradient id="blue-chair_vue_svg__linearGradient26">
            <stop stop-color="#858585" offset="0" id="blue-chair_vue_svg__stop22"/>
            <stop stop-color="#282828" offset="1" id="blue-chair_vue_svg__stop24"/>
        </linearGradient>
        <linearGradient id="blue-chair_vue_svg__linearGradient32">
            <stop stop-color="#3e3e3e" offset="0" id="blue-chair_vue_svg__stop28"/>
            <stop offset="1" id="blue-chair_vue_svg__stop30"/>
        </linearGradient>
        <linearGradient id="blue-chair_vue_svg__linearGradient38">
            <stop stop-color="#dadada" offset="0" id="blue-chair_vue_svg__stop34"/>
            <stop stop-color="#636363" offset="1" id="blue-chair_vue_svg__stop36"/>
        </linearGradient>
        <linearGradient id="blue-chair_vue_svg__linearGradient44">
            <stop stop-color="#888" offset="0" id="blue-chair_vue_svg__stop40"/>
            <stop stop-opacity="0" stop-color="#888" offset="1" id="blue-chair_vue_svg__stop42"/>
        </linearGradient>
        <linearGradient id="blue-chair_vue_svg__linearGradient52">
            <stop stop-color="#121212" offset="0" id="blue-chair_vue_svg__stop46"/>
            <stop stop-color="#a9a9a9" offset=".5" id="blue-chair_vue_svg__stop48"/>
            <stop stop-color="#262222" offset="1" id="blue-chair_vue_svg__stop50"/>
        </linearGradient>
        <linearGradient id="blue-chair_vue_svg__linearGradient58">
            <stop stop-color="#949494" offset="0" id="blue-chair_vue_svg__stop54"/>
            <stop stop-color="#2c2c2c" offset="1" id="blue-chair_vue_svg__stop56"/>
        </linearGradient>
        <linearGradient id="blue-chair_vue_svg__linearGradient64">
            <stop stop-color="#454545" offset="0" id="blue-chair_vue_svg__stop60"/>
            <stop stop-color="#0a0a0a" offset="1" id="blue-chair_vue_svg__stop62"/>
        </linearGradient>
        <linearGradient id="blue-chair_vue_svg__id-8e">
            <stop stop-color="#4d4d4d" offset="0" id="blue-chair_vue_svg__stop66"/>
            <stop stop-color="#0b0b0b" offset="1" id="blue-chair_vue_svg__stop68"/>
        </linearGradient>
        <linearGradient xlink:href="#blue-chair_vue_svg__id-4a" gradientUnits="userSpaceOnUse" gradientTransform="rotate(4.347 333.23 -17276.174) scale(1.1657)" x1="1489.296" y1="667.799" x2="1450.755" y2="715.266" id="blue-chair_vue_svg__linearGradient79"/>
        <linearGradient id="blue-chair_vue_svg__id-4a">
            <stop stop-color="#f2f2f2" offset="0" id="blue-chair_vue_svg__stop81"/>
            <stop stop-color="#6e6e6e" offset="1" id="blue-chair_vue_svg__stop83"/>
        </linearGradient>
        <linearGradient xlink:href="#blue-chair_vue_svg__id-4a" gradientUnits="userSpaceOnUse" gradientTransform="rotate(4.347 348.791 -17317.195) scale(1.1657)" x1="1458.281" y1="678.059" x2="1464.223" y2="717.073" id="blue-chair_vue_svg__linearGradient86"/>
        <linearGradient xlink:href="#blue-chair_vue_svg__id-5b" gradientUnits="userSpaceOnUse" gradientTransform="translate(-1374.249 36.063) scale(1.1657)" x1="1455.051" y1="711.571" x2="1466.923" y2="711.571" id="blue-chair_vue_svg__linearGradient88"/>
        <linearGradient id="blue-chair_vue_svg__id-5b">
            <stop stop-color="#979797" offset="0" id="blue-chair_vue_svg__stop90"/>
            <stop stop-opacity="0" stop-color="#979797" offset="1" id="blue-chair_vue_svg__stop92"/>
        </linearGradient>
        <linearGradient xlink:href="#blue-chair_vue_svg__id-4a" gradientUnits="userSpaceOnUse" gradientTransform="rotate(4.347 348.791 -17317.195) scale(1.1657)" x1="1487.814" y1="663.16" x2="1444.506" y2="682.603" id="blue-chair_vue_svg__linearGradient95"/>
        <linearGradient xlink:href="#blue-chair_vue_svg__id-6c" gradientUnits="userSpaceOnUse" x1="1378.113" y1="883.676" x2="1369.925" y2="910.115" id="blue-chair_vue_svg__linearGradient97"/>
        <linearGradient id="blue-chair_vue_svg__id-6c">
            <stop stop-color="#141414" offset="0" id="blue-chair_vue_svg__stop99"/>
            <stop stop-color="#bcbcbc" offset=".5" id="blue-chair_vue_svg__stop101"/>
            <stop stop-color="#2a2626" offset="1" id="blue-chair_vue_svg__stop103"/>
        </linearGradient>
        <linearGradient xlink:href="#blue-chair_vue_svg__id-7d" gradientUnits="userSpaceOnUse" gradientTransform="matrix(.90667 .00057 .0005 .9188 127.091 71.581)" x1="1423.349" y1="908.878" x2="1351.975" y2="893.443" id="blue-chair_vue_svg__linearGradient106"/>
        <linearGradient id="blue-chair_vue_svg__id-7d">
            <stop stop-color="#a4a4a4" offset="0" id="blue-chair_vue_svg__stop108"/>
            <stop stop-color="#313131" offset="1" id="blue-chair_vue_svg__stop110"/>
        </linearGradient>
        <linearGradient xlink:href="#blue-chair_vue_svg__id-4a" gradientUnits="userSpaceOnUse" gradientTransform="rotate(4.347 267.529 -17029.38) scale(1.1657)" x1="1485.288" y1="663.481" x2="1462.11" y2="706.557" id="blue-chair_vue_svg__linearGradient113"/>
        <linearGradient xlink:href="#blue-chair_vue_svg__id-4a" gradientUnits="userSpaceOnUse" gradientTransform="rotate(4.347 283.113 -17070.824) scale(1.1657)" x1="1457.968" y1="674.398" x2="1464.89" y2="724.738" id="blue-chair_vue_svg__linearGradient115"/>
        <linearGradient xlink:href="#blue-chair_vue_svg__id-4a" gradientUnits="userSpaceOnUse" gradientTransform="rotate(4.347 283.113 -17070.824) scale(1.1657)" x1="1487.814" y1="663.16" x2="1444.506" y2="682.603" id="blue-chair_vue_svg__linearGradient117"/>
        <linearGradient xlink:href="#blue-chair_vue_svg__id-6c" gradientUnits="userSpaceOnUse" gradientTransform="matrix(1 -.07672 0 1 14.453 135.08)" x1="1480.356" y1="713.551" x2="1480.251" y2="699.894" id="blue-chair_vue_svg__linearGradient119"/>
        <linearGradient xlink:href="#blue-chair_vue_svg__id-6c" gradientUnits="userSpaceOnUse" gradientTransform="matrix(1 -.07672 0 1 14.453 135.08)" x1="1476.047" y1="720.767" x2="1475.406" y2="691.326" id="blue-chair_vue_svg__linearGradient121"/>
        <linearGradient xlink:href="#blue-chair_vue_svg__id-4a" gradientUnits="userSpaceOnUse" gradientTransform="matrix(1 -.07672 0 1 61.1 103.92)" x1="1426.377" y1="742.807" x2="1436.749" y2="727.41" id="blue-chair_vue_svg__linearGradient123"/>
        <linearGradient id="blue-chair_vue_svg__id-9f">
            <stop offset="0" stop-color="#a8a8a8" id="blue-chair_vue_svg__stop249"/>
            <stop offset="1" stop-color="#828282" id="blue-chair_vue_svg__stop251"/>
        </linearGradient>
        <linearGradient id="blue-chair_vue_svg__id-12i">
            <stop stop-color="#6d62b4" offset="0" id="blue-chair_vue_svg__stop260"/>
            <stop stop-color="#473e81" offset="1" id="blue-chair_vue_svg__stop262"/>
        </linearGradient>
        <linearGradient id="blue-chair_vue_svg__id-11h">
            <stop stop-color="#787e94" offset="0" id="blue-chair_vue_svg__stop265"/>
            <stop stop-color="#667097" offset="1" id="blue-chair_vue_svg__stop267"/>
        </linearGradient>
        <linearGradient id="blue-chair_vue_svg__id-10g">
            <stop stop-color="#5d6495" offset="0" id="blue-chair_vue_svg__stop270"/>
            <stop stop-color="#767999" offset=".209" id="blue-chair_vue_svg__stop272"/>
            <stop stop-color="#5d6495" offset="1" id="blue-chair_vue_svg__stop274"/>
        </linearGradient>
        <linearGradient gradientUnits="userSpaceOnUse" y2="77.31" x2="149.29" y1="65.283" x1="81.859" xlink:href="#blue-chair_vue_svg__id-10g" id="blue-chair_vue_svg__linearGradient277"/>
        <linearGradient gradientUnits="userSpaceOnUse" y2="88.118" x2="109.013" y1="103.62" x1="68.018" xlink:href="#blue-chair_vue_svg__id-11h" id="blue-chair_vue_svg__linearGradient279"/>
        <linearGradient gradientUnits="userSpaceOnUse" y2="105.152" x2="108.35" y1="81.816" x1="111.992" xlink:href="#blue-chair_vue_svg__id-12i" id="blue-chair_vue_svg__linearGradient281"/>
        <linearGradient gradientUnits="userSpaceOnUse" y2="77.31" x2="149.29" y1="65.283" x1="81.859" id="blue-chair_vue_svg__id-14k" xlink:href="#blue-chair_vue_svg__id-10g"/>
        <linearGradient gradientUnits="userSpaceOnUse" y2="88.118" x2="109.013" y1="103.62" x1="68.018" id="blue-chair_vue_svg__id-15l" xlink:href="#blue-chair_vue_svg__id-11h"/>
        <linearGradient gradientUnits="userSpaceOnUse" y2="105.152" x2="108.35" y1="81.816" x1="111.992" id="blue-chair_vue_svg__id-13j" xlink:href="#blue-chair_vue_svg__id-12i"/>
        <filter style="color-interpolation-filters:sRGB" x="-.019" width="1.039" y="-.264" height="1.528" id="blue-chair_vue_svg__filter127">
            <feGaussianBlur stdDeviation="2.807" id="blue-chair_vue_svg__feGaussianBlur125"/>
        </filter>
        <filter style="color-interpolation-filters:sRGB" id="blue-chair_vue_svg__filter131">
            <feGaussianBlur stdDeviation="1.443" id="blue-chair_vue_svg__feGaussianBlur129"/>
        </filter>
        <filter style="color-interpolation-filters:sRGB" id="blue-chair_vue_svg__filter135">
            <feGaussianBlur stdDeviation="1.381" id="blue-chair_vue_svg__feGaussianBlur133"/>
        </filter>
        <filter style="color-interpolation-filters:sRGB" id="blue-chair_vue_svg__filter139">
            <feGaussianBlur stdDeviation="1.332" id="blue-chair_vue_svg__feGaussianBlur137"/>
        </filter>
        <filter style="color-interpolation-filters:sRGB" id="blue-chair_vue_svg__filter143">
            <feGaussianBlur stdDeviation="1.438" id="blue-chair_vue_svg__feGaussianBlur141"/>
        </filter>
        <filter style="color-interpolation-filters:sRGB" id="blue-chair_vue_svg__filter147">
            <feGaussianBlur stdDeviation="1.256" id="blue-chair_vue_svg__feGaussianBlur145"/>
        </filter>
        <filter style="color-interpolation-filters:sRGB" id="blue-chair_vue_svg__filter151">
            <feGaussianBlur stdDeviation=".709" id="blue-chair_vue_svg__feGaussianBlur149"/>
        </filter>
        <filter style="color-interpolation-filters:sRGB" id="blue-chair_vue_svg__filter155">
            <feGaussianBlur stdDeviation=".709" id="blue-chair_vue_svg__feGaussianBlur153"/>
        </filter>
        <filter style="color-interpolation-filters:sRGB" id="blue-chair_vue_svg__filter159">
            <feGaussianBlur stdDeviation=".709" id="blue-chair_vue_svg__feGaussianBlur157"/>
        </filter>
        <filter style="color-interpolation-filters:sRGB" id="blue-chair_vue_svg__filter163">
            <feGaussianBlur stdDeviation=".709" id="blue-chair_vue_svg__feGaussianBlur161"/>
        </filter>
        <filter style="color-interpolation-filters:sRGB" id="blue-chair_vue_svg__filter167">
            <feGaussianBlur stdDeviation=".709" id="blue-chair_vue_svg__feGaussianBlur165"/>
        </filter>
        <filter style="color-interpolation-filters:sRGB" id="blue-chair_vue_svg__filter171">
            <feGaussianBlur stdDeviation=".709" id="blue-chair_vue_svg__feGaussianBlur169"/>
        </filter>
        <filter style="color-interpolation-filters:sRGB" id="blue-chair_vue_svg__filter175">
            <feGaussianBlur stdDeviation=".709" id="blue-chair_vue_svg__feGaussianBlur173"/>
        </filter>
        <filter style="color-interpolation-filters:sRGB" id="blue-chair_vue_svg__filter179">
            <feGaussianBlur stdDeviation=".709" id="blue-chair_vue_svg__feGaussianBlur177"/>
        </filter>
        <filter style="color-interpolation-filters:sRGB" id="blue-chair_vue_svg__filter183">
            <feGaussianBlur stdDeviation=".709" id="blue-chair_vue_svg__feGaussianBlur181"/>
        </filter>
        <filter style="color-interpolation-filters:sRGB" id="blue-chair_vue_svg__filter187">
            <feGaussianBlur stdDeviation=".718" id="blue-chair_vue_svg__feGaussianBlur185"/>
        </filter>
        <filter style="color-interpolation-filters:sRGB" id="blue-chair_vue_svg__filter191">
            <feGaussianBlur stdDeviation=".718" id="blue-chair_vue_svg__feGaussianBlur189"/>
        </filter>
        <filter style="color-interpolation-filters:sRGB" id="blue-chair_vue_svg__filter195">
            <feGaussianBlur stdDeviation=".718" id="blue-chair_vue_svg__feGaussianBlur193"/>
        </filter>
        <filter style="color-interpolation-filters:sRGB" id="blue-chair_vue_svg__filter199">
            <feGaussianBlur stdDeviation=".718" id="blue-chair_vue_svg__feGaussianBlur197"/>
        </filter>
        <filter style="color-interpolation-filters:sRGB" id="blue-chair_vue_svg__filter203">
            <feGaussianBlur stdDeviation=".718" id="blue-chair_vue_svg__feGaussianBlur201"/>
        </filter>
        <filter style="color-interpolation-filters:sRGB" id="blue-chair_vue_svg__filter207">
            <feGaussianBlur stdDeviation=".718" id="blue-chair_vue_svg__feGaussianBlur205"/>
        </filter>
        <filter style="color-interpolation-filters:sRGB" id="blue-chair_vue_svg__filter211">
            <feGaussianBlur stdDeviation=".806" id="blue-chair_vue_svg__feGaussianBlur209"/>
        </filter>
        <filter style="color-interpolation-filters:sRGB" x="-.049" width="1.098" y="-.137" height="1.273" id="blue-chair_vue_svg__filter215">
            <feGaussianBlur stdDeviation=".625" id="blue-chair_vue_svg__feGaussianBlur213"/>
        </filter>
        <filter style="color-interpolation-filters:sRGB" id="blue-chair_vue_svg__filter219">
            <feGaussianBlur stdDeviation="1.988" id="blue-chair_vue_svg__feGaussianBlur217"/>
        </filter>
        <filter style="color-interpolation-filters:sRGB" id="blue-chair_vue_svg__filter223">
            <feGaussianBlur stdDeviation="2.056" id="blue-chair_vue_svg__feGaussianBlur221"/>
        </filter>
        <filter style="color-interpolation-filters:sRGB" id="blue-chair_vue_svg__filter227">
            <feGaussianBlur stdDeviation=".85" id="blue-chair_vue_svg__feGaussianBlur225"/>
        </filter>
        <filter style="color-interpolation-filters:sRGB" id="blue-chair_vue_svg__filter231">
            <feGaussianBlur stdDeviation=".85" id="blue-chair_vue_svg__feGaussianBlur229"/>
        </filter>
        <filter style="color-interpolation-filters:sRGB" id="blue-chair_vue_svg__filter235">
            <feGaussianBlur stdDeviation=".85" id="blue-chair_vue_svg__feGaussianBlur233"/>
        </filter>
        <clipPath clipPathUnits="userSpaceOnUse" id="blue-chair_vue_svg__clipPath73">
            <circle style="fill:#473e81;stroke:#1a191e;stroke-width:.86208999;stroke-linecap:round" r="87.569" cy="-262.031" cx="-615.619" id="blue-chair_vue_svg__circle71"/>
        </clipPath>
        <clipPath clipPathUnits="userSpaceOnUse" id="blue-chair_vue_svg__clipPath77">
            <circle r="87.569" cy="-262.031" cx="-615.619" style="fill:#473e81;stroke:#1a191e;stroke-width:.86208999;stroke-linecap:round" id="blue-chair_vue_svg__circle75"/>
        </clipPath>
        <clipPath clipPathUnits="userSpaceOnUse" id="blue-chair_vue_svg__clipPath247">
            <circle r="87.569" cy="-262.031" cx="-615.619" style="fill:#473e81;stroke:#1a191e;stroke-width:.86208999;stroke-linecap:round" id="blue-chair_vue_svg__circle245"/>
        </clipPath>
        <clipPath clipPathUnits="userSpaceOnUse" id="blue-chair_vue_svg__clipPath258">
            <circle cx="-615.619" cy="-262.031" r="87.569" style="fill:#473e81;stroke:#1a191e;stroke-width:.86209005;stroke-linecap:round" id="blue-chair_vue_svg__circle256"/>
        </clipPath>
        <clipPath clipPathUnits="userSpaceOnUse" id="blue-chair_vue_svg__clipPath285">
            <circle style="fill:#473e81;stroke:#1a191e;stroke-width:.86209005;stroke-linecap:round" r="87.569" cy="-262.031" cx="-615.619" id="blue-chair_vue_svg__circle283"/>
        </clipPath>
        <clipPath clipPathUnits="userSpaceOnUse" id="blue-chair_vue_svg__id-16m">
            <circle style="fill:#473e81;stroke:#1a191e;stroke-width:.86209005;stroke-linecap:round" r="87.569" cy="-262.031" cx="-615.619" id="blue-chair_vue_svg__circle290"/>
        </clipPath>
        <radialGradient xlink:href="#blue-chair_vue_svg__id-8e" gradientUnits="userSpaceOnUse" gradientTransform="matrix(.36227 -.00112 -.00787 .49499 897.139 433.952)" cx="1394.473" cy="857.335" fx="1394.473" fy="857.335" r="23.997" id="blue-chair_vue_svg__radialGradient237"/>
        <radialGradient xlink:href="#blue-chair_vue_svg__id-8e" gradientUnits="userSpaceOnUse" gradientTransform="matrix(.36227 -.00112 -.00787 .49499 897.139 433.952)" cx="1394.473" cy="857.335" fx="1394.473" fy="857.335" r="23.997" id="blue-chair_vue_svg__radialGradient239"/>
        <radialGradient xlink:href="#blue-chair_vue_svg__id-8e" gradientUnits="userSpaceOnUse" gradientTransform="matrix(.36227 -.00112 -.00787 .49499 897.139 433.952)" cx="1394.473" cy="857.335" fx="1394.473" fy="857.335" r="23.997" id="blue-chair_vue_svg__radialGradient241"/>
        <radialGradient xlink:href="#blue-chair_vue_svg__id-8e" gradientUnits="userSpaceOnUse" gradientTransform="matrix(.36227 -.00112 -.00787 .49499 897.139 433.952)" cx="1394.473" cy="857.335" fx="1394.473" fy="857.335" r="23.997" id="blue-chair_vue_svg__radialGradient243"/>
        <radialGradient xlink:href="#blue-chair_vue_svg__id-9f" cx="108.355" cy="65.195" fx="108.355" fy="65.195" r="17.904" gradientTransform="matrix(1 0 0 .80798 0 13.417)" gradientUnits="userSpaceOnUse" id="blue-chair_vue_svg__radialGradient254"/>
    </defs>
    <g font-weight="400" transform="matrix(-1 0 0 1 -52.38 244.468)" style="font-weight:400;stroke:#000;stroke-width:.80847001" class="blue-chair_vue_svg__chair" id="blue-chair_vue_svg__g309">
        <path transform="translate(-281.3 -171.936) scale(1.43613)" style="overflow:visible;fill:url(#blue-chair_vue_svg__id-13j);stroke:#534998;stroke-opacity:1" d="M117.715 29.582c1.832-.003 4.203.002 6.597.014 4.79.023 9.694.073 10.57.119 1.791.094 10.6.663 12.84.99 2.226.325 6.473 2.076 8.467 4.627 2.005 2.564 2.996 6.452 2.76 12.293-.236 5.849-1.37 17.38-1.748 21.207-.374 3.791-4.064 25.086-4.912 29.28-.425 2.102-1.073 5.274-2.016 8.378-.942 3.105-2.184 6.142-3.765 7.955-2.535 2.908-6.23 3.928-9.488 4.895l-.032-.057-.226.137v.002a45.15 45.15 0 0 0-2.2.703c-1.754.632-5.74 1.65-9.464 2.506-1.33.306-2.482.543-3.635.783a.86.86 0 0 1-.01-.049l-.246.098.002.006c-.374.077-.863.192-1.2.258-1.426.28-2.5.453-2.837.453-1.515 0-2.967.048-7.64-.377-4.664-.424-23.146-2.883-32.081-3.828-4.454-.471-9.585-1.566-13.898-2.61-4.314-1.043-7.8-2.034-9-2.304-.106-.024-.452-.182-.582-.219l-.088-.064-.014.025c-1.309-.38-3.44-1.192-5.668-2.13-1.099-.464-1.42-.61-2.299-.991v-.03l-.074-.001a283.876 283.876 0 0 0-2.85-1.227c-.805-.322-1.395-.88-1.554-1.838-.038-.225-.063-.818-.067-1.574-.003-.756.012-1.685.047-2.621.036-.936.09-1.878.166-2.662.075-.784.177-1.418.281-1.694.397-1.047 1.385-1.938 1.631-2.154a9.728 9.728 0 0 0 3.778 2.533c.734.274 2.467.755 4.775 1.348a407.27 407.27 0 0 0 8.18 1.998c5.99 1.403 12.452 2.806 15.802 3.342 3.346.535 11.096 1.605 18.58 2.54 7.485.936 14.686 1.74 16.989 1.74 4.575 0 12.592-1.606 18.361-4.155 2.925-1.293 5.46-4.631 7.281-7.64 1.557-2.573 2.232-4.246 2.498-4.872l.422-.855s.571-.66 1.49-2.55c.92-1.888 1.938-4.056 2.344-5.208.41-1.163.89-3.679 1.309-6.145.418-2.466.769-4.872.902-5.773 1.229-8.5 3.768-14.98 3.79-15.035l.011.004s.437-1.395-.63-2.997c-.294-.439-.847-.637-1.517-.697-.669-.06-1.469.02-2.302.168-1.667.298-3.466.878-4.553 1.233-2.138.697-9.335 2.022-14.832 1.552-5.526-.472-17.537-1.608-22.004-2.455-2.238-.424-5.173-1.136-7.668-1.781s-4.559-1.226-5.023-1.379c-.489-.16-.868-.263-1.201-.238-.334.025-.613.195-.84.523-.06.086-.09.195-.141.371-.05.176-.11.408-.174.688-.129.56-.285 1.313-.453 2.181a244.684 244.684 0 0 0-1.066 6.004c-.225 1.352-.41 2.663-.569 3.707-.08.523-.152.98-.22 1.338-.069.359-.136.626-.188.746-.31.72-1.255 2.675-2.195 4.67-.94 1.996-1.878 4.026-2.192 4.944-.621 1.816-1.673 6.38-1.673 6.38l.03.008c-2.06-.119-5.11-.349-6.411-.398-3.475-.131-7.295-.222-10.942-.068.336-.354 11.674-12.279 13.551-14.438 1.91-2.197 3.659-5.746 5.02-7.81 1.363-2.069 6.803-9.685 8.17-11.522.694-.933 2.896-4.221 5.298-7.621 2.403-3.4 4.374-6.915 5.812-8.236 1.565-1.704 3.09-2.165 5.112-2.935 2.022-.77 3.334-.991 5.016-1.218 1.312-.165 3.09-.41 4.248-.423.584-.006 1.341.134 2.258.132z" overflow="visible" id="blue-chair_vue_svg__path295"/>
        <path transform="translate(-281.3 -171.936) scale(1.43613)" style="overflow:visible;fill:url(#blue-chair_vue_svg__id-14k);stroke:#4a5061;stroke-opacity:1" d="M90.283 52.822c.263-.02.618.067 1.098.225.495.163 2.543.739 5.04 1.385 2.499.646 5.436 1.358 7.686 1.785 4.51.854 16.502 1.986 22.032 2.459 5.558.475 12.726-.844 14.935-1.565 1.086-.354 2.877-.931 4.518-1.224.82-.147 1.602-.222 2.232-.166.63.056 1.092.241 1.319.582.977 1.465.63 2.632.605 2.713v.002c0 .002-2.578 6.56-3.816 15.127-.134.902-.483 3.307-.9 5.77-.418 2.461-.908 4.99-1.3 6.099-.395 1.12-1.413 3.295-2.332 5.181-.67 1.377-.983 1.983-1.267 2.545l-.049-.023s-5.59-2.636-9.488-3.711c-1.956-.54-5.96-1.206-10.254-1.858-4.294-.651-8.872-1.286-11.944-1.753-4.996-.76-18.401-1.726-27.578-2.262.013-.056 1.053-4.553 1.657-6.317.3-.877 1.241-2.922 2.181-4.916 1.119-2.188 1.959-4.635 2.313-6.965.16-1.047.657-2.218.88-3.566.342-2.058.73-4.262 1.065-5.996a66.84 66.84 0 0 1 .451-2.172c.064-.277.122-.506.17-.674a1.9 1.9 0 0 1 .106-.293c.197-.285.378-.392.64-.412z" overflow="visible" id="blue-chair_vue_svg__path297"/>
        <path style="overflow:visible;fill:url(#blue-chair_vue_svg__id-15l);stroke:#4a5061;stroke-opacity:1" d="M63.027 83.918c3.698-.167 7.595-.067 11.135.066 7.074.267 28.072 1.74 34.195 2.672 3.076.468 7.652 1.103 11.944 1.754 4.292.651 8.305 1.322 10.224 1.852 3.78 1.042 9.114 3.542 9.32 3.638-.043.106-1.07 2.62-2.843 5.55-1.81 2.99-4.34 6.288-7.162 7.534-5.724 2.53-13.742 4.131-18.254 4.131-2.24 0-9.475-.8-16.957-1.736-7.482-.935-15.234-2.005-18.57-2.54-3.332-.532-9.799-1.934-15.786-3.337a406.812 406.812 0 0 1-8.171-1.996c-2.305-.593-4.047-1.079-4.748-1.34-1.41-.525-2.773-1.384-3.811-2.576l-.04-.045a7.442 7.442 0 0 1-1.81-4.611c-.04-.925.296-1.727.918-2.455.623-.73 1.534-1.379 2.627-1.97 2.188-1.18 5.098-2.125 7.858-3.062 2.737-.93 6.234-1.362 9.931-1.529z" overflow="visible" transform="translate(-281.3 -171.936) scale(1.43613)" id="blue-chair_vue_svg__path299"/>
        <path style="overflow:visible;fill:#905730;stroke:#452a17;stroke-opacity:1" d="M45.895 111.965c.86.373 1.149.504 2.205.95 2.204.928 4.282 1.721 5.64 2.12-.223.322-1.604 2.378-2.287 6.414-.372 2.197-1.02 9.9-1.58 17.074-.554 7.108-1.009 13.554-1.018 13.678l-4.085-.252zm98.62 4.474c.028.223.392 3.137 1.354 5.885.986 2.818 8.62 24.928 8.697 25.15l-2.707.932-2.078-.994c-.033-.08-7.582-18.181-8.959-21.125-1.318-2.819-3.483-6.394-3.674-6.71 2.44-.72 5.03-1.53 7.368-3.138z" overflow="visible" transform="translate(-281.3 -171.936) scale(1.43613)" id="blue-chair_vue_svg__path301"/>
        <path style="overflow:visible;fill:#4f281b;stroke:#301d10;stroke-opacity:1" d="M92.447 122.031c1.672.208 2.636.308 4.207.502l.098 13.446-3.814.218z" overflow="visible" transform="translate(-281.3 -171.936) scale(1.43613)" id="blue-chair_vue_svg__path303"/>
        <path style="overflow:visible;fill:#905730;stroke:#24160c;stroke-opacity:1" d="M121.254 123.73c0 .014.003.007.004.022.01.196-.011.483-.147.844-.135.36-.752 1.766-1.39 3.279-.639 1.513-1.3 3.138-1.541 4.008-.035.125-.075.36-.127.717a67.55 67.55 0 0 0-.188 1.398c-.143 1.14-.32 2.674-.521 4.467-.402 3.586-.895 8.207-1.371 12.775a4703.238 4703.238 0 0 0-1.834 17.942l-.653.015-3.203-.281-.433-.162c.005-.095.366-7.219.722-14.645.18-3.737.358-7.528.487-10.488.064-1.48.116-2.752.15-3.707.034-.955.05-1.584.041-1.81-.067-1.668-.195-6.54-.873-9.116-.66-2.51-1.62-4.94-1.65-5.015.13.012.665.083.779.093 4.68.426 6.157.38 7.666.38.419 0 1.46-.178 2.89-.46.335-.066.821-.179 1.192-.256z" overflow="visible" transform="translate(-281.3 -171.936) scale(1.43613)" id="blue-chair_vue_svg__path305"/>
        <path style="overflow:visible;fill:#acacac" d="m95.809 136.297-.16.504-2.014.107-.207-.474zm58.443 11.566.139.574-2.377.659-1.405-.49.024-.493 1.21.58zM45.369 152.25l2.861.178.026.927-2.873-.107zm65.016 16.941 3.011.264-.06.684-2.926-.248z" overflow="visible" transform="translate(-281.3 -171.936) scale(1.43613)" id="blue-chair_vue_svg__path307"/>
    </g>
    <g transform="translate(418.946 212.093)" id="blue-chair_vue_svg__g315">
        <circle cx="-330.003" cy="-44.927" r="53.173" style="fill:#fff;stroke:#1a191e;stroke-width:3;stroke-linecap:round;stroke-miterlimit:4;stroke-dasharray:none" id="blue-chair_vue_svg__circle311"/>
        <image y="-351.662" x="-705.249" xlink:href="placeholder.png" preserveAspectRatio="none" height="179.261" width="179.261" clip-path="url(#blue-chair_vue_svg__id-16m)" transform="translate(43.807 114.18) scale(.60721)" class="seated-avatar" />
    </g>
    <image class="seated-keyboard" width="209.85" height="46.167" preserveAspectRatio="none" xlink:href="keyboard.png" x="-5.988" y="183.163"/>
</svg>