<svg version="1.1" viewBox="0 0 162.695 317.5" height="1200" width="614.911" id="game-chair_vue_svg__svg147"
    xmlns:xlink="http://www.w3.org/1999/xlink"
    xmlns="http://www.w3.org/2000/svg">
    <defs id="game-chair_vue_svg__defs81">
        <linearGradient id="game-chair_vue_svg__id-32a">
            <stop stop-color="#a8a8a8" offset="0" id="game-chair_vue_svg__stop2"/>
            <stop stop-color="#828282" offset="1" id="game-chair_vue_svg__stop4"/>
        </linearGradient>
        <linearGradient id="game-chair_vue_svg__linearGradient11">
            <stop stop-color="#c4c4c4" offset="0" id="game-chair_vue_svg__stop7"/>
            <stop stop-color="#595959" offset="1" id="game-chair_vue_svg__stop9"/>
        </linearGradient>
        <linearGradient id="game-chair_vue_svg__linearGradient17">
            <stop stop-color="#7a7a7a" offset="0" id="game-chair_vue_svg__stop13"/>
            <stop stop-opacity="0" stop-color="#7a7a7a" offset="1" id="game-chair_vue_svg__stop15"/>
        </linearGradient>
        <linearGradient id="game-chair_vue_svg__linearGradient25">
            <stop stop-color="#101010" offset="0" id="game-chair_vue_svg__stop19"/>
            <stop stop-color="#989898" offset=".5" id="game-chair_vue_svg__stop21"/>
            <stop stop-color="#221f1f" offset="1" id="game-chair_vue_svg__stop23"/>
        </linearGradient>
        <linearGradient id="game-chair_vue_svg__linearGradient31">
            <stop stop-color="#858585" offset="0" id="game-chair_vue_svg__stop27"/>
            <stop stop-color="#282828" offset="1" id="game-chair_vue_svg__stop29"/>
        </linearGradient>
        <linearGradient id="game-chair_vue_svg__linearGradient37">
            <stop stop-color="#3e3e3e" offset="0" id="game-chair_vue_svg__stop33"/>
            <stop offset="1" id="game-chair_vue_svg__stop35"/>
        </linearGradient>
        <linearGradient id="game-chair_vue_svg__linearGradient43">
            <stop stop-color="#dadada" offset="0" id="game-chair_vue_svg__stop39"/>
            <stop stop-color="#636363" offset="1" id="game-chair_vue_svg__stop41"/>
        </linearGradient>
        <linearGradient id="game-chair_vue_svg__linearGradient49">
            <stop stop-color="#888" offset="0" id="game-chair_vue_svg__stop45"/>
            <stop stop-opacity="0" stop-color="#888" offset="1" id="game-chair_vue_svg__stop47"/>
        </linearGradient>
        <linearGradient id="game-chair_vue_svg__linearGradient57">
            <stop stop-color="#121212" offset="0" id="game-chair_vue_svg__stop51"/>
            <stop stop-color="#a9a9a9" offset=".5" id="game-chair_vue_svg__stop53"/>
            <stop stop-color="#262222" offset="1" id="game-chair_vue_svg__stop55"/>
        </linearGradient>
        <linearGradient id="game-chair_vue_svg__linearGradient63">
            <stop stop-color="#949494" offset="0" id="game-chair_vue_svg__stop59"/>
            <stop stop-color="#2c2c2c" offset="1" id="game-chair_vue_svg__stop61"/>
        </linearGradient>
        <linearGradient id="game-chair_vue_svg__linearGradient69">
            <stop stop-color="#454545" offset="0" id="game-chair_vue_svg__stop65"/>
            <stop stop-color="#0a0a0a" offset="1" id="game-chair_vue_svg__stop67"/>
        </linearGradient>
        <linearGradient id="game-chair_vue_svg__linearGradient75">
            <stop stop-color="#4d4d4d" offset="0" id="game-chair_vue_svg__stop71"/>
            <stop stop-color="#0b0b0b" offset="1" id="game-chair_vue_svg__stop73"/>
        </linearGradient>
        <radialGradient gradientUnits="userSpaceOnUse" gradientTransform="matrix(1 0 0 .80798 0 13.417)" r="17.904" fy="65.195" fx="108.355" cy="65.195" cx="108.355" id="game-chair_vue_svg__id-33b" xlink:href="#game-chair_vue_svg__id-32a"/>
        <clipPath clipPathUnits="userSpaceOnUse" id="game-chair_vue_svg__id-34c">
            <circle style="fill:#473e81;stroke:#1a191e;stroke-width:.86209005;stroke-linecap:round" r="87.569" cy="-262.031" cx="-615.619" id="game-chair_vue_svg__circle78"/>
        </clipPath>
    </defs>
    <g transform="translate(1000.444 231.766)" id="game-chair_vue_svg__g145">
        <g class="game-chair_vue_svg__chair" style="stroke-linejoin:round" transform="matrix(-1 0 0 1 -1838.193 0)" id="game-chair_vue_svg__g143">
            <path transform="translate(-1093.41 -326.406) scale(1.98602)" overflow="visible" font-weight="400" style="color:#000;font-weight:400;overflow:visible;fill:url(#game-chair_vue_svg__id-33b);stroke:#3a3a3a;stroke-width:.86500001;stroke-opacity:1" d="M100.97 55.541a185.89 185.89 0 0 1 3.163.014h.006s1.51-.034 3.223 0c1.713.033 3.646.143 4.416.394 1.585.518 3.417 2.216 4.029 3.602.15.34.434 1.201.775 2.33s.744 2.533 1.149 3.988c.81 2.91 1.627 6.026 1.976 7.557a40.45 40.45 0 0 0 1.291 4.404c-.164.11-3.758 2.524-9.496 4.805-5.843 2.323-12.785 1.855-18.24-.002-5.441-1.853-7.752-5.496-7.752-5.496 1.228-1.578 1.718-3.907 2.262-5.315.575-1.49 2.606-7.817 3.177-9.95.563-2.102 1.485-3.553 2.428-4.661.448-.527 1.176-.85 1.906-1.067.73-.215 1.454-.324 1.905-.445.177-.048.735-.092 1.427-.117a80.45 80.45 0 0 1 2.356-.041z" id="game-chair_vue_svg__path83"/>
            <path transform="translate(-1093.41 -326.406) scale(1.98602)" overflow="visible" font-weight="400" style="color:#000;font-weight:400;overflow:visible;fill:#6e6e6e;stroke:#3a3a3a;stroke-width:.86500001;stroke-opacity:1" d="M85.356 77.354c.014.022.47.497.617.69l-3.182 27.683c-.439-1.009-1.347-1.949-2.228-2.655-.896-.718-1.605-1.124-1.71-1.185-.055-.235-.143-.523-.173-.723-.052-.338-.24-.812-.502-1.371a28.87 28.87 0 0 0-.955-1.83c-.711-1.265-1.489-2.504-1.873-3.045-.728-1.023-1.731-3.69-1.914-4.926-.184-1.24.122-2.808.712-3.738.277-.437 1.212-1.238 2.08-1.912a57.77 57.77 0 0 1 1.172-.88 76.635 76.635 0 0 1 .39-.28c.097-.07.15-.108.179-.131l.082-.059.213-.146.732-.512c.604-.423 1.412-.993 2.256-1.61 1.658-1.21 3.409-2.562 4.104-3.37zm35.72.738c.615 1.694 1.367 3.366 2.324 4.863.921 1.44 1.914 2.867 2.674 4.191.76 1.325 1.282 2.548 1.282 3.555 0 2.127.531 3.59-.493 6.2-.408 1.04-.976 2.358-1.52 3.656-.124.2-1.281 2.087-1.859 4.14-.035.126-.132.432-.175.578-.076.043-.967.54-2.018 1.17-.547.329-1.117.682-1.596 1-.479.319-.863.596-1.06.807-.016.016-.022.051-.035.07l1.017-29.357c.613-.371 1.385-.823 1.46-.873z" id="game-chair_vue_svg__path85"/>
            <path transform="translate(-1093.41 -326.406) scale(1.98602)" overflow="visible" font-weight="400" style="color:#000;font-weight:400;overflow:visible;fill:#797979;stroke:#3a3a3a;stroke-width:.86500001;stroke-opacity:1" d="M86.209 78.309c.914 1.127 2.804 3.156 6.967 4.574 5.506 1.875 12.502 2.352 18.424-.002 3.74-1.487 6.139-2.802 7.748-3.754l-1.032 29.754.063.002c-.033.111-.065.204-.1.342a36.688 36.688 0 0 0-.412 1.945c-.295 1.558-.621 3.56-.926 5.539-.608 3.959-1.128 7.822-1.128 7.822l.062.008c-.67.29-1.387.602-2.2.969a78.598 78.598 0 0 0-2.937 1.389c-.858.434-1.51.794-1.785 1.06-.508.493-.96 1.39-1.297 2.256a11.65 11.65 0 0 0-.402 1.219c-.095.36-.15.652-.145.85.01.392.278.648.522.794.244.146.484.2.484.2l.006.002h.004s.206.013.24.017c.002.02.053.718.131 1.54.08.832.182 1.761.287 2.202.044.183.14.856.243 1.75.103.895.218 2.025.314 3.17.005.055.005.102.01.157-.037.02-.738.429-1 .578-.104-.034-1.754-.572-2.619-.739-.238-.045-1.619-.256-3.63-.56a2925 2925 0 0 0-7.317-1.094c-5.354-.793-10.903-1.602-12.149-1.754-.569-.069-.61-.098-1.154-.178-.01-.043-1.032-4.226-1.406-7.925-.376-3.715.046-7.155.283-10.088.115-1.43.941-4.488 1.65-7.438.355-1.475.68-2.927.873-4.146.177-1.116.201-1.95.063-2.547l.056.006Z" id="game-chair_vue_svg__path87"/>
            <path style="fill:none;stroke:#3a3a3a;stroke-width:2.26499629;stroke-opacity:1" d="m-930.735-116.619 64.634 50.082" id="game-chair_vue_svg__path89"/>
            <path transform="translate(-1093.41 -326.406) scale(1.98602)" overflow="visible" font-weight="400" style="color:#000;font-weight:400;overflow:visible;fill:#6e6e6e;stroke:#3a3a3a;stroke-width:.86500001;stroke-opacity:1" d="M78.945 102.271c.243.146.69.397 1.452 1.006.942.755 1.964 1.78 2.302 2.793.16.477.111 1.452-.08 2.659-.19 1.206-.515 2.652-.869 4.125-.708 2.944-1.535 5.979-1.656 7.478-.236 2.925-.663 6.384-.283 10.135.372 3.679 1.358 7.71 1.394 7.86-1.638-.246-3.572-.55-3.572-.55h-.004c-.196-.029-.527-.02-1.063.034a35.27 35.27 0 0 0-2.242.318c-.048.008-.173.036-.222.045-.03-.047-.261-.404-.557-.924-.315-.553-.664-1.234-.799-1.705-.13-.454-.097-1.233.035-2.184.132-.95.358-2.078.582-3.26.446-2.348 1.743-7.328 1.744-7.333l.002-.004 2.221-7.372v-.004s.491-2.192 1.002-4.525 1.04-4.79 1.127-5.383c.088-.606-.067-1.376-.26-2.154-.094-.38-.16-.694-.254-1.055z" id="game-chair_vue_svg__path91"/>
            <path style="fill:none;stroke:#3a3a3a;stroke-width:2.26499629;stroke-opacity:1" d="M-854.718-78.107-898.726-41.1" id="game-chair_vue_svg__path93"/>
            <path transform="translate(-1093.41 -326.406) scale(1.98602)" overflow="visible" font-weight="400" style="color:#000;font-weight:400;overflow:visible;fill:#6e6e6e;stroke:#3a3a3a;stroke-width:.86500001;stroke-opacity:1" d="M123.852 103.764c-.263.756-.383 1.82-.536 2.476-.324 1.399-.93 6.097-1.459 10.469-.485 4.01-.83 7.115-.896 7.705-.043-.149-.068-.306-.145-.426-.059-.093-.149-.133-.254-.17a2.076 2.076 0 0 0-.37-.082 7.916 7.916 0 0 0-.975-.066 15.75 15.75 0 0 0-.947.016 7.884 7.884 0 0 0-.329.021 3.326 3.326 0 0 0-.107.012c-.03.004-.045.004-.082.017-.02.007-.05.02-.113.047l-.266.112c-.224.094-.54.227-.916.388-.098.043-.257.115-.363.16.016-.118.51-3.8 1.11-7.693.303-1.978.629-3.98.923-5.531.147-.776.287-1.44.41-1.93a7.29 7.29 0 0 1 .172-.596c.052-.148.108-.247.12-.26.156-.167.54-.452 1.013-.767.473-.315 1.04-.667 1.586-.994.921-.553 1.525-.888 1.77-1.025-.73 2.422-2.162 6.73-2.557 9.591-.436 3.149-.87 8.461-.87 8.461l.264.022s.436-5.313.87-8.446c.43-3.11 2.23-8.355 2.835-10.505.109-.386-.065-.6.079-.972z" id="game-chair_vue_svg__path95"/>
            <path transform="translate(-1093.41 -326.406) scale(1.98602)" overflow="visible" font-weight="400" style="color:#000;font-weight:400;overflow:visible;fill:#373737;stroke:#3a3a3a;stroke-width:.86500001;stroke-opacity:1" d="m70.828 118.313.234.9v.004l.174 1.049c-.058 0-.1-.012-.168-.006a7.068 7.068 0 0 0-.56.074c-.376.063-.713.139-.713.139-.01 0-3.664.568-7.451 1.189-1.897.311-3.823.636-5.34.91a76.91 76.91 0 0 0-1.914.365c-.5.105-.827.181-.986.25-1.024.444-1.872 1.551-1.928 1.623l-2.143-.062c-.022-.018-.094-.074-.193-.184-.113-.124-.22-.289-.23-.4 0 0 .005-.044.03-.104a1.74 1.74 0 0 1 .12-.222c.105-.171.256-.377.42-.586.326-.418.702-.842.867-1.024.143-.157.453-.359.8-.535a7.366 7.366 0 0 1 1.046-.43 22.693 22.693 0 0 1 1.525-.398zm.504.906c.111-.017.63-.117 1.482.236.442.183 1.063.726 1.555 1.223.467.47.785.853.82.896l-.335 1.12v.001s-.108.457-.12.5c-.133-.128-.683-.66-1.4-1.332a63.66 63.66 0 0 0-1.137-1.043 12.68 12.68 0 0 0-.424-.363 2.808 2.808 0 0 0-.15-.113.432.432 0 0 0-.115-.067z" id="game-chair_vue_svg__path97"/>
            <path style="fill:none;stroke:#3a3a3a;stroke-width:2.26499629;stroke-opacity:1" d="m-932.058-96.397 64.634 50.082" id="game-chair_vue_svg__path99"/>
            <path transform="translate(-1093.41 -326.406) scale(1.98602)" overflow="visible" font-weight="400" style="color:#000;font-weight:400;overflow:visible;fill:#373737;stroke:#3a3a3a;stroke-width:.86500001;stroke-opacity:1" d="m50.617 125.031 1.4.041c-.05.089-.111.16-.203.512-.125.483-.23 1.244-.162 2.375.07 1.159.715 3.412 1.342 5.398a118.843 118.843 0 0 0 1.236 3.694l.012-.004c-.207.18-.502.337-.668.525-.113.13-.219.44-.334.594-.1-.218-1.287-2.803-1.6-3.678-.324-.909-1.495-5.16-1.495-6.803 0-1.618.44-2.58.472-2.654z" id="game-chair_vue_svg__path101"/>
            <path transform="translate(-1093.41 -326.406) scale(1.98602)" overflow="visible" font-weight="400" style="color:#000;font-weight:400;overflow:visible;fill:#363937;fill-opacity:1;stroke:#3a3a3a;stroke-width:.86500001;stroke-opacity:1" d="M64.115 133.895c1.75-.012 3.782.665 5.371 1.35 1.582.68 2.71 1.358 2.721 1.364l1.574 1.631c-1.937.336-4.552.85-8.463 1.744-8.332 1.908-12.092 4.116-13.55 5.27-.742.586-1.429 1.521-1.938 2.312-.363.565-.472.792-.598 1.028.055-.5.122-1.161.225-1.795.03-.186.201-.742.467-1.467.265-.725.626-1.634 1.04-2.582.831-1.896 1.886-3.955 2.807-5.004.919-1.045 2.624-2.01 4.54-2.709 1.915-.698 4.042-1.13 5.804-1.142z" id="game-chair_vue_svg__path103"/>
            <path overflow="visible" font-weight="400" style="color:#000;font-weight:400;overflow:visible;fill:#656565;fill-opacity:1;stroke:#3a3a3a;stroke-width:.86500001;stroke-opacity:1" d="M77.584 138.037s2.542.468 5.02.77c1.226.149 6.787.96 12.14 1.754 2.677.396 5.303.79 7.315 1.093 2.011.304 3.424.521 3.62.559.745.143 2.003.552 2.352.664-1.122.64-2.515 1.425-3.564 2.068-.74.455-2.77 1.773-4.73 3.149a60.906 60.906 0 0 0-2.721 2.004c-.777.615-1.36 1.13-1.61 1.5-.905 1.34-2.243 4.245-2.283 4.332-.295-.077-15.586-4.061-23.685-4.924-8.062-.86-19.88-1.955-20.15-1.98.041-.083.3-.594.765-1.317.501-.78 1.183-1.698 1.879-2.248 1.414-1.118 5.14-3.318 13.445-5.219 4.158-.952 7.054-1.528 8.992-1.853a35.189 35.189 0 0 1 2.225-.315c.526-.053.855-.056.994-.035z" transform="translate(-1093.41 -326.406) scale(1.98602)" id="game-chair_vue_svg__path105"/>
            <path transform="translate(-1093.41 -326.406) scale(1.98602)" overflow="visible" font-weight="400" style="color:#000;font-weight:400;overflow:visible;fill:#363937;fill-opacity:1;stroke:#3a3a3a;stroke-width:.86500001;stroke-opacity:1" d="M116.063 141.043c.588.155.95.583 1.195 1.113.245.53.36 1.153.443 1.653.165.99.334 2.896.334 2.896l.008.094.426.113v.057l1.553-.092c-.032.236-.068.477-.077.723-.012.336 0 .59-.07.837s-.218.5-.574.844c-.068.066-.295.223-.615.418-.32.195-.74.437-1.223.707-.967.54-2.19 1.193-3.39 1.824a417.986 417.986 0 0 1-4.641 2.403c-.061-.192-.117-.396-.252-.526-.153-.145-.249-.202-.31-.242.031-.084.658-1.723 1.333-3.63.347-.979.697-2.004.971-2.882.274-.877.47-1.596.508-2.003.038-.402.021-1.342-.02-2.551 0-.041-.004-.097-.006-.139.061-.037.791-.478 1.73-.916a10.736 10.736 0 0 1 1.495-.582c.478-.138.91-.19 1.182-.12z" id="game-chair_vue_svg__path107"/>
            <path transform="translate(-1093.41 -326.406) scale(1.98602)" overflow="visible" font-weight="400" style="color:#000;font-weight:400;overflow:visible;fill:#3c3c3c;stroke:#3a3a3a;stroke-width:.86505002;stroke-linecap:round;stroke-opacity:1" d="M109.367 142.406c.036.452.054.854.08 1.287-.058.038-.883.565-1.924 1.28-1.076.739-2.312 1.628-2.978 2.26-1.306 1.239-6.427 6.22-8.217 8.488-1.643 2.08-2.894 5.244-3.117 5.818-.085-.34-.312-1.14-.332-2.432-.023-1.53.441-2.98.441-2.98l-.062-.02.008-.033.064.03s1.41-3.046 2.295-4.358c.202-.3.787-.832 1.557-1.441.77-.61 1.729-1.308 2.707-1.994a114.404 114.404 0 0 1 4.716-3.141c1.393-.855 4.447-2.585 4.762-2.764z" id="game-chair_vue_svg__path109"/>
            <path transform="translate(-1093.41 -326.406) scale(1.98602)" overflow="visible" font-weight="400" style="color:#000;font-weight:400;overflow:visible;fill:#363937;fill-opacity:1;stroke:#3a3a3a;stroke-width:.86500001;stroke-opacity:1" d="M109.465 143.998c.022.403.066.862.076 1.219.028.955-.002 1.721-.088 2.008-.095.316-.38 1.017-.75 1.873-.37.855-.829 1.87-1.273 2.845-.89 1.95-1.727 3.733-1.727 3.733l-.07.148.16.035s.7.16 1.451.307l.07.012c-.248.121-3.13 1.522-6.039 3.34-2.98 1.862-7.114 2.548-7.14 2.552l-.809-.129c.048-.125 1.49-3.88 3.21-6.056 1.753-2.222 6.89-7.226 8.19-8.46.638-.603 1.876-1.5 2.948-2.236.969-.665 1.639-1.093 1.79-1.19z" id="game-chair_vue_svg__path111"/>
            <path transform="translate(-1093.41 -326.406) scale(1.98602)" overflow="visible" font-weight="400" style="color:#000;font-weight:400;overflow:visible;fill:#656565;stroke:#3a3a3a;stroke-width:.86500001;stroke-opacity:1" d="M49.147 149.277c.137.013 12.16 1.129 20.263 1.993 8.044.857 23.325 4.832 23.637 4.914-.04.125-.457 1.412-.434 2.927.023 1.48.339 2.62.381 2.778l-2.99-.477-10.201-1.889-15.166-3.072h-.002s-10.951-2.1-11.742-2.244c-.413-.075-.96-.066-1.434-.027a6.99 6.99 0 0 0-.627.078c-.086.015-.16.031-.22.049-.062.017-.108.028-.159.064.016-.011.018-.005-.002-.006a.412.412 0 0 1-.096-.023 1.694 1.694 0 0 1-.318-.16c-.24-.15-.504-.37-.654-.563a.927.927 0 0 1-.098-.228 4.483 4.483 0 0 1-.107-.436c-.07-.34-.132-.76-.182-1.184a24.18 24.18 0 0 1-.11-1.189 6.252 6.252 0 0 1-.019-.695c.043-.382.24-.553.24-.553l.037-.035z" id="game-chair_vue_svg__path113"/>
            <path transform="translate(-1093.41 -326.406) scale(1.98602)" overflow="visible" font-weight="400" style="color:#000;font-weight:400;overflow:visible;fill:#545454;stroke:#3a3a3a;stroke-width:.86500001;stroke-opacity:1" d="m79.172 159.666.58.117 5.695 1.055-.28 3.928c-.072.02-.534.161-1.208.324-.723.174-1.598.347-2.174.347-.56 0-1.286-.274-1.863-.554a8.677 8.677 0 0 1-.941-.524zm6.537 1.22.664.124-.039.945-.701.012zm.926.173 2.435.45.053.587c-.064.047-.161.125-.39.252-.29.16-.665.314-.971.314-.305 0-.657-.157-.926-.322-.145-.09-.164-.115-.244-.178z" id="game-chair_vue_svg__path115"/>
            <path transform="translate(-1093.41 -326.406) scale(1.98602)" overflow="visible" font-weight="400" style="color:#000;font-weight:400;overflow:visible;fill:#545454;stroke:#3a3a3a;stroke-width:.86500001;stroke-opacity:1" d="M89.361 162.201c.077.017.142.028.29.07.108.032.219.07.302.108.08.036-.695-.036-.697-.046 0 .006.814.124.814.132a20.338 20.338 0 0 1 .02.656c.006.44.01 1.058.012 1.795.004 1.474.002 3.424-.004 5.367-.012 3.852-.035 7.613-.035 7.68a3.534 3.534 0 0 1-2.278.857c-1.339 0-2.623-.677-2.726-.732l.093-13.045.178-.047.088-.027.195-2.737.616-.01c.015.014.192.171.47.342.29.178.671.363 1.063.363.39 0 .788-.177 1.097-.347.31-.17.532-.342.532-.342zm16.99 8.553c.027.005.13.02.272.059.08.021.163.049.229.078.061.027.1.056.11.068l.005.023c.006.036.01.091.016.159.01.135.016.323.021.545.009.443.01 1.024.006 1.597-.008 1.109-.03 2.126-.031 2.197l-2.822 1.57-.729-.263-6.195 2.76.04.094-5.896-.885-1.05-.71v-.013l.003-.832zm-41.001.553c.16.04.283.107.283.107l.01.006 19.152 6.52v.1l-.994.769-6.842 1.181.01-.03-12.322-3.845-.069-4.275c0-.001-.011-.253.3-.48.13-.097.311-.093.472-.053zm41.57 4.51-.03.085 1.1.366c-.089.046-.102.048-.218.117-.278.164-.59.367-.749.605-.144.217-.406.74-.591 1.36-.122.405-.067.828-.055 1.25l-.156-.108s-.204.302-.42.697c-.08.145-.299.292-.54.381-.24.09-.505.124-.613.108-.131-.02-.234-.062-.37-.221-.137-.159-.297-.443-.483-.926-.172-.445-.106-1.022.012-1.486.108-.428.235-.696.257-.744l.116.04z" id="game-chair_vue_svg__path117"/>
            <path transform="translate(-1093.41 -326.406) scale(1.98602)" overflow="visible" font-weight="400" style="color:#000;font-weight:400;overflow:visible;fill:#545454;stroke:#3a3a3a;stroke-width:.86500001;stroke-opacity:1" d="M108.383 176.355c.006 0 .203-.052.412.145.212.2.442.696.344 1.887-.099 1.19-.42 1.791-.701 2.093-.14.152-.273.229-.366.27-.093.041-.136.045-.136.045h-.016l-.014.006s-.246.079-.533.039c-.287-.04-.598-.178-.777-.668-.177-.483-.088-1.153.09-1.746.177-.593.441-1.117.556-1.29.102-.151.399-.367.664-.525a5.96 5.96 0 0 1 .477-.255zm-45.197.438c.07.025 1.728.624 1.728 2.574 0 1.024-.145 1.556-.328 1.824-.183.269-.4.311-.662.352-.086.013-.232-.022-.399-.117a2.34 2.34 0 0 1-.529-.438c-.354-.382-.672-.924-.775-1.494-.216-1.194-.169-1.53.01-2 .07-.184.315-.38.552-.514.211-.118.362-.172.403-.187zm27.048 1.37-.066.097.883.596-.408 5.117-.036.027s-.239.193-.459.412c-.078.079-.292.203-.476.295-.134.067-.192.091-.248.115l-.533-4.877-.073-.03s-.166-.071-.384-.128c-.219-.057-.492-.108-.735-.047-.226.057-.503.193-.732.317-.23.123-.408.234-.408.234l-.07.043.478 4.606c-.083.003-.217.01-.485.004-.337-.01-.742-.042-.972-.116-.396-.126-.602-.402-.686-.502l.194-5.968c.215.113 1.406.728 2.767.728a3.774 3.774 0 0 0 2.45-.924zm-5.484.245-.03.944-.724.587-32.588 5.745-.758-.877 33.26-5.748zm6.553.606 34.049 5.107-.18 4.922-.246.033.373-4.45-.123-.017s-8.292-1.145-16.701-2.32c-4.205-.588-8.44-1.182-11.682-1.645-1.621-.23-2.995-.43-3.992-.578-.499-.074-.903-.135-1.197-.181-.204-.032-.276-.048-.366-.065z" id="game-chair_vue_svg__path119"/>
            <path transform="translate(-1093.41 -326.406) scale(1.98602)" overflow="visible" font-weight="400" style="color:#000;font-weight:400;overflow:visible;fill:#545454;stroke:#3a3a3a;stroke-width:.86500001;stroke-opacity:1" d="m84.709 179.701-.147 4.5-33.294 6.088-.657-.314-.06-4.88.756.876 32.802-5.784zm3.055.297c.157-.04.402-.007.601.045.16.041.234.074.28.092l1.576 14.414c-.152-.06-.446-.205-.871-.145-.434.062-.947.244-1.102.297l-1.478-14.224c.047-.03.14-.088.322-.186.221-.12.497-.25.672-.293zm3.453.088c.097.017.16.031.345.06.296.047.7.108 1.2.182.998.148 2.373.347 3.994.578 3.242.463 7.476 1.057 11.681 1.645 8.349 1.166 16.458 2.288 16.579 2.304l-.383 4.528.668-.09c.009 0 .525.029 1.129.217.609.19 1.28.537 1.586 1.148.581 1.163.094 2.277.013 2.453l-.3-.134c-.018-.066-.133-.541-.553-1.088-.449-.584-1.216-1.184-2.438-1.233-1.214-.048-1.924.385-2.314.838-.356.414-.414.776-.428.848l-.494.271.252-3.875-30.85-4.736z" id="game-chair_vue_svg__path121"/>
            <path transform="translate(-1093.41 -326.406) scale(1.98602)" overflow="visible" font-weight="400" style="color:#000;font-weight:400;overflow:visible;fill:#545454;stroke:#3a3a3a;stroke-width:.86500001;stroke-opacity:1" d="m53.727 190.107.427.428-.043 2.791-.199-.088c-.066-.133-.317-.662-.756-1.144-.266-.293-.668-.442-1.154-.489-.487-.046-1.065.01-1.711.141-.709.145-1.358.85-1.855 1.506-.426.562-.634.951-.713 1.094l-.48-.774c.004-.06.11-1.351.866-2.375.74-1 2.298-1.004 2.346-1.004l.775.371zm71 .813c1.14.046 1.826.592 2.24 1.13a3.2 3.2 0 0 1 .543 1.061v.002c-.004.04-.06.744-.453 1.465-.405.742-1.123 1.452-2.502 1.38-.687-.037-1.162-.27-1.504-.599-.342-.328-.552-.758-.676-1.191a4.99 4.99 0 0 1-.152-1.717c.002-.011.063-.393.4-.785.342-.398.955-.792 2.104-.746z" id="game-chair_vue_svg__path123"/>
            <path transform="translate(-1093.41 -326.406) scale(1.98602)" overflow="visible" font-weight="400" style="color:#000;font-weight:400;overflow:visible;fill:#545454;stroke:#3a3a3a;stroke-width:.86500001;stroke-opacity:1" d="M51.977 191.87c.446.042.777.174.984.401.403.444.65.955.717 1.086-.005.06-.058.807-.114 1.278a1.64 1.64 0 0 1-.128.527c-.07.16-.186.359-.375.715-.343.642-1.11.742-1.475.83-.362.087-1.019.337-1.973-.31-.451-.307-.782-.95-.984-1.518-.196-.55-.27-.99-.275-1.02.125-.195.118-.219.292-.449.484-.637 1.131-1.289 1.698-1.404.63-.128 1.186-.18 1.633-.137zm37.41 2.796c.385-.055.814.125.873.148l.11 4.5c-.023.028-.424.542-1.145.602a1.145 1.145 0 0 1-1.06-.516l.062-4.42c.06-.02.74-.254 1.16-.314z" id="game-chair_vue_svg__path125"/>
            <path transform="translate(-1093.41 -326.406) scale(1.98602)" overflow="visible" font-weight="400" style="color:#000;font-weight:400;overflow:visible;fill:#545454;stroke:#3a3a3a;stroke-width:.86500001;stroke-opacity:1" d="m90.564 199.502.543.363.118 1.281.57.594c.006.026.229 1.013.252 2.422.022 1.367-.47 2.722-.498 2.8l-.711.036-.094-1.644-3.025-.079.07 1.813-1-.227c-.025-.115-.485-2.242-.574-3.046-.042-.378.114-1.015.289-1.54.159-.477.3-.79.33-.857l.564.05v-1.636l.598-.23c.094.135.476.642 1.25.578a1.953 1.953 0 0 0 1.318-.678z" id="game-chair_vue_svg__path127"/>
            <path style="fill:#545454;stroke:#3a3a3a;stroke-width:1.71790731;stroke-opacity:1" d="m-968.04 24.714 3.019-1.493 6.9 2.322s.531 3.981.365 4.976c-.166.996-.83 2.422-2.223 2.654-1.393.233-2.421-.73-2.421-.73l-.73.1s-.067 1.427-.796 1.56c-.73.132-2.256.132-2.256.132s2.056-.564 1.758-4.412c-.299-3.849-3.616-5.11-3.616-5.11z" id="game-chair_vue_svg__path129"/>
            <path style="fill:none;stroke:#3a3a3a;stroke-width:2.26499629;stroke-opacity:1" d="m-923.553-157.63 64.634 50.082m-67.658-28.348 64.634 50.082m-73.139 10.016 39.499 29.86m-3.402-113.581 41.955 34.396m-20.032-35.72 20.6 17.388m-.757 1.134-76.729 66.712m77.863-92.604-75.217 65.957m73.516-17.576-74.65 65.39m43.467-104.132L-927.9-125.88m16.442-38.365-13.418 11.34m63.878 60.098-52.161 44.223" id="game-chair_vue_svg__path131"/>
            <g transform="matrix(-1 0 0 1 -2052.233 -43.407)" id="game-chair_vue_svg__g137">
                <circle style="fill:#fff;stroke:#1a191e;stroke-width:3;stroke-linecap:round;stroke-miterlimit:4;stroke-dasharray:none" r="53.173" cy="-46.239" cx="-1128.435" id="game-chair_vue_svg__circle133"/>
                <image class="seated-avatar" transform="translate(-754.625 112.869) scale(.60721)" clip-path="url(#game-chair_vue_svg__id-34c)" width="179.261" height="179.261" preserveAspectRatio="none" xlink:href="placeholder.png" x="-705.249" y="-351.662" id="game-chair_vue_svg__image135"/>
            </g>
            <path transform="translate(-1093.41 -326.406) scale(1.98602)" overflow="visible" font-weight="400" style="color:#000;font-weight:400;overflow:visible;fill:#545454;stroke:#3a3a3a;stroke-width:.86500001;stroke-opacity:1" d="M119.752 126.496c.011 0 .039.003.086.037a.928.928 0 0 1 .168.172c.122.155.254.382.377.621.183.356.296.634.4.88-.003.078-.077 1.886-.133 3.987-.057 2.147-.095 4.498-.01 5.393.08.836-.042 2.925-.19 4.8-.073.938-.152 1.826-.212 2.489l-.074.803-.022.234c-.005.057-.008.074-.008.11 0 .01-.01.092-.025.195l-.059.383-.002.01-1.314.078c0-.218.035-6.18.133-7.737.1-1.602.73-12.353.732-12.4l.049-.022c.058-.022.103-.033.103-.033zm-.424.182c-.017.288-.628 10.678-.726 12.258-.1 1.584-.128 7.415-.13 7.703l-.185-.05c-.01-.115-.16-1.841-.324-2.823-.084-.503-.2-1.149-.465-1.721-.264-.572-.689-1.079-1.37-1.258-.137-.036-.34.04-.503.047-.002-.027-.21-2.772-.328-5.496-.116-2.686.019-6.26.023-6.379.466-.289.931-.579 1.432-.871a58.393 58.393 0 0 1 1.976-1.107 15 15 0 0 1 .6-.303zm-4.273 2.443c-.011.298-.135 3.596-.022 6.229.118 2.73.326 5.482.328 5.507-.19.029-.343-.009-.552.051-.5.144-1.037.364-1.534.596-.888.414-1.481.775-1.632.865a267.306 267.306 0 0 0-.16-3.672c-.145-2.844-.31-5.498-.31-5.498l-.263.016s.162 2.653.307 5.496c.072 1.421.14 2.89.181 4.098.041 1.206.053 2.16.02 2.515-.033.349-.226 1.08-.498 1.951a83.584 83.584 0 0 1-.967 2.871 179.777 179.777 0 0 1-1.365 3.717l-.04.104.094.056s.182.112.354.276c.172.164.31.372.287.53-.036.253-.029.58-.062.849a1.087 1.087 0 0 1-.084.33c-.04.078-.077.114-.14.129-.02.005-.105.011-.216.004a5.672 5.672 0 0 1-.41-.047 22.335 22.335 0 0 1-1.076-.188c-.664-.13-1.153-.242-1.283-.271.064-.137.806-1.71 1.66-3.582.445-.976.901-1.994 1.273-2.852.372-.858.656-1.548.762-1.9.114-.382.126-1.13.098-2.092a63.465 63.465 0 0 0-.202-3.273c-.096-1.148-.21-2.28-.314-3.178-.104-.898-.192-1.549-.248-1.783-.095-.395-.202-1.337-.281-2.166-.076-.797-.123-1.441-.127-1.495.255.028.418.06.916.069.773.014 1.668-.036 2.207-.375.524-.33.73-.848.91-1.358.18-.51.341-1.014.746-1.396.199-.187.683-.528 1.287-.916.105-.067.244-.147.356-.217z" id="game-chair_vue_svg__path139"/>
            <path transform="translate(-1093.41 -326.406) scale(1.98602)" overflow="visible" font-weight="400" style="color:#000;font-weight:400;overflow:visible;fill:#545454;stroke:#3a3a3a;stroke-width:.86500001;stroke-opacity:1" d="M119.213 123.936c.337.005.676.024.94.062.13.02.244.043.324.07.079.028.117.064.117.063.097.152.176.433.22.668.045.235.061.426.061.426l.002.029 1.734 2.885 1.12.207a.44.44 0 0 1 .152.134c.085.109.174.283.166.57-.008.293-.094.473-.174.583-.072.099-.118.12-.129.127l-1.13.062a72.247 72.247 0 0 1-.342-.242c-.196-.14-.416-.3-.448-.326a3.965 3.965 0 0 1-.314-.34 2.678 2.678 0 0 1-.352-.516l-.11-.244v-.025h-.013c-.101-.24-.22-.541-.418-.924a4.287 4.287 0 0 0-.406-.664c-.07-.09-.14-.164-.219-.22a.391.391 0 0 0-.271-.087.646.646 0 0 0-.172.05 4.171 4.171 0 0 0-.24.105c-.188.088-.429.21-.707.357a59.63 59.63 0 0 0-1.985 1.113c-.72.42-1.453.865-2.062 1.256-.61.392-1.089.724-1.325.946-.463.436-.638.996-.816 1.5-.178.503-.356.944-.8 1.224-.43.27-1.308.346-2.063.332-.751-.013-1.376-.1-1.383-.101-.004-.001-.201-.046-.402-.166-.203-.122-.386-.299-.393-.575-.003-.136.043-.425.135-.775.092-.35.227-.765.392-1.19.33-.848.79-1.73 1.237-2.164.202-.196.867-.582 1.718-1.013a76.862 76.862 0 0 1 2.928-1.385 170.24 170.24 0 0 1 3.69-1.61 67.822 67.822 0 0 1 .265-.11l.106-.046c-.02.007 0 .001.023-.002l.096-.01c.08-.007.19-.015.318-.021.258-.012.593-.019.93-.014z" id="game-chair_vue_svg__path141"/>
        </g>
    </g>
    <image class="seated-keyboard" width="209.85" height="46.167" preserveAspectRatio="none" xlink:href="keyboard.png" id="game-chair_vue_svg__keyboard" x="-4.271" y="170.012"/>
</svg>