<svg version="1.1" viewBox="0 0 317.5 317.5" height="1200" width="1200" id="grey-couch_vue_svg__svg322"
    xmlns:xlink="http://www.w3.org/1999/xlink"
    xmlns="http://www.w3.org/2000/svg">
    <defs id="grey-couch_vue_svg__defs286">
        <linearGradient id="grey-couch_vue_svg__linearGradient6">
            <stop stop-color="#c4c4c4" offset="0" id="grey-couch_vue_svg__stop2"/>
            <stop stop-color="#595959" offset="1" id="grey-couch_vue_svg__stop4"/>
        </linearGradient>
        <linearGradient id="grey-couch_vue_svg__linearGradient12">
            <stop stop-color="#7a7a7a" offset="0" id="grey-couch_vue_svg__stop8"/>
            <stop stop-opacity="0" stop-color="#7a7a7a" offset="1" id="grey-couch_vue_svg__stop10"/>
        </linearGradient>
        <linearGradient id="grey-couch_vue_svg__linearGradient20">
            <stop stop-color="#101010" offset="0" id="grey-couch_vue_svg__stop14"/>
            <stop stop-color="#989898" offset=".5" id="grey-couch_vue_svg__stop16"/>
            <stop stop-color="#221f1f" offset="1" id="grey-couch_vue_svg__stop18"/>
        </linearGradient>
        <linearGradient id="grey-couch_vue_svg__linearGradient26">
            <stop stop-color="#858585" offset="0" id="grey-couch_vue_svg__stop22"/>
            <stop stop-color="#282828" offset="1" id="grey-couch_vue_svg__stop24"/>
        </linearGradient>
        <linearGradient id="grey-couch_vue_svg__linearGradient32">
            <stop stop-color="#3e3e3e" offset="0" id="grey-couch_vue_svg__stop28"/>
            <stop offset="1" id="grey-couch_vue_svg__stop30"/>
        </linearGradient>
        <linearGradient id="grey-couch_vue_svg__linearGradient38">
            <stop stop-color="#dadada" offset="0" id="grey-couch_vue_svg__stop34"/>
            <stop stop-color="#636363" offset="1" id="grey-couch_vue_svg__stop36"/>
        </linearGradient>
        <linearGradient id="grey-couch_vue_svg__linearGradient44">
            <stop stop-color="#888" offset="0" id="grey-couch_vue_svg__stop40"/>
            <stop stop-opacity="0" stop-color="#888" offset="1" id="grey-couch_vue_svg__stop42"/>
        </linearGradient>
        <linearGradient id="grey-couch_vue_svg__linearGradient52">
            <stop stop-color="#121212" offset="0" id="grey-couch_vue_svg__stop46"/>
            <stop stop-color="#a9a9a9" offset=".5" id="grey-couch_vue_svg__stop48"/>
            <stop stop-color="#262222" offset="1" id="grey-couch_vue_svg__stop50"/>
        </linearGradient>
        <linearGradient id="grey-couch_vue_svg__linearGradient58">
            <stop stop-color="#949494" offset="0" id="grey-couch_vue_svg__stop54"/>
            <stop stop-color="#2c2c2c" offset="1" id="grey-couch_vue_svg__stop56"/>
        </linearGradient>
        <linearGradient id="grey-couch_vue_svg__linearGradient64">
            <stop stop-color="#454545" offset="0" id="grey-couch_vue_svg__stop60"/>
            <stop stop-color="#0a0a0a" offset="1" id="grey-couch_vue_svg__stop62"/>
        </linearGradient>
        <linearGradient id="grey-couch_vue_svg__id-39e">
            <stop stop-color="#4d4d4d" offset="0" id="grey-couch_vue_svg__stop66"/>
            <stop stop-color="#0b0b0b" offset="1" id="grey-couch_vue_svg__stop68"/>
        </linearGradient>
        <linearGradient xlink:href="#grey-couch_vue_svg__id-35a" gradientUnits="userSpaceOnUse" gradientTransform="rotate(4.347 333.23 -17276.174) scale(1.1657)" x1="1489.296" y1="667.799" x2="1450.755" y2="715.266" id="grey-couch_vue_svg__linearGradient78"/>
        <linearGradient id="grey-couch_vue_svg__id-35a">
            <stop stop-color="#f2f2f2" offset="0" id="grey-couch_vue_svg__stop80"/>
            <stop stop-color="#6e6e6e" offset="1" id="grey-couch_vue_svg__stop82"/>
        </linearGradient>
        <linearGradient xlink:href="#grey-couch_vue_svg__id-35a" gradientUnits="userSpaceOnUse" gradientTransform="rotate(4.347 348.791 -17317.195) scale(1.1657)" x1="1458.281" y1="678.059" x2="1464.223" y2="717.073" id="grey-couch_vue_svg__linearGradient85"/>
        <linearGradient xlink:href="#grey-couch_vue_svg__id-36b" gradientUnits="userSpaceOnUse" gradientTransform="translate(-1374.249 36.063) scale(1.1657)" x1="1455.051" y1="711.571" x2="1466.923" y2="711.571" id="grey-couch_vue_svg__linearGradient87"/>
        <linearGradient id="grey-couch_vue_svg__id-36b">
            <stop stop-color="#979797" offset="0" id="grey-couch_vue_svg__stop89"/>
            <stop stop-opacity="0" stop-color="#979797" offset="1" id="grey-couch_vue_svg__stop91"/>
        </linearGradient>
        <linearGradient xlink:href="#grey-couch_vue_svg__id-35a" gradientUnits="userSpaceOnUse" gradientTransform="rotate(4.347 348.791 -17317.195) scale(1.1657)" x1="1487.814" y1="663.16" x2="1444.506" y2="682.603" id="grey-couch_vue_svg__linearGradient94"/>
        <linearGradient xlink:href="#grey-couch_vue_svg__id-37c" gradientUnits="userSpaceOnUse" x1="1378.113" y1="883.676" x2="1369.925" y2="910.115" id="grey-couch_vue_svg__linearGradient96"/>
        <linearGradient id="grey-couch_vue_svg__id-37c">
            <stop stop-color="#141414" offset="0" id="grey-couch_vue_svg__stop98"/>
            <stop stop-color="#bcbcbc" offset=".5" id="grey-couch_vue_svg__stop100"/>
            <stop stop-color="#2a2626" offset="1" id="grey-couch_vue_svg__stop102"/>
        </linearGradient>
        <linearGradient xlink:href="#grey-couch_vue_svg__id-38d" gradientUnits="userSpaceOnUse" gradientTransform="matrix(.90667 .00057 .0005 .9188 127.091 71.581)" x1="1423.349" y1="908.878" x2="1351.975" y2="893.443" id="grey-couch_vue_svg__linearGradient105"/>
        <linearGradient id="grey-couch_vue_svg__id-38d">
            <stop stop-color="#a4a4a4" offset="0" id="grey-couch_vue_svg__stop107"/>
            <stop stop-color="#313131" offset="1" id="grey-couch_vue_svg__stop109"/>
        </linearGradient>
        <linearGradient xlink:href="#grey-couch_vue_svg__id-35a" gradientUnits="userSpaceOnUse" gradientTransform="rotate(4.347 267.529 -17029.38) scale(1.1657)" x1="1485.288" y1="663.481" x2="1462.11" y2="706.557" id="grey-couch_vue_svg__linearGradient112"/>
        <linearGradient xlink:href="#grey-couch_vue_svg__id-35a" gradientUnits="userSpaceOnUse" gradientTransform="rotate(4.347 283.113 -17070.824) scale(1.1657)" x1="1457.968" y1="674.398" x2="1464.89" y2="724.738" id="grey-couch_vue_svg__linearGradient114"/>
        <linearGradient xlink:href="#grey-couch_vue_svg__id-35a" gradientUnits="userSpaceOnUse" gradientTransform="rotate(4.347 283.113 -17070.824) scale(1.1657)" x1="1487.814" y1="663.16" x2="1444.506" y2="682.603" id="grey-couch_vue_svg__linearGradient116"/>
        <linearGradient xlink:href="#grey-couch_vue_svg__id-37c" gradientUnits="userSpaceOnUse" gradientTransform="matrix(1 -.07672 0 1 14.453 135.08)" x1="1480.356" y1="713.551" x2="1480.251" y2="699.894" id="grey-couch_vue_svg__linearGradient118"/>
        <linearGradient xlink:href="#grey-couch_vue_svg__id-37c" gradientUnits="userSpaceOnUse" gradientTransform="matrix(1 -.07672 0 1 14.453 135.08)" x1="1476.047" y1="720.767" x2="1475.406" y2="691.326" id="grey-couch_vue_svg__linearGradient120"/>
        <linearGradient xlink:href="#grey-couch_vue_svg__id-35a" gradientUnits="userSpaceOnUse" gradientTransform="matrix(1 -.07672 0 1 61.1 103.92)" x1="1426.377" y1="742.807" x2="1436.749" y2="727.41" id="grey-couch_vue_svg__linearGradient122"/>
        <linearGradient id="grey-couch_vue_svg__id-40f">
            <stop offset="0" stop-color="#a8a8a8" id="grey-couch_vue_svg__stop248"/>
            <stop offset="1" stop-color="#828282" id="grey-couch_vue_svg__stop250"/>
        </linearGradient>
        <linearGradient id="grey-couch_vue_svg__id-43i">
            <stop stop-color="#6d62b4" offset="0" id="grey-couch_vue_svg__stop259"/>
            <stop stop-color="#473e81" offset="1" id="grey-couch_vue_svg__stop261"/>
        </linearGradient>
        <linearGradient id="grey-couch_vue_svg__id-42h">
            <stop stop-color="#787e94" offset="0" id="grey-couch_vue_svg__stop264"/>
            <stop stop-color="#667097" offset="1" id="grey-couch_vue_svg__stop266"/>
        </linearGradient>
        <linearGradient id="grey-couch_vue_svg__id-41g">
            <stop stop-color="#5d6495" offset="0" id="grey-couch_vue_svg__stop269"/>
            <stop stop-color="#767999" offset=".209" id="grey-couch_vue_svg__stop271"/>
            <stop stop-color="#5d6495" offset="1" id="grey-couch_vue_svg__stop273"/>
        </linearGradient>
        <linearGradient gradientUnits="userSpaceOnUse" y2="77.31" x2="149.29" y1="65.283" x1="81.859" xlink:href="#grey-couch_vue_svg__id-41g" id="grey-couch_vue_svg__linearGradient276"/>
        <linearGradient gradientUnits="userSpaceOnUse" y2="88.118" x2="109.013" y1="103.62" x1="68.018" xlink:href="#grey-couch_vue_svg__id-42h" id="grey-couch_vue_svg__linearGradient278"/>
        <linearGradient gradientUnits="userSpaceOnUse" y2="105.152" x2="108.35" y1="81.816" x1="111.992" xlink:href="#grey-couch_vue_svg__id-43i" id="grey-couch_vue_svg__linearGradient280"/>
        <filter style="color-interpolation-filters:sRGB" x="-.019" width="1.039" y="-.264" height="1.528" id="grey-couch_vue_svg__filter126">
            <feGaussianBlur stdDeviation="2.807" id="grey-couch_vue_svg__feGaussianBlur124"/>
        </filter>
        <filter style="color-interpolation-filters:sRGB" id="grey-couch_vue_svg__filter130">
            <feGaussianBlur stdDeviation="1.443" id="grey-couch_vue_svg__feGaussianBlur128"/>
        </filter>
        <filter style="color-interpolation-filters:sRGB" id="grey-couch_vue_svg__filter134">
            <feGaussianBlur stdDeviation="1.381" id="grey-couch_vue_svg__feGaussianBlur132"/>
        </filter>
        <filter style="color-interpolation-filters:sRGB" id="grey-couch_vue_svg__filter138">
            <feGaussianBlur stdDeviation="1.332" id="grey-couch_vue_svg__feGaussianBlur136"/>
        </filter>
        <filter style="color-interpolation-filters:sRGB" id="grey-couch_vue_svg__filter142">
            <feGaussianBlur stdDeviation="1.438" id="grey-couch_vue_svg__feGaussianBlur140"/>
        </filter>
        <filter style="color-interpolation-filters:sRGB" id="grey-couch_vue_svg__filter146">
            <feGaussianBlur stdDeviation="1.256" id="grey-couch_vue_svg__feGaussianBlur144"/>
        </filter>
        <filter style="color-interpolation-filters:sRGB" id="grey-couch_vue_svg__filter150">
            <feGaussianBlur stdDeviation=".709" id="grey-couch_vue_svg__feGaussianBlur148"/>
        </filter>
        <filter style="color-interpolation-filters:sRGB" id="grey-couch_vue_svg__filter154">
            <feGaussianBlur stdDeviation=".709" id="grey-couch_vue_svg__feGaussianBlur152"/>
        </filter>
        <filter style="color-interpolation-filters:sRGB" id="grey-couch_vue_svg__filter158">
            <feGaussianBlur stdDeviation=".709" id="grey-couch_vue_svg__feGaussianBlur156"/>
        </filter>
        <filter style="color-interpolation-filters:sRGB" id="grey-couch_vue_svg__filter162">
            <feGaussianBlur stdDeviation=".709" id="grey-couch_vue_svg__feGaussianBlur160"/>
        </filter>
        <filter style="color-interpolation-filters:sRGB" id="grey-couch_vue_svg__filter166">
            <feGaussianBlur stdDeviation=".709" id="grey-couch_vue_svg__feGaussianBlur164"/>
        </filter>
        <filter style="color-interpolation-filters:sRGB" id="grey-couch_vue_svg__filter170">
            <feGaussianBlur stdDeviation=".709" id="grey-couch_vue_svg__feGaussianBlur168"/>
        </filter>
        <filter style="color-interpolation-filters:sRGB" id="grey-couch_vue_svg__filter174">
            <feGaussianBlur stdDeviation=".709" id="grey-couch_vue_svg__feGaussianBlur172"/>
        </filter>
        <filter style="color-interpolation-filters:sRGB" id="grey-couch_vue_svg__filter178">
            <feGaussianBlur stdDeviation=".709" id="grey-couch_vue_svg__feGaussianBlur176"/>
        </filter>
        <filter style="color-interpolation-filters:sRGB" id="grey-couch_vue_svg__filter182">
            <feGaussianBlur stdDeviation=".709" id="grey-couch_vue_svg__feGaussianBlur180"/>
        </filter>
        <filter style="color-interpolation-filters:sRGB" id="grey-couch_vue_svg__filter186">
            <feGaussianBlur stdDeviation=".718" id="grey-couch_vue_svg__feGaussianBlur184"/>
        </filter>
        <filter style="color-interpolation-filters:sRGB" id="grey-couch_vue_svg__filter190">
            <feGaussianBlur stdDeviation=".718" id="grey-couch_vue_svg__feGaussianBlur188"/>
        </filter>
        <filter style="color-interpolation-filters:sRGB" id="grey-couch_vue_svg__filter194">
            <feGaussianBlur stdDeviation=".718" id="grey-couch_vue_svg__feGaussianBlur192"/>
        </filter>
        <filter style="color-interpolation-filters:sRGB" id="grey-couch_vue_svg__filter198">
            <feGaussianBlur stdDeviation=".718" id="grey-couch_vue_svg__feGaussianBlur196"/>
        </filter>
        <filter style="color-interpolation-filters:sRGB" id="grey-couch_vue_svg__filter202">
            <feGaussianBlur stdDeviation=".718" id="grey-couch_vue_svg__feGaussianBlur200"/>
        </filter>
        <filter style="color-interpolation-filters:sRGB" id="grey-couch_vue_svg__filter206">
            <feGaussianBlur stdDeviation=".718" id="grey-couch_vue_svg__feGaussianBlur204"/>
        </filter>
        <filter style="color-interpolation-filters:sRGB" id="grey-couch_vue_svg__filter210">
            <feGaussianBlur stdDeviation=".806" id="grey-couch_vue_svg__feGaussianBlur208"/>
        </filter>
        <filter style="color-interpolation-filters:sRGB" x="-.049" width="1.098" y="-.137" height="1.273" id="grey-couch_vue_svg__filter214">
            <feGaussianBlur stdDeviation=".625" id="grey-couch_vue_svg__feGaussianBlur212"/>
        </filter>
        <filter style="color-interpolation-filters:sRGB" id="grey-couch_vue_svg__filter218">
            <feGaussianBlur stdDeviation="1.988" id="grey-couch_vue_svg__feGaussianBlur216"/>
        </filter>
        <filter style="color-interpolation-filters:sRGB" id="grey-couch_vue_svg__filter222">
            <feGaussianBlur stdDeviation="2.056" id="grey-couch_vue_svg__feGaussianBlur220"/>
        </filter>
        <filter style="color-interpolation-filters:sRGB" id="grey-couch_vue_svg__filter226">
            <feGaussianBlur stdDeviation=".85" id="grey-couch_vue_svg__feGaussianBlur224"/>
        </filter>
        <filter style="color-interpolation-filters:sRGB" id="grey-couch_vue_svg__filter230">
            <feGaussianBlur stdDeviation=".85" id="grey-couch_vue_svg__feGaussianBlur228"/>
        </filter>
        <filter style="color-interpolation-filters:sRGB" id="grey-couch_vue_svg__filter234">
            <feGaussianBlur stdDeviation=".85" id="grey-couch_vue_svg__feGaussianBlur232"/>
        </filter>
        <radialGradient xlink:href="#grey-couch_vue_svg__id-39e" gradientUnits="userSpaceOnUse" gradientTransform="matrix(.36227 -.00112 -.00787 .49499 897.139 433.952)" cx="1394.473" cy="857.335" fx="1394.473" fy="857.335" r="23.997" id="grey-couch_vue_svg__radialGradient236"/>
        <radialGradient xlink:href="#grey-couch_vue_svg__id-39e" gradientUnits="userSpaceOnUse" gradientTransform="matrix(.36227 -.00112 -.00787 .49499 897.139 433.952)" cx="1394.473" cy="857.335" fx="1394.473" fy="857.335" r="23.997" id="grey-couch_vue_svg__radialGradient238"/>
        <radialGradient xlink:href="#grey-couch_vue_svg__id-39e" gradientUnits="userSpaceOnUse" gradientTransform="matrix(.36227 -.00112 -.00787 .49499 897.139 433.952)" cx="1394.473" cy="857.335" fx="1394.473" fy="857.335" r="23.997" id="grey-couch_vue_svg__radialGradient240"/>
        <radialGradient xlink:href="#grey-couch_vue_svg__id-39e" gradientUnits="userSpaceOnUse" gradientTransform="matrix(.36227 -.00112 -.00787 .49499 897.139 433.952)" cx="1394.473" cy="857.335" fx="1394.473" fy="857.335" r="23.997" id="grey-couch_vue_svg__radialGradient242"/>
        <radialGradient xlink:href="#grey-couch_vue_svg__id-40f" cx="108.355" cy="65.195" fx="108.355" fy="65.195" r="17.904" gradientTransform="matrix(1 0 0 .80798 0 13.417)" gradientUnits="userSpaceOnUse" id="grey-couch_vue_svg__radialGradient253"/>
        <clipPath clipPathUnits="userSpaceOnUse" id="grey-couch_vue_svg__id-44j">
            <circle style="fill:#473e81;stroke:#1a191e;stroke-width:.86208999;stroke-linecap:round" r="87.569" cy="-262.031" cx="-615.619" id="grey-couch_vue_svg__circle71"/>
        </clipPath>
        <clipPath clipPathUnits="userSpaceOnUse" id="grey-couch_vue_svg__clipPath76">
            <circle r="87.569" cy="-262.031" cx="-615.619" style="fill:#473e81;stroke:#1a191e;stroke-width:.86208999;stroke-linecap:round" id="grey-couch_vue_svg__circle74"/>
        </clipPath>
        <clipPath clipPathUnits="userSpaceOnUse" id="grey-couch_vue_svg__clipPath246">
            <circle r="87.569" cy="-262.031" cx="-615.619" style="fill:#473e81;stroke:#1a191e;stroke-width:.86208999;stroke-linecap:round" id="grey-couch_vue_svg__circle244"/>
        </clipPath>
        <clipPath clipPathUnits="userSpaceOnUse" id="grey-couch_vue_svg__clipPath257">
            <circle cx="-615.619" cy="-262.031" r="87.569" style="fill:#473e81;stroke:#1a191e;stroke-width:.86209005;stroke-linecap:round" id="grey-couch_vue_svg__circle255"/>
        </clipPath>
        <clipPath clipPathUnits="userSpaceOnUse" id="grey-couch_vue_svg__clipPath284">
            <circle style="fill:#473e81;stroke:#1a191e;stroke-width:.86209005;stroke-linecap:round" r="87.569" cy="-262.031" cx="-615.619" id="grey-couch_vue_svg__circle282"/>
        </clipPath>
    </defs>
    <g class="grey-couch_vue_svg__chair" style="color:#000;stroke:#000;stroke-width:.86500001" transform="translate(783.382 379.868)" id="grey-couch_vue_svg__g314">
        <path d="M173.117-215.008c.037.065.447.78.95 1.77.524 1.032 1.108 2.285 1.335 3.13.111.413.578 2.605 1.207 5.624.63 3.019 1.426 6.88 2.207 10.69a9103.892 9103.892 0 0 1 3.065 15.017l.002.011.006.012s.599 1.485 1.174 3.176c.287.845.57 1.743.765 2.53.196.786.301 1.468.256 1.845-.065.54-.606 1.776-1.287 2.476-1.238 1.273-2.919 2.002-2.955 2.018-.063-.004-4.682-.262-8.893.941-4.093 1.17-17.32 6.095-18.224 6.432.212-.182.303-.242.635-.574.588-.59 1.233-1.333 1.449-2.016.03-.096.017-.176.002-.314a8.133 8.133 0 0 0-.086-.537 44.104 44.104 0 0 0-.387-1.8 261.751 261.751 0 0 0-1.498-6.017c-1.266-4.896-2.991-11.305-4.728-17.674a4129.725 4129.725 0 0 0-6.944-25.107c.356.091 7.396 1.885 12.397 1.227 5.058-.666 19.415-2.839 19.552-2.86zM83.79-213.75h6.416s.067.038.068.04c.063.092 1.093 1.612 1.506 3.233.104.406.413 2.04.819 4.282.405 2.241.91 5.103 1.414 8.008 1.006 5.808 2.008 11.795 2.207 13.32.203 1.559 1.171 5.924 2.14 10.201.97 4.277 1.94 8.463 2.137 9.582.203 1.147.87 4.049 1.488 6.871.31 1.411.606 2.802.825 3.938.218 1.136.359 2.028.359 2.398v2.086l.992.508c-.553.086-15.743 2.443-21.404 3.76-5.767 1.34-29.172 8.254-29.172 8.254l.039.13c-7.857-4.773-16.997-10.157-19.084-11.246-1.833-.956-4.014-2.98-6.361-5.332a74.024 74.024 0 0 1-.98-2.55c-.508-1.397-1.037-3.023-1.128-3.862-.05-.459-.263-1.399-.57-2.648-.307-1.25-.71-2.8-1.135-4.451-.85-3.302-1.794-6.999-2.265-9.448-.942-4.896-3.706-15.296-3.74-15.427l.087-.002-.086-.184s-2.339-5.015-3.336-7.873c-.494-1.419-.662-2.895-.787-4.154-.125-1.26-.193-2.298-.562-2.89-.629-1.005-1.968-3.567-2.098-3.815.395-.118 2.996-.87 7.936-.993 5.331-.133 36.725-.132 36.738-.132h.008c.026.005 5.2.933 9.345 1.2 2.08.135 5.389.136 8.366.036a81.5 81.5 0 0 0 4.021-.223c1.127-.096 1.962-.206 2.367-.353.769-.28 1.413-.86 1.98-1.362.568-.5 1.064-.902 1.45-.902z" style="line-height:normal;font-variant-ligatures:normal;font-variant-position:normal;font-variant-caps:normal;font-variant-numeric:normal;font-variant-alternates:normal;font-feature-settings:normal;text-indent:0;text-align:start;text-decoration:none;text-decoration-line:none;text-decoration-style:solid;text-decoration-color:#000;text-transform:none;text-orientation:mixed;white-space:normal;shape-padding:0;overflow:visible;isolation:auto;mix-blend-mode:normal;solid-color:#000;solid-opacity:1;fill:#7e8387;stroke:#282828;stroke-opacity:1" overflow="visible" transform="translate(-752.554 -30.439) scale(1.21477)" id="grey-couch_vue_svg__path288"/>
        <path d="M90.666-213.488c.3.164.92.497 2.25 1.279.237.14.637.24 1.197.336.56.095 1.274.176 2.106.246 1.664.14 3.798.228 6.092.264 4.587.07 9.81-.072 13.175-.451 6.703-.756 16.233-1.321 18.141-1.512 1.843-.185 7.126-.153 7.24-.153.01.035 3.519 12.561 6.988 25.28 1.738 6.368 3.464 12.777 4.729 17.672a258.29 258.29 0 0 1 1.496 6.01c.173.747.304 1.352.385 1.787.04.217.068.392.082.52.014.126.004.22.01.204-.185.587-.808 1.33-1.385 1.908-.577.579-1.103 1-1.103 1l.027.047-.117-.033a12.904 12.904 0 0 0-.516-.13c-.13-.03-.199-.047-.283-.04a7.206 7.206 0 0 0-.537.084c-.276.05-.648.12-1.102.207-.908.175-2.148.42-3.617.717-2.937.592-6.79 1.386-10.742 2.219-7.903 1.665-16.179 3.478-18.332 4.148-4.257 1.324-10.21 3.404-10.21 3.404l.03.082-1.71-.754.032-.006-1.56-.8v-1.924c0-.432-.144-1.31-.363-2.45-.22-1.14-.518-2.53-.827-3.943-.618-2.824-1.286-5.735-1.484-6.86-.204-1.152-1.172-5.317-2.14-9.593-.97-4.276-1.938-8.663-2.135-10.178-.202-1.549-1.205-7.522-2.211-13.332a1163.51 1163.51 0 0 0-1.412-8.01c-.406-2.242-.711-3.852-.825-4.298-.382-1.499-1.127-2.576-1.369-2.947z" style="line-height:normal;font-variant-ligatures:normal;font-variant-position:normal;font-variant-caps:normal;font-variant-numeric:normal;font-variant-alternates:normal;font-feature-settings:normal;text-indent:0;text-align:start;text-decoration:none;text-decoration-line:none;text-decoration-style:solid;text-decoration-color:#000;text-transform:none;text-orientation:mixed;white-space:normal;shape-padding:0;overflow:visible;isolation:auto;mix-blend-mode:normal;solid-color:#000;solid-opacity:1;fill:#7e8387;stroke:#282828;stroke-opacity:1" overflow="visible" transform="translate(-752.554 -30.439) scale(1.21477)" id="grey-couch_vue_svg__path290"/>
        <path d="M18.09-192.096c.013.051 2.81 10.58 3.75 15.47.474 2.464 1.419 6.16 2.27 9.462.425 1.65.827 3.204 1.134 4.451.307 1.247.518 2.196.563 2.611.098.91.631 2.522 1.14 3.924.39 1.075.608 1.6.762 1.983a699.486 699.486 0 0 1-4.361-4.455c-2.19-2.255-5.533-6.9-8.739-11.608-3.206-4.709-6.28-9.485-7.95-12.025-1.68-2.553-3.397-4.103-4.696-5.014-1.228-.86-1.979-1.093-2.07-1.123.006-.032 0-.052.06-.164.086-.162.256-.396.59-.666.669-.54 2.001-1.22 4.627-1.719 5.168-.981 12.663-1.122 12.92-1.127z" style="line-height:normal;font-variant-ligatures:normal;font-variant-position:normal;font-variant-caps:normal;font-variant-numeric:normal;font-variant-alternates:normal;font-feature-settings:normal;text-indent:0;text-align:start;text-decoration:none;text-decoration-line:none;text-decoration-style:solid;text-decoration-color:#000;text-transform:none;text-orientation:mixed;white-space:normal;shape-padding:0;overflow:visible;isolation:auto;mix-blend-mode:normal;solid-color:#000;solid-opacity:1;fill:#6b717b;stroke:#282828;stroke-opacity:1" overflow="visible" transform="translate(-752.554 -30.439) scale(1.21477)" id="grey-couch_vue_svg__path292"/>
        <path d="M-.287-188.223c.015.005.838.258 2.1 1.143 1.273.893 2.963 2.416 4.625 4.941 1.669 2.538 4.744 7.317 7.953 12.03 3.208 4.712 6.546 9.354 8.767 11.642 4.408 4.542 8.14 8.69 11.258 10.317 3.047 1.59 24.61 14.18 28.715 17.226 2.075 1.54 4.178 2.943 5.842 4.274 1.663 1.33 2.876 2.593 3.195 3.806.156.593.205 2.022.174 3.791-.031 1.77-.137 3.895-.262 5.94-.232 3.786-.497 6.778-.54 7.279-.433.446-.884.928-1.481 1.209-.383.18-1.494.585-2.936 1.09-1.442.505-3.222 1.114-4.977 1.717a373.162 373.162 0 0 0-4.82 1.68c-.669.24-1.24.452-1.67.622-.214.086-.392.162-.531.225-.14.063-.235.11-.303.16-.412.309-.789.884-1.076 1.387-.287.502-.478.933-.478.933l-.002.006-.002.008s-.474 1.493-.924 3.34c-.45 1.847-.88 4.043-.783 5.496.186 2.803 1.684 7.142 1.761 7.365-.128.019-1.27.174-2.685.715-1.322.506-2.674 1.392-3.424 2.678 0-.246.023-8.885-.102-18.084-.063-4.665-.164-9.408-.324-13.147-.08-1.869-.176-3.486-.289-4.718a23.547 23.547 0 0 0-.182-1.545c-.066-.409-.134-.7-.222-.887-.321-.678-1.25-1.738-2.555-3.023-1.305-1.286-2.981-2.783-4.78-4.272-3.596-2.977-7.669-5.92-10.238-7.068-5.037-2.254-17.223-10.82-21.347-14.412-4.11-3.58-14.157-16.03-16.817-19.887-1.32-1.914-2.49-4.95-3.492-7.836-1.001-2.887-1.83-5.619-2.511-6.98-1.29-2.58-3.67-5.116-3.895-5.354.167-.053 1.914-.604 4.146-1.242 2.337-.668 5.017-1.37 6.325-1.5 2.667-.267 8.736-1.058 8.787-1.065z" style="line-height:normal;font-variant-ligatures:normal;font-variant-position:normal;font-variant-caps:normal;font-variant-numeric:normal;font-variant-alternates:normal;font-feature-settings:normal;text-indent:0;text-align:start;text-decoration:none;text-decoration-line:none;text-decoration-style:solid;text-decoration-color:#000;text-transform:none;text-orientation:mixed;white-space:normal;shape-padding:0;overflow:visible;isolation:auto;mix-blend-mode:normal;solid-color:#000;solid-opacity:1;fill:#81888e;stroke:#282828;stroke-opacity:1" overflow="visible" transform="translate(-752.554 -30.439) scale(1.21477)" id="grey-couch_vue_svg__path294"/>
        <path d="M-19.469-183.924c.56.61 2.44 2.693 3.582 4.979.656 1.31 1.495 4.058 2.498 6.95 1.004 2.894 2.173 5.938 3.526 7.9 2.685 3.893 12.683 16.297 16.86 19.935 4.16 3.624 16.294 12.165 21.413 14.455 2.51 1.123 6.59 4.06 10.176 7.03 1.793 1.484 3.467 2.977 4.764 4.255 1.297 1.278 2.221 2.358 2.502 2.95.062.13.134.417.199.816.064.398.125.913.181 1.525.113 1.225.207 2.84.288 4.707.16 3.734.26 8.476.324 13.139.126 9.326.101 18.336.101 18.336h.059c-.036.075-.124.113-.154.191-.162.413-.278 1.107-.37 2.027-.091.92-.155 2.061-.199 3.344-.088 2.566-.092 5.696-.058 8.729.064 5.865.26 11 .273 11.357L20.54-77.535l-.002-.002s-7.348-7.048-14.98-14.664C1.74-96.01-2.15-99.96-5.223-103.241c-1.537-1.64-2.87-3.113-3.888-4.316-1.02-1.203-1.726-2.144-1.996-2.685-.552-1.103-1.116-3.417-1.635-6.313-.52-2.896-1-6.382-1.408-9.863-.819-6.962-1.354-13.92-1.354-16.104 0-1.122-.251-4.279-.627-8.408s-.876-9.22-1.377-14.174c-.98-9.68-1.917-18.407-1.96-18.82z" style="line-height:normal;font-variant-ligatures:normal;font-variant-position:normal;font-variant-caps:normal;font-variant-numeric:normal;font-variant-alternates:normal;font-feature-settings:normal;text-indent:0;text-align:start;text-decoration:none;text-decoration-line:none;text-decoration-style:solid;text-decoration-color:#000;text-transform:none;text-orientation:mixed;white-space:normal;shape-padding:0;overflow:visible;isolation:auto;mix-blend-mode:normal;solid-color:#000;solid-opacity:1;fill:#3e3e3e;stroke:#282828;stroke-opacity:1" overflow="visible" transform="translate(-752.554 -30.439) scale(1.21477)" id="grey-couch_vue_svg__path296"/>
        <path d="M182.223-178.613c.333.096 3.122.896 4.832 1.496.485.17 1.94.49 3.918.896 1.977.407 4.459.893 6.935 1.373s4.946.955 6.9 1.334c1.956.38 3.404.668 3.801.77.815.21 3.572 1.05 6.198 1.941a74.25 74.25 0 0 1 3.586 1.303c.495.2.92.385 1.236.545.317.16.532.308.58.37.142.181.267.521.357.933.091.411.153.895.192 1.379.078.968.068 1.938.045 2.33-.011.182-.082.656-.178 1.244-.097.588-.22 1.3-.344 1.984-.246 1.37-.484 2.639-.484 2.639l.123.023c-.32.084-.543.084-.889.186-.911.267-1.848.548-2.416.58-.554.03-1.595-.23-2.558-.545-.964-.316-1.868-.685-2.186-.844a2.054 2.054 0 0 0-.281-.101c-.132-.042-.305-.09-.514-.149-.418-.116-.98-.264-1.646-.433a317.494 317.494 0 0 0-4.93-1.2c-3.684-.869-7.723-1.77-9.504-2.072-1.752-.297-5.53-1.325-8.857-2.277-3.143-.9-5.573-1.637-5.868-1.727a9.342 9.342 0 0 0 2.717-1.906c.738-.758 1.281-1.975 1.36-2.629.055-.458-.065-1.145-.264-1.943-.164-.66-.402-1.394-.637-2.108.166.03 2.966.54 6.213 1.147 3.343.625 6.981 1.321 8.131 1.6 1.167.282 5.555 1.274 9.695 2.25 2.07.487 4.079.971 5.588 1.359a53.29 53.29 0 0 1 1.834.498c.225.067.406.125.531.172.063.023.113.044.145.06.032.016.048.037.027.01l.028.037.045.01c1.406.358 1.937 1.125 2.136 2.172.2 1.047.032 2.374-.037 3.756-.134 1.988-1.414 4.746-1.414 4.746l.24.111s1.298-2.758 1.438-4.841v-.002c.068-1.369.245-2.706.033-3.819-.21-1.103-.848-1.98-2.303-2.363-.024-.019-.049-.04-.078-.055a1.832 1.832 0 0 0-.168-.07 9.17 9.17 0 0 0-.547-.178 53.684 53.684 0 0 0-1.843-.5 311.809 311.809 0 0 0-5.594-1.36c-4.142-.975-8.536-1.969-9.693-2.25-1.176-.284-4.802-.978-8.145-1.603-3.318-.62-6.301-1.161-6.348-1.17-.018-.053-.03-.106-.048-.16-.535-1.571-1.01-2.748-1.09-2.949z" style="line-height:normal;font-variant-ligatures:normal;font-variant-position:normal;font-variant-caps:normal;font-variant-numeric:normal;font-variant-alternates:normal;font-feature-settings:normal;text-indent:0;text-align:start;text-decoration:none;text-decoration-line:none;text-decoration-style:solid;text-decoration-color:#000;text-transform:none;text-orientation:mixed;white-space:normal;shape-padding:0;overflow:visible;isolation:auto;mix-blend-mode:normal;solid-color:#000;solid-opacity:1;fill:#5b606a;stroke:#282828;stroke-opacity:1" overflow="visible" transform="translate(-752.554 -30.439) scale(1.21477)" id="grey-couch_vue_svg__path298"/>
        <path d="M179.932-166.459c.073.022 2.848.866 6.134 1.807 3.33.952 7.096 1.979 8.885 2.283 1.76.299 5.806 1.2 9.488 2.068 1.842.434 3.592.861 4.924 1.2.666.168 1.228.314 1.643.43.207.057.378.108.506.148.128.04.218.072.24.084.35.174 1.248.54 2.223.859.974.32 2.005.593 2.654.557.635-.036 1.567-.323 2.476-.59.91-.267 1.805-.509 2.252-.479.219.015.856.148 1.664.35.81.202 1.806.472 2.793.763.988.292 1.968.607 2.75.891.391.142.733.277.999.399.137.062.183.103.275.156l-19.762 10.556-.002.002s-.95.56-2.02 1.122c-.534.28-1.1.563-1.59.775-.487.212-.91.35-1.105.357-.917.032-3.057-.026-3.234-.03a31.582 31.582 0 0 1-.406-.325l-.012-.01-.016-.004s-12.33-4.064-24.804-8.115a2382.53 2382.53 0 0 0-17.293-5.559 427.445 427.445 0 0 0-5.871-1.818c-.54-.161-.913-.266-1.29-.371.36-.134 14.455-5.38 18.588-6.56 4.18-1.195 8.844-.93 8.844-.93l.031.001.028-.013.008-.004zm-28.73 7.469c-.014 0 .081.008.204.035.123.027.293.068.504.125a71.39 71.39 0 0 1 1.736.502c1.457.435 3.476 1.061 5.868 1.816a2384.61 2384.61 0 0 1 17.29 5.559c12.463 4.048 24.762 8.1 24.784 8.107.003.002.178.154.28.23-.196.091-9.61 4.457-19.302 8.934a6676.39 6676.39 0 0 1-13.546 6.244 996.389 996.389 0 0 1-4.563 2.084 199.14 199.14 0 0 1-1.713.768c-.092.04-.161.064-.156.063-.65.185-1.198.276-1.205.277l-54.473-24.04c.208-.072 5.846-2.041 10.018-3.34 2.098-.652 10.407-2.478 18.308-4.144 3.951-.832 7.804-1.626 10.74-2.218 1.469-.296 2.707-.54 3.614-.715.453-.087.823-.156 1.098-.205.274-.05.46-.078.513-.082z" style="line-height:normal;font-variant-ligatures:normal;font-variant-position:normal;font-variant-caps:normal;font-variant-numeric:normal;font-variant-alternates:normal;font-feature-settings:normal;text-indent:0;text-align:start;text-decoration:none;text-decoration-line:none;text-decoration-style:solid;text-decoration-color:#000;text-transform:none;text-orientation:mixed;white-space:normal;shape-padding:0;overflow:visible;isolation:auto;mix-blend-mode:normal;solid-color:#000;solid-opacity:1;fill:#8f999d;stroke:#282828;stroke-opacity:1" overflow="visible" transform="translate(-752.554 -30.439) scale(1.21477)" id="grey-couch_vue_svg__path300"/>
        <path d="M230.1-155.373c.144.139.282.529.347 1.072.067.55.078 1.246.05 1.985-.059 1.477-.276 3.129-.507 4.152-.236 1.046-.32 1.988-.412 2.736-.091.748-.202 1.298-.426 1.55 0-.001-.038.033-.093.075a7.246 7.246 0 0 1-.227.164c-.19.133-.457.311-.787.528-.66.433-1.575 1.019-2.662 1.707a601.286 601.286 0 0 1-7.928 4.916c-2.89 1.762-5.804 3.508-8.078 4.816a85.304 85.304 0 0 1-2.846 1.582c-.366.191-.672.34-.904.444a2.252 2.252 0 0 1-.438.156c-.658.033-1.451 0-2.117-.065a10.238 10.238 0 0 1-.869-.119 1.918 1.918 0 0 1-.41-.115l.156-4.506c.037-1.065.348-2.518.639-3.834.146-.658.286-1.282.385-1.809.098-.526.159-.952.132-1.244-.049-.54-.378-.976-.695-1.304.475.012 2.098.059 2.957.029.29-.01.705-.162 1.203-.379.499-.217 1.07-.5 1.608-.783a54.145 54.145 0 0 0 2.025-1.125l.004-.002z" style="line-height:normal;font-variant-ligatures:normal;font-variant-position:normal;font-variant-caps:normal;font-variant-numeric:normal;font-variant-alternates:normal;font-feature-settings:normal;text-indent:0;text-align:start;text-decoration:none;text-decoration-line:none;text-decoration-style:solid;text-decoration-color:#000;text-transform:none;text-orientation:mixed;white-space:normal;shape-padding:0;overflow:visible;isolation:auto;mix-blend-mode:normal;solid-color:#000;solid-opacity:1;fill:#595d62;stroke:#282828;stroke-opacity:1" overflow="visible" transform="translate(-752.554 -30.439) scale(1.21477)" id="grey-couch_vue_svg__path302"/>
        <path d="m104.477-149.07 56.576 24.968L67.77-85.945 53.494-96.64l.02-.072.002-.006a11.2 11.2 0 0 1 .46-.896c.28-.49.66-1.047 1.005-1.305.026-.02.12-.073.253-.133.133-.06.308-.134.52-.219a59.67 59.67 0 0 1 1.662-.619c1.335-.48 3.063-1.077 4.816-1.68 1.754-.602 3.534-1.211 4.977-1.716 1.443-.505 2.542-.902 2.963-1.1.551-.26.928-.692 1.342-1.09l-.018.225.264.023.035-.476c.683-.719 1.174-1.38 1.174-1.38l-.227-.136s-.369.537-.92 1.154c.06-.683.3-3.374.524-7.033.125-2.047.228-4.173.26-5.949.03-1.776-.004-3.189-.182-3.865-.35-1.326-1.608-2.602-3.285-3.944-1.678-1.342-3.784-2.745-5.852-4.279-1.346-.998-5.777-3.637-9.517-5.912.177-.052 23.343-6.892 29.046-8.219 5.7-1.325 21.495-3.779 21.66-3.804z" style="line-height:normal;font-variant-ligatures:normal;font-variant-position:normal;font-variant-caps:normal;font-variant-numeric:normal;font-variant-alternates:normal;font-feature-settings:normal;text-indent:0;text-align:start;text-decoration:none;text-decoration-line:none;text-decoration-style:solid;text-decoration-color:#000;text-transform:none;text-orientation:mixed;white-space:normal;shape-padding:0;overflow:visible;isolation:auto;mix-blend-mode:normal;solid-color:#000;solid-opacity:1;fill:#8f999d;stroke:#282828;stroke-opacity:1" overflow="visible" transform="translate(-752.554 -30.439) scale(1.21477)" id="grey-couch_vue_svg__path304"/>
        <path d="M202.094-142.428c.338.31.699.733.748 1.272.02.228-.032.65-.13 1.17-.097.519-.236 1.14-.382 1.798-.291 1.317-.606 2.778-.644 3.885l-.166 4.774c-.064.036-8.45 4.872-17.016 9.802a9716.01 9716.01 0 0 1-11.941 6.864 1856.8 1856.8 0 0 1-4.077 2.332c-1.017.58-1.667.946-1.763.994-.197.098-.547.14-.952.127a9.475 9.475 0 0 1-1.292-.15 18.349 18.349 0 0 1-1.606-.364l-.008.03-1.297-14.124c.116-.02.504-.083 1.092-.252.046-.013.094-.034.187-.074.094-.04.223-.095.383-.166.322-.142.773-.346 1.336-.601 1.126-.51 2.698-1.23 4.565-2.086a6669.13 6669.13 0 0 0 13.547-6.244c9.75-4.505 19.332-8.948 19.416-8.987z" style="line-height:normal;font-variant-ligatures:normal;font-variant-position:normal;font-variant-caps:normal;font-variant-numeric:normal;font-variant-alternates:normal;font-feature-settings:normal;text-indent:0;text-align:start;text-decoration:none;text-decoration-line:none;text-decoration-style:solid;text-decoration-color:#000;text-transform:none;text-orientation:mixed;white-space:normal;shape-padding:0;overflow:visible;isolation:auto;mix-blend-mode:normal;solid-color:#000;solid-opacity:1;fill:#595d62;stroke:#282828;stroke-opacity:1" overflow="visible" transform="translate(-752.554 -30.439) scale(1.21477)" id="grey-couch_vue_svg__path306"/>
        <path d="m227.338-142.342 2.183 1.625c.001.061.05 2.692.09 5.598.042 2.94.074 6.104.041 6.957-.033.866-.1 2.05-.25 3.18-.149 1.129-.386 2.207-.736 2.843-.71 1.29-2.078 1.948-2.078 1.948l-.004.004L83.478-37.76l-.021-.002-.002.014-11.633 6.701-.006.004s-.596.447-1.314.86c-.36.206-.749.403-1.104.53-.354.128-.675.18-.877.126-.933-.25-1.662-1.284-1.662-1.284l-.006-.01L46.77-50.97a486.27 486.27 0 0 1-.283-11.69c-.033-3.03-.029-6.156.059-8.714.044-1.28.108-2.417.199-3.328.09-.91.212-1.6.352-1.955.578-1.479 2.169-2.418 3.63-2.977 1.433-.548 2.671-.717 2.721-.724.052.05 4.44 4.233 9.233 8.29 2.186 1.852 4.22 3.484 5.996 4.643 1.775 1.16 3.288 1.854 4.468 1.795h.002c.765-.05 2.099-.6 3.272-1.133 1.17-.532 2.157-1.05 2.162-1.052l.006-.002 78.592-36.52.002-.002s1.27-.638 2.591-1.326a87.56 87.56 0 0 0 1.868-.998c.267-.149.5-.283.68-.393.18-.11.3-.185.374-.26.214-.213.307-.394.338-.53a.507.507 0 0 0 .01-.17c-.005-.043-.02-.08-.02-.08l.012.04-.146-1.594c.074.021.715.203 1.545.35.438.078.908.14 1.332.154.424.014.803-.016 1.078-.154.14-.07.757-.42 1.775-1 1.019-.58 2.422-1.382 4.079-2.332 3.313-1.9 7.641-4.39 11.94-6.865 8.6-4.95 17.081-9.84 17.081-9.84l.063-.035.006-.15c.107.038.202.077.369.109.247.046.554.09.892.123.677.066 1.479.098 2.156.064.136-.007.291-.07.532-.177.24-.107.548-.259.918-.452a85.442 85.442 0 0 0 2.857-1.588 392.48 392.48 0 0 0 8.084-4.818 601.925 601.925 0 0 0 7.932-4.918c.74-.468 1.258-.804 1.812-1.162z" style="line-height:normal;font-variant-ligatures:normal;font-variant-position:normal;font-variant-caps:normal;font-variant-numeric:normal;font-variant-alternates:normal;font-feature-settings:normal;text-indent:0;text-align:start;text-decoration:none;text-decoration-line:none;text-decoration-style:solid;text-decoration-color:#000;text-transform:none;text-orientation:mixed;white-space:normal;shape-padding:0;overflow:visible;isolation:auto;mix-blend-mode:normal;solid-color:#000;solid-opacity:1;fill:#4f5257;stroke:#282828;stroke-opacity:1" overflow="visible" transform="translate(-752.554 -30.439) scale(1.21477)" id="grey-couch_vue_svg__path308"/>
        <path d="m161.313-123.922 1.458 15.912.008.02s-.002-.01 0 .004a.233.233 0 0 1-.008.078c-.018.079-.075.216-.263.404a2.718 2.718 0 0 1-.326.223c-.175.106-.407.237-.672.385-.531.294-1.202.652-1.862.996-1.318.687-2.587 1.324-2.587 1.324L78.467-68.055l-.004.002s-.989.517-2.154 1.047c-1.165.53-2.525 1.067-3.178 1.112-1.063.052-2.552-.606-4.309-1.752-1.758-1.148-3.79-2.775-5.972-4.623a240.4 240.4 0 0 1-9.25-8.307c-.018-.05-1.594-4.623-1.78-7.402-.092-1.383.328-3.579.776-5.416.4-1.643.737-2.698.822-2.97l14.316 10.721z" style="line-height:normal;font-variant-ligatures:normal;font-variant-position:normal;font-variant-caps:normal;font-variant-numeric:normal;font-variant-alternates:normal;font-feature-settings:normal;text-indent:0;text-align:start;text-decoration:none;text-decoration-line:none;text-decoration-style:solid;text-decoration-color:#000;text-transform:none;text-orientation:mixed;white-space:normal;shape-padding:0;overflow:visible;isolation:auto;mix-blend-mode:normal;solid-color:#000;solid-opacity:1;fill:#595d62;stroke:#282828;stroke-opacity:1" overflow="visible" transform="translate(-752.554 -30.439) scale(1.21477)" id="grey-couch_vue_svg__path310"/>
        <path d="m223.348-118.02.052 1.047-5.357 2.938-.4-.7zM-7.051-104.875c.567.623.99 1.127 1.637 1.816 1.233 1.316 2.883 2.948 4.32 4.426l-1.086.457-4.87-4.314zM83.432-37.43l-.104 1.405-14.691 9.199-4.887-4.496.248-1.989 2.658 2.668c.024.035.743 1.09 1.797 1.372.3.08.657.004 1.035-.131.379-.136.777-.34 1.145-.551.728-.418 1.316-.86 1.328-.87l.014-.007z" style="line-height:normal;font-variant-ligatures:normal;font-variant-position:normal;font-variant-caps:normal;font-variant-numeric:normal;font-variant-alternates:normal;font-feature-settings:normal;text-indent:0;text-align:start;text-decoration:none;text-decoration-line:none;text-decoration-style:solid;text-decoration-color:#000;text-transform:none;text-orientation:mixed;white-space:normal;shape-padding:0;overflow:visible;isolation:auto;mix-blend-mode:normal;solid-color:#000;solid-opacity:1;stroke:#282828;stroke-opacity:1" overflow="visible" transform="translate(-752.554 -30.439) scale(1.21477)" id="grey-couch_vue_svg__path312"/>
    </g>
    <g transform="translate(274.615 125.518)" id="grey-couch_vue_svg__g320">
        <circle style="fill:#fff;stroke:#1a191e;stroke-width:3;stroke-linecap:round;stroke-miterlimit:4;stroke-dasharray:none" r="53.173" cy="24.984" cx="-91.512" id="grey-couch_vue_svg__circle316"/>
        <image class="seated-avatar" y="-351.662" x="-705.249" xlink:href="placeholder.png" preserveAspectRatio="none" height="179.261" width="179.261" clip-path="url(#grey-couch_vue_svg__id-44j)" transform="translate(282.298 184.092) scale(.60721)" id="grey-couch_vue_svg__image318"/>
    </g>
    <g transform="rotate(-15.465)">
        <image class="seated-keyboard" width="209.85" height="46.167" preserveAspectRatio="none" xlink:href="keyboard.png" id="grey-couch_vue_svg__keyboard" x="52.295" y="215.965"/>
    </g>
</svg>