<?xml version="1.0" encoding="UTF-8" standalone="no"?>
<!-- Created with Inkscape (http://www.inkscape.org/) -->

<svg
   version="1.1"
   id="svg2"
   width="186.89215"
   height="192.60648"
   viewBox="0 0 186.89215 192.60648"
   sodipodi:docname="blair.svg"
   inkscape:version="1.1.1 (3bf5ae0d25, 2021-09-20)"
   xmlns:inkscape="http://www.inkscape.org/namespaces/inkscape"
   xmlns:sodipodi="http://sodipodi.sourceforge.net/DTD/sodipodi-0.dtd"
   xmlns:xlink="http://www.w3.org/1999/xlink"
   xmlns="http://www.w3.org/2000/svg"
   xmlns:svg="http://www.w3.org/2000/svg">
  <defs
     id="defs6">
    <clipPath
       clipPathUnits="userSpaceOnUse"
       id="clipPath17146">
      <path
         style="opacity:1;fill:#595061;fill-opacity:1;stroke:#000000;stroke-width:1px;stroke-linecap:butt;stroke-linejoin:miter;stroke-opacity:1"
         d="m 71.899631,143.08621 c 0,0 -5.704434,4.39716 -5.110222,13.90455 0.594212,9.50739 5.823276,12.95382 7.487069,13.66688 1.663793,0.71305 9.863916,2.49569 16.756773,2.49569 6.892857,0 14.736449,0.71305 19.371309,-2.49569 4.63485,-3.20875 8.29734,-14.10743 8.29734,-17.91039 0,-3.80295 -3.90018,-11.56252 -5.44513,-13.34516 -1.54495,-1.78263 -4.51601,-5.94211 -4.51601,-5.94211 l -14.26108,-3.08991 -16.756774,9.38855 z"
         id="path17148"
         sodipodi:nodetypes="csssssscccc" />
    </clipPath>
    <clipPath
       clipPathUnits="userSpaceOnUse"
       id="clipPath18611">
      <path
         style="opacity:1;fill:#595061;fill-opacity:1;stroke:#000000;stroke-width:1px;stroke-linecap:butt;stroke-linejoin:miter;stroke-opacity:1"
         d="m 71.899631,143.08621 c 0,0 -5.704434,4.39716 -5.110222,13.90455 0.594212,9.50739 5.823276,12.95382 7.487069,13.66688 1.663793,0.71305 9.863916,2.49569 16.756773,2.49569 6.892857,0 14.736449,0.71305 19.371309,-2.49569 4.63485,-3.20875 8.29734,-14.10743 8.29734,-17.91039 0,-3.80295 -3.90018,-11.56252 -5.44513,-13.34516 -1.54495,-1.78263 -4.51601,-5.94211 -4.51601,-5.94211 l -14.26108,-3.08991 -16.756774,9.38855 z"
         id="path18613"
         sodipodi:nodetypes="csssssscccc" />
    </clipPath>
    <clipPath
       clipPathUnits="userSpaceOnUse"
       id="clipPath27283">
      <path
         style="opacity:1;fill:#464664;fill-opacity:1;stroke:#000000;stroke-width:1px;stroke-linecap:butt;stroke-linejoin:miter;stroke-opacity:1"
         d="m 13.109342,85.714927 c 0,0 10.588314,11.008485 27.395163,13.27741 16.806848,2.268923 36.638929,3.109263 47.059175,1.260513 10.420246,-1.848753 29.24392,-11.176554 40.84064,-21.092594 11.59673,-9.916041 16.47071,-16.05054 16.55475,-18.067362 0.084,-2.016822 -2.26893,-3.949609 -3.52944,-4.117678 -1.26051,-0.168068 -3.61347,4.789952 -7.64712,7.479048 -4.03364,2.689095 -13.69758,7.395013 -21.17663,7.983253 -7.47904,0.588239 -5.63029,0.168068 -5.63029,0.168068 0,0 -10.840417,-16.890883 -12.689171,-24.453964 C 92.437666,40.588539 90.672947,30.252327 90.672947,30.252327 L 76.975366,28.571642 c 0,0 -1.596651,-0.672274 -1.512617,-2.100856 0.08403,-1.428582 12.773205,-3.361369 16.554746,-4.033643 3.781541,-0.672274 15.798435,-7.395014 16.638775,-7.479048 0.84035,-0.08403 11.09252,26.218684 11.00849,27.227094 -0.084,1.008411 -0.5042,3.529439 -1.42858,4.789952 -0.92438,1.260514 -7.39501,5.882397 -8.15132,5.798363 -0.75631,-0.08403 -2.26893,-3.949609 -2.77313,-5.54626 -0.50421,-1.596651 -3.94961,-15.042129 -3.52944,-15.966506 0.42017,-0.924377 3.1933,-3.193301 4.36978,-2.521027 1.17648,0.672274 5.04205,12.437068 4.53785,13.27741 -0.50421,0.840342 -1.51262,1.008411 -1.59665,0.504206 -0.084,-0.504206 -3.02523,-11.176555 -3.44541,-11.596726 -0.42017,-0.420171 -2.18488,0.672274 -2.35295,1.428582 -0.16807,0.756308 3.9496,16.050541 4.62188,16.554746 0.67227,0.504205 5.54626,-2.521027 6.89081,-4.873986 1.34454,-2.352959 -6.21854,-22.101006 -7.47905,-23.025383 -1.26051,-0.924376 -9.24377,5.798363 -9.663939,8.151322 -0.420171,2.352959 6.386599,31.933012 7.479049,33.025457 1.09244,1.092445 18.57157,-13.949684 18.82367,-16.05054 0.2521,-2.100856 -10.75638,-34.706142 -13.27741,-36.6389297 -2.52103,-1.9327875 -2.9412,1.8487537 -10.50428,4.2857467 -7.563084,2.436993 -21.848905,5.798362 -35.462452,4.36978 -13.613547,-1.428582 -0.58824,5.630294 -0.58824,5.630294 0,0 -4.621883,-1.680684 -5.378191,-0.588239 -0.756308,1.092445 9.159732,8.403424 9.159732,8.403424 0,0 -4.36978,1.932788 -5.378191,3.949609 -1.008411,2.016822 2.268924,21.764869 1.932787,23.025383 -0.336137,1.260513 -2.436993,3.025232 -2.941198,4.453814 -0.504206,1.428583 -3.949609,19.579979 -3.949609,19.579979 0,0 -22.689246,2.268924 -29.916191,0.840342 -7.226944,-1.428582 -10.756383,-4.033643 -13.613547,-3.193301 -2.857164,0.840342 -2.941198,2.18489 -3.109267,3.025233 -0.168068,0.840342 0.168069,2.436993 0.168069,2.436993 z"
         id="path27285"
         sodipodi:nodetypes="cssscssscsccssscsssssscssssssssssscscssscsssc" />
    </clipPath>
    <clipPath
       clipPathUnits="userSpaceOnUse"
       id="clipPath27748">
      <path
         style="opacity:1;fill:#464664;fill-opacity:1;stroke:#000000;stroke-width:1px;stroke-linecap:butt;stroke-linejoin:miter;stroke-opacity:1"
         d="m 13.109342,85.714927 c 0,0 10.588314,11.008485 27.395163,13.27741 16.806848,2.268923 36.638929,3.109263 47.059175,1.260513 10.420246,-1.848753 29.24392,-11.176554 40.84064,-21.092594 11.59673,-9.916041 16.47071,-16.05054 16.55475,-18.067362 0.084,-2.016822 -2.26893,-3.949609 -3.52944,-4.117678 -1.26051,-0.168068 -3.61347,4.789952 -7.64712,7.479048 -4.03364,2.689095 -13.69758,7.395013 -21.17663,7.983253 -7.47904,0.588239 -5.63029,0.168068 -5.63029,0.168068 0,0 -10.840417,-16.890883 -12.689171,-24.453964 C 92.437666,40.588539 90.672947,30.252327 90.672947,30.252327 L 76.975366,28.571642 c 0,0 -1.596651,-0.672274 -1.512617,-2.100856 0.08403,-1.428582 12.773205,-3.361369 16.554746,-4.033643 3.781541,-0.672274 15.798435,-7.395014 16.638775,-7.479048 0.84035,-0.08403 11.09252,26.218684 11.00849,27.227094 -0.084,1.008411 -0.5042,3.529439 -1.42858,4.789952 -0.92438,1.260514 -7.39501,5.882397 -8.15132,5.798363 -0.75631,-0.08403 -2.26893,-3.949609 -2.77313,-5.54626 -0.50421,-1.596651 -3.94961,-15.042129 -3.52944,-15.966506 0.42017,-0.924377 3.1933,-3.193301 4.36978,-2.521027 1.17648,0.672274 5.04205,12.437068 4.53785,13.27741 -0.50421,0.840342 -1.51262,1.008411 -1.59665,0.504206 -0.084,-0.504206 -3.02523,-11.176555 -3.44541,-11.596726 -0.42017,-0.420171 -2.18488,0.672274 -2.35295,1.428582 -0.16807,0.756308 3.9496,16.050541 4.62188,16.554746 0.67227,0.504205 5.54626,-2.521027 6.89081,-4.873986 1.34454,-2.352959 -6.21854,-22.101006 -7.47905,-23.025383 -1.26051,-0.924376 -9.24377,5.798363 -9.663939,8.151322 -0.420171,2.352959 6.386599,31.933012 7.479049,33.025457 1.09244,1.092445 18.57157,-13.949684 18.82367,-16.05054 0.2521,-2.100856 -10.75638,-34.706142 -13.27741,-36.6389297 -2.52103,-1.9327875 -2.9412,1.8487537 -10.50428,4.2857467 -7.563084,2.436993 -21.848905,5.798362 -35.462452,4.36978 -13.613547,-1.428582 -0.58824,5.630294 -0.58824,5.630294 0,0 -4.621883,-1.680684 -5.378191,-0.588239 -0.756308,1.092445 9.159732,8.403424 9.159732,8.403424 0,0 -4.36978,1.932788 -5.378191,3.949609 -1.008411,2.016822 2.268924,21.764869 1.932787,23.025383 -0.336137,1.260513 -2.436993,3.025232 -2.941198,4.453814 -0.504206,1.428583 -3.949609,19.579979 -3.949609,19.579979 0,0 -22.689246,2.268924 -29.916191,0.840342 -7.226944,-1.428582 -10.756383,-4.033643 -13.613547,-3.193301 -2.857164,0.840342 -2.941198,2.18489 -3.109267,3.025233 -0.168068,0.840342 0.168069,2.436993 0.168069,2.436993 z"
         id="path27750"
         sodipodi:nodetypes="cssscssscsccssscsssssscssssssssssscscssscsssc" />
    </clipPath>
  </defs>
  <sodipodi:namedview
     id="namedview4"
     pagecolor="#ffffff"
     bordercolor="#111111"
     borderopacity="1"
     inkscape:pageshadow="0"
     inkscape:pageopacity="0"
     inkscape:pagecheckerboard="1"
     showgrid="false"
     inkscape:snap-global="false"
     inkscape:zoom="2.9749778"
     inkscape:cx="118.82442"
     inkscape:cy="97.311652"
     inkscape:window-width="1920"
     inkscape:window-height="1001"
     inkscape:window-x="-9"
     inkscape:window-y="-9"
     inkscape:window-maximized="1"
     inkscape:current-layer="g8"
     fit-margin-top="0"
     fit-margin-left="0"
     fit-margin-right="0"
     fit-margin-bottom="0" />
  <g
     inkscape:groupmode="layer"
     inkscape:label="Image"
     id="g8"
     transform="translate(3.0252328,-1.0084109)">
    <rect
       style="opacity:1;fill:#792a27;fill-opacity:1;stroke:none;stroke-width:0.8;stroke-linecap:round;stroke-linejoin:round;stroke-miterlimit:4;stroke-dasharray:none;stroke-opacity:1"
       id="rect34121"
       width="186.89215"
       height="192.60648"
       x="-3.0252328"
       y="1.0084109"
       inkscape:export-filename="C:\Users\Mitch\Documents\repositories\MitchBotStreams\assets\images\avatars\originals\anime pets\blair.png"
       inkscape:export-xdpi="513.66998"
       inkscape:export-ydpi="513.66998" />
    <image
       width="162"
       height="193"
       preserveAspectRatio="none"
       xlink:href="blair.jpg"
       id="image10"
       style="opacity:1"
       x="191.72473"
       y="3.0927992" />
    <path
       style="opacity:1;fill:#595061;fill-opacity:1;stroke:#000000;stroke-width:1px;stroke-linecap:butt;stroke-linejoin:miter;stroke-opacity:1"
       d="m 117.65394,147.00801 c 0,0 10.0639,-3.34248 15.56835,-15.33067 5.47579,-11.92578 4.84784,-22.77428 2.49569,-30.18596 -2.33112,-7.345421 -5.58559,-8.675493 -6.77401,-8.794336 -1.18843,-0.118842 -7.96244,1.069582 -9.15087,12.478446 -1.18842,11.40887 0.59421,17.70751 3.32759,17.9452 2.73337,0.23768 7.72475,-2.73337 7.48707,-12.83498 -0.23769,-10.1016 -3.0187,-7.93716 -3.52151,-6.80285 -1.36493,3.07919 -1.25038,7.11772 -1.41241,10.05362 -0.0799,1.44823 -2.35786,3.70433 -3.01094,-0.28942 -0.65308,-3.99375 -0.0946,-8.66429 1.61107,-12.12925 1.70563,-3.464963 3.55405,-3.109271 5.99105,-2.605065 2.43699,0.504205 3.85882,5.200925 3.97968,11.277995 0.0572,2.87396 -0.25774,6.68135 -1.53681,10.09079 -2.71001,6.33391 -8.41769,9.55272 -13.77904,4.29966 -3.79738,-3.62934 -2.76559,-21.1142 -0.94477,-26.281298 1.91161,-5.424748 6.8908,-9.075698 11.26058,-8.823596 4.36978,0.252103 9.66394,6.386603 11.00849,12.773204 1.34455,6.3866 1.48996,16.86889 0.58824,21.51277 -1.68068,8.65552 -5.8824,16.38667 -10.42025,20.58839 -4.53785,4.20171 -7.31098,6.3866 -10.50428,6.97484 -3.1933,0.58824 -5.12609,-0.92438 -5.12609,-0.92438 z"
       id="path5640"
       sodipodi:nodetypes="csssssssszzssccsssssscc" />
    <path
       style="opacity:1;fill:#595061;fill-opacity:1;stroke:#000000;stroke-width:1px;stroke-linecap:butt;stroke-linejoin:miter;stroke-opacity:1"
       d="m 68.809729,165.07204 c 0,0 -3.565271,1.18843 -3.446428,2.61454 0.118842,1.4261 3.327586,3.68411 4.397167,3.92179 1.069581,0.23769 5.585591,-0.95073 5.585591,-0.95073 l -3.089901,-5.94212 z"
       id="path3342" />
    <path
       style="opacity:1;fill:#595061;fill-opacity:1;stroke:#000000;stroke-width:1px;stroke-linecap:butt;stroke-linejoin:miter;stroke-opacity:1"
       d="m 71.899631,143.08621 c 0,0 -5.704434,4.39716 -5.110222,13.90455 0.594212,9.50739 5.823276,12.95382 7.487069,13.66688 1.663793,0.71305 9.863916,2.49569 16.756773,2.49569 6.892857,0 14.736449,0.71305 19.371309,-2.49569 4.63485,-3.20875 8.29734,-14.10743 8.29734,-17.91039 0,-3.80295 -3.90018,-11.56252 -5.44513,-13.34516 -1.54495,-1.78263 -4.51601,-5.94211 -4.51601,-5.94211 l -14.26108,-3.08991 -16.756774,9.38855 z"
       id="path45"
       sodipodi:nodetypes="csssssscccc" />
    <path
       style="opacity:1;fill:#473c45;fill-opacity:1;stroke:none;stroke-width:1px;stroke-linecap:butt;stroke-linejoin:miter;stroke-opacity:1"
       d="m 87.883928,151.99937 9.745074,-1.54494 -1.069581,18.00462 -1.485529,4.2189 -7.071121,0.29711 -2.673953,-18.53941 z"
       id="path15722"
       sodipodi:nodetypes="ccccccc" />
    <path
       style="opacity:1;fill:#473c45;fill-opacity:1;stroke:none;stroke-width:1px;stroke-linecap:butt;stroke-linejoin:miter;stroke-opacity:1"
       d="m 104.6407,162.63578 9.44797,3.14932 1.54495,2.73337 -5.40733,5.58559 -8.73491,-0.59421 -0.59421,-10.16102 z"
       id="path17514"
       clip-path="url(#clipPath18611)"
       transform="translate(-0.11884236,-0.47536946)" />
    <path
       style="opacity:1;fill:#595061;fill-opacity:1;stroke:#000000;stroke-width:1px;stroke-linecap:butt;stroke-linejoin:miter;stroke-opacity:1"
       d="m 105.05665,112.7814 c 0,0 4.15948,7.60592 4.87254,13.66688 0.71305,6.06096 0,19.01477 -2.13917,25.07573 -2.13916,6.06097 -5.11022,16.63794 -4.63485,19.72784 0.47537,3.0899 3.0899,7.24938 2.85222,8.79433 -0.23769,1.54495 -4.04064,3.44643 -6.536331,3.44643 -2.495689,0 -4.634852,-1.78263 -5.704433,-4.39717 -1.069582,-2.61453 3.208744,-32.80049 3.208744,-32.80049 z"
       id="path3336" />
    <path
       style="opacity:1;fill:#473c45;fill-opacity:1;stroke:none;stroke-width:1px;stroke-linecap:butt;stroke-linejoin:miter;stroke-opacity:1"
       d="m 68.839336,147.47288 7.883927,8.28459 5.378191,14.32784 -6.890807,5.04205 C 64.246043,171.46179 66.524919,161.40282 62.185339,154.53897 Z"
       id="path16921"
       sodipodi:nodetypes="cccccc"
       clip-path="url(#clipPath17146)"
       transform="translate(0.47536946,-0.11884237)" />
    <path
       style="opacity:1;fill:#595061;fill-opacity:1;stroke:#000000;stroke-width:1px;stroke-linecap:butt;stroke-linejoin:miter;stroke-opacity:1"
       d="m 71.780788,121.57574 c 0,0 -2.02032,7.13054 -1.426108,12.95382 0.594212,5.82327 7.130542,25.19458 7.962438,28.52216 0.831897,3.32759 1.782636,9.26971 1.544951,11.29003 -0.237685,2.02032 -1.307266,5.94212 -1.307266,5.94212 0,0 0.356527,2.49569 4.159483,2.85221 3.802955,0.35653 5.823276,-0.83189 6.53633,-2.02032 0.713054,-1.18842 0.713054,-11.17118 -0.47537,-16.87561 -1.188423,-5.70444 -1.069581,-14.97414 -1.069581,-14.97414 z"
       id="path3334" />
    <path
       style="opacity:1;fill:#595061;fill-opacity:1;stroke:none;stroke-width:1px;stroke-linecap:butt;stroke-linejoin:miter;stroke-opacity:1"
       d="m 72.315579,121.21921 -0.461165,2.1987 3.967015,18.47987 11.359022,7.62692 10.354941,-2.97105 9.660418,-14.99515 -1.6935,-16.90533 -1.53013,-2.83973 -24.704323,3.22597 z"
       id="path4685"
       sodipodi:nodetypes="cccccccccc" />
    <path
       style="opacity:1;fill:#595061;fill-opacity:1;stroke:#000000;stroke-width:1px;stroke-linecap:butt;stroke-linejoin:miter;stroke-opacity:1"
       d="m 117.89163,159.12993 c 0,0 2.49569,8.67549 1.90147,10.57697 -0.59421,1.90147 -3.80295,2.37684 -4.99138,2.37684 -1.18842,0 -3.0899,-2.73337 -3.0899,-2.73337 z"
       id="path3340" />
    <path
       style="opacity:1;fill:#cacaca;fill-opacity:1;stroke:#000000;stroke-width:1px;stroke-linecap:butt;stroke-linejoin:miter;stroke-opacity:1"
       d="m 82.225735,122.40764 c 0,0 -3.565271,4.75369 -3.089902,9.2697 0.47537,4.51601 4.510556,10.87382 9.388547,10.45813 7.057427,-0.60142 9.149904,-4.89261 9.885543,-7.96244 0.735639,-3.06983 0.929112,-8.91318 -1.447735,-11.52771 -2.376847,-2.61453 -4.753695,-2.73337 -4.753695,-2.73337 l -9.626231,-0.59422 -0.831897,3.56527 z"
       id="path3344"
       sodipodi:nodetypes="csszscccc" />
    <path
       style="opacity:1;fill:#595061;fill-opacity:1;stroke:#000000;stroke-width:1px;stroke-linecap:butt;stroke-linejoin:miter;stroke-opacity:1"
       d="m 59.183498,100.4218 c 0,0 -1.663794,8.43781 3.565271,14.0234 5.229064,5.58559 12.59729,8.91317 22.698891,7.48707 10.101601,-1.42611 20.32204,-10.45813 21.15394,-11.88424 0.8319,-1.42611 3.84292,-4.61829 3.44643,-13.07266 -0.16553,-3.529548 -3.32759,-6.298646 -3.32759,-6.298646 z"
       id="path3338"
       sodipodi:nodetypes="csssscc" />
    <path
       style="opacity:1;fill:none;stroke:#000000;stroke-width:1px;stroke-linecap:round;stroke-linejoin:round;stroke-opacity:1"
       d="m 79.446121,115.93073 c 0,0 1.842056,1.54495 3.268165,1.129 1.426108,-0.41595 1.834848,-1.09893 1.834848,-1.09893 0,0 0.363736,0.4453 2.027529,0.14819 1.663793,-0.29711 2.139162,-2.49569 2.139162,-2.49569"
       id="path9234"
       sodipodi:nodetypes="cscsc" />
    <path
       style="opacity:1;fill:#ffffff;stroke:#000000;stroke-width:1px;stroke-linecap:butt;stroke-linejoin:miter;stroke-opacity:1"
       d="m 89.369458,100.00585 c 0,0 12.181342,-5.52617 13.013242,-5.169643 0.83189,0.356527 1.89476,5.261583 -0.30854,8.278803 -1.81768,2.48915 -4.415447,3.5163 -6.198082,3.63514 -1.782636,0.11885 -4.519473,-0.34053 -5.734144,-2.10945 -1.298377,-1.89083 -0.772476,-4.63485 -0.772476,-4.63485 z"
       id="path9236"
       sodipodi:nodetypes="cssssc" />
    <path
       style="opacity:1;fill:#ffffff;fill-opacity:1;stroke:#000000;stroke-width:1px;stroke-linecap:butt;stroke-linejoin:miter;stroke-opacity:1"
       d="m 63.699507,100.83775 c 0,0 0.594212,5.76385 5.823276,7.48706 5.229064,1.72322 8.508854,-0.65104 9.685653,-2.73337 1.166948,-2.0649 0.237685,-4.57543 0.237685,-4.57543 z"
       id="path9238"
       sodipodi:nodetypes="csscc" />
    <path
       style="opacity:1;fill:#595061;fill-opacity:1;stroke:#000000;stroke-width:1px;stroke-linecap:round;stroke-linejoin:miter;stroke-opacity:1"
       d="m 73.990806,108.89398 c 0,0 -1.317462,-5.33983 0.405752,-5.80034 2.019048,-0.53957 2.710254,4.36535 2.710254,4.36535"
       id="path9976"
       sodipodi:nodetypes="csc" />
    <path
       style="opacity:1;fill:#595061;fill-opacity:1;stroke:#000000;stroke-width:1px;stroke-linecap:round;stroke-linejoin:miter;stroke-opacity:1"
       d="m 92.407019,106.05001 c 0,0 -0.902694,-5.20281 1.487275,-5.17179 2.389969,0.031 1.877379,5.70604 1.877379,5.70604"
       id="path9978"
       sodipodi:nodetypes="czc" />
    <path
       style="opacity:1;fill:#d28a9c;fill-opacity:1;stroke:none;stroke-width:1px;stroke-linecap:butt;stroke-linejoin:miter;stroke-opacity:1"
       d="m 67.731599,109.16048 c 0,0 5.420209,0.12605 5.294157,3.15129 -0.126051,3.02523 -4.411797,2.98321 -6.134499,2.89918 -1.722702,-0.084 -4.424592,-1.87201 -4.075661,-3.52944 0.504205,-2.39498 4.916003,-2.52103 4.916003,-2.52103 z"
       id="path10147"
       sodipodi:nodetypes="cscsc" />
    <path
       style="opacity:1;fill:#d28a9c;fill-opacity:1;stroke:none;stroke-width:1px;stroke-linecap:butt;stroke-linejoin:miter;stroke-opacity:1"
       d="m 100.21083,106.13525 c 1.76696,-0.49441 5.77818,-1.15457 5.67231,1.38656 -0.084,2.01682 -0.84034,3.86558 -4.87398,4.53785 -4.033645,0.67228 -4.53785,-1.05043 -4.453816,-2.26892 0.08403,-1.2185 1.888525,-3.16108 3.655486,-3.65549 z"
       id="path11370"
       sodipodi:nodetypes="zsssz" />
    <path
       sodipodi:type="star"
       style="opacity:1;fill:none;fill-opacity:1;stroke:#000000;stroke-width:0.8;stroke-miterlimit:4;stroke-dasharray:none;stroke-opacity:1"
       id="path14659"
       inkscape:flatsided="true"
       sodipodi:sides="3"
       sodipodi:cx="85.042656"
       sodipodi:cy="128.65642"
       sodipodi:r1="3.9112051"
       sodipodi:r2="1.9556025"
       sodipodi:arg1="-1.6137806"
       sodipodi:arg2="-0.56658304"
       inkscape:rounded="0.14"
       inkscape:randomized="0"
       d="m 84.874587,124.74883 c 0.947541,-0.0408 4.074653,4.87486 3.636177,5.71583 -0.438476,0.84097 -6.259083,1.09132 -6.768148,0.29111 -0.509065,-0.80022 2.184431,-5.96619 3.131971,-6.00694 z"
       inkscape:transform-center-x="-0.043351097"
       inkscape:transform-center-y="-0.43910536"
       transform="matrix(0.5917462,0,0,0.66425172,34.034976,43.037244)" />
    <path
       sodipodi:type="star"
       style="opacity:1;fill:none;fill-opacity:1;stroke:#000000;stroke-width:0.8;stroke-miterlimit:4;stroke-dasharray:none;stroke-opacity:1"
       id="path14777"
       inkscape:flatsided="true"
       sodipodi:sides="3"
       sodipodi:cx="85.042656"
       sodipodi:cy="128.65642"
       sodipodi:r1="3.9112051"
       sodipodi:r2="1.9556025"
       sodipodi:arg1="-1.6137806"
       sodipodi:arg2="-0.56658304"
       inkscape:rounded="0.14"
       inkscape:randomized="0"
       d="m 84.874587,124.74883 c 0.947541,-0.0408 4.074653,4.87486 3.636177,5.71583 -0.438476,0.84097 -6.259083,1.09132 -6.768148,0.29111 -0.509065,-0.80022 2.184431,-5.96619 3.131971,-6.00694 z"
       inkscape:transform-center-x="-0.043351097"
       inkscape:transform-center-y="0.43910537"
       transform="matrix(0.5917462,0,0,-0.66425172,38.194671,212.28119)" />
    <path
       sodipodi:type="star"
       style="opacity:1;fill:none;fill-opacity:1;stroke:#000000;stroke-width:0.8;stroke-miterlimit:4;stroke-dasharray:none;stroke-opacity:1"
       id="path14779"
       inkscape:flatsided="true"
       sodipodi:sides="3"
       sodipodi:cx="85.042656"
       sodipodi:cy="128.65642"
       sodipodi:r1="3.9112051"
       sodipodi:r2="1.9556025"
       sodipodi:arg1="-1.6137806"
       sodipodi:arg2="-0.56658304"
       inkscape:rounded="0.14"
       inkscape:randomized="0"
       d="m 84.874587,124.74883 c 0.947541,-0.0408 4.074653,4.87486 3.636177,5.71583 -0.438476,0.84097 -6.259083,1.09132 -6.768148,0.29111 -0.509065,-0.80022 2.184431,-5.96619 3.131971,-6.00694 z"
       inkscape:transform-center-x="-0.043351097"
       inkscape:transform-center-y="-0.43910536"
       transform="matrix(0.5917462,0,0,0.66425172,42.816554,43.037244)" />
    <path
       style="opacity:1;fill:none;stroke:#000000;stroke-width:1px;stroke-linecap:round;stroke-linejoin:miter;stroke-opacity:1"
       d="m 81.387163,182.64842 c 0,0 1.218497,-2.14287 1.134463,-2.94119"
       id="path15339" />
    <path
       style="opacity:1;fill:none;stroke:#000000;stroke-width:1px;stroke-linecap:round;stroke-linejoin:miter;stroke-opacity:1"
       d="m 85.96703,182.81649 c 0,0 0.756308,-2.2269 0.504205,-3.10926"
       id="path15341" />
    <path
       style="opacity:1;fill:none;stroke:#000000;stroke-width:1px;stroke-linecap:round;stroke-linejoin:miter;stroke-opacity:1"
       d="m 99.706628,183.15263 c 0,0 -0.04202,-2.18489 -0.504205,-3.36137"
       id="path15507" />
    <path
       style="opacity:1;fill:none;stroke:#000000;stroke-width:1px;stroke-linecap:round;stroke-linejoin:miter;stroke-opacity:1"
       d="m 103.53019,182.43834 c 0,0 -0.042,-1.42858 -0.67228,-2.81515"
       id="path15509" />
    <path
       style="opacity:1;fill:none;stroke:#000000;stroke-width:1px;stroke-linecap:round;stroke-linejoin:miter;stroke-opacity:1"
       d="m 82.983814,109.74872 0.252103,1.76472"
       id="path18648" />
    <path
       style="opacity:1;fill:#464664;fill-opacity:1;stroke:#000000;stroke-width:1px;stroke-linecap:butt;stroke-linejoin:miter;stroke-opacity:1"
       d="m 13.109342,85.714927 c 0,0 10.588314,11.008485 27.395163,13.27741 16.806848,2.268923 36.638929,3.109263 47.059175,1.260513 10.420246,-1.848753 29.24392,-11.176554 40.84064,-21.092594 11.59673,-9.916041 16.47071,-16.05054 16.55475,-18.067362 0.084,-2.016822 -2.26893,-3.949609 -3.52944,-4.117678 -1.26051,-0.168068 -3.61347,4.789952 -7.64712,7.479048 -4.03364,2.689095 -13.69758,7.395013 -21.17663,7.983253 -7.47904,0.588239 -5.63029,0.168068 -5.63029,0.168068 0,0 -10.840417,-16.890883 -12.689171,-24.453964 C 92.437666,40.588539 90.672947,30.252327 90.672947,30.252327 L 76.975366,28.571642 c 0,0 -1.596651,-0.672274 -1.512617,-2.100856 0.08403,-1.428582 12.773205,-3.361369 16.554746,-4.033643 3.781541,-0.672274 15.798435,-7.395014 16.638775,-7.479048 0.84035,-0.08403 11.09252,26.218684 11.00849,27.227094 -0.084,1.008411 -0.5042,3.529439 -1.42858,4.789952 -0.92438,1.260514 -7.39501,5.882397 -8.15132,5.798363 -0.75631,-0.08403 -2.26893,-3.949609 -2.77313,-5.54626 -0.50421,-1.596651 -3.94961,-15.042129 -3.52944,-15.966506 0.42017,-0.924377 3.1933,-3.193301 4.36978,-2.521027 1.17648,0.672274 5.04205,12.437068 4.53785,13.27741 -0.50421,0.840342 -1.51262,1.008411 -1.59665,0.504206 -0.084,-0.504206 -3.02523,-11.176555 -3.44541,-11.596726 -0.42017,-0.420171 -2.18488,0.672274 -2.35295,1.428582 -0.16807,0.756308 3.9496,16.050541 4.62188,16.554746 0.67227,0.504205 5.54626,-2.521027 6.89081,-4.873986 1.34454,-2.352959 -6.21854,-22.101006 -7.47905,-23.025383 -1.26051,-0.924376 -9.24377,5.798363 -9.663939,8.151322 -0.420171,2.352959 6.386599,31.933012 7.479049,33.025457 1.09244,1.092445 18.57157,-13.949684 18.82367,-16.05054 0.2521,-2.100856 -10.75638,-34.706142 -13.27741,-36.6389297 -2.52103,-1.9327875 -2.9412,1.8487537 -10.50428,4.2857467 -7.563084,2.436993 -21.848905,5.798362 -35.462452,4.36978 -13.613547,-1.428582 -0.58824,5.630294 -0.58824,5.630294 0,0 -4.621883,-1.680684 -5.378191,-0.588239 -0.756308,1.092445 9.159732,8.403424 9.159732,8.403424 0,0 -4.36978,1.932788 -5.378191,3.949609 -1.008411,2.016822 2.268924,21.764869 1.932787,23.025383 -0.336137,1.260513 -2.436993,3.025232 -2.941198,4.453814 -0.504206,1.428583 -3.949609,19.579979 -3.949609,19.579979 0,0 -22.689246,2.268924 -29.916191,0.840342 -7.226944,-1.428582 -10.756383,-4.033643 -13.613547,-3.193301 -2.857164,0.840342 -2.941198,2.18489 -3.109267,3.025233 -0.168068,0.840342 0.168069,2.436993 0.168069,2.436993 z"
       id="path19106"
       sodipodi:nodetypes="cssscssscsccssscsssssscssssssssssscscssscsssc" />
    <path
       style="fill:#17161e;fill-opacity:1;stroke:none;stroke-width:1px;stroke-linecap:butt;stroke-linejoin:miter;stroke-opacity:1"
       d="m 67.059325,68.067736 c 0,0 -0.672274,-3.025233 -0.168068,-6.386602 0.504205,-3.36137 5.210123,-10.924452 5.210123,-10.924452 0,0 0.336136,5.882397 0.672273,9.411835 0.336137,3.529438 1.344548,10.924452 1.344548,10.924452 l -7.058876,0.504205 z"
       id="path27451" />
    <path
       style="opacity:1;fill:none;stroke:#000000;stroke-width:1px;stroke-linecap:round;stroke-linejoin:miter;stroke-opacity:1"
       d="m 13.429187,83.249076 c 0,0 17.05388,11.290025 23.946737,12.834975 6.892857,1.544951 22.1641,2.139163 22.1641,2.139163"
       id="path19275"
       sodipodi:nodetypes="csc" />
    <path
       style="opacity:1;fill:none;stroke:#000000;stroke-width:1px;stroke-linecap:round;stroke-linejoin:miter;stroke-opacity:1"
       d="m 48.368842,84.021552 c 0,0 6.179803,4.159483 8.913178,4.634852"
       id="path19277" />
    <path
       style="opacity:1;fill:#bfbfbf;fill-opacity:1;stroke:#000000;stroke-width:1px;stroke-linecap:butt;stroke-linejoin:miter;stroke-opacity:1"
       d="m 63.105296,66.670567 c 0,0 3.565271,2.02032 7.130541,1.782635 3.565271,-0.237685 8.437808,-2.733374 9.03202,-1.901478 0.594212,0.831897 2.49569,17.826355 1.901478,19.727833 -0.594212,1.901478 -1.069581,3.327586 -2.02032,3.684113 -0.950739,0.356527 -13.191503,-2.258005 -15.56835,-3.446429 -2.376847,-1.188423 -4.278325,-4.04064 -4.278325,-4.04064 z"
       id="path19279" />
    <path
       style="opacity:1;fill:none;stroke:#000000;stroke-width:1px;stroke-linecap:butt;stroke-linejoin:miter;stroke-opacity:1"
       d="m 77.485222,82.714286 c 0,0 -1.604372,0.891318 -1.188424,2.258005 0.415948,1.366687 1.544951,1.723214 2.02032,1.366687 0.47537,-0.356527 1.604372,-2.02032 1.069582,-2.971059 -0.534791,-0.950739 -1.901478,-0.653633 -1.901478,-0.653633 z"
       id="path19283" />
    <path
       style="opacity:1;fill:none;stroke:#000000;stroke-width:1px;stroke-linecap:butt;stroke-linejoin:miter;stroke-opacity:1"
       d="m 76.118535,73.38516 c 0,0 -1.307266,0.772476 -1.010161,2.139163 0.297106,1.366687 1.366688,2.436268 1.842057,2.258005 0.47537,-0.178264 1.782636,-1.069582 1.307266,-2.733375 C 77.782328,73.38516 76.118535,73.38516 76.118535,73.38516 Z"
       id="path19285" />
    <path
       style="fill:none;stroke:#000000;stroke-width:1px;stroke-linecap:round;stroke-linejoin:miter;stroke-opacity:1"
       d="m 144.41284,59.83238 c 0,0 -3.81482,4.814398 -8.55272,9.725543 -4.44066,4.603032 -8.26654,8.08172 -12.91803,11.535121 -4.65148,3.453401 -21.8489,13.27741 -25.042198,13.949684"
       id="path25171"
       sodipodi:nodetypes="cszc" />
    <path
       style="fill:#17161e;fill-opacity:1;stroke:#000000;stroke-width:1px;stroke-linecap:round;stroke-linejoin:miter;stroke-opacity:1"
       d="m 144.41284,59.83238 c 0,0 -3.81482,4.814398 -8.55272,9.725543 -4.44066,4.603032 -8.26654,8.08172 -12.91803,11.535121 -4.65148,3.453401 -21.8489,13.27741 -25.042198,13.949684 0,0 -3.539055,1.576114 -8.411591,2.88338 -4.872537,1.307266 -12.716133,1.307266 -12.716133,1.307266 L 81.169335,87.94335 99.827586,71.305419 c 0,0 40.049874,-21.153941 40.644084,-21.153941 0.59422,0 3.94117,9.680902 3.94117,9.680902 z"
       id="path26112"
       sodipodi:nodetypes="cszc"
       clip-path="url(#clipPath27283)" />
    <path
       style="opacity:1;fill:#bfbfbf;fill-opacity:1;stroke:#000000;stroke-width:1px;stroke-linecap:butt;stroke-linejoin:miter;stroke-opacity:1"
       d="m 98.282636,58.232759 8.675494,14.379926 c 0,0 -2.37685,3.802955 -8.675494,8.794335 -6.298646,4.991379 -16.756774,6.655172 -16.756774,6.655172 L 79.862069,67.740148 c 0,0 5.823276,-0.831897 10.458128,-3.684113 4.634852,-2.852217 7.962439,-5.823276 7.962439,-5.823276 z"
       id="path19281" />
    <path
       style="fill:#17161e;fill-opacity:1;stroke:none;stroke-width:1px;stroke-linecap:butt;stroke-linejoin:miter;stroke-opacity:1"
       d="m 77.311503,66.55512 c 0,0 -1.512617,-8.739562 -1.344548,-12.437068 0.168068,-3.697507 0.504205,-8.739561 0.504205,-8.739561 L 64.370229,35.630519 49.075997,14.117753 117.64794,2.8571642 132.43797,53.109641 105.88314,65.210572 86.219132,70.756832 Z"
       id="path27602"
       clip-path="url(#clipPath27748)" />
  </g>
</svg>
